# Blender 5.0.1
# www.blender.org
o squarex_16x16_with_seams_Flat_Aligned
v -0.555719 0.000000 -0.936438
v -0.617491 0.000000 -0.923376
v 0.326922 0.000000 -1.038599
v 0.263318 0.000000 -1.034314
v 0.199753 0.000000 -1.029187
v 0.136458 0.000000 -1.022977
v 0.073337 0.000000 -1.016617
v 0.010376 0.000000 -1.009745
v -0.052513 0.000000 -1.002843
v -0.115331 0.000000 -0.995580
v -0.178147 0.000000 -0.988302
v -0.240950 0.000000 -0.980656
v -0.303817 0.000000 -0.972963
v -0.366722 0.000000 -0.964737
v -0.429762 0.000000 -0.956324
v -0.492817 0.000000 -0.946796
v -0.533696 0.000000 -0.813808
v -0.594608 0.000000 -0.803496
v 0.333494 0.000000 -0.914181
v 0.271623 0.000000 -0.909627
v 0.209741 0.000000 -0.904160
v 0.147688 0.000000 -0.898289
v 0.085582 0.000000 -0.891837
v 0.023412 0.000000 -0.885245
v -0.038758 0.000000 -0.878270
v -0.100939 0.000000 -0.871238
v -0.163083 0.000000 -0.863880
v -0.225203 0.000000 -0.856469
v -0.287234 0.000000 -0.848686
v -0.349173 0.000000 -0.840780
v -0.410925 0.000000 -0.832321
v -0.472420 0.000000 -0.823508
v -0.578133 0.000000 -0.683027
v 0.344822 0.000000 -0.791072
v 0.283295 0.000000 -0.785342
v 0.221701 0.000000 -0.779457
v 0.160149 0.000000 -0.773302
v 0.098519 0.000000 -0.766932
v 0.036873 0.000000 -0.760260
v -0.024811 0.000000 -0.753448
v -0.086486 0.000000 -0.746364
v -0.148148 0.000000 -0.739173
v -0.209757 0.000000 -0.731714
v -0.271297 0.000000 -0.724128
v -0.332753 0.000000 -0.716251
v -0.394083 0.000000 -0.708183
v -0.455394 0.000000 -0.699842
v -0.516603 0.000000 -0.691366
v -0.501847 0.000000 -0.568558
v -0.563406 0.000000 -0.561156
v 0.358510 0.000000 -0.668140
v 0.296869 0.000000 -0.661574
v 0.235361 0.000000 -0.655142
v 0.173838 0.000000 -0.648658
v 0.112373 0.000000 -0.642076
v 0.050891 0.000000 -0.635359
v -0.010570 0.000000 -0.628473
v -0.072028 0.000000 -0.621451
v -0.133465 0.000000 -0.614248
v -0.194873 0.000000 -0.606913
v -0.256264 0.000000 -0.599408
v -0.317608 0.000000 -0.591776
v -0.378985 0.000000 -0.584034
v -0.440336 0.000000 -0.576246
v -0.487788 0.000000 -0.445251
v -0.549485 0.000000 -0.438243
v 0.372989 0.000000 -0.544882
v 0.311380 0.000000 -0.537904
v 0.249778 0.000000 -0.531058
v 0.188257 0.000000 -0.524290
v 0.126748 0.000000 -0.517485
v 0.065290 0.000000 -0.510634
v 0.003843 0.000000 -0.503679
v -0.057580 0.000000 -0.496629
v -0.118990 0.000000 -0.489462
v -0.180401 0.000000 -0.482196
v -0.241798 0.000000 -0.474827
v -0.303236 0.000000 -0.467402
v -0.364677 0.000000 -0.459938
v -0.426214 0.000000 -0.452531
v -0.535659 0.000000 -0.314628
v 0.387779 0.000000 -0.421282
v 0.326120 0.000000 -0.414100
v 0.264500 0.000000 -0.407058
v 0.202899 0.000000 -0.400068
v 0.141350 0.000000 -0.393117
v 0.079820 0.000000 -0.386127
v 0.018324 0.000000 -0.379113
v -0.043157 0.000000 -0.372021
v -0.104634 0.000000 -0.364881
v -0.166106 0.000000 -0.357663
v -0.227605 0.000000 -0.350412
v -0.289115 0.000000 -0.343120
v -0.350685 0.000000 -0.335854
v -0.412283 0.000000 -0.328634
v -0.473953 0.000000 -0.321541
v -0.521734 0.000000 -0.190606
v 0.402544 0.000000 -0.297386
v 0.340870 0.000000 -0.290164
v 0.279205 0.000000 -0.283019
v 0.217568 0.000000 -0.275938
v 0.155951 0.000000 -0.268868
v 0.094365 0.000000 -0.261813
v 0.032796 0.000000 -0.254725
v -0.028759 0.000000 -0.247625
v -0.090309 0.000000 -0.240476
v -0.151869 0.000000 -0.233312
v -0.213438 0.000000 -0.226113
v -0.275042 0.000000 -0.218921
v -0.336666 0.000000 -0.211735
v -0.398333 0.000000 -0.204605
v -0.460026 0.000000 -0.197547
v -0.507643 0.000000 -0.066367
v 0.417179 0.000000 -0.173302
v 0.355492 0.000000 -0.166103
v 0.293806 0.000000 -0.158947
v 0.232134 0.000000 -0.151815
v 0.170484 0.000000 -0.144704
v 0.108849 0.000000 -0.137590
v 0.047233 0.000000 -0.130481
v -0.014375 0.000000 -0.123352
v -0.075983 0.000000 -0.116219
v -0.137595 0.000000 -0.109066
v -0.199224 0.000000 -0.101913
v -0.260869 0.000000 -0.094752
v -0.322539 0.000000 -0.087609
v -0.384229 0.000000 -0.080484
v -0.445930 0.000000 -0.073401
v -0.493339 0.000000 0.057946
v 0.431651 0.000000 -0.049117
v 0.369947 0.000000 -0.041975
v 0.308253 0.000000 -0.034834
v 0.246572 0.000000 -0.027695
v 0.184907 0.000000 -0.020557
v 0.123261 0.000000 -0.013422
v 0.061626 0.000000 -0.006288
v -0.000000 0.000000 0.000845
v -0.061627 0.000000 0.007978
v -0.123262 0.000000 0.015112
v -0.184907 0.000000 0.022247
v -0.246573 0.000000 0.029384
v -0.308253 0.000000 0.036524
v -0.369947 0.000000 0.043664
v -0.431652 0.000000 0.050806
v -0.417180 0.000000 0.174991
v -0.478868 0.000000 0.182240
v 0.445929 0.000000 0.075091
v 0.384229 0.000000 0.082174
v 0.322539 0.000000 0.089298
v 0.260868 0.000000 0.096442
v 0.199224 0.000000 0.103602
v 0.137594 0.000000 0.110756
v 0.075983 0.000000 0.117909
v 0.014375 0.000000 0.125042
v -0.047233 0.000000 0.132170
v -0.108850 0.000000 0.139280
v -0.170484 0.000000 0.146394
v -0.232134 0.000000 0.153505
v -0.293806 0.000000 0.160637
v -0.355493 0.000000 0.167793
v -0.464207 0.000000 0.306413
v 0.460025 0.000000 0.199237
v 0.398333 0.000000 0.206295
v 0.336666 0.000000 0.213425
v 0.275041 0.000000 0.220611
v 0.213438 0.000000 0.227803
v 0.151869 0.000000 0.235002
v 0.090308 0.000000 0.242166
v 0.028759 0.000000 0.249315
v -0.032796 0.000000 0.256415
v -0.094366 0.000000 0.263503
v -0.155951 0.000000 0.270557
v -0.217569 0.000000 0.277628
v -0.279205 0.000000 0.284709
v -0.340870 0.000000 0.291854
v -0.402545 0.000000 0.299075
v -0.387779 0.000000 0.422972
v -0.449433 0.000000 0.430337
v 0.473952 0.000000 0.323231
v 0.412283 0.000000 0.330323
v 0.350684 0.000000 0.337544
v 0.289114 0.000000 0.344810
v 0.227605 0.000000 0.352102
v 0.166105 0.000000 0.359352
v 0.104633 0.000000 0.366571
v 0.043157 0.000000 0.373710
v -0.018325 0.000000 0.380803
v -0.079821 0.000000 0.387817
v -0.141350 0.000000 0.394807
v -0.202899 0.000000 0.401758
v -0.264500 0.000000 0.408748
v -0.326120 0.000000 0.415790
v -0.372990 0.000000 0.546572
v -0.434656 0.000000 0.553842
v 0.487787 0.000000 0.446941
v 0.426213 0.000000 0.454221
v 0.364676 0.000000 0.461628
v 0.303235 0.000000 0.469092
v 0.241798 0.000000 0.476517
v 0.180400 0.000000 0.483886
v 0.118989 0.000000 0.491152
v 0.057580 0.000000 0.498319
v -0.003843 0.000000 0.505369
v -0.065290 0.000000 0.512323
v -0.126748 0.000000 0.519174
v -0.188257 0.000000 0.525980
v -0.249778 0.000000 0.532747
v -0.311381 0.000000 0.539593
v -0.420132 0.000000 0.676685
v 0.501846 0.000000 0.570248
v 0.440336 0.000000 0.577936
v 0.378985 0.000000 0.585724
v 0.317608 0.000000 0.593466
v 0.256263 0.000000 0.601098
v 0.194873 0.000000 0.608603
v 0.133464 0.000000 0.615938
v 0.072027 0.000000 0.623141
v 0.010569 0.000000 0.630163
v -0.050891 0.000000 0.637049
v -0.112373 0.000000 0.643766
v -0.173839 0.000000 0.650348
v -0.235360 0.000000 0.656831
v -0.296869 0.000000 0.663264
v -0.358510 0.000000 0.669829
v -0.406631 0.000000 0.798698
v 0.516601 0.000000 0.693056
v 0.455393 0.000000 0.701532
v 0.394083 0.000000 0.709873
v 0.332752 0.000000 0.717941
v 0.271297 0.000000 0.725818
v 0.209757 0.000000 0.733404
v 0.148147 0.000000 0.740863
v 0.086485 0.000000 0.748054
v 0.024811 0.000000 0.755138
v -0.036873 0.000000 0.761950
v -0.098519 0.000000 0.768622
v -0.160149 0.000000 0.774991
v -0.221700 0.000000 0.781146
v -0.283296 0.000000 0.787031
v -0.344822 0.000000 0.792761
v -0.395151 0.000000 0.919745
v 0.533694 0.000000 0.815498
v 0.472420 0.000000 0.825198
v 0.410925 0.000000 0.834011
v 0.349172 0.000000 0.842470
v 0.287234 0.000000 0.850376
v 0.225202 0.000000 0.858159
v 0.163083 0.000000 0.865570
v 0.100939 0.000000 0.872928
v 0.038757 0.000000 0.879960
v -0.023413 0.000000 0.886935
v -0.085582 0.000000 0.893527
v -0.147689 0.000000 0.899979
v -0.209740 0.000000 0.905850
v -0.271623 0.000000 0.911317
v -0.333494 0.000000 0.915871
v -0.326923 0.000000 1.040289
v -0.390046 0.000000 1.041683
v 0.555717 0.000000 0.938128
v 0.492816 0.000000 0.948485
v 0.429761 0.000000 0.958014
v 0.366721 0.000000 0.966426
v 0.303816 0.000000 0.974653
v 0.240950 0.000000 0.982346
v 0.178147 0.000000 0.989991
v 0.115331 0.000000 0.997270
v 0.052513 0.000000 1.004533
v -0.010376 0.000000 1.011435
v -0.073338 0.000000 1.018306
v -0.136459 0.000000 1.024667
v -0.199753 0.000000 1.030877
v -0.263318 0.000000 1.036004
v -0.574431 0.000000 -0.869432
v -0.586864 0.000000 -0.930244
v -0.604883 0.000000 -0.863218
v -0.543840 0.000000 -0.875063
v -0.564167 0.000000 -0.808734
v 0.358660 0.000000 -1.039683
v 0.360446 0.000000 -0.977639
v 0.329378 0.000000 -0.976133
v 0.364319 0.000000 -0.916201
v 0.298265 0.000000 -0.974250
v 0.295120 0.000000 -1.036656
v 0.267067 0.000000 -0.972005
v 0.302560 0.000000 -0.911999
v 0.231517 0.000000 -1.031880
v 0.235820 0.000000 -0.969453
v 0.204565 0.000000 -0.966684
v 0.240703 0.000000 -0.906980
v 0.173294 0.000000 -0.963767
v 0.168068 0.000000 -1.026134
v 0.142001 0.000000 -0.960707
v 0.178726 0.000000 -0.901284
v 0.104884 0.000000 -1.019843
v 0.110707 0.000000 -0.957540
v 0.079431 0.000000 -0.954283
v 0.116643 0.000000 -0.895104
v 0.048159 0.000000 -0.950957
v 0.041836 0.000000 -1.013204
v 0.016881 0.000000 -0.947561
v 0.054500 0.000000 -0.888573
v -0.021071 0.000000 -1.006319
v -0.014390 0.000000 -0.944115
v -0.045643 0.000000 -0.940614
v -0.007672 0.000000 -0.881782
v -0.076890 0.000000 -0.937068
v -0.083933 0.000000 -0.999231
v -0.108142 0.000000 -0.933471
v -0.069850 0.000000 -0.874777
v -0.146734 0.000000 -0.991962
v -0.139390 0.000000 -0.929834
v -0.170621 0.000000 -0.926149
v -0.132015 0.000000 -0.867582
v -0.201848 0.000000 -0.922418
v -0.209552 0.000000 -0.984503
v -0.233079 0.000000 -0.918630
v -0.194149 0.000000 -0.860198
v -0.272369 0.000000 -0.976837
v -0.264305 0.000000 -0.914791
v -0.295510 0.000000 -0.910886
v -0.256229 0.000000 -0.852608
v -0.326704 0.000000 -0.906912
v -0.335267 0.000000 -0.968898
v -0.357894 0.000000 -0.902847
v -0.318221 0.000000 -0.844771
v -0.398217 0.000000 -0.960589
v -0.389059 0.000000 -0.898678
v -0.420169 0.000000 -0.894375
v -0.380074 0.000000 -0.836606
v -0.451230 0.000000 -0.889930
v -0.461300 0.000000 -0.951690
v -0.482234 0.000000 -0.885277
v -0.441713 0.000000 -0.827994
v -0.524314 0.000000 -0.941811
v -0.513120 0.000000 -0.880336
v -0.503081 0.000000 -0.818751
v -0.524716 0.000000 -0.752619
v -0.555323 0.000000 -0.748007
v -0.586018 0.000000 -0.743470
v -0.547337 0.000000 -0.687153
v 0.369580 0.000000 -0.855059
v 0.338729 0.000000 -0.852558
v 0.375707 0.000000 -0.793991
v 0.307913 0.000000 -0.850016
v 0.277108 0.000000 -0.847369
v 0.314054 0.000000 -0.788214
v 0.246295 0.000000 -0.844621
v 0.215460 0.000000 -0.841771
v 0.252496 0.000000 -0.782424
v 0.184602 0.000000 -0.838813
v 0.153731 0.000000 -0.835756
v 0.190932 0.000000 -0.776415
v 0.122842 0.000000 -0.832618
v 0.091928 0.000000 -0.829401
v 0.129339 0.000000 -0.770146
v 0.060999 0.000000 -0.826113
v 0.030067 0.000000 -0.822761
v 0.067701 0.000000 -0.763625
v -0.000872 0.000000 -0.819357
v -0.031822 0.000000 -0.815897
v 0.006032 0.000000 -0.756879
v -0.062774 0.000000 -0.812386
v -0.093715 0.000000 -0.808827
v -0.055650 0.000000 -0.749929
v -0.124652 0.000000 -0.805224
v -0.155587 0.000000 -0.801572
v -0.117321 0.000000 -0.742791
v -0.186510 0.000000 -0.797870
v -0.217408 0.000000 -0.794117
v -0.178959 0.000000 -0.735467
v -0.248288 0.000000 -0.790314
v -0.279150 0.000000 -0.786451
v -0.240538 0.000000 -0.727948
v -0.309982 0.000000 -0.782521
v -0.340771 0.000000 -0.778520
v -0.302037 0.000000 -0.720217
v -0.371524 0.000000 -0.774444
v -0.402242 0.000000 -0.770275
v -0.363433 0.000000 -0.712250
v -0.432913 0.000000 -0.766006
v -0.463539 0.000000 -0.761643
v -0.424742 0.000000 -0.704037
v -0.494134 0.000000 -0.757183
v -0.485995 0.000000 -0.695612
v -0.539824 0.000000 -0.626088
v -0.570612 0.000000 -0.622244
v -0.509083 0.000000 -0.630022
v -0.532607 0.000000 -0.564804
v 0.382341 0.000000 -0.732824
v 0.351515 0.000000 -0.729632
v 0.389314 0.000000 -0.671511
v 0.320702 0.000000 -0.726507
v 0.289915 0.000000 -0.723428
v 0.327681 0.000000 -0.664833
v 0.259145 0.000000 -0.720352
v 0.228385 0.000000 -0.717249
v 0.266111 0.000000 -0.658356
v 0.197628 0.000000 -0.714114
v 0.166871 0.000000 -0.710946
v 0.204595 0.000000 -0.651909
v 0.136112 0.000000 -0.707732
v 0.105352 0.000000 -0.704467
v 0.143105 0.000000 -0.645385
v 0.074589 0.000000 -0.701156
v 0.043820 0.000000 -0.697800
v 0.081630 0.000000 -0.638735
v 0.013048 0.000000 -0.694395
v -0.017721 0.000000 -0.690944
v 0.020160 0.000000 -0.631936
v -0.048489 0.000000 -0.687450
v -0.079257 0.000000 -0.683911
v -0.041301 0.000000 -0.624981
v -0.110020 0.000000 -0.680328
v -0.140773 0.000000 -0.676701
v -0.102749 0.000000 -0.617869
v -0.171517 0.000000 -0.673033
v -0.202253 0.000000 -0.669318
v -0.164173 0.000000 -0.610600
v -0.232975 0.000000 -0.665557
v -0.263681 0.000000 -0.661753
v -0.225571 0.000000 -0.603178
v -0.294373 0.000000 -0.657906
v -0.325054 0.000000 -0.654009
v -0.286940 0.000000 -0.595609
v -0.355721 0.000000 -0.650067
v -0.386381 0.000000 -0.646093
v -0.348294 0.000000 -0.587914
v -0.417036 0.000000 -0.642088
v -0.447695 0.000000 -0.638054
v -0.409656 0.000000 -0.580140
v -0.478372 0.000000 -0.634018
v -0.471078 0.000000 -0.572381
v -0.494758 0.000000 -0.506964
v -0.525570 0.000000 -0.503335
v 0.427337 0.000000 -0.613675
v -0.518628 0.000000 -0.441706
v 0.396504 0.000000 -0.610060
v 0.365678 0.000000 -0.606555
v 0.403823 0.000000 -0.548475
v 0.334867 0.000000 -0.603127
v 0.304069 0.000000 -0.599747
v 0.342180 0.000000 -0.541366
v 0.273280 0.000000 -0.596402
v 0.242507 0.000000 -0.593083
v 0.280573 0.000000 -0.534469
v 0.211746 0.000000 -0.589769
v 0.180995 0.000000 -0.586445
v 0.219012 0.000000 -0.527673
v 0.150251 0.000000 -0.583106
v 0.119516 0.000000 -0.579753
v 0.157497 0.000000 -0.520892
v 0.088785 0.000000 -0.576373
v 0.058060 0.000000 -0.572963
v 0.096016 0.000000 -0.514070
v 0.027339 0.000000 -0.569524
v -0.003378 0.000000 -0.566053
v 0.034563 0.000000 -0.507169
v -0.034092 0.000000 -0.562549
v -0.064801 0.000000 -0.559012
v -0.026870 0.000000 -0.500168
v -0.095506 0.000000 -0.555441
v -0.126208 0.000000 -0.551836
v -0.088287 0.000000 -0.493060
v -0.156906 0.000000 -0.548198
v -0.187600 0.000000 -0.544529
v -0.149695 0.000000 -0.485842
v -0.218292 0.000000 -0.540830
v -0.248981 0.000000 -0.537101
v -0.211099 0.000000 -0.478523
v -0.279671 0.000000 -0.533345
v -0.310364 0.000000 -0.529572
v -0.272514 0.000000 -0.471121
v -0.341061 0.000000 -0.525784
v -0.371766 0.000000 -0.521984
v -0.333951 0.000000 -0.463670
v -0.402484 0.000000 -0.518186
v -0.433223 0.000000 -0.514410
v -0.395437 0.000000 -0.456224
v -0.463979 0.000000 -0.510665
v -0.456990 0.000000 -0.448866
v -0.511717 0.000000 -0.379938
v -0.542572 0.000000 -0.376503
v -0.480876 0.000000 -0.383439
v -0.504800 0.000000 -0.318057
v 0.411205 0.000000 -0.486761
v 0.380379 0.000000 -0.483125
v 0.418607 0.000000 -0.424937
v 0.349554 0.000000 -0.479547
v 0.318736 0.000000 -0.476019
v 0.356948 0.000000 -0.417672
v 0.287928 0.000000 -0.472528
v 0.257130 0.000000 -0.469059
v 0.295306 0.000000 -0.410567
v 0.226341 0.000000 -0.465606
v 0.195564 0.000000 -0.462165
v 0.233695 0.000000 -0.403559
v 0.164797 0.000000 -0.458726
v 0.134039 0.000000 -0.455279
v 0.172120 0.000000 -0.396593
v 0.103289 0.000000 -0.451822
v 0.072547 0.000000 -0.448355
v 0.110581 0.000000 -0.389626
v 0.041812 0.000000 -0.444871
v 0.011082 0.000000 -0.441368
v 0.049070 0.000000 -0.382627
v -0.019644 0.000000 -0.437843
v -0.050366 0.000000 -0.434299
v -0.012418 0.000000 -0.375575
v -0.081085 0.000000 -0.430732
v -0.111803 0.000000 -0.427144
v -0.073896 0.000000 -0.368459
v -0.142522 0.000000 -0.423536
v -0.173240 0.000000 -0.419907
v -0.135369 0.000000 -0.361279
v -0.203961 0.000000 -0.416260
v -0.234688 0.000000 -0.412601
v -0.196853 0.000000 -0.354043
v -0.265420 0.000000 -0.408930
v -0.296159 0.000000 -0.405251
v -0.258356 0.000000 -0.346768
v -0.326908 0.000000 -0.401570
v -0.357672 0.000000 -0.397899
v -0.319894 0.000000 -0.339484
v -0.388448 0.000000 -0.394241
v -0.419239 0.000000 -0.390602
v -0.381477 0.000000 -0.332233
v -0.450048 0.000000 -0.386997
v -0.443113 0.000000 -0.325069
v -0.467005 0.000000 -0.259571
v -0.497858 0.000000 -0.256092
v 0.456831 0.000000 -0.366726
v -0.490880 0.000000 -0.194061
v 0.426003 0.000000 -0.363024
v 0.395170 0.000000 -0.359363
v 0.433379 0.000000 -0.301039
v 0.364338 0.000000 -0.355741
v 0.333508 0.000000 -0.352150
v 0.371706 0.000000 -0.293762
v 0.302681 0.000000 -0.348585
v 0.271860 0.000000 -0.345043
v 0.310036 0.000000 -0.286583
v 0.241048 0.000000 -0.341517
v 0.210243 0.000000 -0.337999
v 0.248383 0.000000 -0.279474
v 0.179444 0.000000 -0.334487
v 0.148655 0.000000 -0.330979
v 0.186756 0.000000 -0.272402
v 0.117873 0.000000 -0.327469
v 0.087098 0.000000 -0.323953
v 0.125155 0.000000 -0.265341
v 0.056327 0.000000 -0.320430
v 0.025563 0.000000 -0.316898
v 0.063578 0.000000 -0.258272
v -0.005197 0.000000 -0.313356
v -0.035956 0.000000 -0.309802
v 0.002017 0.000000 -0.251179
v -0.066713 0.000000 -0.306236
v -0.097470 0.000000 -0.302658
v -0.059534 0.000000 -0.244055
v -0.128227 0.000000 -0.299068
v -0.158989 0.000000 -0.295470
v -0.121087 0.000000 -0.236898
v -0.189754 0.000000 -0.291863
v -0.220523 0.000000 -0.288249
v -0.182651 0.000000 -0.229714
v -0.251300 0.000000 -0.284631
v -0.282086 0.000000 -0.281015
v -0.244236 0.000000 -0.222517
v -0.312880 0.000000 -0.277402
v -0.343684 0.000000 -0.273797
v -0.305850 0.000000 -0.215324
v -0.374498 0.000000 -0.270205
v -0.405325 0.000000 -0.266634
v -0.367496 0.000000 -0.208163
v -0.436161 0.000000 -0.263087
v -0.429176 0.000000 -0.201064
v -0.483857 0.000000 -0.131984
v -0.514712 0.000000 -0.128505
v -0.453003 0.000000 -0.135487
v -0.476786 0.000000 -0.069877
v 0.440722 0.000000 -0.238999
v 0.409883 0.000000 -0.235362
v 0.448025 0.000000 -0.176919
v 0.379041 0.000000 -0.231745
v 0.348199 0.000000 -0.228145
v 0.386336 0.000000 -0.169697
v 0.317360 0.000000 -0.224561
v 0.286524 0.000000 -0.220989
v 0.324648 0.000000 -0.162521
v 0.255692 0.000000 -0.217428
v 0.224866 0.000000 -0.213875
v 0.262968 0.000000 -0.155379
v 0.194045 0.000000 -0.210327
v 0.163230 0.000000 -0.206781
v 0.201306 0.000000 -0.148258
v 0.132420 0.000000 -0.203236
v 0.101616 0.000000 -0.199691
v 0.139664 0.000000 -0.141148
v 0.070816 0.000000 -0.196144
v 0.040020 0.000000 -0.192592
v 0.078040 0.000000 -0.134037
v 0.009226 0.000000 -0.189036
v -0.021566 0.000000 -0.185475
v 0.016428 0.000000 -0.126918
v -0.052356 0.000000 -0.181908
v -0.083149 0.000000 -0.178336
v -0.045179 0.000000 -0.119787
v -0.113942 0.000000 -0.174759
v -0.144738 0.000000 -0.171177
v -0.106788 0.000000 -0.112644
v -0.175537 0.000000 -0.167592
v -0.206343 0.000000 -0.164005
v -0.168407 0.000000 -0.105490
v -0.237153 0.000000 -0.160418
v -0.267969 0.000000 -0.156832
v -0.230044 0.000000 -0.098332
v -0.298792 0.000000 -0.153249
v -0.329622 0.000000 -0.149674
v -0.291702 0.000000 -0.091179
v -0.360459 0.000000 -0.146107
v -0.391301 0.000000 -0.142552
v -0.353382 0.000000 -0.084042
v -0.422150 0.000000 -0.139011
v -0.415079 0.000000 -0.076937
v -0.438814 0.000000 -0.011300
v -0.469666 0.000000 -0.007754
v 0.486125 0.000000 -0.118411
v -0.462498 0.000000 0.054377
v 0.455284 0.000000 -0.114812
v 0.424437 0.000000 -0.111217
v 0.462497 0.000000 -0.052687
v 0.393590 0.000000 -0.107627
v 0.362742 0.000000 -0.104045
v 0.400799 0.000000 -0.045546
v 0.331894 0.000000 -0.100467
v 0.301049 0.000000 -0.096894
v 0.339099 0.000000 -0.038404
v 0.270208 0.000000 -0.093324
v 0.239371 0.000000 -0.089757
v 0.277410 0.000000 -0.031264
v 0.208538 0.000000 -0.086192
v 0.177709 0.000000 -0.082629
v 0.215737 0.000000 -0.024126
v 0.146885 0.000000 -0.079067
v 0.116065 0.000000 -0.075505
v 0.154082 0.000000 -0.016989
v 0.085249 0.000000 -0.071943
v 0.054435 0.000000 -0.068380
v 0.092442 0.000000 -0.009855
v 0.023623 0.000000 -0.064816
v -0.007187 0.000000 -0.061251
v 0.030813 0.000000 -0.002722
v -0.037998 0.000000 -0.057684
v -0.068809 0.000000 -0.054115
v -0.030813 0.000000 0.004411
v -0.099622 0.000000 -0.050545
v -0.130438 0.000000 -0.046974
v -0.092443 0.000000 0.011545
v -0.161256 0.000000 -0.043402
v -0.192079 0.000000 -0.039828
v -0.154083 0.000000 0.018679
v -0.222906 0.000000 -0.036255
v -0.253738 0.000000 -0.032682
v -0.215738 0.000000 0.025815
v -0.284575 0.000000 -0.029111
v -0.315416 0.000000 -0.025541
v -0.277411 0.000000 0.032954
v -0.346262 0.000000 -0.021974
v -0.377111 0.000000 -0.018411
v -0.339099 0.000000 0.040094
v -0.407962 0.000000 -0.014852
v -0.400799 0.000000 0.047235
v -0.455284 0.000000 0.116502
v -0.486126 0.000000 0.120101
v -0.424438 0.000000 0.112906
v -0.448025 0.000000 0.178609
v 0.469666 0.000000 0.009444
v 0.438813 0.000000 0.012990
v 0.476785 0.000000 0.071567
v 0.407961 0.000000 0.016542
v 0.377111 0.000000 0.020100
v 0.415078 0.000000 0.078627
v 0.346262 0.000000 0.023664
v 0.315416 0.000000 0.027231
v 0.353382 0.000000 0.085732
v 0.284575 0.000000 0.030800
v 0.253738 0.000000 0.034372
v 0.291701 0.000000 0.092868
v 0.222906 0.000000 0.037944
v 0.192079 0.000000 0.041518
v 0.230044 0.000000 0.100021
v 0.161256 0.000000 0.045091
v 0.130437 0.000000 0.048664
v 0.168407 0.000000 0.107180
v 0.099621 0.000000 0.052235
v 0.068809 0.000000 0.055805
v 0.106787 0.000000 0.114334
v 0.037997 0.000000 0.059373
v 0.007187 0.000000 0.062940
v 0.045178 0.000000 0.121477
v -0.023624 0.000000 0.066506
v -0.054435 0.000000 0.070069
v -0.016428 0.000000 0.128608
v -0.085249 0.000000 0.073632
v -0.116066 0.000000 0.077195
v -0.078040 0.000000 0.135726
v -0.146886 0.000000 0.080757
v -0.177710 0.000000 0.084319
v -0.139665 0.000000 0.142837
v -0.208538 0.000000 0.087882
v -0.239371 0.000000 0.091447
v -0.201307 0.000000 0.149948
v -0.270208 0.000000 0.095013
v -0.301049 0.000000 0.098583
v -0.262968 0.000000 0.157068
v -0.331894 0.000000 0.102157
v -0.362742 0.000000 0.105735
v -0.324647 0.000000 0.164210
v -0.393590 0.000000 0.109317
v -0.386337 0.000000 0.171387
v -0.409883 0.000000 0.237052
v -0.440722 0.000000 0.240689
v -0.471556 0.000000 0.244350
v -0.433379 0.000000 0.302729
v 0.483856 0.000000 0.133674
v 0.453002 0.000000 0.137177
v 0.490879 0.000000 0.195751
v 0.422149 0.000000 0.140701
v 0.391301 0.000000 0.144241
v 0.429175 0.000000 0.202754
v 0.360459 0.000000 0.147797
v 0.329622 0.000000 0.151363
v 0.367495 0.000000 0.209853
v 0.298791 0.000000 0.154939
v 0.267969 0.000000 0.158522
v 0.305849 0.000000 0.217014
v 0.237153 0.000000 0.162108
v 0.206342 0.000000 0.165695
v 0.244236 0.000000 0.224206
v 0.175537 0.000000 0.169282
v 0.144737 0.000000 0.172867
v 0.182651 0.000000 0.231404
v 0.113942 0.000000 0.176449
v 0.083148 0.000000 0.180026
v 0.121087 0.000000 0.238588
v 0.052356 0.000000 0.183598
v 0.021565 0.000000 0.187164
v 0.059534 0.000000 0.245744
v -0.009226 0.000000 0.190725
v -0.040020 0.000000 0.194282
v -0.002018 0.000000 0.252869
v -0.070817 0.000000 0.197833
v -0.101616 0.000000 0.201381
v -0.063579 0.000000 0.259962
v -0.132420 0.000000 0.204926
v -0.163231 0.000000 0.208471
v -0.125156 0.000000 0.267031
v -0.194046 0.000000 0.212017
v -0.224866 0.000000 0.215565
v -0.186757 0.000000 0.274091
v -0.255691 0.000000 0.219118
v -0.286524 0.000000 0.222679
v -0.248383 0.000000 0.281163
v -0.317360 0.000000 0.226250
v -0.348200 0.000000 0.229835
v -0.310035 0.000000 0.288273
v -0.379041 0.000000 0.233434
v -0.371707 0.000000 0.295452
v -0.426003 0.000000 0.364713
v -0.456832 0.000000 0.368416
v -0.395171 0.000000 0.361053
v -0.418607 0.000000 0.426626
v 0.497857 0.000000 0.257781
v 0.467004 0.000000 0.261261
v 0.504799 0.000000 0.319747
v 0.436159 0.000000 0.264777
v 0.405324 0.000000 0.268324
v 0.443111 0.000000 0.326759
v 0.374498 0.000000 0.271895
v 0.343683 0.000000 0.275487
v 0.381477 0.000000 0.333922
v 0.312880 0.000000 0.279092
v 0.282086 0.000000 0.282704
v 0.319894 0.000000 0.341173
v 0.251299 0.000000 0.286321
v 0.220523 0.000000 0.289938
v 0.258356 0.000000 0.348457
v 0.189753 0.000000 0.293553
v 0.158988 0.000000 0.297160
v 0.196852 0.000000 0.355732
v 0.128226 0.000000 0.300758
v 0.097469 0.000000 0.304347
v 0.135369 0.000000 0.362969
v 0.066713 0.000000 0.307925
v 0.035956 0.000000 0.311492
v 0.073895 0.000000 0.370149
v 0.005197 0.000000 0.315046
v -0.025564 0.000000 0.318588
v 0.012418 0.000000 0.377265
v -0.056328 0.000000 0.322119
v -0.087098 0.000000 0.325643
v -0.049070 0.000000 0.384317
v -0.117874 0.000000 0.329159
v -0.148655 0.000000 0.332669
v -0.110581 0.000000 0.391316
v -0.179445 0.000000 0.336177
v -0.210243 0.000000 0.339689
v -0.172121 0.000000 0.398283
v -0.241047 0.000000 0.343206
v -0.271860 0.000000 0.346733
v -0.233695 0.000000 0.405248
v -0.302680 0.000000 0.350275
v -0.333508 0.000000 0.353840
v -0.295306 0.000000 0.412257
v -0.364338 0.000000 0.357431
v -0.356948 0.000000 0.419362
v -0.380379 0.000000 0.484815
v -0.411205 0.000000 0.488451
v 0.542571 0.000000 0.378193
v -0.403824 0.000000 0.550165
v 0.511716 0.000000 0.381628
v 0.480874 0.000000 0.385129
v 0.518626 0.000000 0.443396
v 0.450046 0.000000 0.388687
v 0.419238 0.000000 0.392292
v 0.456989 0.000000 0.450556
v 0.388448 0.000000 0.395930
v 0.357672 0.000000 0.399588
v 0.395436 0.000000 0.457914
v 0.326907 0.000000 0.403260
v 0.296158 0.000000 0.406941
v 0.333951 0.000000 0.465360
v 0.265419 0.000000 0.410620
v 0.234687 0.000000 0.414290
v 0.272513 0.000000 0.472811
v 0.203960 0.000000 0.417950
v 0.173239 0.000000 0.421597
v 0.211099 0.000000 0.480212
v 0.142521 0.000000 0.425226
v 0.111803 0.000000 0.428834
v 0.149695 0.000000 0.487531
v 0.081084 0.000000 0.432422
v 0.050365 0.000000 0.435989
v 0.088286 0.000000 0.494749
v 0.019644 0.000000 0.439533
v -0.011082 0.000000 0.443057
v 0.026870 0.000000 0.501858
v -0.041812 0.000000 0.446561
v -0.072548 0.000000 0.450045
v -0.034564 0.000000 0.508858
v -0.103289 0.000000 0.453512
v -0.134040 0.000000 0.456969
v -0.096016 0.000000 0.515759
v -0.164798 0.000000 0.460415
v -0.195564 0.000000 0.463855
v -0.157498 0.000000 0.522582
v -0.226341 0.000000 0.467295
v -0.257130 0.000000 0.470749
v -0.219012 0.000000 0.529362
v -0.287928 0.000000 0.474217
v -0.318736 0.000000 0.477709
v -0.280573 0.000000 0.536158
v -0.349554 0.000000 0.481236
v -0.342180 0.000000 0.543056
v -0.396504 0.000000 0.611750
v -0.427337 0.000000 0.615365
v -0.365678 0.000000 0.608245
v -0.389315 0.000000 0.673201
v 0.525568 0.000000 0.505025
v 0.494757 0.000000 0.508654
v 0.532606 0.000000 0.566494
v 0.463978 0.000000 0.512355
v 0.433222 0.000000 0.516100
v 0.471076 0.000000 0.574071
v 0.402483 0.000000 0.519876
v 0.371765 0.000000 0.523674
v 0.409655 0.000000 0.581829
v 0.341061 0.000000 0.527474
v 0.310364 0.000000 0.531262
v 0.348294 0.000000 0.589604
v 0.279670 0.000000 0.535035
v 0.248981 0.000000 0.538791
v 0.286939 0.000000 0.597299
v 0.218291 0.000000 0.542520
v 0.187600 0.000000 0.546219
v 0.225571 0.000000 0.604868
v 0.156905 0.000000 0.549888
v 0.126207 0.000000 0.553526
v 0.164173 0.000000 0.612290
v 0.095506 0.000000 0.557131
v 0.064800 0.000000 0.560701
v 0.102748 0.000000 0.619559
v 0.034091 0.000000 0.564239
v 0.003378 0.000000 0.567743
v 0.041300 0.000000 0.626671
v -0.027340 0.000000 0.571213
v -0.058061 0.000000 0.574653
v -0.020160 0.000000 0.633626
v -0.088786 0.000000 0.578063
v -0.119516 0.000000 0.581442
v -0.081631 0.000000 0.640425
v -0.150252 0.000000 0.584796
v -0.180996 0.000000 0.588135
v -0.143106 0.000000 0.647074
v -0.211746 0.000000 0.591459
v -0.242506 0.000000 0.594773
v -0.204595 0.000000 0.653598
v -0.273280 0.000000 0.598092
v -0.304069 0.000000 0.601437
v -0.266110 0.000000 0.660046
v -0.334867 0.000000 0.604817
v -0.327681 0.000000 0.666523
v -0.351515 0.000000 0.731321
v -0.382342 0.000000 0.734513
v 0.570611 0.000000 0.623934
v -0.375707 0.000000 0.795681
v 0.539823 0.000000 0.627778
v 0.509082 0.000000 0.631712
v 0.547336 0.000000 0.688843
v 0.478371 0.000000 0.635708
v 0.447695 0.000000 0.639744
v 0.485993 0.000000 0.697302
v 0.417036 0.000000 0.643778
v 0.386380 0.000000 0.647783
v 0.424741 0.000000 0.705727
v 0.355720 0.000000 0.651757
v 0.325053 0.000000 0.655698
v 0.363432 0.000000 0.713940
v 0.294373 0.000000 0.659595
v 0.263681 0.000000 0.663443
v 0.302036 0.000000 0.721907
v 0.232975 0.000000 0.667247
v 0.202252 0.000000 0.671008
v 0.240538 0.000000 0.729638
v 0.171516 0.000000 0.674722
v 0.140773 0.000000 0.678391
v 0.178959 0.000000 0.737157
v 0.110020 0.000000 0.682018
v 0.079257 0.000000 0.685601
v 0.117321 0.000000 0.744481
v 0.048488 0.000000 0.689140
v 0.017720 0.000000 0.692633
v 0.055649 0.000000 0.751619
v -0.013049 0.000000 0.696085
v -0.043821 0.000000 0.699489
v -0.006033 0.000000 0.758568
v -0.074589 0.000000 0.702846
v -0.105353 0.000000 0.706157
v -0.067701 0.000000 0.765315
v -0.136112 0.000000 0.709422
v -0.166872 0.000000 0.712636
v -0.129339 0.000000 0.771836
v -0.197627 0.000000 0.715804
v -0.228385 0.000000 0.718939
v -0.190931 0.000000 0.778105
v -0.259144 0.000000 0.722042
v -0.289915 0.000000 0.725118
v -0.252495 0.000000 0.784113
v -0.320702 0.000000 0.728196
v -0.314054 0.000000 0.789903
v -0.369580 0.000000 0.856749
v -0.400500 0.000000 0.859344
v -0.338729 0.000000 0.854248
v -0.364319 0.000000 0.917891
v 0.555321 0.000000 0.749697
v 0.524715 0.000000 0.754308
v 0.564166 0.000000 0.810423
v 0.494132 0.000000 0.758873
v 0.463538 0.000000 0.763333
v 0.503080 0.000000 0.820440
v 0.432912 0.000000 0.767696
v 0.402242 0.000000 0.771965
v 0.441713 0.000000 0.829683
v 0.371524 0.000000 0.776134
v 0.340770 0.000000 0.780209
v 0.380073 0.000000 0.838296
v 0.309981 0.000000 0.784210
v 0.279150 0.000000 0.788140
v 0.318220 0.000000 0.846461
v 0.248287 0.000000 0.792004
v 0.217408 0.000000 0.795807
v 0.256229 0.000000 0.854298
v 0.186509 0.000000 0.799560
v 0.155587 0.000000 0.803261
v 0.194149 0.000000 0.861888
v 0.124652 0.000000 0.806914
v 0.093715 0.000000 0.810516
v 0.132015 0.000000 0.869271
v 0.062773 0.000000 0.814076
v 0.031822 0.000000 0.817586
v 0.069849 0.000000 0.876467
v 0.000871 0.000000 0.821046
v -0.030068 0.000000 0.824451
v 0.007671 0.000000 0.883472
v -0.060999 0.000000 0.827803
v -0.091928 0.000000 0.831091
v -0.054501 0.000000 0.890263
v -0.122842 0.000000 0.834307
v -0.153731 0.000000 0.837445
v -0.116644 0.000000 0.896794
v -0.184602 0.000000 0.840503
v -0.215460 0.000000 0.843461
v -0.178726 0.000000 0.902974
v -0.246295 0.000000 0.846311
v -0.277108 0.000000 0.849059
v -0.240703 0.000000 0.908669
v -0.307913 0.000000 0.851705
v -0.302560 0.000000 0.913689
v -0.329378 0.000000 0.977823
v -0.360447 0.000000 0.979329
v 0.604882 0.000000 0.864908
v -0.358660 0.000000 1.041373
v 0.574430 0.000000 0.871122
v 0.543839 0.000000 0.876753
v 0.586863 0.000000 0.931934
v 0.513119 0.000000 0.882026
v 0.482233 0.000000 0.886967
v 0.524312 0.000000 0.943501
v 0.451230 0.000000 0.891620
v 0.420168 0.000000 0.896065
v 0.461300 0.000000 0.953380
v 0.389058 0.000000 0.900368
v 0.357893 0.000000 0.904537
v 0.398217 0.000000 0.962279
v 0.326703 0.000000 0.908602
v 0.295510 0.000000 0.912575
v 0.335266 0.000000 0.970588
v 0.264305 0.000000 0.916480
v 0.233079 0.000000 0.920319
v 0.272368 0.000000 0.978527
v 0.201847 0.000000 0.924107
v 0.170621 0.000000 0.927839
v 0.209552 0.000000 0.986193
v 0.139390 0.000000 0.931524
v 0.108142 0.000000 0.935161
v 0.146733 0.000000 0.993651
v 0.076890 0.000000 0.938758
v 0.045642 0.000000 0.942304
v 0.083932 0.000000 1.000920
v 0.014389 0.000000 0.945804
v -0.016882 0.000000 0.949251
v 0.021070 0.000000 1.008009
v -0.048159 0.000000 0.952646
v -0.079431 0.000000 0.955973
v -0.041836 0.000000 1.014894
v -0.110708 0.000000 0.959230
v -0.142001 0.000000 0.962397
v -0.104885 0.000000 1.021533
v -0.173294 0.000000 0.965457
v -0.204564 0.000000 0.968374
v -0.168068 0.000000 1.027823
v -0.235820 0.000000 0.971142
v -0.267067 0.000000 0.973694
v -0.231516 0.000000 1.033569
v -0.298265 0.000000 0.975940
v -0.295120 0.000000 1.038346
v 0.390046 0.000000 -1.039993
v 0.391513 0.000000 -0.978546
v 0.395151 0.000000 -0.918055
v 0.400500 0.000000 -0.857655
v 0.406631 0.000000 -0.797008
v 0.413193 0.000000 -0.736115
v -0.556414 0.000000 -0.499811
v 0.420132 0.000000 -0.674996
v 0.434656 0.000000 -0.552152
v 0.442029 0.000000 -0.490466
v -0.528717 0.000000 -0.252654
v 0.449433 0.000000 -0.428647
v 0.464207 0.000000 -0.304724
v 0.471556 0.000000 -0.242660
v -0.500514 0.000000 -0.004213
v 0.478867 0.000000 -0.180551
v 0.493338 0.000000 -0.056256
v 0.500514 0.000000 0.005903
v 0.507642 0.000000 0.068057
v 0.514712 0.000000 0.130195
v 0.521734 0.000000 0.192296
v 0.528717 0.000000 0.254344
v -0.442029 0.000000 0.492156
v 0.535658 0.000000 0.316318
v 0.549484 0.000000 0.439933
v 0.556413 0.000000 0.501501
v -0.413193 0.000000 0.737804
v 0.563405 0.000000 0.562846
v 0.578133 0.000000 0.684717
v 0.586017 0.000000 0.745160
v -0.391513 0.000000 0.980236
v 0.594607 0.000000 0.805185
v 0.617491 0.000000 0.925066
vn -0.0000 1.0000 -0.0000
s 0
f 1//1 274//1 273//1
f 1//1 273//1 276//1
f 1057//1 278//1 1058//1
f 3//1 280//1 279//1
f 3//1 283//1 282//1
f 3//1 282//1 280//1
f 4//1 286//1 284//1
f 5//1 288//1 287//1
f 5//1 291//1 290//1
f 5//1 290//1 288//1
f 6//1 294//1 292//1
f 7//1 296//1 295//1
f 7//1 299//1 298//1
f 7//1 298//1 296//1
f 8//1 302//1 300//1
f 9//1 304//1 303//1
f 9//1 307//1 306//1
f 9//1 306//1 304//1
f 10//1 310//1 308//1
f 11//1 312//1 311//1
f 11//1 315//1 314//1
f 11//1 314//1 312//1
f 12//1 318//1 316//1
f 13//1 320//1 319//1
f 13//1 323//1 322//1
f 13//1 322//1 320//1
f 14//1 326//1 324//1
f 15//1 328//1 327//1
f 15//1 331//1 330//1
f 15//1 330//1 328//1
f 16//1 334//1 332//1
f 1//1 276//1 335//1
f 17//1 277//1 337//1
f 18//1 339//1 338//1
f 1059//1 281//1 341//1
f 1059//1 341//1 1060//1
f 19//1 285//1 342//1
f 20//1 345//1 344//1
f 20//1 289//1 347//1
f 20//1 347//1 345//1
f 21//1 293//1 348//1
f 22//1 351//1 350//1
f 22//1 297//1 353//1
f 22//1 353//1 351//1
f 23//1 301//1 354//1
f 24//1 357//1 356//1
f 24//1 305//1 359//1
f 24//1 359//1 357//1
f 25//1 309//1 360//1
f 26//1 363//1 362//1
f 26//1 313//1 365//1
f 26//1 365//1 363//1
f 27//1 317//1 366//1
f 28//1 369//1 368//1
f 28//1 321//1 371//1
f 28//1 371//1 369//1
f 29//1 325//1 372//1
f 30//1 375//1 374//1
f 30//1 329//1 377//1
f 30//1 377//1 375//1
f 31//1 333//1 378//1
f 32//1 381//1 380//1
f 32//1 336//1 383//1
f 32//1 383//1 381//1
f 48//1 340//1 385//1
f 48//1 385//1 387//1
f 1061//1 343//1 1062//1
f 34//1 390//1 389//1
f 34//1 346//1 392//1
f 34//1 392//1 390//1
f 35//1 349//1 393//1
f 36//1 396//1 395//1
f 36//1 352//1 398//1
f 36//1 398//1 396//1
f 37//1 355//1 399//1
f 38//1 402//1 401//1
f 38//1 358//1 404//1
f 38//1 404//1 402//1
f 39//1 361//1 405//1
f 40//1 408//1 407//1
f 40//1 364//1 410//1
f 40//1 410//1 408//1
f 41//1 367//1 411//1
f 42//1 414//1 413//1
f 42//1 370//1 416//1
f 42//1 416//1 414//1
f 43//1 373//1 417//1
f 44//1 420//1 419//1
f 44//1 376//1 422//1
f 44//1 422//1 420//1
f 45//1 379//1 423//1
f 46//1 426//1 425//1
f 46//1 382//1 428//1
f 46//1 428//1 426//1
f 47//1 384//1 429//1
f 48//1 387//1 431//1
f 49//1 388//1 433//1
f 50//1 1063//1 434//1
f 1064//1 391//1 437//1
f 1064//1 437//1 435//1
f 51//1 394//1 438//1
f 52//1 441//1 440//1
f 52//1 397//1 443//1
f 52//1 443//1 441//1
f 53//1 400//1 444//1
f 54//1 447//1 446//1
f 54//1 403//1 449//1
f 54//1 449//1 447//1
f 55//1 406//1 450//1
f 56//1 453//1 452//1
f 56//1 409//1 455//1
f 56//1 455//1 453//1
f 57//1 412//1 456//1
f 58//1 459//1 458//1
f 58//1 415//1 461//1
f 58//1 461//1 459//1
f 59//1 418//1 462//1
f 60//1 465//1 464//1
f 60//1 421//1 467//1
f 60//1 467//1 465//1
f 61//1 424//1 468//1
f 62//1 471//1 470//1
f 62//1 427//1 473//1
f 62//1 473//1 471//1
f 63//1 430//1 474//1
f 64//1 477//1 476//1
f 64//1 432//1 479//1
f 64//1 479//1 477//1
f 65//1 436//1 481//1
f 65//1 481//1 483//1
f 1065//1 439//1 1066//1
f 67//1 486//1 485//1
f 67//1 442//1 488//1
f 67//1 488//1 486//1
f 68//1 445//1 489//1
f 69//1 492//1 491//1
f 69//1 448//1 494//1
f 69//1 494//1 492//1
f 70//1 451//1 495//1
f 71//1 498//1 497//1
f 71//1 454//1 500//1
f 71//1 500//1 498//1
f 72//1 457//1 501//1
f 73//1 504//1 503//1
f 73//1 460//1 506//1
f 73//1 506//1 504//1
f 74//1 463//1 507//1
f 75//1 510//1 509//1
f 75//1 466//1 512//1
f 75//1 512//1 510//1
f 76//1 469//1 513//1
f 77//1 516//1 515//1
f 77//1 472//1 518//1
f 77//1 518//1 516//1
f 78//1 475//1 519//1
f 79//1 522//1 521//1
f 79//1 478//1 524//1
f 79//1 524//1 522//1
f 80//1 480//1 525//1
f 65//1 483//1 527//1
f 96//1 484//1 529//1
f 81//1 1067//1 530//1
f 1068//1 487//1 533//1
f 1068//1 533//1 531//1
f 82//1 490//1 534//1
f 83//1 537//1 536//1
f 83//1 493//1 539//1
f 83//1 539//1 537//1
f 84//1 496//1 540//1
f 85//1 543//1 542//1
f 85//1 499//1 545//1
f 85//1 545//1 543//1
f 86//1 502//1 546//1
f 87//1 549//1 548//1
f 87//1 505//1 551//1
f 87//1 551//1 549//1
f 88//1 508//1 552//1
f 89//1 555//1 554//1
f 89//1 511//1 557//1
f 89//1 557//1 555//1
f 90//1 514//1 558//1
f 91//1 561//1 560//1
f 91//1 517//1 563//1
f 91//1 563//1 561//1
f 92//1 520//1 564//1
f 93//1 567//1 566//1
f 93//1 523//1 569//1
f 93//1 569//1 567//1
f 94//1 526//1 570//1
f 95//1 573//1 572//1
f 95//1 528//1 575//1
f 95//1 575//1 573//1
f 112//1 532//1 577//1
f 112//1 577//1 579//1
f 1069//1 535//1 1070//1
f 98//1 582//1 581//1
f 98//1 538//1 584//1
f 98//1 584//1 582//1
f 99//1 541//1 585//1
f 100//1 588//1 587//1
f 100//1 544//1 590//1
f 100//1 590//1 588//1
f 101//1 547//1 591//1
f 102//1 594//1 593//1
f 102//1 550//1 596//1
f 102//1 596//1 594//1
f 103//1 553//1 597//1
f 104//1 600//1 599//1
f 104//1 556//1 602//1
f 104//1 602//1 600//1
f 105//1 559//1 603//1
f 106//1 606//1 605//1
f 106//1 562//1 608//1
f 106//1 608//1 606//1
f 107//1 565//1 609//1
f 108//1 612//1 611//1
f 108//1 568//1 614//1
f 108//1 614//1 612//1
f 109//1 571//1 615//1
f 110//1 618//1 617//1
f 110//1 574//1 620//1
f 110//1 620//1 618//1
f 111//1 576//1 621//1
f 112//1 579//1 623//1
f 128//1 580//1 625//1
f 113//1 1071//1 626//1
f 1072//1 583//1 629//1
f 1072//1 629//1 627//1
f 114//1 586//1 630//1
f 115//1 633//1 632//1
f 115//1 589//1 635//1
f 115//1 635//1 633//1
f 116//1 592//1 636//1
f 117//1 639//1 638//1
f 117//1 595//1 641//1
f 117//1 641//1 639//1
f 118//1 598//1 642//1
f 119//1 645//1 644//1
f 119//1 601//1 647//1
f 119//1 647//1 645//1
f 120//1 604//1 648//1
f 121//1 651//1 650//1
f 121//1 607//1 653//1
f 121//1 653//1 651//1
f 122//1 610//1 654//1
f 123//1 657//1 656//1
f 123//1 613//1 659//1
f 123//1 659//1 657//1
f 124//1 616//1 660//1
f 125//1 663//1 662//1
f 125//1 619//1 665//1
f 125//1 665//1 663//1
f 126//1 622//1 666//1
f 127//1 669//1 668//1
f 127//1 624//1 671//1
f 127//1 671//1 669//1
f 144//1 628//1 673//1
f 144//1 673//1 675//1
f 1073//1 631//1 1074//1
f 130//1 678//1 677//1
f 130//1 634//1 680//1
f 130//1 680//1 678//1
f 131//1 637//1 681//1
f 132//1 684//1 683//1
f 132//1 640//1 686//1
f 132//1 686//1 684//1
f 133//1 643//1 687//1
f 134//1 690//1 689//1
f 134//1 646//1 692//1
f 134//1 692//1 690//1
f 135//1 649//1 693//1
f 136//1 696//1 695//1
f 136//1 652//1 698//1
f 136//1 698//1 696//1
f 137//1 655//1 699//1
f 138//1 702//1 701//1
f 138//1 658//1 704//1
f 138//1 704//1 702//1
f 139//1 661//1 705//1
f 140//1 708//1 707//1
f 140//1 664//1 710//1
f 140//1 710//1 708//1
f 141//1 667//1 711//1
f 142//1 714//1 713//1
f 142//1 670//1 716//1
f 142//1 716//1 714//1
f 143//1 672//1 717//1
f 144//1 675//1 719//1
f 145//1 676//1 721//1
f 146//1 723//1 722//1
f 1075//1 679//1 725//1
f 1075//1 725//1 1076//1
f 147//1 682//1 726//1
f 148//1 729//1 728//1
f 148//1 685//1 731//1
f 148//1 731//1 729//1
f 149//1 688//1 732//1
f 150//1 735//1 734//1
f 150//1 691//1 737//1
f 150//1 737//1 735//1
f 151//1 694//1 738//1
f 152//1 741//1 740//1
f 152//1 697//1 743//1
f 152//1 743//1 741//1
f 153//1 700//1 744//1
f 154//1 747//1 746//1
f 154//1 703//1 749//1
f 154//1 749//1 747//1
f 155//1 706//1 750//1
f 156//1 753//1 752//1
f 156//1 709//1 755//1
f 156//1 755//1 753//1
f 157//1 712//1 756//1
f 158//1 759//1 758//1
f 158//1 715//1 761//1
f 158//1 761//1 759//1
f 159//1 718//1 762//1
f 160//1 765//1 764//1
f 160//1 720//1 767//1
f 160//1 767//1 765//1
f 176//1 724//1 769//1
f 176//1 769//1 771//1
f 1077//1 727//1 1078//1
f 162//1 774//1 773//1
f 162//1 730//1 776//1
f 162//1 776//1 774//1
f 163//1 733//1 777//1
f 164//1 780//1 779//1
f 164//1 736//1 782//1
f 164//1 782//1 780//1
f 165//1 739//1 783//1
f 166//1 786//1 785//1
f 166//1 742//1 788//1
f 166//1 788//1 786//1
f 167//1 745//1 789//1
f 168//1 792//1 791//1
f 168//1 748//1 794//1
f 168//1 794//1 792//1
f 169//1 751//1 795//1
f 170//1 798//1 797//1
f 170//1 754//1 800//1
f 170//1 800//1 798//1
f 171//1 757//1 801//1
f 172//1 804//1 803//1
f 172//1 760//1 806//1
f 172//1 806//1 804//1
f 173//1 763//1 807//1
f 174//1 810//1 809//1
f 174//1 766//1 812//1
f 174//1 812//1 810//1
f 175//1 768//1 813//1
f 176//1 771//1 815//1
f 177//1 772//1 817//1
f 178//1 1079//1 818//1
f 1080//1 775//1 821//1
f 1080//1 821//1 819//1
f 179//1 778//1 822//1
f 180//1 825//1 824//1
f 180//1 781//1 827//1
f 180//1 827//1 825//1
f 181//1 784//1 828//1
f 182//1 831//1 830//1
f 182//1 787//1 833//1
f 182//1 833//1 831//1
f 183//1 790//1 834//1
f 184//1 837//1 836//1
f 184//1 793//1 839//1
f 184//1 839//1 837//1
f 185//1 796//1 840//1
f 186//1 843//1 842//1
f 186//1 799//1 845//1
f 186//1 845//1 843//1
f 187//1 802//1 846//1
f 188//1 849//1 848//1
f 188//1 805//1 851//1
f 188//1 851//1 849//1
f 189//1 808//1 852//1
f 190//1 855//1 854//1
f 190//1 811//1 857//1
f 190//1 857//1 855//1
f 191//1 814//1 858//1
f 192//1 861//1 860//1
f 192//1 816//1 863//1
f 192//1 863//1 861//1
f 193//1 820//1 865//1
f 193//1 865//1 867//1
f 1081//1 823//1 1082//1
f 195//1 870//1 869//1
f 195//1 826//1 872//1
f 195//1 872//1 870//1
f 196//1 829//1 873//1
f 197//1 876//1 875//1
f 197//1 832//1 878//1
f 197//1 878//1 876//1
f 198//1 835//1 879//1
f 199//1 882//1 881//1
f 199//1 838//1 884//1
f 199//1 884//1 882//1
f 200//1 841//1 885//1
f 201//1 888//1 887//1
f 201//1 844//1 890//1
f 201//1 890//1 888//1
f 202//1 847//1 891//1
f 203//1 894//1 893//1
f 203//1 850//1 896//1
f 203//1 896//1 894//1
f 204//1 853//1 897//1
f 205//1 900//1 899//1
f 205//1 856//1 902//1
f 205//1 902//1 900//1
f 206//1 859//1 903//1
f 207//1 906//1 905//1
f 207//1 862//1 908//1
f 207//1 908//1 906//1
f 208//1 864//1 909//1
f 193//1 867//1 911//1
f 224//1 868//1 913//1
f 209//1 1083//1 914//1
f 1084//1 871//1 917//1
f 1084//1 917//1 915//1
f 210//1 874//1 918//1
f 211//1 921//1 920//1
f 211//1 877//1 923//1
f 211//1 923//1 921//1
f 212//1 880//1 924//1
f 213//1 927//1 926//1
f 213//1 883//1 929//1
f 213//1 929//1 927//1
f 214//1 886//1 930//1
f 215//1 933//1 932//1
f 215//1 889//1 935//1
f 215//1 935//1 933//1
f 216//1 892//1 936//1
f 217//1 939//1 938//1
f 217//1 895//1 941//1
f 217//1 941//1 939//1
f 218//1 898//1 942//1
f 219//1 945//1 944//1
f 219//1 901//1 947//1
f 219//1 947//1 945//1
f 220//1 904//1 948//1
f 221//1 951//1 950//1
f 221//1 907//1 953//1
f 221//1 953//1 951//1
f 222//1 910//1 954//1
f 223//1 957//1 956//1
f 223//1 912//1 959//1
f 223//1 959//1 957//1
f 240//1 916//1 961//1
f 240//1 961//1 963//1
f 1085//1 919//1 1086//1
f 226//1 966//1 965//1
f 226//1 922//1 968//1
f 226//1 968//1 966//1
f 227//1 925//1 969//1
f 228//1 972//1 971//1
f 228//1 928//1 974//1
f 228//1 974//1 972//1
f 229//1 931//1 975//1
f 230//1 978//1 977//1
f 230//1 934//1 980//1
f 230//1 980//1 978//1
f 231//1 937//1 981//1
f 232//1 984//1 983//1
f 232//1 940//1 986//1
f 232//1 986//1 984//1
f 233//1 943//1 987//1
f 234//1 990//1 989//1
f 234//1 946//1 992//1
f 234//1 992//1 990//1
f 235//1 949//1 993//1
f 236//1 996//1 995//1
f 236//1 952//1 998//1
f 236//1 998//1 996//1
f 237//1 955//1 999//1
f 238//1 1002//1 1001//1
f 238//1 958//1 1004//1
f 238//1 1004//1 1002//1
f 239//1 960//1 1005//1
f 240//1 963//1 1007//1
f 256//1 964//1 1009//1
f 241//1 1087//1 1010//1
f 1088//1 967//1 1013//1
f 1088//1 1013//1 1011//1
f 242//1 970//1 1014//1
f 243//1 1017//1 1016//1
f 243//1 973//1 1019//1
f 243//1 1019//1 1017//1
f 244//1 976//1 1020//1
f 245//1 1023//1 1022//1
f 245//1 979//1 1025//1
f 245//1 1025//1 1023//1
f 246//1 982//1 1026//1
f 247//1 1029//1 1028//1
f 247//1 985//1 1031//1
f 247//1 1031//1 1029//1
f 248//1 988//1 1032//1
f 249//1 1035//1 1034//1
f 249//1 991//1 1037//1
f 249//1 1037//1 1035//1
f 250//1 994//1 1038//1
f 251//1 1041//1 1040//1
f 251//1 997//1 1043//1
f 251//1 1043//1 1041//1
f 252//1 1000//1 1044//1
f 253//1 1047//1 1046//1
f 253//1 1003//1 1049//1
f 253//1 1049//1 1047//1
f 254//1 1006//1 1050//1
f 255//1 1053//1 1052//1
f 255//1 1008//1 1055//1
f 255//1 1055//1 1053//1
f 1053//1 1056//1 272//1
f 1053//1 1055//1 1056//1
f 1055//1 257//1 1056//1
f 1055//1 1009//1 257//1
f 1055//1 1008//1 1009//1
f 1008//1 256//1 1009//1
f 1052//1 1054//1 271//1
f 1052//1 1053//1 1054//1
f 1053//1 272//1 1054//1
f 1050//1 1052//1 271//1
f 1050//1 1006//1 1052//1
f 1006//1 255//1 1052//1
f 1047//1 1051//1 270//1
f 1047//1 1049//1 1051//1
f 1049//1 271//1 1051//1
f 1049//1 1050//1 271//1
f 1049//1 1003//1 1050//1
f 1003//1 254//1 1050//1
f 1046//1 1048//1 269//1
f 1046//1 1047//1 1048//1
f 1047//1 270//1 1048//1
f 1044//1 1046//1 269//1
f 1044//1 1000//1 1046//1
f 1000//1 253//1 1046//1
f 1041//1 1045//1 268//1
f 1041//1 1043//1 1045//1
f 1043//1 269//1 1045//1
f 1043//1 1044//1 269//1
f 1043//1 997//1 1044//1
f 997//1 252//1 1044//1
f 1040//1 1042//1 267//1
f 1040//1 1041//1 1042//1
f 1041//1 268//1 1042//1
f 1038//1 1040//1 267//1
f 1038//1 994//1 1040//1
f 994//1 251//1 1040//1
f 1035//1 1039//1 266//1
f 1035//1 1037//1 1039//1
f 1037//1 267//1 1039//1
f 1037//1 1038//1 267//1
f 1037//1 991//1 1038//1
f 991//1 250//1 1038//1
f 1034//1 1036//1 265//1
f 1034//1 1035//1 1036//1
f 1035//1 266//1 1036//1
f 1032//1 1034//1 265//1
f 1032//1 988//1 1034//1
f 988//1 249//1 1034//1
f 1029//1 1033//1 264//1
f 1029//1 1031//1 1033//1
f 1031//1 265//1 1033//1
f 1031//1 1032//1 265//1
f 1031//1 985//1 1032//1
f 985//1 248//1 1032//1
f 1028//1 1030//1 263//1
f 1028//1 1029//1 1030//1
f 1029//1 264//1 1030//1
f 1026//1 1028//1 263//1
f 1026//1 982//1 1028//1
f 982//1 247//1 1028//1
f 1023//1 1027//1 262//1
f 1023//1 1025//1 1027//1
f 1025//1 263//1 1027//1
f 1025//1 1026//1 263//1
f 1025//1 979//1 1026//1
f 979//1 246//1 1026//1
f 1022//1 1024//1 261//1
f 1022//1 1023//1 1024//1
f 1023//1 262//1 1024//1
f 1020//1 1022//1 261//1
f 1020//1 976//1 1022//1
f 976//1 245//1 1022//1
f 1017//1 1021//1 260//1
f 1017//1 1019//1 1021//1
f 1019//1 261//1 1021//1
f 1019//1 1020//1 261//1
f 1019//1 973//1 1020//1
f 973//1 244//1 1020//1
f 1016//1 1018//1 259//1
f 1016//1 1017//1 1018//1
f 1017//1 260//1 1018//1
f 1014//1 1016//1 259//1
f 1014//1 970//1 1016//1
f 970//1 243//1 1016//1
f 1011//1 1015//1 1089//1
f 1011//1 1013//1 1015//1
f 1013//1 259//1 1015//1
f 1013//1 1014//1 259//1
f 1013//1 967//1 1014//1
f 967//1 242//1 1014//1
f 1010//1 1012//1 257//1
f 1010//1 1087//1 1012//1
f 1087//1 258//1 1012//1
f 1009//1 1010//1 257//1
f 1009//1 964//1 1010//1
f 964//1 241//1 1010//1
f 1007//1 1008//1 255//1
f 1007//1 963//1 1008//1
f 963//1 256//1 1008//1
f 1005//1 1007//1 255//1
f 1005//1 960//1 1007//1
f 960//1 240//1 1007//1
f 1002//1 1006//1 254//1
f 1002//1 1004//1 1006//1
f 1004//1 255//1 1006//1
f 1004//1 1005//1 255//1
f 1004//1 958//1 1005//1
f 958//1 239//1 1005//1
f 1001//1 1003//1 253//1
f 1001//1 1002//1 1003//1
f 1002//1 254//1 1003//1
f 999//1 1001//1 253//1
f 999//1 955//1 1001//1
f 955//1 238//1 1001//1
f 996//1 1000//1 252//1
f 996//1 998//1 1000//1
f 998//1 253//1 1000//1
f 998//1 999//1 253//1
f 998//1 952//1 999//1
f 952//1 237//1 999//1
f 995//1 997//1 251//1
f 995//1 996//1 997//1
f 996//1 252//1 997//1
f 993//1 995//1 251//1
f 993//1 949//1 995//1
f 949//1 236//1 995//1
f 990//1 994//1 250//1
f 990//1 992//1 994//1
f 992//1 251//1 994//1
f 992//1 993//1 251//1
f 992//1 946//1 993//1
f 946//1 235//1 993//1
f 989//1 991//1 249//1
f 989//1 990//1 991//1
f 990//1 250//1 991//1
f 987//1 989//1 249//1
f 987//1 943//1 989//1
f 943//1 234//1 989//1
f 984//1 988//1 248//1
f 984//1 986//1 988//1
f 986//1 249//1 988//1
f 986//1 987//1 249//1
f 986//1 940//1 987//1
f 940//1 233//1 987//1
f 983//1 985//1 247//1
f 983//1 984//1 985//1
f 984//1 248//1 985//1
f 981//1 983//1 247//1
f 981//1 937//1 983//1
f 937//1 232//1 983//1
f 978//1 982//1 246//1
f 978//1 980//1 982//1
f 980//1 247//1 982//1
f 980//1 981//1 247//1
f 980//1 934//1 981//1
f 934//1 231//1 981//1
f 977//1 979//1 245//1
f 977//1 978//1 979//1
f 978//1 246//1 979//1
f 975//1 977//1 245//1
f 975//1 931//1 977//1
f 931//1 230//1 977//1
f 972//1 976//1 244//1
f 972//1 974//1 976//1
f 974//1 245//1 976//1
f 974//1 975//1 245//1
f 974//1 928//1 975//1
f 928//1 229//1 975//1
f 971//1 973//1 243//1
f 971//1 972//1 973//1
f 972//1 244//1 973//1
f 969//1 971//1 243//1
f 969//1 925//1 971//1
f 925//1 228//1 971//1
f 966//1 970//1 242//1
f 966//1 968//1 970//1
f 968//1 243//1 970//1
f 968//1 969//1 243//1
f 968//1 922//1 969//1
f 922//1 227//1 969//1
f 965//1 967//1 1088//1
f 965//1 966//1 967//1
f 966//1 242//1 967//1
f 1086//1 965//1 1088//1
f 1086//1 919//1 965//1
f 919//1 226//1 965//1
f 963//1 964//1 256//1
f 963//1 961//1 964//1
f 961//1 241//1 964//1
f 961//1 962//1 241//1
f 961//1 916//1 962//1
f 916//1 225//1 962//1
f 957//1 960//1 239//1
f 957//1 959//1 960//1
f 959//1 240//1 960//1
f 959//1 913//1 240//1
f 959//1 912//1 913//1
f 912//1 224//1 913//1
f 956//1 958//1 238//1
f 956//1 957//1 958//1
f 957//1 239//1 958//1
f 954//1 956//1 238//1
f 954//1 910//1 956//1
f 910//1 223//1 956//1
f 951//1 955//1 237//1
f 951//1 953//1 955//1
f 953//1 238//1 955//1
f 953//1 954//1 238//1
f 953//1 907//1 954//1
f 907//1 222//1 954//1
f 950//1 952//1 236//1
f 950//1 951//1 952//1
f 951//1 237//1 952//1
f 948//1 950//1 236//1
f 948//1 904//1 950//1
f 904//1 221//1 950//1
f 945//1 949//1 235//1
f 945//1 947//1 949//1
f 947//1 236//1 949//1
f 947//1 948//1 236//1
f 947//1 901//1 948//1
f 901//1 220//1 948//1
f 944//1 946//1 234//1
f 944//1 945//1 946//1
f 945//1 235//1 946//1
f 942//1 944//1 234//1
f 942//1 898//1 944//1
f 898//1 219//1 944//1
f 939//1 943//1 233//1
f 939//1 941//1 943//1
f 941//1 234//1 943//1
f 941//1 942//1 234//1
f 941//1 895//1 942//1
f 895//1 218//1 942//1
f 938//1 940//1 232//1
f 938//1 939//1 940//1
f 939//1 233//1 940//1
f 936//1 938//1 232//1
f 936//1 892//1 938//1
f 892//1 217//1 938//1
f 933//1 937//1 231//1
f 933//1 935//1 937//1
f 935//1 232//1 937//1
f 935//1 936//1 232//1
f 935//1 889//1 936//1
f 889//1 216//1 936//1
f 932//1 934//1 230//1
f 932//1 933//1 934//1
f 933//1 231//1 934//1
f 930//1 932//1 230//1
f 930//1 886//1 932//1
f 886//1 215//1 932//1
f 927//1 931//1 229//1
f 927//1 929//1 931//1
f 929//1 230//1 931//1
f 929//1 930//1 230//1
f 929//1 883//1 930//1
f 883//1 214//1 930//1
f 926//1 928//1 228//1
f 926//1 927//1 928//1
f 927//1 229//1 928//1
f 924//1 926//1 228//1
f 924//1 880//1 926//1
f 880//1 213//1 926//1
f 921//1 925//1 227//1
f 921//1 923//1 925//1
f 923//1 228//1 925//1
f 923//1 924//1 228//1
f 923//1 877//1 924//1
f 877//1 212//1 924//1
f 920//1 922//1 226//1
f 920//1 921//1 922//1
f 921//1 227//1 922//1
f 918//1 920//1 226//1
f 918//1 874//1 920//1
f 874//1 211//1 920//1
f 915//1 919//1 1085//1
f 915//1 917//1 919//1
f 917//1 226//1 919//1
f 917//1 918//1 226//1
f 917//1 871//1 918//1
f 871//1 210//1 918//1
f 914//1 916//1 240//1
f 914//1 1083//1 916//1
f 1083//1 225//1 916//1
f 913//1 914//1 240//1
f 913//1 868//1 914//1
f 868//1 209//1 914//1
f 911//1 912//1 223//1
f 911//1 867//1 912//1
f 867//1 224//1 912//1
f 909//1 911//1 223//1
f 909//1 864//1 911//1
f 864//1 193//1 911//1
f 906//1 910//1 222//1
f 906//1 908//1 910//1
f 908//1 223//1 910//1
f 908//1 909//1 223//1
f 908//1 862//1 909//1
f 862//1 208//1 909//1
f 905//1 907//1 221//1
f 905//1 906//1 907//1
f 906//1 222//1 907//1
f 903//1 905//1 221//1
f 903//1 859//1 905//1
f 859//1 207//1 905//1
f 900//1 904//1 220//1
f 900//1 902//1 904//1
f 902//1 221//1 904//1
f 902//1 903//1 221//1
f 902//1 856//1 903//1
f 856//1 206//1 903//1
f 899//1 901//1 219//1
f 899//1 900//1 901//1
f 900//1 220//1 901//1
f 897//1 899//1 219//1
f 897//1 853//1 899//1
f 853//1 205//1 899//1
f 894//1 898//1 218//1
f 894//1 896//1 898//1
f 896//1 219//1 898//1
f 896//1 897//1 219//1
f 896//1 850//1 897//1
f 850//1 204//1 897//1
f 893//1 895//1 217//1
f 893//1 894//1 895//1
f 894//1 218//1 895//1
f 891//1 893//1 217//1
f 891//1 847//1 893//1
f 847//1 203//1 893//1
f 888//1 892//1 216//1
f 888//1 890//1 892//1
f 890//1 217//1 892//1
f 890//1 891//1 217//1
f 890//1 844//1 891//1
f 844//1 202//1 891//1
f 887//1 889//1 215//1
f 887//1 888//1 889//1
f 888//1 216//1 889//1
f 885//1 887//1 215//1
f 885//1 841//1 887//1
f 841//1 201//1 887//1
f 882//1 886//1 214//1
f 882//1 884//1 886//1
f 884//1 215//1 886//1
f 884//1 885//1 215//1
f 884//1 838//1 885//1
f 838//1 200//1 885//1
f 881//1 883//1 213//1
f 881//1 882//1 883//1
f 882//1 214//1 883//1
f 879//1 881//1 213//1
f 879//1 835//1 881//1
f 835//1 199//1 881//1
f 876//1 880//1 212//1
f 876//1 878//1 880//1
f 878//1 213//1 880//1
f 878//1 879//1 213//1
f 878//1 832//1 879//1
f 832//1 198//1 879//1
f 875//1 877//1 211//1
f 875//1 876//1 877//1
f 876//1 212//1 877//1
f 873//1 875//1 211//1
f 873//1 829//1 875//1
f 829//1 197//1 875//1
f 870//1 874//1 210//1
f 870//1 872//1 874//1
f 872//1 211//1 874//1
f 872//1 873//1 211//1
f 872//1 826//1 873//1
f 826//1 196//1 873//1
f 869//1 871//1 1084//1
f 869//1 870//1 871//1
f 870//1 210//1 871//1
f 1082//1 869//1 1084//1
f 1082//1 823//1 869//1
f 823//1 195//1 869//1
f 867//1 868//1 224//1
f 867//1 865//1 868//1
f 865//1 209//1 868//1
f 865//1 866//1 209//1
f 865//1 820//1 866//1
f 820//1 194//1 866//1
f 861//1 864//1 208//1
f 861//1 863//1 864//1
f 863//1 193//1 864//1
f 863//1 817//1 193//1
f 863//1 816//1 817//1
f 816//1 177//1 817//1
f 860//1 862//1 207//1
f 860//1 861//1 862//1
f 861//1 208//1 862//1
f 858//1 860//1 207//1
f 858//1 814//1 860//1
f 814//1 192//1 860//1
f 855//1 859//1 206//1
f 855//1 857//1 859//1
f 857//1 207//1 859//1
f 857//1 858//1 207//1
f 857//1 811//1 858//1
f 811//1 191//1 858//1
f 854//1 856//1 205//1
f 854//1 855//1 856//1
f 855//1 206//1 856//1
f 852//1 854//1 205//1
f 852//1 808//1 854//1
f 808//1 190//1 854//1
f 849//1 853//1 204//1
f 849//1 851//1 853//1
f 851//1 205//1 853//1
f 851//1 852//1 205//1
f 851//1 805//1 852//1
f 805//1 189//1 852//1
f 848//1 850//1 203//1
f 848//1 849//1 850//1
f 849//1 204//1 850//1
f 846//1 848//1 203//1
f 846//1 802//1 848//1
f 802//1 188//1 848//1
f 843//1 847//1 202//1
f 843//1 845//1 847//1
f 845//1 203//1 847//1
f 845//1 846//1 203//1
f 845//1 799//1 846//1
f 799//1 187//1 846//1
f 842//1 844//1 201//1
f 842//1 843//1 844//1
f 843//1 202//1 844//1
f 840//1 842//1 201//1
f 840//1 796//1 842//1
f 796//1 186//1 842//1
f 837//1 841//1 200//1
f 837//1 839//1 841//1
f 839//1 201//1 841//1
f 839//1 840//1 201//1
f 839//1 793//1 840//1
f 793//1 185//1 840//1
f 836//1 838//1 199//1
f 836//1 837//1 838//1
f 837//1 200//1 838//1
f 834//1 836//1 199//1
f 834//1 790//1 836//1
f 790//1 184//1 836//1
f 831//1 835//1 198//1
f 831//1 833//1 835//1
f 833//1 199//1 835//1
f 833//1 834//1 199//1
f 833//1 787//1 834//1
f 787//1 183//1 834//1
f 830//1 832//1 197//1
f 830//1 831//1 832//1
f 831//1 198//1 832//1
f 828//1 830//1 197//1
f 828//1 784//1 830//1
f 784//1 182//1 830//1
f 825//1 829//1 196//1
f 825//1 827//1 829//1
f 827//1 197//1 829//1
f 827//1 828//1 197//1
f 827//1 781//1 828//1
f 781//1 181//1 828//1
f 824//1 826//1 195//1
f 824//1 825//1 826//1
f 825//1 196//1 826//1
f 822//1 824//1 195//1
f 822//1 778//1 824//1
f 778//1 180//1 824//1
f 819//1 823//1 1081//1
f 819//1 821//1 823//1
f 821//1 195//1 823//1
f 821//1 822//1 195//1
f 821//1 775//1 822//1
f 775//1 179//1 822//1
f 818//1 820//1 193//1
f 818//1 1079//1 820//1
f 1079//1 194//1 820//1
f 817//1 818//1 193//1
f 817//1 772//1 818//1
f 772//1 178//1 818//1
f 815//1 816//1 192//1
f 815//1 771//1 816//1
f 771//1 177//1 816//1
f 813//1 815//1 192//1
f 813//1 768//1 815//1
f 768//1 176//1 815//1
f 810//1 814//1 191//1
f 810//1 812//1 814//1
f 812//1 192//1 814//1
f 812//1 813//1 192//1
f 812//1 766//1 813//1
f 766//1 175//1 813//1
f 809//1 811//1 190//1
f 809//1 810//1 811//1
f 810//1 191//1 811//1
f 807//1 809//1 190//1
f 807//1 763//1 809//1
f 763//1 174//1 809//1
f 804//1 808//1 189//1
f 804//1 806//1 808//1
f 806//1 190//1 808//1
f 806//1 807//1 190//1
f 806//1 760//1 807//1
f 760//1 173//1 807//1
f 803//1 805//1 188//1
f 803//1 804//1 805//1
f 804//1 189//1 805//1
f 801//1 803//1 188//1
f 801//1 757//1 803//1
f 757//1 172//1 803//1
f 798//1 802//1 187//1
f 798//1 800//1 802//1
f 800//1 188//1 802//1
f 800//1 801//1 188//1
f 800//1 754//1 801//1
f 754//1 171//1 801//1
f 797//1 799//1 186//1
f 797//1 798//1 799//1
f 798//1 187//1 799//1
f 795//1 797//1 186//1
f 795//1 751//1 797//1
f 751//1 170//1 797//1
f 792//1 796//1 185//1
f 792//1 794//1 796//1
f 794//1 186//1 796//1
f 794//1 795//1 186//1
f 794//1 748//1 795//1
f 748//1 169//1 795//1
f 791//1 793//1 184//1
f 791//1 792//1 793//1
f 792//1 185//1 793//1
f 789//1 791//1 184//1
f 789//1 745//1 791//1
f 745//1 168//1 791//1
f 786//1 790//1 183//1
f 786//1 788//1 790//1
f 788//1 184//1 790//1
f 788//1 789//1 184//1
f 788//1 742//1 789//1
f 742//1 167//1 789//1
f 785//1 787//1 182//1
f 785//1 786//1 787//1
f 786//1 183//1 787//1
f 783//1 785//1 182//1
f 783//1 739//1 785//1
f 739//1 166//1 785//1
f 780//1 784//1 181//1
f 780//1 782//1 784//1
f 782//1 182//1 784//1
f 782//1 783//1 182//1
f 782//1 736//1 783//1
f 736//1 165//1 783//1
f 779//1 781//1 180//1
f 779//1 780//1 781//1
f 780//1 181//1 781//1
f 777//1 779//1 180//1
f 777//1 733//1 779//1
f 733//1 164//1 779//1
f 774//1 778//1 179//1
f 774//1 776//1 778//1
f 776//1 180//1 778//1
f 776//1 777//1 180//1
f 776//1 730//1 777//1
f 730//1 163//1 777//1
f 773//1 775//1 1080//1
f 773//1 774//1 775//1
f 774//1 179//1 775//1
f 1078//1 773//1 1080//1
f 1078//1 727//1 773//1
f 727//1 162//1 773//1
f 771//1 772//1 177//1
f 771//1 769//1 772//1
f 769//1 178//1 772//1
f 769//1 770//1 178//1
f 769//1 724//1 770//1
f 724//1 161//1 770//1
f 765//1 768//1 175//1
f 765//1 767//1 768//1
f 767//1 176//1 768//1
f 767//1 721//1 176//1
f 767//1 720//1 721//1
f 720//1 145//1 721//1
f 764//1 766//1 174//1
f 764//1 765//1 766//1
f 765//1 175//1 766//1
f 762//1 764//1 174//1
f 762//1 718//1 764//1
f 718//1 160//1 764//1
f 759//1 763//1 173//1
f 759//1 761//1 763//1
f 761//1 174//1 763//1
f 761//1 762//1 174//1
f 761//1 715//1 762//1
f 715//1 159//1 762//1
f 758//1 760//1 172//1
f 758//1 759//1 760//1
f 759//1 173//1 760//1
f 756//1 758//1 172//1
f 756//1 712//1 758//1
f 712//1 158//1 758//1
f 753//1 757//1 171//1
f 753//1 755//1 757//1
f 755//1 172//1 757//1
f 755//1 756//1 172//1
f 755//1 709//1 756//1
f 709//1 157//1 756//1
f 752//1 754//1 170//1
f 752//1 753//1 754//1
f 753//1 171//1 754//1
f 750//1 752//1 170//1
f 750//1 706//1 752//1
f 706//1 156//1 752//1
f 747//1 751//1 169//1
f 747//1 749//1 751//1
f 749//1 170//1 751//1
f 749//1 750//1 170//1
f 749//1 703//1 750//1
f 703//1 155//1 750//1
f 746//1 748//1 168//1
f 746//1 747//1 748//1
f 747//1 169//1 748//1
f 744//1 746//1 168//1
f 744//1 700//1 746//1
f 700//1 154//1 746//1
f 741//1 745//1 167//1
f 741//1 743//1 745//1
f 743//1 168//1 745//1
f 743//1 744//1 168//1
f 743//1 697//1 744//1
f 697//1 153//1 744//1
f 740//1 742//1 166//1
f 740//1 741//1 742//1
f 741//1 167//1 742//1
f 738//1 740//1 166//1
f 738//1 694//1 740//1
f 694//1 152//1 740//1
f 735//1 739//1 165//1
f 735//1 737//1 739//1
f 737//1 166//1 739//1
f 737//1 738//1 166//1
f 737//1 691//1 738//1
f 691//1 151//1 738//1
f 734//1 736//1 164//1
f 734//1 735//1 736//1
f 735//1 165//1 736//1
f 732//1 734//1 164//1
f 732//1 688//1 734//1
f 688//1 150//1 734//1
f 729//1 733//1 163//1
f 729//1 731//1 733//1
f 731//1 164//1 733//1
f 731//1 732//1 164//1
f 731//1 685//1 732//1
f 685//1 149//1 732//1
f 728//1 730//1 162//1
f 728//1 729//1 730//1
f 729//1 163//1 730//1
f 726//1 728//1 162//1
f 726//1 682//1 728//1
f 682//1 148//1 728//1
f 1076//1 727//1 1077//1
f 1076//1 725//1 727//1
f 725//1 162//1 727//1
f 725//1 726//1 162//1
f 725//1 679//1 726//1
f 679//1 147//1 726//1
f 722//1 724//1 176//1
f 722//1 723//1 724//1
f 723//1 161//1 724//1
f 721//1 722//1 176//1
f 721//1 676//1 722//1
f 676//1 146//1 722//1
f 719//1 720//1 160//1
f 719//1 675//1 720//1
f 675//1 145//1 720//1
f 717//1 719//1 160//1
f 717//1 672//1 719//1
f 672//1 144//1 719//1
f 714//1 718//1 159//1
f 714//1 716//1 718//1
f 716//1 160//1 718//1
f 716//1 717//1 160//1
f 716//1 670//1 717//1
f 670//1 143//1 717//1
f 713//1 715//1 158//1
f 713//1 714//1 715//1
f 714//1 159//1 715//1
f 711//1 713//1 158//1
f 711//1 667//1 713//1
f 667//1 142//1 713//1
f 708//1 712//1 157//1
f 708//1 710//1 712//1
f 710//1 158//1 712//1
f 710//1 711//1 158//1
f 710//1 664//1 711//1
f 664//1 141//1 711//1
f 707//1 709//1 156//1
f 707//1 708//1 709//1
f 708//1 157//1 709//1
f 705//1 707//1 156//1
f 705//1 661//1 707//1
f 661//1 140//1 707//1
f 702//1 706//1 155//1
f 702//1 704//1 706//1
f 704//1 156//1 706//1
f 704//1 705//1 156//1
f 704//1 658//1 705//1
f 658//1 139//1 705//1
f 701//1 703//1 154//1
f 701//1 702//1 703//1
f 702//1 155//1 703//1
f 699//1 701//1 154//1
f 699//1 655//1 701//1
f 655//1 138//1 701//1
f 696//1 700//1 153//1
f 696//1 698//1 700//1
f 698//1 154//1 700//1
f 698//1 699//1 154//1
f 698//1 652//1 699//1
f 652//1 137//1 699//1
f 695//1 697//1 152//1
f 695//1 696//1 697//1
f 696//1 153//1 697//1
f 693//1 695//1 152//1
f 693//1 649//1 695//1
f 649//1 136//1 695//1
f 690//1 694//1 151//1
f 690//1 692//1 694//1
f 692//1 152//1 694//1
f 692//1 693//1 152//1
f 692//1 646//1 693//1
f 646//1 135//1 693//1
f 689//1 691//1 150//1
f 689//1 690//1 691//1
f 690//1 151//1 691//1
f 687//1 689//1 150//1
f 687//1 643//1 689//1
f 643//1 134//1 689//1
f 684//1 688//1 149//1
f 684//1 686//1 688//1
f 686//1 150//1 688//1
f 686//1 687//1 150//1
f 686//1 640//1 687//1
f 640//1 133//1 687//1
f 683//1 685//1 148//1
f 683//1 684//1 685//1
f 684//1 149//1 685//1
f 681//1 683//1 148//1
f 681//1 637//1 683//1
f 637//1 132//1 683//1
f 678//1 682//1 147//1
f 678//1 680//1 682//1
f 680//1 148//1 682//1
f 680//1 681//1 148//1
f 680//1 634//1 681//1
f 634//1 131//1 681//1
f 677//1 679//1 1075//1
f 677//1 678//1 679//1
f 678//1 147//1 679//1
f 1074//1 677//1 1075//1
f 1074//1 631//1 677//1
f 631//1 130//1 677//1
f 675//1 676//1 145//1
f 675//1 673//1 676//1
f 673//1 146//1 676//1
f 673//1 674//1 146//1
f 673//1 628//1 674//1
f 628//1 129//1 674//1
f 669//1 672//1 143//1
f 669//1 671//1 672//1
f 671//1 144//1 672//1
f 671//1 625//1 144//1
f 671//1 624//1 625//1
f 624//1 128//1 625//1
f 668//1 670//1 142//1
f 668//1 669//1 670//1
f 669//1 143//1 670//1
f 666//1 668//1 142//1
f 666//1 622//1 668//1
f 622//1 127//1 668//1
f 663//1 667//1 141//1
f 663//1 665//1 667//1
f 665//1 142//1 667//1
f 665//1 666//1 142//1
f 665//1 619//1 666//1
f 619//1 126//1 666//1
f 662//1 664//1 140//1
f 662//1 663//1 664//1
f 663//1 141//1 664//1
f 660//1 662//1 140//1
f 660//1 616//1 662//1
f 616//1 125//1 662//1
f 657//1 661//1 139//1
f 657//1 659//1 661//1
f 659//1 140//1 661//1
f 659//1 660//1 140//1
f 659//1 613//1 660//1
f 613//1 124//1 660//1
f 656//1 658//1 138//1
f 656//1 657//1 658//1
f 657//1 139//1 658//1
f 654//1 656//1 138//1
f 654//1 610//1 656//1
f 610//1 123//1 656//1
f 651//1 655//1 137//1
f 651//1 653//1 655//1
f 653//1 138//1 655//1
f 653//1 654//1 138//1
f 653//1 607//1 654//1
f 607//1 122//1 654//1
f 650//1 652//1 136//1
f 650//1 651//1 652//1
f 651//1 137//1 652//1
f 648//1 650//1 136//1
f 648//1 604//1 650//1
f 604//1 121//1 650//1
f 645//1 649//1 135//1
f 645//1 647//1 649//1
f 647//1 136//1 649//1
f 647//1 648//1 136//1
f 647//1 601//1 648//1
f 601//1 120//1 648//1
f 644//1 646//1 134//1
f 644//1 645//1 646//1
f 645//1 135//1 646//1
f 642//1 644//1 134//1
f 642//1 598//1 644//1
f 598//1 119//1 644//1
f 639//1 643//1 133//1
f 639//1 641//1 643//1
f 641//1 134//1 643//1
f 641//1 642//1 134//1
f 641//1 595//1 642//1
f 595//1 118//1 642//1
f 638//1 640//1 132//1
f 638//1 639//1 640//1
f 639//1 133//1 640//1
f 636//1 638//1 132//1
f 636//1 592//1 638//1
f 592//1 117//1 638//1
f 633//1 637//1 131//1
f 633//1 635//1 637//1
f 635//1 132//1 637//1
f 635//1 636//1 132//1
f 635//1 589//1 636//1
f 589//1 116//1 636//1
f 632//1 634//1 130//1
f 632//1 633//1 634//1
f 633//1 131//1 634//1
f 630//1 632//1 130//1
f 630//1 586//1 632//1
f 586//1 115//1 632//1
f 627//1 631//1 1073//1
f 627//1 629//1 631//1
f 629//1 130//1 631//1
f 629//1 630//1 130//1
f 629//1 583//1 630//1
f 583//1 114//1 630//1
f 626//1 628//1 144//1
f 626//1 1071//1 628//1
f 1071//1 129//1 628//1
f 625//1 626//1 144//1
f 625//1 580//1 626//1
f 580//1 113//1 626//1
f 623//1 624//1 127//1
f 623//1 579//1 624//1
f 579//1 128//1 624//1
f 621//1 623//1 127//1
f 621//1 576//1 623//1
f 576//1 112//1 623//1
f 618//1 622//1 126//1
f 618//1 620//1 622//1
f 620//1 127//1 622//1
f 620//1 621//1 127//1
f 620//1 574//1 621//1
f 574//1 111//1 621//1
f 617//1 619//1 125//1
f 617//1 618//1 619//1
f 618//1 126//1 619//1
f 615//1 617//1 125//1
f 615//1 571//1 617//1
f 571//1 110//1 617//1
f 612//1 616//1 124//1
f 612//1 614//1 616//1
f 614//1 125//1 616//1
f 614//1 615//1 125//1
f 614//1 568//1 615//1
f 568//1 109//1 615//1
f 611//1 613//1 123//1
f 611//1 612//1 613//1
f 612//1 124//1 613//1
f 609//1 611//1 123//1
f 609//1 565//1 611//1
f 565//1 108//1 611//1
f 606//1 610//1 122//1
f 606//1 608//1 610//1
f 608//1 123//1 610//1
f 608//1 609//1 123//1
f 608//1 562//1 609//1
f 562//1 107//1 609//1
f 605//1 607//1 121//1
f 605//1 606//1 607//1
f 606//1 122//1 607//1
f 603//1 605//1 121//1
f 603//1 559//1 605//1
f 559//1 106//1 605//1
f 600//1 604//1 120//1
f 600//1 602//1 604//1
f 602//1 121//1 604//1
f 602//1 603//1 121//1
f 602//1 556//1 603//1
f 556//1 105//1 603//1
f 599//1 601//1 119//1
f 599//1 600//1 601//1
f 600//1 120//1 601//1
f 597//1 599//1 119//1
f 597//1 553//1 599//1
f 553//1 104//1 599//1
f 594//1 598//1 118//1
f 594//1 596//1 598//1
f 596//1 119//1 598//1
f 596//1 597//1 119//1
f 596//1 550//1 597//1
f 550//1 103//1 597//1
f 593//1 595//1 117//1
f 593//1 594//1 595//1
f 594//1 118//1 595//1
f 591//1 593//1 117//1
f 591//1 547//1 593//1
f 547//1 102//1 593//1
f 588//1 592//1 116//1
f 588//1 590//1 592//1
f 590//1 117//1 592//1
f 590//1 591//1 117//1
f 590//1 544//1 591//1
f 544//1 101//1 591//1
f 587//1 589//1 115//1
f 587//1 588//1 589//1
f 588//1 116//1 589//1
f 585//1 587//1 115//1
f 585//1 541//1 587//1
f 541//1 100//1 587//1
f 582//1 586//1 114//1
f 582//1 584//1 586//1
f 584//1 115//1 586//1
f 584//1 585//1 115//1
f 584//1 538//1 585//1
f 538//1 99//1 585//1
f 581//1 583//1 1072//1
f 581//1 582//1 583//1
f 582//1 114//1 583//1
f 1070//1 581//1 1072//1
f 1070//1 535//1 581//1
f 535//1 98//1 581//1
f 579//1 580//1 128//1
f 579//1 577//1 580//1
f 577//1 113//1 580//1
f 577//1 578//1 113//1
f 577//1 532//1 578//1
f 532//1 97//1 578//1
f 573//1 576//1 111//1
f 573//1 575//1 576//1
f 575//1 112//1 576//1
f 575//1 529//1 112//1
f 575//1 528//1 529//1
f 528//1 96//1 529//1
f 572//1 574//1 110//1
f 572//1 573//1 574//1
f 573//1 111//1 574//1
f 570//1 572//1 110//1
f 570//1 526//1 572//1
f 526//1 95//1 572//1
f 567//1 571//1 109//1
f 567//1 569//1 571//1
f 569//1 110//1 571//1
f 569//1 570//1 110//1
f 569//1 523//1 570//1
f 523//1 94//1 570//1
f 566//1 568//1 108//1
f 566//1 567//1 568//1
f 567//1 109//1 568//1
f 564//1 566//1 108//1
f 564//1 520//1 566//1
f 520//1 93//1 566//1
f 561//1 565//1 107//1
f 561//1 563//1 565//1
f 563//1 108//1 565//1
f 563//1 564//1 108//1
f 563//1 517//1 564//1
f 517//1 92//1 564//1
f 560//1 562//1 106//1
f 560//1 561//1 562//1
f 561//1 107//1 562//1
f 558//1 560//1 106//1
f 558//1 514//1 560//1
f 514//1 91//1 560//1
f 555//1 559//1 105//1
f 555//1 557//1 559//1
f 557//1 106//1 559//1
f 557//1 558//1 106//1
f 557//1 511//1 558//1
f 511//1 90//1 558//1
f 554//1 556//1 104//1
f 554//1 555//1 556//1
f 555//1 105//1 556//1
f 552//1 554//1 104//1
f 552//1 508//1 554//1
f 508//1 89//1 554//1
f 549//1 553//1 103//1
f 549//1 551//1 553//1
f 551//1 104//1 553//1
f 551//1 552//1 104//1
f 551//1 505//1 552//1
f 505//1 88//1 552//1
f 548//1 550//1 102//1
f 548//1 549//1 550//1
f 549//1 103//1 550//1
f 546//1 548//1 102//1
f 546//1 502//1 548//1
f 502//1 87//1 548//1
f 543//1 547//1 101//1
f 543//1 545//1 547//1
f 545//1 102//1 547//1
f 545//1 546//1 102//1
f 545//1 499//1 546//1
f 499//1 86//1 546//1
f 542//1 544//1 100//1
f 542//1 543//1 544//1
f 543//1 101//1 544//1
f 540//1 542//1 100//1
f 540//1 496//1 542//1
f 496//1 85//1 542//1
f 537//1 541//1 99//1
f 537//1 539//1 541//1
f 539//1 100//1 541//1
f 539//1 540//1 100//1
f 539//1 493//1 540//1
f 493//1 84//1 540//1
f 536//1 538//1 98//1
f 536//1 537//1 538//1
f 537//1 99//1 538//1
f 534//1 536//1 98//1
f 534//1 490//1 536//1
f 490//1 83//1 536//1
f 531//1 535//1 1069//1
f 531//1 533//1 535//1
f 533//1 98//1 535//1
f 533//1 534//1 98//1
f 533//1 487//1 534//1
f 487//1 82//1 534//1
f 530//1 532//1 112//1
f 530//1 1067//1 532//1
f 1067//1 97//1 532//1
f 529//1 530//1 112//1
f 529//1 484//1 530//1
f 484//1 81//1 530//1
f 527//1 528//1 95//1
f 527//1 483//1 528//1
f 483//1 96//1 528//1
f 525//1 527//1 95//1
f 525//1 480//1 527//1
f 480//1 65//1 527//1
f 522//1 526//1 94//1
f 522//1 524//1 526//1
f 524//1 95//1 526//1
f 524//1 525//1 95//1
f 524//1 478//1 525//1
f 478//1 80//1 525//1
f 521//1 523//1 93//1
f 521//1 522//1 523//1
f 522//1 94//1 523//1
f 519//1 521//1 93//1
f 519//1 475//1 521//1
f 475//1 79//1 521//1
f 516//1 520//1 92//1
f 516//1 518//1 520//1
f 518//1 93//1 520//1
f 518//1 519//1 93//1
f 518//1 472//1 519//1
f 472//1 78//1 519//1
f 515//1 517//1 91//1
f 515//1 516//1 517//1
f 516//1 92//1 517//1
f 513//1 515//1 91//1
f 513//1 469//1 515//1
f 469//1 77//1 515//1
f 510//1 514//1 90//1
f 510//1 512//1 514//1
f 512//1 91//1 514//1
f 512//1 513//1 91//1
f 512//1 466//1 513//1
f 466//1 76//1 513//1
f 509//1 511//1 89//1
f 509//1 510//1 511//1
f 510//1 90//1 511//1
f 507//1 509//1 89//1
f 507//1 463//1 509//1
f 463//1 75//1 509//1
f 504//1 508//1 88//1
f 504//1 506//1 508//1
f 506//1 89//1 508//1
f 506//1 507//1 89//1
f 506//1 460//1 507//1
f 460//1 74//1 507//1
f 503//1 505//1 87//1
f 503//1 504//1 505//1
f 504//1 88//1 505//1
f 501//1 503//1 87//1
f 501//1 457//1 503//1
f 457//1 73//1 503//1
f 498//1 502//1 86//1
f 498//1 500//1 502//1
f 500//1 87//1 502//1
f 500//1 501//1 87//1
f 500//1 454//1 501//1
f 454//1 72//1 501//1
f 497//1 499//1 85//1
f 497//1 498//1 499//1
f 498//1 86//1 499//1
f 495//1 497//1 85//1
f 495//1 451//1 497//1
f 451//1 71//1 497//1
f 492//1 496//1 84//1
f 492//1 494//1 496//1
f 494//1 85//1 496//1
f 494//1 495//1 85//1
f 494//1 448//1 495//1
f 448//1 70//1 495//1
f 491//1 493//1 83//1
f 491//1 492//1 493//1
f 492//1 84//1 493//1
f 489//1 491//1 83//1
f 489//1 445//1 491//1
f 445//1 69//1 491//1
f 486//1 490//1 82//1
f 486//1 488//1 490//1
f 488//1 83//1 490//1
f 488//1 489//1 83//1
f 488//1 442//1 489//1
f 442//1 68//1 489//1
f 485//1 487//1 1068//1
f 485//1 486//1 487//1
f 486//1 82//1 487//1
f 1066//1 485//1 1068//1
f 1066//1 439//1 485//1
f 439//1 67//1 485//1
f 483//1 484//1 96//1
f 483//1 481//1 484//1
f 481//1 81//1 484//1
f 481//1 482//1 81//1
f 481//1 436//1 482//1
f 436//1 66//1 482//1
f 477//1 480//1 80//1
f 477//1 479//1 480//1
f 479//1 65//1 480//1
f 479//1 433//1 65//1
f 479//1 432//1 433//1
f 432//1 49//1 433//1
f 476//1 478//1 79//1
f 476//1 477//1 478//1
f 477//1 80//1 478//1
f 474//1 476//1 79//1
f 474//1 430//1 476//1
f 430//1 64//1 476//1
f 471//1 475//1 78//1
f 471//1 473//1 475//1
f 473//1 79//1 475//1
f 473//1 474//1 79//1
f 473//1 427//1 474//1
f 427//1 63//1 474//1
f 470//1 472//1 77//1
f 470//1 471//1 472//1
f 471//1 78//1 472//1
f 468//1 470//1 77//1
f 468//1 424//1 470//1
f 424//1 62//1 470//1
f 465//1 469//1 76//1
f 465//1 467//1 469//1
f 467//1 77//1 469//1
f 467//1 468//1 77//1
f 467//1 421//1 468//1
f 421//1 61//1 468//1
f 464//1 466//1 75//1
f 464//1 465//1 466//1
f 465//1 76//1 466//1
f 462//1 464//1 75//1
f 462//1 418//1 464//1
f 418//1 60//1 464//1
f 459//1 463//1 74//1
f 459//1 461//1 463//1
f 461//1 75//1 463//1
f 461//1 462//1 75//1
f 461//1 415//1 462//1
f 415//1 59//1 462//1
f 458//1 460//1 73//1
f 458//1 459//1 460//1
f 459//1 74//1 460//1
f 456//1 458//1 73//1
f 456//1 412//1 458//1
f 412//1 58//1 458//1
f 453//1 457//1 72//1
f 453//1 455//1 457//1
f 455//1 73//1 457//1
f 455//1 456//1 73//1
f 455//1 409//1 456//1
f 409//1 57//1 456//1
f 452//1 454//1 71//1
f 452//1 453//1 454//1
f 453//1 72//1 454//1
f 450//1 452//1 71//1
f 450//1 406//1 452//1
f 406//1 56//1 452//1
f 447//1 451//1 70//1
f 447//1 449//1 451//1
f 449//1 71//1 451//1
f 449//1 450//1 71//1
f 449//1 403//1 450//1
f 403//1 55//1 450//1
f 446//1 448//1 69//1
f 446//1 447//1 448//1
f 447//1 70//1 448//1
f 444//1 446//1 69//1
f 444//1 400//1 446//1
f 400//1 54//1 446//1
f 441//1 445//1 68//1
f 441//1 443//1 445//1
f 443//1 69//1 445//1
f 443//1 444//1 69//1
f 443//1 397//1 444//1
f 397//1 53//1 444//1
f 440//1 442//1 67//1
f 440//1 441//1 442//1
f 441//1 68//1 442//1
f 438//1 440//1 67//1
f 438//1 394//1 440//1
f 394//1 52//1 440//1
f 435//1 439//1 1065//1
f 435//1 437//1 439//1
f 437//1 67//1 439//1
f 437//1 438//1 67//1
f 437//1 391//1 438//1
f 391//1 51//1 438//1
f 434//1 436//1 65//1
f 434//1 1063//1 436//1
f 1063//1 66//1 436//1
f 433//1 434//1 65//1
f 433//1 388//1 434//1
f 388//1 50//1 434//1
f 431//1 432//1 64//1
f 431//1 387//1 432//1
f 387//1 49//1 432//1
f 429//1 431//1 64//1
f 429//1 384//1 431//1
f 384//1 48//1 431//1
f 426//1 430//1 63//1
f 426//1 428//1 430//1
f 428//1 64//1 430//1
f 428//1 429//1 64//1
f 428//1 382//1 429//1
f 382//1 47//1 429//1
f 425//1 427//1 62//1
f 425//1 426//1 427//1
f 426//1 63//1 427//1
f 423//1 425//1 62//1
f 423//1 379//1 425//1
f 379//1 46//1 425//1
f 420//1 424//1 61//1
f 420//1 422//1 424//1
f 422//1 62//1 424//1
f 422//1 423//1 62//1
f 422//1 376//1 423//1
f 376//1 45//1 423//1
f 419//1 421//1 60//1
f 419//1 420//1 421//1
f 420//1 61//1 421//1
f 417//1 419//1 60//1
f 417//1 373//1 419//1
f 373//1 44//1 419//1
f 414//1 418//1 59//1
f 414//1 416//1 418//1
f 416//1 60//1 418//1
f 416//1 417//1 60//1
f 416//1 370//1 417//1
f 370//1 43//1 417//1
f 413//1 415//1 58//1
f 413//1 414//1 415//1
f 414//1 59//1 415//1
f 411//1 413//1 58//1
f 411//1 367//1 413//1
f 367//1 42//1 413//1
f 408//1 412//1 57//1
f 408//1 410//1 412//1
f 410//1 58//1 412//1
f 410//1 411//1 58//1
f 410//1 364//1 411//1
f 364//1 41//1 411//1
f 407//1 409//1 56//1
f 407//1 408//1 409//1
f 408//1 57//1 409//1
f 405//1 407//1 56//1
f 405//1 361//1 407//1
f 361//1 40//1 407//1
f 402//1 406//1 55//1
f 402//1 404//1 406//1
f 404//1 56//1 406//1
f 404//1 405//1 56//1
f 404//1 358//1 405//1
f 358//1 39//1 405//1
f 401//1 403//1 54//1
f 401//1 402//1 403//1
f 402//1 55//1 403//1
f 399//1 401//1 54//1
f 399//1 355//1 401//1
f 355//1 38//1 401//1
f 396//1 400//1 53//1
f 396//1 398//1 400//1
f 398//1 54//1 400//1
f 398//1 399//1 54//1
f 398//1 352//1 399//1
f 352//1 37//1 399//1
f 395//1 397//1 52//1
f 395//1 396//1 397//1
f 396//1 53//1 397//1
f 393//1 395//1 52//1
f 393//1 349//1 395//1
f 349//1 36//1 395//1
f 390//1 394//1 51//1
f 390//1 392//1 394//1
f 392//1 52//1 394//1
f 392//1 393//1 52//1
f 392//1 346//1 393//1
f 346//1 35//1 393//1
f 389//1 391//1 1064//1
f 389//1 390//1 391//1
f 390//1 51//1 391//1
f 1062//1 389//1 1064//1
f 1062//1 343//1 389//1
f 343//1 34//1 389//1
f 387//1 388//1 49//1
f 387//1 385//1 388//1
f 385//1 50//1 388//1
f 385//1 386//1 50//1
f 385//1 340//1 386//1
f 340//1 33//1 386//1
f 381//1 384//1 47//1
f 381//1 383//1 384//1
f 383//1 48//1 384//1
f 383//1 337//1 48//1
f 383//1 336//1 337//1
f 336//1 17//1 337//1
f 380//1 382//1 46//1
f 380//1 381//1 382//1
f 381//1 47//1 382//1
f 378//1 380//1 46//1
f 378//1 333//1 380//1
f 333//1 32//1 380//1
f 375//1 379//1 45//1
f 375//1 377//1 379//1
f 377//1 46//1 379//1
f 377//1 378//1 46//1
f 377//1 329//1 378//1
f 329//1 31//1 378//1
f 374//1 376//1 44//1
f 374//1 375//1 376//1
f 375//1 45//1 376//1
f 372//1 374//1 44//1
f 372//1 325//1 374//1
f 325//1 30//1 374//1
f 369//1 373//1 43//1
f 369//1 371//1 373//1
f 371//1 44//1 373//1
f 371//1 372//1 44//1
f 371//1 321//1 372//1
f 321//1 29//1 372//1
f 368//1 370//1 42//1
f 368//1 369//1 370//1
f 369//1 43//1 370//1
f 366//1 368//1 42//1
f 366//1 317//1 368//1
f 317//1 28//1 368//1
f 363//1 367//1 41//1
f 363//1 365//1 367//1
f 365//1 42//1 367//1
f 365//1 366//1 42//1
f 365//1 313//1 366//1
f 313//1 27//1 366//1
f 362//1 364//1 40//1
f 362//1 363//1 364//1
f 363//1 41//1 364//1
f 360//1 362//1 40//1
f 360//1 309//1 362//1
f 309//1 26//1 362//1
f 357//1 361//1 39//1
f 357//1 359//1 361//1
f 359//1 40//1 361//1
f 359//1 360//1 40//1
f 359//1 305//1 360//1
f 305//1 25//1 360//1
f 356//1 358//1 38//1
f 356//1 357//1 358//1
f 357//1 39//1 358//1
f 354//1 356//1 38//1
f 354//1 301//1 356//1
f 301//1 24//1 356//1
f 351//1 355//1 37//1
f 351//1 353//1 355//1
f 353//1 38//1 355//1
f 353//1 354//1 38//1
f 353//1 297//1 354//1
f 297//1 23//1 354//1
f 350//1 352//1 36//1
f 350//1 351//1 352//1
f 351//1 37//1 352//1
f 348//1 350//1 36//1
f 348//1 293//1 350//1
f 293//1 22//1 350//1
f 345//1 349//1 35//1
f 345//1 347//1 349//1
f 347//1 36//1 349//1
f 347//1 348//1 36//1
f 347//1 289//1 348//1
f 289//1 21//1 348//1
f 344//1 346//1 34//1
f 344//1 345//1 346//1
f 345//1 35//1 346//1
f 342//1 344//1 34//1
f 342//1 285//1 344//1
f 285//1 20//1 344//1
f 1060//1 343//1 1061//1
f 1060//1 341//1 343//1
f 341//1 34//1 343//1
f 341//1 342//1 34//1
f 341//1 281//1 342//1
f 281//1 19//1 342//1
f 338//1 340//1 48//1
f 338//1 339//1 340//1
f 339//1 33//1 340//1
f 337//1 338//1 48//1
f 337//1 277//1 338//1
f 277//1 18//1 338//1
f 335//1 336//1 32//1
f 335//1 276//1 336//1
f 276//1 17//1 336//1
f 332//1 335//1 32//1
f 332//1 334//1 335//1
f 334//1 1//1 335//1
f 328//1 333//1 31//1
f 328//1 330//1 333//1
f 330//1 32//1 333//1
f 330//1 332//1 32//1
f 330//1 331//1 332//1
f 331//1 16//1 332//1
f 327//1 329//1 30//1
f 327//1 328//1 329//1
f 328//1 31//1 329//1
f 324//1 327//1 30//1
f 324//1 326//1 327//1
f 326//1 15//1 327//1
f 320//1 325//1 29//1
f 320//1 322//1 325//1
f 322//1 30//1 325//1
f 322//1 324//1 30//1
f 322//1 323//1 324//1
f 323//1 14//1 324//1
f 319//1 321//1 28//1
f 319//1 320//1 321//1
f 320//1 29//1 321//1
f 316//1 319//1 28//1
f 316//1 318//1 319//1
f 318//1 13//1 319//1
f 312//1 317//1 27//1
f 312//1 314//1 317//1
f 314//1 28//1 317//1
f 314//1 316//1 28//1
f 314//1 315//1 316//1
f 315//1 12//1 316//1
f 311//1 313//1 26//1
f 311//1 312//1 313//1
f 312//1 27//1 313//1
f 308//1 311//1 26//1
f 308//1 310//1 311//1
f 310//1 11//1 311//1
f 304//1 309//1 25//1
f 304//1 306//1 309//1
f 306//1 26//1 309//1
f 306//1 308//1 26//1
f 306//1 307//1 308//1
f 307//1 10//1 308//1
f 303//1 305//1 24//1
f 303//1 304//1 305//1
f 304//1 25//1 305//1
f 300//1 303//1 24//1
f 300//1 302//1 303//1
f 302//1 9//1 303//1
f 296//1 301//1 23//1
f 296//1 298//1 301//1
f 298//1 24//1 301//1
f 298//1 300//1 24//1
f 298//1 299//1 300//1
f 299//1 8//1 300//1
f 295//1 297//1 22//1
f 295//1 296//1 297//1
f 296//1 23//1 297//1
f 292//1 295//1 22//1
f 292//1 294//1 295//1
f 294//1 7//1 295//1
f 288//1 293//1 21//1
f 288//1 290//1 293//1
f 290//1 22//1 293//1
f 290//1 292//1 22//1
f 290//1 291//1 292//1
f 291//1 6//1 292//1
f 287//1 289//1 20//1
f 287//1 288//1 289//1
f 288//1 21//1 289//1
f 284//1 287//1 20//1
f 284//1 286//1 287//1
f 286//1 5//1 287//1
f 280//1 285//1 19//1
f 280//1 282//1 285//1
f 282//1 20//1 285//1
f 282//1 284//1 20//1
f 282//1 283//1 284//1
f 283//1 4//1 284//1
f 279//1 281//1 1059//1
f 279//1 280//1 281//1
f 280//1 19//1 281//1
f 1058//1 279//1 1059//1
f 1058//1 278//1 279//1
f 278//1 3//1 279//1
f 276//1 277//1 17//1
f 276//1 273//1 277//1
f 273//1 18//1 277//1
f 273//1 275//1 18//1
f 273//1 274//1 275//1
f 274//1 2//1 275//1
