# Blender 4.4.3
# www.blender.org
o square16x16_init
v 0.000000 0.158310 -1.000000
v -0.112540 0.111694 -1.000000
v -0.159155 -0.000845 -1.000000
v -0.112540 -0.113385 -1.000000
v 0.000000 -0.160000 -1.000000
v 0.112540 -0.113385 -1.000000
v 0.159155 -0.000845 -1.000000
v 0.112540 0.111694 -1.000000
v -0.000000 0.158310 -1.000000
v 0.000000 0.158310 -0.750000
v -0.112540 0.111694 -0.750000
v -0.159155 -0.000845 -0.750000
v -0.112540 -0.113385 -0.750000
v 0.000000 -0.160000 -0.750000
v 0.112540 -0.113385 -0.750000
v 0.159155 -0.000845 -0.750000
v 0.112540 0.111694 -0.750000
v -0.000000 0.158310 -0.750000
v 0.000000 0.158310 -0.500000
v -0.112540 0.111694 -0.500000
v -0.159155 -0.000845 -0.500000
v -0.112540 -0.113385 -0.500000
v 0.000000 -0.160000 -0.500000
v 0.112540 -0.113385 -0.500000
v 0.159155 -0.000845 -0.500000
v 0.112540 0.111694 -0.500000
v -0.000000 0.158310 -0.500000
v 0.000000 0.158310 -0.250000
v -0.112540 0.111694 -0.250000
v -0.159155 -0.000845 -0.250000
v -0.112540 -0.113385 -0.250000
v 0.000000 -0.160000 -0.250000
v 0.112540 -0.113385 -0.250000
v 0.159155 -0.000845 -0.250000
v 0.112540 0.111694 -0.250000
v -0.000000 0.158310 -0.250000
v 0.000000 0.158310 -0.000000
v -0.112540 0.111694 -0.000000
v -0.159155 -0.000845 -0.000000
v -0.112540 -0.113385 -0.000000
v 0.000000 -0.160000 0.000000
v 0.112540 -0.113385 -0.000000
v 0.159155 -0.000845 -0.000000
v 0.112540 0.111694 -0.000000
v -0.000000 0.158310 -0.000000
v 0.000000 0.158310 0.250000
v -0.112540 0.111695 0.250000
v -0.159155 -0.000845 0.250000
v -0.112540 -0.113385 0.250000
v 0.000000 -0.160000 0.250000
v 0.112540 -0.113385 0.250000
v 0.159155 -0.000845 0.250000
v 0.112540 0.111695 0.250000
v -0.000000 0.158310 0.250000
v 0.000000 0.158310 0.500000
v -0.112540 0.111695 0.500000
v -0.159155 -0.000845 0.500000
v -0.112540 -0.113385 0.500000
v 0.000000 -0.160000 0.500000
v 0.112540 -0.113385 0.500000
v 0.159155 -0.000845 0.500000
v 0.112540 0.111695 0.500000
v -0.000000 0.158310 0.500000
v 0.000000 0.158310 0.750000
v -0.112540 0.111695 0.750000
v -0.159155 -0.000845 0.750000
v -0.112540 -0.113385 0.750000
v 0.000000 -0.160000 0.750000
v 0.112540 -0.113385 0.750000
v 0.159155 -0.000845 0.750000
v 0.112540 0.111695 0.750000
v -0.000000 0.158310 0.750000
v 0.000000 0.158310 1.000000
v -0.112540 0.111695 1.000000
v -0.159155 -0.000845 1.000000
v -0.112540 -0.113385 1.000000
v 0.000000 -0.160000 1.000000
v 0.112540 -0.113385 1.000000
v 0.159155 -0.000845 1.000000
v 0.112540 0.111695 1.000000
v -0.000000 0.158310 1.000000
v -0.060906 0.146195 -0.875000
v 0.000000 0.158310 -0.875000
v -0.060906 0.146195 -0.750000
v -0.112540 0.111694 -0.875000
v -0.060906 0.146195 -1.000000
v -0.147040 0.060061 -0.875000
v -0.147040 0.060061 -0.750000
v -0.159155 -0.000845 -0.875000
v -0.147040 0.060061 -1.000000
v -0.147040 -0.061751 -0.875000
v -0.147040 -0.061751 -0.750000
v -0.112540 -0.113385 -0.875000
v -0.147040 -0.061751 -1.000000
v -0.060906 -0.147885 -0.875000
v -0.060906 -0.147885 -0.750000
v 0.000000 -0.160000 -0.875000
v -0.060906 -0.147885 -1.000000
v 0.060906 -0.147885 -0.875000
v 0.060906 -0.147885 -0.750000
v 0.112540 -0.113385 -0.875000
v 0.060906 -0.147885 -1.000000
v 0.147040 -0.061751 -0.875000
v 0.147040 -0.061751 -0.750000
v 0.159155 -0.000845 -0.875000
v 0.147040 -0.061751 -1.000000
v 0.147040 0.060061 -0.875000
v 0.147040 0.060061 -0.750000
v 0.112540 0.111694 -0.875000
v 0.147040 0.060061 -1.000000
v 0.060906 0.146195 -0.875000
v 0.060906 0.146195 -0.750000
v -0.000000 0.158310 -0.875000
v 0.060906 0.146195 -1.000000
v -0.060906 0.146195 -0.625000
v 0.000000 0.158310 -0.625000
v -0.060906 0.146195 -0.500000
v -0.112540 0.111694 -0.625000
v -0.147040 0.060061 -0.625000
v -0.147040 0.060061 -0.500000
v -0.159155 -0.000845 -0.625000
v -0.147040 -0.061751 -0.625000
v -0.147040 -0.061751 -0.500000
v -0.112540 -0.113385 -0.625000
v -0.060906 -0.147885 -0.625000
v -0.060906 -0.147885 -0.500000
v 0.000000 -0.160000 -0.625000
v 0.060906 -0.147885 -0.625000
v 0.060906 -0.147885 -0.500000
v 0.112540 -0.113385 -0.625000
v 0.147040 -0.061751 -0.625000
v 0.147040 -0.061751 -0.500000
v 0.159155 -0.000845 -0.625000
v 0.147040 0.060061 -0.625000
v 0.147040 0.060061 -0.500000
v 0.112540 0.111694 -0.625000
v 0.060906 0.146195 -0.625000
v 0.060906 0.146195 -0.500000
v -0.000000 0.158310 -0.625000
v -0.060906 0.146195 -0.375000
v 0.000000 0.158310 -0.375000
v -0.060906 0.146195 -0.250000
v -0.112540 0.111694 -0.375000
v -0.147040 0.060061 -0.375000
v -0.147040 0.060061 -0.250000
v -0.159155 -0.000845 -0.375000
v -0.147040 -0.061751 -0.375000
v -0.147040 -0.061751 -0.250000
v -0.112540 -0.113385 -0.375000
v -0.060906 -0.147885 -0.375000
v -0.060906 -0.147885 -0.250000
v 0.000000 -0.160000 -0.375000
v 0.060906 -0.147885 -0.375000
v 0.060906 -0.147885 -0.250000
v 0.112540 -0.113385 -0.375000
v 0.147040 -0.061751 -0.375000
v 0.147040 -0.061751 -0.250000
v 0.159155 -0.000845 -0.375000
v 0.147040 0.060061 -0.375000
v 0.147040 0.060061 -0.250000
v 0.112540 0.111694 -0.375000
v 0.060906 0.146195 -0.375000
v 0.060906 0.146195 -0.250000
v -0.000000 0.158310 -0.375000
v -0.060906 0.146195 -0.125000
v 0.000000 0.158310 -0.125000
v -0.060906 0.146195 -0.000000
v -0.112540 0.111694 -0.125000
v -0.147040 0.060061 -0.125000
v -0.147040 0.060061 -0.000000
v -0.159155 -0.000845 -0.125000
v -0.147040 -0.061751 -0.125000
v -0.147040 -0.061751 -0.000000
v -0.112540 -0.113385 -0.125000
v -0.060906 -0.147885 -0.125000
v -0.060906 -0.147885 -0.000000
v 0.000000 -0.160000 -0.125000
v 0.060906 -0.147885 -0.125000
v 0.060906 -0.147885 -0.000000
v 0.112540 -0.113385 -0.125000
v 0.147040 -0.061751 -0.125000
v 0.147040 -0.061751 -0.000000
v 0.159155 -0.000845 -0.125000
v 0.147040 0.060061 -0.125000
v 0.147040 0.060061 -0.000000
v 0.112540 0.111694 -0.125000
v 0.060906 0.146195 -0.125000
v 0.060906 0.146195 -0.000000
v -0.000000 0.158310 -0.125000
v -0.060906 0.146195 0.125000
v 0.000000 0.158310 0.125000
v -0.060906 0.146195 0.250000
v -0.112540 0.111694 0.125000
v -0.147040 0.060061 0.125000
v -0.147040 0.060061 0.250000
v -0.159155 -0.000845 0.125000
v -0.147040 -0.061751 0.125000
v -0.147040 -0.061751 0.250000
v -0.112540 -0.113385 0.125000
v -0.060906 -0.147885 0.125000
v -0.060906 -0.147885 0.250000
v 0.000000 -0.160000 0.125000
v 0.060906 -0.147885 0.125000
v 0.060906 -0.147885 0.250000
v 0.112540 -0.113385 0.125000
v 0.147040 -0.061751 0.125000
v 0.147040 -0.061751 0.250000
v 0.159155 -0.000845 0.125000
v 0.147040 0.060061 0.125000
v 0.147040 0.060061 0.250000
v 0.112540 0.111694 0.125000
v 0.060906 0.146195 0.125000
v 0.060906 0.146195 0.250000
v -0.000000 0.158310 0.125000
v -0.060906 0.146195 0.375000
v 0.000000 0.158310 0.375000
v -0.060906 0.146195 0.500000
v -0.112540 0.111695 0.375000
v -0.147040 0.060061 0.375000
v -0.147040 0.060061 0.500000
v -0.159155 -0.000845 0.375000
v -0.147040 -0.061751 0.375000
v -0.147040 -0.061751 0.500000
v -0.112540 -0.113385 0.375000
v -0.060906 -0.147885 0.375000
v -0.060906 -0.147885 0.500000
v 0.000000 -0.160000 0.375000
v 0.060906 -0.147885 0.375000
v 0.060906 -0.147885 0.500000
v 0.112540 -0.113385 0.375000
v 0.147040 -0.061751 0.375000
v 0.147040 -0.061751 0.500000
v 0.159155 -0.000845 0.375000
v 0.147040 0.060061 0.375000
v 0.147040 0.060061 0.500000
v 0.112540 0.111695 0.375000
v 0.060906 0.146195 0.375000
v 0.060906 0.146195 0.500000
v -0.000000 0.158310 0.375000
v -0.060906 0.146195 0.625000
v 0.000000 0.158310 0.625000
v -0.060906 0.146195 0.750000
v -0.112540 0.111695 0.625000
v -0.147040 0.060061 0.625000
v -0.147040 0.060061 0.750000
v -0.159155 -0.000845 0.625000
v -0.147040 -0.061751 0.625000
v -0.147040 -0.061751 0.750000
v -0.112540 -0.113385 0.625000
v -0.060906 -0.147885 0.625000
v -0.060906 -0.147885 0.750000
v 0.000000 -0.160000 0.625000
v 0.060906 -0.147885 0.625000
v 0.060906 -0.147885 0.750000
v 0.112540 -0.113385 0.625000
v 0.147040 -0.061751 0.625000
v 0.147040 -0.061751 0.750000
v 0.159155 -0.000845 0.625000
v 0.147040 0.060061 0.625000
v 0.147040 0.060061 0.750000
v 0.112540 0.111695 0.625000
v 0.060906 0.146195 0.625000
v 0.060906 0.146195 0.750000
v -0.000000 0.158310 0.625000
v -0.060906 0.146195 0.875000
v 0.000000 0.158310 0.875000
v -0.060906 0.146195 1.000000
v -0.112540 0.111695 0.875000
v -0.147040 0.060061 0.875000
v -0.147040 0.060061 1.000000
v -0.159155 -0.000845 0.875000
v -0.147040 -0.061751 0.875000
v -0.147040 -0.061751 1.000000
v -0.112540 -0.113385 0.875000
v -0.060906 -0.147885 0.875000
v -0.060906 -0.147885 1.000000
v 0.000000 -0.160000 0.875000
v 0.060906 -0.147885 0.875000
v 0.060906 -0.147885 1.000000
v 0.112540 -0.113385 0.875000
v 0.147040 -0.061751 0.875000
v 0.147040 -0.061751 1.000000
v 0.159155 -0.000845 0.875000
v 0.147040 0.060061 0.875000
v 0.147040 0.060061 1.000000
v 0.112540 0.111695 0.875000
v 0.060906 0.146195 0.875000
v 0.060906 0.146195 1.000000
v -0.000000 0.158310 0.875000
vn 0.1951 -0.9808 -0.0000
vn 0.3827 -0.9239 -0.0000
vn 0.7071 -0.7071 -0.0000
vn 0.9239 -0.3827 -0.0000
vn 1.0000 -0.0000 -0.0000
vn 0.9239 0.3827 -0.0000
vn 0.7071 0.7071 -0.0000
vn 0.3827 0.9239 -0.0000
vn -0.0000 1.0000 -0.0000
vn -0.3827 0.9239 -0.0000
vn -0.7071 0.7071 -0.0000
vn -0.9239 0.3827 -0.0000
vn -1.0000 -0.0000 -0.0000
vn -0.9239 -0.3827 -0.0000
vn -0.7071 -0.7071 -0.0000
vn -0.3827 -0.9239 -0.0000
vn -0.1951 -0.9808 -0.0000
vt 0.000000 0.000000
vt 0.125000 0.000000
vt 0.125000 0.125000
vt 0.000000 0.250000
vt 0.000000 0.125000
vt 0.125000 0.250000
vt 0.125000 0.375000
vt 0.000000 0.500000
vt 0.000000 0.375000
vt 0.125000 0.500000
vt 0.125000 0.625000
vt 0.000000 0.750000
vt 0.000000 0.625000
vt 0.125000 0.750000
vt 0.125000 0.875000
vt 0.000000 1.000000
vt 0.000000 0.875000
vt 0.125000 1.000000
vt 0.125000 1.125000
vt 0.000000 1.250000
vt 0.000000 1.125000
vt 0.125000 1.250000
vt 0.125000 1.375000
vt 0.000000 1.500000
vt 0.000000 1.375000
vt 0.125000 1.500000
vt 0.125000 1.625000
vt 0.000000 1.750000
vt 0.000000 1.625000
vt 0.125000 1.750000
vt 0.125000 1.875000
vt 0.000000 2.000000
vt 0.000000 1.875000
vt 0.125000 2.000000
vt 0.250000 0.000000
vt 0.375000 0.000000
vt 0.375000 0.125000
vt 0.250000 0.250000
vt 0.250000 0.125000
vt 0.375000 0.250000
vt 0.375000 0.375000
vt 0.250000 0.500000
vt 0.250000 0.375000
vt 0.375000 0.500000
vt 0.375000 0.625000
vt 0.250000 0.750000
vt 0.250000 0.625000
vt 0.375000 0.750000
vt 0.375000 0.875000
vt 0.250000 1.000000
vt 0.250000 0.875000
vt 0.375000 1.000000
vt 0.375000 1.125000
vt 0.250000 1.250000
vt 0.250000 1.125000
vt 0.375000 1.250000
vt 0.375000 1.375000
vt 0.250000 1.500000
vt 0.250000 1.375000
vt 0.375000 1.500000
vt 0.375000 1.625000
vt 0.250000 1.750000
vt 0.250000 1.625000
vt 0.375000 1.750000
vt 0.375000 1.875000
vt 0.250000 2.000000
vt 0.250000 1.875000
vt 0.375000 2.000000
vt 0.500000 0.000000
vt 0.625000 0.000000
vt 0.625000 0.125000
vt 0.500000 0.250000
vt 0.500000 0.125000
vt 0.625000 0.250000
vt 0.625000 0.375000
vt 0.500000 0.500000
vt 0.500000 0.375000
vt 0.625000 0.500000
vt 0.625000 0.625000
vt 0.500000 0.750000
vt 0.500000 0.625000
vt 0.625000 0.750000
vt 0.625000 0.875000
vt 0.500000 1.000000
vt 0.500000 0.875000
vt 0.625000 1.000000
vt 0.625000 1.125000
vt 0.500000 1.250000
vt 0.500000 1.125000
vt 0.625000 1.250000
vt 0.625000 1.375000
vt 0.500000 1.500000
vt 0.500000 1.375000
vt 0.625000 1.500000
vt 0.625000 1.625000
vt 0.500000 1.750000
vt 0.500000 1.625000
vt 0.625000 1.750000
vt 0.625000 1.875000
vt 0.500000 2.000000
vt 0.500000 1.875000
vt 0.625000 2.000000
vt 0.750000 0.000000
vt 0.875000 0.000000
vt 0.875000 0.125000
vt 0.750000 0.250000
vt 0.750000 0.125000
vt 0.875000 0.250000
vt 0.875000 0.375000
vt 0.750000 0.500000
vt 0.750000 0.375000
vt 0.875000 0.500000
vt 0.875000 0.625000
vt 0.750000 0.750000
vt 0.750000 0.625000
vt 0.875000 0.750000
vt 0.875000 0.875000
vt 0.750000 1.000000
vt 0.750000 0.875000
vt 0.875000 1.000000
vt 0.875000 1.125000
vt 0.750000 1.250000
vt 0.750000 1.125000
vt 0.875000 1.250000
vt 0.875000 1.375000
vt 0.750000 1.500000
vt 0.750000 1.375000
vt 0.875000 1.500000
vt 0.875000 1.625000
vt 0.750000 1.750000
vt 0.750000 1.625000
vt 0.875000 1.750000
vt 0.875000 1.875000
vt 0.750000 2.000000
vt 0.750000 1.875000
vt 0.875000 2.000000
vt 1.000000 0.000000
vt 1.125000 0.000000
vt 1.125000 0.125000
vt 1.000000 0.250000
vt 1.000000 0.125000
vt 1.125000 0.250000
vt 1.125000 0.375000
vt 1.000000 0.500000
vt 1.000000 0.375000
vt 1.125000 0.500000
vt 1.125000 0.625000
vt 1.000000 0.750000
vt 1.000000 0.625000
vt 1.125000 0.750000
vt 1.125000 0.875000
vt 1.000000 1.000000
vt 1.000000 0.875000
vt 1.125000 1.000000
vt 1.125000 1.125000
vt 1.000000 1.250000
vt 1.000000 1.125000
vt 1.125000 1.250000
vt 1.125000 1.375000
vt 1.000000 1.500000
vt 1.000000 1.375000
vt 1.125000 1.500000
vt 1.125000 1.625000
vt 1.000000 1.750000
vt 1.000000 1.625000
vt 1.125000 1.750000
vt 1.125000 1.875000
vt 1.000000 2.000000
vt 1.000000 1.875000
vt 1.125000 2.000000
vt 1.250000 0.000000
vt 1.375000 0.000000
vt 1.375000 0.125000
vt 1.250000 0.250000
vt 1.250000 0.125000
vt 1.375000 0.250000
vt 1.375000 0.375000
vt 1.250000 0.500000
vt 1.250000 0.375000
vt 1.375000 0.500000
vt 1.375000 0.625000
vt 1.250000 0.750000
vt 1.250000 0.625000
vt 1.375000 0.750000
vt 1.375000 0.875000
vt 1.250000 1.000000
vt 1.250000 0.875000
vt 1.375000 1.000000
vt 1.375000 1.125000
vt 1.250000 1.250000
vt 1.250000 1.125000
vt 1.375000 1.250000
vt 1.375000 1.375000
vt 1.250000 1.500000
vt 1.250000 1.375000
vt 1.375000 1.500000
vt 1.375000 1.625000
vt 1.250000 1.750000
vt 1.250000 1.625000
vt 1.375000 1.750000
vt 1.375000 1.875000
vt 1.250000 2.000000
vt 1.250000 1.875000
vt 1.375000 2.000000
vt 1.500000 0.000000
vt 1.625000 0.000000
vt 1.625000 0.125000
vt 1.500000 0.250000
vt 1.500000 0.125000
vt 1.625000 0.250000
vt 1.625000 0.375000
vt 1.500000 0.500000
vt 1.500000 0.375000
vt 1.625000 0.500000
vt 1.625000 0.625000
vt 1.500000 0.750000
vt 1.500000 0.625000
vt 1.625000 0.750000
vt 1.625000 0.875000
vt 1.500000 1.000000
vt 1.500000 0.875000
vt 1.625000 1.000000
vt 1.625000 1.125000
vt 1.500000 1.250000
vt 1.500000 1.125000
vt 1.625000 1.250000
vt 1.625000 1.375000
vt 1.500000 1.500000
vt 1.500000 1.375000
vt 1.625000 1.500000
vt 1.625000 1.625000
vt 1.500000 1.750000
vt 1.500000 1.625000
vt 1.625000 1.750000
vt 1.625000 1.875000
vt 1.500000 2.000000
vt 1.500000 1.875000
vt 1.625000 2.000000
vt 1.750000 0.000000
vt 1.875000 0.000000
vt 1.875000 0.125000
vt 1.750000 0.250000
vt 1.750000 0.125000
vt 1.875000 0.250000
vt 1.875000 0.375000
vt 1.750000 0.500000
vt 1.750000 0.375000
vt 1.875000 0.500000
vt 1.875000 0.625000
vt 1.750000 0.750000
vt 1.750000 0.625000
vt 1.875000 0.750000
vt 1.875000 0.875000
vt 1.750000 1.000000
vt 1.750000 0.875000
vt 1.875000 1.000000
vt 1.875000 1.125000
vt 1.750000 1.250000
vt 1.750000 1.125000
vt 1.875000 1.250000
vt 1.875000 1.375000
vt 1.750000 1.500000
vt 1.750000 1.375000
vt 1.875000 1.500000
vt 1.875000 1.625000
vt 1.750000 1.750000
vt 1.750000 1.625000
vt 1.875000 1.750000
vt 1.875000 1.875000
vt 1.750000 2.000000
vt 1.750000 1.875000
vt 1.875000 2.000000
vt 2.000000 2.000000
vt 2.000000 1.875000
vt 2.000000 1.750000
vt 2.000000 1.625000
vt 2.000000 1.500000
vt 2.000000 1.375000
vt 2.000000 1.250000
vt 2.000000 1.125000
vt 2.000000 1.000000
vt 2.000000 0.875000
vt 2.000000 0.750000
vt 2.000000 0.625000
vt 2.000000 0.500000
vt 2.000000 0.375000
vt 2.000000 0.250000
vt 2.000000 0.125000
vt 2.000000 0.000000
s 1
f 1/1/1 83/2/1 82/3/2
f 2/4/3 86/5/2 85/6/3
f 2/4/3 85/6/3 87/7/4
f 3/8/5 90/9/4 89/10/5
f 3/8/5 89/10/5 91/11/6
f 4/12/7 94/13/6 93/14/7
f 4/12/7 93/14/7 95/15/8
f 5/16/9 98/17/8 97/18/9
f 5/16/9 97/18/9 99/19/10
f 6/20/11 102/21/10 101/22/11
f 6/20/11 101/22/11 103/23/12
f 7/24/13 106/25/12 105/26/13
f 7/24/13 105/26/13 107/27/14
f 8/28/15 110/29/14 109/30/15
f 8/28/15 109/30/15 111/31/16
f 9/32/17 114/33/16 113/34/17
f 10/35/1 116/36/1 115/37/2
f 11/38/3 84/39/2 118/40/3
f 11/38/3 118/40/3 119/41/4
f 12/42/5 88/43/4 121/44/5
f 12/42/5 121/44/5 122/45/6
f 13/46/7 92/47/6 124/48/7
f 13/46/7 124/48/7 125/49/8
f 14/50/9 96/51/8 127/52/9
f 14/50/9 127/52/9 128/53/10
f 15/54/11 100/55/10 130/56/11
f 15/54/11 130/56/11 131/57/12
f 16/58/13 104/59/12 133/60/13
f 16/58/13 133/60/13 134/61/14
f 17/62/15 108/63/14 136/64/15
f 17/62/15 136/64/15 137/65/16
f 18/66/17 112/67/16 139/68/17
f 19/69/1 141/70/1 140/71/2
f 20/72/3 117/73/2 143/74/3
f 20/72/3 143/74/3 144/75/4
f 21/76/5 120/77/4 146/78/5
f 21/76/5 146/78/5 147/79/6
f 22/80/7 123/81/6 149/82/7
f 22/80/7 149/82/7 150/83/8
f 23/84/9 126/85/8 152/86/9
f 23/84/9 152/86/9 153/87/10
f 24/88/11 129/89/10 155/90/11
f 24/88/11 155/90/11 156/91/12
f 25/92/13 132/93/12 158/94/13
f 25/92/13 158/94/13 159/95/14
f 26/96/15 135/97/14 161/98/15
f 26/96/15 161/98/15 162/99/16
f 27/100/17 138/101/16 164/102/17
f 28/103/1 166/104/1 165/105/2
f 29/106/3 142/107/2 168/108/3
f 29/106/3 168/108/3 169/109/4
f 30/110/5 145/111/4 171/112/5
f 30/110/5 171/112/5 172/113/6
f 31/114/7 148/115/6 174/116/7
f 31/114/7 174/116/7 175/117/8
f 32/118/9 151/119/8 177/120/9
f 32/118/9 177/120/9 178/121/10
f 33/122/11 154/123/10 180/124/11
f 33/122/11 180/124/11 181/125/12
f 34/126/13 157/127/12 183/128/13
f 34/126/13 183/128/13 184/129/14
f 35/130/15 160/131/14 186/132/15
f 35/130/15 186/132/15 187/133/16
f 36/134/17 163/135/16 189/136/17
f 37/137/1 191/138/1 190/139/2
f 38/140/3 167/141/2 193/142/3
f 38/140/3 193/142/3 194/143/4
f 39/144/5 170/145/4 196/146/5
f 39/144/5 196/146/5 197/147/6
f 40/148/7 173/149/6 199/150/7
f 40/148/7 199/150/7 200/151/8
f 41/152/9 176/153/8 202/154/9
f 41/152/9 202/154/9 203/155/10
f 42/156/11 179/157/10 205/158/11
f 42/156/11 205/158/11 206/159/12
f 43/160/13 182/161/12 208/162/13
f 43/160/13 208/162/13 209/163/14
f 44/164/15 185/165/14 211/166/15
f 44/164/15 211/166/15 212/167/16
f 45/168/17 188/169/16 214/170/17
f 46/171/1 216/172/1 215/173/2
f 47/174/3 192/175/2 218/176/3
f 47/174/3 218/176/3 219/177/4
f 48/178/5 195/179/4 221/180/5
f 48/178/5 221/180/5 222/181/6
f 49/182/7 198/183/6 224/184/7
f 49/182/7 224/184/7 225/185/8
f 50/186/9 201/187/8 227/188/9
f 50/186/9 227/188/9 228/189/10
f 51/190/11 204/191/10 230/192/11
f 51/190/11 230/192/11 231/193/12
f 52/194/13 207/195/12 233/196/13
f 52/194/13 233/196/13 234/197/14
f 53/198/15 210/199/14 236/200/15
f 53/198/15 236/200/15 237/201/16
f 54/202/17 213/203/16 239/204/17
f 55/205/1 241/206/1 240/207/2
f 56/208/3 217/209/2 243/210/3
f 56/208/3 243/210/3 244/211/4
f 57/212/5 220/213/4 246/214/5
f 57/212/5 246/214/5 247/215/6
f 58/216/7 223/217/6 249/218/7
f 58/216/7 249/218/7 250/219/8
f 59/220/9 226/221/8 252/222/9
f 59/220/9 252/222/9 253/223/10
f 60/224/11 229/225/10 255/226/11
f 60/224/11 255/226/11 256/227/12
f 61/228/13 232/229/12 258/230/13
f 61/228/13 258/230/13 259/231/14
f 62/232/15 235/233/14 261/234/15
f 62/232/15 261/234/15 262/235/16
f 63/236/17 238/237/16 264/238/17
f 64/239/1 266/240/1 265/241/2
f 65/242/3 242/243/2 268/244/3
f 65/242/3 268/244/3 269/245/4
f 66/246/5 245/247/4 271/248/5
f 66/246/5 271/248/5 272/249/6
f 67/250/7 248/251/6 274/252/7
f 67/250/7 274/252/7 275/253/8
f 68/254/9 251/255/8 277/256/9
f 68/254/9 277/256/9 278/257/10
f 69/258/11 254/259/10 280/260/11
f 69/258/11 280/260/11 281/261/12
f 70/262/13 257/263/12 283/264/13
f 70/262/13 283/264/13 284/265/14
f 71/266/15 260/267/14 286/268/15
f 71/266/15 286/268/15 287/269/16
f 72/270/17 263/271/16 289/272/17
f 289/272/17 287/269/16 81/273/17
f 289/272/17 263/271/16 287/269/16
f 263/271/16 71/266/15 287/269/16
f 287/269/16 288/274/16 81/273/17
f 287/269/16 286/268/15 288/274/16
f 286/268/15 80/275/15 288/274/16
f 286/268/15 284/265/14 80/275/15
f 286/268/15 260/267/14 284/265/14
f 260/267/14 70/262/13 284/265/14
f 284/265/14 285/276/14 80/275/15
f 284/265/14 283/264/13 285/276/14
f 283/264/13 79/277/13 285/276/14
f 283/264/13 281/261/12 79/277/13
f 283/264/13 257/263/12 281/261/12
f 257/263/12 69/258/11 281/261/12
f 281/261/12 282/278/12 79/277/13
f 281/261/12 280/260/11 282/278/12
f 280/260/11 78/279/11 282/278/12
f 280/260/11 278/257/10 78/279/11
f 280/260/11 254/259/10 278/257/10
f 254/259/10 68/254/9 278/257/10
f 278/257/10 279/280/10 78/279/11
f 278/257/10 277/256/9 279/280/10
f 277/256/9 77/281/9 279/280/10
f 277/256/9 275/253/8 77/281/9
f 277/256/9 251/255/8 275/253/8
f 251/255/8 67/250/7 275/253/8
f 275/253/8 276/282/8 77/281/9
f 275/253/8 274/252/7 276/282/8
f 274/252/7 76/283/7 276/282/8
f 274/252/7 272/249/6 76/283/7
f 274/252/7 248/251/6 272/249/6
f 248/251/6 66/246/5 272/249/6
f 272/249/6 273/284/6 76/283/7
f 272/249/6 271/248/5 273/284/6
f 271/248/5 75/285/5 273/284/6
f 271/248/5 269/245/4 75/285/5
f 271/248/5 245/247/4 269/245/4
f 245/247/4 65/242/3 269/245/4
f 269/245/4 270/286/4 75/285/5
f 269/245/4 268/244/3 270/286/4
f 268/244/3 74/287/3 270/286/4
f 268/244/3 265/241/2 74/287/3
f 268/244/3 242/243/2 265/241/2
f 242/243/2 64/239/1 265/241/2
f 265/241/2 267/288/2 74/287/3
f 265/241/2 266/240/1 267/288/2
f 266/240/1 73/289/1 267/288/2
f 264/238/17 262/235/16 72/270/17
f 264/238/17 238/237/16 262/235/16
f 238/237/16 62/232/15 262/235/16
f 262/235/16 263/271/16 72/270/17
f 262/235/16 261/234/15 263/271/16
f 261/234/15 71/266/15 263/271/16
f 261/234/15 259/231/14 71/266/15
f 261/234/15 235/233/14 259/231/14
f 235/233/14 61/228/13 259/231/14
f 259/231/14 260/267/14 71/266/15
f 259/231/14 258/230/13 260/267/14
f 258/230/13 70/262/13 260/267/14
f 258/230/13 256/227/12 70/262/13
f 258/230/13 232/229/12 256/227/12
f 232/229/12 60/224/11 256/227/12
f 256/227/12 257/263/12 70/262/13
f 256/227/12 255/226/11 257/263/12
f 255/226/11 69/258/11 257/263/12
f 255/226/11 253/223/10 69/258/11
f 255/226/11 229/225/10 253/223/10
f 229/225/10 59/220/9 253/223/10
f 253/223/10 254/259/10 69/258/11
f 253/223/10 252/222/9 254/259/10
f 252/222/9 68/254/9 254/259/10
f 252/222/9 250/219/8 68/254/9
f 252/222/9 226/221/8 250/219/8
f 226/221/8 58/216/7 250/219/8
f 250/219/8 251/255/8 68/254/9
f 250/219/8 249/218/7 251/255/8
f 249/218/7 67/250/7 251/255/8
f 249/218/7 247/215/6 67/250/7
f 249/218/7 223/217/6 247/215/6
f 223/217/6 57/212/5 247/215/6
f 247/215/6 248/251/6 67/250/7
f 247/215/6 246/214/5 248/251/6
f 246/214/5 66/246/5 248/251/6
f 246/214/5 244/211/4 66/246/5
f 246/214/5 220/213/4 244/211/4
f 220/213/4 56/208/3 244/211/4
f 244/211/4 245/247/4 66/246/5
f 244/211/4 243/210/3 245/247/4
f 243/210/3 65/242/3 245/247/4
f 243/210/3 240/207/2 65/242/3
f 243/210/3 217/209/2 240/207/2
f 217/209/2 55/205/1 240/207/2
f 240/207/2 242/243/2 65/242/3
f 240/207/2 241/206/1 242/243/2
f 241/206/1 64/239/1 242/243/2
f 239/204/17 237/201/16 63/236/17
f 239/204/17 213/203/16 237/201/16
f 213/203/16 53/198/15 237/201/16
f 237/201/16 238/237/16 63/236/17
f 237/201/16 236/200/15 238/237/16
f 236/200/15 62/232/15 238/237/16
f 236/200/15 234/197/14 62/232/15
f 236/200/15 210/199/14 234/197/14
f 210/199/14 52/194/13 234/197/14
f 234/197/14 235/233/14 62/232/15
f 234/197/14 233/196/13 235/233/14
f 233/196/13 61/228/13 235/233/14
f 233/196/13 231/193/12 61/228/13
f 233/196/13 207/195/12 231/193/12
f 207/195/12 51/190/11 231/193/12
f 231/193/12 232/229/12 61/228/13
f 231/193/12 230/192/11 232/229/12
f 230/192/11 60/224/11 232/229/12
f 230/192/11 228/189/10 60/224/11
f 230/192/11 204/191/10 228/189/10
f 204/191/10 50/186/9 228/189/10
f 228/189/10 229/225/10 60/224/11
f 228/189/10 227/188/9 229/225/10
f 227/188/9 59/220/9 229/225/10
f 227/188/9 225/185/8 59/220/9
f 227/188/9 201/187/8 225/185/8
f 201/187/8 49/182/7 225/185/8
f 225/185/8 226/221/8 59/220/9
f 225/185/8 224/184/7 226/221/8
f 224/184/7 58/216/7 226/221/8
f 224/184/7 222/181/6 58/216/7
f 224/184/7 198/183/6 222/181/6
f 198/183/6 48/178/5 222/181/6
f 222/181/6 223/217/6 58/216/7
f 222/181/6 221/180/5 223/217/6
f 221/180/5 57/212/5 223/217/6
f 221/180/5 219/177/4 57/212/5
f 221/180/5 195/179/4 219/177/4
f 195/179/4 47/174/3 219/177/4
f 219/177/4 220/213/4 57/212/5
f 219/177/4 218/176/3 220/213/4
f 218/176/3 56/208/3 220/213/4
f 218/176/3 215/173/2 56/208/3
f 218/176/3 192/175/2 215/173/2
f 192/175/2 46/171/1 215/173/2
f 215/173/2 217/209/2 56/208/3
f 215/173/2 216/172/1 217/209/2
f 216/172/1 55/205/1 217/209/2
f 214/170/17 212/167/16 54/202/17
f 214/170/17 188/169/16 212/167/16
f 188/169/16 44/164/15 212/167/16
f 212/167/16 213/203/16 54/202/17
f 212/167/16 211/166/15 213/203/16
f 211/166/15 53/198/15 213/203/16
f 211/166/15 209/163/14 53/198/15
f 211/166/15 185/165/14 209/163/14
f 185/165/14 43/160/13 209/163/14
f 209/163/14 210/199/14 53/198/15
f 209/163/14 208/162/13 210/199/14
f 208/162/13 52/194/13 210/199/14
f 208/162/13 206/159/12 52/194/13
f 208/162/13 182/161/12 206/159/12
f 182/161/12 42/156/11 206/159/12
f 206/159/12 207/195/12 52/194/13
f 206/159/12 205/158/11 207/195/12
f 205/158/11 51/190/11 207/195/12
f 205/158/11 203/155/10 51/190/11
f 205/158/11 179/157/10 203/155/10
f 179/157/10 41/152/9 203/155/10
f 203/155/10 204/191/10 51/190/11
f 203/155/10 202/154/9 204/191/10
f 202/154/9 50/186/9 204/191/10
f 202/154/9 200/151/8 50/186/9
f 202/154/9 176/153/8 200/151/8
f 176/153/8 40/148/7 200/151/8
f 200/151/8 201/187/8 50/186/9
f 200/151/8 199/150/7 201/187/8
f 199/150/7 49/182/7 201/187/8
f 199/150/7 197/147/6 49/182/7
f 199/150/7 173/149/6 197/147/6
f 173/149/6 39/144/5 197/147/6
f 197/147/6 198/183/6 49/182/7
f 197/147/6 196/146/5 198/183/6
f 196/146/5 48/178/5 198/183/6
f 196/146/5 194/143/4 48/178/5
f 196/146/5 170/145/4 194/143/4
f 170/145/4 38/140/3 194/143/4
f 194/143/4 195/179/4 48/178/5
f 194/143/4 193/142/3 195/179/4
f 193/142/3 47/174/3 195/179/4
f 193/142/3 190/139/2 47/174/3
f 193/142/3 167/141/2 190/139/2
f 167/141/2 37/137/1 190/139/2
f 190/139/2 192/175/2 47/174/3
f 190/139/2 191/138/1 192/175/2
f 191/138/1 46/171/1 192/175/2
f 189/136/17 187/133/16 45/168/17
f 189/136/17 163/135/16 187/133/16
f 163/135/16 35/130/15 187/133/16
f 187/133/16 188/169/16 45/168/17
f 187/133/16 186/132/15 188/169/16
f 186/132/15 44/164/15 188/169/16
f 186/132/15 184/129/14 44/164/15
f 186/132/15 160/131/14 184/129/14
f 160/131/14 34/126/13 184/129/14
f 184/129/14 185/165/14 44/164/15
f 184/129/14 183/128/13 185/165/14
f 183/128/13 43/160/13 185/165/14
f 183/128/13 181/125/12 43/160/13
f 183/128/13 157/127/12 181/125/12
f 157/127/12 33/122/11 181/125/12
f 181/125/12 182/161/12 43/160/13
f 181/125/12 180/124/11 182/161/12
f 180/124/11 42/156/11 182/161/12
f 180/124/11 178/121/10 42/156/11
f 180/124/11 154/123/10 178/121/10
f 154/123/10 32/118/9 178/121/10
f 178/121/10 179/157/10 42/156/11
f 178/121/10 177/120/9 179/157/10
f 177/120/9 41/152/9 179/157/10
f 177/120/9 175/117/8 41/152/9
f 177/120/9 151/119/8 175/117/8
f 151/119/8 31/114/7 175/117/8
f 175/117/8 176/153/8 41/152/9
f 175/117/8 174/116/7 176/153/8
f 174/116/7 40/148/7 176/153/8
f 174/116/7 172/113/6 40/148/7
f 174/116/7 148/115/6 172/113/6
f 148/115/6 30/110/5 172/113/6
f 172/113/6 173/149/6 40/148/7
f 172/113/6 171/112/5 173/149/6
f 171/112/5 39/144/5 173/149/6
f 171/112/5 169/109/4 39/144/5
f 171/112/5 145/111/4 169/109/4
f 145/111/4 29/106/3 169/109/4
f 169/109/4 170/145/4 39/144/5
f 169/109/4 168/108/3 170/145/4
f 168/108/3 38/140/3 170/145/4
f 168/108/3 165/105/2 38/140/3
f 168/108/3 142/107/2 165/105/2
f 142/107/2 28/103/1 165/105/2
f 165/105/2 167/141/2 38/140/3
f 165/105/2 166/104/1 167/141/2
f 166/104/1 37/137/1 167/141/2
f 164/102/17 162/99/16 36/134/17
f 164/102/17 138/101/16 162/99/16
f 138/101/16 26/96/15 162/99/16
f 162/99/16 163/135/16 36/134/17
f 162/99/16 161/98/15 163/135/16
f 161/98/15 35/130/15 163/135/16
f 161/98/15 159/95/14 35/130/15
f 161/98/15 135/97/14 159/95/14
f 135/97/14 25/92/13 159/95/14
f 159/95/14 160/131/14 35/130/15
f 159/95/14 158/94/13 160/131/14
f 158/94/13 34/126/13 160/131/14
f 158/94/13 156/91/12 34/126/13
f 158/94/13 132/93/12 156/91/12
f 132/93/12 24/88/11 156/91/12
f 156/91/12 157/127/12 34/126/13
f 156/91/12 155/90/11 157/127/12
f 155/90/11 33/122/11 157/127/12
f 155/90/11 153/87/10 33/122/11
f 155/90/11 129/89/10 153/87/10
f 129/89/10 23/84/9 153/87/10
f 153/87/10 154/123/10 33/122/11
f 153/87/10 152/86/9 154/123/10
f 152/86/9 32/118/9 154/123/10
f 152/86/9 150/83/8 32/118/9
f 152/86/9 126/85/8 150/83/8
f 126/85/8 22/80/7 150/83/8
f 150/83/8 151/119/8 32/118/9
f 150/83/8 149/82/7 151/119/8
f 149/82/7 31/114/7 151/119/8
f 149/82/7 147/79/6 31/114/7
f 149/82/7 123/81/6 147/79/6
f 123/81/6 21/76/5 147/79/6
f 147/79/6 148/115/6 31/114/7
f 147/79/6 146/78/5 148/115/6
f 146/78/5 30/110/5 148/115/6
f 146/78/5 144/75/4 30/110/5
f 146/78/5 120/77/4 144/75/4
f 120/77/4 20/72/3 144/75/4
f 144/75/4 145/111/4 30/110/5
f 144/75/4 143/74/3 145/111/4
f 143/74/3 29/106/3 145/111/4
f 143/74/3 140/71/2 29/106/3
f 143/74/3 117/73/2 140/71/2
f 117/73/2 19/69/1 140/71/2
f 140/71/2 142/107/2 29/106/3
f 140/71/2 141/70/1 142/107/2
f 141/70/1 28/103/1 142/107/2
f 139/68/17 137/65/16 27/100/17
f 139/68/17 112/67/16 137/65/16
f 112/67/16 17/62/15 137/65/16
f 137/65/16 138/101/16 27/100/17
f 137/65/16 136/64/15 138/101/16
f 136/64/15 26/96/15 138/101/16
f 136/64/15 134/61/14 26/96/15
f 136/64/15 108/63/14 134/61/14
f 108/63/14 16/58/13 134/61/14
f 134/61/14 135/97/14 26/96/15
f 134/61/14 133/60/13 135/97/14
f 133/60/13 25/92/13 135/97/14
f 133/60/13 131/57/12 25/92/13
f 133/60/13 104/59/12 131/57/12
f 104/59/12 15/54/11 131/57/12
f 131/57/12 132/93/12 25/92/13
f 131/57/12 130/56/11 132/93/12
f 130/56/11 24/88/11 132/93/12
f 130/56/11 128/53/10 24/88/11
f 130/56/11 100/55/10 128/53/10
f 100/55/10 14/50/9 128/53/10
f 128/53/10 129/89/10 24/88/11
f 128/53/10 127/52/9 129/89/10
f 127/52/9 23/84/9 129/89/10
f 127/52/9 125/49/8 23/84/9
f 127/52/9 96/51/8 125/49/8
f 96/51/8 13/46/7 125/49/8
f 125/49/8 126/85/8 23/84/9
f 125/49/8 124/48/7 126/85/8
f 124/48/7 22/80/7 126/85/8
f 124/48/7 122/45/6 22/80/7
f 124/48/7 92/47/6 122/45/6
f 92/47/6 12/42/5 122/45/6
f 122/45/6 123/81/6 22/80/7
f 122/45/6 121/44/5 123/81/6
f 121/44/5 21/76/5 123/81/6
f 121/44/5 119/41/4 21/76/5
f 121/44/5 88/43/4 119/41/4
f 88/43/4 11/38/3 119/41/4
f 119/41/4 120/77/4 21/76/5
f 119/41/4 118/40/3 120/77/4
f 118/40/3 20/72/3 120/77/4
f 118/40/3 115/37/2 20/72/3
f 118/40/3 84/39/2 115/37/2
f 84/39/2 10/35/1 115/37/2
f 115/37/2 117/73/2 20/72/3
f 115/37/2 116/36/1 117/73/2
f 116/36/1 19/69/1 117/73/2
f 113/34/17 111/31/16 18/66/17
f 113/34/17 114/33/16 111/31/16
f 114/33/16 8/28/15 111/31/16
f 111/31/16 112/67/16 18/66/17
f 111/31/16 109/30/15 112/67/16
f 109/30/15 17/62/15 112/67/16
f 109/30/15 107/27/14 17/62/15
f 109/30/15 110/29/14 107/27/14
f 110/29/14 7/24/13 107/27/14
f 107/27/14 108/63/14 17/62/15
f 107/27/14 105/26/13 108/63/14
f 105/26/13 16/58/13 108/63/14
f 105/26/13 103/23/12 16/58/13
f 105/26/13 106/25/12 103/23/12
f 106/25/12 6/20/11 103/23/12
f 103/23/12 104/59/12 16/58/13
f 103/23/12 101/22/11 104/59/12
f 101/22/11 15/54/11 104/59/12
f 101/22/11 99/19/10 15/54/11
f 101/22/11 102/21/10 99/19/10
f 102/21/10 5/16/9 99/19/10
f 99/19/10 100/55/10 15/54/11
f 99/19/10 97/18/9 100/55/10
f 97/18/9 14/50/9 100/55/10
f 97/18/9 95/15/8 14/50/9
f 97/18/9 98/17/8 95/15/8
f 98/17/8 4/12/7 95/15/8
f 95/15/8 96/51/8 14/50/9
f 95/15/8 93/14/7 96/51/8
f 93/14/7 13/46/7 96/51/8
f 93/14/7 91/11/6 13/46/7
f 93/14/7 94/13/6 91/11/6
f 94/13/6 3/8/5 91/11/6
f 91/11/6 92/47/6 13/46/7
f 91/11/6 89/10/5 92/47/6
f 89/10/5 12/42/5 92/47/6
f 89/10/5 87/7/4 12/42/5
f 89/10/5 90/9/4 87/7/4
f 90/9/4 2/4/3 87/7/4
f 87/7/4 88/43/4 12/42/5
f 87/7/4 85/6/3 88/43/4
f 85/6/3 11/38/3 88/43/4
f 85/6/3 82/3/2 11/38/3
f 85/6/3 86/5/2 82/3/2
f 86/5/2 1/1/1 82/3/2
f 82/3/2 84/39/2 11/38/3
f 82/3/2 83/2/1 84/39/2
f 83/2/1 10/35/1 84/39/2
