v 0.011431660802711401 0.26843858157251299 -0.99758908075158903
v -0.074221791213025898 0.176691483177322 -0.99795051429541204
v -0.119630295774319 0.059533825465904001 -0.99718418702421596
v -0.11282438544316301 -0.064379096369649197 -0.99658698425787695
v -0.0075771509165220904 -0.12967882164790201 -0.99599301996193901
v 0.10520325534925 -0.076198983352276595 -0.99592371810287705
v 0.121115703767712 0.0469573881391607 -0.996305016177644
v 0.083334742694887096 0.167738835785949 -0.99649491997869899
v 0.011431660802711401 0.26843858157251299 -0.99758908075158903
v 0.00591931158016665 0.26920374442977202 -0.74765166289167295
v -0.0789186832681643 0.179304023949864 -0.74785060508774504
v -0.12011199873796601 0.060480482629877097 -0.74732870802254803
v -0.113389421829783 -0.063378616402596399 -0.74665914013340995
v -0.0078052933125401999 -0.12966528986704701 -0.74633774367224903
v 0.10524576693830399 -0.076140255723029196 -0.74631742081628705
v 0.120926634124291 0.047442166470027497 -0.74661249334678303
v 0.078353907199268102 0.16656435802396499 -0.74688703318167704
v 0.00591931158016665 0.26920374442977202 -0.74765166289167295
v 0.0055264844246144798 0.26933530394319499 -0.497590900062715
v -0.079498247205336103 0.179645315870886 -0.497697070103926
v -0.11944647308284 0.060453977257685303 -0.49733791439816899
v -0.11333366739452699 -0.063478262696034196 -0.49689431454306399
v -0.0079039311419648994 -0.12965931463841299 -0.49659527627772498
v 0.105013082075341 -0.076460856606747493 -0.496520360721528
v 0.12078552555253499 0.047800280511708398 -0.49694374836698502
v 0.077420519113122005 0.16657256090005701 -0.49726597451148402
v 0.0055264844246144798 0.26933530394319499 -0.497590900062715
v 0.0059076798901615104 0.26953681811017299 -0.24761314731509801
v -0.079504815273371901 0.17950467742831899 -0.24765016209692001
v -0.120439642979056 0.060699250770876102 -0.247387913013419
v -0.11328211121743 -0.063570223203335205 -0.247040464777387
v -0.0081132033005793108 -0.12964638804148601 -0.24670673931242301
v 0.105217706584986 -0.076179027435350405 -0.24686648857808399
v 0.12096669112375 0.047339937035986698 -0.24722252754785201
v 0.076877313692199606 0.16617144090081801 -0.24750084605561601
v 0.0059076798901615104 0.26953681811017299 -0.24761314731509801
v 0.0045220043059198099 0.26927900392106202 0.0021450199270121799
v -0.080353901204030298 0.17971303769987601 0.0021934637871556099
v -0.12067258458282799 0.060572070096762 0.0024774575700435798
v -0.113356895837741 -0.063369990915392305 0.0029100545380979699
v -0.0077487919420212497 -0.12963249238126701 0.0030631915480299901
v 0.10530317171675101 -0.076002217456392504 0.0029857943840263801
v 0.12080504161177601 0.047676609564972598 0.00266323516916742
v 0.07638608192021 0.16617906044493 0.0024327330466522102
v 0.0045220043059198099 0.26927900392106202 0.0021450199270121799
v 0.0046142555571487501 0.26939128463637502 0.25209468985658801
v -0.080064680381914596 0.179425367684246 0.25198666652329599
v -0.119798244995882 0.060165816339844198 0.25231324209603001
v -0.11317558108438899 -0.063759688253714294 0.25273499776964198
v -0.0076056323490774104 -0.12967715433556801 0.253022839497759
v 0.105166374717376 -0.076249876254355101 0.25308241192317299
v 0.120702514087326 0.048009510443232303 0.25265764939541002
v 0.076628859533892493 0.16650309776253 0.25234916303472499
v 0.0046142555571487501 0.26939128463637502 0.25209468985658801
v 0.0045378756985569903 0.26956857358499198 0.50193660003182194
v -0.080644563570229699 0.17958475594452999 0.50173369864173101
v -0.120691162006755 0.060497281651743999 0.50211703846762801
v -0.11317017581299101 -0.063769281840528602 0.50262065504626796
v -0.0078988737206437693 -0.12965962283589 0.50307879387246102
v 0.105344770281939 -0.076003219499213001 0.50299866430797302
v 0.120880728247656 0.047559011115837102 0.50265169384327602
v 0.075039164610465295 0.16574470087748899 0.50232153967101401
v 0.0045378756985569903 0.26956857358499198 0.50193660003182194
v 0.00173624788926585 0.269521604338404 0.75158487363328697
v -0.083131427426687096 0.18071065526261301 0.75124585497600604
v -0.12117841190607 0.060888019580407703 0.75189786689191995
v -0.11350494226974001 -0.063171497372968996 0.75262885884150399
v -0.0078935699349768299 -0.12965994583402199 0.75300067671312998
v 0.10536106679384701 -0.075980626504803597 0.75305705031931502
v 0.120710201672065 0.047990178289827497 0.75275524898026303
v 0.072579546819456706 0.16530474465426001 0.75240127407969604
v 0.00173624788926585 0.269521604338404 0.75158487363328697
v -0.0027013601450607098 0.27039899320844502 1.0014929778642601
v -0.085643617208836703 0.182657383743796 1.00087889670078
v -0.118117941627922 0.061155971008060299 1.0017373796490101
v -0.113695409821455 -0.062828049353225293 1.0022904030458999
v -0.0082465916812495196 -0.12963797177386999 1.0029841732176701
v 0.10513999370673401 -0.076286248586150796 1.0031251270022401
v 0.120372875000549 0.048830123531507501 1.0026658329453899
v 0.067528211539706201 0.16429241848927301 1.0021310863777499
v -0.0027013601450607098 0.27039899320844502 1.0014929778642601
v -0.041991029350140999 0.23040272629816 -0.87310811956558299
v 0.0077682929156967897 0.26861587752997401 -0.87248499508041
v -0.044578602002559302 0.23178247196304599 -0.74792040949720395
v -0.077257930707905195 0.178410416140447 -0.87300866710908398
v -0.036901961063329602 0.22737594093719199 -0.99799720639259004
v -0.101805339384784 0.120494021018929 -0.87266776710231397
v -0.102852097688909 0.121119067092719 -0.74762592879438305
v -0.119173051182568 0.059883356207864002 -0.87230237910233599
v -0.100962085953912 0.119692753001886 -0.99759846818714004
v -0.129874214956816 -0.0025881053592683501 -0.87195229180825196
v -0.12988689075652601 -0.0018454293815799599 -0.74702360431852699
v -0.113091560808282 -0.063908597809267303 -0.87162590134797402
v -0.12986822012532401 -0.00287322144645661 -0.99684666707407099
v -0.069001206866937198 -0.110058363838947 -0.87126752647625905
v -0.069062744305378398 -0.110019758902708 -0.74648658144755298
v -0.0075753726192356796 -0.12967892554181601 -0.87117834763234803
v -0.068524962970892903 -0.110355513907724 -0.99617283503756904
v 0.055632704481379101 -0.11738403721157099 -0.87111397594880902
v 0.055319623650807101 -0.11753190732364199 -0.746186301588603
v 0.105059936504135 -0.076396464196630404 -0.87102689474269501
v 0.055737452527188501 -0.117334335919966 -0.99607070268365105
v 0.12887502508318199 -0.016286126298456199 -0.87126349237435496
v 0.128911847716074 -0.015992045473536401 -0.746463579417603
v 0.12086851340985399 0.047590045871924599 -0.871421480105257
v 0.12883304491036199 -0.016614949266390601 -0.99601160969406299
v 0.10350040656718899 0.108426665790435 -0.87157535210980597
v 0.101756100851323 0.107884533016047 -0.74673962613293099
v 0.081377279943917094 0.16754802891856399 -0.87166381843205798
v 0.103517637491939 0.107839988833889 -0.99642611234023404
v 0.050834413368233099 0.22256012638141501 -0.87183793226533002
v 0.047295164906556997 0.221398435228781 -0.74714950556536597
v 0.0077682929156967897 0.26861587752997401 -0.87248499508041
v 0.055918101163594497 0.22435510462161801 -0.99657051530137597
v -0.043781974944512698 0.231436916739757 -0.62274725272437603
v 0.0065023287696587698 0.26935598491521301 -0.62258173947529605
v -0.044924139391683902 0.23205683622242701 -0.49777080450634698
v -0.079062272558298993 0.17949489882019101 -0.62271194902690996
v -0.10303278806534701 0.121347882856272 -0.62254679578591399
v -0.10288593778536401 0.121276484399523 -0.49753251270599502
v -0.119862031831087 0.060666035961395998 -0.62229746606315195
v -0.12988770305462999 -0.00178734305389672 -0.62203732894506703
v -0.12988364952954401 -0.0020609669785321399 -0.49711020358821001
v -0.113291821437881 -0.063552916497099404 -0.62183786249569395
v -0.069172138041072598 -0.109951013268759 -0.62163340632510899
v -0.0693615100570079 -0.10983164809203 -0.49663137279355402
v -0.0081335559790314 -0.12964511277767499 -0.62140186791927898
v 0.055477698525066101 -0.11745737510417099 -0.62144089810634096
v 0.055445732318060499 -0.11747246812642501 -0.49656356232079601
v 0.105193129845846 -0.076212961058043704 -0.62149127633302104
v 0.12885418346479799 -0.016450209835144398 -0.62153162542120499
v 0.128883570897914 -0.016218358505173901 -0.49677180593272002
v 0.120995059210974 0.0472673845958596 -0.62181787730500204
v 0.10070834012786201 0.107413503091777 -0.62196436896840002
v 0.101278201653783 0.108057421186269 -0.49713559378573402
v 0.077739450129004795 0.16641315458220499 -0.62211759017314106
v 0.0480912137798995 0.22206322564418901 -0.62229333893759498
v 0.046608221399090898 0.22150533931325 -0.49735303074317899
v 0.0065023287696587698 0.26935598491521301 -0.62258173947529605
v -0.045951249537042799 0.23251339183605199 -0.37269942802980999
v 0.0047049206285154797 0.26966108302046599 -0.37267193281709798
v -0.044230842936565297 0.23145666930397599 -0.24767043680942499
v -0.0799495833382418 0.17979341162524801 -0.37264737609654303
v -0.103472066584872 0.121432780489185 -0.372540257192914
v -0.103577719486443 0.12140027867681701 -0.24754964526231801
v -0.120420996281975 0.060711207068173602 -0.37236735536144999
v -0.129889475254412 -0.0016535471367801001 -0.37216638861262002
v -0.12988743605684899 -0.0018066417956651001 -0.24718119705692401
v -0.113477689217047 -0.063220440127851399 -0.371887867205135
v -0.069201114982506806 -0.10993277802902 -0.37179379369980697
v -0.069155452909136994 -0.10996150841513699 -0.24689026435085701
v -0.0079461546029436798 -0.129656733828313 -0.37170504295482998
v 0.055233550205033198 -0.117572381670816 -0.37159295595274
v 0.055504277490130101 -0.1174448175966 -0.246784889206525
v 0.105230359250419 -0.076161548645151705 -0.37175975359896601
v 0.12891732931177699 -0.015947796183766301 -0.37193245315074802
v 0.128861634825364 -0.0163917378619413 -0.246921479515197
v 0.120879298132469 0.047562645878899197 -0.37209560859174901
v 0.100439193160919 0.107644875248415 -0.37224467814088702
v 0.10031911385159099 0.10736901684262 -0.24737266959048501
v 0.076025353732640397 0.16596185093187199 -0.372373870937316
v 0.045014262469805201 0.220858949509431 -0.37248672990766402
v 0.046572683672453 0.221444029431315 -0.24755974501023401
v 0.0047049206285154797 0.26966108302046599 -0.37267193281709798
v -0.045136377879606698 0.23185392332507701 -0.12284020575148499
v 0.0052311586487372302 0.26922611548997999 -0.122669002057846
v -0.0465096938704481 0.232532508328466 0.00210013174884062
v -0.079853723028798299 0.17954240860801601 -0.12275711468971399
v -0.10338474537107099 0.12123067784184099 -0.122614349897689
v -0.10381385216974599 0.12132574689165 0.00231427497449043
v -0.119878683799877 0.060390112058134902 -0.122455373194977
v -0.12988164341566999 -0.0021837361664574098 -0.122267633478389
v -0.129859926479826 -0.0018334676748341899 0.0026547864207085701
v -0.11327194843037799 -0.063588329894610898 -0.122086978271018
v -0.069253736256933998 -0.109899636097919 -0.121859150372438
v -0.069020739093726094 -0.110005625119625 0.00298496515830559
v -0.0077750399174386199 -0.129667107449354 -0.121854108163689
v 0.055560609721620802 -0.117418178521734 -0.121849925721995
v 0.055387735393991902 -0.117457322239198 0.0031600981507626299
v 0.105084732498051 -0.076362353262671906 -0.121826734332513
v 0.12889831946580699 -0.016100721688507399 -0.122090132471839
v 0.12890545973074799 -0.0157940687720265 0.0028177727426007102
v 0.12074147887336401 0.047911431615775102 -0.122263478000769
v 0.101483267245007 0.10824499332228101 -0.122452431462098
v 0.10065272458848799 0.10782782389566301 0.0025398550048617301
v 0.077705573559117697 0.16679348627589599 -0.12255943446338
v 0.046666792568681399 0.22161952081135899 -0.12259547704379201
v 0.0452300541735461 0.22096908201137899 0.0023225171281670599
v 0.0052311586487372302 0.26922611548997999 -0.122669002057846
v -0.044907176396143597 0.23159531021917701 0.12709240883515999
v 0.00541837273290944 0.26943310799547399 0.12713610637884001
v -0.045723988097893402 0.23198785970684799 0.25191033217834502
v -0.079805087574647895 0.17937784979558299 0.127125441449911
v -0.103689262336482 0.121217429812272 0.12724899971780401
v -0.10336003936513601 0.121019647563508 0.25214012690565502
v -0.120518935010236 0.0604924858250354 0.12741584895657901
v -0.129884225645295 -0.0020243340935065402 0.127626523725828
v -0.129877926164816 -0.0023946388301105898 0.252526772836771
v -0.113175977129971 -0.063758985254443401 0.127772480932905
v -0.068976037804584903 -0.11007413960045501 0.12792743509650001
v -0.069097315644134294 -0.10999804984987201 0.25299301011935199
v -0.0079132087694305901 -0.12965874874828701 0.128115273384067
v 0.055672573742764499 -0.117365133378088 0.12804377511842499
v 0.055697717804539401 -0.11735320290203401 0.25304477122468999
v 0.105316663200028 -0.076042162333877797 0.12796958153110599
v 0.12887980323811499 -0.0162482712097234 0.127918305652377
v 0.12891329291183901 -0.015980391441591999 0.25283082561954801
v 0.120923598407278 0.047449903564026799 0.12762687852669299
v 0.10007405560312101 0.107397122396083 0.127489740913553
v 0.100851400822543 0.108142363801698 0.252467171873068
v 0.076439599618597601 0.166109463100615 0.127374148935021
v 0.046043880545938498 0.221326184579962 0.12729122798837
v 0.045489849759116401 0.221282284730968 0.25227159716634201
v 0.00541837273290944 0.26943310799547399 0.12713610637884001
v -0.047143263108438298 0.23267815655020299 0.37682674108847303
v 0.0037221130757441202 0.26953700797129598 0.376937848942408
v -0.045874836698298699 0.231871181971915 0.50173949058391598
v -0.080694538877618793 0.17965478400972701 0.37687961803902098
v -0.10399655222580401 0.121198453678344 0.37700470619616
v -0.104208399302059 0.12127372412410301 0.50187521428512905
v -0.12080874650187801 0.060428314932232101 0.37720179020439698
v -0.129884784829737 -0.0019881322222132501 0.37744256043010999
v -0.12988379301491401 -0.0020519044956027899 0.50239942910926805
v -0.113319905778379 -0.063502826349535704 0.37775498752334902
v -0.068940492324198605 -0.110096405563929 0.37788373285381499
v -0.068970362282879005 -0.11007769586327799 0.50283888398013799
v -0.0076495724990583401 -0.12967456975283001 0.37799950421871598
v 0.055486148676136098 -0.11745338354040601 0.37812951290917501
v 0.055698112850284698 -0.117353015406154 0.50304671003034196
v 0.105379037615523 -0.075955700452475905 0.37797581470999803
v 0.12894529323093301 -0.0157200939433845 0.37781042674778098
v 0.128888645975649 -0.016177976961404099 0.50295769744151497
v 0.12079747266032 0.047770080582716201 0.37764929583740597
v 0.099849774804538105 0.10766600973934901 0.37749655354235101
v 0.099309160029185606 0.107276642878185 0.50248646031013
v 0.074908371562231402 0.16574555995262499 0.37735322302323299
v 0.0436684069310714 0.220514818116853 0.37719389692688898
v 0.044548017912875701 0.22092090402089601 0.50216976750450004
v 0.0037221130757441202 0.26953700797129598 0.376937848942408
v -0.047383229988091698 0.23255845065903399 0.62641068118699605
v 0.00335947252835827 0.26941069862744799 0.62683166664258905
v -0.050077085781384999 0.234008857720962 0.751130410005305
v -0.081554666866168204 0.179911055373489 0.62647264277489101
v -0.10434012813660801 0.121318239840701 0.62670435800524604
v -0.105419520130188 0.12190398692488701 0.751544871720639
v -0.120417768867393 0.060374855984722101 0.62697591009346099
v -0.129880785613818 -0.0022341728530549999 0.62730759849642104
v -0.12989046738306401 -0.0015736845329664499 0.75224177048125995
v -0.11325503474746899 -0.063618449402272501 0.62759781339924203
v -0.069216463027355402 -0.109923115157744 0.62792239875145905
v -0.069207528735766993 -0.10992874040162599 0.75282136571740899
v -0.00770740572567868 -0.12967114519807299 0.62801022259808004
v 0.055649341133912997 -0.11737615103316899 0.62807910059889105
v 0.055342798808163597 -0.117520996507344 0.75317844834988801
v 0.105167493619855 -0.076248333002877797 0.62815001134631498
v 0.12892408915471601 -0.0158930562078794 0.62791103396338999
v 0.12895711205809601 -0.015622843839573399 0.75291671012263395
v 0.120638993198041 0.048168904078907303 0.62773158032313303
v 0.099972778706525198 0.108074012557036 0.62751872182903101
v 0.098568162552319594 0.107572199505778 0.75259002228510397
v 0.075054851869303094 0.166182548457419 0.62734799010806797
v 0.043786126276422199 0.22090658329790699 0.62716327189133902
v 0.041090708292314697 0.22000075030987601 0.75210628859302897
v 0.00335947252835827 0.26941069862744799 0.62683166664258905
v -0.050979821893404297 0.234578640743174 0.87586671957080398
v 0.00112754892218652 0.26979020278829002 0.87645976728497199
v -0.0561615051767256 0.238030986848805 1.00042222714419
v -0.084417788782934503 0.181472515395599 0.876033366827904
v -0.10601370539940901 0.122477388763006 0.876442000574017
v -0.104523718314081 0.12271054817521999 1.0013528413086299
v -0.120895694988087 0.0612903754945801 0.87685609503391904
v -0.12989333269470099 -0.00131610085624593 0.87720462273330402
v -0.12989435516499101 -0.0012109897898454299 1.0020916870800101
v -0.113475856506889 -0.063223729643448606 0.87746312522223802
v -0.069409280432364204 -0.109801465335675 0.877756950313063
v -0.069879240475518703 -0.109502975989535 1.0027638652937001
v -0.0083145631443866993 -0.12963363004914299 0.87806957547318398
v 0.055493258736531201 -0.117450024413792 0.87805661979043004
v 0.055395419890118203 -0.117496201875624 1.0029052434378101
v 0.10531540109844401 -0.076043910285268093 0.87806728130220701
v 0.128901917422026 -0.016071891143397299 0.87807591897238202
v 0.12896374964582299 -0.0155679567474152 1.0030532236879901
v 0.12074460473854801 0.047903553381058103 0.87771680876615599
v 0.096698265906475803 0.106907885269165 0.87752989292950601
v 0.095825074527496001 0.10746793304605599 1.00232481083952
v 0.070547416147157996 0.164752769350584 0.87736679736176004
v 0.039556040960915299 0.21983266652372899 0.87714924052062604
v 0.0349889715417517 0.21868393108523501 1.0018767567579401
v 0.00112754892218652 0.26979020278829002 0.87645976728497199
f 1 83 82
f 2 86 85
f 2 85 87
f 3 90 89
f 3 89 91
f 4 94 93
f 4 93 95
f 5 98 97
f 5 97 99
f 6 102 101
f 6 101 103
f 7 106 105
f 7 105 107
f 8 110 109
f 8 109 111
f 9 114 113
f 10 116 115
f 11 84 118
f 11 118 119
f 12 88 121
f 12 121 122
f 13 92 124
f 13 124 125
f 14 96 127
f 14 127 128
f 15 100 130
f 15 130 131
f 16 104 133
f 16 133 134
f 17 108 136
f 17 136 137
f 18 112 139
f 19 141 140
f 20 117 143
f 20 143 144
f 21 120 146
f 21 146 147
f 22 123 149
f 22 149 150
f 23 126 152
f 23 152 153
f 24 129 155
f 24 155 156
f 25 132 158
f 25 158 159
f 26 135 161
f 26 161 162
f 27 138 164
f 28 166 165
f 29 142 168
f 29 168 169
f 30 145 171
f 30 171 172
f 31 148 174
f 31 174 175
f 32 151 177
f 32 177 178
f 33 154 180
f 33 180 181
f 34 157 183
f 34 183 184
f 35 160 186
f 35 186 187
f 36 163 189
f 37 191 190
f 38 167 193
f 38 193 194
f 39 170 196
f 39 196 197
f 40 173 199
f 40 199 200
f 41 176 202
f 41 202 203
f 42 179 205
f 42 205 206
f 43 182 208
f 43 208 209
f 44 185 211
f 44 211 212
f 45 188 214
f 46 216 215
f 47 192 218
f 47 218 219
f 48 195 221
f 48 221 222
f 49 198 224
f 49 224 225
f 50 201 227
f 50 227 228
f 51 204 230
f 51 230 231
f 52 207 233
f 52 233 234
f 53 210 236
f 53 236 237
f 54 213 239
f 55 241 240
f 56 217 243
f 56 243 244
f 57 220 246
f 57 246 247
f 58 223 249
f 58 249 250
f 59 226 252
f 59 252 253
f 60 229 255
f 60 255 256
f 61 232 258
f 61 258 259
f 62 235 261
f 62 261 262
f 63 238 264
f 64 266 265
f 65 242 268
f 65 268 269
f 66 245 271
f 66 271 272
f 67 248 274
f 67 274 275
f 68 251 277
f 68 277 278
f 69 254 280
f 69 280 281
f 70 257 283
f 70 283 284
f 71 260 286
f 71 286 287
f 72 263 289
f 289 287 81
f 289 263 287
f 263 71 287
f 287 288 81
f 287 286 288
f 286 80 288
f 286 284 80
f 286 260 284
f 260 70 284
f 284 285 80
f 284 283 285
f 283 79 285
f 283 281 79
f 283 257 281
f 257 69 281
f 281 282 79
f 281 280 282
f 280 78 282
f 280 278 78
f 280 254 278
f 254 68 278
f 278 279 78
f 278 277 279
f 277 77 279
f 277 275 77
f 277 251 275
f 251 67 275
f 275 276 77
f 275 274 276
f 274 76 276
f 274 272 76
f 274 248 272
f 248 66 272
f 272 273 76
f 272 271 273
f 271 75 273
f 271 269 75
f 271 245 269
f 245 65 269
f 269 270 75
f 269 268 270
f 268 74 270
f 268 265 74
f 268 242 265
f 242 64 265
f 265 267 74
f 265 266 267
f 266 73 267
f 264 262 72
f 264 238 262
f 238 62 262
f 262 263 72
f 262 261 263
f 261 71 263
f 261 259 71
f 261 235 259
f 235 61 259
f 259 260 71
f 259 258 260
f 258 70 260
f 258 256 70
f 258 232 256
f 232 60 256
f 256 257 70
f 256 255 257
f 255 69 257
f 255 253 69
f 255 229 253
f 229 59 253
f 253 254 69
f 253 252 254
f 252 68 254
f 252 250 68
f 252 226 250
f 226 58 250
f 250 251 68
f 250 249 251
f 249 67 251
f 249 247 67
f 249 223 247
f 223 57 247
f 247 248 67
f 247 246 248
f 246 66 248
f 246 244 66
f 246 220 244
f 220 56 244
f 244 245 66
f 244 243 245
f 243 65 245
f 243 240 65
f 243 217 240
f 217 55 240
f 240 242 65
f 240 241 242
f 241 64 242
f 239 237 63
f 239 213 237
f 213 53 237
f 237 238 63
f 237 236 238
f 236 62 238
f 236 234 62
f 236 210 234
f 210 52 234
f 234 235 62
f 234 233 235
f 233 61 235
f 233 231 61
f 233 207 231
f 207 51 231
f 231 232 61
f 231 230 232
f 230 60 232
f 230 228 60
f 230 204 228
f 204 50 228
f 228 229 60
f 228 227 229
f 227 59 229
f 227 225 59
f 227 201 225
f 201 49 225
f 225 226 59
f 225 224 226
f 224 58 226
f 224 222 58
f 224 198 222
f 198 48 222
f 222 223 58
f 222 221 223
f 221 57 223
f 221 219 57
f 221 195 219
f 195 47 219
f 219 220 57
f 219 218 220
f 218 56 220
f 218 215 56
f 218 192 215
f 192 46 215
f 215 217 56
f 215 216 217
f 216 55 217
f 214 212 54
f 214 188 212
f 188 44 212
f 212 213 54
f 212 211 213
f 211 53 213
f 211 209 53
f 211 185 209
f 185 43 209
f 209 210 53
f 209 208 210
f 208 52 210
f 208 206 52
f 208 182 206
f 182 42 206
f 206 207 52
f 206 205 207
f 205 51 207
f 205 203 51
f 205 179 203
f 179 41 203
f 203 204 51
f 203 202 204
f 202 50 204
f 202 200 50
f 202 176 200
f 176 40 200
f 200 201 50
f 200 199 201
f 199 49 201
f 199 197 49
f 199 173 197
f 173 39 197
f 197 198 49
f 197 196 198
f 196 48 198
f 196 194 48
f 196 170 194
f 170 38 194
f 194 195 48
f 194 193 195
f 193 47 195
f 193 190 47
f 193 167 190
f 167 37 190
f 190 192 47
f 190 191 192
f 191 46 192
f 189 187 45
f 189 163 187
f 163 35 187
f 187 188 45
f 187 186 188
f 186 44 188
f 186 184 44
f 186 160 184
f 160 34 184
f 184 185 44
f 184 183 185
f 183 43 185
f 183 181 43
f 183 157 181
f 157 33 181
f 181 182 43
f 181 180 182
f 180 42 182
f 180 178 42
f 180 154 178
f 154 32 178
f 178 179 42
f 178 177 179
f 177 41 179
f 177 175 41
f 177 151 175
f 151 31 175
f 175 176 41
f 175 174 176
f 174 40 176
f 174 172 40
f 174 148 172
f 148 30 172
f 172 173 40
f 172 171 173
f 171 39 173
f 171 169 39
f 171 145 169
f 145 29 169
f 169 170 39
f 169 168 170
f 168 38 170
f 168 165 38
f 168 142 165
f 142 28 165
f 165 167 38
f 165 166 167
f 166 37 167
f 164 162 36
f 164 138 162
f 138 26 162
f 162 163 36
f 162 161 163
f 161 35 163
f 161 159 35
f 161 135 159
f 135 25 159
f 159 160 35
f 159 158 160
f 158 34 160
f 158 156 34
f 158 132 156
f 132 24 156
f 156 157 34
f 156 155 157
f 155 33 157
f 155 153 33
f 155 129 153
f 129 23 153
f 153 154 33
f 153 152 154
f 152 32 154
f 152 150 32
f 152 126 150
f 126 22 150
f 150 151 32
f 150 149 151
f 149 31 151
f 149 147 31
f 149 123 147
f 123 21 147
f 147 148 31
f 147 146 148
f 146 30 148
f 146 144 30
f 146 120 144
f 120 20 144
f 144 145 30
f 144 143 145
f 143 29 145
f 143 140 29
f 143 117 140
f 117 19 140
f 140 142 29
f 140 141 142
f 141 28 142
f 139 137 27
f 139 112 137
f 112 17 137
f 137 138 27
f 137 136 138
f 136 26 138
f 136 134 26
f 136 108 134
f 108 16 134
f 134 135 26
f 134 133 135
f 133 25 135
f 133 131 25
f 133 104 131
f 104 15 131
f 131 132 25
f 131 130 132
f 130 24 132
f 130 128 24
f 130 100 128
f 100 14 128
f 128 129 24
f 128 127 129
f 127 23 129
f 127 125 23
f 127 96 125
f 96 13 125
f 125 126 23
f 125 124 126
f 124 22 126
f 124 122 22
f 124 92 122
f 92 12 122
f 122 123 22
f 122 121 123
f 121 21 123
f 121 119 21
f 121 88 119
f 88 11 119
f 119 120 21
f 119 118 120
f 118 20 120
f 118 115 20
f 118 84 115
f 84 10 115
f 115 117 20
f 115 116 117
f 116 19 117
f 113 111 18
f 113 114 111
f 114 8 111
f 111 112 18
f 111 109 112
f 109 17 112
f 109 107 17
f 109 110 107
f 110 7 107
f 107 108 17
f 107 105 108
f 105 16 108
f 105 103 16
f 105 106 103
f 106 6 103
f 103 104 16
f 103 101 104
f 101 15 104
f 101 99 15
f 101 102 99
f 102 5 99
f 99 100 15
f 99 97 100
f 97 14 100
f 97 95 14
f 97 98 95
f 98 4 95
f 95 96 14
f 95 93 96
f 93 13 96
f 93 91 13
f 93 94 91
f 94 3 91
f 91 92 13
f 91 89 92
f 89 12 92
f 89 87 12
f 89 90 87
f 90 2 87
f 87 88 12
f 87 85 88
f 85 11 88
f 85 82 11
f 85 86 82
f 86 1 82
f 82 84 11
f 82 83 84
f 83 10 84
