# Blender 4.4.3
# www.blender.org
o square16x16_rest
v -0.500000 -0.160000 -1.000000
v -0.375000 -0.160000 -1.000000
v -0.250000 -0.160000 -1.000000
v -0.125000 -0.160000 -1.000000
v 0.000000 -0.160000 -1.000000
v 0.125000 -0.160000 -1.000000
v 0.250000 -0.160000 -1.000000
v 0.375000 -0.160000 -1.000000
v 0.500000 -0.160000 -1.000000
v -0.500000 -0.160000 -0.750000
v -0.375000 -0.160000 -0.750000
v -0.250000 -0.160000 -0.750000
v -0.125000 -0.160000 -0.750000
v 0.000000 -0.160000 -0.750000
v 0.125000 -0.160000 -0.750000
v 0.250000 -0.160000 -0.750000
v 0.375000 -0.160000 -0.750000
v 0.500000 -0.160000 -0.750000
v -0.500000 -0.160000 -0.500000
v -0.375000 -0.160000 -0.500000
v -0.250000 -0.160000 -0.500000
v -0.125000 -0.160000 -0.500000
v 0.000000 -0.160000 -0.500000
v 0.125000 -0.160000 -0.500000
v 0.250000 -0.160000 -0.500000
v 0.375000 -0.160000 -0.500000
v 0.500000 -0.160000 -0.500000
v -0.500000 -0.160000 -0.250000
v -0.375000 -0.160000 -0.250000
v -0.250000 -0.160000 -0.250000
v -0.125000 -0.160000 -0.250000
v 0.000000 -0.160000 -0.250000
v 0.125000 -0.160000 -0.250000
v 0.250000 -0.160000 -0.250000
v 0.375000 -0.160000 -0.250000
v 0.500000 -0.160000 -0.250000
v -0.500000 -0.160000 0.000000
v -0.375000 -0.160000 0.000000
v -0.250000 -0.160000 0.000000
v -0.125000 -0.160000 0.000000
v 0.000000 -0.160000 0.000000
v 0.125000 -0.160000 0.000000
v 0.250000 -0.160000 0.000000
v 0.375000 -0.160000 0.000000
v 0.500000 -0.160000 0.000000
v -0.500000 -0.160000 0.250000
v -0.375000 -0.160000 0.250000
v -0.250000 -0.160000 0.250000
v -0.125000 -0.160000 0.250000
v 0.000000 -0.160000 0.250000
v 0.125000 -0.160000 0.250000
v 0.250000 -0.160000 0.250000
v 0.375000 -0.160000 0.250000
v 0.500000 -0.160000 0.250000
v -0.500000 -0.160000 0.500000
v -0.375000 -0.160000 0.500000
v -0.250000 -0.160000 0.500000
v -0.125000 -0.160000 0.500000
v 0.000000 -0.160000 0.500000
v 0.125000 -0.160000 0.500000
v 0.250000 -0.160000 0.500000
v 0.375000 -0.160000 0.500000
v 0.500000 -0.160000 0.500000
v -0.500000 -0.160000 0.750000
v -0.375000 -0.160000 0.750000
v -0.250000 -0.160000 0.750000
v -0.125000 -0.160000 0.750000
v 0.000000 -0.160000 0.750000
v 0.125000 -0.160000 0.750000
v 0.250000 -0.160000 0.750000
v 0.375000 -0.160000 0.750000
v 0.500000 -0.160000 0.750000
v -0.500000 -0.160000 1.000000
v -0.375000 -0.160000 1.000000
v -0.250000 -0.160000 1.000000
v -0.125000 -0.160000 1.000000
v 0.000000 -0.160000 1.000000
v 0.125000 -0.160000 1.000000
v 0.250000 -0.160000 1.000000
v 0.375000 -0.160000 1.000000
v 0.500000 -0.160000 1.000000
v -0.437500 -0.160000 -0.875000
v -0.500000 -0.160000 -0.875000
v -0.437500 -0.160000 -0.750000
v -0.375000 -0.160000 -0.875000
v -0.437500 -0.160000 -1.000000
v -0.312500 -0.160000 -0.875000
v -0.312500 -0.160000 -0.750000
v -0.250000 -0.160000 -0.875000
v -0.312500 -0.160000 -1.000000
v -0.187500 -0.160000 -0.875000
v -0.187500 -0.160000 -0.750000
v -0.125000 -0.160000 -0.875000
v -0.187500 -0.160000 -1.000000
v -0.062500 -0.160000 -0.875000
v -0.062500 -0.160000 -0.750000
v 0.000000 -0.160000 -0.875000
v -0.062500 -0.160000 -1.000000
v 0.062500 -0.160000 -0.875000
v 0.062500 -0.160000 -0.750000
v 0.125000 -0.160000 -0.875000
v 0.062500 -0.160000 -1.000000
v 0.187500 -0.160000 -0.875000
v 0.187500 -0.160000 -0.750000
v 0.250000 -0.160000 -0.875000
v 0.187500 -0.160000 -1.000000
v 0.312500 -0.160000 -0.875000
v 0.312500 -0.160000 -0.750000
v 0.375000 -0.160000 -0.875000
v 0.312500 -0.160000 -1.000000
v 0.437500 -0.160000 -0.875000
v 0.437500 -0.160000 -0.750000
v 0.500000 -0.160000 -0.875000
v 0.437500 -0.160000 -1.000000
v -0.437500 -0.160000 -0.625000
v -0.500000 -0.160000 -0.625000
v -0.437500 -0.160000 -0.500000
v -0.375000 -0.160000 -0.625000
v -0.312500 -0.160000 -0.625000
v -0.312500 -0.160000 -0.500000
v -0.250000 -0.160000 -0.625000
v -0.187500 -0.160000 -0.625000
v -0.187500 -0.160000 -0.500000
v -0.125000 -0.160000 -0.625000
v -0.062500 -0.160000 -0.625000
v -0.062500 -0.160000 -0.500000
v 0.000000 -0.160000 -0.625000
v 0.062500 -0.160000 -0.625000
v 0.062500 -0.160000 -0.500000
v 0.125000 -0.160000 -0.625000
v 0.187500 -0.160000 -0.625000
v 0.187500 -0.160000 -0.500000
v 0.250000 -0.160000 -0.625000
v 0.312500 -0.160000 -0.625000
v 0.312500 -0.160000 -0.500000
v 0.375000 -0.160000 -0.625000
v 0.437500 -0.160000 -0.625000
v 0.437500 -0.160000 -0.500000
v 0.500000 -0.160000 -0.625000
v -0.437500 -0.160000 -0.375000
v -0.500000 -0.160000 -0.375000
v -0.437500 -0.160000 -0.250000
v -0.375000 -0.160000 -0.375000
v -0.312500 -0.160000 -0.375000
v -0.312500 -0.160000 -0.250000
v -0.250000 -0.160000 -0.375000
v -0.187500 -0.160000 -0.375000
v -0.187500 -0.160000 -0.250000
v -0.125000 -0.160000 -0.375000
v -0.062500 -0.160000 -0.375000
v -0.062500 -0.160000 -0.250000
v 0.000000 -0.160000 -0.375000
v 0.062500 -0.160000 -0.375000
v 0.062500 -0.160000 -0.250000
v 0.125000 -0.160000 -0.375000
v 0.187500 -0.160000 -0.375000
v 0.187500 -0.160000 -0.250000
v 0.250000 -0.160000 -0.375000
v 0.312500 -0.160000 -0.375000
v 0.312500 -0.160000 -0.250000
v 0.375000 -0.160000 -0.375000
v 0.437500 -0.160000 -0.375000
v 0.437500 -0.160000 -0.250000
v 0.500000 -0.160000 -0.375000
v -0.437500 -0.160000 -0.125000
v -0.500000 -0.160000 -0.125000
v -0.437500 -0.160000 0.000000
v -0.375000 -0.160000 -0.125000
v -0.312500 -0.160000 -0.125000
v -0.312500 -0.160000 0.000000
v -0.250000 -0.160000 -0.125000
v -0.187500 -0.160000 -0.125000
v -0.187500 -0.160000 0.000000
v -0.125000 -0.160000 -0.125000
v -0.062500 -0.160000 -0.125000
v -0.062500 -0.160000 0.000000
v 0.000000 -0.160000 -0.125000
v 0.062500 -0.160000 -0.125000
v 0.062500 -0.160000 0.000000
v 0.125000 -0.160000 -0.125000
v 0.187500 -0.160000 -0.125000
v 0.187500 -0.160000 0.000000
v 0.250000 -0.160000 -0.125000
v 0.312500 -0.160000 -0.125000
v 0.312500 -0.160000 0.000000
v 0.375000 -0.160000 -0.125000
v 0.437500 -0.160000 -0.125000
v 0.437500 -0.160000 0.000000
v 0.500000 -0.160000 -0.125000
v -0.437500 -0.160000 0.125000
v -0.500000 -0.160000 0.125000
v -0.437500 -0.160000 0.250000
v -0.375000 -0.160000 0.125000
v -0.312500 -0.160000 0.125000
v -0.312500 -0.160000 0.250000
v -0.250000 -0.160000 0.125000
v -0.187500 -0.160000 0.125000
v -0.187500 -0.160000 0.250000
v -0.125000 -0.160000 0.125000
v -0.062500 -0.160000 0.125000
v -0.062500 -0.160000 0.250000
v 0.000000 -0.160000 0.125000
v 0.062500 -0.160000 0.125000
v 0.062500 -0.160000 0.250000
v 0.125000 -0.160000 0.125000
v 0.187500 -0.160000 0.125000
v 0.187500 -0.160000 0.250000
v 0.250000 -0.160000 0.125000
v 0.312500 -0.160000 0.125000
v 0.312500 -0.160000 0.250000
v 0.375000 -0.160000 0.125000
v 0.437500 -0.160000 0.125000
v 0.437500 -0.160000 0.250000
v 0.500000 -0.160000 0.125000
v -0.437500 -0.160000 0.375000
v -0.500000 -0.160000 0.375000
v -0.437500 -0.160000 0.500000
v -0.375000 -0.160000 0.375000
v -0.312500 -0.160000 0.375000
v -0.312500 -0.160000 0.500000
v -0.250000 -0.160000 0.375000
v -0.187500 -0.160000 0.375000
v -0.187500 -0.160000 0.500000
v -0.125000 -0.160000 0.375000
v -0.062500 -0.160000 0.375000
v -0.062500 -0.160000 0.500000
v 0.000000 -0.160000 0.375000
v 0.062500 -0.160000 0.375000
v 0.062500 -0.160000 0.500000
v 0.125000 -0.160000 0.375000
v 0.187500 -0.160000 0.375000
v 0.187500 -0.160000 0.500000
v 0.250000 -0.160000 0.375000
v 0.312500 -0.160000 0.375000
v 0.312500 -0.160000 0.500000
v 0.375000 -0.160000 0.375000
v 0.437500 -0.160000 0.375000
v 0.437500 -0.160000 0.500000
v 0.500000 -0.160000 0.375000
v -0.437500 -0.160000 0.625000
v -0.500000 -0.160000 0.625000
v -0.437500 -0.160000 0.750000
v -0.375000 -0.160000 0.625000
v -0.312500 -0.160000 0.625000
v -0.312500 -0.160000 0.750000
v -0.250000 -0.160000 0.625000
v -0.187500 -0.160000 0.625000
v -0.187500 -0.160000 0.750000
v -0.125000 -0.160000 0.625000
v -0.062500 -0.160000 0.625000
v -0.062500 -0.160000 0.750000
v 0.000000 -0.160000 0.625000
v 0.062500 -0.160000 0.625000
v 0.062500 -0.160000 0.750000
v 0.125000 -0.160000 0.625000
v 0.187500 -0.160000 0.625000
v 0.187500 -0.160000 0.750000
v 0.250000 -0.160000 0.625000
v 0.312500 -0.160000 0.625000
v 0.312500 -0.160000 0.750000
v 0.375000 -0.160000 0.625000
v 0.437500 -0.160000 0.625000
v 0.437500 -0.160000 0.750000
v 0.500000 -0.160000 0.625000
v -0.437500 -0.160000 0.875000
v -0.500000 -0.160000 0.875000
v -0.437500 -0.160000 1.000000
v -0.375000 -0.160000 0.875000
v -0.312500 -0.160000 0.875000
v -0.312500 -0.160000 1.000000
v -0.250000 -0.160000 0.875000
v -0.187500 -0.160000 0.875000
v -0.187500 -0.160000 1.000000
v -0.125000 -0.160000 0.875000
v -0.062500 -0.160000 0.875000
v -0.062500 -0.160000 1.000000
v 0.000000 -0.160000 0.875000
v 0.062500 -0.160000 0.875000
v 0.062500 -0.160000 1.000000
v 0.125000 -0.160000 0.875000
v 0.187500 -0.160000 0.875000
v 0.187500 -0.160000 1.000000
v 0.250000 -0.160000 0.875000
v 0.312500 -0.160000 0.875000
v 0.312500 -0.160000 1.000000
v 0.375000 -0.160000 0.875000
v 0.437500 -0.160000 0.875000
v 0.437500 -0.160000 1.000000
v 0.500000 -0.160000 0.875000
vn -0.0000 1.0000 -0.0000
vt 0.000000 0.000000
vt 0.125000 0.000000
vt 0.125000 0.125000
vt 0.000000 0.250000
vt 0.000000 0.125000
vt 0.125000 0.250000
vt 0.125000 0.375000
vt 0.000000 0.500000
vt 0.000000 0.375000
vt 0.125000 0.500000
vt 0.125000 0.625000
vt 0.000000 0.750000
vt 0.000000 0.625000
vt 0.125000 0.750000
vt 0.125000 0.875000
vt 0.000000 1.000000
vt 0.000000 0.875000
vt 0.125000 1.000000
vt 0.125000 1.125000
vt 0.000000 1.250000
vt 0.000000 1.125000
vt 0.125000 1.250000
vt 0.125000 1.375000
vt 0.000000 1.500000
vt 0.000000 1.375000
vt 0.125000 1.500000
vt 0.125000 1.625000
vt 0.000000 1.750000
vt 0.000000 1.625000
vt 0.125000 1.750000
vt 0.125000 1.875000
vt 0.000000 2.000000
vt 0.000000 1.875000
vt 0.125000 2.000000
vt 0.250000 0.000000
vt 0.375000 0.000000
vt 0.375000 0.125000
vt 0.250000 0.250000
vt 0.250000 0.125000
vt 0.375000 0.250000
vt 0.375000 0.375000
vt 0.250000 0.500000
vt 0.250000 0.375000
vt 0.375000 0.500000
vt 0.375000 0.625000
vt 0.250000 0.750000
vt 0.250000 0.625000
vt 0.375000 0.750000
vt 0.375000 0.875000
vt 0.250000 1.000000
vt 0.250000 0.875000
vt 0.375000 1.000000
vt 0.375000 1.125000
vt 0.250000 1.250000
vt 0.250000 1.125000
vt 0.375000 1.250000
vt 0.375000 1.375000
vt 0.250000 1.500000
vt 0.250000 1.375000
vt 0.375000 1.500000
vt 0.375000 1.625000
vt 0.250000 1.750000
vt 0.250000 1.625000
vt 0.375000 1.750000
vt 0.375000 1.875000
vt 0.250000 2.000000
vt 0.250000 1.875000
vt 0.375000 2.000000
vt 0.500000 0.000000
vt 0.625000 0.000000
vt 0.625000 0.125000
vt 0.500000 0.250000
vt 0.500000 0.125000
vt 0.625000 0.250000
vt 0.625000 0.375000
vt 0.500000 0.500000
vt 0.500000 0.375000
vt 0.625000 0.500000
vt 0.625000 0.625000
vt 0.500000 0.750000
vt 0.500000 0.625000
vt 0.625000 0.750000
vt 0.625000 0.875000
vt 0.500000 1.000000
vt 0.500000 0.875000
vt 0.625000 1.000000
vt 0.625000 1.125000
vt 0.500000 1.250000
vt 0.500000 1.125000
vt 0.625000 1.250000
vt 0.625000 1.375000
vt 0.500000 1.500000
vt 0.500000 1.375000
vt 0.625000 1.500000
vt 0.625000 1.625000
vt 0.500000 1.750000
vt 0.500000 1.625000
vt 0.625000 1.750000
vt 0.625000 1.875000
vt 0.500000 2.000000
vt 0.500000 1.875000
vt 0.625000 2.000000
vt 0.750000 0.000000
vt 0.875000 0.000000
vt 0.875000 0.125000
vt 0.750000 0.250000
vt 0.750000 0.125000
vt 0.875000 0.250000
vt 0.875000 0.375000
vt 0.750000 0.500000
vt 0.750000 0.375000
vt 0.875000 0.500000
vt 0.875000 0.625000
vt 0.750000 0.750000
vt 0.750000 0.625000
vt 0.875000 0.750000
vt 0.875000 0.875000
vt 0.750000 1.000000
vt 0.750000 0.875000
vt 0.875000 1.000000
vt 0.875000 1.125000
vt 0.750000 1.250000
vt 0.750000 1.125000
vt 0.875000 1.250000
vt 0.875000 1.375000
vt 0.750000 1.500000
vt 0.750000 1.375000
vt 0.875000 1.500000
vt 0.875000 1.625000
vt 0.750000 1.750000
vt 0.750000 1.625000
vt 0.875000 1.750000
vt 0.875000 1.875000
vt 0.750000 2.000000
vt 0.750000 1.875000
vt 0.875000 2.000000
vt 1.000000 0.000000
vt 1.125000 0.000000
vt 1.125000 0.125000
vt 1.000000 0.250000
vt 1.000000 0.125000
vt 1.125000 0.250000
vt 1.125000 0.375000
vt 1.000000 0.500000
vt 1.000000 0.375000
vt 1.125000 0.500000
vt 1.125000 0.625000
vt 1.000000 0.750000
vt 1.000000 0.625000
vt 1.125000 0.750000
vt 1.125000 0.875000
vt 1.000000 1.000000
vt 1.000000 0.875000
vt 1.125000 1.000000
vt 1.125000 1.125000
vt 1.000000 1.250000
vt 1.000000 1.125000
vt 1.125000 1.250000
vt 1.125000 1.375000
vt 1.000000 1.500000
vt 1.000000 1.375000
vt 1.125000 1.500000
vt 1.125000 1.625000
vt 1.000000 1.750000
vt 1.000000 1.625000
vt 1.125000 1.750000
vt 1.125000 1.875000
vt 1.000000 2.000000
vt 1.000000 1.875000
vt 1.125000 2.000000
vt 1.250000 0.000000
vt 1.375000 0.000000
vt 1.375000 0.125000
vt 1.250000 0.250000
vt 1.250000 0.125000
vt 1.375000 0.250000
vt 1.375000 0.375000
vt 1.250000 0.500000
vt 1.250000 0.375000
vt 1.375000 0.500000
vt 1.375000 0.625000
vt 1.250000 0.750000
vt 1.250000 0.625000
vt 1.375000 0.750000
vt 1.375000 0.875000
vt 1.250000 1.000000
vt 1.250000 0.875000
vt 1.375000 1.000000
vt 1.375000 1.125000
vt 1.250000 1.250000
vt 1.250000 1.125000
vt 1.375000 1.250000
vt 1.375000 1.375000
vt 1.250000 1.500000
vt 1.250000 1.375000
vt 1.375000 1.500000
vt 1.375000 1.625000
vt 1.250000 1.750000
vt 1.250000 1.625000
vt 1.375000 1.750000
vt 1.375000 1.875000
vt 1.250000 2.000000
vt 1.250000 1.875000
vt 1.375000 2.000000
vt 1.500000 0.000000
vt 1.625000 0.000000
vt 1.625000 0.125000
vt 1.500000 0.250000
vt 1.500000 0.125000
vt 1.625000 0.250000
vt 1.625000 0.375000
vt 1.500000 0.500000
vt 1.500000 0.375000
vt 1.625000 0.500000
vt 1.625000 0.625000
vt 1.500000 0.750000
vt 1.500000 0.625000
vt 1.625000 0.750000
vt 1.625000 0.875000
vt 1.500000 1.000000
vt 1.500000 0.875000
vt 1.625000 1.000000
vt 1.625000 1.125000
vt 1.500000 1.250000
vt 1.500000 1.125000
vt 1.625000 1.250000
vt 1.625000 1.375000
vt 1.500000 1.500000
vt 1.500000 1.375000
vt 1.625000 1.500000
vt 1.625000 1.625000
vt 1.500000 1.750000
vt 1.500000 1.625000
vt 1.625000 1.750000
vt 1.625000 1.875000
vt 1.500000 2.000000
vt 1.500000 1.875000
vt 1.625000 2.000000
vt 1.750000 0.000000
vt 1.875000 0.000000
vt 1.875000 0.125000
vt 1.750000 0.250000
vt 1.750000 0.125000
vt 1.875000 0.250000
vt 1.875000 0.375000
vt 1.750000 0.500000
vt 1.750000 0.375000
vt 1.875000 0.500000
vt 1.875000 0.625000
vt 1.750000 0.750000
vt 1.750000 0.625000
vt 1.875000 0.750000
vt 1.875000 0.875000
vt 1.750000 1.000000
vt 1.750000 0.875000
vt 1.875000 1.000000
vt 1.875000 1.125000
vt 1.750000 1.250000
vt 1.750000 1.125000
vt 1.875000 1.250000
vt 1.875000 1.375000
vt 1.750000 1.500000
vt 1.750000 1.375000
vt 1.875000 1.500000
vt 1.875000 1.625000
vt 1.750000 1.750000
vt 1.750000 1.625000
vt 1.875000 1.750000
vt 1.875000 1.875000
vt 1.750000 2.000000
vt 1.750000 1.875000
vt 1.875000 2.000000
vt 2.000000 2.000000
vt 2.000000 1.875000
vt 2.000000 1.750000
vt 2.000000 1.625000
vt 2.000000 1.500000
vt 2.000000 1.375000
vt 2.000000 1.250000
vt 2.000000 1.125000
vt 2.000000 1.000000
vt 2.000000 0.875000
vt 2.000000 0.750000
vt 2.000000 0.625000
vt 2.000000 0.500000
vt 2.000000 0.375000
vt 2.000000 0.250000
vt 2.000000 0.125000
vt 2.000000 0.000000
s 1
f 1/1/1 83/2/1 82/3/1
f 2/4/1 86/5/1 85/6/1
f 2/4/1 85/6/1 87/7/1
f 3/8/1 90/9/1 89/10/1
f 3/8/1 89/10/1 91/11/1
f 4/12/1 94/13/1 93/14/1
f 4/12/1 93/14/1 95/15/1
f 5/16/1 98/17/1 97/18/1
f 5/16/1 97/18/1 99/19/1
f 6/20/1 102/21/1 101/22/1
f 6/20/1 101/22/1 103/23/1
f 7/24/1 106/25/1 105/26/1
f 7/24/1 105/26/1 107/27/1
f 8/28/1 110/29/1 109/30/1
f 8/28/1 109/30/1 111/31/1
f 9/32/1 114/33/1 113/34/1
f 10/35/1 116/36/1 115/37/1
f 11/38/1 84/39/1 118/40/1
f 11/38/1 118/40/1 119/41/1
f 12/42/1 88/43/1 121/44/1
f 12/42/1 121/44/1 122/45/1
f 13/46/1 92/47/1 124/48/1
f 13/46/1 124/48/1 125/49/1
f 14/50/1 96/51/1 127/52/1
f 14/50/1 127/52/1 128/53/1
f 15/54/1 100/55/1 130/56/1
f 15/54/1 130/56/1 131/57/1
f 16/58/1 104/59/1 133/60/1
f 16/58/1 133/60/1 134/61/1
f 17/62/1 108/63/1 136/64/1
f 17/62/1 136/64/1 137/65/1
f 18/66/1 112/67/1 139/68/1
f 19/69/1 141/70/1 140/71/1
f 20/72/1 117/73/1 143/74/1
f 20/72/1 143/74/1 144/75/1
f 21/76/1 120/77/1 146/78/1
f 21/76/1 146/78/1 147/79/1
f 22/80/1 123/81/1 149/82/1
f 22/80/1 149/82/1 150/83/1
f 23/84/1 126/85/1 152/86/1
f 23/84/1 152/86/1 153/87/1
f 24/88/1 129/89/1 155/90/1
f 24/88/1 155/90/1 156/91/1
f 25/92/1 132/93/1 158/94/1
f 25/92/1 158/94/1 159/95/1
f 26/96/1 135/97/1 161/98/1
f 26/96/1 161/98/1 162/99/1
f 27/100/1 138/101/1 164/102/1
f 28/103/1 166/104/1 165/105/1
f 29/106/1 142/107/1 168/108/1
f 29/106/1 168/108/1 169/109/1
f 30/110/1 145/111/1 171/112/1
f 30/110/1 171/112/1 172/113/1
f 31/114/1 148/115/1 174/116/1
f 31/114/1 174/116/1 175/117/1
f 32/118/1 151/119/1 177/120/1
f 32/118/1 177/120/1 178/121/1
f 33/122/1 154/123/1 180/124/1
f 33/122/1 180/124/1 181/125/1
f 34/126/1 157/127/1 183/128/1
f 34/126/1 183/128/1 184/129/1
f 35/130/1 160/131/1 186/132/1
f 35/130/1 186/132/1 187/133/1
f 36/134/1 163/135/1 189/136/1
f 37/137/1 191/138/1 190/139/1
f 38/140/1 167/141/1 193/142/1
f 38/140/1 193/142/1 194/143/1
f 39/144/1 170/145/1 196/146/1
f 39/144/1 196/146/1 197/147/1
f 40/148/1 173/149/1 199/150/1
f 40/148/1 199/150/1 200/151/1
f 41/152/1 176/153/1 202/154/1
f 41/152/1 202/154/1 203/155/1
f 42/156/1 179/157/1 205/158/1
f 42/156/1 205/158/1 206/159/1
f 43/160/1 182/161/1 208/162/1
f 43/160/1 208/162/1 209/163/1
f 44/164/1 185/165/1 211/166/1
f 44/164/1 211/166/1 212/167/1
f 45/168/1 188/169/1 214/170/1
f 46/171/1 216/172/1 215/173/1
f 47/174/1 192/175/1 218/176/1
f 47/174/1 218/176/1 219/177/1
f 48/178/1 195/179/1 221/180/1
f 48/178/1 221/180/1 222/181/1
f 49/182/1 198/183/1 224/184/1
f 49/182/1 224/184/1 225/185/1
f 50/186/1 201/187/1 227/188/1
f 50/186/1 227/188/1 228/189/1
f 51/190/1 204/191/1 230/192/1
f 51/190/1 230/192/1 231/193/1
f 52/194/1 207/195/1 233/196/1
f 52/194/1 233/196/1 234/197/1
f 53/198/1 210/199/1 236/200/1
f 53/198/1 236/200/1 237/201/1
f 54/202/1 213/203/1 239/204/1
f 55/205/1 241/206/1 240/207/1
f 56/208/1 217/209/1 243/210/1
f 56/208/1 243/210/1 244/211/1
f 57/212/1 220/213/1 246/214/1
f 57/212/1 246/214/1 247/215/1
f 58/216/1 223/217/1 249/218/1
f 58/216/1 249/218/1 250/219/1
f 59/220/1 226/221/1 252/222/1
f 59/220/1 252/222/1 253/223/1
f 60/224/1 229/225/1 255/226/1
f 60/224/1 255/226/1 256/227/1
f 61/228/1 232/229/1 258/230/1
f 61/228/1 258/230/1 259/231/1
f 62/232/1 235/233/1 261/234/1
f 62/232/1 261/234/1 262/235/1
f 63/236/1 238/237/1 264/238/1
f 64/239/1 266/240/1 265/241/1
f 65/242/1 242/243/1 268/244/1
f 65/242/1 268/244/1 269/245/1
f 66/246/1 245/247/1 271/248/1
f 66/246/1 271/248/1 272/249/1
f 67/250/1 248/251/1 274/252/1
f 67/250/1 274/252/1 275/253/1
f 68/254/1 251/255/1 277/256/1
f 68/254/1 277/256/1 278/257/1
f 69/258/1 254/259/1 280/260/1
f 69/258/1 280/260/1 281/261/1
f 70/262/1 257/263/1 283/264/1
f 70/262/1 283/264/1 284/265/1
f 71/266/1 260/267/1 286/268/1
f 71/266/1 286/268/1 287/269/1
f 72/270/1 263/271/1 289/272/1
f 289/272/1 287/269/1 81/273/1
f 289/272/1 263/271/1 287/269/1
f 263/271/1 71/266/1 287/269/1
f 287/269/1 288/274/1 81/273/1
f 287/269/1 286/268/1 288/274/1
f 286/268/1 80/275/1 288/274/1
f 286/268/1 284/265/1 80/275/1
f 286/268/1 260/267/1 284/265/1
f 260/267/1 70/262/1 284/265/1
f 284/265/1 285/276/1 80/275/1
f 284/265/1 283/264/1 285/276/1
f 283/264/1 79/277/1 285/276/1
f 283/264/1 281/261/1 79/277/1
f 283/264/1 257/263/1 281/261/1
f 257/263/1 69/258/1 281/261/1
f 281/261/1 282/278/1 79/277/1
f 281/261/1 280/260/1 282/278/1
f 280/260/1 78/279/1 282/278/1
f 280/260/1 278/257/1 78/279/1
f 280/260/1 254/259/1 278/257/1
f 254/259/1 68/254/1 278/257/1
f 278/257/1 279/280/1 78/279/1
f 278/257/1 277/256/1 279/280/1
f 277/256/1 77/281/1 279/280/1
f 277/256/1 275/253/1 77/281/1
f 277/256/1 251/255/1 275/253/1
f 251/255/1 67/250/1 275/253/1
f 275/253/1 276/282/1 77/281/1
f 275/253/1 274/252/1 276/282/1
f 274/252/1 76/283/1 276/282/1
f 274/252/1 272/249/1 76/283/1
f 274/252/1 248/251/1 272/249/1
f 248/251/1 66/246/1 272/249/1
f 272/249/1 273/284/1 76/283/1
f 272/249/1 271/248/1 273/284/1
f 271/248/1 75/285/1 273/284/1
f 271/248/1 269/245/1 75/285/1
f 271/248/1 245/247/1 269/245/1
f 245/247/1 65/242/1 269/245/1
f 269/245/1 270/286/1 75/285/1
f 269/245/1 268/244/1 270/286/1
f 268/244/1 74/287/1 270/286/1
f 268/244/1 265/241/1 74/287/1
f 268/244/1 242/243/1 265/241/1
f 242/243/1 64/239/1 265/241/1
f 265/241/1 267/288/1 74/287/1
f 265/241/1 266/240/1 267/288/1
f 266/240/1 73/289/1 267/288/1
f 264/238/1 262/235/1 72/270/1
f 264/238/1 238/237/1 262/235/1
f 238/237/1 62/232/1 262/235/1
f 262/235/1 263/271/1 72/270/1
f 262/235/1 261/234/1 263/271/1
f 261/234/1 71/266/1 263/271/1
f 261/234/1 259/231/1 71/266/1
f 261/234/1 235/233/1 259/231/1
f 235/233/1 61/228/1 259/231/1
f 259/231/1 260/267/1 71/266/1
f 259/231/1 258/230/1 260/267/1
f 258/230/1 70/262/1 260/267/1
f 258/230/1 256/227/1 70/262/1
f 258/230/1 232/229/1 256/227/1
f 232/229/1 60/224/1 256/227/1
f 256/227/1 257/263/1 70/262/1
f 256/227/1 255/226/1 257/263/1
f 255/226/1 69/258/1 257/263/1
f 255/226/1 253/223/1 69/258/1
f 255/226/1 229/225/1 253/223/1
f 229/225/1 59/220/1 253/223/1
f 253/223/1 254/259/1 69/258/1
f 253/223/1 252/222/1 254/259/1
f 252/222/1 68/254/1 254/259/1
f 252/222/1 250/219/1 68/254/1
f 252/222/1 226/221/1 250/219/1
f 226/221/1 58/216/1 250/219/1
f 250/219/1 251/255/1 68/254/1
f 250/219/1 249/218/1 251/255/1
f 249/218/1 67/250/1 251/255/1
f 249/218/1 247/215/1 67/250/1
f 249/218/1 223/217/1 247/215/1
f 223/217/1 57/212/1 247/215/1
f 247/215/1 248/251/1 67/250/1
f 247/215/1 246/214/1 248/251/1
f 246/214/1 66/246/1 248/251/1
f 246/214/1 244/211/1 66/246/1
f 246/214/1 220/213/1 244/211/1
f 220/213/1 56/208/1 244/211/1
f 244/211/1 245/247/1 66/246/1
f 244/211/1 243/210/1 245/247/1
f 243/210/1 65/242/1 245/247/1
f 243/210/1 240/207/1 65/242/1
f 243/210/1 217/209/1 240/207/1
f 217/209/1 55/205/1 240/207/1
f 240/207/1 242/243/1 65/242/1
f 240/207/1 241/206/1 242/243/1
f 241/206/1 64/239/1 242/243/1
f 239/204/1 237/201/1 63/236/1
f 239/204/1 213/203/1 237/201/1
f 213/203/1 53/198/1 237/201/1
f 237/201/1 238/237/1 63/236/1
f 237/201/1 236/200/1 238/237/1
f 236/200/1 62/232/1 238/237/1
f 236/200/1 234/197/1 62/232/1
f 236/200/1 210/199/1 234/197/1
f 210/199/1 52/194/1 234/197/1
f 234/197/1 235/233/1 62/232/1
f 234/197/1 233/196/1 235/233/1
f 233/196/1 61/228/1 235/233/1
f 233/196/1 231/193/1 61/228/1
f 233/196/1 207/195/1 231/193/1
f 207/195/1 51/190/1 231/193/1
f 231/193/1 232/229/1 61/228/1
f 231/193/1 230/192/1 232/229/1
f 230/192/1 60/224/1 232/229/1
f 230/192/1 228/189/1 60/224/1
f 230/192/1 204/191/1 228/189/1
f 204/191/1 50/186/1 228/189/1
f 228/189/1 229/225/1 60/224/1
f 228/189/1 227/188/1 229/225/1
f 227/188/1 59/220/1 229/225/1
f 227/188/1 225/185/1 59/220/1
f 227/188/1 201/187/1 225/185/1
f 201/187/1 49/182/1 225/185/1
f 225/185/1 226/221/1 59/220/1
f 225/185/1 224/184/1 226/221/1
f 224/184/1 58/216/1 226/221/1
f 224/184/1 222/181/1 58/216/1
f 224/184/1 198/183/1 222/181/1
f 198/183/1 48/178/1 222/181/1
f 222/181/1 223/217/1 58/216/1
f 222/181/1 221/180/1 223/217/1
f 221/180/1 57/212/1 223/217/1
f 221/180/1 219/177/1 57/212/1
f 221/180/1 195/179/1 219/177/1
f 195/179/1 47/174/1 219/177/1
f 219/177/1 220/213/1 57/212/1
f 219/177/1 218/176/1 220/213/1
f 218/176/1 56/208/1 220/213/1
f 218/176/1 215/173/1 56/208/1
f 218/176/1 192/175/1 215/173/1
f 192/175/1 46/171/1 215/173/1
f 215/173/1 217/209/1 56/208/1
f 215/173/1 216/172/1 217/209/1
f 216/172/1 55/205/1 217/209/1
f 214/170/1 212/167/1 54/202/1
f 214/170/1 188/169/1 212/167/1
f 188/169/1 44/164/1 212/167/1
f 212/167/1 213/203/1 54/202/1
f 212/167/1 211/166/1 213/203/1
f 211/166/1 53/198/1 213/203/1
f 211/166/1 209/163/1 53/198/1
f 211/166/1 185/165/1 209/163/1
f 185/165/1 43/160/1 209/163/1
f 209/163/1 210/199/1 53/198/1
f 209/163/1 208/162/1 210/199/1
f 208/162/1 52/194/1 210/199/1
f 208/162/1 206/159/1 52/194/1
f 208/162/1 182/161/1 206/159/1
f 182/161/1 42/156/1 206/159/1
f 206/159/1 207/195/1 52/194/1
f 206/159/1 205/158/1 207/195/1
f 205/158/1 51/190/1 207/195/1
f 205/158/1 203/155/1 51/190/1
f 205/158/1 179/157/1 203/155/1
f 179/157/1 41/152/1 203/155/1
f 203/155/1 204/191/1 51/190/1
f 203/155/1 202/154/1 204/191/1
f 202/154/1 50/186/1 204/191/1
f 202/154/1 200/151/1 50/186/1
f 202/154/1 176/153/1 200/151/1
f 176/153/1 40/148/1 200/151/1
f 200/151/1 201/187/1 50/186/1
f 200/151/1 199/150/1 201/187/1
f 199/150/1 49/182/1 201/187/1
f 199/150/1 197/147/1 49/182/1
f 199/150/1 173/149/1 197/147/1
f 173/149/1 39/144/1 197/147/1
f 197/147/1 198/183/1 49/182/1
f 197/147/1 196/146/1 198/183/1
f 196/146/1 48/178/1 198/183/1
f 196/146/1 194/143/1 48/178/1
f 196/146/1 170/145/1 194/143/1
f 170/145/1 38/140/1 194/143/1
f 194/143/1 195/179/1 48/178/1
f 194/143/1 193/142/1 195/179/1
f 193/142/1 47/174/1 195/179/1
f 193/142/1 190/139/1 47/174/1
f 193/142/1 167/141/1 190/139/1
f 167/141/1 37/137/1 190/139/1
f 190/139/1 192/175/1 47/174/1
f 190/139/1 191/138/1 192/175/1
f 191/138/1 46/171/1 192/175/1
f 189/136/1 187/133/1 45/168/1
f 189/136/1 163/135/1 187/133/1
f 163/135/1 35/130/1 187/133/1
f 187/133/1 188/169/1 45/168/1
f 187/133/1 186/132/1 188/169/1
f 186/132/1 44/164/1 188/169/1
f 186/132/1 184/129/1 44/164/1
f 186/132/1 160/131/1 184/129/1
f 160/131/1 34/126/1 184/129/1
f 184/129/1 185/165/1 44/164/1
f 184/129/1 183/128/1 185/165/1
f 183/128/1 43/160/1 185/165/1
f 183/128/1 181/125/1 43/160/1
f 183/128/1 157/127/1 181/125/1
f 157/127/1 33/122/1 181/125/1
f 181/125/1 182/161/1 43/160/1
f 181/125/1 180/124/1 182/161/1
f 180/124/1 42/156/1 182/161/1
f 180/124/1 178/121/1 42/156/1
f 180/124/1 154/123/1 178/121/1
f 154/123/1 32/118/1 178/121/1
f 178/121/1 179/157/1 42/156/1
f 178/121/1 177/120/1 179/157/1
f 177/120/1 41/152/1 179/157/1
f 177/120/1 175/117/1 41/152/1
f 177/120/1 151/119/1 175/117/1
f 151/119/1 31/114/1 175/117/1
f 175/117/1 176/153/1 41/152/1
f 175/117/1 174/116/1 176/153/1
f 174/116/1 40/148/1 176/153/1
f 174/116/1 172/113/1 40/148/1
f 174/116/1 148/115/1 172/113/1
f 148/115/1 30/110/1 172/113/1
f 172/113/1 173/149/1 40/148/1
f 172/113/1 171/112/1 173/149/1
f 171/112/1 39/144/1 173/149/1
f 171/112/1 169/109/1 39/144/1
f 171/112/1 145/111/1 169/109/1
f 145/111/1 29/106/1 169/109/1
f 169/109/1 170/145/1 39/144/1
f 169/109/1 168/108/1 170/145/1
f 168/108/1 38/140/1 170/145/1
f 168/108/1 165/105/1 38/140/1
f 168/108/1 142/107/1 165/105/1
f 142/107/1 28/103/1 165/105/1
f 165/105/1 167/141/1 38/140/1
f 165/105/1 166/104/1 167/141/1
f 166/104/1 37/137/1 167/141/1
f 164/102/1 162/99/1 36/134/1
f 164/102/1 138/101/1 162/99/1
f 138/101/1 26/96/1 162/99/1
f 162/99/1 163/135/1 36/134/1
f 162/99/1 161/98/1 163/135/1
f 161/98/1 35/130/1 163/135/1
f 161/98/1 159/95/1 35/130/1
f 161/98/1 135/97/1 159/95/1
f 135/97/1 25/92/1 159/95/1
f 159/95/1 160/131/1 35/130/1
f 159/95/1 158/94/1 160/131/1
f 158/94/1 34/126/1 160/131/1
f 158/94/1 156/91/1 34/126/1
f 158/94/1 132/93/1 156/91/1
f 132/93/1 24/88/1 156/91/1
f 156/91/1 157/127/1 34/126/1
f 156/91/1 155/90/1 157/127/1
f 155/90/1 33/122/1 157/127/1
f 155/90/1 153/87/1 33/122/1
f 155/90/1 129/89/1 153/87/1
f 129/89/1 23/84/1 153/87/1
f 153/87/1 154/123/1 33/122/1
f 153/87/1 152/86/1 154/123/1
f 152/86/1 32/118/1 154/123/1
f 152/86/1 150/83/1 32/118/1
f 152/86/1 126/85/1 150/83/1
f 126/85/1 22/80/1 150/83/1
f 150/83/1 151/119/1 32/118/1
f 150/83/1 149/82/1 151/119/1
f 149/82/1 31/114/1 151/119/1
f 149/82/1 147/79/1 31/114/1
f 149/82/1 123/81/1 147/79/1
f 123/81/1 21/76/1 147/79/1
f 147/79/1 148/115/1 31/114/1
f 147/79/1 146/78/1 148/115/1
f 146/78/1 30/110/1 148/115/1
f 146/78/1 144/75/1 30/110/1
f 146/78/1 120/77/1 144/75/1
f 120/77/1 20/72/1 144/75/1
f 144/75/1 145/111/1 30/110/1
f 144/75/1 143/74/1 145/111/1
f 143/74/1 29/106/1 145/111/1
f 143/74/1 140/71/1 29/106/1
f 143/74/1 117/73/1 140/71/1
f 117/73/1 19/69/1 140/71/1
f 140/71/1 142/107/1 29/106/1
f 140/71/1 141/70/1 142/107/1
f 141/70/1 28/103/1 142/107/1
f 139/68/1 137/65/1 27/100/1
f 139/68/1 112/67/1 137/65/1
f 112/67/1 17/62/1 137/65/1
f 137/65/1 138/101/1 27/100/1
f 137/65/1 136/64/1 138/101/1
f 136/64/1 26/96/1 138/101/1
f 136/64/1 134/61/1 26/96/1
f 136/64/1 108/63/1 134/61/1
f 108/63/1 16/58/1 134/61/1
f 134/61/1 135/97/1 26/96/1
f 134/61/1 133/60/1 135/97/1
f 133/60/1 25/92/1 135/97/1
f 133/60/1 131/57/1 25/92/1
f 133/60/1 104/59/1 131/57/1
f 104/59/1 15/54/1 131/57/1
f 131/57/1 132/93/1 25/92/1
f 131/57/1 130/56/1 132/93/1
f 130/56/1 24/88/1 132/93/1
f 130/56/1 128/53/1 24/88/1
f 130/56/1 100/55/1 128/53/1
f 100/55/1 14/50/1 128/53/1
f 128/53/1 129/89/1 24/88/1
f 128/53/1 127/52/1 129/89/1
f 127/52/1 23/84/1 129/89/1
f 127/52/1 125/49/1 23/84/1
f 127/52/1 96/51/1 125/49/1
f 96/51/1 13/46/1 125/49/1
f 125/49/1 126/85/1 23/84/1
f 125/49/1 124/48/1 126/85/1
f 124/48/1 22/80/1 126/85/1
f 124/48/1 122/45/1 22/80/1
f 124/48/1 92/47/1 122/45/1
f 92/47/1 12/42/1 122/45/1
f 122/45/1 123/81/1 22/80/1
f 122/45/1 121/44/1 123/81/1
f 121/44/1 21/76/1 123/81/1
f 121/44/1 119/41/1 21/76/1
f 121/44/1 88/43/1 119/41/1
f 88/43/1 11/38/1 119/41/1
f 119/41/1 120/77/1 21/76/1
f 119/41/1 118/40/1 120/77/1
f 118/40/1 20/72/1 120/77/1
f 118/40/1 115/37/1 20/72/1
f 118/40/1 84/39/1 115/37/1
f 84/39/1 10/35/1 115/37/1
f 115/37/1 117/73/1 20/72/1
f 115/37/1 116/36/1 117/73/1
f 116/36/1 19/69/1 117/73/1
f 113/34/1 111/31/1 18/66/1
f 113/34/1 114/33/1 111/31/1
f 114/33/1 8/28/1 111/31/1
f 111/31/1 112/67/1 18/66/1
f 111/31/1 109/30/1 112/67/1
f 109/30/1 17/62/1 112/67/1
f 109/30/1 107/27/1 17/62/1
f 109/30/1 110/29/1 107/27/1
f 110/29/1 7/24/1 107/27/1
f 107/27/1 108/63/1 17/62/1
f 107/27/1 105/26/1 108/63/1
f 105/26/1 16/58/1 108/63/1
f 105/26/1 103/23/1 16/58/1
f 105/26/1 106/25/1 103/23/1
f 106/25/1 6/20/1 103/23/1
f 103/23/1 104/59/1 16/58/1
f 103/23/1 101/22/1 104/59/1
f 101/22/1 15/54/1 104/59/1
f 101/22/1 99/19/1 15/54/1
f 101/22/1 102/21/1 99/19/1
f 102/21/1 5/16/1 99/19/1
f 99/19/1 100/55/1 15/54/1
f 99/19/1 97/18/1 100/55/1
f 97/18/1 14/50/1 100/55/1
f 97/18/1 95/15/1 14/50/1
f 97/18/1 98/17/1 95/15/1
f 98/17/1 4/12/1 95/15/1
f 95/15/1 96/51/1 14/50/1
f 95/15/1 93/14/1 96/51/1
f 93/14/1 13/46/1 96/51/1
f 93/14/1 91/11/1 13/46/1
f 93/14/1 94/13/1 91/11/1
f 94/13/1 3/8/1 91/11/1
f 91/11/1 92/47/1 13/46/1
f 91/11/1 89/10/1 92/47/1
f 89/10/1 12/42/1 92/47/1
f 89/10/1 87/7/1 12/42/1
f 89/10/1 90/9/1 87/7/1
f 90/9/1 2/4/1 87/7/1
f 87/7/1 88/43/1 12/42/1
f 87/7/1 85/6/1 88/43/1
f 85/6/1 11/38/1 88/43/1
f 85/6/1 82/3/1 11/38/1
f 85/6/1 86/5/1 82/3/1
f 86/5/1 1/1/1 82/3/1
f 82/3/1 84/39/1 11/38/1
f 82/3/1 83/2/1 84/39/1
f 83/2/1 10/35/1 84/39/1
