# Blender 4.4.3
# www.blender.org
o squarex_16x16_init
v 0.000000 0.158310 1.000000
v -0.060906 0.146195 1.000000
v -0.112540 0.111695 1.000000
v -0.147040 0.060061 1.000000
v -0.159155 -0.000845 1.000000
v -0.147040 -0.061751 1.000000
v -0.112540 -0.113385 1.000000
v -0.060906 -0.147885 1.000000
v 0.000000 -0.160000 1.000000
v 0.060906 -0.147885 1.000000
v 0.112540 -0.113385 1.000000
v 0.147040 -0.061751 1.000000
v 0.159155 -0.000845 1.000000
v 0.147040 0.060061 1.000000
v 0.112540 0.111695 1.000000
v 0.060906 0.146195 1.000000
v -0.000000 0.158310 1.000000
v 0.000000 0.158310 0.875000
v -0.060906 0.146195 0.875000
v -0.112540 0.111695 0.875000
v -0.147040 0.060061 0.875000
v -0.159155 -0.000845 0.875000
v -0.147040 -0.061751 0.875000
v -0.112540 -0.113385 0.875000
v -0.060906 -0.147885 0.875000
v 0.000000 -0.160000 0.875000
v 0.060906 -0.147885 0.875000
v 0.112540 -0.113385 0.875000
v 0.147040 -0.061751 0.875000
v 0.159155 -0.000845 0.875000
v 0.147040 0.060061 0.875000
v 0.112540 0.111695 0.875000
v 0.060906 0.146195 0.875000
v -0.000000 0.158310 0.875000
v 0.000000 0.158310 0.750000
v -0.060906 0.146195 0.750000
v -0.112540 0.111695 0.750000
v -0.147040 0.060061 0.750000
v -0.159155 -0.000845 0.750000
v -0.147040 -0.061751 0.750000
v -0.112540 -0.113385 0.750000
v -0.060906 -0.147885 0.750000
v 0.000000 -0.160000 0.750000
v 0.060906 -0.147885 0.750000
v 0.112540 -0.113385 0.750000
v 0.147040 -0.061751 0.750000
v 0.159155 -0.000845 0.750000
v 0.147040 0.060061 0.750000
v 0.112540 0.111695 0.750000
v 0.060906 0.146195 0.750000
v -0.000000 0.158310 0.750000
v 0.000000 0.158310 0.625000
v -0.060906 0.146195 0.625000
v -0.112540 0.111695 0.625000
v -0.147040 0.060061 0.625000
v -0.159155 -0.000845 0.625000
v -0.147040 -0.061751 0.625000
v -0.112540 -0.113385 0.625000
v -0.060906 -0.147885 0.625000
v 0.000000 -0.160000 0.625000
v 0.060906 -0.147885 0.625000
v 0.112540 -0.113385 0.625000
v 0.147040 -0.061751 0.625000
v 0.159155 -0.000845 0.625000
v 0.147040 0.060061 0.625000
v 0.112540 0.111695 0.625000
v 0.060906 0.146195 0.625000
v -0.000000 0.158310 0.625000
v 0.000000 0.158310 0.500000
v -0.060906 0.146195 0.500000
v -0.112540 0.111695 0.500000
v -0.147040 0.060061 0.500000
v -0.159155 -0.000845 0.500000
v -0.147040 -0.061751 0.500000
v -0.112540 -0.113385 0.500000
v -0.060906 -0.147885 0.500000
v 0.000000 -0.160000 0.500000
v 0.060906 -0.147885 0.500000
v 0.112540 -0.113385 0.500000
v 0.147040 -0.061751 0.500000
v 0.159155 -0.000845 0.500000
v 0.147040 0.060061 0.500000
v 0.112540 0.111695 0.500000
v 0.060906 0.146195 0.500000
v -0.000000 0.158310 0.500000
v 0.000000 0.158310 0.375000
v -0.060906 0.146195 0.375000
v -0.112540 0.111695 0.375000
v -0.147040 0.060061 0.375000
v -0.159155 -0.000845 0.375000
v -0.147040 -0.061751 0.375000
v -0.112540 -0.113385 0.375000
v -0.060906 -0.147885 0.375000
v 0.000000 -0.160000 0.375000
v 0.060906 -0.147885 0.375000
v 0.112540 -0.113385 0.375000
v 0.147040 -0.061751 0.375000
v 0.159155 -0.000845 0.375000
v 0.147040 0.060061 0.375000
v 0.112540 0.111695 0.375000
v 0.060906 0.146195 0.375000
v -0.000000 0.158310 0.375000
v 0.000000 0.158310 0.250000
v -0.060906 0.146195 0.250000
v -0.112540 0.111695 0.250000
v -0.147040 0.060061 0.250000
v -0.159155 -0.000845 0.250000
v -0.147040 -0.061751 0.250000
v -0.112540 -0.113385 0.250000
v -0.060906 -0.147885 0.250000
v 0.000000 -0.160000 0.250000
v 0.060906 -0.147885 0.250000
v 0.112540 -0.113385 0.250000
v 0.147040 -0.061751 0.250000
v 0.159155 -0.000845 0.250000
v 0.147040 0.060061 0.250000
v 0.112540 0.111695 0.250000
v 0.060906 0.146195 0.250000
v -0.000000 0.158310 0.250000
v 0.000000 0.158310 0.125000
v -0.060906 0.146195 0.125000
v -0.112540 0.111694 0.125000
v -0.147040 0.060061 0.125000
v -0.159155 -0.000845 0.125000
v -0.147040 -0.061751 0.125000
v -0.112540 -0.113385 0.125000
v -0.060906 -0.147885 0.125000
v 0.000000 -0.160000 0.125000
v 0.060906 -0.147885 0.125000
v 0.112540 -0.113385 0.125000
v 0.147040 -0.061751 0.125000
v 0.159155 -0.000845 0.125000
v 0.147040 0.060061 0.125000
v 0.112540 0.111694 0.125000
v 0.060906 0.146195 0.125000
v -0.000000 0.158310 0.125000
v 0.000000 0.158310 -0.000000
v -0.060906 0.146195 -0.000000
v -0.112540 0.111694 -0.000000
v -0.147040 0.060061 -0.000000
v -0.159155 -0.000845 -0.000000
v -0.147040 -0.061751 -0.000000
v -0.112540 -0.113385 -0.000000
v -0.060906 -0.147885 -0.000000
v 0.000000 -0.160000 0.000000
v 0.060906 -0.147885 -0.000000
v 0.112540 -0.113385 -0.000000
v 0.147040 -0.061751 -0.000000
v 0.159155 -0.000845 -0.000000
v 0.147040 0.060061 -0.000000
v 0.112540 0.111694 -0.000000
v 0.060906 0.146195 -0.000000
v -0.000000 0.158310 -0.000000
v 0.000000 0.158310 -0.125000
v -0.060906 0.146195 -0.125000
v -0.112540 0.111694 -0.125000
v -0.147040 0.060061 -0.125000
v -0.159155 -0.000845 -0.125000
v -0.147040 -0.061751 -0.125000
v -0.112540 -0.113385 -0.125000
v -0.060906 -0.147885 -0.125000
v 0.000000 -0.160000 -0.125000
v 0.060906 -0.147885 -0.125000
v 0.112540 -0.113385 -0.125000
v 0.147040 -0.061751 -0.125000
v 0.159155 -0.000845 -0.125000
v 0.147040 0.060061 -0.125000
v 0.112540 0.111694 -0.125000
v 0.060906 0.146195 -0.125000
v -0.000000 0.158310 -0.125000
v 0.000000 0.158310 -0.250000
v -0.060906 0.146195 -0.250000
v -0.112540 0.111694 -0.250000
v -0.147040 0.060061 -0.250000
v -0.159155 -0.000845 -0.250000
v -0.147040 -0.061751 -0.250000
v -0.112540 -0.113385 -0.250000
v -0.060906 -0.147885 -0.250000
v 0.000000 -0.160000 -0.250000
v 0.060906 -0.147885 -0.250000
v 0.112540 -0.113385 -0.250000
v 0.147040 -0.061751 -0.250000
v 0.159155 -0.000845 -0.250000
v 0.147040 0.060061 -0.250000
v 0.112540 0.111694 -0.250000
v 0.060906 0.146195 -0.250000
v -0.000000 0.158310 -0.250000
v 0.000000 0.158310 -0.375000
v -0.060906 0.146195 -0.375000
v -0.112540 0.111694 -0.375000
v -0.147040 0.060061 -0.375000
v -0.159155 -0.000845 -0.375000
v -0.147040 -0.061751 -0.375000
v -0.112540 -0.113385 -0.375000
v -0.060906 -0.147885 -0.375000
v 0.000000 -0.160000 -0.375000
v 0.060906 -0.147885 -0.375000
v 0.112540 -0.113385 -0.375000
v 0.147040 -0.061751 -0.375000
v 0.159155 -0.000845 -0.375000
v 0.147040 0.060061 -0.375000
v 0.112540 0.111694 -0.375000
v 0.060906 0.146195 -0.375000
v -0.000000 0.158310 -0.375000
v 0.000000 0.158310 -0.500000
v -0.060906 0.146195 -0.500000
v -0.112540 0.111694 -0.500000
v -0.147040 0.060061 -0.500000
v -0.159155 -0.000845 -0.500000
v -0.147040 -0.061751 -0.500000
v -0.112540 -0.113385 -0.500000
v -0.060906 -0.147885 -0.500000
v 0.000000 -0.160000 -0.500000
v 0.060906 -0.147885 -0.500000
v 0.112540 -0.113385 -0.500000
v 0.147040 -0.061751 -0.500000
v 0.159155 -0.000845 -0.500000
v 0.147040 0.060061 -0.500000
v 0.112540 0.111694 -0.500000
v 0.060906 0.146195 -0.500000
v -0.000000 0.158310 -0.500000
v 0.000000 0.158310 -0.625000
v -0.060906 0.146195 -0.625000
v -0.112540 0.111694 -0.625000
v -0.147040 0.060061 -0.625000
v -0.159155 -0.000845 -0.625000
v -0.147040 -0.061751 -0.625000
v -0.112540 -0.113385 -0.625000
v -0.060906 -0.147885 -0.625000
v 0.000000 -0.160000 -0.625000
v 0.060906 -0.147885 -0.625000
v 0.112540 -0.113385 -0.625000
v 0.147040 -0.061751 -0.625000
v 0.159155 -0.000845 -0.625000
v 0.147040 0.060061 -0.625000
v 0.112540 0.111694 -0.625000
v 0.060906 0.146195 -0.625000
v -0.000000 0.158310 -0.625000
v 0.000000 0.158310 -0.750000
v -0.060906 0.146195 -0.750000
v -0.112540 0.111694 -0.750000
v -0.147040 0.060061 -0.750000
v -0.159155 -0.000845 -0.750000
v -0.147040 -0.061751 -0.750000
v -0.112540 -0.113385 -0.750000
v -0.060906 -0.147885 -0.750000
v 0.000000 -0.160000 -0.750000
v 0.060906 -0.147885 -0.750000
v 0.112540 -0.113385 -0.750000
v 0.147040 -0.061751 -0.750000
v 0.159155 -0.000845 -0.750000
v 0.147040 0.060061 -0.750000
v 0.112540 0.111694 -0.750000
v 0.060906 0.146195 -0.750000
v -0.000000 0.158310 -0.750000
v 0.000000 0.158310 -0.875000
v -0.060906 0.146195 -0.875000
v -0.112540 0.111694 -0.875000
v -0.147040 0.060061 -0.875000
v -0.159155 -0.000845 -0.875000
v -0.147040 -0.061751 -0.875000
v -0.112540 -0.113385 -0.875000
v -0.060906 -0.147885 -0.875000
v 0.000000 -0.160000 -0.875000
v 0.060906 -0.147885 -0.875000
v 0.112540 -0.113385 -0.875000
v 0.147040 -0.061751 -0.875000
v 0.159155 -0.000845 -0.875000
v 0.147040 0.060061 -0.875000
v 0.112540 0.111694 -0.875000
v 0.060906 0.146195 -0.875000
v -0.000000 0.158310 -0.875000
v 0.000000 0.158310 -1.000000
v -0.060906 0.146195 -1.000000
v -0.112540 0.111694 -1.000000
v -0.147040 0.060061 -1.000000
v -0.159155 -0.000845 -1.000000
v -0.147040 -0.061751 -1.000000
v -0.112540 -0.113385 -1.000000
v -0.060906 -0.147885 -1.000000
v 0.000000 -0.160000 -1.000000
v 0.060906 -0.147885 -1.000000
v 0.112540 -0.113385 -1.000000
v 0.147040 -0.061751 -1.000000
v 0.159155 -0.000845 -1.000000
v 0.147040 0.060061 -1.000000
v 0.112540 0.111694 -1.000000
v 0.060906 0.146195 -1.000000
v -0.000000 0.158310 -1.000000
vn 0.1951 -0.9808 -0.0000
vn 0.3827 -0.9239 -0.0000
vn 0.7071 -0.7071 -0.0000
vn 0.9239 -0.3827 -0.0000
vn 1.0000 -0.0000 -0.0000
vn 0.9239 0.3827 -0.0000
vn 0.7071 0.7071 -0.0000
vn 0.3827 0.9239 -0.0000
vn -0.0000 1.0000 -0.0000
vn -0.3827 0.9239 -0.0000
vn -0.7071 0.7071 -0.0000
vn -0.9239 0.3827 -0.0000
vn -1.0000 -0.0000 -0.0000
vn -0.9239 -0.3827 -0.0000
vn -0.7071 -0.7071 -0.0000
vn -0.3827 -0.9239 -0.0000
vn -0.1951 -0.9808 -0.0000
s 1
f 1//1 2//2 19//2
f 1//1 19//2 18//1
f 2//2 3//3 19//2
f 3//3 20//3 19//2
f 3//3 4//4 21//4
f 3//3 21//4 20//3
f 4//4 5//5 21//4
f 5//5 22//5 21//4
f 5//5 6//6 23//6
f 5//5 23//6 22//5
f 6//6 7//7 23//6
f 7//7 24//7 23//6
f 7//7 8//8 25//8
f 7//7 25//8 24//7
f 8//8 9//9 25//8
f 9//9 26//9 25//8
f 9//9 10//10 27//10
f 9//9 27//10 26//9
f 10//10 11//11 27//10
f 11//11 28//11 27//10
f 11//11 12//12 29//12
f 11//11 29//12 28//11
f 12//12 13//13 29//12
f 13//13 30//13 29//12
f 13//13 14//14 31//14
f 13//13 31//14 30//13
f 14//14 15//15 31//14
f 15//15 32//15 31//14
f 15//15 16//16 33//16
f 15//15 33//16 32//15
f 16//16 17//17 33//16
f 17//17 34//17 33//16
f 18//1 19//2 35//1
f 19//2 36//2 35//1
f 19//2 20//3 37//3
f 19//2 37//3 36//2
f 20//3 21//4 37//3
f 21//4 38//4 37//3
f 21//4 22//5 39//5
f 21//4 39//5 38//4
f 22//5 23//6 39//5
f 23//6 40//6 39//5
f 23//6 24//7 41//7
f 23//6 41//7 40//6
f 24//7 25//8 41//7
f 25//8 42//8 41//7
f 25//8 26//9 43//9
f 25//8 43//9 42//8
f 26//9 27//10 43//9
f 27//10 44//10 43//9
f 27//10 28//11 45//11
f 27//10 45//11 44//10
f 28//11 29//12 45//11
f 29//12 46//12 45//11
f 29//12 30//13 47//13
f 29//12 47//13 46//12
f 30//13 31//14 47//13
f 31//14 48//14 47//13
f 31//14 32//15 49//15
f 31//14 49//15 48//14
f 32//15 33//16 49//15
f 33//16 50//16 49//15
f 33//16 34//17 51//17
f 33//16 51//17 50//16
f 35//1 36//2 53//2
f 35//1 53//2 52//1
f 36//2 37//3 53//2
f 37//3 54//3 53//2
f 37//3 38//4 55//4
f 37//3 55//4 54//3
f 38//4 39//5 55//4
f 39//5 56//5 55//4
f 39//5 40//6 57//6
f 39//5 57//6 56//5
f 40//6 41//7 57//6
f 41//7 58//7 57//6
f 41//7 42//8 59//8
f 41//7 59//8 58//7
f 42//8 43//9 59//8
f 43//9 60//9 59//8
f 43//9 44//10 61//10
f 43//9 61//10 60//9
f 44//10 45//11 61//10
f 45//11 62//11 61//10
f 45//11 46//12 63//12
f 45//11 63//12 62//11
f 46//12 47//13 63//12
f 47//13 64//13 63//12
f 47//13 48//14 65//14
f 47//13 65//14 64//13
f 48//14 49//15 65//14
f 49//15 66//15 65//14
f 49//15 50//16 67//16
f 49//15 67//16 66//15
f 50//16 51//17 67//16
f 51//17 68//17 67//16
f 52//1 53//2 69//1
f 53//2 70//2 69//1
f 53//2 54//3 71//3
f 53//2 71//3 70//2
f 54//3 55//4 71//3
f 55//4 72//4 71//3
f 55//4 56//5 73//5
f 55//4 73//5 72//4
f 56//5 57//6 73//5
f 57//6 74//6 73//5
f 57//6 58//7 75//7
f 57//6 75//7 74//6
f 58//7 59//8 75//7
f 59//8 76//8 75//7
f 59//8 60//9 77//9
f 59//8 77//9 76//8
f 60//9 61//10 77//9
f 61//10 78//10 77//9
f 61//10 62//11 79//11
f 61//10 79//11 78//10
f 62//11 63//12 79//11
f 63//12 80//12 79//11
f 63//12 64//13 81//13
f 63//12 81//13 80//12
f 64//13 65//14 81//13
f 65//14 82//14 81//13
f 65//14 66//15 83//15
f 65//14 83//15 82//14
f 66//15 67//16 83//15
f 67//16 84//16 83//15
f 67//16 68//17 85//17
f 67//16 85//17 84//16
f 69//1 70//2 87//2
f 69//1 87//2 86//1
f 70//2 71//3 87//2
f 71//3 88//3 87//2
f 71//3 72//4 89//4
f 71//3 89//4 88//3
f 72//4 73//5 89//4
f 73//5 90//5 89//4
f 73//5 74//6 91//6
f 73//5 91//6 90//5
f 74//6 75//7 91//6
f 75//7 92//7 91//6
f 75//7 76//8 93//8
f 75//7 93//8 92//7
f 76//8 77//9 93//8
f 77//9 94//9 93//8
f 77//9 78//10 95//10
f 77//9 95//10 94//9
f 78//10 79//11 95//10
f 79//11 96//11 95//10
f 79//11 80//12 97//12
f 79//11 97//12 96//11
f 80//12 81//13 97//12
f 81//13 98//13 97//12
f 81//13 82//14 99//14
f 81//13 99//14 98//13
f 82//14 83//15 99//14
f 83//15 100//15 99//14
f 83//15 84//16 101//16
f 83//15 101//16 100//15
f 84//16 85//17 101//16
f 85//17 102//17 101//16
f 86//1 87//2 103//1
f 87//2 104//2 103//1
f 87//2 88//3 105//3
f 87//2 105//3 104//2
f 88//3 89//4 105//3
f 89//4 106//4 105//3
f 89//4 90//5 107//5
f 89//4 107//5 106//4
f 90//5 91//6 107//5
f 91//6 108//6 107//5
f 91//6 92//7 109//7
f 91//6 109//7 108//6
f 92//7 93//8 109//7
f 93//8 110//8 109//7
f 93//8 94//9 111//9
f 93//8 111//9 110//8
f 94//9 95//10 111//9
f 95//10 112//10 111//9
f 95//10 96//11 113//11
f 95//10 113//11 112//10
f 96//11 97//12 113//11
f 97//12 114//12 113//11
f 97//12 98//13 115//13
f 97//12 115//13 114//12
f 98//13 99//14 115//13
f 99//14 116//14 115//13
f 99//14 100//15 117//15
f 99//14 117//15 116//14
f 100//15 101//16 117//15
f 101//16 118//16 117//15
f 101//16 102//17 119//17
f 101//16 119//17 118//16
f 103//1 104//2 121//2
f 103//1 121//2 120//1
f 104//2 105//3 121//2
f 105//3 122//3 121//2
f 105//3 106//4 123//4
f 105//3 123//4 122//3
f 106//4 107//5 123//4
f 107//5 124//5 123//4
f 107//5 108//6 125//6
f 107//5 125//6 124//5
f 108//6 109//7 125//6
f 109//7 126//7 125//6
f 109//7 110//8 127//8
f 109//7 127//8 126//7
f 110//8 111//9 127//8
f 111//9 128//9 127//8
f 111//9 112//10 129//10
f 111//9 129//10 128//9
f 112//10 113//11 129//10
f 113//11 130//11 129//10
f 113//11 114//12 131//12
f 113//11 131//12 130//11
f 114//12 115//13 131//12
f 115//13 132//13 131//12
f 115//13 116//14 133//14
f 115//13 133//14 132//13
f 116//14 117//15 133//14
f 117//15 134//15 133//14
f 117//15 118//16 135//16
f 117//15 135//16 134//15
f 118//16 119//17 135//16
f 119//17 136//17 135//16
f 120//1 121//2 137//1
f 121//2 138//2 137//1
f 121//2 122//3 139//3
f 121//2 139//3 138//2
f 122//3 123//4 139//3
f 123//4 140//4 139//3
f 123//4 124//5 141//5
f 123//4 141//5 140//4
f 124//5 125//6 141//5
f 125//6 142//6 141//5
f 125//6 126//7 143//7
f 125//6 143//7 142//6
f 126//7 127//8 143//7
f 127//8 144//8 143//7
f 127//8 128//9 145//9
f 127//8 145//9 144//8
f 128//9 129//10 145//9
f 129//10 146//10 145//9
f 129//10 130//11 147//11
f 129//10 147//11 146//10
f 130//11 131//12 147//11
f 131//12 148//12 147//11
f 131//12 132//13 149//13
f 131//12 149//13 148//12
f 132//13 133//14 149//13
f 133//14 150//14 149//13
f 133//14 134//15 151//15
f 133//14 151//15 150//14
f 134//15 135//16 151//15
f 135//16 152//16 151//15
f 135//16 136//17 153//17
f 135//16 153//17 152//16
f 137//1 138//2 155//2
f 137//1 155//2 154//1
f 138//2 139//3 155//2
f 139//3 156//3 155//2
f 139//3 140//4 157//4
f 139//3 157//4 156//3
f 140//4 141//5 157//4
f 141//5 158//5 157//4
f 141//5 142//6 159//6
f 141//5 159//6 158//5
f 142//6 143//7 159//6
f 143//7 160//7 159//6
f 143//7 144//8 161//8
f 143//7 161//8 160//7
f 144//8 145//9 161//8
f 145//9 162//9 161//8
f 145//9 146//10 163//10
f 145//9 163//10 162//9
f 146//10 147//11 163//10
f 147//11 164//11 163//10
f 147//11 148//12 165//12
f 147//11 165//12 164//11
f 148//12 149//13 165//12
f 149//13 166//13 165//12
f 149//13 150//14 167//14
f 149//13 167//14 166//13
f 150//14 151//15 167//14
f 151//15 168//15 167//14
f 151//15 152//16 169//16
f 151//15 169//16 168//15
f 152//16 153//17 169//16
f 153//17 170//17 169//16
f 154//1 155//2 171//1
f 155//2 172//2 171//1
f 155//2 156//3 173//3
f 155//2 173//3 172//2
f 156//3 157//4 173//3
f 157//4 174//4 173//3
f 157//4 158//5 175//5
f 157//4 175//5 174//4
f 158//5 159//6 175//5
f 159//6 176//6 175//5
f 159//6 160//7 177//7
f 159//6 177//7 176//6
f 160//7 161//8 177//7
f 161//8 178//8 177//7
f 161//8 162//9 179//9
f 161//8 179//9 178//8
f 162//9 163//10 179//9
f 163//10 180//10 179//9
f 163//10 164//11 181//11
f 163//10 181//11 180//10
f 164//11 165//12 181//11
f 165//12 182//12 181//11
f 165//12 166//13 183//13
f 165//12 183//13 182//12
f 166//13 167//14 183//13
f 167//14 184//14 183//13
f 167//14 168//15 185//15
f 167//14 185//15 184//14
f 168//15 169//16 185//15
f 169//16 186//16 185//15
f 169//16 170//17 187//17
f 169//16 187//17 186//16
f 171//1 172//2 189//2
f 171//1 189//2 188//1
f 172//2 173//3 189//2
f 173//3 190//3 189//2
f 173//3 174//4 191//4
f 173//3 191//4 190//3
f 174//4 175//5 191//4
f 175//5 192//5 191//4
f 175//5 176//6 193//6
f 175//5 193//6 192//5
f 176//6 177//7 193//6
f 177//7 194//7 193//6
f 177//7 178//8 195//8
f 177//7 195//8 194//7
f 178//8 179//9 195//8
f 179//9 196//9 195//8
f 179//9 180//10 197//10
f 179//9 197//10 196//9
f 180//10 181//11 197//10
f 181//11 198//11 197//10
f 181//11 182//12 199//12
f 181//11 199//12 198//11
f 182//12 183//13 199//12
f 183//13 200//13 199//12
f 183//13 184//14 201//14
f 183//13 201//14 200//13
f 184//14 185//15 201//14
f 185//15 202//15 201//14
f 185//15 186//16 203//16
f 185//15 203//16 202//15
f 186//16 187//17 203//16
f 187//17 204//17 203//16
f 188//1 189//2 205//1
f 189//2 206//2 205//1
f 189//2 190//3 207//3
f 189//2 207//3 206//2
f 190//3 191//4 207//3
f 191//4 208//4 207//3
f 191//4 192//5 209//5
f 191//4 209//5 208//4
f 192//5 193//6 209//5
f 193//6 210//6 209//5
f 193//6 194//7 211//7
f 193//6 211//7 210//6
f 194//7 195//8 211//7
f 195//8 212//8 211//7
f 195//8 196//9 213//9
f 195//8 213//9 212//8
f 196//9 197//10 213//9
f 197//10 214//10 213//9
f 197//10 198//11 215//11
f 197//10 215//11 214//10
f 198//11 199//12 215//11
f 199//12 216//12 215//11
f 199//12 200//13 217//13
f 199//12 217//13 216//12
f 200//13 201//14 217//13
f 201//14 218//14 217//13
f 201//14 202//15 219//15
f 201//14 219//15 218//14
f 202//15 203//16 219//15
f 203//16 220//16 219//15
f 203//16 204//17 221//17
f 203//16 221//17 220//16
f 205//1 206//2 223//2
f 205//1 223//2 222//1
f 206//2 207//3 223//2
f 207//3 224//3 223//2
f 207//3 208//4 225//4
f 207//3 225//4 224//3
f 208//4 209//5 225//4
f 209//5 226//5 225//4
f 209//5 210//6 227//6
f 209//5 227//6 226//5
f 210//6 211//7 227//6
f 211//7 228//7 227//6
f 211//7 212//8 229//8
f 211//7 229//8 228//7
f 212//8 213//9 229//8
f 213//9 230//9 229//8
f 213//9 214//10 231//10
f 213//9 231//10 230//9
f 214//10 215//11 231//10
f 215//11 232//11 231//10
f 215//11 216//12 233//12
f 215//11 233//12 232//11
f 216//12 217//13 233//12
f 217//13 234//13 233//12
f 217//13 218//14 235//14
f 217//13 235//14 234//13
f 218//14 219//15 235//14
f 219//15 236//15 235//14
f 219//15 220//16 237//16
f 219//15 237//16 236//15
f 220//16 221//17 237//16
f 221//17 238//17 237//16
f 222//1 223//2 239//1
f 223//2 240//2 239//1
f 223//2 224//3 241//3
f 223//2 241//3 240//2
f 224//3 225//4 241//3
f 225//4 242//4 241//3
f 225//4 226//5 243//5
f 225//4 243//5 242//4
f 226//5 227//6 243//5
f 227//6 244//6 243//5
f 227//6 228//7 245//7
f 227//6 245//7 244//6
f 228//7 229//8 245//7
f 229//8 246//8 245//7
f 229//8 230//9 247//9
f 229//8 247//9 246//8
f 230//9 231//10 247//9
f 231//10 248//10 247//9
f 231//10 232//11 249//11
f 231//10 249//11 248//10
f 232//11 233//12 249//11
f 233//12 250//12 249//11
f 233//12 234//13 251//13
f 233//12 251//13 250//12
f 234//13 235//14 251//13
f 235//14 252//14 251//13
f 235//14 236//15 253//15
f 235//14 253//15 252//14
f 236//15 237//16 253//15
f 237//16 254//16 253//15
f 237//16 238//17 255//17
f 237//16 255//17 254//16
f 239//1 240//2 257//2
f 239//1 257//2 256//1
f 240//2 241//3 257//2
f 241//3 258//3 257//2
f 241//3 242//4 259//4
f 241//3 259//4 258//3
f 242//4 243//5 259//4
f 243//5 260//5 259//4
f 243//5 244//6 261//6
f 243//5 261//6 260//5
f 244//6 245//7 261//6
f 245//7 262//7 261//6
f 245//7 246//8 263//8
f 245//7 263//8 262//7
f 246//8 247//9 263//8
f 247//9 264//9 263//8
f 247//9 248//10 265//10
f 247//9 265//10 264//9
f 248//10 249//11 265//10
f 249//11 266//11 265//10
f 249//11 250//12 267//12
f 249//11 267//12 266//11
f 250//12 251//13 267//12
f 251//13 268//13 267//12
f 251//13 252//14 269//14
f 251//13 269//14 268//13
f 252//14 253//15 269//14
f 253//15 270//15 269//14
f 253//15 254//16 271//16
f 253//15 271//16 270//15
f 254//16 255//17 271//16
f 255//17 272//17 271//16
f 256//1 257//2 273//1
f 257//2 274//2 273//1
f 257//2 258//3 275//3
f 257//2 275//3 274//2
f 258//3 259//4 275//3
f 259//4 276//4 275//3
f 259//4 260//5 277//5
f 259//4 277//5 276//4
f 260//5 261//6 277//5
f 261//6 278//6 277//5
f 261//6 262//7 279//7
f 261//6 279//7 278//6
f 262//7 263//8 279//7
f 263//8 280//8 279//7
f 263//8 264//9 281//9
f 263//8 281//9 280//8
f 264//9 265//10 281//9
f 265//10 282//10 281//9
f 265//10 266//11 283//11
f 265//10 283//11 282//10
f 266//11 267//12 283//11
f 267//12 284//12 283//11
f 267//12 268//13 285//13
f 267//12 285//13 284//12
f 268//13 269//14 285//13
f 269//14 286//14 285//13
f 269//14 270//15 287//15
f 269//14 287//15 286//14
f 270//15 271//16 287//15
f 271//16 288//16 287//15
f 271//16 272//17 289//17
f 271//16 289//17 288//16
