# Blender 4.4.3
# www.blender.org
o squarex_16x16
v -0.500000 -0.160000 1.000000
v -0.437500 -0.160000 1.000000
v -0.375000 -0.160000 1.000000
v -0.312500 -0.160000 1.000000
v -0.250000 -0.160000 1.000000
v -0.187500 -0.160000 1.000000
v -0.125000 -0.160000 1.000000
v -0.062500 -0.160000 1.000000
v 0.000000 -0.160000 1.000000
v 0.062500 -0.160000 1.000000
v 0.125000 -0.160000 1.000000
v 0.187500 -0.160000 1.000000
v 0.250000 -0.160000 1.000000
v 0.312500 -0.160000 1.000000
v 0.375000 -0.160000 1.000000
v 0.437500 -0.160000 1.000000
v 0.500000 -0.160000 1.000000
v -0.500000 -0.160000 0.875000
v -0.437500 -0.160000 0.875000
v -0.375000 -0.160000 0.875000
v -0.312500 -0.160000 0.875000
v -0.250000 -0.160000 0.875000
v -0.187500 -0.160000 0.875000
v -0.125000 -0.160000 0.875000
v -0.062500 -0.160000 0.875000
v 0.000000 -0.160000 0.875000
v 0.062500 -0.160000 0.875000
v 0.125000 -0.160000 0.875000
v 0.187500 -0.160000 0.875000
v 0.250000 -0.160000 0.875000
v 0.312500 -0.160000 0.875000
v 0.375000 -0.160000 0.875000
v 0.437500 -0.160000 0.875000
v 0.500000 -0.160000 0.875000
v -0.500000 -0.160000 0.750000
v -0.437500 -0.160000 0.750000
v -0.375000 -0.160000 0.750000
v -0.312500 -0.160000 0.750000
v -0.250000 -0.160000 0.750000
v -0.187500 -0.160000 0.750000
v -0.125000 -0.160000 0.750000
v -0.062500 -0.160000 0.750000
v 0.000000 -0.160000 0.750000
v 0.062500 -0.160000 0.750000
v 0.125000 -0.160000 0.750000
v 0.187500 -0.160000 0.750000
v 0.250000 -0.160000 0.750000
v 0.312500 -0.160000 0.750000
v 0.375000 -0.160000 0.750000
v 0.437500 -0.160000 0.750000
v 0.500000 -0.160000 0.750000
v -0.500000 -0.160000 0.625000
v -0.437500 -0.160000 0.625000
v -0.375000 -0.160000 0.625000
v -0.312500 -0.160000 0.625000
v -0.250000 -0.160000 0.625000
v -0.187500 -0.160000 0.625000
v -0.125000 -0.160000 0.625000
v -0.062500 -0.160000 0.625000
v 0.000000 -0.160000 0.625000
v 0.062500 -0.160000 0.625000
v 0.125000 -0.160000 0.625000
v 0.187500 -0.160000 0.625000
v 0.250000 -0.160000 0.625000
v 0.312500 -0.160000 0.625000
v 0.375000 -0.160000 0.625000
v 0.437500 -0.160000 0.625000
v 0.500000 -0.160000 0.625000
v -0.500000 -0.160000 0.500000
v -0.437500 -0.160000 0.500000
v -0.375000 -0.160000 0.500000
v -0.312500 -0.160000 0.500000
v -0.250000 -0.160000 0.500000
v -0.187500 -0.160000 0.500000
v -0.125000 -0.160000 0.500000
v -0.062500 -0.160000 0.500000
v 0.000000 -0.160000 0.500000
v 0.062500 -0.160000 0.500000
v 0.125000 -0.160000 0.500000
v 0.187500 -0.160000 0.500000
v 0.250000 -0.160000 0.500000
v 0.312500 -0.160000 0.500000
v 0.375000 -0.160000 0.500000
v 0.437500 -0.160000 0.500000
v 0.500000 -0.160000 0.500000
v -0.500000 -0.160000 0.375000
v -0.437500 -0.160000 0.375000
v -0.375000 -0.160000 0.375000
v -0.312500 -0.160000 0.375000
v -0.250000 -0.160000 0.375000
v -0.187500 -0.160000 0.375000
v -0.125000 -0.160000 0.375000
v -0.062500 -0.160000 0.375000
v 0.000000 -0.160000 0.375000
v 0.062500 -0.160000 0.375000
v 0.125000 -0.160000 0.375000
v 0.187500 -0.160000 0.375000
v 0.250000 -0.160000 0.375000
v 0.312500 -0.160000 0.375000
v 0.375000 -0.160000 0.375000
v 0.437500 -0.160000 0.375000
v 0.500000 -0.160000 0.375000
v -0.500000 -0.160000 0.250000
v -0.437500 -0.160000 0.250000
v -0.375000 -0.160000 0.250000
v -0.312500 -0.160000 0.250000
v -0.250000 -0.160000 0.250000
v -0.187500 -0.160000 0.250000
v -0.125000 -0.160000 0.250000
v -0.062500 -0.160000 0.250000
v 0.000000 -0.160000 0.250000
v 0.062500 -0.160000 0.250000
v 0.125000 -0.160000 0.250000
v 0.187500 -0.160000 0.250000
v 0.250000 -0.160000 0.250000
v 0.312500 -0.160000 0.250000
v 0.375000 -0.160000 0.250000
v 0.437500 -0.160000 0.250000
v 0.500000 -0.160000 0.250000
v -0.500000 -0.160000 0.125000
v -0.437500 -0.160000 0.125000
v -0.375000 -0.160000 0.125000
v -0.312500 -0.160000 0.125000
v -0.250000 -0.160000 0.125000
v -0.187500 -0.160000 0.125000
v -0.125000 -0.160000 0.125000
v -0.062500 -0.160000 0.125000
v 0.000000 -0.160000 0.125000
v 0.062500 -0.160000 0.125000
v 0.125000 -0.160000 0.125000
v 0.187500 -0.160000 0.125000
v 0.250000 -0.160000 0.125000
v 0.312500 -0.160000 0.125000
v 0.375000 -0.160000 0.125000
v 0.437500 -0.160000 0.125000
v 0.500000 -0.160000 0.125000
v -0.500000 -0.160000 0.000000
v -0.437500 -0.160000 0.000000
v -0.375000 -0.160000 0.000000
v -0.312500 -0.160000 0.000000
v -0.250000 -0.160000 0.000000
v -0.187500 -0.160000 0.000000
v -0.125000 -0.160000 0.000000
v -0.062500 -0.160000 0.000000
v 0.000000 -0.160000 0.000000
v 0.062500 -0.160000 0.000000
v 0.125000 -0.160000 0.000000
v 0.187500 -0.160000 0.000000
v 0.250000 -0.160000 0.000000
v 0.312500 -0.160000 0.000000
v 0.375000 -0.160000 0.000000
v 0.437500 -0.160000 0.000000
v 0.500000 -0.160000 0.000000
v -0.500000 -0.160000 -0.125000
v -0.437500 -0.160000 -0.125000
v -0.375000 -0.160000 -0.125000
v -0.312500 -0.160000 -0.125000
v -0.250000 -0.160000 -0.125000
v -0.187500 -0.160000 -0.125000
v -0.125000 -0.160000 -0.125000
v -0.062500 -0.160000 -0.125000
v 0.000000 -0.160000 -0.125000
v 0.062500 -0.160000 -0.125000
v 0.125000 -0.160000 -0.125000
v 0.187500 -0.160000 -0.125000
v 0.250000 -0.160000 -0.125000
v 0.312500 -0.160000 -0.125000
v 0.375000 -0.160000 -0.125000
v 0.437500 -0.160000 -0.125000
v 0.500000 -0.160000 -0.125000
v -0.500000 -0.160000 -0.250000
v -0.437500 -0.160000 -0.250000
v -0.375000 -0.160000 -0.250000
v -0.312500 -0.160000 -0.250000
v -0.250000 -0.160000 -0.250000
v -0.187500 -0.160000 -0.250000
v -0.125000 -0.160000 -0.250000
v -0.062500 -0.160000 -0.250000
v 0.000000 -0.160000 -0.250000
v 0.062500 -0.160000 -0.250000
v 0.125000 -0.160000 -0.250000
v 0.187500 -0.160000 -0.250000
v 0.250000 -0.160000 -0.250000
v 0.312500 -0.160000 -0.250000
v 0.375000 -0.160000 -0.250000
v 0.437500 -0.160000 -0.250000
v 0.500000 -0.160000 -0.250000
v -0.500000 -0.160000 -0.375000
v -0.437500 -0.160000 -0.375000
v -0.375000 -0.160000 -0.375000
v -0.312500 -0.160000 -0.375000
v -0.250000 -0.160000 -0.375000
v -0.187500 -0.160000 -0.375000
v -0.125000 -0.160000 -0.375000
v -0.062500 -0.160000 -0.375000
v 0.000000 -0.160000 -0.375000
v 0.062500 -0.160000 -0.375000
v 0.125000 -0.160000 -0.375000
v 0.187500 -0.160000 -0.375000
v 0.250000 -0.160000 -0.375000
v 0.312500 -0.160000 -0.375000
v 0.375000 -0.160000 -0.375000
v 0.437500 -0.160000 -0.375000
v 0.500000 -0.160000 -0.375000
v -0.500000 -0.160000 -0.500000
v -0.437500 -0.160000 -0.500000
v -0.375000 -0.160000 -0.500000
v -0.312500 -0.160000 -0.500000
v -0.250000 -0.160000 -0.500000
v -0.187500 -0.160000 -0.500000
v -0.125000 -0.160000 -0.500000
v -0.062500 -0.160000 -0.500000
v 0.000000 -0.160000 -0.500000
v 0.062500 -0.160000 -0.500000
v 0.125000 -0.160000 -0.500000
v 0.187500 -0.160000 -0.500000
v 0.250000 -0.160000 -0.500000
v 0.312500 -0.160000 -0.500000
v 0.375000 -0.160000 -0.500000
v 0.437500 -0.160000 -0.500000
v 0.500000 -0.160000 -0.500000
v -0.500000 -0.160000 -0.625000
v -0.437500 -0.160000 -0.625000
v -0.375000 -0.160000 -0.625000
v -0.312500 -0.160000 -0.625000
v -0.250000 -0.160000 -0.625000
v -0.187500 -0.160000 -0.625000
v -0.125000 -0.160000 -0.625000
v -0.062500 -0.160000 -0.625000
v 0.000000 -0.160000 -0.625000
v 0.062500 -0.160000 -0.625000
v 0.125000 -0.160000 -0.625000
v 0.187500 -0.160000 -0.625000
v 0.250000 -0.160000 -0.625000
v 0.312500 -0.160000 -0.625000
v 0.375000 -0.160000 -0.625000
v 0.437500 -0.160000 -0.625000
v 0.500000 -0.160000 -0.625000
v -0.500000 -0.160000 -0.750000
v -0.437500 -0.160000 -0.750000
v -0.375000 -0.160000 -0.750000
v -0.312500 -0.160000 -0.750000
v -0.250000 -0.160000 -0.750000
v -0.187500 -0.160000 -0.750000
v -0.125000 -0.160000 -0.750000
v -0.062500 -0.160000 -0.750000
v 0.000000 -0.160000 -0.750000
v 0.062500 -0.160000 -0.750000
v 0.125000 -0.160000 -0.750000
v 0.187500 -0.160000 -0.750000
v 0.250000 -0.160000 -0.750000
v 0.312500 -0.160000 -0.750000
v 0.375000 -0.160000 -0.750000
v 0.437500 -0.160000 -0.750000
v 0.500000 -0.160000 -0.750000
v -0.500000 -0.160000 -0.875000
v -0.437500 -0.160000 -0.875000
v -0.375000 -0.160000 -0.875000
v -0.312500 -0.160000 -0.875000
v -0.250000 -0.160000 -0.875000
v -0.187500 -0.160000 -0.875000
v -0.125000 -0.160000 -0.875000
v -0.062500 -0.160000 -0.875000
v 0.000000 -0.160000 -0.875000
v 0.062500 -0.160000 -0.875000
v 0.125000 -0.160000 -0.875000
v 0.187500 -0.160000 -0.875000
v 0.250000 -0.160000 -0.875000
v 0.312500 -0.160000 -0.875000
v 0.375000 -0.160000 -0.875000
v 0.437500 -0.160000 -0.875000
v 0.500000 -0.160000 -0.875000
v -0.500000 -0.160000 -1.000000
v -0.437500 -0.160000 -1.000000
v -0.375000 -0.160000 -1.000000
v -0.312500 -0.160000 -1.000000
v -0.250000 -0.160000 -1.000000
v -0.187500 -0.160000 -1.000000
v -0.125000 -0.160000 -1.000000
v -0.062500 -0.160000 -1.000000
v 0.000000 -0.160000 -1.000000
v 0.062500 -0.160000 -1.000000
v 0.125000 -0.160000 -1.000000
v 0.187500 -0.160000 -1.000000
v 0.250000 -0.160000 -1.000000
v 0.312500 -0.160000 -1.000000
v 0.375000 -0.160000 -1.000000
v 0.437500 -0.160000 -1.000000
v 0.500000 -0.160000 -1.000000
vn -0.0000 1.0000 -0.0000
s 1
f 1//1 2//1 19//1
f 1//1 19//1 18//1
f 2//1 3//1 19//1
f 3//1 20//1 19//1
f 3//1 4//1 21//1
f 3//1 21//1 20//1
f 4//1 5//1 21//1
f 5//1 22//1 21//1
f 5//1 6//1 23//1
f 5//1 23//1 22//1
f 6//1 7//1 23//1
f 7//1 24//1 23//1
f 7//1 8//1 25//1
f 7//1 25//1 24//1
f 8//1 9//1 25//1
f 9//1 26//1 25//1
f 9//1 10//1 27//1
f 9//1 27//1 26//1
f 10//1 11//1 27//1
f 11//1 28//1 27//1
f 11//1 12//1 29//1
f 11//1 29//1 28//1
f 12//1 13//1 29//1
f 13//1 30//1 29//1
f 13//1 14//1 31//1
f 13//1 31//1 30//1
f 14//1 15//1 31//1
f 15//1 32//1 31//1
f 15//1 16//1 33//1
f 15//1 33//1 32//1
f 16//1 17//1 33//1
f 17//1 34//1 33//1
f 18//1 19//1 35//1
f 19//1 36//1 35//1
f 19//1 20//1 37//1
f 19//1 37//1 36//1
f 20//1 21//1 37//1
f 21//1 38//1 37//1
f 21//1 22//1 39//1
f 21//1 39//1 38//1
f 22//1 23//1 39//1
f 23//1 40//1 39//1
f 23//1 24//1 41//1
f 23//1 41//1 40//1
f 24//1 25//1 41//1
f 25//1 42//1 41//1
f 25//1 26//1 43//1
f 25//1 43//1 42//1
f 26//1 27//1 43//1
f 27//1 44//1 43//1
f 27//1 28//1 45//1
f 27//1 45//1 44//1
f 28//1 29//1 45//1
f 29//1 46//1 45//1
f 29//1 30//1 47//1
f 29//1 47//1 46//1
f 30//1 31//1 47//1
f 31//1 48//1 47//1
f 31//1 32//1 49//1
f 31//1 49//1 48//1
f 32//1 33//1 49//1
f 33//1 50//1 49//1
f 33//1 34//1 51//1
f 33//1 51//1 50//1
f 35//1 36//1 53//1
f 35//1 53//1 52//1
f 36//1 37//1 53//1
f 37//1 54//1 53//1
f 37//1 38//1 55//1
f 37//1 55//1 54//1
f 38//1 39//1 55//1
f 39//1 56//1 55//1
f 39//1 40//1 57//1
f 39//1 57//1 56//1
f 40//1 41//1 57//1
f 41//1 58//1 57//1
f 41//1 42//1 59//1
f 41//1 59//1 58//1
f 42//1 43//1 59//1
f 43//1 60//1 59//1
f 43//1 44//1 61//1
f 43//1 61//1 60//1
f 44//1 45//1 61//1
f 45//1 62//1 61//1
f 45//1 46//1 63//1
f 45//1 63//1 62//1
f 46//1 47//1 63//1
f 47//1 64//1 63//1
f 47//1 48//1 65//1
f 47//1 65//1 64//1
f 48//1 49//1 65//1
f 49//1 66//1 65//1
f 49//1 50//1 67//1
f 49//1 67//1 66//1
f 50//1 51//1 67//1
f 51//1 68//1 67//1
f 52//1 53//1 69//1
f 53//1 70//1 69//1
f 53//1 54//1 71//1
f 53//1 71//1 70//1
f 54//1 55//1 71//1
f 55//1 72//1 71//1
f 55//1 56//1 73//1
f 55//1 73//1 72//1
f 56//1 57//1 73//1
f 57//1 74//1 73//1
f 57//1 58//1 75//1
f 57//1 75//1 74//1
f 58//1 59//1 75//1
f 59//1 76//1 75//1
f 59//1 60//1 77//1
f 59//1 77//1 76//1
f 60//1 61//1 77//1
f 61//1 78//1 77//1
f 61//1 62//1 79//1
f 61//1 79//1 78//1
f 62//1 63//1 79//1
f 63//1 80//1 79//1
f 63//1 64//1 81//1
f 63//1 81//1 80//1
f 64//1 65//1 81//1
f 65//1 82//1 81//1
f 65//1 66//1 83//1
f 65//1 83//1 82//1
f 66//1 67//1 83//1
f 67//1 84//1 83//1
f 67//1 68//1 85//1
f 67//1 85//1 84//1
f 69//1 70//1 87//1
f 69//1 87//1 86//1
f 70//1 71//1 87//1
f 71//1 88//1 87//1
f 71//1 72//1 89//1
f 71//1 89//1 88//1
f 72//1 73//1 89//1
f 73//1 90//1 89//1
f 73//1 74//1 91//1
f 73//1 91//1 90//1
f 74//1 75//1 91//1
f 75//1 92//1 91//1
f 75//1 76//1 93//1
f 75//1 93//1 92//1
f 76//1 77//1 93//1
f 77//1 94//1 93//1
f 77//1 78//1 95//1
f 77//1 95//1 94//1
f 78//1 79//1 95//1
f 79//1 96//1 95//1
f 79//1 80//1 97//1
f 79//1 97//1 96//1
f 80//1 81//1 97//1
f 81//1 98//1 97//1
f 81//1 82//1 99//1
f 81//1 99//1 98//1
f 82//1 83//1 99//1
f 83//1 100//1 99//1
f 83//1 84//1 101//1
f 83//1 101//1 100//1
f 84//1 85//1 101//1
f 85//1 102//1 101//1
f 86//1 87//1 103//1
f 87//1 104//1 103//1
f 87//1 88//1 105//1
f 87//1 105//1 104//1
f 88//1 89//1 105//1
f 89//1 106//1 105//1
f 89//1 90//1 107//1
f 89//1 107//1 106//1
f 90//1 91//1 107//1
f 91//1 108//1 107//1
f 91//1 92//1 109//1
f 91//1 109//1 108//1
f 92//1 93//1 109//1
f 93//1 110//1 109//1
f 93//1 94//1 111//1
f 93//1 111//1 110//1
f 94//1 95//1 111//1
f 95//1 112//1 111//1
f 95//1 96//1 113//1
f 95//1 113//1 112//1
f 96//1 97//1 113//1
f 97//1 114//1 113//1
f 97//1 98//1 115//1
f 97//1 115//1 114//1
f 98//1 99//1 115//1
f 99//1 116//1 115//1
f 99//1 100//1 117//1
f 99//1 117//1 116//1
f 100//1 101//1 117//1
f 101//1 118//1 117//1
f 101//1 102//1 119//1
f 101//1 119//1 118//1
f 103//1 104//1 121//1
f 103//1 121//1 120//1
f 104//1 105//1 121//1
f 105//1 122//1 121//1
f 105//1 106//1 123//1
f 105//1 123//1 122//1
f 106//1 107//1 123//1
f 107//1 124//1 123//1
f 107//1 108//1 125//1
f 107//1 125//1 124//1
f 108//1 109//1 125//1
f 109//1 126//1 125//1
f 109//1 110//1 127//1
f 109//1 127//1 126//1
f 110//1 111//1 127//1
f 111//1 128//1 127//1
f 111//1 112//1 129//1
f 111//1 129//1 128//1
f 112//1 113//1 129//1
f 113//1 130//1 129//1
f 113//1 114//1 131//1
f 113//1 131//1 130//1
f 114//1 115//1 131//1
f 115//1 132//1 131//1
f 115//1 116//1 133//1
f 115//1 133//1 132//1
f 116//1 117//1 133//1
f 117//1 134//1 133//1
f 117//1 118//1 135//1
f 117//1 135//1 134//1
f 118//1 119//1 135//1
f 119//1 136//1 135//1
f 120//1 121//1 137//1
f 121//1 138//1 137//1
f 121//1 122//1 139//1
f 121//1 139//1 138//1
f 122//1 123//1 139//1
f 123//1 140//1 139//1
f 123//1 124//1 141//1
f 123//1 141//1 140//1
f 124//1 125//1 141//1
f 125//1 142//1 141//1
f 125//1 126//1 143//1
f 125//1 143//1 142//1
f 126//1 127//1 143//1
f 127//1 144//1 143//1
f 127//1 128//1 145//1
f 127//1 145//1 144//1
f 128//1 129//1 145//1
f 129//1 146//1 145//1
f 129//1 130//1 147//1
f 129//1 147//1 146//1
f 130//1 131//1 147//1
f 131//1 148//1 147//1
f 131//1 132//1 149//1
f 131//1 149//1 148//1
f 132//1 133//1 149//1
f 133//1 150//1 149//1
f 133//1 134//1 151//1
f 133//1 151//1 150//1
f 134//1 135//1 151//1
f 135//1 152//1 151//1
f 135//1 136//1 153//1
f 135//1 153//1 152//1
f 137//1 138//1 155//1
f 137//1 155//1 154//1
f 138//1 139//1 155//1
f 139//1 156//1 155//1
f 139//1 140//1 157//1
f 139//1 157//1 156//1
f 140//1 141//1 157//1
f 141//1 158//1 157//1
f 141//1 142//1 159//1
f 141//1 159//1 158//1
f 142//1 143//1 159//1
f 143//1 160//1 159//1
f 143//1 144//1 161//1
f 143//1 161//1 160//1
f 144//1 145//1 161//1
f 145//1 162//1 161//1
f 145//1 146//1 163//1
f 145//1 163//1 162//1
f 146//1 147//1 163//1
f 147//1 164//1 163//1
f 147//1 148//1 165//1
f 147//1 165//1 164//1
f 148//1 149//1 165//1
f 149//1 166//1 165//1
f 149//1 150//1 167//1
f 149//1 167//1 166//1
f 150//1 151//1 167//1
f 151//1 168//1 167//1
f 151//1 152//1 169//1
f 151//1 169//1 168//1
f 152//1 153//1 169//1
f 153//1 170//1 169//1
f 154//1 155//1 171//1
f 155//1 172//1 171//1
f 155//1 156//1 173//1
f 155//1 173//1 172//1
f 156//1 157//1 173//1
f 157//1 174//1 173//1
f 157//1 158//1 175//1
f 157//1 175//1 174//1
f 158//1 159//1 175//1
f 159//1 176//1 175//1
f 159//1 160//1 177//1
f 159//1 177//1 176//1
f 160//1 161//1 177//1
f 161//1 178//1 177//1
f 161//1 162//1 179//1
f 161//1 179//1 178//1
f 162//1 163//1 179//1
f 163//1 180//1 179//1
f 163//1 164//1 181//1
f 163//1 181//1 180//1
f 164//1 165//1 181//1
f 165//1 182//1 181//1
f 165//1 166//1 183//1
f 165//1 183//1 182//1
f 166//1 167//1 183//1
f 167//1 184//1 183//1
f 167//1 168//1 185//1
f 167//1 185//1 184//1
f 168//1 169//1 185//1
f 169//1 186//1 185//1
f 169//1 170//1 187//1
f 169//1 187//1 186//1
f 171//1 172//1 189//1
f 171//1 189//1 188//1
f 172//1 173//1 189//1
f 173//1 190//1 189//1
f 173//1 174//1 191//1
f 173//1 191//1 190//1
f 174//1 175//1 191//1
f 175//1 192//1 191//1
f 175//1 176//1 193//1
f 175//1 193//1 192//1
f 176//1 177//1 193//1
f 177//1 194//1 193//1
f 177//1 178//1 195//1
f 177//1 195//1 194//1
f 178//1 179//1 195//1
f 179//1 196//1 195//1
f 179//1 180//1 197//1
f 179//1 197//1 196//1
f 180//1 181//1 197//1
f 181//1 198//1 197//1
f 181//1 182//1 199//1
f 181//1 199//1 198//1
f 182//1 183//1 199//1
f 183//1 200//1 199//1
f 183//1 184//1 201//1
f 183//1 201//1 200//1
f 184//1 185//1 201//1
f 185//1 202//1 201//1
f 185//1 186//1 203//1
f 185//1 203//1 202//1
f 186//1 187//1 203//1
f 187//1 204//1 203//1
f 188//1 189//1 205//1
f 189//1 206//1 205//1
f 189//1 190//1 207//1
f 189//1 207//1 206//1
f 190//1 191//1 207//1
f 191//1 208//1 207//1
f 191//1 192//1 209//1
f 191//1 209//1 208//1
f 192//1 193//1 209//1
f 193//1 210//1 209//1
f 193//1 194//1 211//1
f 193//1 211//1 210//1
f 194//1 195//1 211//1
f 195//1 212//1 211//1
f 195//1 196//1 213//1
f 195//1 213//1 212//1
f 196//1 197//1 213//1
f 197//1 214//1 213//1
f 197//1 198//1 215//1
f 197//1 215//1 214//1
f 198//1 199//1 215//1
f 199//1 216//1 215//1
f 199//1 200//1 217//1
f 199//1 217//1 216//1
f 200//1 201//1 217//1
f 201//1 218//1 217//1
f 201//1 202//1 219//1
f 201//1 219//1 218//1
f 202//1 203//1 219//1
f 203//1 220//1 219//1
f 203//1 204//1 221//1
f 203//1 221//1 220//1
f 205//1 206//1 223//1
f 205//1 223//1 222//1
f 206//1 207//1 223//1
f 207//1 224//1 223//1
f 207//1 208//1 225//1
f 207//1 225//1 224//1
f 208//1 209//1 225//1
f 209//1 226//1 225//1
f 209//1 210//1 227//1
f 209//1 227//1 226//1
f 210//1 211//1 227//1
f 211//1 228//1 227//1
f 211//1 212//1 229//1
f 211//1 229//1 228//1
f 212//1 213//1 229//1
f 213//1 230//1 229//1
f 213//1 214//1 231//1
f 213//1 231//1 230//1
f 214//1 215//1 231//1
f 215//1 232//1 231//1
f 215//1 216//1 233//1
f 215//1 233//1 232//1
f 216//1 217//1 233//1
f 217//1 234//1 233//1
f 217//1 218//1 235//1
f 217//1 235//1 234//1
f 218//1 219//1 235//1
f 219//1 236//1 235//1
f 219//1 220//1 237//1
f 219//1 237//1 236//1
f 220//1 221//1 237//1
f 221//1 238//1 237//1
f 222//1 223//1 239//1
f 223//1 240//1 239//1
f 223//1 224//1 241//1
f 223//1 241//1 240//1
f 224//1 225//1 241//1
f 225//1 242//1 241//1
f 225//1 226//1 243//1
f 225//1 243//1 242//1
f 226//1 227//1 243//1
f 227//1 244//1 243//1
f 227//1 228//1 245//1
f 227//1 245//1 244//1
f 228//1 229//1 245//1
f 229//1 246//1 245//1
f 229//1 230//1 247//1
f 229//1 247//1 246//1
f 230//1 231//1 247//1
f 231//1 248//1 247//1
f 231//1 232//1 249//1
f 231//1 249//1 248//1
f 232//1 233//1 249//1
f 233//1 250//1 249//1
f 233//1 234//1 251//1
f 233//1 251//1 250//1
f 234//1 235//1 251//1
f 235//1 252//1 251//1
f 235//1 236//1 253//1
f 235//1 253//1 252//1
f 236//1 237//1 253//1
f 237//1 254//1 253//1
f 237//1 238//1 255//1
f 237//1 255//1 254//1
f 239//1 240//1 257//1
f 239//1 257//1 256//1
f 240//1 241//1 257//1
f 241//1 258//1 257//1
f 241//1 242//1 259//1
f 241//1 259//1 258//1
f 242//1 243//1 259//1
f 243//1 260//1 259//1
f 243//1 244//1 261//1
f 243//1 261//1 260//1
f 244//1 245//1 261//1
f 245//1 262//1 261//1
f 245//1 246//1 263//1
f 245//1 263//1 262//1
f 246//1 247//1 263//1
f 247//1 264//1 263//1
f 247//1 248//1 265//1
f 247//1 265//1 264//1
f 248//1 249//1 265//1
f 249//1 266//1 265//1
f 249//1 250//1 267//1
f 249//1 267//1 266//1
f 250//1 251//1 267//1
f 251//1 268//1 267//1
f 251//1 252//1 269//1
f 251//1 269//1 268//1
f 252//1 253//1 269//1
f 253//1 270//1 269//1
f 253//1 254//1 271//1
f 253//1 271//1 270//1
f 254//1 255//1 271//1
f 255//1 272//1 271//1
f 256//1 257//1 273//1
f 257//1 274//1 273//1
f 257//1 258//1 275//1
f 257//1 275//1 274//1
f 258//1 259//1 275//1
f 259//1 276//1 275//1
f 259//1 260//1 277//1
f 259//1 277//1 276//1
f 260//1 261//1 277//1
f 261//1 278//1 277//1
f 261//1 262//1 279//1
f 261//1 279//1 278//1
f 262//1 263//1 279//1
f 263//1 280//1 279//1
f 263//1 264//1 281//1
f 263//1 281//1 280//1
f 264//1 265//1 281//1
f 265//1 282//1 281//1
f 265//1 266//1 283//1
f 265//1 283//1 282//1
f 266//1 267//1 283//1
f 267//1 284//1 283//1
f 267//1 268//1 285//1
f 267//1 285//1 284//1
f 268//1 269//1 285//1
f 269//1 286//1 285//1
f 269//1 270//1 287//1
f 269//1 287//1 286//1
f 270//1 271//1 287//1
f 271//1 288//1 287//1
f 271//1 272//1 289//1
f 271//1 289//1 288//1
