v -0.5 -0.5 0
v 0.5 -0.5 0
v 0.5 0.5 0
v -0.5 0.5 0
v 0 0 0
v -0.5 0 0
v 0 -0.5 0
v 0.5 0 0
v 0 0.5 0
v 0.25 -0.25 0
v -0.25 0.25 0
v 0.25 0.25 0
v 0 -0.25 0
v 0.25 -0.5 0
v 0.5 -0.25 0
v 0.375 -0.125 0
v 0.375 -0.375 0
v 0.375 -0.25 0
v 0.5 -0.125 0
v 0.4375 -0.0625 0
v 0.4375 -0.125 0
v 0.40625 -0.1875 0
v 0.328125 -0.1875 0
v 0.4375 -0.2421875 0
v 0.5 -0.1875 0
v 0.3671875 -0.20703125 0
v 0.328125 -0.236328125 0
v 0.28359374999999998 -0.2119140625 0
v 0.33133951822916663 -0.3125 0
v 0.26257997720714799 -0.12076540967583793 0
v 0.28594118355905762 -0.16337625006172118 0
v 0.32807859125252792 -0.13863706843939588 0
v 0.20446190732378255 -0.18033764623902082 0
v 0.32736453529225717 -0.048639820550768431 0
v 0.23967502407475205 -0.20703416786978135 0
v 0.18470644362111244 -0.24296698058476146 0
v 0.34041350532122483 -0.093537744117237309 0
v 0.38822267878724337 -0.075722678787243425 0
v 0.29303492578552948 -0.082962468523046118 0
v 0.39098707202282945 0.01240809527374398 0
v 0.24935514414954374 -0.0049442172674312723 0
v 0.4029233205091175 -0.032075050705840158 0
v 0.23268616503072104 -0.065513157461931204 0
v 0.28219762834586837 -0.03779336278211759 0
v 0.45043732471815834 -0.012937324718158394 0
v 0.32049054839215252 0.022200895776778751 0
v 0.5 0.25 0
v 0.5 0.125 0
v 0.5 0.0625 0
v 0.5 -0.375 0
v 0.453125 -0.171875 0
v 0.089768046470535712 -0.17858967186247665 0
v 0.20488561856111909 -0.36223095345349465 0
v 0.2007002086013816 -0.11853195302188957 0
v 0.12270548839276219 -0.035320278343495271 0
v 0.14752155519011034 -0.15278590291001243 0
v 0.17343784903965975 -0.065926840791223518 0
v 0.18046521313140318 0.0030708394919771731 0
v 0.11993650045570703 -0.097259424195762889 0
v 0.20284098440364995 -0.034064822842135523 0
v 0.048294592735311115 -0.063025207842910436 0
v 0.091374695584014676 -0.064951102743038225 0
v 0.072105278871397949 -0.013196610589837399 0
v 0.067564009447927842 -0.1147796999961111 0
v 0.12104882316247301 0.029817715389141686 0
v -0.033817136170323614 -0.12306181396626947 0
v 0.015705444138840785 -0.1046233906147942 0
v -0.0056388660632607501 -0.054336972661886751 0
v 0.014856923717708082 -0.17806837891825833 0
v -0.099143895815860583 -0.017172332374490007 0
v -0.047150204438507426 -0.022568022407421395 0
v -0.063581980188407272 0.072300294108379792 0
v -0.079174146669664991 -0.077948198110952382 0
v -0.068744981154356899 0.022548830038692347 0
v -0.15435910170941236 0.056577138487650225 0
v -0.11635091394172431 0.02748917665084083 0
v -0.18691993977077698 -0.025344874160753594 0
v -0.14418445777844452 -0.0088799084820856966 0
v -0.14377838165359552 -0.073627211190437969 0
v 0.35187538694264342 -0.01050755981082252 0
v 0.37267291332474028 0.1392099096301983 0
v 0.44098024304967232 0.047276139315498233 0
v 0.38373215758470014 0.076083734720000851 0
v 0.41455078125 -0.3125 0
v 0.21161533909969699 -0.29975318089854852 0
v 0.13817378563808291 -0.20939719264627316 0
v 0.076086486232845529 -0.25351863200409119 0
v 0.13219182980901734 -0.26672450638415368 0
v 0.098160275715627354 -0.21883560432258847 0
v 0.052109905415356317 -0.20744024078575568 0
v 0.080728785802167913 -0.35958086577525361 0
v 0.09336515701036141 -0.30589506445776538 0
v 0.036007559005353906 -0.29577871073021705 0
v 0.14312669149121904 -0.34593780833118509 0
v -0.25 -0.5 0
v -0.063149245813653165 -0.33672082420575322 0
v -0.019344741426356615 -0.30226609074414124 0
v -0.10232573114399507 -0.24184015538740911 0
v 0.0041689522063026452 -0.37723365158842787 0
v -0.069356857643455616 -0.28375559105628911 0
v 0.012371035065777303 -0.33348972141154676 0
v -0.050278135734945106 -0.23482542678557261 0
v -0.085161954812674634 -0.17259356809968057 0
v -0.16014579877410656 -0.32124259093370311 0
v -0.10946469065940284 -0.31530268228848807 0
v -0.125 -0.5 0
v -0.12440057970146157 -0.40704840473038051 0
v -0.13002679076096013 -0.35904385987727272 0
v -0.2113010404821295 -0.3929013076736661 0
v -0.16583170462351854 -0.38757222724891527 0
v -0.1875 -0.5 0
v -0.16776973595057465 -0.44550066931030652 0
v -0.1219089089250523 -0.45354220324385136 0
v -0.0625 -0.5 0
v -0.052916786088618717 -0.42653114890625543 0
v 0.22911866319001228 0.12118615438984048 0
v 0.04874259474893583 0.062738647591390362 0
v 0.052469257655142432 -0.15580040939212392 0
v -0.037504036165328936 -0.081410938258768384 0
v 0.4373332704487316 0.11131578567076894 0
v 0.31212742633176949 0.0960709462039393 0
v 0.35903296642464577 0.04101850476437785 0
v 0.40948127297794112 -0.27194393382352944 0
v 0.37128304895109798 -0.2939033593714715 0
v 0.5 -0.3125 0
v 0.45510684742647045 -0.28683561437270216 0
v 0.457275390625 -0.33513894008395451 0
v 0.375 -0.5 0
v 0.4375 -0.39916242608770541 0
v 0.26814319028972988 -0.33744334086802852 0
v 0.125 -0.5 0
v -0.035724161812402733 -0.18577433314786523 0
v -0.081190155197336689 -0.12533275037786318 0
v -0.14880686095374879 -0.14344754562082973 0
v -0.2249502567080266 -0.44851038269919935 0
v -0.375 -0.5 0
v -0.5 -0.25 0
v -0.3125 -0.5 0
v -0.31406809842174643 -0.39715682477339409 0
v -0.26206793580828297 -0.40992023547510203 0
v -0.26604727876783807 -0.3138225441951516 0
v -0.29906983445172697 -0.44836168154693962 0
v -0.277982370867221 -0.36244800524777787 0
v -0.35590843130528604 -0.3175436361373678 0
v -0.3234521414169057 -0.35128747560959184 0
v -0.5 -0.375 0
v -0.39789860098036445 -0.39041245858667811 0
v -0.35956324140542523 -0.43828165034985733 0
v -0.4375 -0.5 0
v -0.41739978665007332 -0.44531446392422036 0
v -0.5 -0.4375 0
v -0.45188454712817056 -0.40215106909750442 0
v -0.46050682685732136 -0.46050682685732136 0
v -0.5 -0.3125 0
v -0.45064767249054311 -0.34375 0
v -0.44564248535621154 -0.28125 0
v -0.079427682412266443 -0.46043252897987347 0
v -0.03125 -0.46671678454448312 0
v 0.030982405971623606 -0.4395981540656948 0
v -0.079749214269861535 -0.38410020235934589 0
v 0.22144925565577622 0.055267100808176095 0
v 0.040682180288551084 0.018697154624047307 0
v 0.0023617722695360444 0.04846885341567142 0
v 0.00025577499250251101 0.13782415384875846 0
v 0.013910184468117204 0.093443503774132464 0
v 0.085757629182243722 0.13983933001885873 0
v 0.5 0.1875 0
v 0.35270358735883889 0.10317959291931844 0
v 0.32497478026709192 0.14209694270621731 0
v 0.35394176000426258 0.22520905776693689 0
v 0.27727259827522055 0.13060611897096885 0
v 0.35117923019449959 0.17956790611671203 0
v 0.26138629362416488 0.084026271269806552 0
v 0.28685014665647024 0.19560569252117699 0
v 0.4250837383098246 0.19302513836693691 0
v 0.24484380819871054 0.1685898343771649 0
v 0.1625223709909045 0.16958811144103902 0
v 0.41745367638439801 -0.35810110270711903 0
v 0.38675815658784518 -0.4375 0
v 0.5 -0.4375 0
v 0.28526225656019244 -0.28828749844155432 0
v 0.26370980272981082 -0.41923934767508397 0
v 0.31709867504510925 -0.36894809453551153 0
v 0.27608443600450883 -0.37889191005524558 0
v 0.30532224385138418 -0.40993057965418978 0
v 0.3125 -0.5 0
v 0.29381822758917442 -0.45616806336231269 0
v 0.34314216908044304 -0.46104270527766877 0
v 0.15517774612122559 -0.42545318806084981 0
v -0.13484803631868947 -0.19702858809127455 0
v -0.23681185572676694 -0.19498321216324527 0
v -0.16763804607327809 -0.25503359236726042 0
v -0.18554149506055267 -0.18162636167063506 0
v -0.22816266108706401 -0.10385546892533237 0
v -0.20175558101455671 -0.22446772120704828 0
v -0.25592919354477622 -0.25329593423998098 0
v -0.21210196878478421 -0.27034020997216324 0
v -0.22102357630380076 -0.15050739138670521 0
v -0.3072941075213208 -0.13983705804309193 0
v -0.26594354089506478 -0.15960166420154248 0
v -0.31657670902744106 -0.2123958193461194 0
v -0.3126658104913087 -0.27492042561756569 0
v -0.27422341419247254 -0.21500823650698142 0
v -0.38052315258704494 -0.24932408654674415 0
v -0.12144515181785048 -0.11032689985364708 0
v -0.40060171073119827 -0.34032212184667621 0
v -0.0089011996633859836 -0.41979956718860911 0
v 0.0625 -0.5 0
v 0.048598419919681279 -0.39507775702462811 0
v 0.093783536119860456 -0.43870217675951151 0
v 0.16809921241323156 0.05496879826328005 0
v 0.11918407555087895 0.089890482742166378 0
v 0.075946079051413706 0.097114168155313929 0
v 0.043283107065204107 0.12710416274620229 0
v 0.04077302796828064 0.20873974826697406 0
v 0.17219215090232709 0.11242060813027277 0
v 0.13178461208617709 0.13498731049321322 0
v 0.11349149324213592 0.1821914808089411 0
v 0.15973298836456107 0.26041065533058527 0
v 0.14795605231812325 0.21459485046981885 0
v 0.20415400887648338 0.20792263290123125 0
v 0.092086017263205533 0.25337775374947846 0
v 0.20465704816039776 0.25338929727201409 0
v 0.25 0.5 0
v 0.19464194914352184 0.336537941280454 0
v 0.23084364440611072 0.29872089592458173 0
v 0.18769812543342634 0.29365452708678219 0
v 0.11734042863731931 0.32705096765571684 0
v 0.3180138830837389 0.30486853040383599 0
v 0.27539380532342694 0.28811092877270883 0
v 0.2694814859675303 0.37194452218673868 0
v 0.30000463436758684 0.24419683966881645 0
v 0.23796144970954836 0.34177086011083491 0
v 0.2084505055457424 0.40414868185827135 0
v 0.41560154178341691 0.14983072998573299 0
v 0.46162390435640677 0.15041001195500381 0
v 0.46464284153966384 0.21875 0
v 0.5 0.375 0
v 0.41135949469212263 0.25740893839834567 0
v 0.4375 -0.5 0
v 0.34998529910125165 -0.41206206229340381 0
v 0.16635435771147555 -0.38308840612898643 0
v 0.11933740515435343 -0.38664819765706437 0
v 0.20913954940352941 -0.41703261877844944 0
v 0.1875 -0.5 0
v 0.23489787505138848 -0.45589228320081837 0
v 0.18753615030710336 -0.45570372486020061 0
v -0.12935507886988479 -0.27629163001599299 0
v -0.17974212671588036 -0.10612833601221272 0
v -0.21353345661596224 -0.32376841055173622 0
v -0.34023397415477707 -0.24526019138253224 0
v -0.36489014913220891 -0.20256458660302096 0
v -0.5 -0.125 0
v -0.5 -0.1875 0
v -0.43362101609243875 -0.20557896732842379 0
v -0.39957745450882798 -0.2928339550918741 0
v 0.13023379478628128 -0.4587371001482406 0
v 0.083121489688910422 0.21187073580731464 0
v 0.12310067324678708 0.28391133400824864 0
v 0.07700853124529039 0.29971124083328937 0
v 0.039587896636539499 0.26191416337805284 0
v 0.048708686397287204 0.3848784321050388 0
v 0.074869387833337298 0.34628584729703171 0
v 0.125 0.5 0
v 0.12675702085842366 0.40962189588894071 0
v 0.0039541296655777325 0.32637767195415923 0
v -0.054083106654809532 0.23322604490925614 0
v -0.0032018375480389882 0.23436006746674398 0
v -0.029732722479439921 0.28271035726925875 0
v -0.027558508078747268 0.18515781099317263 0
v -0.25 0.5 0
v -0.12962994932206545 0.30113471477925025 0
v -0.12603252568911977 0.16217113192150345 0
v -0.06101517046101157 0.13365898445207836 0
v -0.082279647330155081 0.27783444062499651 0
v -0.080037233775474115 0.1875518575068893 0
v -0.13421979980536797 0.23137522586183978 0
v -0.029952971298732867 0.10162653003706723 0
v -0.11231194096950803 0.10507184158633731 0
v -0.061756471847792094 0.34224226387891543 0
v -0.17794120349607823 0.11949968892903895 0
v 0.26464888908828754 0.43671895292643004 0
v 0.36260748092118777 0.27704925678202086 0
v 0.41811990165542356 0.34451719685004034 0
v 0.3654605320037394 0.33127347232260451 0
v 0.40100309753192998 0.30202915495370497 0
v 0.5 0.3125 0
v 0.45055508351867002 0.30675843163391836 0
v 0.46269422391913784 0.34999654876465602 0
v 0.375 0.5 0
v 0.43069368341178027 0.42627484962288509 0
v 0.31989249817432974 0.35732343597937455 0
v 0.3724464122592801 0.39637360094296004 0
v 0.39450958319663787 0.22016251035569956 0
v 0.44958121304385268 -0.44958121304385273 0
v -0.2361593767169835 -0.35910153188615879 0
v -0.40325276034827712 -0.11293216448379656 0
v -0.45583727200122803 -0.15625 0
v -0.5 -0.21875 0
v -0.46240345902120528 -0.234375 0
v -0.47146118083335731 -0.203125 0
v -0.42218338953919821 -0.24579364224568556 0
v 0.16564678150739132 0.37767527566878634 0
v -0.18740979752400255 0.26990562063948265 0
v -0.015945696710302215 0.38797110326066819 0
v -0.19195714053311697 0.18945819020841492 0
v -0.26224270819309237 0.052024863542681654 0
v 0.1875 0.5 0
v 0.17022492364906616 0.44600886957750752 0
v 0.45568078919814825 0.26244716839856952 0
v 0.3125 0.5 0
v 0.41406371110714923 0.3869867201820536 0
v 0.45642676017712058 0.39221884034298893 0
v 0.5 0.4375 0
v 0.38276096585318964 0.4479640897274646 0
v 0.4375 0.5 0
v 0.32461691490313893 0.43276256008083891 0
v -0.40097001814268585 -0.16498094834006594 0
v -0.35333856718639595 -0.15536524529645734 0
v -0.34719194832895434 -0.097561286990921037 0
v -0.2866003767823706 -0.080342591786800421 0
v -0.40058591477834882 -0.012740504501019656 0
v -0.3867397481769726 -0.063240376313007274 0
v -0.3310778785858941 -0.03904731820168289 0
v -0.5 -0.0625 0
v -0.44342949951314914 -0.071991482954471164 0
v -0.26770800953695695 -0.015394258504093261 0
v -0.45826456792331977 -0.11284972759785944 0
v -0.21308752380579582 0.38648084693180307 0
v 0.018951537760011683 0.44015325382504178 0
v -0.16627760840303013 0.15821972096308112 0
v -0.20837840123756607 0.14978497678207303 0
v -0.2512077291876017 0.19074768822033095 0
v -0.22976764744134909 0.097850864178414154 0
v -0.5 0.25 0
v -0.20803632873782774 0.048030853355127467 0
v -0.31848126903450891 0.12629878195679278 0
v -0.27862130083905934 0.098051610683888013 0
v -0.27384374375519027 0.14704034427343016 0
v -0.34322558628109751 0.04913468109372876 0
v -0.3265415795189418 0.20204779373427828 0
v -0.28517253866414971 0.22107845116088609 0
v -0.31885619694012479 0.29789043371019208 0
v -0.32355627668900599 0.25003786556725283 0
v -0.4060356392160635 0.2822960944393863 0
v -0.37917199654892875 0.22940964581132217 0
v -0.3602467124917208 0.27779870557245578 0
v -0.375168546071322 0.36121853546158622 0
v -0.5 0.125 0
v -0.38300635958829887 0.15773613507079931 0
v -0.44102558536859382 0.23125705980340061 0
v -0.5 0.1875 0
v -0.41114870483499188 0.19518100391594306 0
v -0.44189658350269173 0.14277402862134592 0
v -0.45509006323842194 0.18573840602545788 0
v -0.5 0.0625 0
v -0.39736839547109826 0.090888726557809552 0
v -0.17653534808451676 0.22893869938818712 0
v 0.219225153474915 0.45953989595648514 0
v 0.46875 0.46875 0
v 0.34375 0.5 0
v 0.328125 0.46810527462016482 0
v 0.28845814820903992 0.46844741604523876 0
v 0.359375 0.47257077210701881 0
v -0.26769730589150109 -0.11773736554585001 0
v -0.45211595883593253 -0.020595122323174841 0
v -0.4350181317795162 0.040193124814892456 0
v -0.2435213430261316 -0.057651650120087272 0
v -0.18356964530180758 0.33186707774687485 0
v -0.12555355735403761 0.37099149128848719 0
v -0.25468732191667665 0.32871295613259965 0
v -0.17008047175469493 0.37444162055109076 0
v -0.125 0.5 0
v -0.1875 0.5 0
v -0.14294674880510133 0.43557156499916616 0
v -0.21791353257538099 0.30289586246643518 0
v 0.075740336650969464 0.43507817321257158 0
v 0.117363406464147 0.45464540767976336 0
v 0.0625 0.5 0
v -0.0625 0.5 0
v -0.35505639711164511 0.0025771844894030282 0
v -0.30694981191941956 0.015134654736156827 0
v -0.38825803587862873 0.035796036614232807 0
v -0.34090270770049114 0.16221630581865165 0
v -0.35152993624911377 0.094347095676631354 0
v -0.45007615866046735 0.090704490563412787 0
v -0.5 0.03125 0
v -0.46490857963728316 0.015625 0
v -0.47201837888329845 0.046875 0
v -0.2005144954580701 -0.067263398771558014 0
v -0.10354949344316178 0.33466015145170103 0
v -0.073973460689548132 0.40029199134906102 0
v -0.375 0.5 0
v -0.31027138251263503 0.36222515277876166 0
v -0.27463250294862185 0.28802918732927807 0
v -0.21875 0.447400509397756 0
v -0.29506498964383976 0.43764359037275846 0
v -0.18421883197201644 0.41988718330492003 0
v -0.25319393346198638 0.41347595490394107 0
v -0.2590215542144737 0.45905743572128421 0
v -0.3125 0.5 0
v -0.15625 0.5 0
v -0.171875 0.46318608135685402 0
v -0.140625 0.47164541893650247 0
v -0.091855335055361309 0.45039491322826364 0
v -0.036771907171262219 0.44181183757832199 0
v -0.34228620375889385 0.33375706765488522 0
v -0.38277317773624397 0.31869537410653159 0
v -0.5 0.375 0
v -0.5 0.3125 0
v -0.43949730131674319 0.3507812035712452 0
v -0.34344018879604665 0.40815510792556675 0
v -0.41847736991012163 0.42468680603550801 0
v -0.38423705328636515 0.40154091058498698 0
v -0.37115507526986491 0.44997644681865545 0
v -0.26689196359366407 0.37132263734044169 0
v -0.45820844815211825 0.28125 0
v -0.5 0.4375 0
v -0.33025579980755587 0.46141979193850924 0
v -0.45665415640093709 0.3956028896483903 0
v -0.4375 0.5 0
v -0.40625 0.5 0
v -0.421875 0.46388759947609315 0
v -0.46616208911596602 0.46616208911596602 0
v 0.16380123306001937 -0.30272243451218883 0
v 0.27409272704220733 0.037009319214870939 0
v -0.22436084982246918 0.0036065637020550323 0
v 0.5 -0.0625 0
f 39 30 32
f 133 134 103
f 72 278 274
f 73 119 71
f 101 91 93
f 53 244 184
f 28 10 181
f 165 278 163
f 51 24 25
f 130 29 181
f 340 385 357
f 341 344 346
f 219 259 222
f 359 308 309
f 69 67 66
f 10 28 35
f 85 10 36
f 24 18 123
f 32 37 39
f 19 20 21
f 126 24 123
f 180 129 295
f 27 29 124
f 26 18 22
f 51 21 22
f 80 38 42
f 8 45 428
f 22 21 16
f 38 21 20
f 18 24 22
f 26 16 23
f 23 31 28
f 18 26 27
f 124 123 18
f 19 21 51
f 16 26 22
f 24 15 25
f 27 26 23
f 28 27 23
f 17 84 124
f 23 32 31
f 33 35 31
f 181 27 28
f 130 181 85
f 38 37 16
f 52 89 86
f 32 23 16
f 31 30 33
f 37 32 16
f 30 31 32
f 39 43 30
f 10 35 36
f 20 45 42
f 30 43 54
f 31 35 28
f 36 35 33
f 33 56 86
f 92 94 425
f 16 21 38
f 37 34 39
f 42 38 20
f 34 37 38
f 44 39 34
f 44 43 39
f 170 174 172
f 46 426 44
f 34 46 44
f 63 5 61
f 20 428 45
f 42 40 80
f 57 58 55
f 54 59 56
f 46 34 80
f 43 44 41
f 83 82 120
f 40 42 45
f 82 40 45
f 121 46 122
f 24 51 22
f 122 46 80
f 45 8 82
f 8 49 82
f 129 50 127
f 19 51 25
f 54 33 30
f 118 67 69
f 86 89 88
f 94 242 53
f 57 54 43
f 86 56 52
f 43 60 57
f 55 62 59
f 33 54 56
f 54 57 59
f 60 41 58
f 57 55 59
f 41 161 58
f 162 65 117
f 63 61 62
f 52 56 59
f 41 60 43
f 58 57 60
f 68 67 61
f 59 62 64
f 63 62 55
f 64 62 61
f 58 65 55
f 63 55 65
f 64 61 67
f 52 59 64
f 58 161 211
f 5 162 163
f 74 70 71
f 73 70 79
f 68 61 5
f 103 102 132
f 71 68 5
f 67 68 119
f 90 13 87
f 64 118 52
f 70 74 76
f 73 133 119
f 5 163 74
f 71 70 73
f 63 162 5
f 215 270 164
f 78 70 76
f 154 146 155
f 5 74 71
f 72 279 76
f 336 75 281
f 336 281 334
f 72 76 74
f 75 336 78
f 107 110 112
f 78 79 70
f 75 78 76
f 78 77 79
f 191 198 200
f 103 98 102
f 80 34 38
f 122 80 40
f 235 236 175
f 161 173 116
f 120 49 48
f 49 120 82
f 83 81 168
f 40 82 83
f 178 127 84
f 126 15 24
f 88 36 86
f 85 53 130
f 90 89 52
f 33 86 36
f 93 97 101
f 53 425 94
f 88 87 92
f 36 88 425
f 52 118 90
f 88 89 87
f 13 90 69
f 87 89 90
f 92 87 93
f 14 187 246
f 93 87 13
f 94 92 91
f 93 13 97
f 91 92 93
f 209 210 243
f 53 85 425
f 98 100 102
f 100 96 97
f 115 107 157
f 102 100 97
f 96 99 101
f 190 98 103
f 100 105 96
f 160 115 99
f 207 159 209
f 102 97 13
f 248 105 100
f 96 101 97
f 101 99 209
f 69 132 13
f 132 66 103
f 119 133 66
f 133 205 134
f 190 103 134
f 113 112 106
f 248 100 98
f 108 105 104
f 108 110 107
f 105 108 96
f 113 107 112
f 104 250 110
f 108 107 160
f 140 143 139
f 140 142 135
f 104 110 108
f 135 112 109
f 109 112 110
f 111 112 135
f 106 112 111
f 159 207 158
f 107 113 157
f 7 158 114
f 106 114 157
f 160 99 96
f 121 173 426
f 215 164 214
f 58 211 65
f 165 213 214
f 67 118 64
f 90 118 69
f 67 119 66
f 71 119 68
f 175 237 239
f 81 83 120
f 121 168 169
f 116 173 171
f 40 83 122
f 122 83 168
f 18 27 124
f 126 123 84
f 17 124 29
f 84 123 124
f 127 126 84
f 127 125 126
f 15 126 125
f 178 84 17
f 50 125 127
f 179 129 17
f 188 185 187
f 180 50 129
f 53 242 244
f 29 130 183
f 13 132 102
f 210 189 243
f 66 132 69
f 205 73 79
f 103 66 133
f 390 368 194
f 144 202 251
f 105 248 104
f 111 135 95
f 138 142 148
f 135 142 95
f 250 104 197
f 140 135 109
f 145 147 139
f 296 143 140
f 142 140 139
f 197 192 195
f 139 143 145
f 139 147 148
f 95 142 138
f 296 140 109
f 141 202 145
f 104 192 197
f 136 148 150
f 141 145 143
f 145 144 206
f 153 149 150
f 152 155 146
f 139 148 142
f 150 148 147
f 138 148 136
f 152 150 147
f 1 149 153
f 136 150 149
f 152 147 155
f 151 153 152
f 151 152 146
f 152 153 150
f 1 153 151
f 147 206 155
f 154 155 156
f 154 156 137
f 256 155 206
f 196 191 203
f 106 157 113
f 158 157 114
f 158 7 159
f 157 158 115
f 210 208 131
f 101 209 91
f 108 160 96
f 107 115 160
f 44 426 41
f 212 211 216
f 65 162 63
f 163 162 117
f 165 163 117
f 74 163 72
f 213 65 212
f 261 268 215
f 165 117 213
f 164 274 278
f 177 116 176
f 177 220 218
f 169 168 81
f 236 235 120
f 122 168 121
f 172 169 81
f 176 171 174
f 81 235 172
f 289 313 312
f 121 169 171
f 174 171 169
f 81 120 235
f 230 12 232
f 161 41 426
f 121 171 173
f 172 174 169
f 171 176 116
f 47 237 167
f 172 175 294
f 174 12 176
f 213 212 166
f 220 177 221
f 258 220 222
f 17 129 178
f 127 178 129
f 29 183 17
f 295 2 180
f 27 181 29
f 295 179 240
f 85 181 10
f 128 179 188
f 241 183 185
f 130 184 183
f 183 184 185
f 53 184 130
f 185 184 182
f 14 186 187
f 17 241 179
f 187 182 246
f 182 187 185
f 188 187 186
f 128 188 186
f 188 179 241
f 242 94 243
f 14 246 245
f 190 134 193
f 98 190 192
f 249 198 134
f 193 198 191
f 195 190 193
f 196 197 195
f 205 249 134
f 195 193 191
f 297 319 320
f 302 255 300
f 195 191 196
f 190 195 192
f 201 203 200
f 141 196 202
f 196 141 197
f 197 141 250
f 134 198 193
f 365 200 198
f 340 382 307
f 254 299 301
f 365 198 194
f 200 199 201
f 204 251 252
f 202 144 145
f 203 202 196
f 302 256 204
f 200 203 191
f 202 203 201
f 202 201 251
f 199 319 201
f 73 205 133
f 249 205 79
f 145 206 147
f 144 204 256
f 99 115 207
f 158 207 115
f 207 209 99
f 159 7 208
f 209 159 210
f 208 210 159
f 131 257 210
f 216 161 116
f 217 212 216
f 65 211 212
f 161 216 211
f 213 166 214
f 65 213 117
f 215 214 166
f 165 214 164
f 218 166 217
f 261 215 258
f 116 177 216
f 217 216 177
f 218 217 177
f 212 217 166
f 223 220 221
f 166 218 258
f 226 227 223
f 222 261 258
f 177 176 221
f 220 219 222
f 176 12 221
f 223 221 12
f 227 228 259
f 259 260 222
f 227 226 225
f 220 223 219
f 226 223 12
f 233 230 231
f 263 265 262
f 230 232 229
f 226 12 230
f 227 225 228
f 223 227 219
f 225 233 234
f 260 261 222
f 283 294 239
f 226 233 225
f 12 174 232
f 231 230 229
f 286 285 283
f 231 282 234
f 174 170 232
f 232 170 283
f 230 233 226
f 234 233 231
f 330 377 379
f 225 234 303
f 120 48 236
f 172 235 175
f 48 167 236
f 236 167 237
f 229 232 283
f 236 237 175
f 310 47 287
f 283 239 286
f 287 289 288
f 183 241 17
f 179 128 240
f 188 241 185
f 243 94 91
f 244 242 189
f 243 91 209
f 189 242 243
f 244 189 247
f 244 182 184
f 182 244 246
f 245 247 257
f 246 244 247
f 247 189 257
f 246 247 245
f 98 192 248
f 104 248 192
f 390 79 77
f 198 249 194
f 296 141 143
f 110 250 109
f 252 251 201
f 144 251 204
f 253 254 298
f 204 252 255
f 255 252 318
f 319 297 318
f 301 298 254
f 299 137 300
f 155 256 156
f 144 256 206
f 257 131 245
f 189 210 257
f 166 258 215
f 220 258 218
f 227 259 219
f 260 259 228
f 228 265 263
f 261 260 266
f 263 266 260
f 261 269 268
f 280 391 275
f 260 228 263
f 225 303 228
f 263 262 266
f 265 303 309
f 378 309 264
f 262 377 330
f 266 305 280
f 215 268 270
f 269 267 268
f 72 274 279
f 269 261 266
f 268 267 270
f 369 372 329
f 267 269 275
f 270 267 276
f 164 270 274
f 269 280 275
f 276 277 273
f 376 304 369
f 277 276 267
f 75 279 281
f 276 274 270
f 279 274 273
f 280 269 266
f 275 272 277
f 277 267 275
f 274 276 273
f 272 304 277
f 273 331 281
f 163 278 72
f 164 278 165
f 281 279 273
f 76 279 75
f 305 266 262
f 271 396 374
f 331 277 306
f 338 340 307
f 229 292 231
f 282 317 363
f 294 283 170
f 238 289 287
f 293 317 292
f 229 283 285
f 312 293 284
f 229 285 292
f 310 287 288
f 285 286 284
f 286 239 288
f 288 284 286
f 288 239 310
f 316 290 315
f 284 288 289
f 313 291 312
f 293 292 285
f 313 314 291
f 285 284 293
f 231 292 317
f 291 315 293
f 362 363 317
f 172 294 170
f 175 239 294
f 179 295 129
f 2 295 240
f 109 250 296
f 141 296 250
f 321 320 199
f 297 323 326
f 318 298 255
f 328 297 326
f 137 156 300
f 299 300 301
f 255 302 204
f 300 255 301
f 298 301 255
f 300 156 302
f 256 302 156
f 309 303 234
f 228 303 265
f 369 304 272
f 358 11 306
f 262 330 305
f 403 396 398
f 304 358 277
f 306 333 332
f 281 331 332
f 323 297 320
f 359 234 282
f 359 282 224
f 264 309 308
f 239 237 310
f 47 310 237
f 289 312 284
f 231 317 282
f 291 293 312
f 289 238 313
f 314 3 360
f 316 315 291
f 313 238 314
f 362 361 311
f 293 315 317
f 314 360 291
f 361 362 364
f 319 318 252
f 298 318 297
f 201 319 252
f 319 199 320
f 200 365 199
f 328 253 298
f 321 368 327
f 324 381 323
f 320 324 323
f 334 338 307
f 324 320 321
f 366 325 326
f 327 324 321
f 382 381 324
f 322 326 323
f 326 322 366
f 328 325 253
f 368 321 194
f 327 368 427
f 297 328 298
f 325 328 326
f 272 370 369
f 410 335 417
f 262 265 377
f 406 9 380
f 277 331 273
f 332 331 306
f 333 306 11
f 334 307 336
f 341 384 339
f 333 342 339
f 281 332 334
f 332 333 339
f 427 307 327
f 395 342 11
f 78 336 77
f 342 333 11
f 357 385 350
f 334 332 339
f 338 337 385
f 337 338 339
f 339 338 334
f 385 384 350
f 381 322 323
f 342 395 344
f 346 350 384
f 11 304 376
f 339 342 341
f 394 371 416
f 341 342 344
f 347 344 343
f 347 346 344
f 407 408 347
f 411 410 417
f 351 345 417
f 367 383 357
f 347 343 407
f 346 347 345
f 343 371 394
f 411 420 409
f 351 346 345
f 354 355 349
f 354 357 350
f 355 354 353
f 350 346 353
f 346 351 353
f 351 335 352
f 355 351 352
f 6 388 387
f 350 353 354
f 351 355 353
f 349 355 352
f 367 357 386
f 349 356 386
f 367 366 322
f 11 358 304
f 306 277 358
f 308 359 224
f 234 359 309
f 316 291 360
f 3 316 360
f 362 311 363
f 364 290 361
f 364 317 315
f 311 224 363
f 224 282 363
f 317 364 362
f 315 290 364
f 194 321 365
f 199 365 321
f 322 381 383
f 325 366 6
f 386 357 354
f 388 6 366
f 390 194 249
f 427 368 77
f 370 272 391
f 369 329 371
f 305 392 280
f 373 404 405
f 407 394 348
f 395 371 343
f 369 370 372
f 372 370 375
f 370 391 392
f 404 375 405
f 398 372 375
f 403 402 374
f 369 371 376
f 376 371 395
f 265 378 377
f 330 379 9
f 309 378 265
f 379 378 264
f 382 324 327
f 378 379 377
f 406 380 405
f 383 381 340
f 307 382 327
f 340 381 382
f 357 383 340
f 322 383 367
f 339 384 337
f 346 384 341
f 338 385 340
f 385 337 384
f 349 386 354
f 389 386 356
f 366 367 388
f 387 388 389
f 387 389 356
f 388 367 389
f 386 389 367
f 79 390 249
f 77 368 390
f 275 391 272
f 392 391 280
f 305 330 406
f 375 370 392
f 399 416 329
f 412 394 397
f 329 396 399
f 344 395 343
f 376 395 11
f 396 271 400
f 398 396 329
f 419 393 415
f 394 412 348
f 372 398 329
f 373 402 404
f 400 399 396
f 416 397 394
f 401 400 271
f 399 400 397
f 396 403 374
f 400 401 397
f 402 403 404
f 398 375 403
f 403 375 404
f 375 392 405
f 406 405 392
f 373 405 380
f 305 406 392
f 406 330 9
f 407 348 408
f 343 394 407
f 408 348 411
f 347 408 345
f 348 412 414
f 411 348 414
f 411 345 408
f 410 411 409
f 419 397 401
f 413 414 415
f 418 424 4
f 420 418 409
f 415 414 412
f 414 413 420
f 412 397 419
f 422 421 423
f 329 416 371
f 397 416 399
f 351 417 335
f 411 417 345
f 393 419 401
f 413 423 424
f 412 419 415
f 414 420 411
f 420 413 424
f 424 423 421
f 423 415 422
f 415 393 422
f 415 423 413
f 4 424 421
f 424 418 420
f 36 425 85
f 92 425 88
f 121 426 46
f 161 426 173
f 77 336 427
f 307 427 336
f 20 19 428
