# Blender 4.4.3
# www.blender.org
o squarex_16x16_with_seams
v 0.000000 0.158310 1.000000
v -0.060906 0.146195 1.000000
v -0.112540 0.111695 1.000000
v -0.147040 0.060061 1.000000
v -0.159155 -0.000845 1.000000
v -0.147040 -0.061751 1.000000
v -0.112540 -0.113385 1.000000
v -0.060906 -0.147885 1.000000
v 0.000000 -0.160000 1.000000
v 0.060906 -0.147885 1.000000
v 0.112540 -0.113385 1.000000
v 0.147040 -0.061751 1.000000
v 0.159155 -0.000845 1.000000
v 0.147040 0.060061 1.000000
v 0.112540 0.111695 1.000000
v 0.060906 0.146195 1.000000
v 0.000000 0.158310 0.875000
v -0.060906 0.146195 0.875000
v -0.112540 0.111695 0.875000
v -0.147040 0.060061 0.875000
v -0.159155 -0.000845 0.875000
v -0.147040 -0.061751 0.875000
v -0.112540 -0.113385 0.875000
v -0.060906 -0.147885 0.875000
v 0.000000 -0.160000 0.875000
v 0.060906 -0.147885 0.875000
v 0.112540 -0.113385 0.875000
v 0.147040 -0.061751 0.875000
v 0.159155 -0.000845 0.875000
v 0.147040 0.060061 0.875000
v 0.112540 0.111695 0.875000
v 0.060906 0.146195 0.875000
v -0.060906 0.146195 0.750000
v -0.112540 0.111695 0.750000
v -0.147040 0.060061 0.750000
v -0.159155 -0.000845 0.750000
v -0.147040 -0.061751 0.750000
v -0.112540 -0.113385 0.750000
v -0.060906 -0.147885 0.750000
v 0.000000 -0.160000 0.750000
v 0.060906 -0.147885 0.750000
v 0.112540 -0.113385 0.750000
v 0.147040 -0.061751 0.750000
v 0.159155 -0.000845 0.750000
v 0.147040 0.060061 0.750000
v 0.112540 0.111695 0.750000
v 0.060906 0.146195 0.750000
v 0.000000 0.158310 0.750000
v 0.000000 0.158310 0.625000
v -0.060906 0.146195 0.625000
v -0.112540 0.111695 0.625000
v -0.147040 0.060061 0.625000
v -0.159155 -0.000845 0.625000
v -0.147040 -0.061751 0.625000
v -0.112540 -0.113385 0.625000
v -0.060906 -0.147885 0.625000
v 0.000000 -0.160000 0.625000
v 0.060906 -0.147885 0.625000
v 0.112540 -0.113385 0.625000
v 0.147040 -0.061751 0.625000
v 0.159155 -0.000845 0.625000
v 0.147040 0.060061 0.625000
v 0.112540 0.111695 0.625000
v 0.060906 0.146195 0.625000
v 0.000000 0.158310 0.500000
v -0.060906 0.146195 0.500000
v -0.112540 0.111695 0.500000
v -0.147040 0.060061 0.500000
v -0.159155 -0.000845 0.500000
v -0.147040 -0.061751 0.500000
v -0.112540 -0.113385 0.500000
v -0.060906 -0.147885 0.500000
v 0.000000 -0.160000 0.500000
v 0.060906 -0.147885 0.500000
v 0.112540 -0.113385 0.500000
v 0.147040 -0.061751 0.500000
v 0.159155 -0.000845 0.500000
v 0.147040 0.060061 0.500000
v 0.112540 0.111695 0.500000
v 0.060906 0.146195 0.500000
v -0.060906 0.146195 0.375000
v -0.112540 0.111695 0.375000
v -0.147040 0.060061 0.375000
v -0.159155 -0.000845 0.375000
v -0.147040 -0.061751 0.375000
v -0.112540 -0.113385 0.375000
v -0.060906 -0.147885 0.375000
v 0.000000 -0.160000 0.375000
v 0.060906 -0.147885 0.375000
v 0.112540 -0.113385 0.375000
v 0.147040 -0.061751 0.375000
v 0.159155 -0.000845 0.375000
v 0.147040 0.060061 0.375000
v 0.112540 0.111695 0.375000
v 0.060906 0.146195 0.375000
v 0.000000 0.158310 0.375000
v -0.060906 0.146195 0.250000
v -0.112540 0.111695 0.250000
v -0.147040 0.060061 0.250000
v -0.159155 -0.000845 0.250000
v -0.147040 -0.061751 0.250000
v -0.112540 -0.113385 0.250000
v -0.060906 -0.147885 0.250000
v 0.000000 -0.160000 0.250000
v 0.060906 -0.147885 0.250000
v 0.112540 -0.113385 0.250000
v 0.147040 -0.061751 0.250000
v 0.159155 -0.000845 0.250000
v 0.147040 0.060061 0.250000
v 0.112540 0.111695 0.250000
v 0.060906 0.146195 0.250000
v 0.000000 0.158310 0.250000
v -0.060906 0.146195 0.125000
v -0.112540 0.111694 0.125000
v -0.147040 0.060061 0.125000
v -0.159155 -0.000845 0.125000
v -0.147040 -0.061751 0.125000
v -0.112540 -0.113385 0.125000
v -0.060906 -0.147885 0.125000
v 0.000000 -0.160000 0.125000
v 0.060906 -0.147885 0.125000
v 0.112540 -0.113385 0.125000
v 0.147040 -0.061751 0.125000
v 0.159155 -0.000845 0.125000
v 0.147040 0.060061 0.125000
v 0.112540 0.111694 0.125000
v 0.060906 0.146195 0.125000
v 0.000000 0.158310 0.125000
v -0.060906 0.146195 -0.000000
v -0.112540 0.111694 -0.000000
v -0.147040 0.060061 -0.000000
v -0.159155 -0.000845 -0.000000
v -0.147040 -0.061751 -0.000000
v -0.112540 -0.113385 -0.000000
v -0.060906 -0.147885 -0.000000
v 0.000000 -0.160000 0.000000
v 0.060906 -0.147885 -0.000000
v 0.112540 -0.113385 -0.000000
v 0.147040 -0.061751 -0.000000
v 0.159155 -0.000845 -0.000000
v 0.147040 0.060061 -0.000000
v 0.112540 0.111694 -0.000000
v 0.060906 0.146195 -0.000000
v 0.000000 0.158310 -0.000000
v 0.000000 0.158310 -0.125000
v -0.060906 0.146195 -0.125000
v -0.112540 0.111694 -0.125000
v -0.147040 0.060061 -0.125000
v -0.159155 -0.000845 -0.125000
v -0.147040 -0.061751 -0.125000
v -0.112540 -0.113385 -0.125000
v -0.060906 -0.147885 -0.125000
v 0.000000 -0.160000 -0.125000
v 0.060906 -0.147885 -0.125000
v 0.112540 -0.113385 -0.125000
v 0.147040 -0.061751 -0.125000
v 0.159155 -0.000845 -0.125000
v 0.147040 0.060061 -0.125000
v 0.112540 0.111694 -0.125000
v 0.060906 0.146195 -0.125000
v -0.060906 0.146195 -0.250000
v -0.112540 0.111694 -0.250000
v -0.147040 0.060061 -0.250000
v -0.159155 -0.000845 -0.250000
v -0.147040 -0.061751 -0.250000
v -0.112540 -0.113385 -0.250000
v -0.060906 -0.147885 -0.250000
v 0.000000 -0.160000 -0.250000
v 0.060906 -0.147885 -0.250000
v 0.112540 -0.113385 -0.250000
v 0.147040 -0.061751 -0.250000
v 0.159155 -0.000845 -0.250000
v 0.147040 0.060061 -0.250000
v 0.112540 0.111694 -0.250000
v 0.060906 0.146195 -0.250000
v 0.000000 0.158310 -0.250000
v 0.000000 0.158310 -0.375000
v -0.060906 0.146195 -0.375000
v -0.112540 0.111694 -0.375000
v -0.147040 0.060061 -0.375000
v -0.159155 -0.000845 -0.375000
v -0.147040 -0.061751 -0.375000
v -0.112540 -0.113385 -0.375000
v -0.060906 -0.147885 -0.375000
v 0.000000 -0.160000 -0.375000
v 0.060906 -0.147885 -0.375000
v 0.112540 -0.113385 -0.375000
v 0.147040 -0.061751 -0.375000
v 0.159155 -0.000845 -0.375000
v 0.147040 0.060061 -0.375000
v 0.112540 0.111694 -0.375000
v 0.060906 0.146195 -0.375000
v 0.000000 0.158310 -0.500000
v -0.060906 0.146195 -0.500000
v -0.112540 0.111694 -0.500000
v -0.147040 0.060061 -0.500000
v -0.159155 -0.000845 -0.500000
v -0.147040 -0.061751 -0.500000
v -0.112540 -0.113385 -0.500000
v -0.060906 -0.147885 -0.500000
v 0.000000 -0.160000 -0.500000
v 0.060906 -0.147885 -0.500000
v 0.112540 -0.113385 -0.500000
v 0.147040 -0.061751 -0.500000
v 0.159155 -0.000845 -0.500000
v 0.147040 0.060061 -0.500000
v 0.112540 0.111694 -0.500000
v 0.060906 0.146195 -0.500000
v -0.060906 0.146195 -0.625000
v -0.112540 0.111694 -0.625000
v -0.147040 0.060061 -0.625000
v -0.159155 -0.000845 -0.625000
v -0.147040 -0.061751 -0.625000
v -0.112540 -0.113385 -0.625000
v -0.060906 -0.147885 -0.625000
v 0.000000 -0.160000 -0.625000
v 0.060906 -0.147885 -0.625000
v 0.112540 -0.113385 -0.625000
v 0.147040 -0.061751 -0.625000
v 0.159155 -0.000845 -0.625000
v 0.147040 0.060061 -0.625000
v 0.112540 0.111694 -0.625000
v 0.060906 0.146195 -0.625000
v 0.000000 0.158310 -0.625000
v -0.060906 0.146195 -0.750000
v -0.112540 0.111694 -0.750000
v -0.147040 0.060061 -0.750000
v -0.159155 -0.000845 -0.750000
v -0.147040 -0.061751 -0.750000
v -0.112540 -0.113385 -0.750000
v -0.060906 -0.147885 -0.750000
v 0.000000 -0.160000 -0.750000
v 0.060906 -0.147885 -0.750000
v 0.112540 -0.113385 -0.750000
v 0.147040 -0.061751 -0.750000
v 0.159155 -0.000845 -0.750000
v 0.147040 0.060061 -0.750000
v 0.112540 0.111694 -0.750000
v 0.060906 0.146195 -0.750000
v 0.000000 0.158310 -0.750000
v -0.060906 0.146195 -0.875000
v -0.112540 0.111694 -0.875000
v -0.147040 0.060061 -0.875000
v -0.159155 -0.000845 -0.875000
v -0.147040 -0.061751 -0.875000
v -0.112540 -0.113385 -0.875000
v -0.060906 -0.147885 -0.875000
v 0.000000 -0.160000 -0.875000
v 0.060906 -0.147885 -0.875000
v 0.112540 -0.113385 -0.875000
v 0.147040 -0.061751 -0.875000
v 0.159155 -0.000845 -0.875000
v 0.147040 0.060061 -0.875000
v 0.112540 0.111694 -0.875000
v 0.060906 0.146195 -0.875000
v 0.000000 0.158310 -0.875000
v 0.000000 0.158310 -1.000000
v -0.060906 0.146195 -1.000000
v -0.112540 0.111694 -1.000000
v -0.147040 0.060061 -1.000000
v -0.159155 -0.000845 -1.000000
v -0.147040 -0.061751 -1.000000
v -0.112540 -0.113385 -1.000000
v -0.060906 -0.147885 -1.000000
v 0.000000 -0.160000 -1.000000
v 0.060906 -0.147885 -1.000000
v 0.112540 -0.113385 -1.000000
v 0.147040 -0.061751 -1.000000
v 0.159155 -0.000845 -1.000000
v 0.147040 0.060061 -1.000000
v 0.112540 0.111694 -1.000000
v 0.060906 0.146195 -1.000000
vn -0.0000 -1.0000 -0.0000
vn 0.3827 -0.9239 -0.0000
vn 0.7071 -0.7071 -0.0000
vn 0.9239 -0.3827 -0.0000
vn 1.0000 -0.0000 -0.0000
vn 0.9239 0.3827 -0.0000
vn 0.7071 0.7071 -0.0000
vn 0.3827 0.9239 -0.0000
vn -0.0000 1.0000 -0.0000
vn -0.3827 0.9239 -0.0000
vn -0.7071 0.7071 -0.0000
vn -0.9239 0.3827 -0.0000
vn -1.0000 -0.0000 -0.0000
vn -0.9239 -0.3827 -0.0000
vn -0.7071 -0.7071 -0.0000
vn -0.3827 -0.9239 -0.0000
vt 0.000505 0.000268
vt 0.062540 0.000265
vt 0.062580 0.062719
vt 0.000522 0.062693
vt 0.124551 0.000293
vt 0.124610 0.062738
vt 0.186546 0.000276
vt 0.186644 0.062739
vt 0.248563 0.000238
vt 0.248677 0.062699
vt 0.310613 0.000184
vt 0.310728 0.062646
vt 0.372705 0.000122
vt 0.372787 0.062607
vt 0.434826 0.000112
vt 0.434860 0.062573
vt 0.496964 0.000100
vt 0.496939 0.062593
vt 0.559102 0.000162
vt 0.559017 0.062623
vt 0.621222 0.000223
vt 0.621090 0.062707
vt 0.683315 0.000335
vt 0.683149 0.062797
vt 0.745365 0.000440
vt 0.745200 0.062900
vt 0.807381 0.000528
vt 0.807233 0.062991
vt 0.869377 0.000596
vt 0.869267 0.063040
vt 0.931388 0.000618
vt 0.931297 0.063072
vt 0.993422 0.000671
vt 0.993355 0.063096
vt 0.000548 0.125081
vt 0.062588 0.125145
vt 0.124635 0.125185
vt 0.186673 0.125187
vt 0.248720 0.125164
vt 0.310762 0.125125
vt 0.372813 0.125089
vt 0.434861 0.125076
vt 0.496913 0.125082
vt 0.558965 0.125126
vt 0.621013 0.125190
vt 0.683064 0.125276
vt 0.745106 0.125365
vt 0.807154 0.125439
vt 0.869191 0.125488
vt 0.931239 0.125498
vt 0.993278 0.125484
vt 0.062565 0.187570
vt 0.000501 0.187452
vt 0.124608 0.187624
vt 0.186660 0.187643
vt 0.248706 0.187628
vt 0.310758 0.187605
vt 0.372800 0.187582
vt 0.434846 0.187573
vt 0.496888 0.187587
vt 0.558929 0.187624
vt 0.620975 0.187682
vt 0.683018 0.187756
vt 0.745069 0.187829
vt 0.807115 0.187894
vt 0.869168 0.187926
vt 0.931210 0.187923
vt 0.993274 0.187855
vt 0.000429 0.249848
vt 0.062486 0.249995
vt 0.124549 0.250070
vt 0.186607 0.250091
vt 0.248669 0.250094
vt 0.310721 0.250079
vt 0.372774 0.250070
vt 0.434818 0.250068
vt 0.496862 0.250085
vt 0.558907 0.250118
vt 0.620951 0.250171
vt 0.683004 0.250230
vt 0.745056 0.250296
vt 0.807118 0.250343
vt 0.869176 0.250372
vt 0.931239 0.250347
vt 0.993296 0.250251
vt 0.062391 0.312436
vt 0.000330 0.312282
vt 0.124466 0.312508
vt 0.186541 0.312544
vt 0.248610 0.312550
vt 0.310678 0.312552
vt 0.372733 0.312548
vt 0.434788 0.312557
vt 0.496837 0.312573
vt 0.558886 0.312608
vt 0.620941 0.312649
vt 0.682996 0.312703
vt 0.745064 0.312751
vt 0.807133 0.312796
vt 0.869208 0.312811
vt 0.931283 0.312789
vt 0.993344 0.312685
vt 0.000222 0.374761
vt 0.062304 0.374886
vt 0.124384 0.374956
vt 0.186471 0.374987
vt 0.248555 0.375006
vt 0.310627 0.375012
vt 0.372696 0.375023
vt 0.434754 0.375034
vt 0.496812 0.375057
vt 0.558869 0.375084
vt 0.620928 0.375124
vt 0.682997 0.375163
vt 0.745069 0.375208
vt 0.807152 0.375239
vt 0.869239 0.375259
vt 0.931320 0.375239
vt 0.993402 0.375164
vt 0.062222 0.437352
vt 0.000161 0.437270
vt 0.124321 0.437400
vt 0.186414 0.437433
vt 0.248503 0.437453
vt 0.310587 0.437471
vt 0.372657 0.437487
vt 0.434725 0.437507
vt 0.496786 0.437529
vt 0.558848 0.437558
vt 0.620915 0.437588
vt 0.682986 0.437622
vt 0.745069 0.437654
vt 0.807158 0.437685
vt 0.869252 0.437703
vt 0.931351 0.437705
vt 0.993412 0.437674
vt 0.000100 0.499798
vt 0.062191 0.499824
vt 0.124278 0.499849
vt 0.186378 0.499874
vt 0.248471 0.499899
vt 0.310553 0.499924
vt 0.372630 0.499950
vt 0.434696 0.499975
vt 0.496761 0.500000
vt 0.558826 0.500025
vt 0.620892 0.500050
vt 0.682969 0.500076
vt 0.745051 0.500101
vt 0.807144 0.500126
vt 0.869244 0.500151
vt 0.931331 0.500176
vt 0.993422 0.500202
vt 0.062171 0.562295
vt 0.000110 0.562326
vt 0.124270 0.562297
vt 0.186364 0.562315
vt 0.248453 0.562346
vt 0.310536 0.562378
vt 0.372607 0.562412
vt 0.434674 0.562442
vt 0.496736 0.562471
vt 0.558797 0.562493
vt 0.620865 0.562513
vt 0.682935 0.562529
vt 0.745019 0.562547
vt 0.807108 0.562567
vt 0.869201 0.562600
vt 0.931300 0.562648
vt 0.993361 0.562730
vt 0.000120 0.624836
vt 0.062202 0.624761
vt 0.124283 0.624741
vt 0.186370 0.624761
vt 0.248453 0.624792
vt 0.310525 0.624837
vt 0.372594 0.624876
vt 0.434653 0.624916
vt 0.496710 0.624943
vt 0.558768 0.624966
vt 0.620826 0.624977
vt 0.682895 0.624988
vt 0.744967 0.624994
vt 0.807051 0.625013
vt 0.869138 0.625044
vt 0.931218 0.625114
vt 0.993300 0.625239
vt 0.062239 0.687211
vt 0.000177 0.687315
vt 0.124314 0.687189
vt 0.186389 0.687204
vt 0.248458 0.687249
vt 0.310526 0.687297
vt 0.372581 0.687351
vt 0.434636 0.687392
vt 0.496685 0.687426
vt 0.558734 0.687443
vt 0.620789 0.687452
vt 0.682844 0.687448
vt 0.744912 0.687450
vt 0.806981 0.687456
vt 0.869056 0.687492
vt 0.931131 0.687564
vt 0.993192 0.687718
vt 0.000226 0.749749
vt 0.062283 0.749653
vt 0.124346 0.749628
vt 0.186404 0.749657
vt 0.248466 0.749704
vt 0.310518 0.749770
vt 0.372571 0.749829
vt 0.434615 0.749882
vt 0.496660 0.749915
vt 0.558704 0.749932
vt 0.620748 0.749930
vt 0.682801 0.749921
vt 0.744853 0.749906
vt 0.806915 0.749909
vt 0.868973 0.749930
vt 0.931036 0.750005
vt 0.993093 0.750152
vt 0.062312 0.812077
vt 0.000248 0.812145
vt 0.124354 0.812074
vt 0.186407 0.812105
vt 0.248453 0.812171
vt 0.310504 0.812244
vt 0.372547 0.812317
vt 0.434593 0.812376
vt 0.496634 0.812413
vt 0.558676 0.812427
vt 0.620722 0.812418
vt 0.682764 0.812395
vt 0.744816 0.812372
vt 0.806862 0.812357
vt 0.868914 0.812376
vt 0.930957 0.812430
vt 0.993020 0.812548
vt 0.000244 0.874516
vt 0.062283 0.874502
vt 0.124331 0.874512
vt 0.186368 0.874561
vt 0.248416 0.874634
vt 0.310458 0.874723
vt 0.372509 0.874810
vt 0.434557 0.874874
vt 0.496609 0.874918
vt 0.558661 0.874924
vt 0.620709 0.874911
vt 0.682760 0.874875
vt 0.744802 0.874836
vt 0.806849 0.874813
vt 0.868887 0.874815
vt 0.930934 0.874855
vt 0.992973 0.874919
vt 0.062225 0.936928
vt 0.000167 0.936904
vt 0.124255 0.936960
vt 0.186289 0.937009
vt 0.248322 0.937100
vt 0.310373 0.937203
vt 0.372432 0.937293
vt 0.434505 0.937377
vt 0.496583 0.937407
vt 0.558662 0.937427
vt 0.620735 0.937393
vt 0.682794 0.937354
vt 0.744845 0.937301
vt 0.806878 0.937261
vt 0.868912 0.937262
vt 0.930942 0.937281
vt 0.993000 0.937307
vt 0.000100 0.999329
vt 0.062134 0.999382
vt 0.124145 0.999404
vt 0.186141 0.999472
vt 0.248157 0.999560
vt 0.310207 0.999665
vt 0.372299 0.999777
vt 0.434420 0.999838
vt 0.496558 0.999900
vt 0.558696 0.999888
vt 0.620817 0.999878
vt 0.682909 0.999816
vt 0.744959 0.999762
vt 0.806976 0.999724
vt 0.868971 0.999707
vt 0.930982 0.999735
vt 0.993017 0.999732
s 1
f 1/1/1 2/2/2 18/3/2
f 1/1/1 18/3/2 17/4/1
f 2/2/2 3/5/3 18/3/2
f 3/5/3 19/6/3 18/3/2
f 3/5/3 4/7/4 20/8/4
f 3/5/3 20/8/4 19/6/3
f 4/7/4 5/9/5 20/8/4
f 5/9/5 21/10/5 20/8/4
f 5/9/5 6/11/6 22/12/6
f 5/9/5 22/12/6 21/10/5
f 6/11/6 7/13/7 22/12/6
f 7/13/7 23/14/7 22/12/6
f 7/13/7 8/15/8 24/16/8
f 7/13/7 24/16/8 23/14/7
f 8/15/8 9/17/9 24/16/8
f 9/17/9 25/18/9 24/16/8
f 9/17/9 10/19/10 26/20/10
f 9/17/9 26/20/10 25/18/9
f 10/19/10 11/21/11 26/20/10
f 11/21/11 27/22/11 26/20/10
f 11/21/11 12/23/12 28/24/12
f 11/21/11 28/24/12 27/22/11
f 12/23/12 13/25/13 28/24/12
f 13/25/13 29/26/13 28/24/12
f 13/25/13 14/27/14 30/28/14
f 13/25/13 30/28/14 29/26/13
f 14/27/14 15/29/15 30/28/14
f 15/29/15 31/30/15 30/28/14
f 15/29/15 16/31/16 32/32/16
f 15/29/15 32/32/16 31/30/15
f 16/31/16 1/33/1 32/32/16
f 1/33/1 17/34/1 32/32/16
f 17/4/1 18/3/2 48/35/1
f 18/3/2 33/36/2 48/35/1
f 18/3/2 19/6/3 34/37/3
f 18/3/2 34/37/3 33/36/2
f 19/6/3 20/8/4 34/37/3
f 20/8/4 35/38/4 34/37/3
f 20/8/4 21/10/5 36/39/5
f 20/8/4 36/39/5 35/38/4
f 21/10/5 22/12/6 36/39/5
f 22/12/6 37/40/6 36/39/5
f 22/12/6 23/14/7 38/41/7
f 22/12/6 38/41/7 37/40/6
f 23/14/7 24/16/8 38/41/7
f 24/16/8 39/42/8 38/41/7
f 24/16/8 25/18/9 40/43/9
f 24/16/8 40/43/9 39/42/8
f 25/18/9 26/20/10 40/43/9
f 26/20/10 41/44/10 40/43/9
f 26/20/10 27/22/11 42/45/11
f 26/20/10 42/45/11 41/44/10
f 27/22/11 28/24/12 42/45/11
f 28/24/12 43/46/12 42/45/11
f 28/24/12 29/26/13 44/47/13
f 28/24/12 44/47/13 43/46/12
f 29/26/13 30/28/14 44/47/13
f 30/28/14 45/48/14 44/47/13
f 30/28/14 31/30/15 46/49/15
f 30/28/14 46/49/15 45/48/14
f 31/30/15 32/32/16 46/49/15
f 32/32/16 47/50/16 46/49/15
f 32/32/16 17/34/1 48/51/1
f 32/32/16 48/51/1 47/50/16
f 48/35/1 33/36/2 50/52/2
f 48/35/1 50/52/2 49/53/1
f 33/36/2 34/37/3 50/52/2
f 34/37/3 51/54/3 50/52/2
f 34/37/3 35/38/4 52/55/4
f 34/37/3 52/55/4 51/54/3
f 35/38/4 36/39/5 52/55/4
f 36/39/5 53/56/5 52/55/4
f 36/39/5 37/40/6 54/57/6
f 36/39/5 54/57/6 53/56/5
f 37/40/6 38/41/7 54/57/6
f 38/41/7 55/58/7 54/57/6
f 38/41/7 39/42/8 56/59/8
f 38/41/7 56/59/8 55/58/7
f 39/42/8 40/43/9 56/59/8
f 40/43/9 57/60/9 56/59/8
f 40/43/9 41/44/10 58/61/10
f 40/43/9 58/61/10 57/60/9
f 41/44/10 42/45/11 58/61/10
f 42/45/11 59/62/11 58/61/10
f 42/45/11 43/46/12 60/63/12
f 42/45/11 60/63/12 59/62/11
f 43/46/12 44/47/13 60/63/12
f 44/47/13 61/64/13 60/63/12
f 44/47/13 45/48/14 62/65/14
f 44/47/13 62/65/14 61/64/13
f 45/48/14 46/49/15 62/65/14
f 46/49/15 63/66/15 62/65/14
f 46/49/15 47/50/16 64/67/16
f 46/49/15 64/67/16 63/66/15
f 47/50/16 48/51/1 64/67/16
f 48/51/1 49/68/1 64/67/16
f 49/53/1 50/52/2 65/69/1
f 50/52/2 66/70/2 65/69/1
f 50/52/2 51/54/3 67/71/3
f 50/52/2 67/71/3 66/70/2
f 51/54/3 52/55/4 67/71/3
f 52/55/4 68/72/4 67/71/3
f 52/55/4 53/56/5 69/73/5
f 52/55/4 69/73/5 68/72/4
f 53/56/5 54/57/6 69/73/5
f 54/57/6 70/74/6 69/73/5
f 54/57/6 55/58/7 71/75/7
f 54/57/6 71/75/7 70/74/6
f 55/58/7 56/59/8 71/75/7
f 56/59/8 72/76/8 71/75/7
f 56/59/8 57/60/9 73/77/9
f 56/59/8 73/77/9 72/76/8
f 57/60/9 58/61/10 73/77/9
f 58/61/10 74/78/10 73/77/9
f 58/61/10 59/62/11 75/79/11
f 58/61/10 75/79/11 74/78/10
f 59/62/11 60/63/12 75/79/11
f 60/63/12 76/80/12 75/79/11
f 60/63/12 61/64/13 77/81/13
f 60/63/12 77/81/13 76/80/12
f 61/64/13 62/65/14 77/81/13
f 62/65/14 78/82/14 77/81/13
f 62/65/14 63/66/15 79/83/15
f 62/65/14 79/83/15 78/82/14
f 63/66/15 64/67/16 79/83/15
f 64/67/16 80/84/16 79/83/15
f 64/67/16 49/68/1 65/85/1
f 64/67/16 65/85/1 80/84/16
f 65/69/1 66/70/2 81/86/2
f 65/69/1 81/86/2 96/87/1
f 66/70/2 67/71/3 81/86/2
f 67/71/3 82/88/3 81/86/2
f 67/71/3 68/72/4 83/89/4
f 67/71/3 83/89/4 82/88/3
f 68/72/4 69/73/5 83/89/4
f 69/73/5 84/90/5 83/89/4
f 69/73/5 70/74/6 85/91/6
f 69/73/5 85/91/6 84/90/5
f 70/74/6 71/75/7 85/91/6
f 71/75/7 86/92/7 85/91/6
f 71/75/7 72/76/8 87/93/8
f 71/75/7 87/93/8 86/92/7
f 72/76/8 73/77/9 87/93/8
f 73/77/9 88/94/9 87/93/8
f 73/77/9 74/78/10 89/95/10
f 73/77/9 89/95/10 88/94/9
f 74/78/10 75/79/11 89/95/10
f 75/79/11 90/96/11 89/95/10
f 75/79/11 76/80/12 91/97/12
f 75/79/11 91/97/12 90/96/11
f 76/80/12 77/81/13 91/97/12
f 77/81/13 92/98/13 91/97/12
f 77/81/13 78/82/14 93/99/14
f 77/81/13 93/99/14 92/98/13
f 78/82/14 79/83/15 93/99/14
f 79/83/15 94/100/15 93/99/14
f 79/83/15 80/84/16 95/101/16
f 79/83/15 95/101/16 94/100/15
f 80/84/16 65/85/1 95/101/16
f 65/85/1 96/102/1 95/101/16
f 96/87/1 81/86/2 112/103/1
f 81/86/2 97/104/2 112/103/1
f 81/86/2 82/88/3 98/105/3
f 81/86/2 98/105/3 97/104/2
f 82/88/3 83/89/4 98/105/3
f 83/89/4 99/106/4 98/105/3
f 83/89/4 84/90/5 100/107/5
f 83/89/4 100/107/5 99/106/4
f 84/90/5 85/91/6 100/107/5
f 85/91/6 101/108/6 100/107/5
f 85/91/6 86/92/7 102/109/7
f 85/91/6 102/109/7 101/108/6
f 86/92/7 87/93/8 102/109/7
f 87/93/8 103/110/8 102/109/7
f 87/93/8 88/94/9 104/111/9
f 87/93/8 104/111/9 103/110/8
f 88/94/9 89/95/10 104/111/9
f 89/95/10 105/112/10 104/111/9
f 89/95/10 90/96/11 106/113/11
f 89/95/10 106/113/11 105/112/10
f 90/96/11 91/97/12 106/113/11
f 91/97/12 107/114/12 106/113/11
f 91/97/12 92/98/13 108/115/13
f 91/97/12 108/115/13 107/114/12
f 92/98/13 93/99/14 108/115/13
f 93/99/14 109/116/14 108/115/13
f 93/99/14 94/100/15 110/117/15
f 93/99/14 110/117/15 109/116/14
f 94/100/15 95/101/16 110/117/15
f 95/101/16 111/118/16 110/117/15
f 95/101/16 96/102/1 112/119/1
f 95/101/16 112/119/1 111/118/16
f 112/103/1 97/104/2 113/120/2
f 112/103/1 113/120/2 128/121/1
f 97/104/2 98/105/3 113/120/2
f 98/105/3 114/122/3 113/120/2
f 98/105/3 99/106/4 115/123/4
f 98/105/3 115/123/4 114/122/3
f 99/106/4 100/107/5 115/123/4
f 100/107/5 116/124/5 115/123/4
f 100/107/5 101/108/6 117/125/6
f 100/107/5 117/125/6 116/124/5
f 101/108/6 102/109/7 117/125/6
f 102/109/7 118/126/7 117/125/6
f 102/109/7 103/110/8 119/127/8
f 102/109/7 119/127/8 118/126/7
f 103/110/8 104/111/9 119/127/8
f 104/111/9 120/128/9 119/127/8
f 104/111/9 105/112/10 121/129/10
f 104/111/9 121/129/10 120/128/9
f 105/112/10 106/113/11 121/129/10
f 106/113/11 122/130/11 121/129/10
f 106/113/11 107/114/12 123/131/12
f 106/113/11 123/131/12 122/130/11
f 107/114/12 108/115/13 123/131/12
f 108/115/13 124/132/13 123/131/12
f 108/115/13 109/116/14 125/133/14
f 108/115/13 125/133/14 124/132/13
f 109/116/14 110/117/15 125/133/14
f 110/117/15 126/134/15 125/133/14
f 110/117/15 111/118/16 127/135/16
f 110/117/15 127/135/16 126/134/15
f 111/118/16 112/119/1 127/135/16
f 112/119/1 128/136/1 127/135/16
f 128/121/1 113/120/2 144/137/1
f 113/120/2 129/138/2 144/137/1
f 113/120/2 114/122/3 130/139/3
f 113/120/2 130/139/3 129/138/2
f 114/122/3 115/123/4 130/139/3
f 115/123/4 131/140/4 130/139/3
f 115/123/4 116/124/5 132/141/5
f 115/123/4 132/141/5 131/140/4
f 116/124/5 117/125/6 132/141/5
f 117/125/6 133/142/6 132/141/5
f 117/125/6 118/126/7 134/143/7
f 117/125/6 134/143/7 133/142/6
f 118/126/7 119/127/8 134/143/7
f 119/127/8 135/144/8 134/143/7
f 119/127/8 120/128/9 136/145/9
f 119/127/8 136/145/9 135/144/8
f 120/128/9 121/129/10 136/145/9
f 121/129/10 137/146/10 136/145/9
f 121/129/10 122/130/11 138/147/11
f 121/129/10 138/147/11 137/146/10
f 122/130/11 123/131/12 138/147/11
f 123/131/12 139/148/12 138/147/11
f 123/131/12 124/132/13 140/149/13
f 123/131/12 140/149/13 139/148/12
f 124/132/13 125/133/14 140/149/13
f 125/133/14 141/150/14 140/149/13
f 125/133/14 126/134/15 142/151/15
f 125/133/14 142/151/15 141/150/14
f 126/134/15 127/135/16 142/151/15
f 127/135/16 143/152/16 142/151/15
f 127/135/16 128/136/1 144/153/1
f 127/135/16 144/153/1 143/152/16
f 144/137/1 129/138/2 146/154/2
f 144/137/1 146/154/2 145/155/1
f 129/138/2 130/139/3 146/154/2
f 130/139/3 147/156/3 146/154/2
f 130/139/3 131/140/4 148/157/4
f 130/139/3 148/157/4 147/156/3
f 131/140/4 132/141/5 148/157/4
f 132/141/5 149/158/5 148/157/4
f 132/141/5 133/142/6 150/159/6
f 132/141/5 150/159/6 149/158/5
f 133/142/6 134/143/7 150/159/6
f 134/143/7 151/160/7 150/159/6
f 134/143/7 135/144/8 152/161/8
f 134/143/7 152/161/8 151/160/7
f 135/144/8 136/145/9 152/161/8
f 136/145/9 153/162/9 152/161/8
f 136/145/9 137/146/10 154/163/10
f 136/145/9 154/163/10 153/162/9
f 137/146/10 138/147/11 154/163/10
f 138/147/11 155/164/11 154/163/10
f 138/147/11 139/148/12 156/165/12
f 138/147/11 156/165/12 155/164/11
f 139/148/12 140/149/13 156/165/12
f 140/149/13 157/166/13 156/165/12
f 140/149/13 141/150/14 158/167/14
f 140/149/13 158/167/14 157/166/13
f 141/150/14 142/151/15 158/167/14
f 142/151/15 159/168/15 158/167/14
f 142/151/15 143/152/16 160/169/16
f 142/151/15 160/169/16 159/168/15
f 143/152/16 144/153/1 160/169/16
f 144/153/1 145/170/1 160/169/16
f 145/155/1 146/154/2 176/171/1
f 146/154/2 161/172/2 176/171/1
f 146/154/2 147/156/3 162/173/3
f 146/154/2 162/173/3 161/172/2
f 147/156/3 148/157/4 162/173/3
f 148/157/4 163/174/4 162/173/3
f 148/157/4 149/158/5 164/175/5
f 148/157/4 164/175/5 163/174/4
f 149/158/5 150/159/6 164/175/5
f 150/159/6 165/176/6 164/175/5
f 150/159/6 151/160/7 166/177/7
f 150/159/6 166/177/7 165/176/6
f 151/160/7 152/161/8 166/177/7
f 152/161/8 167/178/8 166/177/7
f 152/161/8 153/162/9 168/179/9
f 152/161/8 168/179/9 167/178/8
f 153/162/9 154/163/10 168/179/9
f 154/163/10 169/180/10 168/179/9
f 154/163/10 155/164/11 170/181/11
f 154/163/10 170/181/11 169/180/10
f 155/164/11 156/165/12 170/181/11
f 156/165/12 171/182/12 170/181/11
f 156/165/12 157/166/13 172/183/13
f 156/165/12 172/183/13 171/182/12
f 157/166/13 158/167/14 172/183/13
f 158/167/14 173/184/14 172/183/13
f 158/167/14 159/168/15 174/185/15
f 158/167/14 174/185/15 173/184/14
f 159/168/15 160/169/16 174/185/15
f 160/169/16 175/186/16 174/185/15
f 160/169/16 145/170/1 176/187/1
f 160/169/16 176/187/1 175/186/16
f 176/171/1 161/172/2 178/188/2
f 176/171/1 178/188/2 177/189/1
f 161/172/2 162/173/3 178/188/2
f 162/173/3 179/190/3 178/188/2
f 162/173/3 163/174/4 180/191/4
f 162/173/3 180/191/4 179/190/3
f 163/174/4 164/175/5 180/191/4
f 164/175/5 181/192/5 180/191/4
f 164/175/5 165/176/6 182/193/6
f 164/175/5 182/193/6 181/192/5
f 165/176/6 166/177/7 182/193/6
f 166/177/7 183/194/7 182/193/6
f 166/177/7 167/178/8 184/195/8
f 166/177/7 184/195/8 183/194/7
f 167/178/8 168/179/9 184/195/8
f 168/179/9 185/196/9 184/195/8
f 168/179/9 169/180/10 186/197/10
f 168/179/9 186/197/10 185/196/9
f 169/180/10 170/181/11 186/197/10
f 170/181/11 187/198/11 186/197/10
f 170/181/11 171/182/12 188/199/12
f 170/181/11 188/199/12 187/198/11
f 171/182/12 172/183/13 188/199/12
f 172/183/13 189/200/13 188/199/12
f 172/183/13 173/184/14 190/201/14
f 172/183/13 190/201/14 189/200/13
f 173/184/14 174/185/15 190/201/14
f 174/185/15 191/202/15 190/201/14
f 174/185/15 175/186/16 192/203/16
f 174/185/15 192/203/16 191/202/15
f 175/186/16 176/187/1 192/203/16
f 176/187/1 177/204/1 192/203/16
f 177/189/1 178/188/2 193/205/1
f 178/188/2 194/206/2 193/205/1
f 178/188/2 179/190/3 195/207/3
f 178/188/2 195/207/3 194/206/2
f 179/190/3 180/191/4 195/207/3
f 180/191/4 196/208/4 195/207/3
f 180/191/4 181/192/5 197/209/5
f 180/191/4 197/209/5 196/208/4
f 181/192/5 182/193/6 197/209/5
f 182/193/6 198/210/6 197/209/5
f 182/193/6 183/194/7 199/211/7
f 182/193/6 199/211/7 198/210/6
f 183/194/7 184/195/8 199/211/7
f 184/195/8 200/212/8 199/211/7
f 184/195/8 185/196/9 201/213/9
f 184/195/8 201/213/9 200/212/8
f 185/196/9 186/197/10 201/213/9
f 186/197/10 202/214/10 201/213/9
f 186/197/10 187/198/11 203/215/11
f 186/197/10 203/215/11 202/214/10
f 187/198/11 188/199/12 203/215/11
f 188/199/12 204/216/12 203/215/11
f 188/199/12 189/200/13 205/217/13
f 188/199/12 205/217/13 204/216/12
f 189/200/13 190/201/14 205/217/13
f 190/201/14 206/218/14 205/217/13
f 190/201/14 191/202/15 207/219/15
f 190/201/14 207/219/15 206/218/14
f 191/202/15 192/203/16 207/219/15
f 192/203/16 208/220/16 207/219/15
f 192/203/16 177/204/1 193/221/1
f 192/203/16 193/221/1 208/220/16
f 193/205/1 194/206/2 209/222/2
f 193/205/1 209/222/2 224/223/1
f 194/206/2 195/207/3 209/222/2
f 195/207/3 210/224/3 209/222/2
f 195/207/3 196/208/4 211/225/4
f 195/207/3 211/225/4 210/224/3
f 196/208/4 197/209/5 211/225/4
f 197/209/5 212/226/5 211/225/4
f 197/209/5 198/210/6 213/227/6
f 197/209/5 213/227/6 212/226/5
f 198/210/6 199/211/7 213/227/6
f 199/211/7 214/228/7 213/227/6
f 199/211/7 200/212/8 215/229/8
f 199/211/7 215/229/8 214/228/7
f 200/212/8 201/213/9 215/229/8
f 201/213/9 216/230/9 215/229/8
f 201/213/9 202/214/10 217/231/10
f 201/213/9 217/231/10 216/230/9
f 202/214/10 203/215/11 217/231/10
f 203/215/11 218/232/11 217/231/10
f 203/215/11 204/216/12 219/233/12
f 203/215/11 219/233/12 218/232/11
f 204/216/12 205/217/13 219/233/12
f 205/217/13 220/234/13 219/233/12
f 205/217/13 206/218/14 221/235/14
f 205/217/13 221/235/14 220/234/13
f 206/218/14 207/219/15 221/235/14
f 207/219/15 222/236/15 221/235/14
f 207/219/15 208/220/16 223/237/16
f 207/219/15 223/237/16 222/236/15
f 208/220/16 193/221/1 223/237/16
f 193/221/1 224/238/1 223/237/16
f 224/223/1 209/222/2 240/239/1
f 209/222/2 225/240/2 240/239/1
f 209/222/2 210/224/3 226/241/3
f 209/222/2 226/241/3 225/240/2
f 210/224/3 211/225/4 226/241/3
f 211/225/4 227/242/4 226/241/3
f 211/225/4 212/226/5 228/243/5
f 211/225/4 228/243/5 227/242/4
f 212/226/5 213/227/6 228/243/5
f 213/227/6 229/244/6 228/243/5
f 213/227/6 214/228/7 230/245/7
f 213/227/6 230/245/7 229/244/6
f 214/228/7 215/229/8 230/245/7
f 215/229/8 231/246/8 230/245/7
f 215/229/8 216/230/9 232/247/9
f 215/229/8 232/247/9 231/246/8
f 216/230/9 217/231/10 232/247/9
f 217/231/10 233/248/10 232/247/9
f 217/231/10 218/232/11 234/249/11
f 217/231/10 234/249/11 233/248/10
f 218/232/11 219/233/12 234/249/11
f 219/233/12 235/250/12 234/249/11
f 219/233/12 220/234/13 236/251/13
f 219/233/12 236/251/13 235/250/12
f 220/234/13 221/235/14 236/251/13
f 221/235/14 237/252/14 236/251/13
f 221/235/14 222/236/15 238/253/15
f 221/235/14 238/253/15 237/252/14
f 222/236/15 223/237/16 238/253/15
f 223/237/16 239/254/16 238/253/15
f 223/237/16 224/238/1 240/255/1
f 223/237/16 240/255/1 239/254/16
f 240/239/1 225/240/2 241/256/2
f 240/239/1 241/256/2 256/257/1
f 225/240/2 226/241/3 241/256/2
f 226/241/3 242/258/3 241/256/2
f 226/241/3 227/242/4 243/259/4
f 226/241/3 243/259/4 242/258/3
f 227/242/4 228/243/5 243/259/4
f 228/243/5 244/260/5 243/259/4
f 228/243/5 229/244/6 245/261/6
f 228/243/5 245/261/6 244/260/5
f 229/244/6 230/245/7 245/261/6
f 230/245/7 246/262/7 245/261/6
f 230/245/7 231/246/8 247/263/8
f 230/245/7 247/263/8 246/262/7
f 231/246/8 232/247/9 247/263/8
f 232/247/9 248/264/9 247/263/8
f 232/247/9 233/248/10 249/265/10
f 232/247/9 249/265/10 248/264/9
f 233/248/10 234/249/11 249/265/10
f 234/249/11 250/266/11 249/265/10
f 234/249/11 235/250/12 251/267/12
f 234/249/11 251/267/12 250/266/11
f 235/250/12 236/251/13 251/267/12
f 236/251/13 252/268/13 251/267/12
f 236/251/13 237/252/14 253/269/14
f 236/251/13 253/269/14 252/268/13
f 237/252/14 238/253/15 253/269/14
f 238/253/15 254/270/15 253/269/14
f 238/253/15 239/254/16 255/271/16
f 238/253/15 255/271/16 254/270/15
f 239/254/16 240/255/1 255/271/16
f 240/255/1 256/272/1 255/271/16
f 256/257/1 241/256/2 257/273/1
f 241/256/2 258/274/2 257/273/1
f 241/256/2 242/258/3 259/275/3
f 241/256/2 259/275/3 258/274/2
f 242/258/3 243/259/4 259/275/3
f 243/259/4 260/276/4 259/275/3
f 243/259/4 244/260/5 261/277/5
f 243/259/4 261/277/5 260/276/4
f 244/260/5 245/261/6 261/277/5
f 245/261/6 262/278/6 261/277/5
f 245/261/6 246/262/7 263/279/7
f 245/261/6 263/279/7 262/278/6
f 246/262/7 247/263/8 263/279/7
f 247/263/8 264/280/8 263/279/7
f 247/263/8 248/264/9 265/281/9
f 247/263/8 265/281/9 264/280/8
f 248/264/9 249/265/10 265/281/9
f 249/265/10 266/282/10 265/281/9
f 249/265/10 250/266/11 267/283/11
f 249/265/10 267/283/11 266/282/10
f 250/266/11 251/267/12 267/283/11
f 251/267/12 268/284/12 267/283/11
f 251/267/12 252/268/13 269/285/13
f 251/267/12 269/285/13 268/284/12
f 252/268/13 253/269/14 269/285/13
f 253/269/14 270/286/14 269/285/13
f 253/269/14 254/270/15 271/287/15
f 253/269/14 271/287/15 270/286/14
f 254/270/15 255/271/16 271/287/15
f 255/271/16 272/288/16 271/287/15
f 255/271/16 256/272/1 257/289/1
f 255/271/16 257/289/1 272/288/16
