# Blender 5.0.1
# www.blender.org
o squarex_16x16_with_seams.001_Flat_Aligned
v 0.550752 0.000000 -0.829762
v 0.464654 0.000000 -0.812636
v 0.378597 0.000000 -0.795473
v 0.292551 0.000000 -0.778378
v 0.206467 0.000000 -0.761305
v 0.120334 0.000000 -0.744246
v 0.034140 0.000000 -0.727186
v -0.052079 0.000000 -0.710046
v -0.138323 0.000000 -0.692904
v -0.224547 0.000000 -0.675659
v -0.310745 0.000000 -0.658420
v -0.396892 0.000000 -0.641119
v -0.482982 0.000000 -0.623839
v -0.569029 0.000000 -0.606591
v -0.655053 0.000000 -0.589378
v -0.741112 0.000000 -0.572223
v -0.809862 0.000000 -0.468400
v 0.481844 0.000000 -0.725946
v 0.395759 0.000000 -0.708790
v 0.309663 0.000000 -0.691659
v 0.223557 0.000000 -0.674585
v 0.137423 0.000000 -0.657524
v 0.051281 0.000000 -0.640441
v -0.034879 0.000000 -0.623347
v -0.121032 0.000000 -0.606177
v -0.207181 0.000000 -0.588993
v -0.293308 0.000000 -0.571736
v -0.379414 0.000000 -0.554474
v -0.465505 0.000000 -0.537197
v -0.551575 0.000000 -0.519941
v -0.637658 0.000000 -0.502743
v -0.723739 0.000000 -0.485569
v 0.499071 0.000000 -0.639303
v 0.412968 0.000000 -0.622114
v 0.326867 0.000000 -0.604980
v 0.240746 0.000000 -0.587879
v 0.154628 0.000000 -0.570801
v 0.068499 0.000000 -0.553716
v -0.017621 0.000000 -0.536600
v -0.103740 0.000000 -0.519457
v -0.189849 0.000000 -0.502261
v -0.275947 0.000000 -0.485038
v -0.362043 0.000000 -0.467784
v -0.448126 0.000000 -0.450528
v -0.534221 0.000000 -0.433292
v -0.620308 0.000000 -0.416093
v -0.706421 0.000000 -0.398945
v -0.792528 0.000000 -0.381833
v -0.775299 0.000000 -0.295270
v 0.516341 0.000000 -0.552671
v 0.430247 0.000000 -0.535463
v 0.344132 0.000000 -0.518302
v 0.258015 0.000000 -0.501190
v 0.171887 0.000000 -0.484087
v 0.085773 0.000000 -0.466986
v -0.000342 0.000000 -0.449865
v -0.086445 0.000000 -0.432714
v -0.172541 0.000000 -0.415531
v -0.258638 0.000000 -0.398317
v -0.344726 0.000000 -0.381082
v -0.430826 0.000000 -0.363846
v -0.516921 0.000000 -0.346622
v -0.603034 0.000000 -0.329442
v -0.689142 0.000000 -0.312314
v -0.758100 0.000000 -0.208666
v 0.533689 0.000000 -0.466054
v 0.447573 0.000000 -0.448812
v 0.361449 0.000000 -0.431646
v 0.275315 0.000000 -0.414504
v 0.189190 0.000000 -0.397390
v 0.103065 0.000000 -0.380267
v 0.016954 0.000000 -0.363137
v -0.069151 0.000000 -0.345981
v -0.155253 0.000000 -0.328802
v -0.241349 0.000000 -0.311596
v -0.327455 0.000000 -0.294379
v -0.413558 0.000000 -0.277152
v -0.499680 0.000000 -0.259949
v -0.585802 0.000000 -0.242772
v -0.671945 0.000000 -0.225669
v 0.551063 0.000000 -0.379419
v 0.464930 0.000000 -0.362178
v 0.378787 0.000000 -0.344986
v 0.292644 0.000000 -0.327838
v 0.206501 0.000000 -0.310696
v 0.120374 0.000000 -0.293566
v 0.034252 0.000000 -0.276418
v -0.051861 0.000000 -0.259261
v -0.137968 0.000000 -0.242079
v -0.224082 0.000000 -0.224886
v -0.310193 0.000000 -0.207675
v -0.396323 0.000000 -0.190469
v -0.482455 0.000000 -0.173267
v -0.568604 0.000000 -0.156105
v -0.654763 0.000000 -0.138994
v -0.740926 0.000000 -0.122001
v 0.568429 0.000000 -0.292769
v 0.482288 0.000000 -0.275530
v 0.396127 0.000000 -0.258342
v 0.309966 0.000000 -0.241172
v 0.223819 0.000000 -0.224023
v 0.137677 0.000000 -0.206868
v 0.051551 0.000000 -0.189716
v -0.034572 0.000000 -0.172548
v -0.120693 0.000000 -0.155374
v -0.206813 0.000000 -0.138181
v -0.292947 0.000000 -0.120988
v -0.379083 0.000000 -0.103785
v -0.465239 0.000000 -0.086598
v -0.551403 0.000000 -0.069426
v -0.637570 0.000000 -0.052310
v -0.723753 0.000000 -0.035271
v 0.585792 0.000000 -0.206096
v 0.499619 0.000000 -0.188882
v 0.413450 0.000000 -0.171690
v 0.327283 0.000000 -0.154517
v 0.241122 0.000000 -0.137348
v 0.154980 0.000000 -0.120186
v 0.068843 0.000000 -0.103019
v -0.017285 0.000000 -0.085851
v -0.103412 0.000000 -0.068673
v -0.189546 0.000000 -0.051492
v -0.275684 0.000000 -0.034305
v -0.361839 0.000000 -0.017117
v -0.448003 0.000000 0.000072
v -0.534178 0.000000 0.017243
v -0.620364 0.000000 0.034394
v -0.706506 0.000000 0.051488
v 0.603086 0.000000 -0.119401
v 0.516923 0.000000 -0.102221
v 0.430742 0.000000 -0.085039
v 0.344571 0.000000 -0.067858
v 0.258415 0.000000 -0.050680
v 0.172266 0.000000 -0.033502
v 0.086133 0.000000 -0.016328
v 0.000000 0.000000 0.000845
v -0.086132 0.000000 0.018018
v -0.172266 0.000000 0.035192
v -0.258414 0.000000 0.052370
v -0.344570 0.000000 0.069548
v -0.430741 0.000000 0.086729
v -0.516922 0.000000 0.103912
v -0.603085 0.000000 0.121091
v -0.689253 0.000000 0.138273
v -0.671902 0.000000 0.225038
v 0.620364 0.000000 -0.032704
v 0.534178 0.000000 -0.015553
v 0.448004 0.000000 0.001619
v 0.361840 0.000000 0.018807
v 0.275685 0.000000 0.035995
v 0.189546 0.000000 0.053182
v 0.103413 0.000000 0.070363
v 0.017286 0.000000 0.087541
v -0.068842 0.000000 0.104709
v -0.154980 0.000000 0.121876
v -0.241122 0.000000 0.139038
v -0.327282 0.000000 0.156207
v -0.413449 0.000000 0.173380
v -0.499618 0.000000 0.190572
v -0.585791 0.000000 0.207786
v 0.637570 0.000000 0.054001
v 0.551404 0.000000 0.071116
v 0.465239 0.000000 0.088288
v 0.379084 0.000000 0.105475
v 0.292947 0.000000 0.122678
v 0.206813 0.000000 0.139872
v 0.120693 0.000000 0.157064
v 0.034573 0.000000 0.174238
v -0.051550 0.000000 0.191406
v -0.137677 0.000000 0.208558
v -0.223819 0.000000 0.225713
v -0.309966 0.000000 0.242862
v -0.396126 0.000000 0.260032
v -0.482287 0.000000 0.277220
v -0.568428 0.000000 0.294460
v -0.654557 0.000000 0.311776
v -0.637154 0.000000 0.398460
v 0.654764 0.000000 0.140684
v 0.568605 0.000000 0.157795
v 0.482456 0.000000 0.174957
v 0.396324 0.000000 0.192160
v 0.310193 0.000000 0.209365
v 0.224083 0.000000 0.226576
v 0.137969 0.000000 0.243769
v 0.051861 0.000000 0.260950
v -0.034251 0.000000 0.278108
v -0.120374 0.000000 0.295256
v -0.206500 0.000000 0.312387
v -0.292643 0.000000 0.329529
v -0.378786 0.000000 0.346677
v -0.464929 0.000000 0.363868
v -0.551063 0.000000 0.381109
v -0.619776 0.000000 0.485084
v 0.671946 0.000000 0.227359
v 0.585802 0.000000 0.244462
v 0.499681 0.000000 0.261639
v 0.413559 0.000000 0.278842
v 0.327456 0.000000 0.296069
v 0.241349 0.000000 0.313286
v 0.155254 0.000000 0.330492
v 0.069152 0.000000 0.347671
v -0.016954 0.000000 0.364827
v -0.103064 0.000000 0.381957
v -0.189189 0.000000 0.399080
v -0.275315 0.000000 0.416194
v -0.361449 0.000000 0.433336
v -0.447573 0.000000 0.450502
v -0.533688 0.000000 0.467744
v 0.689143 0.000000 0.314005
v 0.603035 0.000000 0.331133
v 0.516921 0.000000 0.348311
v 0.430826 0.000000 0.365536
v 0.344727 0.000000 0.382772
v 0.258638 0.000000 0.400006
v 0.172542 0.000000 0.417221
v 0.086446 0.000000 0.434404
v 0.000342 0.000000 0.451556
v -0.085773 0.000000 0.468676
v -0.171887 0.000000 0.485777
v -0.258014 0.000000 0.502880
v -0.344131 0.000000 0.519992
v -0.430247 0.000000 0.537154
v -0.516341 0.000000 0.554361
v -0.602445 0.000000 0.571663
v 0.706421 0.000000 0.400635
v 0.620308 0.000000 0.417783
v 0.534221 0.000000 0.434982
v 0.448126 0.000000 0.452217
v 0.362043 0.000000 0.469473
v 0.275948 0.000000 0.486728
v 0.189850 0.000000 0.503951
v 0.103741 0.000000 0.521147
v 0.017621 0.000000 0.538290
v -0.068498 0.000000 0.555406
v -0.154628 0.000000 0.572491
v -0.240746 0.000000 0.589569
v -0.326867 0.000000 0.606671
v -0.412968 0.000000 0.623804
v -0.499071 0.000000 0.640993
v -0.585156 0.000000 0.658214
v 0.723740 0.000000 0.487260
v 0.637658 0.000000 0.504433
v 0.551575 0.000000 0.521631
v 0.465506 0.000000 0.538887
v 0.379414 0.000000 0.556165
v 0.293308 0.000000 0.573426
v 0.207181 0.000000 0.590684
v 0.121032 0.000000 0.607868
v 0.034879 0.000000 0.625038
v -0.051281 0.000000 0.642131
v -0.137422 0.000000 0.659214
v -0.223557 0.000000 0.676275
v -0.309662 0.000000 0.693349
v -0.395758 0.000000 0.710481
v -0.481844 0.000000 0.727636
v -0.567966 0.000000 0.744809
v -0.550752 0.000000 0.831452
v 0.741112 0.000000 0.573914
v 0.655054 0.000000 0.591068
v 0.569029 0.000000 0.608282
v 0.482982 0.000000 0.625529
v 0.396893 0.000000 0.642809
v 0.310747 0.000000 0.660110
v 0.224547 0.000000 0.677349
v 0.138324 0.000000 0.694594
v 0.052080 0.000000 0.711736
v -0.034140 0.000000 0.728876
v -0.120334 0.000000 0.745936
v -0.206467 0.000000 0.762995
v -0.292550 0.000000 0.780068
v -0.378597 0.000000 0.797164
v -0.464653 0.000000 0.814326
v 0.567967 0.000000 -0.743118
v -0.827193 0.000000 -0.555020
v 0.585158 0.000000 -0.656524
v 0.602446 0.000000 -0.569973
v 0.619776 0.000000 -0.483394
v 0.637154 0.000000 -0.396770
v 0.654557 0.000000 -0.310086
v 0.671903 0.000000 -0.223348
v 0.689254 0.000000 -0.136583
v 0.706506 0.000000 -0.049798
v 0.723754 0.000000 0.036962
v 0.740928 0.000000 0.123691
v 0.758100 0.000000 0.210356
v 0.775300 0.000000 0.296961
v 0.792528 0.000000 0.383523
v 0.809863 0.000000 0.470090
v 0.827194 0.000000 0.556710
vn -0.0000 1.0000 -0.0000
s 0
f 1//1 2//1 18//1
f 1//1 18//1 273//1
f 2//1 3//1 18//1
f 3//1 19//1 18//1
f 3//1 4//1 20//1
f 3//1 20//1 19//1
f 4//1 5//1 20//1
f 5//1 21//1 20//1
f 5//1 6//1 22//1
f 5//1 22//1 21//1
f 6//1 7//1 22//1
f 7//1 23//1 22//1
f 7//1 8//1 24//1
f 7//1 24//1 23//1
f 8//1 9//1 24//1
f 9//1 25//1 24//1
f 9//1 10//1 26//1
f 9//1 26//1 25//1
f 10//1 11//1 26//1
f 11//1 27//1 26//1
f 11//1 12//1 28//1
f 11//1 28//1 27//1
f 12//1 13//1 28//1
f 13//1 29//1 28//1
f 13//1 14//1 30//1
f 13//1 30//1 29//1
f 14//1 15//1 30//1
f 15//1 31//1 30//1
f 15//1 16//1 32//1
f 15//1 32//1 31//1
f 16//1 274//1 32//1
f 274//1 17//1 32//1
f 273//1 18//1 275//1
f 18//1 33//1 275//1
f 18//1 19//1 34//1
f 18//1 34//1 33//1
f 19//1 20//1 34//1
f 20//1 35//1 34//1
f 20//1 21//1 36//1
f 20//1 36//1 35//1
f 21//1 22//1 36//1
f 22//1 37//1 36//1
f 22//1 23//1 38//1
f 22//1 38//1 37//1
f 23//1 24//1 38//1
f 24//1 39//1 38//1
f 24//1 25//1 40//1
f 24//1 40//1 39//1
f 25//1 26//1 40//1
f 26//1 41//1 40//1
f 26//1 27//1 42//1
f 26//1 42//1 41//1
f 27//1 28//1 42//1
f 28//1 43//1 42//1
f 28//1 29//1 44//1
f 28//1 44//1 43//1
f 29//1 30//1 44//1
f 30//1 45//1 44//1
f 30//1 31//1 46//1
f 30//1 46//1 45//1
f 31//1 32//1 46//1
f 32//1 47//1 46//1
f 32//1 17//1 48//1
f 32//1 48//1 47//1
f 275//1 33//1 50//1
f 275//1 50//1 276//1
f 33//1 34//1 50//1
f 34//1 51//1 50//1
f 34//1 35//1 52//1
f 34//1 52//1 51//1
f 35//1 36//1 52//1
f 36//1 53//1 52//1
f 36//1 37//1 54//1
f 36//1 54//1 53//1
f 37//1 38//1 54//1
f 38//1 55//1 54//1
f 38//1 39//1 56//1
f 38//1 56//1 55//1
f 39//1 40//1 56//1
f 40//1 57//1 56//1
f 40//1 41//1 58//1
f 40//1 58//1 57//1
f 41//1 42//1 58//1
f 42//1 59//1 58//1
f 42//1 43//1 60//1
f 42//1 60//1 59//1
f 43//1 44//1 60//1
f 44//1 61//1 60//1
f 44//1 45//1 62//1
f 44//1 62//1 61//1
f 45//1 46//1 62//1
f 46//1 63//1 62//1
f 46//1 47//1 64//1
f 46//1 64//1 63//1
f 47//1 48//1 64//1
f 48//1 49//1 64//1
f 276//1 50//1 277//1
f 50//1 66//1 277//1
f 50//1 51//1 67//1
f 50//1 67//1 66//1
f 51//1 52//1 67//1
f 52//1 68//1 67//1
f 52//1 53//1 69//1
f 52//1 69//1 68//1
f 53//1 54//1 69//1
f 54//1 70//1 69//1
f 54//1 55//1 71//1
f 54//1 71//1 70//1
f 55//1 56//1 71//1
f 56//1 72//1 71//1
f 56//1 57//1 73//1
f 56//1 73//1 72//1
f 57//1 58//1 73//1
f 58//1 74//1 73//1
f 58//1 59//1 75//1
f 58//1 75//1 74//1
f 59//1 60//1 75//1
f 60//1 76//1 75//1
f 60//1 61//1 77//1
f 60//1 77//1 76//1
f 61//1 62//1 77//1
f 62//1 78//1 77//1
f 62//1 63//1 79//1
f 62//1 79//1 78//1
f 63//1 64//1 79//1
f 64//1 80//1 79//1
f 64//1 49//1 65//1
f 64//1 65//1 80//1
f 277//1 66//1 81//1
f 277//1 81//1 278//1
f 66//1 67//1 81//1
f 67//1 82//1 81//1
f 67//1 68//1 83//1
f 67//1 83//1 82//1
f 68//1 69//1 83//1
f 69//1 84//1 83//1
f 69//1 70//1 85//1
f 69//1 85//1 84//1
f 70//1 71//1 85//1
f 71//1 86//1 85//1
f 71//1 72//1 87//1
f 71//1 87//1 86//1
f 72//1 73//1 87//1
f 73//1 88//1 87//1
f 73//1 74//1 89//1
f 73//1 89//1 88//1
f 74//1 75//1 89//1
f 75//1 90//1 89//1
f 75//1 76//1 91//1
f 75//1 91//1 90//1
f 76//1 77//1 91//1
f 77//1 92//1 91//1
f 77//1 78//1 93//1
f 77//1 93//1 92//1
f 78//1 79//1 93//1
f 79//1 94//1 93//1
f 79//1 80//1 95//1
f 79//1 95//1 94//1
f 80//1 65//1 95//1
f 65//1 96//1 95//1
f 278//1 81//1 279//1
f 81//1 97//1 279//1
f 81//1 82//1 98//1
f 81//1 98//1 97//1
f 82//1 83//1 98//1
f 83//1 99//1 98//1
f 83//1 84//1 100//1
f 83//1 100//1 99//1
f 84//1 85//1 100//1
f 85//1 101//1 100//1
f 85//1 86//1 102//1
f 85//1 102//1 101//1
f 86//1 87//1 102//1
f 87//1 103//1 102//1
f 87//1 88//1 104//1
f 87//1 104//1 103//1
f 88//1 89//1 104//1
f 89//1 105//1 104//1
f 89//1 90//1 106//1
f 89//1 106//1 105//1
f 90//1 91//1 106//1
f 91//1 107//1 106//1
f 91//1 92//1 108//1
f 91//1 108//1 107//1
f 92//1 93//1 108//1
f 93//1 109//1 108//1
f 93//1 94//1 110//1
f 93//1 110//1 109//1
f 94//1 95//1 110//1
f 95//1 111//1 110//1
f 95//1 96//1 112//1
f 95//1 112//1 111//1
f 279//1 97//1 113//1
f 279//1 113//1 280//1
f 97//1 98//1 113//1
f 98//1 114//1 113//1
f 98//1 99//1 115//1
f 98//1 115//1 114//1
f 99//1 100//1 115//1
f 100//1 116//1 115//1
f 100//1 101//1 117//1
f 100//1 117//1 116//1
f 101//1 102//1 117//1
f 102//1 118//1 117//1
f 102//1 103//1 119//1
f 102//1 119//1 118//1
f 103//1 104//1 119//1
f 104//1 120//1 119//1
f 104//1 105//1 121//1
f 104//1 121//1 120//1
f 105//1 106//1 121//1
f 106//1 122//1 121//1
f 106//1 107//1 123//1
f 106//1 123//1 122//1
f 107//1 108//1 123//1
f 108//1 124//1 123//1
f 108//1 109//1 125//1
f 108//1 125//1 124//1
f 109//1 110//1 125//1
f 110//1 126//1 125//1
f 110//1 111//1 127//1
f 110//1 127//1 126//1
f 111//1 112//1 127//1
f 112//1 128//1 127//1
f 280//1 113//1 281//1
f 113//1 129//1 281//1
f 113//1 114//1 130//1
f 113//1 130//1 129//1
f 114//1 115//1 130//1
f 115//1 131//1 130//1
f 115//1 116//1 132//1
f 115//1 132//1 131//1
f 116//1 117//1 132//1
f 117//1 133//1 132//1
f 117//1 118//1 134//1
f 117//1 134//1 133//1
f 118//1 119//1 134//1
f 119//1 135//1 134//1
f 119//1 120//1 136//1
f 119//1 136//1 135//1
f 120//1 121//1 136//1
f 121//1 137//1 136//1
f 121//1 122//1 138//1
f 121//1 138//1 137//1
f 122//1 123//1 138//1
f 123//1 139//1 138//1
f 123//1 124//1 140//1
f 123//1 140//1 139//1
f 124//1 125//1 140//1
f 125//1 141//1 140//1
f 125//1 126//1 142//1
f 125//1 142//1 141//1
f 126//1 127//1 142//1
f 127//1 143//1 142//1
f 127//1 128//1 144//1
f 127//1 144//1 143//1
f 281//1 129//1 146//1
f 281//1 146//1 282//1
f 129//1 130//1 146//1
f 130//1 147//1 146//1
f 130//1 131//1 148//1
f 130//1 148//1 147//1
f 131//1 132//1 148//1
f 132//1 149//1 148//1
f 132//1 133//1 150//1
f 132//1 150//1 149//1
f 133//1 134//1 150//1
f 134//1 151//1 150//1
f 134//1 135//1 152//1
f 134//1 152//1 151//1
f 135//1 136//1 152//1
f 136//1 153//1 152//1
f 136//1 137//1 154//1
f 136//1 154//1 153//1
f 137//1 138//1 154//1
f 138//1 155//1 154//1
f 138//1 139//1 156//1
f 138//1 156//1 155//1
f 139//1 140//1 156//1
f 140//1 157//1 156//1
f 140//1 141//1 158//1
f 140//1 158//1 157//1
f 141//1 142//1 158//1
f 142//1 159//1 158//1
f 142//1 143//1 160//1
f 142//1 160//1 159//1
f 143//1 144//1 160//1
f 144//1 145//1 160//1
f 282//1 146//1 283//1
f 146//1 161//1 283//1
f 146//1 147//1 162//1
f 146//1 162//1 161//1
f 147//1 148//1 162//1
f 148//1 163//1 162//1
f 148//1 149//1 164//1
f 148//1 164//1 163//1
f 149//1 150//1 164//1
f 150//1 165//1 164//1
f 150//1 151//1 166//1
f 150//1 166//1 165//1
f 151//1 152//1 166//1
f 152//1 167//1 166//1
f 152//1 153//1 168//1
f 152//1 168//1 167//1
f 153//1 154//1 168//1
f 154//1 169//1 168//1
f 154//1 155//1 170//1
f 154//1 170//1 169//1
f 155//1 156//1 170//1
f 156//1 171//1 170//1
f 156//1 157//1 172//1
f 156//1 172//1 171//1
f 157//1 158//1 172//1
f 158//1 173//1 172//1
f 158//1 159//1 174//1
f 158//1 174//1 173//1
f 159//1 160//1 174//1
f 160//1 175//1 174//1
f 160//1 145//1 176//1
f 160//1 176//1 175//1
f 283//1 161//1 178//1
f 283//1 178//1 284//1
f 161//1 162//1 178//1
f 162//1 179//1 178//1
f 162//1 163//1 180//1
f 162//1 180//1 179//1
f 163//1 164//1 180//1
f 164//1 181//1 180//1
f 164//1 165//1 182//1
f 164//1 182//1 181//1
f 165//1 166//1 182//1
f 166//1 183//1 182//1
f 166//1 167//1 184//1
f 166//1 184//1 183//1
f 167//1 168//1 184//1
f 168//1 185//1 184//1
f 168//1 169//1 186//1
f 168//1 186//1 185//1
f 169//1 170//1 186//1
f 170//1 187//1 186//1
f 170//1 171//1 188//1
f 170//1 188//1 187//1
f 171//1 172//1 188//1
f 172//1 189//1 188//1
f 172//1 173//1 190//1
f 172//1 190//1 189//1
f 173//1 174//1 190//1
f 174//1 191//1 190//1
f 174//1 175//1 192//1
f 174//1 192//1 191//1
f 175//1 176//1 192//1
f 176//1 177//1 192//1
f 284//1 178//1 285//1
f 178//1 194//1 285//1
f 178//1 179//1 195//1
f 178//1 195//1 194//1
f 179//1 180//1 195//1
f 180//1 196//1 195//1
f 180//1 181//1 197//1
f 180//1 197//1 196//1
f 181//1 182//1 197//1
f 182//1 198//1 197//1
f 182//1 183//1 199//1
f 182//1 199//1 198//1
f 183//1 184//1 199//1
f 184//1 200//1 199//1
f 184//1 185//1 201//1
f 184//1 201//1 200//1
f 185//1 186//1 201//1
f 186//1 202//1 201//1
f 186//1 187//1 203//1
f 186//1 203//1 202//1
f 187//1 188//1 203//1
f 188//1 204//1 203//1
f 188//1 189//1 205//1
f 188//1 205//1 204//1
f 189//1 190//1 205//1
f 190//1 206//1 205//1
f 190//1 191//1 207//1
f 190//1 207//1 206//1
f 191//1 192//1 207//1
f 192//1 208//1 207//1
f 192//1 177//1 193//1
f 192//1 193//1 208//1
f 285//1 194//1 209//1
f 285//1 209//1 286//1
f 194//1 195//1 209//1
f 195//1 210//1 209//1
f 195//1 196//1 211//1
f 195//1 211//1 210//1
f 196//1 197//1 211//1
f 197//1 212//1 211//1
f 197//1 198//1 213//1
f 197//1 213//1 212//1
f 198//1 199//1 213//1
f 199//1 214//1 213//1
f 199//1 200//1 215//1
f 199//1 215//1 214//1
f 200//1 201//1 215//1
f 201//1 216//1 215//1
f 201//1 202//1 217//1
f 201//1 217//1 216//1
f 202//1 203//1 217//1
f 203//1 218//1 217//1
f 203//1 204//1 219//1
f 203//1 219//1 218//1
f 204//1 205//1 219//1
f 205//1 220//1 219//1
f 205//1 206//1 221//1
f 205//1 221//1 220//1
f 206//1 207//1 221//1
f 207//1 222//1 221//1
f 207//1 208//1 223//1
f 207//1 223//1 222//1
f 208//1 193//1 223//1
f 193//1 224//1 223//1
f 286//1 209//1 287//1
f 209//1 225//1 287//1
f 209//1 210//1 226//1
f 209//1 226//1 225//1
f 210//1 211//1 226//1
f 211//1 227//1 226//1
f 211//1 212//1 228//1
f 211//1 228//1 227//1
f 212//1 213//1 228//1
f 213//1 229//1 228//1
f 213//1 214//1 230//1
f 213//1 230//1 229//1
f 214//1 215//1 230//1
f 215//1 231//1 230//1
f 215//1 216//1 232//1
f 215//1 232//1 231//1
f 216//1 217//1 232//1
f 217//1 233//1 232//1
f 217//1 218//1 234//1
f 217//1 234//1 233//1
f 218//1 219//1 234//1
f 219//1 235//1 234//1
f 219//1 220//1 236//1
f 219//1 236//1 235//1
f 220//1 221//1 236//1
f 221//1 237//1 236//1
f 221//1 222//1 238//1
f 221//1 238//1 237//1
f 222//1 223//1 238//1
f 223//1 239//1 238//1
f 223//1 224//1 240//1
f 223//1 240//1 239//1
f 287//1 225//1 241//1
f 287//1 241//1 288//1
f 225//1 226//1 241//1
f 226//1 242//1 241//1
f 226//1 227//1 243//1
f 226//1 243//1 242//1
f 227//1 228//1 243//1
f 228//1 244//1 243//1
f 228//1 229//1 245//1
f 228//1 245//1 244//1
f 229//1 230//1 245//1
f 230//1 246//1 245//1
f 230//1 231//1 247//1
f 230//1 247//1 246//1
f 231//1 232//1 247//1
f 232//1 248//1 247//1
f 232//1 233//1 249//1
f 232//1 249//1 248//1
f 233//1 234//1 249//1
f 234//1 250//1 249//1
f 234//1 235//1 251//1
f 234//1 251//1 250//1
f 235//1 236//1 251//1
f 236//1 252//1 251//1
f 236//1 237//1 253//1
f 236//1 253//1 252//1
f 237//1 238//1 253//1
f 238//1 254//1 253//1
f 238//1 239//1 255//1
f 238//1 255//1 254//1
f 239//1 240//1 255//1
f 240//1 256//1 255//1
f 288//1 241//1 289//1
f 241//1 258//1 289//1
f 241//1 242//1 259//1
f 241//1 259//1 258//1
f 242//1 243//1 259//1
f 243//1 260//1 259//1
f 243//1 244//1 261//1
f 243//1 261//1 260//1
f 244//1 245//1 261//1
f 245//1 262//1 261//1
f 245//1 246//1 263//1
f 245//1 263//1 262//1
f 246//1 247//1 263//1
f 247//1 264//1 263//1
f 247//1 248//1 265//1
f 247//1 265//1 264//1
f 248//1 249//1 265//1
f 249//1 266//1 265//1
f 249//1 250//1 267//1
f 249//1 267//1 266//1
f 250//1 251//1 267//1
f 251//1 268//1 267//1
f 251//1 252//1 269//1
f 251//1 269//1 268//1
f 252//1 253//1 269//1
f 253//1 270//1 269//1
f 253//1 254//1 271//1
f 253//1 271//1 270//1
f 254//1 255//1 271//1
f 255//1 272//1 271//1
f 255//1 256//1 257//1
f 255//1 257//1 272//1
