v 0.985541 0.881201 -0.235379
v 0.97335 0.891804 -0.2608
v 0.954421 0.903664 -0.280882
v 0.930065 0.914805 -0.2943
v 0.901903 0.923348 -0.299632
v 0.872748 0.929083 -0.295881
v 0.845308 0.931556 -0.28391
v 0.823907 0.934045 -0.263694
v 0.80922 0.937623 -0.238112
v 0.799152 0.939539 -0.209814
v 0.791671 0.940557 -0.180653
v 0.785279 0.941211 -0.151413
v 0.780055 0.941464 -0.12186
v 0.775724 0.941408 -0.092026
v 0.774733 0.940247 -0.062146
v 0.781243 0.936661 -0.033348
v 0.79761 0.936142 -0.008391
v 0.819768 0.933498 0.011787
v 0.846545 0.927152 0.023661
v 0.874715 0.916896 0.024774
v 0.900694 0.904164 0.016597
v 0.923904 0.892639 0.001495
v 0.943851 0.882202 -0.018474
v 0.963401 0.876833 -0.040328
v 0.98094 0.872222 -0.064072
v 0.994458 0.86908 -0.090648
v 1.00272 0.867789 -0.119488
v 1.00509 0.868499 -0.149457
v 1.0019 0.871031 -0.17913
v 0.995096 0.874714 -0.207932
v 1.15645 0.54401 -0.451322
v 1.14288 0.549581 -0.465746
v 1.12897 0.555041 -0.479281
v 1.11444 0.560718 -0.491363
v 1.0997 0.566649 -0.503977
v 1.08541 0.571891 -0.516027
v 1.06949 0.577597 -0.527274
v 1.05293 0.583388 -0.538116
v 1.03613 0.589009 -0.54837
v 1.01866 0.595027 -0.558014
v 1.00092 0.601371 -0.566762
v 0.982687 0.607526 -0.575335
v 0.963922 0.613763 -0.583377
v 0.944122 0.620326 -0.590048
v 0.92396 0.626805 -0.596623
v 0.903301 0.633527 -0.601813
v 0.88172 0.640911 -0.60655
v 0.859668 0.647607 -0.609848
v 0.837226 0.654266 -0.611878
v 0.813994 0.661635 -0.613203
v 0.790066 0.669729 -0.612791
v 0.765924 0.677339 -0.610828
v 0.741563 0.684462 -0.607468
v 0.717004 0.691958 -0.602303
v 0.692286 0.699724 -0.595339
v 0.667787 0.707182 -0.586896
v 0.643574 0.714505 -0.576856
v 0.61976 0.721651 -0.565134
v 0.596308 0.728494 -0.551723
v 0.573583 0.735136 -0.536739
v 0.551771 0.741638 -0.520316
v 0.53071 0.747339 -0.502521
v 0.510581 0.753039 -0.483075
v 0.491527 0.758604 -0.46205
v 0.473511 0.763031 -0.439809
v 0.456923 0.766593 -0.416588
v 0.441929 0.770246 -0.39224
v 0.428386 0.773677 -0.366953
v 0.416106 0.776228 -0.340838
v 0.405328 0.778553 -0.313795
v 0.396006 0.780346 -0.286007
v 0.388235 0.781653 -0.257725
v 0.382086 0.782577 -0.228965
v 0.377432 0.782629 -0.199891
v 0.374352 0.781988 -0.1706
v 0.372807 0.780509 -0.141236
v 0.373355 0.779444 -0.112011
v 0.375345 0.777077 -0.0826888
v 0.379274 0.774426 -0.0536633
v 0.385043 0.77139 -0.0250404
v 0.392584 0.767605 0.00289491
v 0.401783 0.76321 0.0300375
v 0.412628 0.758353 0.0563939
v 0.424946 0.75293 0.0818034
v 0.438632 0.747308 0.105854
v 0.453719 0.7415 0.128749
v 0.46984 0.73535 0.150603
v 0.487183 0.728785 0.171283
v 0.505435 0.72207 0.190463
v 0.524603 0.714969 0.208354
v 0.544456 0.70793 0.224508
v 0.565035 0.701042 0.239182
v 0.586023 0.693389 0.252372
v 0.607293 0.685688 0.26413
v 0.628909 0.678421 0.274402
v 0.650745 0.671775 0.282841
v 0.672533 0.664654 0.290128
v 0.6943 0.657155 0.295351
v 0.715336 0.650346 0.30054
v 0.736457 0.643823 0.304385
v 0.757445 0.637068 0.306446
v 0.778052 0.630561 0.308272
v 0.797775 0.624693 0.308404
v 0.817821 0.61833 0.308931
v 0.838148 0.611194 0.308596
v 0.85813 0.604424 0.306545
v 0.878022 0.598101 0.304509
v 0.897736 0.592079 0.301416
v 0.916529 0.586335 0.297255
v 0.935172 0.580805 0.292474
v 0.954004 0.574804 0.287938
v 0.972328 0.568975 0.281923
v 0.990795 0.563028 0.274546
v 1.00936 0.556765 0.267104
v 1.02763 0.550869 0.258032
v 1.04521 0.545491 0.248337
v 1.06194 0.539959 0.237214
v 1.07846 0.534664 0.225943
v 1.09454 0.529909 0.213625
v 1.11085 0.524964 0.200675
v 1.12665 0.519895 0.18578
v 1.14174 0.515444 0.169578
v 1.1559 0.511392 0.152655
v 1.16949 0.507407 0.134063
v 1.18286 0.503477 0.114882
v 1.19532 0.50015 0.0943591
v 1.20749 0.497206 0.0732146
v 1.21846 0.494365 0.0508236
v 1.22868 0.492126 0.0280837
v 1.23759 0.490407 0.00474004
v 1.24544 0.488924 -0.0191943
v 1.25187 0.487902 -0.0434996
v 1.25699 0.487523 -0.0682435
v 1.26075 0.487773 -0.0931327
v 1.26288 0.488145 -0.118162
v 1.26382 0.489198 -0.143114
v 1.26327 0.490751 -0.167758
v 1.2619 0.492479 -0.192473
v 1.25905 0.494678 -0.216848
v 1.25543 0.497389 -0.24107
v 1.25063 0.500671 -0.264568
v 1.24466 0.50393 -0.286563
v 1.23868 0.5076 -0.307958
v 1.23169 0.511795 -0.328928
v 1.22344 0.515356 -0.348526
v 1.21437 0.520415 -0.36826
v 1.20375 0.52433 -0.386449
v 1.19233 0.528835 -0.403363
v 1.18133 0.533583 -0.420171
v 1.16907 0.539234 -0.436585
v 0.816389 0.887831 0.0439163
v 0.912038 0.852671 0.0359634
v 0.743944 0.896856 -0.0434284
v 0.754723 0.899261 -0.172506
v 1.00132 0.819871 -0.0641231
v 1.02043 0.818772 -0.169875
v 0.810624 0.890541 -0.294925
v 0.946823 0.863697 -0.313022
v 0.852467 0.88302 0.0479548
v 0.788153 0.900379 0.0203472
v 0.882972 0.876235 0.042769
v 0.936932 0.853246 0.00811477
v 0.747825 0.909184 -0.0787429
v 0.761297 0.91456 -0.140121
v 0.774007 0.913564 -0.199865
v 0.978665 0.838546 -0.0406943
v 1.0116 0.831563 -0.100215
v 1.00232 0.828739 -0.237187
v 0.84585 0.895544 -0.313603
v 0.792453 0.903711 -0.261517
v 0.968668 0.861248 -0.291929
v 0.913857 0.883493 -0.320082
v 0.769579 0.906573 -0.00831237
v 0.75997 0.919615 -0.109672
v 0.785358 0.915673 -0.229558
v 0.95672 0.851114 -0.0189983
v 1.01615 0.835232 -0.134313
v 0.988383 0.854257 -0.262381
v 1.00856 0.83863 -0.200556
v 0.879973 0.894342 -0.319934
v 0.738929 0.651127 0.248662
v 0.91302 0.598008 0.242876
v 1.00906 0.565511 0.208355
v 0.433717 0.755449 -0.0503944
v 0.490849 0.730709 0.0873371
v 0.436291 0.763201 -0.231957
v 1.10826 0.531961 0.128033
v 1.18474 0.51078 -0.00306819
v 1.21156 0.509871 -0.154667
v 0.720537 0.689137 -0.546035
v 0.594446 0.725203 -0.484872
v 1.07367 0.580921 -0.456861
v 0.988009 0.61014 -0.512697
v 0.587918 0.697368 0.187992
v 0.714743 0.863715 -0.132329
v 1.18592 0.529454 -0.302189
v 0.743583 0.869544 -0.230858
v 0.96902 0.792479 0.000206977
v 0.885455 0.64219 -0.549339
v 0.663368 0.673616 0.228482
v 0.701524 0.662187 0.241561
v 0.73238 0.647042 0.277739
v 0.752293 0.640566 0.280484
v 0.716443 0.653958 0.259735
v 0.810137 0.630834 0.253929
v 0.88009 0.607712 0.25035
v 0.919827 0.588281 0.270387
v 0.937792 0.581925 0.265871
v 0.899958 0.596659 0.260748
v 0.977716 0.576172 0.224112
v 1.02378 0.554482 0.23188
v 1.03979 0.548963 0.222107
v 1.00026 0.564249 0.228824
v 0.405745 0.764605 -0.0443798
v 0.411949 0.761012 -0.0176389
v 0.413134 0.763421 -0.0808893
v 0.465631 0.740646 0.0452726
v 0.466636 0.737679 0.103633
v 0.48144 0.731673 0.124923
v 0.464814 0.739179 0.0745437
v 0.481049 0.75414 -0.353563
v 0.449448 0.761199 -0.282815
v 0.408616 0.773249 -0.238098
v 0.403418 0.773538 -0.210619
v 0.42808 0.767241 -0.261379
v 1.06715 0.545477 0.168969
v 1.11042 0.527319 0.156702
v 1.12991 0.520779 0.145512
v 1.14283 0.516658 0.128876
v 1.15604 0.517419 0.0575676
v 1.19484 0.503533 0.0262574
v 1.2105 0.499275 0.00739145
v 1.21833 0.497406 -0.015024
v 1.20748 0.50759 -0.0886433
v 1.23189 0.499331 -0.131924
v 1.23925 0.498124 -0.155147
v 1.23817 0.499342 -0.178616
v 0.806067 0.664967 -0.557672
v 0.763635 0.677142 -0.555576
v 0.711998 0.69197 -0.574691
v 0.688602 0.698714 -0.567565
v 0.738313 0.683484 -0.566448
v 0.634396 0.714131 -0.511806
v 0.577226 0.731962 -0.508532
v 0.556864 0.73757 -0.492426
v 0.605665 0.722556 -0.511557
v 1.13283 0.555886 -0.398551
v 1.09898 0.570237 -0.436744
v 1.09115 0.56972 -0.478489
v 1.07794 0.573878 -0.489445
v 1.09569 0.568208 -0.457034
v 1.01882 0.599704 -0.49694
v 0.999863 0.601628 -0.538997
v 0.983053 0.606955 -0.547069
v 1.00988 0.599267 -0.51797
v 0.551964 0.709029 0.160327
v 0.570037 0.700184 0.21192
v 0.589888 0.693516 0.225107
v 0.559946 0.704401 0.186682
v 0.733078 0.888744 -0.107769
v 0.738337 0.887024 -0.145039
v 1.20196 0.518511 -0.242776
v 1.21123 0.51602 -0.288854
v 1.21202 0.517401 -0.310699
v 1.20487 0.521567 -0.330075
v 0.751431 0.886679 -0.2036
v 0.96787 0.82054 -0.0163873
v 0.921816 0.630883 -0.540535
v 0.889583 0.637619 -0.578813
v 0.869089 0.644124 -0.582714
v 0.906635 0.632732 -0.560023
v 0.650835 0.672834 0.255776
v 0.671689 0.666426 0.263156
v 0.631061 0.680574 0.232078
v 0.69215 0.659634 0.269562
v 0.725426 0.66121 0.228459
v 0.791485 0.630092 0.275468
v 0.809137 0.623745 0.283128
v 0.828339 0.616892 0.283223
v 0.884461 0.59902 0.278331
v 0.859842 0.609027 0.267808
v 0.89381 0.610864 0.231303
v 0.969414 0.57341 0.248608
v 0.98977 0.565631 0.248762
v 0.986041 0.579584 0.203244
v 0.418834 0.763639 -0.127477
v 0.435833 0.750849 0.0307543
v 0.440174 0.748461 0.0581994
v 0.49269 0.732266 0.0577813
v 0.456193 0.763558 -0.367634
v 0.443877 0.766258 -0.343272
v 0.484601 0.754949 -0.390217
v 0.422988 0.770922 -0.292071
v 0.444716 0.764143 -0.312974
v 0.458689 0.756947 -0.253135
v 1.06598 0.54175 0.19559
v 1.0861 0.534417 0.189156
v 1.10129 0.529369 0.17592
v 1.08181 0.541812 0.151261
v 1.16211 0.511676 0.0878847
v 1.18017 0.506351 0.0716934
v 1.19121 0.503423 0.0508026
v 1.1654 0.516137 0.0313679
v 1.22358 0.498266 -0.0624874
v 1.23486 0.495841 -0.0844058
v 1.23757 0.496013 -0.10798
v 1.20663 0.51003 -0.115885
v 0.804098 0.663893 -0.587651
v 0.781478 0.671149 -0.586657
v 0.832082 0.655509 -0.572824
v 0.75841 0.677988 -0.584748
v 0.746699 0.683579 -0.534175
v 0.645879 0.711269 -0.542298
v 0.620078 0.719565 -0.537164
v 0.539686 0.740426 -0.43566
v 0.623936 0.716996 -0.484246
v 1.15521 0.543703 -0.414215
v 1.14358 0.548151 -0.428325
v 1.15777 0.542022 -0.387681
v 1.11854 0.558801 -0.455618
v 1.12145 0.557998 -0.433877
v 1.07621 0.583942 -0.435542
v 1.04442 0.586802 -0.505066
v 1.03271 0.590405 -0.521434
v 0.996776 0.612595 -0.490402
v 0.519507 0.718199 0.158965
v 0.531965 0.7135 0.181688
v 0.581118 0.702287 0.161109
v 1.22599 0.506322 -0.22427
v 1.22912 0.506922 -0.248179
v 1.22389 0.509987 -0.270084
v 1.19216 0.524523 -0.267448
v 0.764336 0.892685 -0.228584
v 0.762235 0.87172 -0.263009
v 0.707364 0.841512 -0.191915
v 0.948442 0.818875 0.0130476
v 0.99499 0.790264 -0.0344851
v 0.945543 0.619776 -0.555035
v 0.928678 0.625132 -0.568854
v 0.901382 0.641778 -0.528328
v 0.764481 0.671687 0.19947
v 0.708191 0.682803 0.186851
v 0.772057 0.634478 0.281547
v 0.780031 0.647892 0.232704
v 0.862651 0.642187 0.203796
v 0.935783 0.607758 0.203977
v 0.955074 0.577136 0.260692
v 0.948363 0.588068 0.229747
v 0.994675 0.594636 0.162009
v 0.402369 0.7709 -0.154782
v 0.482521 0.739768 -0.0131632
v 0.420554 0.757277 0.00833654
v 0.453196 0.746627 0.00334383
v 0.498021 0.747235 -0.303327
v 0.487796 0.747755 -0.203317
v 1.05526 0.543747 0.211197
v 1.02862 0.565719 0.174285
v 1.10582 0.542648 0.07515
v 1.15569 0.513082 0.11021
v 1.13269 0.52497 0.0880679
v 1.16657 0.527766 -0.054141
v 1.22476 0.496716 -0.0381177
v 1.19598 0.509939 -0.0515393
v 0.790064 0.682827 -0.501698
v 0.692365 0.700487 -0.496192
v 0.665531 0.705966 -0.558343
v 0.673413 0.702947 -0.525247
v 0.518755 0.748369 -0.455729
v 0.501212 0.753281 -0.435202
v 0.546583 0.739118 -0.464701
v 0.616952 0.720871 -0.429404
v 1.16843 0.538577 -0.357024
v 1.09236 0.585099 -0.397869
v 1.02951 0.611269 -0.450864
v 1.06305 0.579954 -0.500474
v 1.04149 0.593579 -0.47708
v 0.54962 0.716129 0.101846
v 0.497995 0.725882 0.144831
v 0.527172 0.718069 0.127762
v 1.17587 0.532681 -0.19462
v 1.23574 0.501779 -0.202231
v 1.20413 0.51564 -0.203875
v 0.720693 0.862479 -0.165841
v 0.729184 0.861488 -0.205607
v 0.945552 0.637107 -0.494444
v 0.965525 0.613063 -0.554611
v 0.950672 0.622982 -0.525211
v 0.747098 0.661091 0.219484
v 0.710866 0.669694 0.212102
v 0.635479 0.698766 0.15037
v 0.793734 0.63785 0.247326
v 0.813577 0.656828 0.207007
v 0.79764 0.650403 0.220643
v 0.794264 0.680409 0.184678
v 0.78405 0.663102 0.206372
v 0.875357 0.622971 0.222715
v 0.909679 0.619424 0.206224
v 0.957739 0.600353 0.194337
v 0.927089 0.598897 0.226017
v 0.99578 0.581735 0.184879
v 0.950245 0.766262 0.0495645
v 0.399943 0.773215 -0.182714
v 0.448982 0.756378 -0.172629
v 0.427715 0.764196 -0.193427
v 0.499086 0.73367 0.0197522
v 0.45419 0.747782 -0.0271534
v 0.470181 0.755373 -0.300493
v 0.489395 0.74857 -0.270314
v 0.480083 0.75312 -0.326011
v 0.519631 0.742183 -0.335803
v 0.465886 0.753963 -0.224443
v 1.04905 0.553877 0.175409
v 1.03715 0.574984 0.136287
v 1.03376 0.569084 0.155559
v 1.00592 0.602077 0.134891
v 1.01383 0.58398 0.15486
v 1.11292 0.550479 0.0235754
v 1.12731 0.531734 0.059911
v 1.11133 0.534445 0.102346
v 1.15595 0.543548 -0.102443
v 1.18165 0.520188 -0.0759494
v 1.18017 0.516066 -0.0301289
v 0.771203 0.679127 -0.524586
v 0.868177 0.666941 -0.497736
v 0.72753 0.692669 -0.502556
v 0.662239 0.708383 -0.479219
v 0.702048 0.695274 -0.524641
v 0.612472 0.720056 -0.459101
v 0.578101 0.729033 -0.437813
v 1.10138 0.57259 -0.417693
v 1.07455 0.594687 -0.410863
v 1.114 0.566329 -0.404944
v 1.10562 0.580538 -0.375646
v 1.04734 0.607555 -0.432304
v 1.00673 0.619762 -0.461986
v 1.05174 0.593047 -0.457803
v 0.531166 0.72274 0.0696404
v 0.575825 0.709047 0.125132
v 0.518104 0.722503 0.099983
v 1.14872 0.554391 -0.236747
v 1.18213 0.528632 -0.221389
v 1.19724 0.518339 -0.17766
v 0.73786 0.877594 -0.181629
v 0.687102 0.829934 -0.153377
v 0.7043 0.823442 -0.244386
v 0.968266 0.633679 -0.480219
v 0.919679 0.645757 -0.500587
v 0.965893 0.621781 -0.507791
v 0.759659 0.649633 0.237516
v 0.740064 0.683445 0.185559
v 0.687799 0.674364 0.209906
v 0.607967 0.697152 0.163167
v 0.852823 0.62517 0.232632
v 0.886235 0.641432 0.193171
v 1.01654 0.566965 0.189029
v 0.970025 0.610301 0.169164
v 0.953239 0.787755 0.0275191
v 0.430233 0.761229 -0.152425
v 0.477511 0.746964 -0.130792
v 0.447909 0.754693 -0.130156
v 0.435984 0.75694 -0.102167
v 0.455442 0.755824 -0.199169
v 0.500935 0.745381 -0.235978
v 1.05822 0.556632 0.146594
v 1.06911 0.559337 0.112947
v 1.13785 0.530868 0.0345484
v 1.1825 0.523245 -0.102499
v 1.13115 0.549125 -0.0228693
v 0.794458 0.672751 -0.531354
v 0.88127 0.651598 -0.519086
v 0.761609 0.692125 -0.487792
v 0.650919 0.714695 -0.442916
v 1.17385 0.535342 -0.246891
v 1.15505 0.54866 -0.150306
v 0.70509 0.849283 -0.150818
v 0.690966 0.84004 -0.123804
v 0.711926 0.83875 -0.219998
v 0.67288 0.69206 0.169038
v 0.623396 0.688525 0.195147
v 0.614498 0.706896 0.125077
v 0.928996 0.813058 0.0434407
v 0.984359 0.733572 0.0204243
v 0.490171 0.74207 -0.0735064
v 1.0906 0.545277 0.109485
v 1.07124 0.568973 0.0776481
v 1.13389 0.539286 0.00514269
v 1.15727 0.527738 -0.0154602
v 0.830381 0.676475 -0.499598
v 0.855475 0.653439 -0.54168
v 0.895208 0.666211 -0.485782
v 1.15416 0.549764 -0.27703
v 1.16811 0.535305 -0.126744
v 1.18167 0.527321 -0.15482
v 0.707049 0.861145 -0.0980798
v 0.669943 0.799802 -0.210725
v 0.686564 0.684998 0.184944
v 0.710948 0.710312 0.146916
v 0.6591 0.682025 0.199194
v 0.97144 0.763988 0.0167412
v 0.46496 0.746577 -0.0550737
v 0.645506 0.794469 -0.125341
v 1.1078 0.565963 -0.00663713
v 1.14856 0.538734 -0.0386389
v 1.16349 0.520324 0.00753797
v 0.809863 0.676712 -0.508586
v 0.81486 0.702044 -0.463724
v 0.824709 0.664999 -0.532065
v 1.15526 0.548932 -0.257327
v 1.11941 0.584321 -0.257362
v 1.14013 0.562509 -0.12583
v 1.1648 0.540568 -0.172227
v 1.19605 0.517178 -0.136633
v 0.691655 0.821383 -0.208045
v 0.676302 0.812293 -0.180826
v 0.647831 0.689092 0.179262
v 0.996672 0.753764 -0.0127503
v 0.497391 0.738601 -0.0429522
v 0.460489 0.749429 -0.0837414
v 0.669247 0.816201 -0.132313
v 1.13445 0.559864 -0.072919
v 0.844323 0.664325 -0.518053
v 1.13877 0.565338 -0.198358
v 0.625166 0.77036 -0.178846
v 0.531191 0.733174 -0.0150327
v 0.485784 0.7439 -0.102316
v 0.652897 0.795731 -0.158031
v 0.665351 0.817634 -0.0807998
v 1.12536 0.563833 -0.0483688
v 1.15667 0.538972 -0.0764578
v 1.13952 0.565526 -0.170609
v 1.15876 0.546609 -0.211645
v 0.507207 0.735963 -0.022485
v 0.533264 0.736278 -0.0447795
v 0.538447 0.741171 -0.128925
v 0.673495 0.823436 -0.105977
v 1.09796 0.613961 -0.0758392
v 1.10299 0.617359 -0.18235
v 0.593682 0.748592 -0.0306565
v 0.507619 0.741906 -0.122298
v 0.687166 0.840332 -0.0858182
v 1.11388 0.585012 -0.0679095
v 1.12143 0.588665 -0.183356
v 0.561159 0.738103 -0.0306411
v 0.521379 0.739512 -0.092105
v 0.511487 0.742415 -0.165074
v 0.684433 0.831317 -0.0414249
v 1.12075 0.584998 -0.101021
v 1.09094 0.602175 -0.037423
v 1.11497 0.593887 -0.220485
v 1.11332 0.60206 -0.144162
v 0.574222 0.732112 0.0185341
v 0.581303 0.749794 -0.0779267
v 0.709446 0.864699 -0.06012
v 0.679301 0.831808 -0.0640374
v 0.644975 0.792917 -0.045601
v 0.664671 0.81428 -0.0494521
v 0.666123 0.797323 -0.009183
v 1.10727 0.58569 -0.0475684
v 1.12287 0.586073 -0.161352
v 0.576485 0.736628 -0.00844241
v 0.563231 0.741645 -0.0565218
v 0.625418 0.756713 0.00486567
v 0.550251 0.740675 -0.0800262
v 0.604171 0.748689 -0.00889104
v 0.630641 0.770844 -0.0230461
v 0.568758 0.746288 -0.108106
v 0.902485 0.878776 0.02961
v 0.867798 0.897124 0.0403911
v 0.756638 0.918012 -0.0576857
v 0.990629 0.845847 -0.0628095
v 0.812519 0.911339 -0.276275
v 0.832322 0.908282 -0.29522
v 1.038 0.769526 -0.118632
v 1.01304 0.843044 -0.158323
v 1.00577 0.787909 -0.288391
v 1.02322 0.788116 -0.211023
v 0.682183 0.667438 0.236636
v 0.784919 0.67076 -0.558318
v 0.773916 0.892131 -0.249302
v 0.783713 0.878469 -0.284046
v 0.790106 0.839383 -0.32937
v 0.79411 0.864169 -0.307752
v 0.822486 0.8717 -0.321593
v 0.748867 0.832927 -0.303775
v 0.85495 0.847066 -0.350983
v 0.761817 0.856736 -0.287503
v 0.730651 0.835556 -0.270285
v 0.772539 0.843325 -0.311362
v 0.754333 0.800341 -0.342472
v 0.757992 0.820939 -0.323293
v 0.718697 0.793709 -0.32152
v 0.843638 0.869129 -0.333418
v 0.867566 0.870555 -0.33582
v 0.893842 0.86745 -0.335016
v 0.879741 0.845743 -0.351787
v 0.820254 0.832036 -0.353927
v 0.926231 0.836399 -0.34337
v 0.864254 0.797777 -0.385215
v 0.90348 0.839441 -0.350813
v 0.913147 0.859576 -0.335312
v 0.866135 0.824336 -0.367108
v 0.921111 0.786667 -0.377697
v 0.890023 0.818366 -0.368575
v 0.83712 0.810943 -0.375813
v 0.91802 0.814602 -0.361135
v 0.954191 0.787685 -0.355717
v 0.935419 0.796742 -0.363729
v 0.948879 0.746976 -0.389362
v 0.93753 0.77182 -0.379533
v 0.921104 0.741452 -0.407917
v 0.99107 0.815083 -0.0442197
v 0.524019 0.743531 -0.399308
v 1.16506 0.541758 -0.325738
v 0.959026 0.588937 0.21588
v 0.471864 0.740394 0.0200627
v 0.510013 0.745957 -0.367447
v 0.563739 0.733836 -0.360336
v 0.536596 0.738898 -0.355708
v 0.56358 0.734897 -0.318031
v 0.659269 0.7074 -0.506232
v 0.574584 0.730622 -0.466952
v 1.13015 0.560035 -0.374575
v 1.10787 0.588927 -0.334563
v 1.14985 0.548256 -0.367575
v 1.12605 0.567222 -0.351794
v 1.10392 0.586627 -0.354592
v 1.13387 0.565183 -0.32695
v 1.07016 0.626643 -0.361455
v 1.08797 0.603139 -0.363105
v 1.0791 0.606016 -0.37983
v 1.07843 0.624971 -0.3339
v 1.04392 0.640794 -0.38336
v 1.06086 0.628472 -0.377145
v 1.05947 0.616524 -0.395102
v 1.04177 0.67494 -0.351899
v 1.05513 0.608991 -0.414095
v 1.05418 0.649373 -0.361283
v 1.0573 0.656111 -0.33677
v 1.02594 0.647515 -0.405686
v 1.03965 0.625117 -0.414583
v 1.02893 0.625103 -0.429671
v 1.00843 0.636158 -0.435981
v 1.02339 0.603347 -0.47664
v 0.52435 0.727756 0.0394432
v 0.556485 0.724572 0.0456672
v 0.530027 0.730611 0.0120157
v 0.611938 0.731962 0.051103
v 0.548769 0.728369 0.0253877
v 0.586798 0.728774 0.0405044
v 0.573395 0.719243 0.0723088
v 0.61186 0.74158 0.0263318
v 0.658023 0.764432 0.0376562
v 0.637096 0.756184 0.0254987
v 0.657918 0.778458 0.0130389
v 0.700645 0.805482 0.0320365
v 0.645749 0.777269 -0.00628126
v 0.681851 0.800748 0.0128782
v 0.679775 0.784563 0.0344727
v 0.678635 0.756815 0.0741533
v 0.696719 0.783938 0.0570759
v 0.716162 0.846397 -0.00448892
v 0.722458 0.766111 0.0961978
v 0.690958 0.822978 -0.0106777
v 0.703678 0.769255 0.0799354
v 0.743315 0.822694 0.0585522
v 0.70363 0.823543 0.0109294
v 0.729059 0.833701 0.0320559
v 0.682458 0.725449 0.116483
v 0.72084 0.797284 0.0653146
v 0.700357 0.74729 0.100583
v 0.743539 0.795638 0.0826742
v 0.707801 0.730614 0.123073
v 0.754033 0.745844 0.127138
v 0.7305 0.731979 0.130829
v 0.737345 0.707959 0.156884
v 0.739337 0.758012 0.111563
v 0.772064 0.785866 0.101663
v 0.758051 0.767066 0.111285
v 0.77988 0.760977 0.125194
v 0.550173 0.712077 0.13563
v 0.984716 0.633648 -0.462677
v 0.952083 0.683261 -0.436598
v 0.965004 0.655605 -0.454117
v 0.940423 0.663728 -0.461624
v 0.98041 0.670194 -0.424524
v 0.978328 0.652841 -0.443021
v 0.932352 0.631977 -0.520494
v 0.837713 0.64941 0.206788
v 0.8329 0.625407 0.248359
v 0.895336 0.623523 0.209841
v 0.916092 0.670165 0.154717
v 0.972233 0.595919 0.187889
v 0.97302 0.640322 0.131238
v 0.746622 0.688127 -0.508654
v 0.736279 0.72161 -0.430904
v 0.643857 0.713293 -0.467539
v 0.601421 0.692134 0.20266
v 0.613411 0.686636 0.220881
v 0.592148 0.704907 0.138203
v 0.930384 0.834586 0.0266877
v 0.891866 0.811236 0.0760964
v 0.869089 0.645894 -0.557234
v 0.851799 0.64965 -0.56921
v 0.903825 0.651098 -0.504699
v 0.637757 0.683346 0.207812
v 1.06479 0.600945 0.0222633
v 0.787891 0.700293 -0.469985
v 0.838052 0.657288 -0.547825
v 0.985303 0.778013 -0.0137531
v 0.437141 0.755691 -0.0741454
v 0.651678 0.788477 -0.188239
v 0.624689 0.76047 -0.233867
v 0.63266 0.770155 -0.206676
v 0.651161 0.779456 -0.227941
v 0.578447 0.745052 -0.206392
v 0.677414 0.797686 -0.242339
v 0.606815 0.756231 -0.198704
v 0.580569 0.749447 -0.157839
v 0.587293 0.749814 -0.181932
v 0.546324 0.741483 -0.184323
v 0.648515 0.764312 -0.273142
v 0.642944 0.767462 -0.250065
v 0.60673 0.74475 -0.271337
v 0.518959 0.738227 -0.0662792
v 1.13709 0.563825 -0.105617
v 0.730006 0.888628 -0.0645232
v 1.11213 0.57025 -0.0281611
v 1.13586 0.569747 -0.146305
v 0.542423 0.741166 -0.106224
v 0.612304 0.768485 -0.104758
v 1.02941 0.797829 -0.141033
v 1.02305 0.788218 -0.0866151
v 0.988201 0.825505 -0.288117
v 1.01292 0.814547 -0.215373
v 1.01399 0.792666 -0.246048
v 0.742121 0.856294 -0.253667
v 0.723817 0.844213 -0.241831
v 0.670939 0.735776 -0.372
v 0.870971 0.721598 -0.438749
v 0.838053 0.832886 -0.359563
v 0.830641 0.753603 -0.418183
v 0.786728 0.774482 -0.389781
v 0.521694 0.745707 -0.42255
v 0.501026 0.751282 -0.410475
v 0.544573 0.738257 -0.410971
v 0.548193 0.736416 -0.38418
v 0.594633 0.727295 -0.391047
v 1.18397 0.531047 -0.319788
v 1.18515 0.529999 -0.338682
v 1.16411 0.543054 -0.306897
v 1.19136 0.527627 -0.357386
v 0.533232 0.739427 -0.304055
v 0.567575 0.737246 -0.281656
v 1.15218 0.549261 -0.34013
v 1.10657 0.599035 -0.295993
v 1.06916 0.634607 -0.345315
v 1.03171 0.718724 -0.309918
v 0.579403 0.714289 0.0974813
v 0.597697 0.740307 0.0109628
v 0.761755 0.861988 0.0355345
v 0.650029 0.714137 0.117719
v 0.717654 0.811377 0.0462128
v 0.717698 0.697519 0.164921
v 0.769861 0.708481 0.162993
v 0.77456 0.823535 0.0741019
v 0.820011 0.802025 0.0985152
v 0.952419 0.645221 -0.475302
v 0.929487 0.654531 -0.479867
v 0.910617 0.694691 -0.447653
v 0.923495 0.674764 -0.459339
v 0.91159 0.665249 -0.475701
v 0.930959 0.698092 -0.435282
v 0.994895 0.638984 -0.445404
v 0.829579 0.696497 0.166734
v 0.842868 0.61439 0.269556
v 0.824716 0.640483 0.224644
v 0.905843 0.648324 0.176886
v 0.936005 0.634859 0.172024
v 0.97774 0.617838 0.150661
v 0.988935 0.618134 0.136184
v 0.995016 0.640603 0.102295
v 0.984339 0.638179 0.118375
v 0.967188 0.685818 0.0950675
v 0.979173 0.660723 0.102933
v 0.990796 0.675551 0.0707376
v 0.962616 0.668409 0.114531
v 0.953469 0.643872 0.147792
v 0.933942 0.720003 0.103867
v 0.94994 0.696542 0.103399
v 0.952958 0.729189 0.0755707
v 0.937457 0.683961 0.129682
v 0.7408 0.703931 -0.464403
v 0.699244 0.709533 -0.45194
v 0.907202 0.825297 0.0558322
v 0.869638 0.846836 0.0672521
v 1.08814 0.576786 0.014211
v 1.02956 0.682284 -0.00850152
v 0.693343 0.793147 -0.284905
v 0.568035 0.746559 -0.134008
v 0.601777 0.760395 -0.133298
v 0.550065 0.742796 -0.156764
v 0.591942 0.755912 -0.11369
v 0.623807 0.776019 -0.125173
v 0.621497 0.77058 -0.151709
v 0.539741 0.740984 -0.221501
v 0.516292 0.742532 -0.192351
v 0.722902 0.879673 -0.0855743
v 1.05022 0.735213 -0.169935
v 1.03449 0.777459 -0.174067
v 1.0261 0.800833 -0.113646
v 1.01309 0.812156 -0.0840184
v 1.0121 0.793165 -0.0643058
v 1.03144 0.743875 -0.0623997
v 0.984984 0.786622 -0.329549
v 1.00371 0.811826 -0.268
v 0.651045 0.722051 -0.405524
v 0.876277 0.689762 -0.46528
v 0.841613 0.782091 -0.397598
v 0.867251 0.758855 -0.411337
v 0.81349 0.774681 -0.398766
v 0.848327 0.761847 -0.411779
v 0.856494 0.738902 -0.428051
v 0.845978 0.706471 -0.456751
v 0.800627 0.731508 -0.434677
v 0.596919 0.725609 -0.416417
v 0.570963 0.73126 -0.413016
v 0.624179 0.723973 -0.396355
v 0.630049 0.735193 -0.341657
v 0.618779 0.728671 -0.369324
v 0.591491 0.729908 -0.36415
v 0.586856 0.732967 -0.335966
v 0.647871 0.734041 -0.360025
v 0.598514 0.737839 -0.303625
v 0.673809 0.760305 -0.321381
v 0.655378 0.74482 -0.33695
v 0.640227 0.748781 -0.306785
v 0.680803 0.751782 -0.346199
v 0.696977 0.772553 -0.328768
v 0.721335 0.75563 -0.371998
v 0.690905 0.779187 -0.306937
v 0.66644 0.767732 -0.295621
v 0.710656 0.799498 -0.300284
v 0.697019 0.749403 -0.36474
v 0.718012 0.77336 -0.346296
v 0.695353 0.727082 -0.406167
v 0.734133 0.792466 -0.336138
v 0.74003 0.776845 -0.358308
v 0.768127 0.786666 -0.368436
v 0.748031 0.759298 -0.385903
v 0.530862 0.739894 -0.265928
v 0.580103 0.742462 -0.244433
v 1.13349 0.56839 -0.296132
v 1.11401 0.5863 -0.315746
v 1.0926 0.613303 -0.317475
v 1.06679 0.658293 -0.30505
v 1.07719 0.636404 -0.31692
v 1.08439 0.632045 -0.292649
v 1.03993 0.689724 -0.328369
v 0.745833 0.841495 0.0413947
v 0.764704 0.841459 0.0559323
v 0.744422 0.85794 0.0196047
v 0.789564 0.866346 0.047745
v 0.764661 0.883197 0.0137884
v 0.742847 0.878902 -0.0107579
v 0.66899 0.733867 0.0965496
v 0.641971 0.735014 0.0733672
v 0.644541 0.723334 0.0956219
v 0.613753 0.7185 0.0909966
v 0.62001 0.72816 0.0700676
v 0.636836 0.742849 0.0520756
v 0.596581 0.720085 0.0785667
v 0.751709 0.700869 0.166954
v 0.758886 0.724821 0.14546
v 0.780271 0.734211 0.144455
v 0.794741 0.710349 0.15931
v 0.81471 0.752761 0.129442
v 0.795754 0.750653 0.132354
v 0.805094 0.778577 0.113978
v 0.796162 0.80839 0.0951992
v 0.756283 0.81586 0.072341
v 0.761665 0.799044 0.0878134
v 0.914708 0.718582 -0.427212
v 0.893784 0.717857 -0.436476
v 0.893315 0.695036 -0.455244
v 0.88284 0.741369 -0.421583
v 0.893807 0.777197 -0.394701
v 0.902533 0.742393 -0.415366
v 0.944865 0.717393 -0.413077
v 0.827056 0.671295 0.188279
v 0.849964 0.670001 0.181533
v 0.812389 0.68655 0.17617
v 0.814075 0.711936 0.156615
v 0.83628 0.730703 0.141404
v 0.809758 0.641963 0.230912
v 0.920388 0.627812 0.189684
v 0.920399 0.647043 0.171036
v 0.942094 0.615339 0.188852
v 0.952333 0.61883 0.174085
v 0.716499 0.700129 -0.479167
v 0.722664 0.708848 -0.452877
v 0.685399 0.705175 -0.47436
v 0.674225 0.710425 -0.452913
v 0.674962 0.717425 -0.425946
v 0.895557 0.850958 0.0492965
v 0.922857 0.772294 0.0764775
v 0.868414 0.870718 0.0549998
v 0.852694 0.858235 0.0618037
v 0.832555 0.871016 0.0557859
v 0.849968 0.816125 0.0865942
v 0.809825 0.858867 0.0626671
v 0.832923 0.839396 0.0744853
v 0.790422 0.844254 0.0650314
v 0.80466 0.833467 0.0792916
v 1.08678 0.592949 -0.0117851
v 1.06057 0.642009 -0.0227728
v 1.07586 0.617399 -0.0242673
v 1.07551 0.641828 -0.0558187
v 1.06267 0.619716 -0.0013227
v 1.043 0.649278 0.000188594
v 1.01434 0.665207 0.0346586
v 1.02634 0.665749 0.0127179
v 1.00652 0.701131 0.0129959
v 1.03794 0.628929 0.0337336
v 1.04913 0.627896 0.0147526
v 1.08006 0.572436 0.0463447
v 1.10334 0.550886 0.0487878
v 0.692 0.803388 -0.261746
v 0.672943 0.781989 -0.272811
v 0.515122 0.743041 -0.215762
v 1.0416 0.726657 -0.241389
v 1.02443 0.798379 -0.187404
v 1.04164 0.764473 -0.146758
v 1.06235 0.708172 -0.123988
v 1.05029 0.740092 -0.128672
v 1.04596 0.737463 -0.0944335
v 1.05861 0.719598 -0.147673
v 1.0822 0.662831 -0.150606
v 1.06698 0.691187 -0.177945
v 1.0706 0.690753 -0.142364
v 1.08286 0.656861 -0.107621
v 1.07954 0.668035 -0.128366
v 1.09654 0.6308 -0.127436
v 1.03927 0.749466 -0.203392
v 1.01298 0.763894 -0.0455133
v 1.02239 0.721769 -0.0295032
v 0.97162 0.827018 -0.315044
v 0.991343 0.799113 -0.307297
v 1.0101 0.756643 -0.315255
v 0.997014 0.777059 -0.319641
v 1.00108 0.742196 -0.345892
v 0.807719 0.801117 -0.374697
v 0.83516 0.728 -0.438339
v 0.863184 0.704423 -0.455456
v 0.858799 0.68442 -0.477408
v 0.840593 0.688849 -0.477886
v 0.801323 0.71323 -0.453087
v 0.778123 0.716286 -0.446591
v 0.778635 0.74267 -0.416047
v 0.810846 0.752275 -0.41736
v 0.614049 0.737458 -0.323102
v 0.623098 0.747212 -0.289975
v 0.675669 0.728354 -0.394698
v 0.780187 0.812816 -0.349204
v 0.800594 0.827496 -0.348577
v 0.812082 0.849468 -0.335336
v 0.788624 0.799163 -0.367931
v 0.724263 0.738729 -0.398945
v 0.5257 0.741258 -0.242725
v 0.553141 0.739879 -0.242266
v 0.605201 0.748794 -0.248233
v 0.598377 0.749592 -0.223735
v 1.14467 0.556885 -0.312778
v 1.11827 0.585214 -0.279647
v 1.09619 0.614645 -0.271226
v 1.04951 0.688969 -0.307675
v 1.04143 0.716836 -0.279185
v 1.05769 0.666336 -0.319804
v 1.04157 0.710223 -0.297094
v 1.02806 0.74169 -0.291396
v 1.05543 0.686241 -0.28608
v 1.03024 0.74684 -0.263436
v 1.05344 0.69555 -0.257414
v 1.0194 0.767258 -0.278219
v 1.02844 0.760871 -0.234552
v 0.722362 0.868831 -0.034899
v 0.703228 0.851553 -0.0416035
v 0.598847 0.710941 0.111589
v 0.788563 0.784198 0.110491
v 0.780368 0.806895 0.088785
v 0.930124 0.71973 -0.419302
v 0.936466 0.740814 -0.401127
v 0.925342 0.762438 -0.391823
v 0.970218 0.709238 -0.400138
v 0.869892 0.661547 0.181228
v 0.863071 0.704777 0.15268
v 0.861029 0.682724 0.168379
v 0.884406 0.682313 0.160084
v 0.846438 0.699279 0.159752
v 0.820725 0.732125 0.142269
v 0.841162 0.770386 0.115645
v 0.823557 0.777351 0.113334
v 0.920677 0.798093 0.0607831
v 0.935183 0.774945 0.0618881
v 0.937784 0.750608 0.0764649
v 0.925894 0.746975 0.0919086
v 0.901351 0.770213 0.0951427
v 0.911825 0.733112 0.113452
v 0.818501 0.82473 0.0846682
v 1.00137 0.727279 -0.000145044
v 0.988348 0.701034 0.0437961
v 1.01832 0.63268 0.0709014
v 1.05345 0.59734 0.0525342
v 1.08714 0.559151 0.0658729
v 1.08973 0.551286 0.0875741
v 0.662789 0.781011 -0.254702
v 1.03536 0.76465 -0.095539
v 1.05453 0.693195 -0.0658336
v 1.09771 0.624486 -0.101431
v 1.10773 0.602985 -0.0912132
v 1.10939 0.605733 -0.116836
v 1.09728 0.630939 -0.15376
v 1.08684 0.648505 -0.175698
v 1.08721 0.638782 -0.218796
v 1.09133 0.635513 -0.196273
v 1.10394 0.61223 -0.204955
v 1.07457 0.667464 -0.201557
v 1.06949 0.669494 -0.236205
v 1.05649 0.704941 -0.211335
v 1.04181 0.754587 -0.181366
v 1.01107 0.74535 -0.028894
v 0.966603 0.806981 -0.334003
v 0.961543 0.850989 -0.308353
v 0.95766 0.834244 -0.323382
v 0.946364 0.816916 -0.341943
v 1.02087 0.722573 -0.333656
v 0.762102 0.70399 -0.463751
v 0.75543 0.716835 -0.441862
v 0.767018 0.756844 -0.39876
v 0.756598 0.736153 -0.417411
v 0.795507 0.759304 -0.406005
v 1.10071 0.612625 -0.243111
v 0.960913 0.696652 -0.418449
v 0.955686 0.724145 -0.401253
v 0.966215 0.734126 -0.38457
v 0.958354 0.761151 -0.371139
v 0.996764 0.70885 -0.379555
v 0.979965 0.76519 -0.351682
v 0.890313 0.65937 0.175288
v 0.899769 0.670972 0.161224
v 0.900222 0.708413 0.13627
v 0.831247 0.752873 0.127819
v 0.848742 0.746249 0.129169
v 0.872428 0.771786 0.109039
v 0.913101 0.751496 0.0997862
v 0.925518 0.709481 0.120076
v 0.920222 0.688445 0.136598
v 0.934473 0.661029 0.15008
v 1.01677 0.70736 -0.00908506
v 0.968218 0.73259 0.0495744
v 0.999402 0.675577 0.0512334
v 1.00287 0.687645 0.0317675
v 1.02211 0.641305 0.048875
v 1.03472 0.616027 0.0601008
v 1.03672 0.594717 0.097649
v 1.04739 0.592524 0.0771094
v 1.05896 0.5741 0.0936392
v 1.04509 0.721285 -0.073356
v 1.0376 0.715849 -0.0500661
v 1.06087 0.701294 -0.0947432
v 1.0482 0.678648 -0.036595
v 1.12265 0.585558 -0.128058
v 1.07587 0.649831 -0.264899
v 1.06588 0.681978 -0.217298
v 1.05755 0.693338 -0.236595
v 1.04511 0.728216 -0.217713
v 1.05063 0.726169 -0.193279
v 1.03175 0.698188 -0.341417
v 1.01865 0.691152 -0.367094
v 1.01773 0.710542 -0.351127
v 1.00346 0.718474 -0.362602
v 0.988113 0.736857 -0.365443
v 1.0082 0.745389 -0.331744
v 1.02075 0.73361 -0.318419
v 0.880832 0.711622 0.142267
v 0.886926 0.740984 0.121795
v 0.865433 0.731001 0.135548
v 0.963644 0.75508 0.0369385
v 0.955745 0.743493 0.0607871
v 0.965865 0.719462 0.0665895
v 1.07217 0.667108 -0.08131
v 1.08612 0.640448 -0.0851538
v 1.07116 0.684427 -0.111088
v 1.06199 0.656244 -0.0425262
v 1.03348 0.696845 -0.0276778
v 1.07051 0.657534 -0.285601
v 1.06493 0.671946 -0.256538
v 1.08255 0.642959 -0.243196
v 0.897899 0.751253 0.109887
v 0.979948 0.699895 0.0633184
v 1.06492 0.667788 -0.0618352
v 0.836898 0.902704 0.0374779
v 0.809567 0.908798 0.0254706
v 0.952276 0.880473 -0.297232
v 0.932986 0.888584 -0.307174
v 0.400828 0.768827 -0.105777
v 1.17656 0.533994 -0.378009
v 1.08574 0.543722 0.130671
v 1.17718 0.533559 -0.282412
v 0.480601 0.748111 -0.174485
v 1.13361 0.571095 -0.220855
v 0.685962 0.709528 0.141506
v 0.660971 0.700245 0.14994
v 0.664768 0.711942 0.129354
v 1.00164 0.668079 -0.408656
v 1.01528 0.646699 -0.418191
v 0.619434 0.772542 -0.0687621
v 0.621794 0.771586 -0.0456381
v 0.597624 0.755847 -0.0548866
v 0.640341 0.792015 -0.0933759
v 0.655308 0.804919 -0.107144
v 0.643137 0.793926 -0.0688137
v 0.777335 0.689157 0.179849
v 0.953048 0.664493 0.130005
v 0.729348 0.820597 -0.292251
v 0.711892 0.720617 -0.424803
v 0.661479 0.753161 0.0594765
v 0.87595 0.778856 -0.396291
v 0.902706 0.796145 -0.378578
v 0.886511 0.836056 0.064551
v 0.870904 0.815935 0.0839739
v 0.861812 0.795169 0.0976313
v 1.08951 0.617273 -0.0566295
v 0.803624 0.730851 0.144498
v 0.839451 0.795784 0.100234
v 0.907061 0.789631 0.0793736
v 0.988978 0.764886 -0.34247
v 1.01507 0.62067 0.0963894
v 1.00767 0.615036 0.114932
v 1.04771 0.574888 0.117951
v 1.027 0.594695 0.116426
v 1.03459 0.666326 -0.368438
v 1.02713 0.66125 -0.386204
v 1.01165 0.685009 -0.383088
v 0.99607 0.656761 -0.424154
v 0.985152 0.686176 -0.405704
v 0.60426 0.762678 -0.0842169
v 0.88363 0.789501 0.0945443
v 1.01292 0.669064 -0.398608
v 1.00197 0.648291 0.0830474
f 104 279 278
f 185 289 220
f 103 104 278
f 327 326 89
f 277 102 103
f 88 378 87
f 393 344 391
f 403 458 460
f 107 108 280
f 215 352 353
f 220 289 217
f 209 207 182
f 281 107 280
f 350 75 76
f 219 86 87
f 203 343 449
f 95 96 272
f 224 73 74
f 272 274 95
f 75 402 74
f 577 389 451
f 186 295 225
f 181 204 202
f 85 220 84
f 275 97 98
f 225 295 222
f 752 619 410
f 202 204 99
f 273 272 96
f 407 222 408
f 291 221 290
f 202 203 181
f 890 774 889
f 288 220 217
f 399 208 348
f 119 297 296
f 183 213 211
f 115 213 114
f 183 211 212
f 284 213 210
f 267 166 176
f 213 285 210
f 122 227 121
f 183 285 213
f 212 116 117
f 120 298 297
f 120 297 119
f 208 347 348
f 118 356 117
f 296 118 119
f 182 207 208
f 214 184 216
f 452 194 697
f 568 1101 159
f 17 160 18
f 567 161 904
f 284 113 114
f 82 352 81
f 141 331 330
f 568 21 20
f 15 569 16
f 568 19 1101
f 255 253 193
f 21 567 22
f 567 162 22
f 211 213 115
f 22 162 23
f 185 439 437
f 337 611 267
f 215 80 81
f 83 288 287
f 160 17 173
f 170 9 8
f 406 215 353
f 176 24 23
f 194 259 257
f 257 259 91
f 165 10 175
f 442 493 189
f 327 89 90
f 218 185 220
f 218 219 185
f 149 150 317
f 382 442 237
f 220 85 218
f 27 177 28
f 326 88 89
f 345 396 454
f 470 340 199
f 163 174 260
f 214 79 80
f 214 216 79
f 1 178 2
f 266 165 333
f 288 83 84
f 333 334 197
f 254 387 448
f 216 1105 78
f 76 77 1105
f 76 1105 286
f 379 439 219
f 569 173 16
f 215 184 214
f 768 770 684
f 78 79 216
f 247 622 319
f 871 868 869
f 172 180 5
f 14 163 15
f 12 11 154
f 154 164 12
f 164 13 12
f 232 231 129
f 16 173 17
f 163 726 569
f 246 244 191
f 181 388 276
f 568 161 21
f 225 223 186
f 266 443 154
f 13 174 14
f 224 186 223
f 274 94 95
f 175 10 9
f 9 170 175
f 293 294 70
f 293 70 71
f 68 291 290
f 336 267 176
f 23 162 176
f 225 72 223
f 334 333 579
f 156 574 177
f 409 291 294
f 67 290 292
f 292 66 67
f 574 179 29
f 171 2 178
f 290 67 68
f 983 815 735
f 292 744 66
f 1016 810 732
f 8 571 170
f 163 14 174
f 160 151 1102
f 164 261 260
f 285 183 400
f 350 76 286
f 176 166 24
f 280 209 206
f 227 122 228
f 112 347 111
f 113 284 283
f 301 126 127
f 128 129 231
f 208 110 111
f 611 155 570
f 209 282 206
f 282 396 206
f 300 125 126
f 453 689 775
f 127 302 301
f 182 282 209
f 233 188 232
f 261 164 154
f 25 24 166
f 654 657 557
f 26 167 27
f 26 570 167
f 611 570 166
f 167 177 27
f 99 204 98
f 207 209 109
f 179 168 30
f 179 30 29
f 395 344 393
f 136 235 135
f 134 306 305
f 133 134 305
f 3 1103 4
f 205 278 279
f 174 13 164
f 304 132 133
f 103 278 277
f 337 709 516
f 181 276 204
f 102 343 101
f 236 237 189
f 140 141 330
f 272 273 577
f 264 263 143
f 257 258 697
f 276 389 201
f 142 143 263
f 201 204 276
f 812 813 732
f 203 100 101
f 139 140 329
f 264 265 748
f 46 47 269
f 149 319 148
f 198 267 336
f 368 370 63
f 148 319 1106
f 360 419 229
f 319 149 317
f 1103 171 1032
f 144 265 264
f 32 320 321
f 405 217 289
f 266 154 165
f 1 30 168
f 143 144 264
f 150 318 317
f 571 580 170
f 492 510 420
f 47 270 269
f 236 235 136
f 275 204 201
f 33 320 32
f 113 283 112
f 25 570 26
f 169 7 6
f 1101 19 1102
f 5 4 172
f 368 369 743
f 2 171 3
f 10 165 11
f 180 6 5
f 83 287 82
f 4 1104 172
f 52 53 311
f 178 1 168
f 28 574 29
f 572 571 7
f 240 242 54
f 100 203 202
f 57 58 313
f 60 244 246
f 241 367 427
f 310 50 308
f 446 193 448
f 99 100 202
f 244 245 191
f 80 215 214
f 702 470 199
f 58 59 314
f 488 505 506
f 115 116 211
f 110 208 207
f 116 212 211
f 190 240 241
f 240 190 242
f 109 110 207
f 553 726 807
f 11 165 154
f 61 245 244
f 323 37 38
f 55 241 240
f 436 250 376
f 60 61 244
f 40 253 255
f 91 92 257
f 321 432 318
f 324 38 39
f 431 373 430
f 40 41 253
f 35 250 249
f 41 254 253
f 192 249 250
f 253 254 193
f 34 35 249
f 122 123 228
f 157 571 572
f 308 51 309
f 6 180 169
f 72 73 223
f 86 219 218
f 224 223 73
f 50 51 308
f 137 237 236
f 271 46 269
f 50 310 49
f 43 44 338
f 130 233 232
f 129 130 232
f 136 137 236
f 199 271 269
f 339 44 45
f 123 229 228
f 54 55 240
f 249 192 251
f 251 34 249
f 85 86 218
f 92 258 257
f 229 187 228
f 109 209 108
f 931 734 179
f 293 225 222
f 72 225 71
f 298 299 226
f 212 356 455
f 227 187 1107
f 226 297 298
f 229 123 124
f 227 228 187
f 125 359 124
f 126 301 300
f 302 303 230
f 229 359 360
f 231 188 504
f 230 301 302
f 233 130 131
f 231 232 188
f 132 362 131
f 133 305 304
f 307 234 306
f 233 362 363
f 235 189 512
f 234 305 306
f 237 137 138
f 235 236 189
f 139 381 138
f 140 330 329
f 312 423 239
f 269 270 702
f 239 242 312
f 308 309 578
f 241 55 56
f 190 312 242
f 57 366 56
f 314 313 58
f 311 242 239
f 54 242 53
f 243 246 316
f 241 366 367
f 245 61 62
f 191 316 246
f 63 370 62
f 368 63 64
f 314 246 243
f 60 246 59
f 431 430 248
f 145 751 749
f 248 251 322
f 318 247 317
f 250 35 36
f 192 322 251
f 37 375 36
f 324 323 38
f 320 251 248
f 34 251 33
f 252 255 325
f 250 375 376
f 254 41 42
f 193 325 255
f 43 386 42
f 339 338 44
f 324 255 252
f 40 255 39
f 328 256 259
f 219 378 379
f 258 92 93
f 194 328 259
f 698 94 274
f 479 697 698
f 327 259 256
f 91 259 90
f 164 260 174
f 195 476 494
f 383 443 384
f 260 261 195
f 331 332 262
f 237 381 382
f 263 196 1108
f 262 330 331
f 265 144 145
f 263 264 196
f 751 145 146
f 1106 372 751
f 333 165 175
f 197 384 266
f 336 176 162
f 198 709 267
f 268 271 340
f 254 386 387
f 270 47 48
f 199 340 271
f 703 49 310
f 489 702 703
f 339 271 268
f 46 271 45
f 96 97 273
f 272 200 274
f 275 273 97
f 273 275 577
f 451 496 498
f 698 93 94
f 204 275 98
f 275 201 577
f 449 343 344
f 450 389 276
f 449 341 388
f 101 343 203
f 279 104 105
f 277 278 205
f 281 775 106
f 106 107 281
f 209 280 108
f 280 206 281
f 396 453 206
f 775 105 106
f 285 398 210
f 677 679 988
f 348 283 614
f 111 347 208
f 213 284 114
f 283 284 210
f 455 356 357
f 414 416 357
f 525 461 518
f 404 224 402
f 353 287 615
f 81 352 215
f 220 288 84
f 287 288 217
f 256 328 438
f 260 195 494
f 291 68 69
f 290 221 292
f 294 69 70
f 294 407 409
f 621 245 370
f 64 369 368
f 225 293 71
f 294 293 222
f 294 222 407
f 294 291 69
f 350 458 402
f 195 261 383
f 455 349 400
f 117 356 212
f 120 121 298
f 296 297 226
f 121 227 298
f 298 227 299
f 1107 464 299
f 414 415 416
f 360 300 418
f 124 359 229
f 127 128 302
f 300 301 230
f 128 231 302
f 302 231 303
f 233 363 422
f 468 502 486
f 363 304 421
f 131 362 233
f 134 135 306
f 304 305 234
f 135 235 306
f 306 235 307
f 492 474 510
f 727 502 468
f 51 52 309
f 308 238 310
f 311 309 52
f 309 311 578
f 469 505 507
f 703 48 49
f 242 311 53
f 311 239 578
f 316 426 243
f 578 423 469
f 367 313 620
f 56 366 241
f 246 314 59
f 313 314 243
f 410 616 221
f 410 221 409
f 621 428 191
f 423 471 364
f 318 150 31
f 317 247 319
f 321 31 32
f 321 430 432
f 247 432 433
f 147 1106 751
f 251 320 33
f 321 320 248
f 321 248 430
f 321 318 31
f 325 435 252
f 630 633 628
f 376 323 643
f 36 375 250
f 255 324 39
f 323 324 252
f 268 340 447
f 434 192 436
f 379 326 680
f 87 378 219
f 259 327 90
f 326 327 256
f 451 498 200
f 557 657 663
f 382 329 441
f 138 381 237
f 141 142 331
f 329 330 262
f 142 263 331
f 331 263 332
f 380 382 441
f 332 1108 508
f 579 175 170
f 197 266 333
f 738 962 816
f 428 316 191
f 582 588 586
f 411 295 186
f 152 700 162
f 614 897 346
f 1014 1066 465
f 422 487 188
f 387 338 687
f 42 386 254
f 271 339 45
f 338 339 268
f 507 238 469
f 598 601 603
f 281 206 453
f 861 863 864
f 450 342 389
f 194 452 328
f 102 277 343
f 277 391 343
f 277 205 391
f 391 894 393
f 397 182 399
f 859 860 760
f 614 346 348
f 182 397 690
f 112 283 347
f 348 347 283
f 614 283 210
f 348 346 399
f 412 414 357
f 198 336 457
f 403 462 404
f 74 402 224
f 351 353 615
f 383 475 195
f 82 287 352
f 353 352 287
f 615 287 217
f 353 351 406
f 354 407 408
f 477 335 384
f 184 406 500
f 408 295 463
f 118 296 356
f 296 412 356
f 296 226 412
f 414 226 464
f 466 230 303
f 198 457 499
f 125 300 359
f 360 359 300
f 418 300 230
f 360 358 419
f 467 234 307
f 360 418 358
f 132 304 362
f 363 362 304
f 421 304 234
f 363 361 422
f 427 425 190
f 822 952 741
f 367 620 365
f 190 425 694
f 57 313 366
f 367 366 313
f 620 313 243
f 367 365 427
f 369 64 65
f 370 368 315
f 744 65 66
f 743 744 612
f 370 315 429
f 370 245 62
f 743 315 368
f 586 587 736
f 622 247 433
f 749 613 748
f 322 192 434
f 754 625 627
f 643 374 376
f 1115 642 1144
f 37 323 375
f 376 375 323
f 643 323 252
f 376 374 436
f 379 680 377
f 476 195 475
f 88 326 378
f 379 378 326
f 680 326 256
f 379 377 439
f 473 262 332
f 361 363 421
f 139 329 381
f 382 381 329
f 441 329 262
f 382 380 442
f 443 261 154
f 475 335 444
f 736 737 197
f 383 384 335
f 385 387 687
f 602 605 607
f 43 338 386
f 387 386 338
f 687 338 268
f 387 385 448
f 449 388 181
f 388 341 450
f 450 276 388
f 451 389 342
f 478 497 1111
f 655 666 657
f 392 776 688
f 343 391 344
f 1053 1052 1086
f 394 395 393
f 894 391 205
f 393 392 394
f 688 889 392
f 496 497 478
f 1122 395 394
f 449 395 341
f 282 182 690
f 396 345 453
f 691 1049 896
f 396 282 690
f 692 400 456
f 692 398 285
f 397 399 346
f 208 399 182
f 455 400 183
f 400 349 456
f 457 336 481
f 457 481 401
f 75 350 402
f 404 402 458
f 350 286 458
f 460 286 461
f 462 355 411
f 186 224 404
f 437 289 185
f 289 437 644
f 500 406 517
f 215 406 184
f 408 222 295
f 409 407 354
f 463 295 411
f 514 335 513
f 410 409 354
f 291 409 221
f 806 929 355
f 745 826 315
f 462 186 404
f 411 355 463
f 464 226 299
f 356 412 357
f 187 419 484
f 465 484 1014
f 226 414 412
f 414 413 415
f 1012 1063 1065
f 787 778 898
f 780 416 415
f 455 416 349
f 417 466 486
f 499 516 709
f 466 418 230
f 926 925 1013
f 465 1139 464
f 229 419 187
f 420 467 492
f 337 944 812
f 467 421 234
f 361 529 520
f 487 422 503
f 233 422 188
f 312 190 694
f 469 423 364
f 593 594 595
f 601 585 595
f 900 695 1037
f 423 312 694
f 696 428 472
f 316 696 426
f 425 427 365
f 241 427 190
f 428 621 429
f 428 371 472
f 743 745 315
f 428 429 371
f 431 248 322
f 432 430 373
f 322 434 636
f 171 178 733
f 433 432 373
f 318 432 247
f 629 626 433
f 509 440 508
f 683 686 681
f 171 733 946
f 446 325 193
f 325 446 681
f 434 436 374
f 250 436 192
f 556 557 546
f 540 494 476
f 699 452 480
f 328 699 438
f 437 439 377
f 219 439 185
f 440 473 508
f 942 1018 1020
f 473 441 262
f 380 531 522
f 493 442 511
f 237 442 189
f 384 443 266
f 261 443 383
f 477 513 335
f 501 519 526
f 736 197 334
f 722 712 714
f 609 991 992
f 607 609 602
f 704 470 490
f 340 704 447
f 448 385 767
f 254 448 193
f 203 449 181
f 449 344 395
f 341 395 1122
f 671 676 678
f 496 451 342
f 451 200 577
f 257 697 194
f 452 390 480
f 688 453 345
f 279 689 205
f 895 777 397
f 152 794 481
f 212 455 183
f 455 357 416
f 349 780 779
f 777 454 397
f 162 700 336
f 1087 499 457
f 460 458 286
f 404 458 403
f 460 461 525
f 459 545 1109
f 286 1105 461
f 403 460 459
f 184 710 216
f 518 710 500
f 462 403 1109
f 186 462 411
f 459 525 539
f 713 717 523
f 299 227 1107
f 414 464 413
f 1014 358 1013
f 926 796 925
f 486 303 504
f 418 466 417
f 492 307 512
f 421 467 420
f 503 468 487
f 503 520 528
f 505 469 364
f 469 238 578
f 269 702 199
f 470 424 490
f 899 792 425
f 965 582 583
f 842 1124 591
f 334 579 580
f 508 1108 491
f 441 473 440
f 511 474 493
f 522 530 511
f 335 475 383
f 476 475 444
f 525 459 460
f 535 540 476
f 737 384 197
f 445 716 513
f 763 450 675
f 705 515 479
f 200 498 705
f 390 452 479
f 670 668 672
f 540 553 494
f 152 904 794
f 907 159 908
f 781 784 782
f 502 417 486
f 405 524 532
f 517 483 500
f 1014 419 358
f 1107 484 465
f 796 417 502
f 706 918 924
f 466 303 486
f 303 231 504
f 503 422 361
f 486 487 468
f 471 707 364
f 708 521 489
f 238 507 708
f 424 470 489
f 952 822 823
f 595 585 593
f 196 264 748
f 852 491 750
f 467 307 492
f 307 235 512
f 511 442 380
f 492 493 474
f 535 476 519
f 260 494 807
f 831 619 833
f 545 459 539
f 496 342 763
f 496 478 498
f 672 676 662
f 660 664 669
f 515 498 478
f 705 479 698
f 1087 457 401
f 499 482 516
f 517 406 351
f 518 500 483
f 476 444 519
f 335 514 444
f 510 725 420
f 796 502 914
f 361 421 529
f 503 361 520
f 188 487 504
f 486 504 487
f 506 505 364
f 505 488 507
f 582 580 157
f 965 592 596
f 521 507 488
f 708 489 703
f 332 508 473
f 509 508 491
f 972 754 627
f 734 735 168
f 474 511 530
f 156 177 731
f 380 441 531
f 511 380 522
f 189 493 512
f 492 512 493
f 445 513 477
f 513 495 514
f 514 711 526
f 526 519 444
f 1112 515 478
f 390 479 515
f 706 925 796
f 558 528 541
f 532 517 351
f 532 533 517
f 518 483 525
f 461 216 710
f 526 444 514
f 1120 535 519
f 542 559 530
f 468 503 528
f 521 488 955
f 424 489 521
f 549 1110 509
f 857 755 854
f 1015 722 714
f 1109 806 355
f 405 289 644
f 533 724 517
f 544 729 539
f 799 718 801
f 711 514 495
f 719 804 523
f 566 729 563
f 535 1120 527
f 528 520 541
f 528 558 727
f 421 420 529
f 725 529 420
f 522 549 542
f 530 559 728
f 441 440 531
f 1110 531 440
f 405 532 351
f 533 532 524
f 533 524 543
f 533 561 563
f 544 539 525
f 802 799 566
f 1120 519 501
f 535 527 540
f 541 520 547
f 573 731 810
f 932 936 808
f 530 522 542
f 405 644 646
f 560 538 543
f 544 525 483
f 545 539 534
f 554 540 527
f 554 553 540
f 725 520 529
f 558 541 1132
f 522 1110 549
f 537 550 559
f 524 646 560
f 1118 561 538
f 483 724 544
f 533 543 561
f 719 717 715
f 806 1109 545
f 556 546 554
f 564 565 538
f 728 510 474
f 541 547 1019
f 933 935 1069
f 1061 920 921
f 631 856 854
f 542 549 1025
f 809 576 931
f 728 1071 510
f 551 648 645
f 649 651 759
f 555 1117 565
f 729 566 534
f 986 661 985
f 726 153 569
f 527 1121 556
f 554 546 986
f 1121 1116 1117
f 560 564 538
f 527 556 554
f 557 556 555
f 656 555 565
f 654 562 653
f 1132 541 536
f 548 914 727
f 537 559 542
f 550 1071 728
f 524 560 543
f 564 560 759
f 538 561 543
f 563 561 552
f 649 551 645
f 651 653 562
f 563 552 566
f 563 544 724
f 759 560 551
f 565 564 562
f 562 654 656
f 1121 1117 555
f 802 552 1146
f 804 718 800
f 567 152 162
f 21 161 567
f 19 568 20
f 906 568 159
f 569 153 173
f 15 163 569
f 570 155 167
f 25 166 570
f 7 571 8
f 580 571 157
f 7 169 572
f 583 572 169
f 811 167 155
f 1041 549 509
f 574 156 179
f 28 177 574
f 168 179 734
f 626 629 631
f 156 731 809
f 537 1024 1022
f 577 201 389
f 272 577 200
f 578 239 423
f 308 578 238
f 175 579 333
f 580 579 170
f 157 583 582
f 580 586 334
f 506 364 707
f 425 792 471
f 157 572 583
f 582 581 588
f 169 593 592
f 583 169 592
f 590 584 588
f 591 840 842
f 585 592 593
f 848 589 963
f 582 586 580
f 587 586 584
f 590 591 584
f 477 737 445
f 581 963 590
f 586 588 584
f 965 964 581
f 844 843 837
f 581 590 588
f 590 589 846
f 843 738 837
f 429 826 825
f 593 169 180
f 585 740 592
f 172 594 180
f 593 180 594
f 597 600 158
f 594 600 599
f 172 600 594
f 596 740 604
f 601 604 740
f 820 951 604
f 733 947 946
f 610 887 886
f 599 595 594
f 424 817 490
f 605 599 597
f 603 601 595
f 158 600 172
f 599 600 597
f 603 595 599
f 601 598 604
f 1033 1032 946
f 770 772 684
f 605 603 599
f 886 602 992
f 598 818 604
f 958 824 957
f 597 1034 607
f 605 602 1128
f 628 633 637
f 632 636 640
f 597 607 605
f 606 1045 609
f 1033 597 158
f 682 683 684
f 606 609 607
f 609 608 991
f 773 642 435
f 610 990 882
f 267 611 166
f 812 611 337
f 221 616 292
f 616 618 746
f 624 625 754
f 196 748 750
f 210 398 614
f 614 398 897
f 217 405 615
f 351 615 405
f 618 616 410
f 612 292 616
f 618 619 617
f 829 832 827
f 619 618 410
f 618 617 746
f 410 354 752
f 713 523 711
f 243 426 620
f 620 426 901
f 245 621 191
f 370 429 621
f 625 622 626
f 1106 624 372
f 623 625 626
f 491 852 973
f 319 622 624
f 625 624 622
f 626 622 433
f 623 627 625
f 433 630 629
f 630 628 629
f 627 623 853
f 972 853 852
f 632 634 636
f 631 623 626
f 630 433 373
f 628 756 629
f 431 634 373
f 630 634 633
f 637 638 756
f 984 576 943
f 434 641 640
f 993 1043 1044
f 630 373 634
f 632 1141 637
f 636 634 431
f 632 633 634
f 1142 1143 1078
f 638 631 756
f 322 636 431
f 636 434 640
f 632 637 633
f 637 635 638
f 1136 949 1082
f 635 858 638
f 374 642 641
f 1047 1045 606
f 641 434 374
f 632 640 639
f 642 374 435
f 639 640 641
f 681 435 325
f 1144 1114 1115
f 252 435 643
f 374 643 435
f 645 644 437
f 405 646 524
f 377 650 437
f 650 377 758
f 648 644 645
f 646 648 560
f 645 650 649
f 390 1112 1113
f 560 648 551
f 644 648 646
f 645 437 650
f 651 649 647
f 758 377 438
f 647 649 650
f 647 870 653
f 562 564 759
f 865 866 867
f 859 861 667
f 647 653 651
f 654 653 652
f 658 657 654
f 654 557 656
f 658 655 657
f 667 655 762
f 555 656 557
f 562 656 565
f 658 654 652
f 666 663 657
f 1126 658 652
f 1126 660 658
f 869 870 647
f 658 660 655
f 664 670 662
f 660 659 664
f 667 666 655
f 864 153 985
f 674 497 675
f 160 760 862
f 986 663 661
f 546 557 663
f 865 670 659
f 662 671 669
f 665 669 671
f 667 861 661
f 669 762 660
f 661 663 666
f 859 667 665
f 661 666 667
f 390 761 480
f 390 515 1112
f 662 669 664
f 762 665 667
f 659 670 664
f 668 1111 672
f 672 674 676
f 765 880 881
f 674 672 497
f 662 670 672
f 450 872 675
f 678 679 677
f 497 763 675
f 674 673 676
f 1122 872 341
f 673 674 675
f 678 676 673
f 671 662 676
f 873 675 872
f 910 908 151
f 679 678 673
f 678 677 881
f 891 392 889
f 876 999 1051
f 256 438 680
f 377 680 438
f 446 767 683
f 681 686 773
f 772 990 888
f 681 446 683
f 446 448 767
f 682 685 686
f 447 768 385
f 767 768 684
f 888 1043 1042
f 1042 682 888
f 682 686 683
f 685 1144 773
f 268 447 687
f 385 687 447
f 996 890 994
f 776 205 689
f 775 689 279
f 776 453 688
f 397 454 690
f 396 690 454
f 456 349 779
f 481 794 1002
f 400 692 285
f 898 692 456
f 693 780 782
f 782 786 693
f 425 471 694
f 423 694 471
f 620 901 365
f 820 604 818
f 428 696 316
f 902 696 472
f 698 697 258
f 452 697 479
f 93 698 258
f 698 274 705
f 452 699 328
f 987 699 480
f 152 481 700
f 336 700 481
f 161 568 906
f 786 783 789
f 703 702 270
f 470 702 489
f 48 703 270
f 703 310 708
f 470 704 340
f 771 704 490
f 200 705 274
f 515 705 498
f 1009 482 922
f 482 1059 1010
f 1036 471 792
f 964 951 966
f 238 708 310
f 521 708 507
f 267 709 337
f 499 709 198
f 500 710 184
f 461 710 518
f 714 713 711
f 523 526 711
f 712 713 714
f 723 833 753
f 714 711 495
f 971 712 970
f 716 495 513
f 714 495 716
f 722 970 712
f 805 929 806
f 927 587 798
f 970 722 723
f 971 713 712
f 718 719 720
f 566 799 534
f 717 719 523
f 720 719 715
f 719 718 804
f 715 805 720
f 545 534 801
f 445 927 716
f 835 832 828
f 1015 714 716
f 723 722 721
f 961 833 723
f 753 619 752
f 517 724 483
f 563 724 533
f 1071 725 510
f 520 725 547
f 807 163 260
f 985 726 553
f 528 727 468
f 548 727 558
f 530 728 474
f 550 728 559
f 539 729 534
f 563 729 544
f 1146 1116 1119
f 799 800 718
f 810 177 167
f 932 809 731
f 812 732 811
f 1017 1068 1070
f 815 178 168
f 733 575 947
f 931 179 156
f 735 734 576
f 973 974 509
f 815 575 733
f 586 736 334
f 737 587 445
f 737 477 384
f 587 737 736
f 472 371 816
f 825 371 429
f 823 955 506
f 883 885 887
f 592 740 596
f 601 740 585
f 818 821 741
f 956 506 707
f 1040 958 1038
f 849 839 847
f 744 743 369
f 745 743 612
f 65 744 369
f 292 612 744
f 612 746 745
f 747 826 746
f 746 612 616
f 617 830 746
f 831 830 617
f 827 816 371
f 749 748 265
f 750 748 613
f 749 265 145
f 754 749 372
f 613 754 972
f 1108 750 491
f 147 751 146
f 372 749 751
f 408 850 354
f 850 753 752
f 354 850 752
f 971 970 851
f 749 754 613
f 754 372 624
f 854 853 623
f 977 858 975
f 629 756 631
f 637 756 628
f 979 981 976
f 809 943 576
f 987 438 699
f 867 868 480
f 649 759 551
f 562 759 651
f 671 880 665
f 760 863 861
f 668 865 761
f 761 865 867
f 660 762 655
f 665 762 669
f 496 763 497
f 450 763 342
f 764 875 874
f 873 679 673
f 879 989 988
f 862 151 160
f 874 679 873
f 794 904 1129
f 768 767 385
f 683 767 684
f 771 447 704
f 771 769 770
f 490 817 884
f 772 682 684
f 771 770 768
f 770 769 772
f 447 771 768
f 771 490 884
f 882 772 769
f 990 991 888
f 681 773 435
f 685 773 686
f 688 890 889
f 877 679 874
f 105 775 279
f 453 775 281
f 392 393 894
f 453 776 689
f 895 397 346
f 998 893 774
f 898 778 897
f 456 779 787
f 349 416 780
f 787 779 693
f 415 1138 782
f 693 779 780
f 1138 1140 1137
f 1089 1099 1059
f 415 782 780
f 783 784 785
f 1003 1004 1088
f 784 786 782
f 784 781 1149
f 784 783 786
f 923 920 1062
f 923 924 921
f 788 789 790
f 1057 778 787
f 786 1123 693
f 791 1123 789
f 1050 1049 691
f 1057 1123 791
f 790 789 783
f 789 788 791
f 783 785 1099
f 481 1002 1003
f 1055 791 788
f 791 1056 1057
f 899 425 365
f 820 959 1040
f 902 793 901
f 962 903 816
f 152 567 904
f 1002 794 1135
f 907 795 906
f 909 795 907
f 502 727 914
f 1012 706 923
f 914 916 918
f 917 1093 916
f 835 837 832
f 927 928 716
f 799 802 800
f 801 718 720
f 730 803 800
f 523 804 526
f 545 801 720
f 534 799 801
f 552 802 566
f 730 800 802
f 1119 803 730
f 804 501 526
f 800 803 804
f 804 803 501
f 969 715 851
f 850 968 969
f 545 720 806
f 805 806 720
f 553 807 494
f 163 807 726
f 932 934 936
f 1022 1024 1026
f 932 731 573
f 943 809 1029
f 177 810 731
f 811 810 167
f 812 811 155
f 810 811 732
f 611 812 155
f 812 944 813
f 1093 1100 1070
f 813 935 1016
f 949 575 948
f 1079 1077 635
f 178 815 733
f 168 735 815
f 371 825 827
f 845 962 843
f 521 955 954
f 739 883 884
f 598 1127 821
f 820 818 741
f 886 1127 603
f 819 822 821
f 952 824 959
f 820 742 951
f 598 821 818
f 819 885 822
f 739 953 822
f 741 821 822
f 739 817 953
f 817 954 953
f 957 824 956
f 820 741 959
f 429 315 826
f 825 747 827
f 746 826 745
f 747 825 826
f 829 827 747
f 816 827 832
f 829 747 830
f 798 840 841
f 747 746 830
f 832 829 828
f 831 617 619
f 828 829 830
f 619 753 833
f 828 830 831
f 835 836 834
f 832 738 816
f 961 721 836
f 828 831 960
f 838 840 591
f 837 738 832
f 836 835 828
f 835 834 837
f 836 828 960
f 841 840 834
f 834 838 837
f 591 844 838
f 840 838 834
f 847 844 846
f 844 847 839
f 695 900 1125
f 834 836 841
f 840 798 842
f 836 721 841
f 928 927 798
f 587 1124 798
f 584 1124 587
f 844 837 838
f 843 839 845
f 846 844 591
f 843 844 839
f 839 849 967
f 793 902 903
f 590 846 591
f 846 589 847
f 589 848 847
f 847 848 849
f 589 590 963
f 849 848 1038
f 1038 848 742
f 839 967 845
f 463 968 408
f 968 463 929
f 723 753 851
f 753 850 969
f 972 852 750
f 973 852 755
f 854 623 631
f 852 853 755
f 977 856 638
f 755 853 854
f 976 981 930
f 856 857 854
f 638 856 631
f 856 855 857
f 855 975 980
f 974 973 755
f 1035 1082 1083
f 975 858 757
f 860 859 665
f 861 859 760
f 880 860 665
f 913 912 765
f 863 760 160
f 173 864 863
f 760 860 862
f 912 860 765
f 160 173 863
f 864 173 153
f 153 726 985
f 861 864 661
f 670 865 668
f 866 865 659
f 1126 866 659
f 871 758 868
f 868 867 866
f 480 761 867
f 869 868 866
f 758 438 987
f 870 869 866
f 871 647 650
f 1126 870 866
f 653 870 652
f 647 871 869
f 650 758 871
f 341 872 450
f 873 872 764
f 873 764 874
f 675 873 673
f 764 1122 875
f 892 999 1133
f 891 875 394
f 878 877 876
f 891 892 875
f 893 1051 999
f 1133 874 875
f 1001 876 1051
f 878 766 879
f 679 877 878
f 909 911 1008
f 989 879 913
f 881 880 671
f 860 880 765
f 678 881 671
f 881 677 989
f 769 883 882
f 739 885 883
f 884 883 769
f 739 822 885
f 884 769 771
f 739 884 817
f 819 1127 885
f 882 887 610
f 1127 819 821
f 603 1128 886
f 883 887 882
f 886 887 885
f 991 1043 888
f 682 772 888
f 890 688 345
f 891 889 774
f 454 994 345
f 345 994 890
f 891 774 892
f 392 891 394
f 999 774 893
f 876 1133 999
f 890 996 998
f 1053 1131 1000
f 205 776 894
f 392 894 776
f 897 895 346
f 896 895 778
f 895 896 777
f 1057 896 778
f 898 897 398
f 895 897 778
f 692 898 398
f 787 898 456
f 901 899 365
f 900 899 793
f 899 900 792
f 1125 900 793
f 902 901 426
f 899 901 793
f 696 902 426
f 903 902 472
f 816 903 472
f 903 845 1125
f 906 904 161
f 904 906 1129
f 788 1004 1005
f 1004 790 1088
f 907 906 159
f 906 795 1129
f 159 1101 908
f 908 911 907
f 151 862 910
f 911 909 907
f 766 878 1001
f 795 909 1130
f 912 910 862
f 879 1008 913
f 908 910 911
f 910 912 913
f 860 912 862
f 765 989 913
f 1008 879 766
f 911 910 913
f 916 914 548
f 706 796 914
f 1132 916 548
f 915 919 918
f 916 1132 917
f 918 916 915
f 937 941 942
f 915 1093 1070
f 915 1070 919
f 914 918 706
f 921 919 797
f 918 919 924
f 922 1061 921
f 1060 1149 1011
f 922 921 797
f 921 920 923
f 1094 1058 797
f 922 482 1010
f 1011 1062 1060
f 706 1012 925
f 921 924 919
f 706 924 923
f 485 1013 925
f 358 418 926
f 418 417 926
f 796 926 417
f 587 927 445
f 798 841 928
f 841 721 928
f 721 722 1015
f 968 929 805
f 355 929 463
f 936 938 808
f 978 980 975
f 734 931 576
f 156 809 931
f 934 932 573
f 1029 932 808
f 934 573 935
f 536 1018 1091
f 573 1016 935
f 934 933 936
f 1067 935 813
f 933 934 935
f 939 936 933
f 939 938 936
f 937 939 941
f 1021 937 942
f 1022 937 1021
f 943 1076 1075
f 1092 941 939
f 938 939 937
f 1067 1069 935
f 1018 1019 1020
f 1092 939 933
f 942 941 940
f 942 940 1018
f 942 550 1021
f 1076 938 1028
f 943 1075 984
f 337 516 944
f 482 1009 516
f 944 1030 813
f 516 1030 944
f 1031 946 814
f 1103 1032 158
f 983 948 575
f 946 947 814
f 1035 757 858
f 814 947 949
f 575 949 947
f 949 948 1082
f 1080 950 1079
f 1046 1114 1145
f 966 742 848
f 604 951 596
f 823 506 952
f 952 506 956
f 954 817 424
f 822 953 823
f 954 424 521
f 823 953 954
f 506 955 488
f 823 954 955
f 957 956 707
f 952 956 824
f 1036 707 471
f 1036 792 1037
f 1037 958 957
f 849 1039 967
f 952 959 741
f 1040 824 958
f 831 833 960
f 960 833 961
f 721 961 723
f 960 961 836
f 843 962 738
f 903 962 845
f 964 963 581
f 966 963 964
f 581 582 965
f 951 964 596
f 592 965 583
f 596 964 965
f 742 966 951
f 848 963 966
f 1039 849 1038
f 1125 967 695
f 969 968 805
f 408 968 850
f 715 969 805
f 969 851 753
f 723 851 970
f 851 715 971
f 715 717 971
f 971 717 713
f 613 972 750
f 853 972 627
f 974 755 857
f 491 973 509
f 1096 982 1074
f 509 974 1041
f 978 975 757
f 977 975 855
f 976 978 979
f 980 976 982
f 856 977 855
f 858 977 638
f 979 978 757
f 980 978 976
f 979 757 1083
f 983 735 981
f 982 976 930
f 1095 1072 857
f 983 981 979
f 984 735 576
f 1027 1073 1026
f 1095 980 1096
f 948 983 979
f 983 575 815
f 930 981 984
f 735 984 981
f 986 985 553
f 661 864 985
f 554 986 553
f 986 546 663
f 480 868 987
f 758 987 868
f 679 878 988
f 879 988 878
f 881 989 765
f 988 989 677
f 882 990 772
f 991 990 610
f 991 610 992
f 1043 991 608
f 886 992 610
f 609 992 602
f 1044 608 1045
f 993 1044 1046
f 777 1048 454
f 997 995 996
f 454 1048 994
f 1005 1054 788
f 997 996 994
f 998 996 995
f 1049 997 1048
f 788 1054 1007
f 893 998 995
f 890 998 774
f 1133 876 877
f 774 999 892
f 1000 1051 1052
f 1008 1134 909
f 876 1001 878
f 1134 1001 1000
f 1135 794 701
f 1003 1002 905
f 1003 905 1004
f 481 1003 401
f 1005 1004 905
f 788 790 1004
f 1006 1054 1135
f 1135 1054 905
f 1130 701 1129
f 997 1050 1084
f 995 1084 1086
f 1056 1050 691
f 1008 766 1134
f 911 913 1008
f 1058 922 797
f 1030 1009 945
f 1087 482 499
f 1010 1099 1060
f 1064 1140 1139
f 1065 1063 1064
f 923 1062 1063
f 485 925 1012
f 1014 1013 485
f 926 1013 358
f 1014 485 1066
f 419 1014 484
f 716 928 1015
f 721 1015 928
f 810 1016 573
f 813 1016 732
f 1067 813 1068
f 1090 940 1092
f 1091 940 1090
f 1019 1018 536
f 541 1019 536
f 1020 1019 547
f 547 725 1071
f 550 942 1020
f 550 537 1021
f 1022 1021 537
f 1023 1024 1025
f 938 937 1022
f 1072 974 857
f 1026 938 1022
f 1025 1024 537
f 1024 1023 1026
f 542 1025 537
f 1025 549 1041
f 1023 1027 1026
f 1073 1027 1074
f 1072 1096 1097
f 930 1075 1074
f 1028 1074 1075
f 1026 1073 938
f 932 1029 809
f 1076 1029 808
f 1009 1030 516
f 813 1030 945
f 1047 1031 814
f 1033 1034 597
f 171 946 1032
f 1033 946 1031
f 1033 1031 1034
f 158 1032 1033
f 1031 606 1034
f 607 1034 606
f 635 1077 858
f 1082 1035 950
f 792 900 1037
f 707 1036 957
f 1037 695 1039
f 957 1036 1037
f 1040 1038 742
f 1039 1038 958
f 1037 1039 958
f 967 1039 695
f 820 1040 742
f 824 1040 959
f 974 1072 1097
f 1025 1041 1023
f 1145 1042 993
f 685 682 1042
f 1044 1043 608
f 1042 1043 993
f 1044 1045 1081
f 1047 1081 1045
f 609 1045 608
f 1031 1047 606
f 1077 1079 1035
f 639 641 1115
f 814 1136 1047
f 950 1080 1081
f 1049 1048 777
f 994 1048 997
f 896 1049 777
f 1056 691 1057
f 1053 1085 1098
f 997 1049 1050
f 1052 1051 893
f 1001 1051 1000
f 995 1086 893
f 995 997 1084
f 701 1130 1147
f 1000 1052 1053
f 905 1054 1005
f 1098 1054 1006
f 788 1007 1055
f 1050 1055 1007
f 791 1055 1056
f 1050 1056 1055
f 1057 691 896
f 1057 787 1123
f 945 1009 1058
f 922 1058 1009
f 1088 1059 1087
f 1059 1088 1089
f 1060 785 1149
f 1061 1060 920
f 922 1010 1061
f 1060 1061 1010
f 1060 1062 920
f 1063 1062 1011
f 1011 1064 1063
f 923 1063 1012
f 1137 1064 1011
f 1137 1140 1064
f 1064 1139 1066
f 485 1012 1065
f 485 1065 1066
f 1064 1066 1065
f 1068 813 945
f 1069 1067 1017
f 945 1058 1094
f 1017 1067 1068
f 1090 1069 1017
f 1092 1069 1090
f 1094 1068 945
f 919 1070 797
f 550 1020 1071
f 547 1071 1020
f 857 855 1095
f 1027 1023 1097
f 1027 1096 1074
f 938 1073 1028
f 930 1074 982
f 1028 1073 1074
f 984 1075 930
f 943 1029 1076
f 938 1076 808
f 1028 1075 1076
f 1078 1079 635
f 1035 858 1077
f 635 1141 1078
f 1141 632 1142
f 1080 1079 1078
f 950 1035 1079
f 1143 1080 1078
f 1081 1080 1046
f 1044 1081 1046
f 1081 1047 1136
f 1082 950 1136
f 1083 1082 948
f 979 1083 948
f 757 1035 1083
f 1085 1084 1050
f 1052 893 1086
f 1050 1007 1085
f 1098 1007 1054
f 1084 1085 1086
f 1053 1086 1085
f 1088 1087 401
f 482 1087 1059
f 1088 401 1003
f 1089 1088 790
f 783 1089 790
f 1099 785 1060
f 1100 1090 1017
f 917 1132 1091
f 940 1091 1018
f 917 1091 1090
f 941 1092 940
f 933 1069 1092
f 916 1093 915
f 917 1090 1100
f 797 1070 1094
f 1068 1094 1070
f 855 980 1095
f 1096 980 982
f 1097 1096 1027
f 1095 1096 1072
f 1023 1041 1097
f 974 1097 1041
f 1098 1006 1147
f 1085 1007 1098
f 1059 1099 1010
f 783 1099 1089
f 1070 1100 1017
f 917 1100 1093
f 1102 19 18
f 908 1101 151
f 1101 1102 151
f 18 160 1102
f 158 172 1104
f 3 171 1103
f 4 1103 1104
f 158 1104 1103
f 78 1105 77
f 461 1105 216
f 148 1106 147
f 624 1106 319
f 484 1107 187
f 464 1107 465
f 263 1108 332
f 750 1108 196
f 462 1109 355
f 459 1109 403
f 531 1110 522
f 509 1110 440
f 672 1111 497
f 668 761 1113
f 478 1111 1112
f 1111 668 1113
f 390 1113 761
f 1111 1113 1112
f 1114 1144 1145
f 1046 1080 1143
f 642 1115 641
f 1148 1115 1114
f 1117 1118 538
f 1116 1121 1119
f 1118 1117 1116
f 538 565 1117
f 1146 1118 1116
f 561 1118 552
f 803 1119 501
f 1119 730 1146
f 501 1119 1120
f 527 1120 1119
f 556 1121 555
f 527 1119 1121
f 875 1122 394
f 872 1122 764
f 693 1123 787
f 789 1123 786
f 591 1124 584
f 798 1124 842
f 903 1125 793
f 967 1125 845
f 1126 659 660
f 870 1126 652
f 603 1127 598
f 885 1127 886
f 605 1128 603
f 602 886 1128
f 1130 1129 795
f 794 1129 701
f 909 1131 1130
f 1130 1131 1147
f 1131 909 1134
f 1147 1131 1053
f 558 1132 548
f 1091 1132 536
f 874 1133 877
f 892 1133 875
f 1001 1134 766
f 1131 1134 1000
f 1002 1135 905
f 1147 1135 701
f 949 1136 814
f 1081 1136 950
f 1149 1137 1011
f 1138 1137 781
f 782 1138 781
f 1140 415 413
f 464 1139 413
f 1066 1139 465
f 415 1140 1138
f 413 1139 1140
f 637 1141 635
f 1142 632 639
f 1115 1148 639
f 1078 1141 1142
f 1148 1142 639
f 1046 1143 1148
f 773 1144 642
f 1145 1144 685
f 1042 1145 685
f 1046 1145 993
f 802 1146 730
f 1118 1146 552
f 1098 1147 1053
f 1147 1006 1135
f 1046 1148 1114
f 1142 1148 1143
f 784 1149 785
f 1137 1149 781
