v 0.995031 0.880998 -0.238795
v 0.981469 0.89262 -0.26655
v 0.96069 0.905201 -0.288527
v 0.934175 0.917267 -0.303071
v 0.903353 0.926793 -0.308828
v 0.871451 0.933086 -0.304812
v 0.840553 0.935878 -0.291268
v 0.817257 0.938357 -0.268705
v 0.802254 0.941584 -0.241706
v 0.791481 0.94333 -0.212208
v 0.7835 0.94436 -0.18277
v 0.77673 0.945141 -0.152999
v 0.771712 0.945178 -0.123143
v 0.76769 0.945319 -0.0929744
v 0.766957 0.944818 -0.0617362
v 0.773455 0.94132 -0.0296286
v 0.790977 0.94057 -0.00237471
v 0.814705 0.93791 0.0191884
v 0.846158 0.930515 0.0328096
v 0.87769 0.918892 0.0340684
v 0.905404 0.905356 0.0253834
v 0.930376 0.892781 0.00924046
v 0.951131 0.881189 -0.0115854
v 0.970454 0.874726 -0.0339852
v 0.988864 0.869654 -0.0586799
v 1.00305 0.866136 -0.0867352
v 1.0117 0.865245 -0.118062
v 1.0141 0.866114 -0.149413
v 1.01079 0.869067 -0.180963
v 1.00416 0.87338 -0.210432
v 1.03874 0.48163 -0.420917
v 1.0075 0.482999 -0.422017
v 0.976332 0.485735 -0.420593
v 0.945684 0.492534 -0.41917
v 0.935574 0.495167 -0.389553
v 0.953837 0.494157 -0.364033
v 0.95838 0.49945 -0.333382
v 0.959096 0.5067 -0.302824
v 0.938878 0.51263 -0.279515
v 0.926473 0.527399 -0.254757
v 0.901027 0.515984 -0.269275
v 0.872104 0.514185 -0.281494
v 0.859217 0.512238 -0.310069
v 0.842963 0.511252 -0.336943
v 0.843797 0.51296 -0.368483
v 0.844216 0.517178 -0.399744
v 0.84392 0.523799 -0.430617
v 0.863576 0.532087 -0.453733
v 0.832239 0.531491 -0.452139
v 0.812215 0.529745 -0.42801
v 0.781281 0.53167 -0.423083
v 0.753559 0.540794 -0.434743
v 0.746821 0.534691 -0.404725
v 0.717684 0.544491 -0.411077
v 0.700155 0.542082 -0.385133
v 0.716029 0.531598 -0.360115
v 0.74062 0.522198 -0.342994
v 0.7671 0.514591 -0.327919
v 0.797734 0.507776 -0.329406
v 0.828717 0.502851 -0.328379
v 0.846088 0.501266 -0.302238
v 0.824068 0.495362 -0.280663
v 0.794827 0.489713 -0.270704
v 0.76455 0.484465 -0.277302
v 0.733973 0.48107 -0.28373
v 0.702554 0.480866 -0.282682
v 0.671391 0.483911 -0.285389
v 0.65856 0.48649 -0.256859
v 0.686762 0.474231 -0.250344
v 0.707167 0.469463 -0.226905
v 0.727114 0.466466 -0.202803
v 0.739764 0.465654 -0.17407
v 0.743139 0.466932 -0.142868
v 0.741599 0.47007 -0.111612
v 0.738398 0.474988 -0.0806757
v 0.723918 0.48111 -0.0534802
v 0.695868 0.486673 -0.0665586
v 0.667687 0.494012 -0.0785576
v 0.64419 0.504196 -0.0603772
v 0.624368 0.520314 -0.0420176
v 0.611043 0.547389 -0.0331259
v 0.622189 0.539985 -0.00471362
v 0.646693 0.521329 0.00164337
v 0.676034 0.513546 -0.00646082
v 0.702017 0.511593 -0.0240226
v 0.728858 0.512494 -0.0403469
v 0.7578 0.515882 -0.0521109
v 0.776977 0.518621 -0.0274062
v 0.747777 0.51593 -0.0161394
v 0.752653 0.515356 0.0148804
v 0.726459 0.513599 0.0321133
v 0.714844 0.51451 0.0612709
v 0.73282 0.514753 0.0870317
v 0.752523 0.518061 0.111258
v 0.774364 0.523463 0.133216
v 0.79358 0.530933 0.156972
v 0.797884 0.541203 0.186328
v 0.792961 0.552955 0.215044
v 0.824175 0.556197 0.216171
v 0.830196 0.544695 0.187586
v 0.833294 0.536207 0.15753
v 0.811393 0.528787 0.136254
v 0.788155 0.524401 0.115582
v 0.782051 0.522259 0.0848073
v 0.773431 0.523658 0.0546013
v 0.788454 0.524118 0.0270441
v 0.818445 0.515003 0.0293367
v 0.848937 0.508103 0.0331319
v 0.864477 0.497251 0.0581718
v 0.862909 0.490208 0.0887813
v 0.868259 0.486988 0.119646
v 0.871314 0.485766 0.150906
v 0.879784 0.486372 0.181147
v 0.909431 0.486368 0.191447
v 0.929332 0.477623 0.168705
v 0.938034 0.46878 0.139859
v 0.918594 0.457731 0.117678
v 0.898722 0.449542 0.0946699
v 0.88267 0.443277 0.068403
v 0.876209 0.439141 0.0379412
v 0.900367 0.431211 0.0195171
v 0.929739 0.421506 0.0249596
v 0.958365 0.413341 0.0350245
v 0.989258 0.407796 0.0358781
v 1.01981 0.404583 0.0292586
v 1.04956 0.403358 0.0189661
v 1.08039 0.404664 0.0129693
v 1.11087 0.407805 0.00590103
v 1.11847 0.404612 -0.0243543
v 1.10908 0.400899 -0.0541526
v 1.10201 0.399151 -0.0847299
v 1.11326 0.40186 -0.113923
v 1.10357 0.402158 -0.143788
v 1.07415 0.396809 -0.153385
v 1.04326 0.396558 -0.159007
v 1.01801 0.397321 -0.140339
v 0.987695 0.399381 -0.132469
v 0.959313 0.403255 -0.145336
v 0.95754 0.401743 -0.176669
v 0.968932 0.402458 -0.205928
v 0.987053 0.404836 -0.231488
v 1.00585 0.408974 -0.256329
v 1.03644 0.414985 -0.260181
v 1.05461 0.421509 -0.284978
v 1.06784 0.430023 -0.312208
v 1.07616 0.44113 -0.340468
v 1.08366 0.453741 -0.368332
v 1.08844 0.467834 -0.396056
v 1.09174 0.483361 -0.423183
v 1.06436 0.490453 -0.436763
v 0.813802 0.901216 0.0590735
v 0.909614 0.851775 0.0377776
v 0.742546 0.898688 -0.0449597
v 0.75622 0.897567 -0.172083
v 1.00994 0.817675 -0.0593759
v 0.997797 0.816899 -0.165967
v 0.807118 0.897817 -0.303999
v 0.95291 0.864278 -0.308172
v 0.849401 0.884306 0.0485448
v 0.791452 0.899708 0.0199242
v 0.887392 0.881098 0.0564228
v 0.944998 0.854265 0.0171716
v 0.738148 0.915674 -0.0792193
v 0.754254 0.91754 -0.141239
v 0.768687 0.915808 -0.201535
v 0.983892 0.836316 -0.034777
v 1.01562 0.828316 -0.0987773
v 0.994678 0.826758 -0.236213
v 0.838503 0.904768 -0.323474
v 0.790917 0.905239 -0.264373
v 0.973974 0.864517 -0.299995
v 0.914709 0.883325 -0.321145
v 0.76362 0.909711 -0.00592258
v 0.756528 0.920774 -0.109961
v 0.777436 0.920075 -0.232645
v 0.964274 0.850467 -0.0109266
v 1.02238 0.832669 -0.135278
v 0.991638 0.853386 -0.26553
v 1.00522 0.835642 -0.200074
v 0.877997 0.898993 -0.32886
v 0.816335 0.600477 0.181405
v 0.852117 0.546837 0.0851763
v 0.931287 0.525222 0.135788
v 0.647816 0.556268 -0.05861
v 0.71132 0.567415 -0.0357436
v 0.744886 0.52184 -0.16121
v 0.95545 0.47078 0.0410625
v 1.10884 0.457929 -0.0443346
v 1.00401 0.453172 -0.146297
v 0.716395 0.59662 -0.389093
v 0.841056 0.556985 -0.312297
v 0.946423 0.5476 -0.411026
v 0.918929 0.562319 -0.298783
v 0.715606 0.569046 0.0437279
v 0.719602 0.858316 -0.129597
v 1.03812 0.472359 -0.263625
v 0.739186 0.868651 -0.23055
v 0.969514 0.79081 0.0066302
v 0.864091 0.571195 -0.404661
v 0.780888 0.580877 0.130862
v 0.796397 0.597644 0.179981
v 0.8186 0.572176 0.191324
v 0.832646 0.565156 0.165694
v 0.804857 0.594098 0.211376
v 0.804549 0.574894 0.0928048
v 0.843036 0.555949 0.0392575
v 0.856825 0.517865 0.0786399
v 0.867168 0.514021 0.106596
v 0.866031 0.540021 0.0563387
v 0.900573 0.539271 0.179831
v 0.936024 0.49784 0.147463
v 0.917859 0.486485 0.126423
v 0.911556 0.515533 0.160044
v 0.652731 0.5293 -0.0462073
v 0.63751 0.538543 -0.0220363
v 0.673039 0.533873 -0.0805639
v 0.674138 0.568834 0.00733736
v 0.712921 0.537398 -0.0349202
v 0.738939 0.539173 -0.0498617
v 0.694094 0.552055 -0.01251
v 0.662533 0.537957 -0.266576
v 0.723813 0.522349 -0.213612
v 0.743536 0.491816 -0.159763
v 0.743496 0.493968 -0.129772
v 0.737029 0.505824 -0.188637
v 0.883253 0.495712 0.0449093
v 0.924933 0.457947 0.0251312
v 0.949043 0.441906 0.0356596
v 0.97817 0.435526 0.0394767
v 1.06113 0.459046 0.00822152
v 1.11326 0.439253 -0.0130443
v 1.1118 0.42814 -0.0417612
v 1.10243 0.425452 -0.070201
v 1.07642 0.452517 -0.137971
v 1.03247 0.430076 -0.148532
v 1.00317 0.423445 -0.141727
v 0.97444 0.426339 -0.133387
v 0.799555 0.585886 -0.421308
v 0.745703 0.589309 -0.413842
v 0.707641 0.568848 -0.396629
v 0.721594 0.558606 -0.372079
v 0.738557 0.572714 -0.386542
v 0.794075 0.564533 -0.332563
v 0.841891 0.527236 -0.31676
v 0.830514 0.523458 -0.289216
v 0.819828 0.544406 -0.333778
v 1.08137 0.53772 -0.408898
v 0.997049 0.538677 -0.416487
v 0.937483 0.519084 -0.407651
v 0.954456 0.517595 -0.382875
v 0.969501 0.525126 -0.405001
v 0.936749 0.55804 -0.312639
v 0.917782 0.537683 -0.281612
v 0.887775 0.539817 -0.281913
v 0.945551 0.555088 -0.281301
v 0.734895 0.567183 0.00170735
v 0.71526 0.538954 0.0437659
v 0.728122 0.539693 0.0709172
v 0.74144 0.553677 0.0307787
v 0.736969 0.885681 -0.10568
v 0.736039 0.886588 -0.144913
v 0.979016 0.459016 -0.212813
v 1.01441 0.444371 -0.261263
v 1.04472 0.443161 -0.266608
v 1.05995 0.450354 -0.291497
v 0.756523 0.883138 -0.203751
v 0.972282 0.819176 -0.00934003
v 0.850259 0.565189 -0.351744
v 0.854788 0.543198 -0.410512
v 0.848084 0.552631 -0.438295
v 0.860857 0.550806 -0.379289
v 0.782723 0.551871 0.138377
v 0.797956 0.560099 0.162941
v 0.757059 0.557871 0.107982
v 0.793719 0.570197 0.190935
v 0.801445 0.624739 0.198673
v 0.794767 0.559424 0.124614
v 0.795193 0.546589 0.0965906
v 0.781954 0.548225 0.0696518
v 0.835414 0.529018 0.0492102
v 0.80446 0.553693 0.0481135
v 0.858759 0.571641 0.0639764
v 0.873802 0.518907 0.165889
v 0.893974 0.511492 0.188039
v 0.909158 0.546609 0.148561
v 0.716717 0.531766 -0.0543229
v 0.654289 0.551274 -0.0176476
v 0.669645 0.539508 0.00638622
v 0.693611 0.585313 -0.0139853
v 0.658856 0.509622 -0.276082
v 0.683852 0.502117 -0.261232
v 0.697686 0.519654 -0.273196
v 0.720732 0.492855 -0.21471
v 0.703993 0.510358 -0.236762
v 0.73872 0.539122 -0.189027
v 0.884548 0.478824 0.0775166
v 0.87773 0.466597 0.0500813
v 0.894221 0.459961 0.0258549
v 0.911615 0.490338 0.0252539
v 1.03553 0.437056 0.0226166
v 1.06307 0.42917 0.0113752
v 1.09289 0.431693 0.00878932
v 1.09462 0.465614 0.000394681
v 1.10728 0.435212 -0.128159
v 1.08225 0.423229 -0.141538
v 1.05939 0.421862 -0.161013
v 1.05157 0.455957 -0.162303
v 0.799094 0.555778 -0.420584
v 0.769493 0.558489 -0.41639
v 0.831242 0.569874 -0.440084
v 0.739548 0.560474 -0.417525
v 0.748412 0.604473 -0.384361
v 0.760569 0.550304 -0.331172
v 0.78771 0.535593 -0.331543
v 0.771987 0.541668 -0.281859
v 0.824783 0.577395 -0.332996
v 1.08137 0.511602 -0.423839
v 1.05325 0.507038 -0.414265
v 1.08252 0.505789 -0.384093
v 0.994209 0.509458 -0.420914
v 1.02466 0.521644 -0.421172
v 0.975841 0.55714 -0.398816
v 0.961708 0.534931 -0.325722
v 0.941112 0.530275 -0.303214
v 0.942508 0.58555 -0.294723
v 0.762565 0.549144 -0.013692
v 0.738352 0.537712 0.00164692
v 0.739101 0.58683 0.0282579
v 0.961036 0.43526 -0.191341
v 0.978712 0.4291 -0.215822
v 0.994148 0.432309 -0.24142
v 0.996034 0.467239 -0.242229
v 0.756063 0.896129 -0.230974
v 0.771103 0.866794 -0.258581
v 0.731544 0.82727 -0.185559
v 0.956185 0.820079 0.0229713
v 0.996444 0.786797 -0.0291932
v 0.846895 0.54436 -0.322025
v 0.852086 0.535564 -0.351101
v 0.867629 0.582868 -0.37386
v 0.823124 0.65159 0.147958
v 0.794225 0.642785 0.140931
v 0.821644 0.557286 0.138538
v 0.815432 0.606354 0.125075
v 0.838628 0.616461 0.0301521
v 0.873422 0.580082 0.139703
v 0.873062 0.512281 0.136292
v 0.87697 0.545831 0.144279
v 0.900444 0.571884 0.112483
v 0.734353 0.508107 -0.072089
v 0.629612 0.606031 -0.0223343
v 0.628353 0.566996 -0.0171274
v 0.656796 0.584797 -0.0260834
v 0.705214 0.566744 -0.243929
v 0.744124 0.581013 -0.145032
v 0.90477 0.478773 0.100134
v 0.887129 0.526477 0.0934233
v 1.0141 0.499737 0.0323193
v 1.00782 0.432133 0.0339379
v 1.01766 0.465283 0.0316125
v 1.09857 0.493109 -0.0999886
v 1.09968 0.425428 -0.100438
v 1.09496 0.459224 -0.106474
v 0.772245 0.643884 -0.422357
v 0.752012 0.616539 -0.338377
v 0.733716 0.551668 -0.345176
v 0.747661 0.582144 -0.336215
v 0.776066 0.512237 -0.277294
v 0.74766 0.507748 -0.286028
v 0.802413 0.531793 -0.27418
v 0.820149 0.609802 -0.289134
v 1.06123 0.4899 -0.340359
v 1.03608 0.570446 -0.399414
v 0.971324 0.585832 -0.361191
v 0.958168 0.522447 -0.353155
v 0.954703 0.556902 -0.351606
v 0.76111 0.609447 -0.0432795
v 0.768172 0.5432 -0.0428827
v 0.768285 0.576741 -0.0339487
v 0.965716 0.494632 -0.160462
v 0.967897 0.426816 -0.163017
v 0.963772 0.460838 -0.168107
v 0.738082 0.853161 -0.160389
v 0.744887 0.851997 -0.203146
v 0.872255 0.603143 -0.3057
v 0.86073 0.538892 -0.29562
v 0.856103 0.57237 -0.303727
v 0.815701 0.630533 0.170772
v 0.802262 0.626204 0.166941
v 0.714457 0.626923 0.0632973
v 0.794328 0.587708 0.117046
v 0.816667 0.627158 0.0893819
v 0.794814 0.615286 0.1057
v 0.796731 0.662224 0.114857
v 0.812408 0.636323 0.119333
v 0.849047 0.587292 0.0379462
v 0.850009 0.588099 0.102493
v 0.89573 0.581266 0.170322
v 0.863019 0.558163 0.115571
v 0.924544 0.553158 0.121623
v 0.934612 0.764059 0.0520835
v 0.738869 0.497983 -0.100165
v 0.735875 0.550555 -0.103197
v 0.739652 0.523383 -0.118891
v 0.663544 0.610655 0.0037985
v 0.62728 0.578017 -0.0419323
v 0.710406 0.539206 -0.234061
v 0.726755 0.565931 -0.212904
v 0.690453 0.543499 -0.256418
v 0.670405 0.581457 -0.266552
v 0.744931 0.553744 -0.161465
v 0.882338 0.507431 0.0716914
v 0.89535 0.546308 0.0382793
v 0.892782 0.534588 0.0654311
v 0.884653 0.581629 0.0688343
v 0.885732 0.55618 0.0858675
v 1.06526 0.522799 0.000779127
v 1.03975 0.485365 0.0144426
v 0.988344 0.479445 0.0414855
v 1.05799 0.513916 -0.13482
v 1.0929 0.482214 -0.13205
v 1.10417 0.470167 -0.0756067
v 0.753733 0.620152 -0.411579
v 0.843963 0.629129 -0.40556
v 0.721755 0.634449 -0.365866
v 0.794086 0.607461 -0.336802
v 0.728166 0.600888 -0.357255
v 0.836535 0.58782 -0.305333
v 0.799373 0.574092 -0.278463
v 1.02373 0.551241 -0.418137
v 1.00222 0.581889 -0.410255
v 1.05343 0.549041 -0.411805
v 1.07375 0.568407 -0.377758
v 0.945829 0.590315 -0.397625
v 0.936979 0.593805 -0.336642
v 0.962398 0.562224 -0.384476
v 0.716526 0.611406 -0.0420673
v 0.735766 0.609162 -0.00846056
v 0.738222 0.584445 -0.0483425
v 0.984719 0.523189 -0.212322
v 0.966007 0.484216 -0.193245
v 0.976248 0.471131 -0.138173
v 0.747069 0.871809 -0.179699
v 0.725499 0.811106 -0.140618
v 0.717394 0.809546 -0.236908
v 0.911102 0.598607 -0.323531
v 0.850842 0.607606 -0.342797
v 0.889329 0.574019 -0.311469
v 0.828199 0.607762 0.153479
v 0.793839 0.66992 0.177435
v 0.785132 0.611061 0.143291
v 0.715834 0.600942 0.0448029
v 0.810272 0.589323 0.0325856
v 0.856878 0.616074 0.0697877
v 0.905689 0.528448 0.118381
v 0.925984 0.592446 0.141072
v 0.954432 0.788418 0.0374136
v 0.73498 0.537339 -0.0768146
v 0.733132 0.589774 -0.0654376
v 0.726026 0.560596 -0.0590244
v 0.693929 0.553847 -0.0641763
v 0.743738 0.549858 -0.13193
v 0.742451 0.58581 -0.183484
v 0.898345 0.517251 0.0297752
v 0.947005 0.520724 0.0435542
v 1.07231 0.490248 0.00366078
v 1.05969 0.481223 -0.141879
v 1.09526 0.52541 -0.0471747
v 0.781224 0.612533 -0.427907
v 0.852161 0.599614 -0.396271
v 0.758476 0.651741 -0.381887
v 0.832701 0.625083 -0.327997
v 0.986595 0.490733 -0.22034
v 1.01231 0.5211 -0.149436
v 0.729132 0.837168 -0.141813
v 0.706703 0.828067 -0.117593
v 0.737143 0.824395 -0.216797
v 0.755177 0.633918 0.100997
v 0.728651 0.583442 0.084185
v 0.735412 0.635229 0.026245
v 0.917167 0.809547 0.0369227
v 0.973192 0.729241 0.0236316
v 0.672143 0.611337 -0.061595
v 0.965826 0.498189 0.0431376
v 0.989841 0.537811 0.0432299
v 1.09606 0.511151 -0.0140016
v 1.10416 0.491939 -0.0487769
v 0.828408 0.644057 -0.431475
v 0.858026 0.596226 -0.440708
v 0.87242 0.630093 -0.372865
v 1.00976 0.511573 -0.257878
v 1.03959 0.502078 -0.163561
v 1.00422 0.487534 -0.149932
v 0.72252 0.852562 -0.0915728
v 0.734153 0.770562 -0.196563
v 0.772707 0.630391 0.124611
v 0.784024 0.676419 0.104224
v 0.763641 0.600952 0.108152
v 0.966312 0.76166 0.0223435
v 0.648714 0.588624 -0.0642337
v 0.704346 0.764664 -0.107245
v 1.08734 0.549224 -0.0174153
v 1.09258 0.508059 -0.0730924
v 1.10709 0.477989 -0.0230771
v 0.800278 0.635425 -0.427391
v 0.800563 0.687098 -0.424947
v 0.823371 0.609527 -0.43061
v 0.994338 0.512188 -0.23538
v 1.00041 0.561966 -0.240323
v 1.0444 0.540695 -0.159657
v 0.984414 0.509982 -0.140544
v 1.02714 0.469674 -0.153699
v 0.73585 0.800475 -0.198649
v 0.73678 0.78785 -0.165256
v 0.744149 0.609618 0.0862442
v 0.993216 0.749521 -0.00802197
v 0.638027 0.622432 -0.0540534
v 0.679358 0.581673 -0.073644
v 0.704212 0.794611 -0.121968
v 1.09063 0.541111 -0.110131
v 0.845402 0.623473 -0.446351
v 0.964506 0.543176 -0.171652
v 0.721881 0.72386 -0.158341
v 0.644924 0.65204 -0.0164682
v 0.703533 0.604023 -0.0695129
v 0.714577 0.764271 -0.144169
v 0.692723 0.80324 -0.0746275
v 1.08268 0.542026 -0.0757794
v 1.0904 0.512413 -0.123249
v 0.986856 0.545204 -0.144456
v 0.965922 0.514518 -0.184738
v 0.633937 0.631431 -0.0293496
v 0.642333 0.658438 -0.0516648
v 0.729558 0.649142 -0.0806526
v 0.715501 0.807418 -0.0956298
v 1.08049 0.603455 -0.0974975
v 0.972426 0.606355 -0.157476
v 0.653817 0.717474 -0.0227905
v 0.729597 0.621522 -0.0646701
v 0.710052 0.829607 -0.0736937
v 1.08896 0.570581 -0.0930007
v 0.969736 0.572465 -0.155064
v 0.644829 0.684384 -0.0288713
v 0.697088 0.639289 -0.0579549
v 0.729424 0.612499 -0.11179
v 0.691304 0.830754 -0.0344282
v 1.05571 0.567141 -0.124001
v 1.07691 0.591147 -0.0488525
v 0.980716 0.576513 -0.20033
v 1.01975 0.584767 -0.167967
v 0.693609 0.675502 -0.0255203
v 0.687882 0.701437 -0.0516329
v 0.698471 0.871479 -0.0575143
v 0.682165 0.828977 -0.0624654
v 0.660731 0.784311 -0.0370051
v 0.669555 0.812402 -0.0415002
v 0.71277 0.782582 -0.0453628
v 1.07607 0.568854 -0.067234
v 0.997948 0.56803 -0.158631
v 0.670022 0.691931 -0.00934538
v 0.659593 0.685967 -0.0580029
v 0.701272 0.725242 -0.0412957
v 0.686571 0.669225 -0.0520434
v 0.68388 0.718225 -0.0171608
v 0.681378 0.754084 -0.0280116
v 0.719387 0.68402 -0.0664225
v 0.905583 0.879527 0.0358095
v 0.870428 0.900366 0.050069
v 0.748046 0.924618 -0.0550883
v 0.997973 0.843275 -0.0577093
v 0.806432 0.917769 -0.283297
v 0.830331 0.910706 -0.296453
v 1.02043 0.763106 -0.124716
v 1.00726 0.841181 -0.156956
v 0.990784 0.783995 -0.290895
v 0.995032 0.784208 -0.206128
v 0.797361 0.58708 0.153472
v 0.771375 0.585477 -0.425644
v 0.775559 0.891016 -0.247879
v 0.784171 0.879577 -0.287467
v 0.797256 0.841862 -0.33534
v 0.792951 0.870738 -0.318303
v 0.828538 0.8704 -0.315513
v 0.780073 0.824486 -0.299167
v 0.844509 0.853016 -0.358029
v 0.783526 0.84918 -0.28056
v 0.746018 0.826435 -0.267969
v 0.803535 0.844105 -0.305658
v 0.81547 0.794356 -0.322679
v 0.807041 0.815314 -0.304461
v 0.779355 0.773492 -0.292197
v 0.832275 0.880499 -0.345514
v 0.862353 0.875475 -0.344337
v 0.885931 0.866218 -0.322758
v 0.865755 0.843363 -0.335546
v 0.810807 0.835509 -0.348979
v 0.923708 0.833455 -0.338617
v 0.841484 0.792142 -0.359351
v 0.894944 0.833609 -0.322952
v 0.910418 0.85752 -0.332006
v 0.846567 0.822282 -0.349757
v 0.910247 0.774759 -0.323328
v 0.878691 0.812515 -0.344638
v 0.824564 0.820359 -0.385244
v 0.913613 0.80712 -0.322739
v 0.939286 0.783061 -0.311855
v 0.930938 0.789332 -0.340663
v 0.933253 0.733535 -0.337475
v 0.925196 0.760809 -0.344379
v 0.890356 0.726499 -0.323375
v 0.994763 0.812075 -0.0386496
v 0.728944 0.547833 -0.287483
v 1.04916 0.494094 -0.297313
v 0.880808 0.557087 0.170006
v 0.651528 0.585 0.00175041
v 0.693054 0.554808 -0.272615
v 0.720082 0.603256 -0.282427
v 0.69799 0.583903 -0.277402
v 0.680741 0.628277 -0.271492
v 0.77574 0.585848 -0.336165
v 0.817725 0.552598 -0.291925
v 1.06259 0.53463 -0.379363
v 1.04502 0.567979 -0.328868
v 1.06656 0.512556 -0.359406
v 1.04655 0.539384 -0.348866
v 1.04542 0.569848 -0.361447
v 1.04869 0.532837 -0.308826
v 1.05466 0.625086 -0.373706
v 1.06281 0.595558 -0.365636
v 1.04711 0.600275 -0.393227
v 1.02679 0.61149 -0.337795
v 1.00534 0.637874 -0.384198
v 1.0322 0.627439 -0.394516
v 1.00603 0.611364 -0.400205
v 1.03877 0.679485 -0.372701
v 0.978308 0.595134 -0.390725
v 1.0453 0.651955 -0.38322
v 1.02704 0.650371 -0.347805
v 0.953546 0.639483 -0.39153
v 0.960361 0.613977 -0.400859
v 0.951431 0.607169 -0.372014
v 0.967133 0.61616 -0.339204
v 0.95468 0.57322 -0.328476
v 0.691604 0.621973 -0.0171081
v 0.708782 0.645562 -0.0369556
v 0.671229 0.641305 -0.00181034
v 0.749181 0.689503 -0.035822
v 0.688741 0.649875 -0.0199195
v 0.724776 0.671201 -0.0277625
v 0.746258 0.645149 -0.0467903
v 0.719813 0.69993 -0.0393581
v 0.748562 0.741662 -0.0128337
v 0.726558 0.72548 -0.0252484
v 0.729264 0.756697 -0.0343019
v 0.723577 0.791244 0.00861318
v 0.703275 0.755637 -0.0459336
v 0.73554 0.78671 -0.0217647
v 0.740157 0.767351 0.000526235
v 0.717557 0.727088 0.0263639
v 0.72193 0.763203 0.0317023
v 0.742629 0.837177 -0.0184169
v 0.773359 0.739935 0.0586867
v 0.726105 0.815179 -0.0405498
v 0.748411 0.74097 0.0346899
v 0.773079 0.806801 0.03306
v 0.725076 0.814326 -0.0103689
v 0.737359 0.825717 0.0273442
v 0.747231 0.683039 0.0555887
v 0.754707 0.776227 0.03139
v 0.756498 0.713646 0.0500517
v 0.782556 0.778004 0.0580527
v 0.772922 0.696419 0.0766494
v 0.783824 0.739446 0.123571
v 0.785381 0.71066 0.105149
v 0.784714 0.692293 0.14296
v 0.784565 0.740682 0.0901035
v 0.794529 0.78501 0.102914
v 0.782515 0.761222 0.107285
v 0.816533 0.763 0.130003
v 0.746686 0.584526 -0.0173516
v 0.938539 0.619062 -0.31003
v 0.898825 0.660766 -0.341832
v 0.916623 0.631207 -0.334938
v 0.885775 0.640589 -0.306563
v 0.949143 0.659588 -0.347063
v 0.94013 0.643798 -0.324829
v 0.849522 0.582572 -0.329353
v 0.803779 0.626492 0.0499546
v 0.787037 0.584221 0.0612645
v 0.84722 0.592162 0.0763794
v 0.867956 0.660431 0.131903
v 0.912819 0.57249 0.152341
v 0.912151 0.626748 0.0953171
v 0.746293 0.629165 -0.374625
v 0.765225 0.693526 -0.345316
v 0.820075 0.603228 -0.336015
v 0.725052 0.564791 0.0670735
v 0.734161 0.55673 0.0921212
v 0.740393 0.610858 0.0173914
v 0.928876 0.83348 0.0275873
v 0.885883 0.815768 0.0918581
v 0.860542 0.573259 -0.429793
v 0.85338 0.57309 -0.456597
v 0.868513 0.606427 -0.362299
v 0.750604 0.580957 0.0979177
v 1.03496 0.586013 0.0145691
v 0.769696 0.677732 -0.406342
v 0.833555 0.594221 -0.449017
v 0.984869 0.774987 -0.00820221
v 0.666274 0.559122 -0.0770801
v 0.736842 0.753099 -0.16745
v 0.722761 0.709775 -0.208236
v 0.739726 0.725985 -0.185513
v 0.726256 0.742262 -0.210533
v 0.739999 0.66795 -0.17122
v 0.71166 0.773143 -0.226493
v 0.736886 0.699025 -0.170066
v 0.716411 0.680318 -0.123925
v 0.724299 0.681393 -0.151355
v 0.726865 0.640486 -0.142687
v 0.697462 0.726979 -0.252861
v 0.709121 0.726735 -0.22695
v 0.701504 0.68126 -0.238957
v 0.666749 0.64084 -0.056238
v 1.05314 0.541198 -0.133411
v 0.717055 0.897784 -0.0630393
v 1.08785 0.553402 -0.0458545
v 1.01835 0.549281 -0.151011
v 0.716006 0.658218 -0.0594792
v 0.718569 0.731622 -0.0741236
v 1.02551 0.794839 -0.148201
v 1.02882 0.785573 -0.086472
v 0.982581 0.824471 -0.293158
v 0.994993 0.811969 -0.212093
v 1.01018 0.791536 -0.240969
v 0.747922 0.850899 -0.251736
v 0.726558 0.837296 -0.239376
v 0.802281 0.687432 -0.291464
v 0.844171 0.705457 -0.379015
v 0.82248 0.84409 -0.371157
v 0.818487 0.753659 -0.409362
v 0.798649 0.761059 -0.359796
v 0.749237 0.53284 -0.288146
v 0.726085 0.522308 -0.280128
v 0.753004 0.559293 -0.288368
v 0.729747 0.576938 -0.291264
v 0.767412 0.612097 -0.292657
v 1.05514 0.473938 -0.282676
v 1.05572 0.47041 -0.310197
v 1.0482 0.497525 -0.269724
v 1.06566 0.464553 -0.334054
v 0.697757 0.601683 -0.252681
v 0.701609 0.640014 -0.238246
v 1.04765 0.507704 -0.322506
v 1.04544 0.57834 -0.271412
v 1.03964 0.628164 -0.35293
v 1.00661 0.713529 -0.314978
v 0.755759 0.630682 -0.020337
v 0.701695 0.699725 -0.0209155
v 0.776246 0.853462 0.0224726
v 0.71361 0.663305 0.0455207
v 0.735428 0.797237 0.0333421
v 0.791792 0.668549 0.130003
v 0.81954 0.700848 0.146093
v 0.785337 0.822812 0.0742989
v 0.800635 0.805872 0.0715378
v 0.896458 0.615455 -0.307769
v 0.862447 0.627471 -0.322122
v 0.871041 0.677761 -0.345968
v 0.871633 0.654675 -0.327951
v 0.858043 0.639059 -0.348788
v 0.890438 0.684388 -0.313579
v 0.939816 0.621241 -0.341088
v 0.808949 0.680793 0.0596202
v 0.77859 0.562629 0.0465135
v 0.797763 0.609363 0.0740344
v 0.85187 0.629414 0.10901
v 0.880955 0.623155 0.156047
v 0.914716 0.600212 0.112516
v 0.901018 0.600365 0.085797
v 0.905505 0.629048 0.0490751
v 0.890292 0.626174 0.0746958
v 0.89472 0.6804 0.0671383
v 0.893406 0.651906 0.0619248
v 0.94203 0.667099 0.048162
v 0.907985 0.6605 0.0914959
v 0.923979 0.635148 0.135565
v 0.924896 0.717348 0.104967
v 0.91921 0.690847 0.086302
v 0.905686 0.727529 0.0569176
v 0.917605 0.67895 0.131121
v 0.733775 0.673417 -0.356344
v 0.783482 0.650583 -0.34592
v 0.912118 0.829141 0.0685159
v 0.86011 0.852004 0.0795218
v 1.05624 0.558947 0.000473484
v 1.02291 0.676349 -0.00559115
v 0.735493 0.769233 -0.269941
v 0.725941 0.676004 -0.095183
v 0.715049 0.709874 -0.102809
v 0.722083 0.651174 -0.113757
v 0.723711 0.706504 -0.0786936
v 0.710122 0.737714 -0.100285
v 0.711305 0.72614 -0.129169
v 0.743026 0.627107 -0.178595
v 0.734345 0.61035 -0.142263
v 0.725278 0.878824 -0.0813822
v 0.994594 0.73272 -0.158204
v 0.991564 0.774122 -0.164299
v 1.01751 0.795562 -0.115981
v 1.02068 0.809923 -0.0812214
v 1.02174 0.791192 -0.0598258
v 1.04098 0.741509 -0.0600184
v 0.991662 0.796504 -0.351808
v 1.00091 0.808665 -0.269289
v 0.822179 0.650955 -0.296963
v 0.848006 0.663264 -0.381376
v 0.832356 0.784885 -0.394154
v 0.851584 0.748619 -0.372521
v 0.792746 0.780563 -0.394005
v 0.840784 0.758928 -0.39503
v 0.850287 0.729773 -0.396513
v 0.844678 0.693549 -0.422224
v 0.78011 0.724937 -0.402511
v 0.793127 0.600361 -0.288108
v 0.771677 0.581152 -0.283972
v 0.793354 0.633509 -0.294682
v 0.742401 0.669213 -0.294305
v 0.762805 0.644053 -0.292826
v 0.739184 0.624323 -0.294352
v 0.713421 0.635876 -0.275708
v 0.773669 0.673849 -0.292752
v 0.69002 0.665183 -0.270992
v 0.750217 0.722981 -0.294378
v 0.75492 0.694836 -0.296872
v 0.722606 0.697707 -0.270015
v 0.781277 0.712971 -0.288272
v 0.773044 0.743198 -0.287807
v 0.826657 0.733294 -0.322625
v 0.745475 0.751746 -0.290913
v 0.728551 0.731399 -0.269689
v 0.751624 0.780657 -0.291033
v 0.810337 0.716755 -0.300691
v 0.801007 0.751078 -0.30712
v 0.824945 0.683704 -0.336156
v 0.798402 0.777654 -0.310513
v 0.818676 0.763411 -0.329498
v 0.782802 0.776852 -0.329293
v 0.790193 0.741061 -0.318188
v 0.721203 0.608077 -0.217671
v 0.728557 0.661041 -0.212135
v 1.0409 0.537823 -0.263921
v 1.04742 0.56247 -0.298257
v 1.0306 0.592897 -0.307491
v 1.02017 0.644136 -0.297136
v 1.02188 0.619666 -0.311279
v 1.04306 0.617586 -0.27792
v 1.02202 0.687543 -0.338866
v 0.763012 0.830053 0.023937
v 0.78598 0.832762 0.0437841
v 0.745827 0.855941 0.0214433
v 0.792979 0.869503 0.0525047
v 0.763762 0.883762 0.0163606
v 0.741011 0.878804 -0.0123173
v 0.718091 0.697752 0.0448109
v 0.745307 0.694225 0.00734151
v 0.72456 0.678822 0.022337
v 0.738701 0.660642 -0.00673299
v 0.755595 0.680096 -0.0122312
v 0.755261 0.709084 -0.0151761
v 0.75759 0.65679 -0.0247987
v 0.800412 0.695648 0.166542
v 0.796462 0.724154 0.150137
v 0.821038 0.729541 0.128447
v 0.796929 0.701639 0.114361
v 0.7969 0.749047 0.0800782
v 0.813466 0.746873 0.104939
v 0.811475 0.77902 0.0909262
v 0.819186 0.815648 0.104986
v 0.784455 0.804073 0.0563645
v 0.780527 0.792515 0.0807435
v 0.895104 0.699523 -0.342488
v 0.878587 0.700375 -0.373362
v 0.875142 0.671299 -0.374243
v 0.861431 0.72219 -0.357508
v 0.879598 0.766611 -0.358836
v 0.892252 0.727912 -0.354761
v 0.911584 0.699913 -0.345945
v 0.820663 0.650251 0.0659436
v 0.82249 0.652678 0.026767
v 0.812804 0.670072 0.0890027
v 0.806987 0.701205 0.0841347
v 0.805501 0.722579 0.0462102
v 0.810947 0.599576 0.0936034
v 0.864623 0.605287 0.123847
v 0.864449 0.632076 0.134505
v 0.877106 0.597024 0.159811
v 0.904486 0.606257 0.15818
v 0.743458 0.645356 -0.346654
v 0.761345 0.666615 -0.354299
v 0.776205 0.627042 -0.336031
v 0.804036 0.634516 -0.333215
v 0.826917 0.65363 -0.335564
v 0.900985 0.856067 0.0643349
v 0.922057 0.773258 0.0834305
v 0.864947 0.875261 0.0669212
v 0.839837 0.863334 0.0642929
v 0.819891 0.874822 0.0448657
v 0.842112 0.816874 0.0520862
v 0.814497 0.871365 0.0787164
v 0.81545 0.84017 0.0507325
v 0.79562 0.850048 0.0739629
v 0.818117 0.844065 0.0930493
v 1.07625 0.582223 -0.0155613
v 1.06027 0.636452 -0.0202024
v 1.07251 0.609881 -0.0263391
v 1.06188 0.632143 -0.0660783
v 1.04954 0.610261 -0.00278437
v 1.03266 0.642063 0.00240545
v 0.989303 0.65692 0.033582
v 1.01271 0.658871 0.0158966
v 0.996292 0.696168 0.017815
v 1.00593 0.616675 0.0269602
v 1.02891 0.617373 0.0129615
v 1.02466 0.547265 0.0237619
v 1.03529 0.517655 0.0153299
v 0.715946 0.784137 -0.253343
v 0.711005 0.7543 -0.260096
v 0.743896 0.604683 -0.165705
v 1.01723 0.721364 -0.228431
v 0.999176 0.794447 -0.181223
v 1.02418 0.760779 -0.159661
v 1.03121 0.699745 -0.140129
v 1.02164 0.732686 -0.140464
v 1.04331 0.732725 -0.102652
v 1.01986 0.713797 -0.167521
v 1.014 0.653017 -0.169074
v 0.982066 0.686233 -0.158969
v 1.02594 0.682508 -0.166169
v 1.05239 0.64657 -0.129115
v 1.03894 0.658429 -0.153241
v 1.04025 0.617596 -0.154858
v 0.999637 0.744333 -0.192688
v 1.01813 0.760958 -0.0409471
v 1.02413 0.718049 -0.0248917
v 0.985056 0.837696 -0.334182
v 0.998572 0.804689 -0.31839
v 1.00502 0.758735 -0.327376
v 1.00772 0.784696 -0.334264
v 0.994603 0.750644 -0.367605
v 0.797986 0.800125 -0.36073
v 0.82701 0.722201 -0.419078
v 0.844704 0.685155 -0.396722
v 0.846767 0.658697 -0.411024
v 0.839353 0.669478 -0.435615
v 0.781965 0.700387 -0.412165
v 0.767134 0.701093 -0.381795
v 0.763256 0.740198 -0.367887
v 0.7908 0.752226 -0.4018
v 0.720049 0.665438 -0.274229
v 0.694109 0.693884 -0.264288
v 0.822616 0.677167 -0.308556
v 0.790954 0.808095 -0.34221
v 0.810667 0.81939 -0.326851
v 0.821623 0.84418 -0.322451
v 0.807148 0.785899 -0.338877
v 0.80219 0.708922 -0.326474
v 0.738191 0.608459 -0.197143
v 0.734344 0.635273 -0.20353
v 0.720003 0.685574 -0.21991
v 0.736284 0.684048 -0.195528
v 1.04593 0.52043 -0.284582
v 1.02079 0.56142 -0.263504
v 1.01651 0.598711 -0.258934
v 1.00885 0.677912 -0.306418
v 1.02228 0.710717 -0.274693
v 1.01617 0.655793 -0.322498
v 1.00749 0.70013 -0.292906
v 1.00046 0.733561 -0.288085
v 1.02983 0.677662 -0.2798
v 1.0181 0.74285 -0.257964
v 1.01966 0.687559 -0.244983
v 0.998502 0.760282 -0.273428
v 1.01269 0.757986 -0.225012
v 0.729328 0.865515 -0.0429811
v 0.70447 0.855474 -0.0360877
v 0.734067 0.634838 -0.000519919
v 0.819279 0.788533 0.116661
v 0.797958 0.808595 0.0923414
v 0.907253 0.705137 -0.319612
v 0.907528 0.726664 -0.344172
v 0.910268 0.746557 -0.324676
v 0.945664 0.693983 -0.314546
v 0.840174 0.641279 0.0537606
v 0.847596 0.692365 0.0485992
v 0.839722 0.666584 0.0430878
v 0.858523 0.667687 0.080158
v 0.821741 0.688821 0.0338285
v 0.802691 0.724423 0.0722065
v 0.819262 0.767805 0.0494177
v 0.797429 0.777237 0.0657757
v 0.920834 0.798962 0.065555
v 0.907714 0.773698 0.0582304
v 0.905151 0.750104 0.0758843
v 0.922669 0.747596 0.100189
v 0.887581 0.771842 0.105773
v 0.891323 0.733252 0.124896
v 0.804767 0.832254 0.0734247
v 0.993957 0.72235 0.0040462
v 0.969909 0.696735 0.0490043
v 0.960691 0.618091 0.0503534
v 1.00106 0.577717 0.0337947
v 1.01125 0.526157 0.0328006
v 0.991099 0.510407 0.0425311
v 0.704869 0.750303 -0.236026
v 1.03518 0.760691 -0.100306
v 1.05095 0.687074 -0.0711471
v 1.06236 0.612216 -0.127044
v 1.06948 0.588751 -0.116628
v 1.04298 0.591071 -0.138876
v 1.00838 0.61816 -0.169193
v 0.985474 0.63957 -0.152483
v 0.988344 0.628403 -0.202449
v 0.979739 0.62584 -0.17607
v 0.978189 0.599102 -0.183931
v 0.986464 0.660662 -0.185023
v 1.00693 0.660476 -0.220536
v 0.997585 0.697861 -0.197867
v 0.986268 0.75136 -0.172918
v 1.01232 0.74175 -0.0239734
v 0.968477 0.805434 -0.32242
v 0.972277 0.860281 -0.325653
v 0.965212 0.834076 -0.312415
v 0.938943 0.815952 -0.316203
v 1.02475 0.728165 -0.349593
v 0.7558 0.677578 -0.372446
v 0.741988 0.701577 -0.361897
v 0.785148 0.736836 -0.347491
v 0.759575 0.72242 -0.344663
v 0.778464 0.760974 -0.378772
v 0.99764 0.596733 -0.226775
v 0.922197 0.67691 -0.3276
v 0.933534 0.707231 -0.333623
v 0.949698 0.72382 -0.315432
v 0.936867 0.75208 -0.312844
v 0.949095 0.706138 -0.367112
v 0.959332 0.766715 -0.347789
v 0.859194 0.639994 0.0842375
v 0.85335 0.657311 0.10559
v 0.858967 0.702183 0.114736
v 0.800978 0.748493 0.0536487
v 0.828806 0.740036 0.0500495
v 0.864443 0.768277 0.0757359
v 0.902597 0.753192 0.113898
v 0.908354 0.708122 0.128514
v 0.887126 0.685463 0.135038
v 0.898142 0.654848 0.148433
v 1.01115 0.702155 -0.00565317
v 0.950715 0.730653 0.0558075
v 0.970208 0.668132 0.0512943
v 0.983179 0.681558 0.0338455
v 0.986321 0.629726 0.0435997
v 0.984117 0.599536 0.0459856
v 0.942358 0.570901 0.0453344
v 0.973997 0.569192 0.0481351
v 0.962843 0.543479 0.047398
v 1.04563 0.716646 -0.0771359
v 1.04604 0.713446 -0.04631
v 1.05292 0.695318 -0.108527
v 1.0539 0.675284 -0.0324647
v 1.04245 0.569644 -0.158239
v 1.01977 0.639124 -0.252561
v 1.00321 0.673302 -0.199067
v 1.016 0.685352 -0.21891
v 0.999786 0.722617 -0.20829
v 0.98773 0.721134 -0.18281
v 1.03214 0.702895 -0.358979
v 0.993498 0.694601 -0.383302
v 1.01053 0.717547 -0.373629
v 0.978199 0.722309 -0.373595
v 0.953427 0.737129 -0.359591
v 1.0153 0.75363 -0.351353
v 1.01009 0.733756 -0.329802
v 0.853 0.701507 0.0811504
v 0.857087 0.736816 0.0970472
v 0.853859 0.722186 0.0573583
v 0.95838 0.754392 0.0464643
v 0.927418 0.739255 0.0484101
v 0.929125 0.716094 0.0605301
v 1.06529 0.660469 -0.0955679
v 1.07209 0.632057 -0.10578
v 1.0447 0.67549 -0.12918
v 1.0614 0.650599 -0.0446401
v 1.03495 0.692809 -0.0235451
v 1.03873 0.646828 -0.274159
v 1.02376 0.662015 -0.24041
v 1.0033 0.631451 -0.228466
v 0.872427 0.750601 0.11519
v 0.942875 0.694371 0.0511852
v 1.05624 0.659961 -0.0698008
v 0.833282 0.905109 0.0378611
v 0.804278 0.918301 0.0366866
v 0.965272 0.889391 -0.311024
v 0.93751 0.889406 -0.307774
v 0.693657 0.516727 -0.0667017
v 1.07784 0.483123 -0.364652
v 0.937149 0.493515 0.0390953
v 1.01187 0.483078 -0.260024
v 0.740457 0.581602 -0.112565
v 0.978266 0.547451 -0.197151
v 0.760281 0.663173 0.0816912
v 0.737397 0.642469 0.0772711
v 0.735837 0.659697 0.0580095
v 0.964456 0.658073 -0.353166
v 0.962789 0.632443 -0.365645
v 0.682914 0.746259 -0.0493547
v 0.653511 0.753186 -0.0412673
v 0.660406 0.723546 -0.0534026
v 0.711408 0.769428 -0.0698318
v 0.715125 0.782012 -0.0917769
v 0.687545 0.777565 -0.0509888
v 0.820241 0.67544 0.129029
v 0.926768 0.655909 0.114208
v 0.756937 0.809589 -0.28903
v 0.794119 0.680445 -0.342747
v 0.742473 0.72387 0.0102081
v 0.852903 0.767754 -0.352408
v 0.893595 0.787402 -0.343623
v 0.884907 0.841601 0.0809405
v 0.852916 0.817866 0.0842879
v 0.854624 0.794284 0.0656245
v 1.06815 0.604885 -0.0721295
v 0.797308 0.724932 0.0992884
v 0.820246 0.797121 0.0517479
v 0.905155 0.793676 0.0960284
v 0.981254 0.773406 -0.361259
v 0.929481 0.60398 0.0392461
v 0.90045 0.598348 0.0481566
v 0.927132 0.54448 0.035335
v 0.912696 0.572402 0.0351543
v 1.0123 0.668887 -0.386658
v 0.980727 0.658961 -0.390987
v 0.966193 0.681784 -0.375654
v 0.962434 0.641944 -0.331448
v 0.965958 0.67831 -0.330593
v 0.699279 0.725668 -0.0560675
v 0.862528 0.790536 0.0991767
v 0.949523 0.660598 -0.375418
v 0.935771 0.636306 0.0433304
f 104 279 278
f 185 289 220
f 103 104 278
f 327 326 89
f 277 102 103
f 88 378 87
f 393 344 391
f 403 458 460
f 107 108 280
f 215 352 353
f 220 289 217
f 209 207 182
f 281 107 280
f 350 75 76
f 219 86 87
f 203 343 449
f 95 96 272
f 224 73 74
f 272 274 95
f 75 402 74
f 577 389 451
f 186 295 225
f 181 204 202
f 85 220 84
f 275 97 98
f 225 295 222
f 752 619 410
f 202 204 99
f 273 272 96
f 407 222 408
f 291 221 290
f 202 203 181
f 890 774 889
f 288 220 217
f 399 208 348
f 119 297 296
f 183 213 211
f 115 213 114
f 183 211 212
f 284 213 210
f 267 166 176
f 213 285 210
f 122 227 121
f 183 285 213
f 212 116 117
f 120 298 297
f 120 297 119
f 208 347 348
f 118 356 117
f 296 118 119
f 182 207 208
f 214 184 216
f 452 194 697
f 568 1101 159
f 17 160 18
f 567 161 904
f 284 113 114
f 82 352 81
f 141 331 330
f 568 21 20
f 15 569 16
f 568 19 1101
f 255 253 193
f 21 567 22
f 567 162 22
f 211 213 115
f 22 162 23
f 185 439 437
f 337 611 267
f 215 80 81
f 83 288 287
f 160 17 173
f 170 9 8
f 406 215 353
f 176 24 23
f 194 259 257
f 257 259 91
f 165 10 175
f 442 493 189
f 327 89 90
f 218 185 220
f 218 219 185
f 149 150 317
f 382 442 237
f 220 85 218
f 27 177 28
f 326 88 89
f 345 396 454
f 470 340 199
f 163 174 260
f 214 79 80
f 214 216 79
f 1 178 2
f 266 165 333
f 288 83 84
f 333 334 197
f 254 387 448
f 216 1105 78
f 76 77 1105
f 76 1105 286
f 379 439 219
f 569 173 16
f 215 184 214
f 768 770 684
f 78 79 216
f 247 622 319
f 871 868 869
f 172 180 5
f 14 163 15
f 12 11 154
f 154 164 12
f 164 13 12
f 232 231 129
f 16 173 17
f 163 726 569
f 246 244 191
f 181 388 276
f 568 161 21
f 225 223 186
f 266 443 154
f 13 174 14
f 224 186 223
f 274 94 95
f 175 10 9
f 9 170 175
f 293 294 70
f 293 70 71
f 68 291 290
f 336 267 176
f 23 162 176
f 225 72 223
f 334 333 579
f 156 574 177
f 409 291 294
f 67 290 292
f 292 66 67
f 574 179 29
f 171 2 178
f 290 67 68
f 983 815 735
f 292 744 66
f 1016 810 732
f 8 571 170
f 163 14 174
f 160 151 1102
f 164 261 260
f 285 183 400
f 350 76 286
f 176 166 24
f 280 209 206
f 227 122 228
f 112 347 111
f 113 284 283
f 301 126 127
f 128 129 231
f 208 110 111
f 611 155 570
f 209 282 206
f 282 396 206
f 300 125 126
f 453 689 775
f 127 302 301
f 182 282 209
f 233 188 232
f 261 164 154
f 25 24 166
f 654 657 557
f 26 167 27
f 26 570 167
f 611 570 166
f 167 177 27
f 99 204 98
f 207 209 109
f 179 168 30
f 179 30 29
f 395 344 393
f 136 235 135
f 134 306 305
f 133 134 305
f 3 1103 4
f 205 278 279
f 174 13 164
f 304 132 133
f 103 278 277
f 337 709 516
f 181 276 204
f 102 343 101
f 236 237 189
f 140 141 330
f 272 273 577
f 264 263 143
f 257 258 697
f 276 389 201
f 142 143 263
f 201 204 276
f 812 813 732
f 203 100 101
f 139 140 329
f 264 265 748
f 46 47 269
f 149 319 148
f 198 267 336
f 368 370 63
f 148 319 1106
f 360 419 229
f 319 149 317
f 1103 171 1032
f 144 265 264
f 32 320 321
f 405 217 289
f 266 154 165
f 1 30 168
f 143 144 264
f 150 318 317
f 571 580 170
f 492 510 420
f 47 270 269
f 236 235 136
f 275 204 201
f 33 320 32
f 113 283 112
f 25 570 26
f 169 7 6
f 1101 19 1102
f 5 4 172
f 368 369 743
f 2 171 3
f 10 165 11
f 180 6 5
f 83 287 82
f 4 1104 172
f 52 53 311
f 178 1 168
f 28 574 29
f 572 571 7
f 240 242 54
f 100 203 202
f 57 58 313
f 60 244 246
f 241 367 427
f 310 50 308
f 446 193 448
f 99 100 202
f 244 245 191
f 80 215 214
f 702 470 199
f 58 59 314
f 488 505 506
f 115 116 211
f 110 208 207
f 116 212 211
f 190 240 241
f 240 190 242
f 109 110 207
f 553 726 807
f 11 165 154
f 61 245 244
f 323 37 38
f 55 241 240
f 436 250 376
f 60 61 244
f 40 253 255
f 91 92 257
f 321 432 318
f 324 38 39
f 431 373 430
f 40 41 253
f 35 250 249
f 41 254 253
f 192 249 250
f 253 254 193
f 34 35 249
f 122 123 228
f 157 571 572
f 308 51 309
f 6 180 169
f 72 73 223
f 86 219 218
f 224 223 73
f 50 51 308
f 137 237 236
f 271 46 269
f 50 310 49
f 43 44 338
f 130 233 232
f 129 130 232
f 136 137 236
f 199 271 269
f 339 44 45
f 123 229 228
f 54 55 240
f 249 192 251
f 251 34 249
f 85 86 218
f 92 258 257
f 229 187 228
f 109 209 108
f 931 734 179
f 293 225 222
f 72 225 71
f 298 299 226
f 212 356 455
f 227 187 1107
f 226 297 298
f 229 123 124
f 227 228 187
f 125 359 124
f 126 301 300
f 302 303 230
f 229 359 360
f 231 188 504
f 230 301 302
f 233 130 131
f 231 232 188
f 132 362 131
f 133 305 304
f 307 234 306
f 233 362 363
f 235 189 512
f 234 305 306
f 237 137 138
f 235 236 189
f 139 381 138
f 140 330 329
f 312 423 239
f 269 270 702
f 239 242 312
f 308 309 578
f 241 55 56
f 190 312 242
f 57 366 56
f 314 313 58
f 311 242 239
f 54 242 53
f 243 246 316
f 241 366 367
f 245 61 62
f 191 316 246
f 63 370 62
f 368 63 64
f 314 246 243
f 60 246 59
f 431 430 248
f 145 751 749
f 248 251 322
f 318 247 317
f 250 35 36
f 192 322 251
f 37 375 36
f 324 323 38
f 320 251 248
f 34 251 33
f 252 255 325
f 250 375 376
f 254 41 42
f 193 325 255
f 43 386 42
f 339 338 44
f 324 255 252
f 40 255 39
f 328 256 259
f 219 378 379
f 258 92 93
f 194 328 259
f 698 94 274
f 479 697 698
f 327 259 256
f 91 259 90
f 164 260 174
f 195 476 494
f 383 443 384
f 260 261 195
f 331 332 262
f 237 381 382
f 263 196 1108
f 262 330 331
f 265 144 145
f 263 264 196
f 751 145 146
f 1106 372 751
f 333 165 175
f 197 384 266
f 336 176 162
f 198 709 267
f 268 271 340
f 254 386 387
f 270 47 48
f 199 340 271
f 703 49 310
f 489 702 703
f 339 271 268
f 46 271 45
f 96 97 273
f 272 200 274
f 275 273 97
f 273 275 577
f 451 496 498
f 698 93 94
f 204 275 98
f 275 201 577
f 449 343 344
f 450 389 276
f 449 341 388
f 101 343 203
f 279 104 105
f 277 278 205
f 281 775 106
f 106 107 281
f 209 280 108
f 280 206 281
f 396 453 206
f 775 105 106
f 285 398 210
f 677 679 988
f 348 283 614
f 111 347 208
f 213 284 114
f 283 284 210
f 455 356 357
f 414 416 357
f 525 461 518
f 404 224 402
f 353 287 615
f 81 352 215
f 220 288 84
f 287 288 217
f 256 328 438
f 260 195 494
f 291 68 69
f 290 221 292
f 294 69 70
f 294 407 409
f 621 245 370
f 64 369 368
f 225 293 71
f 294 293 222
f 294 222 407
f 294 291 69
f 350 458 402
f 195 261 383
f 455 349 400
f 117 356 212
f 120 121 298
f 296 297 226
f 121 227 298
f 298 227 299
f 1107 464 299
f 414 415 416
f 360 300 418
f 124 359 229
f 127 128 302
f 300 301 230
f 128 231 302
f 302 231 303
f 233 363 422
f 468 502 486
f 363 304 421
f 131 362 233
f 134 135 306
f 304 305 234
f 135 235 306
f 306 235 307
f 492 474 510
f 727 502 468
f 51 52 309
f 308 238 310
f 311 309 52
f 309 311 578
f 469 505 507
f 703 48 49
f 242 311 53
f 311 239 578
f 316 426 243
f 578 423 469
f 367 313 620
f 56 366 241
f 246 314 59
f 313 314 243
f 410 616 221
f 410 221 409
f 621 428 191
f 423 471 364
f 318 150 31
f 317 247 319
f 321 31 32
f 321 430 432
f 247 432 433
f 147 1106 751
f 251 320 33
f 321 320 248
f 321 248 430
f 321 318 31
f 325 435 252
f 630 633 628
f 376 323 643
f 36 375 250
f 255 324 39
f 323 324 252
f 268 340 447
f 434 192 436
f 379 326 680
f 87 378 219
f 259 327 90
f 326 327 256
f 451 498 200
f 557 657 663
f 382 329 441
f 138 381 237
f 141 142 331
f 329 330 262
f 142 263 331
f 331 263 332
f 380 382 441
f 332 1108 508
f 579 175 170
f 197 266 333
f 738 962 816
f 428 316 191
f 582 588 586
f 411 295 186
f 152 700 162
f 614 897 346
f 1014 1066 465
f 422 487 188
f 387 338 687
f 42 386 254
f 271 339 45
f 338 339 268
f 507 238 469
f 598 601 603
f 281 206 453
f 861 863 864
f 450 342 389
f 194 452 328
f 102 277 343
f 277 391 343
f 277 205 391
f 391 894 393
f 397 182 399
f 859 860 760
f 614 346 348
f 182 397 690
f 112 283 347
f 348 347 283
f 614 283 210
f 348 346 399
f 412 414 357
f 198 336 457
f 403 462 404
f 74 402 224
f 351 353 615
f 383 475 195
f 82 287 352
f 353 352 287
f 615 287 217
f 353 351 406
f 354 407 408
f 477 335 384
f 184 406 500
f 408 295 463
f 118 296 356
f 296 412 356
f 296 226 412
f 414 226 464
f 466 230 303
f 198 457 499
f 125 300 359
f 360 359 300
f 418 300 230
f 360 358 419
f 467 234 307
f 360 418 358
f 132 304 362
f 363 362 304
f 421 304 234
f 363 361 422
f 427 425 190
f 822 952 741
f 367 620 365
f 190 425 694
f 57 313 366
f 367 366 313
f 620 313 243
f 367 365 427
f 369 64 65
f 370 368 315
f 744 65 66
f 743 744 612
f 370 315 429
f 370 245 62
f 743 315 368
f 586 587 736
f 622 247 433
f 749 613 748
f 322 192 434
f 754 625 627
f 643 374 376
f 1115 642 1144
f 37 323 375
f 376 375 323
f 643 323 252
f 376 374 436
f 379 680 377
f 476 195 475
f 88 326 378
f 379 378 326
f 680 326 256
f 379 377 439
f 473 262 332
f 361 363 421
f 139 329 381
f 382 381 329
f 441 329 262
f 382 380 442
f 443 261 154
f 475 335 444
f 736 737 197
f 383 384 335
f 385 387 687
f 602 605 607
f 43 338 386
f 387 386 338
f 687 338 268
f 387 385 448
f 449 388 181
f 388 341 450
f 450 276 388
f 451 389 342
f 478 497 1111
f 655 666 657
f 392 776 688
f 343 391 344
f 1053 1052 1086
f 394 395 393
f 894 391 205
f 393 392 394
f 688 889 392
f 496 497 478
f 1122 395 394
f 449 395 341
f 282 182 690
f 396 345 453
f 691 1049 896
f 396 282 690
f 692 400 456
f 692 398 285
f 397 399 346
f 208 399 182
f 455 400 183
f 400 349 456
f 457 336 481
f 457 481 401
f 75 350 402
f 404 402 458
f 350 286 458
f 460 286 461
f 462 355 411
f 186 224 404
f 437 289 185
f 289 437 644
f 500 406 517
f 215 406 184
f 408 222 295
f 409 407 354
f 463 295 411
f 514 335 513
f 410 409 354
f 291 409 221
f 806 929 355
f 745 826 315
f 462 186 404
f 411 355 463
f 464 226 299
f 356 412 357
f 187 419 484
f 465 484 1014
f 226 414 412
f 414 413 415
f 1012 1063 1065
f 787 778 898
f 780 416 415
f 455 416 349
f 417 466 486
f 499 516 709
f 466 418 230
f 926 925 1013
f 465 1139 464
f 229 419 187
f 420 467 492
f 337 944 812
f 467 421 234
f 361 529 520
f 487 422 503
f 233 422 188
f 312 190 694
f 469 423 364
f 593 594 595
f 601 585 595
f 900 695 1037
f 423 312 694
f 696 428 472
f 316 696 426
f 425 427 365
f 241 427 190
f 428 621 429
f 428 371 472
f 743 745 315
f 428 429 371
f 431 248 322
f 432 430 373
f 322 434 636
f 171 178 733
f 433 432 373
f 318 432 247
f 629 626 433
f 509 440 508
f 683 686 681
f 171 733 946
f 446 325 193
f 325 446 681
f 434 436 374
f 250 436 192
f 556 557 546
f 540 494 476
f 699 452 480
f 328 699 438
f 437 439 377
f 219 439 185
f 440 473 508
f 942 1018 1020
f 473 441 262
f 380 531 522
f 493 442 511
f 237 442 189
f 384 443 266
f 261 443 383
f 477 513 335
f 501 519 526
f 736 197 334
f 722 712 714
f 609 991 992
f 607 609 602
f 704 470 490
f 340 704 447
f 448 385 767
f 254 448 193
f 203 449 181
f 449 344 395
f 341 395 1122
f 671 676 678
f 496 451 342
f 451 200 577
f 257 697 194
f 452 390 480
f 688 453 345
f 279 689 205
f 895 777 397
f 152 794 481
f 212 455 183
f 455 357 416
f 349 780 779
f 777 454 397
f 162 700 336
f 1087 499 457
f 460 458 286
f 404 458 403
f 460 461 525
f 459 545 1109
f 286 1105 461
f 403 460 459
f 184 710 216
f 518 710 500
f 462 403 1109
f 186 462 411
f 459 525 539
f 713 717 523
f 299 227 1107
f 414 464 413
f 1014 358 1013
f 926 796 925
f 486 303 504
f 418 466 417
f 492 307 512
f 421 467 420
f 503 468 487
f 503 520 528
f 505 469 364
f 469 238 578
f 269 702 199
f 470 424 490
f 899 792 425
f 965 582 583
f 842 1124 591
f 334 579 580
f 508 1108 491
f 441 473 440
f 511 474 493
f 522 530 511
f 335 475 383
f 476 475 444
f 525 459 460
f 535 540 476
f 737 384 197
f 445 716 513
f 763 450 675
f 705 515 479
f 200 498 705
f 390 452 479
f 670 668 672
f 540 553 494
f 152 904 794
f 907 159 908
f 781 784 782
f 502 417 486
f 405 524 532
f 517 483 500
f 1014 419 358
f 1107 484 465
f 796 417 502
f 706 918 924
f 466 303 486
f 303 231 504
f 503 422 361
f 486 487 468
f 471 707 364
f 708 521 489
f 238 507 708
f 424 470 489
f 952 822 823
f 595 585 593
f 196 264 748
f 852 491 750
f 467 307 492
f 307 235 512
f 511 442 380
f 492 493 474
f 535 476 519
f 260 494 807
f 831 619 833
f 545 459 539
f 496 342 763
f 496 478 498
f 672 676 662
f 660 664 669
f 515 498 478
f 705 479 698
f 1087 457 401
f 499 482 516
f 517 406 351
f 518 500 483
f 476 444 519
f 335 514 444
f 510 725 420
f 796 502 914
f 361 421 529
f 503 361 520
f 188 487 504
f 486 504 487
f 506 505 364
f 505 488 507
f 582 580 157
f 965 592 596
f 521 507 488
f 708 489 703
f 332 508 473
f 509 508 491
f 972 754 627
f 734 735 168
f 474 511 530
f 156 177 731
f 380 441 531
f 511 380 522
f 189 493 512
f 492 512 493
f 445 513 477
f 513 495 514
f 514 711 526
f 526 519 444
f 1112 515 478
f 390 479 515
f 706 925 796
f 558 528 541
f 532 517 351
f 532 533 517
f 518 483 525
f 461 216 710
f 526 444 514
f 1120 535 519
f 542 559 530
f 468 503 528
f 521 488 955
f 424 489 521
f 549 1110 509
f 857 755 854
f 1015 722 714
f 1109 806 355
f 405 289 644
f 533 724 517
f 544 729 539
f 799 718 801
f 711 514 495
f 719 804 523
f 566 729 563
f 535 1120 527
f 528 520 541
f 528 558 727
f 421 420 529
f 725 529 420
f 522 549 542
f 530 559 728
f 441 440 531
f 1110 531 440
f 405 532 351
f 533 532 524
f 533 524 543
f 533 561 563
f 544 539 525
f 802 799 566
f 1120 519 501
f 535 527 540
f 541 520 547
f 573 731 810
f 932 936 808
f 530 522 542
f 405 644 646
f 560 538 543
f 544 525 483
f 545 539 534
f 554 540 527
f 554 553 540
f 725 520 529
f 558 541 1132
f 522 1110 549
f 537 550 559
f 524 646 560
f 1118 561 538
f 483 724 544
f 533 543 561
f 719 717 715
f 806 1109 545
f 556 546 554
f 564 565 538
f 728 510 474
f 541 547 1019
f 933 935 1069
f 1061 920 921
f 631 856 854
f 542 549 1025
f 809 576 931
f 728 1071 510
f 551 648 645
f 649 651 759
f 555 1117 565
f 729 566 534
f 986 661 985
f 726 153 569
f 527 1121 556
f 554 546 986
f 1121 1116 1117
f 560 564 538
f 527 556 554
f 557 556 555
f 656 555 565
f 654 562 653
f 1132 541 536
f 548 914 727
f 537 559 542
f 550 1071 728
f 524 560 543
f 564 560 759
f 538 561 543
f 563 561 552
f 649 551 645
f 651 653 562
f 563 552 566
f 563 544 724
f 759 560 551
f 565 564 562
f 562 654 656
f 1121 1117 555
f 802 552 1146
f 804 718 800
f 567 152 162
f 21 161 567
f 19 568 20
f 906 568 159
f 569 153 173
f 15 163 569
f 570 155 167
f 25 166 570
f 7 571 8
f 580 571 157
f 7 169 572
f 583 572 169
f 811 167 155
f 1041 549 509
f 574 156 179
f 28 177 574
f 168 179 734
f 626 629 631
f 156 731 809
f 537 1024 1022
f 577 201 389
f 272 577 200
f 578 239 423
f 308 578 238
f 175 579 333
f 580 579 170
f 157 583 582
f 580 586 334
f 506 364 707
f 425 792 471
f 157 572 583
f 582 581 588
f 169 593 592
f 583 169 592
f 590 584 588
f 591 840 842
f 585 592 593
f 848 589 963
f 582 586 580
f 587 586 584
f 590 591 584
f 477 737 445
f 581 963 590
f 586 588 584
f 965 964 581
f 844 843 837
f 581 590 588
f 590 589 846
f 843 738 837
f 429 826 825
f 593 169 180
f 585 740 592
f 172 594 180
f 593 180 594
f 597 600 158
f 594 600 599
f 172 600 594
f 596 740 604
f 601 604 740
f 820 951 604
f 733 947 946
f 610 887 886
f 599 595 594
f 424 817 490
f 605 599 597
f 603 601 595
f 158 600 172
f 599 600 597
f 603 595 599
f 601 598 604
f 1033 1032 946
f 770 772 684
f 605 603 599
f 886 602 992
f 598 818 604
f 958 824 957
f 597 1034 607
f 605 602 1128
f 628 633 637
f 632 636 640
f 597 607 605
f 606 1045 609
f 1033 597 158
f 682 683 684
f 606 609 607
f 609 608 991
f 773 642 435
f 610 990 882
f 267 611 166
f 812 611 337
f 221 616 292
f 616 618 746
f 624 625 754
f 196 748 750
f 210 398 614
f 614 398 897
f 217 405 615
f 351 615 405
f 618 616 410
f 612 292 616
f 618 619 617
f 829 832 827
f 619 618 410
f 618 617 746
f 410 354 752
f 713 523 711
f 243 426 620
f 620 426 901
f 245 621 191
f 370 429 621
f 625 622 626
f 1106 624 372
f 623 625 626
f 491 852 973
f 319 622 624
f 625 624 622
f 626 622 433
f 623 627 625
f 433 630 629
f 630 628 629
f 627 623 853
f 972 853 852
f 632 634 636
f 631 623 626
f 630 433 373
f 628 756 629
f 431 634 373
f 630 634 633
f 637 638 756
f 984 576 943
f 434 641 640
f 993 1043 1044
f 630 373 634
f 632 1141 637
f 636 634 431
f 632 633 634
f 1142 1143 1078
f 638 631 756
f 322 636 431
f 636 434 640
f 632 637 633
f 637 635 638
f 1136 949 1082
f 635 858 638
f 374 642 641
f 1047 1045 606
f 641 434 374
f 632 640 639
f 642 374 435
f 639 640 641
f 681 435 325
f 1144 1114 1115
f 252 435 643
f 374 643 435
f 645 644 437
f 405 646 524
f 377 650 437
f 650 377 758
f 648 644 645
f 646 648 560
f 645 650 649
f 390 1112 1113
f 560 648 551
f 644 648 646
f 645 437 650
f 651 649 647
f 758 377 438
f 647 649 650
f 647 870 653
f 562 564 759
f 865 866 867
f 859 861 667
f 647 653 651
f 654 653 652
f 658 657 654
f 654 557 656
f 658 655 657
f 667 655 762
f 555 656 557
f 562 656 565
f 658 654 652
f 666 663 657
f 1126 658 652
f 1126 660 658
f 869 870 647
f 658 660 655
f 664 670 662
f 660 659 664
f 667 666 655
f 864 153 985
f 674 497 675
f 160 760 862
f 986 663 661
f 546 557 663
f 865 670 659
f 662 671 669
f 665 669 671
f 667 861 661
f 669 762 660
f 661 663 666
f 859 667 665
f 661 666 667
f 390 761 480
f 390 515 1112
f 662 669 664
f 762 665 667
f 659 670 664
f 668 1111 672
f 672 674 676
f 765 880 881
f 674 672 497
f 662 670 672
f 450 872 675
f 678 679 677
f 497 763 675
f 674 673 676
f 1122 872 341
f 673 674 675
f 678 676 673
f 671 662 676
f 873 675 872
f 910 908 151
f 679 678 673
f 678 677 881
f 891 392 889
f 876 999 1051
f 256 438 680
f 377 680 438
f 446 767 683
f 681 686 773
f 772 990 888
f 681 446 683
f 446 448 767
f 682 685 686
f 447 768 385
f 767 768 684
f 888 1043 1042
f 1042 682 888
f 682 686 683
f 685 1144 773
f 268 447 687
f 385 687 447
f 996 890 994
f 776 205 689
f 775 689 279
f 776 453 688
f 397 454 690
f 396 690 454
f 456 349 779
f 481 794 1002
f 400 692 285
f 898 692 456
f 693 780 782
f 782 786 693
f 425 471 694
f 423 694 471
f 620 901 365
f 820 604 818
f 428 696 316
f 902 696 472
f 698 697 258
f 452 697 479
f 93 698 258
f 698 274 705
f 452 699 328
f 987 699 480
f 152 481 700
f 336 700 481
f 161 568 906
f 786 783 789
f 703 702 270
f 470 702 489
f 48 703 270
f 703 310 708
f 470 704 340
f 771 704 490
f 200 705 274
f 515 705 498
f 1009 482 922
f 482 1059 1010
f 1036 471 792
f 964 951 966
f 238 708 310
f 521 708 507
f 267 709 337
f 499 709 198
f 500 710 184
f 461 710 518
f 714 713 711
f 523 526 711
f 712 713 714
f 723 833 753
f 714 711 495
f 971 712 970
f 716 495 513
f 714 495 716
f 722 970 712
f 805 929 806
f 927 587 798
f 970 722 723
f 971 713 712
f 718 719 720
f 566 799 534
f 717 719 523
f 720 719 715
f 719 718 804
f 715 805 720
f 545 534 801
f 445 927 716
f 835 832 828
f 1015 714 716
f 723 722 721
f 961 833 723
f 753 619 752
f 517 724 483
f 563 724 533
f 1071 725 510
f 520 725 547
f 807 163 260
f 985 726 553
f 528 727 468
f 548 727 558
f 530 728 474
f 550 728 559
f 539 729 534
f 563 729 544
f 1146 1116 1119
f 799 800 718
f 810 177 167
f 932 809 731
f 812 732 811
f 1017 1068 1070
f 815 178 168
f 733 575 947
f 931 179 156
f 735 734 576
f 973 974 509
f 815 575 733
f 586 736 334
f 737 587 445
f 737 477 384
f 587 737 736
f 472 371 816
f 825 371 429
f 823 955 506
f 883 885 887
f 592 740 596
f 601 740 585
f 818 821 741
f 956 506 707
f 1040 958 1038
f 849 839 847
f 744 743 369
f 745 743 612
f 65 744 369
f 292 612 744
f 612 746 745
f 747 826 746
f 746 612 616
f 617 830 746
f 831 830 617
f 827 816 371
f 749 748 265
f 750 748 613
f 749 265 145
f 754 749 372
f 613 754 972
f 1108 750 491
f 147 751 146
f 372 749 751
f 408 850 354
f 850 753 752
f 354 850 752
f 971 970 851
f 749 754 613
f 754 372 624
f 854 853 623
f 977 858 975
f 629 756 631
f 637 756 628
f 979 981 976
f 809 943 576
f 987 438 699
f 867 868 480
f 649 759 551
f 562 759 651
f 671 880 665
f 760 863 861
f 668 865 761
f 761 865 867
f 660 762 655
f 665 762 669
f 496 763 497
f 450 763 342
f 764 875 874
f 873 679 673
f 879 989 988
f 862 151 160
f 874 679 873
f 794 904 1129
f 768 767 385
f 683 767 684
f 771 447 704
f 771 769 770
f 490 817 884
f 772 682 684
f 771 770 768
f 770 769 772
f 447 771 768
f 771 490 884
f 882 772 769
f 990 991 888
f 681 773 435
f 685 773 686
f 688 890 889
f 877 679 874
f 105 775 279
f 453 775 281
f 392 393 894
f 453 776 689
f 895 397 346
f 998 893 774
f 898 778 897
f 456 779 787
f 349 416 780
f 787 779 693
f 415 1138 782
f 693 779 780
f 1138 1140 1137
f 1089 1099 1059
f 415 782 780
f 783 784 785
f 1003 1004 1088
f 784 786 782
f 784 781 1149
f 784 783 786
f 923 920 1062
f 923 924 921
f 788 789 790
f 1057 778 787
f 786 1123 693
f 791 1123 789
f 1050 1049 691
f 1057 1123 791
f 790 789 783
f 789 788 791
f 783 785 1099
f 481 1002 1003
f 1055 791 788
f 791 1056 1057
f 899 425 365
f 820 959 1040
f 902 793 901
f 962 903 816
f 152 567 904
f 1002 794 1135
f 907 795 906
f 909 795 907
f 502 727 914
f 1012 706 923
f 914 916 918
f 917 1093 916
f 835 837 832
f 927 928 716
f 799 802 800
f 801 718 720
f 730 803 800
f 523 804 526
f 545 801 720
f 534 799 801
f 552 802 566
f 730 800 802
f 1119 803 730
f 804 501 526
f 800 803 804
f 804 803 501
f 969 715 851
f 850 968 969
f 545 720 806
f 805 806 720
f 553 807 494
f 163 807 726
f 932 934 936
f 1022 1024 1026
f 932 731 573
f 943 809 1029
f 177 810 731
f 811 810 167
f 812 811 155
f 810 811 732
f 611 812 155
f 812 944 813
f 1093 1100 1070
f 813 935 1016
f 949 575 948
f 1079 1077 635
f 178 815 733
f 168 735 815
f 371 825 827
f 845 962 843
f 521 955 954
f 739 883 884
f 598 1127 821
f 820 818 741
f 886 1127 603
f 819 822 821
f 952 824 959
f 820 742 951
f 598 821 818
f 819 885 822
f 739 953 822
f 741 821 822
f 739 817 953
f 817 954 953
f 957 824 956
f 820 741 959
f 429 315 826
f 825 747 827
f 746 826 745
f 747 825 826
f 829 827 747
f 816 827 832
f 829 747 830
f 798 840 841
f 747 746 830
f 832 829 828
f 831 617 619
f 828 829 830
f 619 753 833
f 828 830 831
f 835 836 834
f 832 738 816
f 961 721 836
f 828 831 960
f 838 840 591
f 837 738 832
f 836 835 828
f 835 834 837
f 836 828 960
f 841 840 834
f 834 838 837
f 591 844 838
f 840 838 834
f 847 844 846
f 844 847 839
f 695 900 1125
f 834 836 841
f 840 798 842
f 836 721 841
f 928 927 798
f 587 1124 798
f 584 1124 587
f 844 837 838
f 843 839 845
f 846 844 591
f 843 844 839
f 839 849 967
f 793 902 903
f 590 846 591
f 846 589 847
f 589 848 847
f 847 848 849
f 589 590 963
f 849 848 1038
f 1038 848 742
f 839 967 845
f 463 968 408
f 968 463 929
f 723 753 851
f 753 850 969
f 972 852 750
f 973 852 755
f 854 623 631
f 852 853 755
f 977 856 638
f 755 853 854
f 976 981 930
f 856 857 854
f 638 856 631
f 856 855 857
f 855 975 980
f 974 973 755
f 1035 1082 1083
f 975 858 757
f 860 859 665
f 861 859 760
f 880 860 665
f 913 912 765
f 863 760 160
f 173 864 863
f 760 860 862
f 912 860 765
f 160 173 863
f 864 173 153
f 153 726 985
f 861 864 661
f 670 865 668
f 866 865 659
f 1126 866 659
f 871 758 868
f 868 867 866
f 480 761 867
f 869 868 866
f 758 438 987
f 870 869 866
f 871 647 650
f 1126 870 866
f 653 870 652
f 647 871 869
f 650 758 871
f 341 872 450
f 873 872 764
f 873 764 874
f 675 873 673
f 764 1122 875
f 892 999 1133
f 891 875 394
f 878 877 876
f 891 892 875
f 893 1051 999
f 1133 874 875
f 1001 876 1051
f 878 766 879
f 679 877 878
f 909 911 1008
f 989 879 913
f 881 880 671
f 860 880 765
f 678 881 671
f 881 677 989
f 769 883 882
f 739 885 883
f 884 883 769
f 739 822 885
f 884 769 771
f 739 884 817
f 819 1127 885
f 882 887 610
f 1127 819 821
f 603 1128 886
f 883 887 882
f 886 887 885
f 991 1043 888
f 682 772 888
f 890 688 345
f 891 889 774
f 454 994 345
f 345 994 890
f 891 774 892
f 392 891 394
f 999 774 893
f 876 1133 999
f 890 996 998
f 1053 1131 1000
f 205 776 894
f 392 894 776
f 897 895 346
f 896 895 778
f 895 896 777
f 1057 896 778
f 898 897 398
f 895 897 778
f 692 898 398
f 787 898 456
f 901 899 365
f 900 899 793
f 899 900 792
f 1125 900 793
f 902 901 426
f 899 901 793
f 696 902 426
f 903 902 472
f 816 903 472
f 903 845 1125
f 906 904 161
f 904 906 1129
f 788 1004 1005
f 1004 790 1088
f 907 906 159
f 906 795 1129
f 159 1101 908
f 908 911 907
f 151 862 910
f 911 909 907
f 766 878 1001
f 795 909 1130
f 912 910 862
f 879 1008 913
f 908 910 911
f 910 912 913
f 860 912 862
f 765 989 913
f 1008 879 766
f 911 910 913
f 916 914 548
f 706 796 914
f 1132 916 548
f 915 919 918
f 916 1132 917
f 918 916 915
f 937 941 942
f 915 1093 1070
f 915 1070 919
f 914 918 706
f 921 919 797
f 918 919 924
f 922 1061 921
f 1060 1149 1011
f 922 921 797
f 921 920 923
f 1094 1058 797
f 922 482 1010
f 1011 1062 1060
f 706 1012 925
f 921 924 919
f 706 924 923
f 485 1013 925
f 358 418 926
f 418 417 926
f 796 926 417
f 587 927 445
f 798 841 928
f 841 721 928
f 721 722 1015
f 968 929 805
f 355 929 463
f 936 938 808
f 978 980 975
f 734 931 576
f 156 809 931
f 934 932 573
f 1029 932 808
f 934 573 935
f 536 1018 1091
f 573 1016 935
f 934 933 936
f 1067 935 813
f 933 934 935
f 939 936 933
f 939 938 936
f 937 939 941
f 1021 937 942
f 1022 937 1021
f 943 1076 1075
f 1092 941 939
f 938 939 937
f 1067 1069 935
f 1018 1019 1020
f 1092 939 933
f 942 941 940
f 942 940 1018
f 942 550 1021
f 1076 938 1028
f 943 1075 984
f 337 516 944
f 482 1009 516
f 944 1030 813
f 516 1030 944
f 1031 946 814
f 1103 1032 158
f 983 948 575
f 946 947 814
f 1035 757 858
f 814 947 949
f 575 949 947
f 949 948 1082
f 1080 950 1079
f 1046 1114 1145
f 966 742 848
f 604 951 596
f 823 506 952
f 952 506 956
f 954 817 424
f 822 953 823
f 954 424 521
f 823 953 954
f 506 955 488
f 823 954 955
f 957 956 707
f 952 956 824
f 1036 707 471
f 1036 792 1037
f 1037 958 957
f 849 1039 967
f 952 959 741
f 1040 824 958
f 831 833 960
f 960 833 961
f 721 961 723
f 960 961 836
f 843 962 738
f 903 962 845
f 964 963 581
f 966 963 964
f 581 582 965
f 951 964 596
f 592 965 583
f 596 964 965
f 742 966 951
f 848 963 966
f 1039 849 1038
f 1125 967 695
f 969 968 805
f 408 968 850
f 715 969 805
f 969 851 753
f 723 851 970
f 851 715 971
f 715 717 971
f 971 717 713
f 613 972 750
f 853 972 627
f 974 755 857
f 491 973 509
f 1096 982 1074
f 509 974 1041
f 978 975 757
f 977 975 855
f 976 978 979
f 980 976 982
f 856 977 855
f 858 977 638
f 979 978 757
f 980 978 976
f 979 757 1083
f 983 735 981
f 982 976 930
f 1095 1072 857
f 983 981 979
f 984 735 576
f 1027 1073 1026
f 1095 980 1096
f 948 983 979
f 983 575 815
f 930 981 984
f 735 984 981
f 986 985 553
f 661 864 985
f 554 986 553
f 986 546 663
f 480 868 987
f 758 987 868
f 679 878 988
f 879 988 878
f 881 989 765
f 988 989 677
f 882 990 772
f 991 990 610
f 991 610 992
f 1043 991 608
f 886 992 610
f 609 992 602
f 1044 608 1045
f 993 1044 1046
f 777 1048 454
f 997 995 996
f 454 1048 994
f 1005 1054 788
f 997 996 994
f 998 996 995
f 1049 997 1048
f 788 1054 1007
f 893 998 995
f 890 998 774
f 1133 876 877
f 774 999 892
f 1000 1051 1052
f 1008 1134 909
f 876 1001 878
f 1134 1001 1000
f 1135 794 701
f 1003 1002 905
f 1003 905 1004
f 481 1003 401
f 1005 1004 905
f 788 790 1004
f 1006 1054 1135
f 1135 1054 905
f 1130 701 1129
f 997 1050 1084
f 995 1084 1086
f 1056 1050 691
f 1008 766 1134
f 911 913 1008
f 1058 922 797
f 1030 1009 945
f 1087 482 499
f 1010 1099 1060
f 1064 1140 1139
f 1065 1063 1064
f 923 1062 1063
f 485 925 1012
f 1014 1013 485
f 926 1013 358
f 1014 485 1066
f 419 1014 484
f 716 928 1015
f 721 1015 928
f 810 1016 573
f 813 1016 732
f 1067 813 1068
f 1090 940 1092
f 1091 940 1090
f 1019 1018 536
f 541 1019 536
f 1020 1019 547
f 547 725 1071
f 550 942 1020
f 550 537 1021
f 1022 1021 537
f 1023 1024 1025
f 938 937 1022
f 1072 974 857
f 1026 938 1022
f 1025 1024 537
f 1024 1023 1026
f 542 1025 537
f 1025 549 1041
f 1023 1027 1026
f 1073 1027 1074
f 1072 1096 1097
f 930 1075 1074
f 1028 1074 1075
f 1026 1073 938
f 932 1029 809
f 1076 1029 808
f 1009 1030 516
f 813 1030 945
f 1047 1031 814
f 1033 1034 597
f 171 946 1032
f 1033 946 1031
f 1033 1031 1034
f 158 1032 1033
f 1031 606 1034
f 607 1034 606
f 635 1077 858
f 1082 1035 950
f 792 900 1037
f 707 1036 957
f 1037 695 1039
f 957 1036 1037
f 1040 1038 742
f 1039 1038 958
f 1037 1039 958
f 967 1039 695
f 820 1040 742
f 824 1040 959
f 974 1072 1097
f 1025 1041 1023
f 1145 1042 993
f 685 682 1042
f 1044 1043 608
f 1042 1043 993
f 1044 1045 1081
f 1047 1081 1045
f 609 1045 608
f 1031 1047 606
f 1077 1079 1035
f 639 641 1115
f 814 1136 1047
f 950 1080 1081
f 1049 1048 777
f 994 1048 997
f 896 1049 777
f 1056 691 1057
f 1053 1085 1098
f 997 1049 1050
f 1052 1051 893
f 1001 1051 1000
f 995 1086 893
f 995 997 1084
f 701 1130 1147
f 1000 1052 1053
f 905 1054 1005
f 1098 1054 1006
f 788 1007 1055
f 1050 1055 1007
f 791 1055 1056
f 1050 1056 1055
f 1057 691 896
f 1057 787 1123
f 945 1009 1058
f 922 1058 1009
f 1088 1059 1087
f 1059 1088 1089
f 1060 785 1149
f 1061 1060 920
f 922 1010 1061
f 1060 1061 1010
f 1060 1062 920
f 1063 1062 1011
f 1011 1064 1063
f 923 1063 1012
f 1137 1064 1011
f 1137 1140 1064
f 1064 1139 1066
f 485 1012 1065
f 485 1065 1066
f 1064 1066 1065
f 1068 813 945
f 1069 1067 1017
f 945 1058 1094
f 1017 1067 1068
f 1090 1069 1017
f 1092 1069 1090
f 1094 1068 945
f 919 1070 797
f 550 1020 1071
f 547 1071 1020
f 857 855 1095
f 1027 1023 1097
f 1027 1096 1074
f 938 1073 1028
f 930 1074 982
f 1028 1073 1074
f 984 1075 930
f 943 1029 1076
f 938 1076 808
f 1028 1075 1076
f 1078 1079 635
f 1035 858 1077
f 635 1141 1078
f 1141 632 1142
f 1080 1079 1078
f 950 1035 1079
f 1143 1080 1078
f 1081 1080 1046
f 1044 1081 1046
f 1081 1047 1136
f 1082 950 1136
f 1083 1082 948
f 979 1083 948
f 757 1035 1083
f 1085 1084 1050
f 1052 893 1086
f 1050 1007 1085
f 1098 1007 1054
f 1084 1085 1086
f 1053 1086 1085
f 1088 1087 401
f 482 1087 1059
f 1088 401 1003
f 1089 1088 790
f 783 1089 790
f 1099 785 1060
f 1100 1090 1017
f 917 1132 1091
f 940 1091 1018
f 917 1091 1090
f 941 1092 940
f 933 1069 1092
f 916 1093 915
f 917 1090 1100
f 797 1070 1094
f 1068 1094 1070
f 855 980 1095
f 1096 980 982
f 1097 1096 1027
f 1095 1096 1072
f 1023 1041 1097
f 974 1097 1041
f 1098 1006 1147
f 1085 1007 1098
f 1059 1099 1010
f 783 1099 1089
f 1070 1100 1017
f 917 1100 1093
f 1102 19 18
f 908 1101 151
f 1101 1102 151
f 18 160 1102
f 158 172 1104
f 3 171 1103
f 4 1103 1104
f 158 1104 1103
f 78 1105 77
f 461 1105 216
f 148 1106 147
f 624 1106 319
f 484 1107 187
f 464 1107 465
f 263 1108 332
f 750 1108 196
f 462 1109 355
f 459 1109 403
f 531 1110 522
f 509 1110 440
f 672 1111 497
f 668 761 1113
f 478 1111 1112
f 1111 668 1113
f 390 1113 761
f 1111 1113 1112
f 1114 1144 1145
f 1046 1080 1143
f 642 1115 641
f 1148 1115 1114
f 1117 1118 538
f 1116 1121 1119
f 1118 1117 1116
f 538 565 1117
f 1146 1118 1116
f 561 1118 552
f 803 1119 501
f 1119 730 1146
f 501 1119 1120
f 527 1120 1119
f 556 1121 555
f 527 1119 1121
f 875 1122 394
f 872 1122 764
f 693 1123 787
f 789 1123 786
f 591 1124 584
f 798 1124 842
f 903 1125 793
f 967 1125 845
f 1126 659 660
f 870 1126 652
f 603 1127 598
f 885 1127 886
f 605 1128 603
f 602 886 1128
f 1130 1129 795
f 794 1129 701
f 909 1131 1130
f 1130 1131 1147
f 1131 909 1134
f 1147 1131 1053
f 558 1132 548
f 1091 1132 536
f 874 1133 877
f 892 1133 875
f 1001 1134 766
f 1131 1134 1000
f 1002 1135 905
f 1147 1135 701
f 949 1136 814
f 1081 1136 950
f 1149 1137 1011
f 1138 1137 781
f 782 1138 781
f 1140 415 413
f 464 1139 413
f 1066 1139 465
f 415 1140 1138
f 413 1139 1140
f 637 1141 635
f 1142 632 639
f 1115 1148 639
f 1078 1141 1142
f 1148 1142 639
f 1046 1143 1148
f 773 1144 642
f 1145 1144 685
f 1042 1145 685
f 1046 1145 993
f 802 1146 730
f 1118 1146 552
f 1098 1147 1053
f 1147 1006 1135
f 1046 1148 1114
f 1142 1148 1143
f 784 1149 785
f 1137 1149 781
