v 0.995031 0.880998 -0.238795
v 0.981469 0.89262 -0.26655
v 0.96069 0.905201 -0.288527
v 0.934175 0.917267 -0.303071
v 0.903353 0.926793 -0.308828
v 0.871451 0.933086 -0.304812
v 0.840553 0.935878 -0.291268
v 0.817257 0.938357 -0.268705
v 0.802254 0.941583 -0.241705
v 0.791481 0.94333 -0.212208
v 0.7835 0.94436 -0.18277
v 0.77673 0.945141 -0.152999
v 0.771712 0.945178 -0.123143
v 0.76769 0.945319 -0.0929744
v 0.766957 0.944818 -0.0617362
v 0.773455 0.94132 -0.0296286
v 0.790977 0.94057 -0.00237477
v 0.814705 0.93791 0.0191883
v 0.846158 0.930515 0.0328095
v 0.87769 0.918892 0.0340683
v 0.905404 0.905356 0.0253833
v 0.930376 0.892781 0.00924039
v 0.951131 0.881189 -0.0115854
v 0.970454 0.874726 -0.0339852
v 0.988864 0.869654 -0.0586799
v 1.00305 0.866136 -0.0867353
v 1.0117 0.865245 -0.118062
v 1.0141 0.866114 -0.149413
v 1.01079 0.869067 -0.180963
v 1.00416 0.87338 -0.210432
v 1.01283 0.453287 -0.325923
v 1.00688 0.457263 -0.328821
v 1.00148 0.461471 -0.330303
v 0.996345 0.468984 -0.330318
v 0.991032 0.471432 -0.335668
v 0.979979 0.472342 -0.337535
v 0.967023 0.476016 -0.339639
v 0.952308 0.477788 -0.342748
v 0.938003 0.480091 -0.34402
v 0.92573 0.484211 -0.34449
v 0.918398 0.489012 -0.34566
v 0.911726 0.488713 -0.346051
v 0.904407 0.489849 -0.344623
v 0.896741 0.492224 -0.34355
v 0.889922 0.494867 -0.341939
v 0.882739 0.495137 -0.340357
v 0.874934 0.494956 -0.340682
v 0.866886 0.496484 -0.338791
v 0.85893 0.496914 -0.334451
v 0.849774 0.49555 -0.333209
v 0.840504 0.496406 -0.332594
v 0.830584 0.496437 -0.330318
v 0.821243 0.493891 -0.326463
v 0.813404 0.493771 -0.323543
v 0.804908 0.4951 -0.32316
v 0.79642 0.49117 -0.318738
v 0.786539 0.4906 -0.314817
v 0.777226 0.489465 -0.309635
v 0.768259 0.486468 -0.30509
v 0.761645 0.48587 -0.301399
v 0.754293 0.484709 -0.300573
v 0.747934 0.481344 -0.295462
v 0.740337 0.48055 -0.290834
v 0.730529 0.477622 -0.287252
v 0.72153 0.476804 -0.281203
v 0.713378 0.473931 -0.273728
v 0.702823 0.47308 -0.267197
v 0.690177 0.474046 -0.260168
v 0.68072 0.470415 -0.247049
v 0.672363 0.469161 -0.22844
v 0.668834 0.468121 -0.212517
v 0.662624 0.467719 -0.193858
v 0.656782 0.468978 -0.17189
v 0.649318 0.47053 -0.148744
v 0.638847 0.473643 -0.125506
v 0.629052 0.478358 -0.104007
v 0.618351 0.484426 -0.0864299
v 0.616936 0.48777 -0.0703821
v 0.616945 0.491449 -0.0566887
v 0.617183 0.497961 -0.0456281
v 0.621001 0.497725 -0.0369794
v 0.626319 0.498129 -0.0300177
v 0.632596 0.500074 -0.0199237
v 0.639414 0.501898 -0.0100762
v 0.647328 0.503441 0.00142883
v 0.65665 0.503508 0.014698
v 0.667974 0.504951 0.0286451
v 0.679352 0.506933 0.0400271
v 0.690974 0.507033 0.0520893
v 0.703661 0.507392 0.062409
v 0.715971 0.509326 0.0710405
v 0.726042 0.510607 0.0806057
v 0.737281 0.512867 0.0850651
v 0.749483 0.512845 0.0890476
v 0.76191 0.511741 0.093693
v 0.772375 0.512519 0.0999102
v 0.781821 0.512154 0.102038
v 0.789186 0.515139 0.104167
v 0.795455 0.514965 0.106476
v 0.801229 0.511429 0.106627
v 0.807767 0.511244 0.109031
v 0.81619 0.50933 0.108361
v 0.824044 0.50726 0.10971
v 0.833372 0.50764 0.112578
v 0.844063 0.500209 0.112574
v 0.855249 0.497281 0.113159
v 0.865594 0.494395 0.115655
v 0.873881 0.490325 0.115433
v 0.880232 0.48786 0.114607
v 0.885418 0.487215 0.115152
v 0.888953 0.478762 0.112322
v 0.892447 0.474142 0.111018
v 0.895404 0.47088 0.108958
v 0.897535 0.461019 0.106182
v 0.902529 0.454661 0.103881
v 0.907996 0.44823 0.101026
v 0.912556 0.443255 0.0967434
v 0.91668 0.437267 0.0918325
v 0.923235 0.431502 0.0870697
v 0.933863 0.424138 0.0808566
v 0.948436 0.418188 0.0712391
v 0.965515 0.413905 0.0613225
v 0.984292 0.409668 0.0501226
v 1.00875 0.407102 0.0372541
v 1.0373 0.405164 0.0247056
v 1.06718 0.405848 0.0150908
v 1.09439 0.407791 -0.000146633
v 1.10856 0.409032 -0.0220079
v 1.11402 0.407949 -0.0404271
v 1.10697 0.402323 -0.0615741
v 1.08946 0.395635 -0.0861757
v 1.06525 0.390487 -0.10327
v 1.04617 0.387776 -0.116305
v 1.03432 0.387365 -0.12579
v 1.02569 0.387211 -0.135924
v 1.02409 0.388524 -0.146799
v 1.03027 0.389951 -0.157892
v 1.04243 0.391028 -0.173617
v 1.05513 0.394643 -0.19423
v 1.06135 0.398106 -0.218391
v 1.06174 0.402826 -0.242343
v 1.05723 0.407207 -0.261266
v 1.05303 0.413273 -0.276499
v 1.0505 0.419335 -0.289206
v 1.04332 0.423097 -0.296733
v 1.04094 0.427869 -0.305664
v 1.03343 0.433528 -0.311926
v 1.02763 0.440473 -0.31668
v 1.02422 0.446032 -0.31877
v 1.02112 0.450318 -0.324115
v 0.818102 0.888763 0.0368023
v 0.906631 0.851352 0.0360642
v 0.745791 0.896515 -0.045713
v 0.756148 0.897373 -0.172169
v 1.00362 0.816393 -0.0628824
v 1.0158 0.81493 -0.169756
v 0.811833 0.890288 -0.29143
v 0.942678 0.86304 -0.308766
v 0.852119 0.883519 0.0436836
v 0.789736 0.900415 0.0185527
v 0.879789 0.876128 0.0426769
v 0.939195 0.852112 0.0126441
v 0.747318 0.909407 -0.0781222
v 0.758364 0.915199 -0.140653
v 0.772024 0.913814 -0.200539
v 0.982455 0.836127 -0.0360117
v 1.01111 0.827896 -0.100657
v 0.999223 0.827068 -0.238033
v 0.847518 0.895632 -0.309721
v 0.791777 0.904276 -0.261574
v 0.965714 0.860717 -0.290735
v 0.911586 0.883701 -0.318438
v 0.769001 0.907789 -0.00808842
v 0.756434 0.920648 -0.109808
v 0.783242 0.916606 -0.2307
v 0.960722 0.849575 -0.0136137
v 1.01321 0.831576 -0.134652
v 0.987907 0.853651 -0.264319
v 1.0093 0.835967 -0.201648
v 0.879913 0.894864 -0.318039
v 0.801553 0.566916 0.0952942
v 0.882691 0.5416 0.104779
v 0.905225 0.505334 0.0931721
v 0.631714 0.546867 -0.0541492
v 0.663988 0.557177 0.000473494
v 0.670382 0.522776 -0.181811
v 0.977074 0.466704 0.0485704
v 1.10541 0.459501 -0.0596616
v 1.02479 0.444861 -0.150954
v 0.812409 0.549737 -0.318942
v 0.76296 0.540286 -0.295931
v 0.989738 0.524598 -0.327582
v 0.920809 0.541272 -0.339952
v 0.728682 0.563967 0.0650764
v 0.729787 0.853821 -0.129503
v 1.04694 0.470363 -0.277174
v 0.75371 0.862323 -0.227572
v 0.967847 0.789822 0.00369638
v 0.879061 0.550497 -0.335121
v 0.772976 0.566474 0.0862548
v 0.790059 0.566475 0.0929518
v 0.799657 0.5376 0.101487
v 0.805688 0.536586 0.103579
v 0.795781 0.554285 0.0986192
v 0.830699 0.561519 0.100433
v 0.87092 0.545923 0.106344
v 0.883138 0.512957 0.11149
v 0.887483 0.506889 0.110123
v 0.877935 0.528462 0.109354
v 0.896027 0.517464 0.0986014
v 0.905712 0.476367 0.0990601
v 0.910731 0.470953 0.0959638
v 0.900745 0.496619 0.0996777
v 0.621557 0.518971 -0.0515574
v 0.624319 0.522952 -0.0417546
v 0.624642 0.52714 -0.0685325
v 0.648732 0.553587 -0.0206297
v 0.656128 0.528679 0.00583994
v 0.665721 0.529422 0.0186757
v 0.650475 0.541724 -0.00795122
v 0.704099 0.528293 -0.25822
v 0.682911 0.521842 -0.216055
v 0.662324 0.493843 -0.183402
v 0.655758 0.495246 -0.160528
v 0.673325 0.507047 -0.201405
v 0.931478 0.481698 0.0761708
v 0.957508 0.448861 0.0628734
v 0.976067 0.437014 0.0523484
v 0.996479 0.433813 0.0412402
v 1.07494 0.461816 0.0024899
v 1.10954 0.441638 -0.0315604
v 1.10943 0.43037 -0.054062
v 1.09309 0.423475 -0.0757207
v 1.03586 0.44309 -0.121272
v 1.0254 0.421043 -0.140235
v 1.02624 0.414855 -0.151841
v 1.03479 0.415731 -0.163627
v 0.847004 0.55112 -0.327318
v 0.827829 0.549299 -0.323271
v 0.810738 0.519933 -0.321115
v 0.802347 0.517697 -0.31798
v 0.817702 0.533685 -0.323029
v 0.776178 0.541894 -0.302509
v 0.760093 0.5107 -0.298627
v 0.753384 0.50793 -0.295435
v 0.76657 0.525926 -0.300273
v 1.0172 0.50247 -0.316211
v 0.999783 0.513124 -0.325036
v 0.992365 0.495646 -0.33049
v 0.98379 0.496654 -0.333207
v 0.996825 0.503498 -0.329028
v 0.943504 0.533223 -0.338249
v 0.921245 0.511803 -0.342636
v 0.914422 0.514389 -0.343561
v 0.930714 0.521543 -0.341973
v 0.707015 0.560361 0.0486997
v 0.724312 0.535124 0.0721835
v 0.734757 0.536249 0.0776343
v 0.713558 0.547705 0.0619398
v 0.736871 0.885287 -0.106252
v 0.743672 0.882791 -0.144214
v 1.05698 0.455357 -0.224163
v 1.05489 0.4428 -0.266646
v 1.05053 0.441419 -0.280871
v 1.04567 0.446593 -0.291756
v 0.756259 0.882647 -0.202309
v 0.969949 0.818466 -0.0117032
v 0.893054 0.547848 -0.337614
v 0.87865 0.520555 -0.337956
v 0.870787 0.520896 -0.33604
v 0.886336 0.534826 -0.338115
v 0.76951 0.537386 0.093074
v 0.779505 0.537497 0.0966974
v 0.756286 0.551547 0.0850181
v 0.78755 0.537667 0.0994135
v 0.79745 0.586431 0.0906408
v 0.821108 0.540757 0.104027
v 0.82914 0.532819 0.107351
v 0.839486 0.527589 0.108086
v 0.870935 0.517147 0.112673
v 0.859493 0.534804 0.108426
v 0.876484 0.560713 0.101535
v 0.894024 0.504991 0.105727
v 0.896243 0.48921 0.104262
v 0.899575 0.528372 0.0923818
v 0.636859 0.527874 -0.0974005
v 0.635593 0.531225 -0.0274949
v 0.639964 0.525704 -0.0165671
v 0.660439 0.572729 -0.0140731
v 0.699757 0.498959 -0.262163
v 0.688917 0.496884 -0.252505
v 0.713837 0.512917 -0.26898
v 0.675609 0.493254 -0.219125
v 0.683321 0.508243 -0.234629
v 0.682608 0.53895 -0.198838
v 0.921125 0.466978 0.0861818
v 0.930191 0.452711 0.0816701
v 0.943138 0.446304 0.0733529
v 0.946904 0.478647 0.0658326
v 1.0504 0.438327 0.0161442
v 1.07824 0.432101 0.00553029
v 1.09949 0.43387 -0.0125055
v 1.10115 0.468189 -0.0179755
v 1.05156 0.422025 -0.111799
v 1.03805 0.4131 -0.120883
v 1.02927 0.412928 -0.130464
v 1.02667 0.447315 -0.132553
v 0.845655 0.521155 -0.32952
v 0.836246 0.521919 -0.328699
v 0.857036 0.535961 -0.331673
v 0.82658 0.519753 -0.325011
v 0.820405 0.566842 -0.321164
v 0.783705 0.522731 -0.30932
v 0.773987 0.512482 -0.304666
v 0.741141 0.533829 -0.283478
v 0.770012 0.558953 -0.298173
v 1.02116 0.473472 -0.319171
v 1.01395 0.476846 -0.321674
v 1.02504 0.48044 -0.314946
v 1.00309 0.48419 -0.327646
v 1.00732 0.494016 -0.324854
v 0.992879 0.535602 -0.325784
v 0.958477 0.509601 -0.338622
v 0.944617 0.503891 -0.341156
v 0.929963 0.554256 -0.338612
v 0.68925 0.539424 0.0425434
v 0.700906 0.531969 0.0546851
v 0.719896 0.57929 0.0537762
v 1.05737 0.429417 -0.203519
v 1.06053 0.425788 -0.227735
v 1.05915 0.430394 -0.249864
v 1.05429 0.465049 -0.25
v 0.766941 0.890323 -0.22812
v 0.771323 0.866265 -0.259157
v 0.736361 0.824823 -0.185441
v 0.947398 0.81682 0.0162482
v 0.9959 0.787061 -0.0310831
v 0.900338 0.523717 -0.341406
v 0.892893 0.518457 -0.340194
v 0.887035 0.567917 -0.335412
v 0.807886 0.622801 0.083388
v 0.78885 0.621669 0.0785258
v 0.813248 0.536142 0.104938
v 0.816085 0.585532 0.0929585
v 0.862992 0.604126 0.0936481
v 0.88832 0.567883 0.0941344
v 0.891211 0.502002 0.107836
v 0.890823 0.533917 0.100735
v 0.907734 0.557443 0.0796044
v 0.639607 0.505945 -0.116296
v 0.651311 0.58722 -0.0421543
v 0.628608 0.523484 -0.0356818
v 0.640633 0.555643 -0.036775
v 0.699065 0.562428 -0.236145
v 0.681971 0.579362 -0.163916
v 0.915857 0.465862 0.0920037
v 0.916066 0.514522 0.0815708
v 1.02427 0.499672 0.0227241
v 1.02366 0.43199 0.0285308
v 1.0299 0.465469 0.0224852
v 1.0619 0.485613 -0.0992166
v 1.07224 0.418611 -0.0960148
v 1.06191 0.451045 -0.101534
v 0.838065 0.607357 -0.323043
v 0.79785 0.584309 -0.31032
v 0.792745 0.516773 -0.313575
v 0.792957 0.550185 -0.310435
v 0.737502 0.504375 -0.286909
v 0.728266 0.502174 -0.28135
v 0.747702 0.520569 -0.290144
v 0.7633 0.595857 -0.290426
v 1.03264 0.477969 -0.304031
v 1.00183 0.545627 -0.317259
v 0.968158 0.566877 -0.329432
v 0.973468 0.499991 -0.336298
v 0.968098 0.534092 -0.333401
v 0.69374 0.595804 0.0177137
v 0.677614 0.531558 0.0315636
v 0.688685 0.563999 0.0282275
v 1.03958 0.486144 -0.178537
v 1.04725 0.418795 -0.181912
v 1.0465 0.453226 -0.184846
v 0.738325 0.851769 -0.162622
v 0.744377 0.851408 -0.201368
v 0.90572 0.583018 -0.337017
v 0.907373 0.515246 -0.342632
v 0.905012 0.549317 -0.339462
v 0.803318 0.597837 0.0882407
v 0.791796 0.597296 0.0857338
v 0.743771 0.62095 0.0564203
v 0.822213 0.569193 0.0973435
v 0.832329 0.613324 0.0887447
v 0.823361 0.598013 0.0905932
v 0.819595 0.643144 0.0802889
v 0.816629 0.615403 0.0862187
v 0.869598 0.577005 0.0995502
v 0.882148 0.581352 0.0954764
v 0.893443 0.559833 0.0909389
v 0.886397 0.549661 0.100179
v 0.904336 0.535681 0.0865095
v 0.930914 0.760194 0.0439656
v 0.647378 0.497691 -0.138051
v 0.661223 0.54841 -0.134014
v 0.65992 0.523081 -0.148858
v 0.659733 0.592292 -0.0303369
v 0.640504 0.564852 -0.046037
v 0.689996 0.536701 -0.230281
v 0.693575 0.564119 -0.212994
v 0.697707 0.537644 -0.246868
v 0.712545 0.571369 -0.255098
v 0.679219 0.553281 -0.179004
v 0.922098 0.494965 0.0804526
v 0.933159 0.533793 0.0668071
v 0.923331 0.523118 0.0745946
v 0.918645 0.570375 0.0702332
v 0.916005 0.54422 0.0761516
v 1.07431 0.525092 -0.00727742
v 1.05339 0.487008 0.00987858
v 1.00122 0.478193 0.0348612
v 1.02895 0.506718 -0.124338
v 1.04319 0.470205 -0.114408
v 1.08318 0.46691 -0.0816639
v 0.830031 0.581094 -0.322077
v 0.874996 0.608769 -0.330521
v 0.812166 0.592353 -0.316258
v 0.782103 0.58436 -0.30198
v 0.804523 0.562301 -0.314539
v 0.765347 0.571643 -0.293835
v 0.754106 0.562548 -0.288191
v 1.00263 0.523033 -0.321988
v 0.99412 0.555378 -0.321275
v 1.00879 0.517797 -0.317495
v 1.0112 0.543922 -0.311837
v 0.981806 0.56839 -0.324842
v 0.945952 0.574239 -0.333995
v 0.978922 0.541442 -0.329047
v 0.679274 0.598675 -0.00314114
v 0.711638 0.600482 0.0361229
v 0.678919 0.572068 0.0110818
v 1.04664 0.518995 -0.222652
v 1.05144 0.478299 -0.203639
v 1.03223 0.460726 -0.163758
v 0.746848 0.871245 -0.1796
v 0.726069 0.80865 -0.146362
v 0.741494 0.80234 -0.231784
v 0.915903 0.585537 -0.33677
v 0.895492 0.588884 -0.335212
v 0.912482 0.559343 -0.339357
v 0.808108 0.579778 0.0932257
v 0.799654 0.635325 0.0795047
v 0.782308 0.591955 0.082922
v 0.73356 0.594641 0.0578588
v 0.857107 0.573002 0.0996109
v 0.873351 0.609066 0.0920343
v 0.909754 0.513856 0.0870351
v 0.898209 0.575253 0.082757
v 0.94518 0.784187 0.0277521
v 0.648603 0.534132 -0.116483
v 0.659356 0.584309 -0.103115
v 0.64862 0.555783 -0.100834
v 0.63687 0.548284 -0.0805947
v 0.670547 0.548939 -0.156686
v 0.693061 0.584063 -0.191292
v 0.938056 0.504675 0.0678208
v 0.96581 0.515506 0.0493754
v 1.08373 0.493149 -0.00522709
v 1.02988 0.473519 -0.125853
v 1.08994 0.526024 -0.064163
v 0.841773 0.577729 -0.325077
v 0.879204 0.582298 -0.332716
v 0.82457 0.61607 -0.319964
v 0.774091 0.607634 -0.296336
v 1.05188 0.487359 -0.230726
v 1.02133 0.513196 -0.147786
v 0.729999 0.834687 -0.146653
v 0.719084 0.823104 -0.118001
v 0.739116 0.822149 -0.21203
v 0.767447 0.624922 0.0687418
v 0.746113 0.578963 0.0715791
v 0.728769 0.626471 0.0427298
v 0.91646 0.809411 0.0398769
v 0.975519 0.728826 0.0212089
v 0.653337 0.601539 -0.0652566
v 0.982026 0.494875 0.043048
v 0.998226 0.536424 0.0332707
v 1.09839 0.513595 -0.0312929
v 1.09883 0.492627 -0.0660391
v 0.857662 0.611413 -0.327203
v 0.868018 0.564552 -0.332256
v 0.886863 0.616392 -0.332244
v 1.0449 0.509079 -0.261532
v 1.02325 0.493862 -0.136134
v 1.02304 0.479358 -0.150902
v 0.722073 0.851392 -0.0941819
v 0.729108 0.767743 -0.196436
v 0.777714 0.615319 0.0751483
v 0.783433 0.665641 0.0649321
v 0.765988 0.591365 0.0770604
v 0.965099 0.760196 0.0182096
v 0.643417 0.577352 -0.0565254
v 0.706903 0.760409 -0.113425
v 1.08434 0.549786 -0.0344424
v 1.07786 0.506074 -0.0845246
v 1.10682 0.480314 -0.0413497
v 0.848458 0.601605 -0.325402
v 0.848965 0.653112 -0.323844
v 0.855016 0.57688 -0.328122
v 1.04773 0.509282 -0.243089
v 1.03964 0.558806 -0.246972
v 1.02182 0.532638 -0.134337
v 1.02829 0.500024 -0.160789
v 1.02374 0.461161 -0.141775
v 0.733468 0.797991 -0.197827
v 0.728161 0.784925 -0.170257
v 0.755776 0.604397 0.0692283
v 0.99572 0.750405 -0.00901768
v 0.655198 0.607774 -0.0526854
v 0.643702 0.572724 -0.0704714
v 0.715197 0.790542 -0.123421
v 1.04546 0.531363 -0.106153
v 0.864161 0.590691 -0.329703
v 1.03815 0.535212 -0.184598
v 0.715056 0.721266 -0.160937
v 0.668307 0.631683 -0.0425433
v 0.654796 0.596494 -0.081626
v 0.717629 0.761124 -0.145715
v 0.709504 0.794175 -0.0740656
v 1.06808 0.539999 -0.0871325
v 1.04309 0.501291 -0.111351
v 1.02608 0.535405 -0.160632
v 1.04505 0.507737 -0.196061
v 0.659503 0.612274 -0.0455847
v 0.66684 0.64154 -0.0529745
v 0.677796 0.642623 -0.106069
v 0.712817 0.801626 -0.0981866
v 1.04159 0.596293 -0.10111
v 1.02845 0.598297 -0.173299
v 0.687271 0.695428 -0.0476018
v 0.666854 0.614537 -0.0980952
v 0.715758 0.824534 -0.0801089
v 1.04922 0.563494 -0.0990908
v 1.03048 0.564353 -0.172595
v 0.676643 0.663688 -0.047984
v 0.665058 0.630874 -0.0758852
v 0.679319 0.610397 -0.133563
v 0.719384 0.813626 -0.0509621
v 1.02814 0.560779 -0.120622
v 1.06369 0.588815 -0.0626952
v 1.03828 0.571047 -0.209768
v 1.01806 0.580753 -0.143312
v 0.686779 0.658711 -0.0266871
v 0.681549 0.689906 -0.0682701
v 0.727408 0.855488 -0.0609672
v 0.715696 0.812945 -0.0647183
v 0.704197 0.762437 -0.0544688
v 0.711082 0.790702 -0.0562837
v 0.718003 0.771409 -0.0329366
v 1.06466 0.567514 -0.0800097
v 1.02365 0.561887 -0.155868
v 0.684029 0.670709 -0.0392899
v 0.675887 0.670925 -0.0588841
v 0.704345 0.714361 -0.028057
v 0.672719 0.658796 -0.0693944
v 0.694094 0.698109 -0.0380354
v 0.701756 0.733567 -0.0442047
v 0.682419 0.674766 -0.0901211
v 0.902108 0.878945 0.0325443
v 0.868777 0.898538 0.0440663
v 0.754114 0.920549 -0.0580164
v 0.99565 0.842918 -0.059217
v 0.810045 0.914042 -0.277586
v 0.830383 0.910088 -0.296744
v 1.01578 0.762455 -0.122944
v 1.01417 0.840131 -0.158414
v 0.986635 0.783155 -0.282547
v 1.01198 0.783729 -0.210736
v 0.782369 0.565197 0.0903281
v 0.837171 0.550292 -0.325996
v 0.775955 0.890574 -0.248549
v 0.791318 0.874542 -0.278789
v 0.806789 0.827622 -0.302317
v 0.802896 0.858439 -0.294161
v 0.830303 0.86651 -0.308406
v 0.777874 0.816997 -0.283817
v 0.861854 0.83777 -0.321251
v 0.778709 0.847379 -0.276785
v 0.75781 0.821023 -0.259622
v 0.791246 0.83248 -0.291814
v 0.789031 0.777919 -0.30034
v 0.786253 0.80407 -0.294062
v 0.770666 0.765288 -0.283586
v 0.850238 0.863957 -0.31656
v 0.869963 0.866377 -0.320541
v 0.89129 0.865141 -0.322446
v 0.880777 0.838729 -0.324162
v 0.837577 0.817986 -0.3177
v 0.915511 0.831288 -0.321574
v 0.872381 0.780213 -0.325727
v 0.896217 0.833137 -0.324023
v 0.906065 0.856573 -0.321849
v 0.872198 0.812068 -0.324972
v 0.903263 0.773621 -0.3267
v 0.887508 0.807663 -0.325132
v 0.852935 0.792875 -0.323514
v 0.904 0.805845 -0.325027
v 0.935515 0.777867 -0.318508
v 0.917463 0.786286 -0.323829
v 0.921008 0.729288 -0.326896
v 0.914411 0.757379 -0.326586
v 0.900901 0.720401 -0.329087
v 0.993539 0.812112 -0.0403724
v 0.729631 0.542701 -0.273861
v 1.03752 0.49019 -0.292244
v 0.892853 0.539464 0.0966414
v 0.64931 0.567516 -0.030999
v 0.717264 0.546977 -0.263658
v 0.733151 0.597093 -0.266235
v 0.723231 0.576095 -0.26221
v 0.721726 0.61815 -0.253214
v 0.784667 0.56034 -0.305638
v 0.75593 0.539113 -0.292166
v 1.01925 0.515063 -0.311829
v 1.01891 0.558709 -0.299138
v 1.02651 0.495092 -0.309116
v 1.02214 0.527901 -0.304795
v 1.01466 0.555275 -0.306851
v 1.02811 0.526829 -0.294153
v 0.998888 0.601774 -0.309332
v 1.00686 0.574358 -0.309042
v 0.999394 0.574851 -0.313609
v 1.00878 0.603478 -0.300854
v 0.984622 0.616183 -0.316966
v 0.992123 0.601496 -0.31406
v 0.989909 0.585641 -0.318643
v 0.987241 0.656383 -0.308191
v 0.987284 0.573929 -0.322382
v 0.991406 0.626971 -0.310192
v 0.999442 0.638752 -0.302373
v 0.974837 0.619508 -0.321457
v 0.980814 0.592927 -0.322356
v 0.972172 0.589158 -0.325649
v 0.956893 0.600673 -0.328638
v 0.953727 0.548128 -0.335278
v 0.670743 0.607262 -0.0209148
v 0.684985 0.630957 -0.0132228
v 0.670198 0.622255 -0.0322337
v 0.70953 0.674359 8.10106e-05
v 0.678082 0.633776 -0.0260034
v 0.696433 0.658647 -0.01122
v 0.697934 0.630514 0.00540844
v 0.703258 0.688932 -0.0162694
v 0.726991 0.728776 0.000154265
v 0.713505 0.715019 -0.0129819
v 0.719355 0.746848 -0.0182914
v 0.746179 0.783289 0.00467321
v 0.710022 0.74409 -0.03374
v 0.730818 0.776339 -0.0135401
v 0.736775 0.756352 0.00222823
v 0.746278 0.720409 0.0266041
v 0.750806 0.75614 0.0198521
v 0.741668 0.83423 -0.0192212
v 0.775578 0.737964 0.0449841
v 0.728579 0.804728 -0.0294559
v 0.760195 0.739252 0.0334163
v 0.775454 0.806111 0.0288081
v 0.740861 0.80553 -0.0101172
v 0.759886 0.818824 0.0107534
v 0.758916 0.681524 0.048802
v 0.764728 0.774289 0.0282656
v 0.764536 0.712949 0.0441279
v 0.784235 0.77477 0.0414352
v 0.775456 0.692379 0.0554684
v 0.800815 0.717529 0.0603363
v 0.789667 0.697159 0.060318
v 0.796625 0.667967 0.0702832
v 0.790075 0.729836 0.053305
v 0.805227 0.766461 0.0512576
v 0.799996 0.743066 0.0544681
v 0.808494 0.737508 0.0606466
v 0.700878 0.575974 0.0365241
v 0.929492 0.59058 -0.335448
v 0.913824 0.652283 -0.332569
v 0.919018 0.617944 -0.334343
v 0.905669 0.625267 -0.334504
v 0.936054 0.641571 -0.33027
v 0.930234 0.618277 -0.333035
v 0.898634 0.562453 -0.337711
v 0.847618 0.607933 0.0914418
v 0.844002 0.561545 0.101306
v 0.876921 0.584417 0.0962792
v 0.883389 0.647381 0.0799968
v 0.897096 0.554174 0.0883761
v 0.905419 0.615346 0.0709633
v 0.8198 0.59186 -0.319689
v 0.805917 0.665361 -0.31164
v 0.774686 0.583872 -0.298476
v 0.73659 0.560568 0.071834
v 0.745651 0.553336 0.0797006
v 0.721055 0.602419 0.0451038
v 0.925624 0.832465 0.0272645
v 0.878382 0.805071 0.0547012
v 0.872264 0.546005 -0.334249
v 0.865047 0.537751 -0.334107
v 0.889577 0.591692 -0.334197
v 0.756019 0.57538 0.0778895
v 1.04168 0.587066 0.0079672
v 0.8348 0.6416 -0.321769
v 0.860365 0.560565 -0.330771
v 0.985629 0.775252 -0.00967458
v 0.633883 0.550355 -0.0653152
v 0.723154 0.750587 -0.17329
v 0.721654 0.705551 -0.208577
v 0.721005 0.722032 -0.186454
v 0.726679 0.738221 -0.208455
v 0.708108 0.664657 -0.177615
v 0.734446 0.766567 -0.22449
v 0.713951 0.695341 -0.175387
v 0.696926 0.678204 -0.135348
v 0.70554 0.679365 -0.158378
v 0.694917 0.639184 -0.15471
v 0.733169 0.717981 -0.242203
v 0.727691 0.7206 -0.224626
v 0.722673 0.67473 -0.233352
v 0.66248 0.628847 -0.0621363
v 1.02635 0.5344 -0.124679
v 0.737187 0.885115 -0.0650371
v 1.0791 0.552631 -0.0613429
v 1.02006 0.541507 -0.145019
v 0.674323 0.649391 -0.0872907
v 0.694867 0.722131 -0.090777
v 1.0144 0.792427 -0.141684
v 1.01651 0.7833 -0.0902265
v 0.977947 0.823169 -0.284708
v 1.00775 0.811457 -0.216048
v 1.00217 0.789348 -0.246341
v 0.757763 0.847094 -0.248344
v 0.746925 0.830133 -0.234552
v 0.768493 0.675367 -0.287244
v 0.87752 0.688828 -0.327598
v 0.85047 0.819547 -0.320681
v 0.853726 0.722224 -0.324067
v 0.823396 0.745004 -0.317947
v 0.732962 0.526811 -0.279473
v 0.723962 0.516897 -0.275021
v 0.738486 0.552565 -0.278293
v 0.734383 0.571573 -0.271867
v 0.750233 0.604901 -0.279043
v 1.04322 0.470544 -0.287978
v 1.04022 0.465121 -0.29652
v 1.04066 0.494808 -0.281863
v 1.03764 0.453706 -0.302751
v 0.709761 0.595195 -0.241074
v 0.715036 0.634308 -0.232898
v 1.03102 0.500785 -0.298786
v 1.02584 0.57425 -0.279939
v 1.00279 0.61332 -0.304537
v 0.992836 0.708643 -0.293521
v 0.706825 0.620271 0.021549
v 0.694556 0.683375 -0.0279326
v 0.778357 0.853668 0.0201498
v 0.743308 0.656492 0.0445865
v 0.758376 0.791076 0.0173084
v 0.790261 0.648885 0.0723304
v 0.808016 0.673369 0.0729446
v 0.800783 0.810794 0.0415275
v 0.826691 0.79025 0.0543422
v 0.90971 0.601194 -0.336345
v 0.900561 0.607933 -0.334756
v 0.895049 0.661327 -0.331161
v 0.899429 0.637197 -0.33295
v 0.893843 0.621236 -0.332979
v 0.903062 0.669123 -0.331915
v 0.941815 0.601845 -0.33232
v 0.840895 0.668235 0.0785449
v 0.849266 0.537511 0.107876
v 0.839565 0.589457 0.0946401
v 0.880515 0.621074 0.0875465
v 0.888554 0.605447 0.084759
v 0.903513 0.587136 0.0768909
v 0.910982 0.589565 0.0718848
v 0.928759 0.618224 0.0587142
v 0.913946 0.614984 0.0668591
v 0.915002 0.66961 0.0601769
v 0.918664 0.641134 0.0613963
v 0.946051 0.660471 0.0478658
v 0.904977 0.649107 0.0662867
v 0.894843 0.617664 0.0765746
v 0.89458 0.705477 0.0634007
v 0.901463 0.681307 0.0631089
v 0.916765 0.718612 0.055046
v 0.891859 0.663431 0.0710614
v 0.813182 0.6338 -0.315276
v 0.793444 0.626953 -0.3063
v 0.894593 0.821513 0.0455287
v 0.865273 0.843518 0.0531326
v 1.06302 0.560671 -0.00700119
v 1.02448 0.677032 -0.0101987
v 0.750582 0.763468 -0.258191
v 0.687368 0.670469 -0.113107
v 0.696301 0.705586 -0.116087
v 0.688127 0.648688 -0.130549
v 0.690312 0.698071 -0.0967607
v 0.700794 0.732855 -0.110791
v 0.706788 0.723459 -0.135231
v 0.700779 0.624317 -0.184544
v 0.688136 0.609039 -0.157804
v 0.730574 0.874583 -0.0834896
v 1.01973 0.72691 -0.167146
v 1.01805 0.771566 -0.172638
v 1.01411 0.795416 -0.117008
v 1.01278 0.808387 -0.0849306
v 1.01158 0.78905 -0.0655204
v 1.02452 0.738158 -0.0689822
v 0.963345 0.779081 -0.306378
v 0.992962 0.808959 -0.268107
v 0.76947 0.636087 -0.291268
v 0.879656 0.647698 -0.329432
v 0.858681 0.758345 -0.324798
v 0.875627 0.734404 -0.326335
v 0.840925 0.747034 -0.322196
v 0.863996 0.734838 -0.325353
v 0.870145 0.708275 -0.326436
v 0.864843 0.664784 -0.326855
v 0.838044 0.6899 -0.321844
v 0.756087 0.590705 -0.285992
v 0.747506 0.572845 -0.281617
v 0.76087 0.623949 -0.285791
v 0.749093 0.662427 -0.270342
v 0.752453 0.637018 -0.276983
v 0.743353 0.618083 -0.271709
v 0.733572 0.629103 -0.261139
v 0.759249 0.666081 -0.279988
v 0.728326 0.655238 -0.25208
v 0.755892 0.715862 -0.270836
v 0.755304 0.68772 -0.273421
v 0.741052 0.691597 -0.258065
v 0.765943 0.704258 -0.282843
v 0.76563 0.735314 -0.280208
v 0.783359 0.715959 -0.297322
v 0.756374 0.744576 -0.268094
v 0.745718 0.725367 -0.25794
v 0.760637 0.77287 -0.270702
v 0.774686 0.702933 -0.29088
v 0.776946 0.73945 -0.291043
v 0.782588 0.664996 -0.298565
v 0.779651 0.765877 -0.292609
v 0.787701 0.746498 -0.299716
v 0.805934 0.759826 -0.310467
v 0.800598 0.722474 -0.30781
v 0.704015 0.604748 -0.216754
v 0.713345 0.657044 -0.209294
v 1.03475 0.534676 -0.276804
v 1.02392 0.55702 -0.290706
v 1.01621 0.589756 -0.293227
v 1.0089 0.642031 -0.289157
v 1.01055 0.616685 -0.294244
v 1.01852 0.613389 -0.280596
v 0.992974 0.67671 -0.300385
v 0.771311 0.828563 0.0196517
v 0.787909 0.830575 0.0321366
v 0.763995 0.849155 0.00582175
v 0.801025 0.861822 0.0334792
v 0.773615 0.879966 0.00782563
v 0.752536 0.874706 -0.0168144
v 0.747199 0.690008 0.037288
v 0.729894 0.685883 0.0211322
v 0.736102 0.669955 0.033538
v 0.721197 0.650194 0.0253474
v 0.718566 0.669229 0.0140817
v 0.721316 0.696422 0.00596266
v 0.70995 0.644903 0.0140764
v 0.802265 0.662023 0.0742641
v 0.802366 0.694067 0.0674185
v 0.81041 0.705699 0.0669483
v 0.817243 0.681096 0.0721749
v 0.826289 0.733441 0.0637288
v 0.815648 0.727769 0.0632426
v 0.818613 0.761494 0.0576118
v 0.81246 0.79458 0.0513631
v 0.788689 0.799884 0.0385531
v 0.796193 0.780784 0.0453609
v 0.897331 0.691773 -0.33015
v 0.88844 0.687554 -0.329297
v 0.887404 0.658209 -0.330312
v 0.883335 0.714914 -0.327637
v 0.88896 0.759235 -0.326809
v 0.892805 0.718688 -0.328647
v 0.913291 0.694076 -0.330208
v 0.840196 0.635902 0.0849161
v 0.854884 0.639017 0.0860671
v 0.828653 0.654779 0.079289
v 0.828151 0.686078 0.0729188
v 0.843948 0.709794 0.0711772
v 0.830521 0.586304 0.0946526
v 0.884505 0.594886 0.0906543
v 0.884446 0.619679 0.0850693
v 0.889498 0.579997 0.0896541
v 0.893099 0.586038 0.0849495
v 0.805442 0.609559 -0.312667
v 0.803866 0.636778 -0.311154
v 0.79148 0.600466 -0.306454
v 0.782643 0.61271 -0.300617
v 0.778992 0.63555 -0.297569
v 0.887975 0.84905 0.0435056
v 0.897442 0.764191 0.0555103
v 0.865947 0.869738 0.0494353
v 0.851703 0.855955 0.0481573
v 0.83144 0.869396 0.0439292
v 0.848651 0.808529 0.0556099
v 0.81644 0.854665 0.0420764
v 0.833571 0.833617 0.0491762
v 0.806687 0.836164 0.0402593
v 0.815355 0.824665 0.0469498
v 1.07104 0.581717 -0.0320541
v 1.0493 0.633735 -0.0356163
v 1.06076 0.607395 -0.0426843
v 1.04881 0.63026 -0.0770874
v 1.05105 0.610848 -0.0122485
v 1.03575 0.642863 -0.00394732
v 0.994462 0.656249 0.0303581
v 1.01735 0.659355 0.0122011
v 0.999591 0.696237 0.0153915
v 1.01358 0.616864 0.0241722
v 1.0344 0.618213 0.00717566
v 1.03317 0.547877 0.0163502
v 1.04703 0.51897 0.0104461
v 0.742851 0.776097 -0.24251
v 0.740673 0.746055 -0.246598
v 0.692995 0.602385 -0.176989
v 1.01426 0.719332 -0.239578
v 1.01463 0.793829 -0.186897
v 1.01527 0.757265 -0.147248
v 1.01767 0.697145 -0.129829
v 1.01554 0.731129 -0.132678
v 1.02231 0.729205 -0.103787
v 1.01658 0.709612 -0.147876
v 1.01787 0.648458 -0.14908
v 1.02322 0.680027 -0.172909
v 1.01657 0.678548 -0.142888
v 1.02335 0.641902 -0.120463
v 1.01779 0.653969 -0.1332
v 1.01933 0.613257 -0.133404
v 1.01754 0.742796 -0.201488
v 1.011 0.759597 -0.0464497
v 1.01872 0.716959 -0.0317262
v 0.959595 0.823204 -0.302743
v 0.973248 0.794503 -0.295021
v 0.980615 0.748797 -0.29723
v 0.972279 0.770338 -0.300832
v 0.96837 0.730032 -0.310158
v 0.832946 0.779446 -0.320642
v 0.858348 0.691286 -0.32502
v 0.873845 0.664835 -0.327987
v 0.87142 0.635294 -0.32874
v 0.862075 0.637165 -0.327217
v 0.840503 0.665071 -0.322529
v 0.828008 0.665905 -0.319644
v 0.825006 0.704309 -0.318373
v 0.842126 0.718159 -0.322423
v 0.738244 0.659074 -0.260538
v 0.730957 0.684214 -0.248266
v 0.774519 0.66123 -0.293137
v 0.806446 0.794072 -0.308743
v 0.821754 0.811846 -0.312251
v 0.826599 0.839145 -0.310544
v 0.818194 0.776246 -0.315904
v 0.79234 0.691104 -0.303864
v 0.700428 0.605997 -0.199021
v 0.70692 0.632109 -0.203251
v 0.719297 0.680618 -0.216571
v 0.714854 0.680328 -0.19531
v 1.0343 0.516898 -0.286725
v 1.03451 0.558235 -0.266481
v 1.02938 0.594972 -0.261536
v 1.00112 0.675741 -0.292061
v 1.00537 0.707832 -0.274376
v 1.00223 0.650452 -0.296459
v 1.00034 0.699441 -0.287117
v 0.996086 0.733706 -0.285514
v 1.00897 0.674176 -0.278844
v 1.0047 0.740365 -0.261142
v 1.01571 0.685627 -0.25341
v 0.996192 0.761525 -0.275455
v 1.01023 0.755725 -0.233963
v 0.736003 0.862146 -0.0411891
v 0.726388 0.839979 -0.0492311
v 0.719547 0.625486 0.0338737
v 0.810881 0.765556 0.0560688
v 0.807584 0.791854 0.0471626
v 0.904329 0.69543 -0.33053
v 0.909486 0.721168 -0.329115
v 0.904383 0.745565 -0.327973
v 0.936341 0.687679 -0.325669
v 0.865812 0.632441 0.0880143
v 0.860833 0.682959 0.0788191
v 0.860493 0.656587 0.0834251
v 0.871564 0.660033 0.0825517
v 0.851686 0.674625 0.0788208
v 0.832132 0.71035 0.0689793
v 0.844973 0.756033 0.0634171
v 0.8315 0.76248 0.0597265
v 0.902237 0.792536 0.0482569
v 0.912224 0.768062 0.0492403
v 0.907393 0.741201 0.0561045
v 0.893557 0.735658 0.059774
v 0.881272 0.759936 0.0602403
v 0.883331 0.718689 0.0662923
v 0.823447 0.81601 0.0497671
v 0.997682 0.723276 0.00306221
v 0.966232 0.692753 0.0385993
v 0.967146 0.613825 0.0424185
v 1.00876 0.57726 0.0274746
v 1.02019 0.525932 0.0233883
v 1.00109 0.50921 0.0329693
v 0.733085 0.742803 -0.231623
v 1.01899 0.75796 -0.102176
v 1.03511 0.684507 -0.0800161
v 1.0276 0.606341 -0.117964
v 1.03357 0.582497 -0.112868
v 1.02219 0.584916 -0.128169
v 1.01958 0.613385 -0.151359
v 1.02503 0.633327 -0.168734
v 1.0301 0.62303 -0.211662
v 1.02953 0.619206 -0.188377
v 1.03313 0.592684 -0.195648
v 1.02678 0.654721 -0.195661
v 1.02521 0.657137 -0.231365
v 1.02226 0.695408 -0.207665
v 1.01968 0.747608 -0.179124
v 1.0091 0.741219 -0.0285993
v 0.952294 0.801084 -0.310826
v 0.955159 0.849287 -0.302109
v 0.948386 0.830981 -0.309432
v 0.932991 0.810645 -0.316708
v 0.981151 0.710626 -0.303654
v 0.822392 0.641348 -0.318496
v 0.817173 0.663007 -0.316324
v 0.813703 0.721047 -0.314643
v 0.812822 0.691567 -0.314396
v 0.832091 0.726804 -0.320438
v 1.03476 0.592929 -0.234586
v 0.923383 0.670521 -0.330134
v 0.923539 0.702948 -0.327968
v 0.937142 0.716676 -0.322957
v 0.934419 0.747438 -0.321233
v 0.961834 0.690457 -0.318493
v 0.957401 0.754629 -0.313514
v 0.874618 0.632715 0.087053
v 0.878174 0.648695 0.0831085
v 0.878121 0.691347 0.0747905
v 0.839151 0.735127 0.0658594
v 0.850831 0.729136 0.0690185
v 0.864563 0.760563 0.0662251
v 0.88552 0.739437 0.0616932
v 0.887991 0.692402 0.0680072
v 0.884891 0.669582 0.0737919
v 0.889088 0.636864 0.0777427
v 1.01262 0.702743 -0.00882324
v 0.945053 0.724951 0.0431427
v 0.969323 0.664412 0.0395873
v 0.986708 0.680494 0.0304427
v 0.988923 0.627863 0.0333386
v 0.988681 0.597595 0.0344492
v 0.958017 0.564788 0.049328
v 0.982615 0.566478 0.0383493
v 0.975766 0.53989 0.0426568
v 1.02834 0.713718 -0.0843128
v 1.03016 0.709762 -0.0578069
v 1.02545 0.690579 -0.107133
v 1.03922 0.671659 -0.0468633
v 1.01992 0.561476 -0.134814
v 1.02328 0.635253 -0.258006
v 1.0246 0.670655 -0.212618
v 1.02089 0.683313 -0.233139
v 1.01811 0.720574 -0.215409
v 1.02112 0.717739 -0.190106
v 0.984886 0.683249 -0.305381
v 0.974678 0.673176 -0.314243
v 0.975996 0.695436 -0.309985
v 0.967556 0.702987 -0.314317
v 0.9594 0.722563 -0.31608
v 0.974878 0.73518 -0.304475
v 0.985188 0.723851 -0.297604
v 0.869639 0.693798 0.0769696
v 0.872351 0.727408 0.070554
v 0.861366 0.713625 0.0737448
v 0.948749 0.749639 0.0345739
v 0.927612 0.734865 0.0488785
v 0.93164 0.708671 0.050363
v 1.03367 0.654708 -0.0986777
v 1.03421 0.625115 -0.105183
v 1.02047 0.671736 -0.121575
v 1.04579 0.647278 -0.0578579
v 1.02768 0.691191 -0.0325962
v 1.01532 0.642551 -0.276196
v 1.02058 0.65998 -0.251301
v 1.02908 0.627672 -0.236818
v 0.87764 0.738772 0.0659909
v 0.94353 0.687882 0.0471848
v 1.04145 0.657687 -0.0794045
v 0.835348 0.904746 0.0385511
v 0.807472 0.911925 0.0261016
v 0.953572 0.881222 -0.298516
v 0.93238 0.889595 -0.310222
v 0.624246 0.513382 -0.0829275
v 1.03118 0.463561 -0.3113
v 0.962073 0.487185 0.0546621
v 1.04931 0.481017 -0.264264
v 0.672297 0.578834 -0.138463
v 1.04224 0.541996 -0.208005
v 0.767536 0.658824 0.0600435
v 0.755781 0.636397 0.0597116
v 0.752903 0.657164 0.0517823
v 0.958758 0.64188 -0.323927
v 0.966021 0.616142 -0.324597
v 0.693981 0.732175 -0.0653226
v 0.69547 0.732338 -0.0544756
v 0.686731 0.705907 -0.0577346
v 0.702029 0.758761 -0.0829932
v 0.707768 0.776323 -0.0974079
v 0.701803 0.762968 -0.0652005
v 0.811696 0.650133 0.0781791
v 0.897303 0.642301 0.0708922
v 0.763903 0.801685 -0.272202
v 0.79307 0.658045 -0.305039
v 0.735654 0.714852 0.0163015
v 0.879845 0.759577 -0.326283
v 0.894123 0.782706 -0.32603
v 0.877236 0.832278 0.0508368
v 0.863838 0.809259 0.0583439
v 0.857472 0.785884 0.0614355
v 1.05425 0.603046 -0.082647
v 0.82048 0.706603 0.0676812
v 0.842601 0.78495 0.0578575
v 0.886819 0.782013 0.0550766
v 0.962707 0.754606 -0.310404
v 0.94435 0.595626 0.0533384
v 0.929342 0.587352 0.0618951
v 0.950064 0.535912 0.0563389
v 0.938823 0.561817 0.0597612
v 0.982028 0.646258 -0.313658
v 0.976835 0.637996 -0.317965
v 0.969372 0.664175 -0.318146
v 0.950646 0.626646 -0.327668
v 0.947387 0.662618 -0.325153
v 0.689478 0.714589 -0.0740964
v 0.871059 0.780691 0.0616871
v 0.968395 0.64422 -0.321
v 0.944845 0.62876 0.0504199
f 104 279 278
f 185 289 220
f 103 104 278
f 327 326 89
f 277 102 103
f 88 378 87
f 393 344 391
f 403 458 460
f 107 108 280
f 215 352 353
f 220 289 217
f 209 207 182
f 281 107 280
f 350 75 76
f 219 86 87
f 203 343 449
f 95 96 272
f 224 73 74
f 272 274 95
f 75 402 74
f 577 389 451
f 186 295 225
f 181 204 202
f 85 220 84
f 275 97 98
f 225 295 222
f 752 619 410
f 202 204 99
f 273 272 96
f 407 222 408
f 291 221 290
f 202 203 181
f 890 774 889
f 288 220 217
f 399 208 348
f 119 297 296
f 183 213 211
f 115 213 114
f 183 211 212
f 284 213 210
f 267 166 176
f 213 285 210
f 122 227 121
f 183 285 213
f 212 116 117
f 120 298 297
f 120 297 119
f 208 347 348
f 118 356 117
f 296 118 119
f 182 207 208
f 214 184 216
f 452 194 697
f 568 1101 159
f 17 160 18
f 567 161 904
f 284 113 114
f 82 352 81
f 141 331 330
f 568 21 20
f 15 569 16
f 568 19 1101
f 255 253 193
f 21 567 22
f 567 162 22
f 211 213 115
f 22 162 23
f 185 439 437
f 337 611 267
f 215 80 81
f 83 288 287
f 160 17 173
f 170 9 8
f 406 215 353
f 176 24 23
f 194 259 257
f 257 259 91
f 165 10 175
f 442 493 189
f 327 89 90
f 218 185 220
f 218 219 185
f 149 150 317
f 382 442 237
f 220 85 218
f 27 177 28
f 326 88 89
f 345 396 454
f 470 340 199
f 163 174 260
f 214 79 80
f 214 216 79
f 1 178 2
f 266 165 333
f 288 83 84
f 333 334 197
f 254 387 448
f 216 1105 78
f 76 77 1105
f 76 1105 286
f 379 439 219
f 569 173 16
f 215 184 214
f 768 770 684
f 78 79 216
f 247 622 319
f 871 868 869
f 172 180 5
f 14 163 15
f 12 11 154
f 154 164 12
f 164 13 12
f 232 231 129
f 16 173 17
f 163 726 569
f 246 244 191
f 181 388 276
f 568 161 21
f 225 223 186
f 266 443 154
f 13 174 14
f 224 186 223
f 274 94 95
f 175 10 9
f 9 170 175
f 293 294 70
f 293 70 71
f 68 291 290
f 336 267 176
f 23 162 176
f 225 72 223
f 334 333 579
f 156 574 177
f 409 291 294
f 67 290 292
f 292 66 67
f 574 179 29
f 171 2 178
f 290 67 68
f 983 815 735
f 292 744 66
f 1016 810 732
f 8 571 170
f 163 14 174
f 160 151 1102
f 164 261 260
f 285 183 400
f 350 76 286
f 176 166 24
f 280 209 206
f 227 122 228
f 112 347 111
f 113 284 283
f 301 126 127
f 128 129 231
f 208 110 111
f 611 155 570
f 209 282 206
f 282 396 206
f 300 125 126
f 453 689 775
f 127 302 301
f 182 282 209
f 233 188 232
f 261 164 154
f 25 24 166
f 654 657 557
f 26 167 27
f 26 570 167
f 611 570 166
f 167 177 27
f 99 204 98
f 207 209 109
f 179 168 30
f 179 30 29
f 395 344 393
f 136 235 135
f 134 306 305
f 133 134 305
f 3 1103 4
f 205 278 279
f 174 13 164
f 304 132 133
f 103 278 277
f 337 709 516
f 181 276 204
f 102 343 101
f 236 237 189
f 140 141 330
f 272 273 577
f 264 263 143
f 257 258 697
f 276 389 201
f 142 143 263
f 201 204 276
f 812 813 732
f 203 100 101
f 139 140 329
f 264 265 748
f 46 47 269
f 149 319 148
f 198 267 336
f 368 370 63
f 148 319 1106
f 360 419 229
f 319 149 317
f 1103 171 1032
f 144 265 264
f 32 320 321
f 405 217 289
f 266 154 165
f 1 30 168
f 143 144 264
f 150 318 317
f 571 580 170
f 492 510 420
f 47 270 269
f 236 235 136
f 275 204 201
f 33 320 32
f 113 283 112
f 25 570 26
f 169 7 6
f 1101 19 1102
f 5 4 172
f 368 369 743
f 2 171 3
f 10 165 11
f 180 6 5
f 83 287 82
f 4 1104 172
f 52 53 311
f 178 1 168
f 28 574 29
f 572 571 7
f 240 242 54
f 100 203 202
f 57 58 313
f 60 244 246
f 241 367 427
f 310 50 308
f 446 193 448
f 99 100 202
f 244 245 191
f 80 215 214
f 702 470 199
f 58 59 314
f 488 505 506
f 115 116 211
f 110 208 207
f 116 212 211
f 190 240 241
f 240 190 242
f 109 110 207
f 553 726 807
f 11 165 154
f 61 245 244
f 323 37 38
f 55 241 240
f 436 250 376
f 60 61 244
f 40 253 255
f 91 92 257
f 321 432 318
f 324 38 39
f 431 373 430
f 40 41 253
f 35 250 249
f 41 254 253
f 192 249 250
f 253 254 193
f 34 35 249
f 122 123 228
f 157 571 572
f 308 51 309
f 6 180 169
f 72 73 223
f 86 219 218
f 224 223 73
f 50 51 308
f 137 237 236
f 271 46 269
f 50 310 49
f 43 44 338
f 130 233 232
f 129 130 232
f 136 137 236
f 199 271 269
f 339 44 45
f 123 229 228
f 54 55 240
f 249 192 251
f 251 34 249
f 85 86 218
f 92 258 257
f 229 187 228
f 109 209 108
f 931 734 179
f 293 225 222
f 72 225 71
f 298 299 226
f 212 356 455
f 227 187 1107
f 226 297 298
f 229 123 124
f 227 228 187
f 125 359 124
f 126 301 300
f 302 303 230
f 229 359 360
f 231 188 504
f 230 301 302
f 233 130 131
f 231 232 188
f 132 362 131
f 133 305 304
f 307 234 306
f 233 362 363
f 235 189 512
f 234 305 306
f 237 137 138
f 235 236 189
f 139 381 138
f 140 330 329
f 312 423 239
f 269 270 702
f 239 242 312
f 308 309 578
f 241 55 56
f 190 312 242
f 57 366 56
f 314 313 58
f 311 242 239
f 54 242 53
f 243 246 316
f 241 366 367
f 245 61 62
f 191 316 246
f 63 370 62
f 368 63 64
f 314 246 243
f 60 246 59
f 431 430 248
f 145 751 749
f 248 251 322
f 318 247 317
f 250 35 36
f 192 322 251
f 37 375 36
f 324 323 38
f 320 251 248
f 34 251 33
f 252 255 325
f 250 375 376
f 254 41 42
f 193 325 255
f 43 386 42
f 339 338 44
f 324 255 252
f 40 255 39
f 328 256 259
f 219 378 379
f 258 92 93
f 194 328 259
f 698 94 274
f 479 697 698
f 327 259 256
f 91 259 90
f 164 260 174
f 195 476 494
f 383 443 384
f 260 261 195
f 331 332 262
f 237 381 382
f 263 196 1108
f 262 330 331
f 265 144 145
f 263 264 196
f 751 145 146
f 1106 372 751
f 333 165 175
f 197 384 266
f 336 176 162
f 198 709 267
f 268 271 340
f 254 386 387
f 270 47 48
f 199 340 271
f 703 49 310
f 489 702 703
f 339 271 268
f 46 271 45
f 96 97 273
f 272 200 274
f 275 273 97
f 273 275 577
f 451 496 498
f 698 93 94
f 204 275 98
f 275 201 577
f 449 343 344
f 450 389 276
f 449 341 388
f 101 343 203
f 279 104 105
f 277 278 205
f 281 775 106
f 106 107 281
f 209 280 108
f 280 206 281
f 396 453 206
f 775 105 106
f 285 398 210
f 677 679 988
f 348 283 614
f 111 347 208
f 213 284 114
f 283 284 210
f 455 356 357
f 414 416 357
f 525 461 518
f 404 224 402
f 353 287 615
f 81 352 215
f 220 288 84
f 287 288 217
f 256 328 438
f 260 195 494
f 291 68 69
f 290 221 292
f 294 69 70
f 294 407 409
f 621 245 370
f 64 369 368
f 225 293 71
f 294 293 222
f 294 222 407
f 294 291 69
f 350 458 402
f 195 261 383
f 455 349 400
f 117 356 212
f 120 121 298
f 296 297 226
f 121 227 298
f 298 227 299
f 1107 464 299
f 414 415 416
f 360 300 418
f 124 359 229
f 127 128 302
f 300 301 230
f 128 231 302
f 302 231 303
f 233 363 422
f 468 502 486
f 363 304 421
f 131 362 233
f 134 135 306
f 304 305 234
f 135 235 306
f 306 235 307
f 492 474 510
f 727 502 468
f 51 52 309
f 308 238 310
f 311 309 52
f 309 311 578
f 469 505 507
f 703 48 49
f 242 311 53
f 311 239 578
f 316 426 243
f 578 423 469
f 367 313 620
f 56 366 241
f 246 314 59
f 313 314 243
f 410 616 221
f 410 221 409
f 621 428 191
f 423 471 364
f 318 150 31
f 317 247 319
f 321 31 32
f 321 430 432
f 247 432 433
f 147 1106 751
f 251 320 33
f 321 320 248
f 321 248 430
f 321 318 31
f 325 435 252
f 630 633 628
f 376 323 643
f 36 375 250
f 255 324 39
f 323 324 252
f 268 340 447
f 434 192 436
f 379 326 680
f 87 378 219
f 259 327 90
f 326 327 256
f 451 498 200
f 557 657 663
f 382 329 441
f 138 381 237
f 141 142 331
f 329 330 262
f 142 263 331
f 331 263 332
f 380 382 441
f 332 1108 508
f 579 175 170
f 197 266 333
f 738 962 816
f 428 316 191
f 582 588 586
f 411 295 186
f 152 700 162
f 614 897 346
f 1014 1066 465
f 422 487 188
f 387 338 687
f 42 386 254
f 271 339 45
f 338 339 268
f 507 238 469
f 598 601 603
f 281 206 453
f 861 863 864
f 450 342 389
f 194 452 328
f 102 277 343
f 277 391 343
f 277 205 391
f 391 894 393
f 397 182 399
f 859 860 760
f 614 346 348
f 182 397 690
f 112 283 347
f 348 347 283
f 614 283 210
f 348 346 399
f 412 414 357
f 198 336 457
f 403 462 404
f 74 402 224
f 351 353 615
f 383 475 195
f 82 287 352
f 353 352 287
f 615 287 217
f 353 351 406
f 354 407 408
f 477 335 384
f 184 406 500
f 408 295 463
f 118 296 356
f 296 412 356
f 296 226 412
f 414 226 464
f 466 230 303
f 198 457 499
f 125 300 359
f 360 359 300
f 418 300 230
f 360 358 419
f 467 234 307
f 360 418 358
f 132 304 362
f 363 362 304
f 421 304 234
f 363 361 422
f 427 425 190
f 822 952 741
f 367 620 365
f 190 425 694
f 57 313 366
f 367 366 313
f 620 313 243
f 367 365 427
f 369 64 65
f 370 368 315
f 744 65 66
f 743 744 612
f 370 315 429
f 370 245 62
f 743 315 368
f 586 587 736
f 622 247 433
f 749 613 748
f 322 192 434
f 754 625 627
f 643 374 376
f 1115 642 1144
f 37 323 375
f 376 375 323
f 643 323 252
f 376 374 436
f 379 680 377
f 476 195 475
f 88 326 378
f 379 378 326
f 680 326 256
f 379 377 439
f 473 262 332
f 361 363 421
f 139 329 381
f 382 381 329
f 441 329 262
f 382 380 442
f 443 261 154
f 475 335 444
f 736 737 197
f 383 384 335
f 385 387 687
f 602 605 607
f 43 338 386
f 387 386 338
f 687 338 268
f 387 385 448
f 449 388 181
f 388 341 450
f 450 276 388
f 451 389 342
f 478 497 1111
f 655 666 657
f 392 776 688
f 343 391 344
f 1053 1052 1086
f 394 395 393
f 894 391 205
f 393 392 394
f 688 889 392
f 496 497 478
f 1122 395 394
f 449 395 341
f 282 182 690
f 396 345 453
f 691 1049 896
f 396 282 690
f 692 400 456
f 692 398 285
f 397 399 346
f 208 399 182
f 455 400 183
f 400 349 456
f 457 336 481
f 457 481 401
f 75 350 402
f 404 402 458
f 350 286 458
f 460 286 461
f 462 355 411
f 186 224 404
f 437 289 185
f 289 437 644
f 500 406 517
f 215 406 184
f 408 222 295
f 409 407 354
f 463 295 411
f 514 335 513
f 410 409 354
f 291 409 221
f 806 929 355
f 745 826 315
f 462 186 404
f 411 355 463
f 464 226 299
f 356 412 357
f 187 419 484
f 465 484 1014
f 226 414 412
f 414 413 415
f 1012 1063 1065
f 787 778 898
f 780 416 415
f 455 416 349
f 417 466 486
f 499 516 709
f 466 418 230
f 926 925 1013
f 465 1139 464
f 229 419 187
f 420 467 492
f 337 944 812
f 467 421 234
f 361 529 520
f 487 422 503
f 233 422 188
f 312 190 694
f 469 423 364
f 593 594 595
f 601 585 595
f 900 695 1037
f 423 312 694
f 696 428 472
f 316 696 426
f 425 427 365
f 241 427 190
f 428 621 429
f 428 371 472
f 743 745 315
f 428 429 371
f 431 248 322
f 432 430 373
f 322 434 636
f 171 178 733
f 433 432 373
f 318 432 247
f 629 626 433
f 509 440 508
f 683 686 681
f 171 733 946
f 446 325 193
f 325 446 681
f 434 436 374
f 250 436 192
f 556 557 546
f 540 494 476
f 699 452 480
f 328 699 438
f 437 439 377
f 219 439 185
f 440 473 508
f 942 1018 1020
f 473 441 262
f 380 531 522
f 493 442 511
f 237 442 189
f 384 443 266
f 261 443 383
f 477 513 335
f 501 519 526
f 736 197 334
f 722 712 714
f 609 991 992
f 607 609 602
f 704 470 490
f 340 704 447
f 448 385 767
f 254 448 193
f 203 449 181
f 449 344 395
f 341 395 1122
f 671 676 678
f 496 451 342
f 451 200 577
f 257 697 194
f 452 390 480
f 688 453 345
f 279 689 205
f 895 777 397
f 152 794 481
f 212 455 183
f 455 357 416
f 349 780 779
f 777 454 397
f 162 700 336
f 1087 499 457
f 460 458 286
f 404 458 403
f 460 461 525
f 459 545 1109
f 286 1105 461
f 403 460 459
f 184 710 216
f 518 710 500
f 462 403 1109
f 186 462 411
f 459 525 539
f 713 717 523
f 299 227 1107
f 414 464 413
f 1014 358 1013
f 926 796 925
f 486 303 504
f 418 466 417
f 492 307 512
f 421 467 420
f 503 468 487
f 503 520 528
f 505 469 364
f 469 238 578
f 269 702 199
f 470 424 490
f 899 792 425
f 965 582 583
f 842 1124 591
f 334 579 580
f 508 1108 491
f 441 473 440
f 511 474 493
f 522 530 511
f 335 475 383
f 476 475 444
f 525 459 460
f 535 540 476
f 737 384 197
f 445 716 513
f 763 450 675
f 705 515 479
f 200 498 705
f 390 452 479
f 670 668 672
f 540 553 494
f 152 904 794
f 907 159 908
f 781 784 782
f 502 417 486
f 405 524 532
f 517 483 500
f 1014 419 358
f 1107 484 465
f 796 417 502
f 706 918 924
f 466 303 486
f 303 231 504
f 503 422 361
f 486 487 468
f 471 707 364
f 708 521 489
f 238 507 708
f 424 470 489
f 952 822 823
f 595 585 593
f 196 264 748
f 852 491 750
f 467 307 492
f 307 235 512
f 511 442 380
f 492 493 474
f 535 476 519
f 260 494 807
f 831 619 833
f 545 459 539
f 496 342 763
f 496 478 498
f 672 676 662
f 660 664 669
f 515 498 478
f 705 479 698
f 1087 457 401
f 499 482 516
f 517 406 351
f 518 500 483
f 476 444 519
f 335 514 444
f 510 725 420
f 796 502 914
f 361 421 529
f 503 361 520
f 188 487 504
f 486 504 487
f 506 505 364
f 505 488 507
f 582 580 157
f 965 592 596
f 521 507 488
f 708 489 703
f 332 508 473
f 509 508 491
f 972 754 627
f 734 735 168
f 474 511 530
f 156 177 731
f 380 441 531
f 511 380 522
f 189 493 512
f 492 512 493
f 445 513 477
f 513 495 514
f 514 711 526
f 526 519 444
f 1112 515 478
f 390 479 515
f 706 925 796
f 558 528 541
f 532 517 351
f 532 533 517
f 518 483 525
f 461 216 710
f 526 444 514
f 1120 535 519
f 542 559 530
f 468 503 528
f 521 488 955
f 424 489 521
f 549 1110 509
f 857 755 854
f 1015 722 714
f 1109 806 355
f 405 289 644
f 533 724 517
f 544 729 539
f 799 718 801
f 711 514 495
f 719 804 523
f 566 729 563
f 535 1120 527
f 528 520 541
f 528 558 727
f 421 420 529
f 725 529 420
f 522 549 542
f 530 559 728
f 441 440 531
f 1110 531 440
f 405 532 351
f 533 532 524
f 533 524 543
f 533 561 563
f 544 539 525
f 802 799 566
f 1120 519 501
f 535 527 540
f 541 520 547
f 573 731 810
f 932 936 808
f 530 522 542
f 405 644 646
f 560 538 543
f 544 525 483
f 545 539 534
f 554 540 527
f 554 553 540
f 725 520 529
f 558 541 1132
f 522 1110 549
f 537 550 559
f 524 646 560
f 1118 561 538
f 483 724 544
f 533 543 561
f 719 717 715
f 806 1109 545
f 556 546 554
f 564 565 538
f 728 510 474
f 541 547 1019
f 933 935 1069
f 1061 920 921
f 631 856 854
f 542 549 1025
f 809 576 931
f 728 1071 510
f 551 648 645
f 649 651 759
f 555 1117 565
f 729 566 534
f 986 661 985
f 726 153 569
f 527 1121 556
f 554 546 986
f 1121 1116 1117
f 560 564 538
f 527 556 554
f 557 556 555
f 656 555 565
f 654 562 653
f 1132 541 536
f 548 914 727
f 537 559 542
f 550 1071 728
f 524 560 543
f 564 560 759
f 538 561 543
f 563 561 552
f 649 551 645
f 651 653 562
f 563 552 566
f 563 544 724
f 759 560 551
f 565 564 562
f 562 654 656
f 1121 1117 555
f 802 552 1146
f 804 718 800
f 567 152 162
f 21 161 567
f 19 568 20
f 906 568 159
f 569 153 173
f 15 163 569
f 570 155 167
f 25 166 570
f 7 571 8
f 580 571 157
f 7 169 572
f 583 572 169
f 811 167 155
f 1041 549 509
f 574 156 179
f 28 177 574
f 168 179 734
f 626 629 631
f 156 731 809
f 537 1024 1022
f 577 201 389
f 272 577 200
f 578 239 423
f 308 578 238
f 175 579 333
f 580 579 170
f 157 583 582
f 580 586 334
f 506 364 707
f 425 792 471
f 157 572 583
f 582 581 588
f 169 593 592
f 583 169 592
f 590 584 588
f 591 840 842
f 585 592 593
f 848 589 963
f 582 586 580
f 587 586 584
f 590 591 584
f 477 737 445
f 581 963 590
f 586 588 584
f 965 964 581
f 844 843 837
f 581 590 588
f 590 589 846
f 843 738 837
f 429 826 825
f 593 169 180
f 585 740 592
f 172 594 180
f 593 180 594
f 597 600 158
f 594 600 599
f 172 600 594
f 596 740 604
f 601 604 740
f 820 951 604
f 733 947 946
f 610 887 886
f 599 595 594
f 424 817 490
f 605 599 597
f 603 601 595
f 158 600 172
f 599 600 597
f 603 595 599
f 601 598 604
f 1033 1032 946
f 770 772 684
f 605 603 599
f 886 602 992
f 598 818 604
f 958 824 957
f 597 1034 607
f 605 602 1128
f 628 633 637
f 632 636 640
f 597 607 605
f 606 1045 609
f 1033 597 158
f 682 683 684
f 606 609 607
f 609 608 991
f 773 642 435
f 610 990 882
f 267 611 166
f 812 611 337
f 221 616 292
f 616 618 746
f 624 625 754
f 196 748 750
f 210 398 614
f 614 398 897
f 217 405 615
f 351 615 405
f 618 616 410
f 612 292 616
f 618 619 617
f 829 832 827
f 619 618 410
f 618 617 746
f 410 354 752
f 713 523 711
f 243 426 620
f 620 426 901
f 245 621 191
f 370 429 621
f 625 622 626
f 1106 624 372
f 623 625 626
f 491 852 973
f 319 622 624
f 625 624 622
f 626 622 433
f 623 627 625
f 433 630 629
f 630 628 629
f 627 623 853
f 972 853 852
f 632 634 636
f 631 623 626
f 630 433 373
f 628 756 629
f 431 634 373
f 630 634 633
f 637 638 756
f 984 576 943
f 434 641 640
f 993 1043 1044
f 630 373 634
f 632 1141 637
f 636 634 431
f 632 633 634
f 1142 1143 1078
f 638 631 756
f 322 636 431
f 636 434 640
f 632 637 633
f 637 635 638
f 1136 949 1082
f 635 858 638
f 374 642 641
f 1047 1045 606
f 641 434 374
f 632 640 639
f 642 374 435
f 639 640 641
f 681 435 325
f 1144 1114 1115
f 252 435 643
f 374 643 435
f 645 644 437
f 405 646 524
f 377 650 437
f 650 377 758
f 648 644 645
f 646 648 560
f 645 650 649
f 390 1112 1113
f 560 648 551
f 644 648 646
f 645 437 650
f 651 649 647
f 758 377 438
f 647 649 650
f 647 870 653
f 562 564 759
f 865 866 867
f 859 861 667
f 647 653 651
f 654 653 652
f 658 657 654
f 654 557 656
f 658 655 657
f 667 655 762
f 555 656 557
f 562 656 565
f 658 654 652
f 666 663 657
f 1126 658 652
f 1126 660 658
f 869 870 647
f 658 660 655
f 664 670 662
f 660 659 664
f 667 666 655
f 864 153 985
f 674 497 675
f 160 760 862
f 986 663 661
f 546 557 663
f 865 670 659
f 662 671 669
f 665 669 671
f 667 861 661
f 669 762 660
f 661 663 666
f 859 667 665
f 661 666 667
f 390 761 480
f 390 515 1112
f 662 669 664
f 762 665 667
f 659 670 664
f 668 1111 672
f 672 674 676
f 765 880 881
f 674 672 497
f 662 670 672
f 450 872 675
f 678 679 677
f 497 763 675
f 674 673 676
f 1122 872 341
f 673 674 675
f 678 676 673
f 671 662 676
f 873 675 872
f 910 908 151
f 679 678 673
f 678 677 881
f 891 392 889
f 876 999 1051
f 256 438 680
f 377 680 438
f 446 767 683
f 681 686 773
f 772 990 888
f 681 446 683
f 446 448 767
f 682 685 686
f 447 768 385
f 767 768 684
f 888 1043 1042
f 1042 682 888
f 682 686 683
f 685 1144 773
f 268 447 687
f 385 687 447
f 996 890 994
f 776 205 689
f 775 689 279
f 776 453 688
f 397 454 690
f 396 690 454
f 456 349 779
f 481 794 1002
f 400 692 285
f 898 692 456
f 693 780 782
f 782 786 693
f 425 471 694
f 423 694 471
f 620 901 365
f 820 604 818
f 428 696 316
f 902 696 472
f 698 697 258
f 452 697 479
f 93 698 258
f 698 274 705
f 452 699 328
f 987 699 480
f 152 481 700
f 336 700 481
f 161 568 906
f 786 783 789
f 703 702 270
f 470 702 489
f 48 703 270
f 703 310 708
f 470 704 340
f 771 704 490
f 200 705 274
f 515 705 498
f 1009 482 922
f 482 1059 1010
f 1036 471 792
f 964 951 966
f 238 708 310
f 521 708 507
f 267 709 337
f 499 709 198
f 500 710 184
f 461 710 518
f 714 713 711
f 523 526 711
f 712 713 714
f 723 833 753
f 714 711 495
f 971 712 970
f 716 495 513
f 714 495 716
f 722 970 712
f 805 929 806
f 927 587 798
f 970 722 723
f 971 713 712
f 718 719 720
f 566 799 534
f 717 719 523
f 720 719 715
f 719 718 804
f 715 805 720
f 545 534 801
f 445 927 716
f 835 832 828
f 1015 714 716
f 723 722 721
f 961 833 723
f 753 619 752
f 517 724 483
f 563 724 533
f 1071 725 510
f 520 725 547
f 807 163 260
f 985 726 553
f 528 727 468
f 548 727 558
f 530 728 474
f 550 728 559
f 539 729 534
f 563 729 544
f 1146 1116 1119
f 799 800 718
f 810 177 167
f 932 809 731
f 812 732 811
f 1017 1068 1070
f 815 178 168
f 733 575 947
f 931 179 156
f 735 734 576
f 973 974 509
f 815 575 733
f 586 736 334
f 737 587 445
f 737 477 384
f 587 737 736
f 472 371 816
f 825 371 429
f 823 955 506
f 883 885 887
f 592 740 596
f 601 740 585
f 818 821 741
f 956 506 707
f 1040 958 1038
f 849 839 847
f 744 743 369
f 745 743 612
f 65 744 369
f 292 612 744
f 612 746 745
f 747 826 746
f 746 612 616
f 617 830 746
f 831 830 617
f 827 816 371
f 749 748 265
f 750 748 613
f 749 265 145
f 754 749 372
f 613 754 972
f 1108 750 491
f 147 751 146
f 372 749 751
f 408 850 354
f 850 753 752
f 354 850 752
f 971 970 851
f 749 754 613
f 754 372 624
f 854 853 623
f 977 858 975
f 629 756 631
f 637 756 628
f 979 981 976
f 809 943 576
f 987 438 699
f 867 868 480
f 649 759 551
f 562 759 651
f 671 880 665
f 760 863 861
f 668 865 761
f 761 865 867
f 660 762 655
f 665 762 669
f 496 763 497
f 450 763 342
f 764 875 874
f 873 679 673
f 879 989 988
f 862 151 160
f 874 679 873
f 794 904 1129
f 768 767 385
f 683 767 684
f 771 447 704
f 771 769 770
f 490 817 884
f 772 682 684
f 771 770 768
f 770 769 772
f 447 771 768
f 771 490 884
f 882 772 769
f 990 991 888
f 681 773 435
f 685 773 686
f 688 890 889
f 877 679 874
f 105 775 279
f 453 775 281
f 392 393 894
f 453 776 689
f 895 397 346
f 998 893 774
f 898 778 897
f 456 779 787
f 349 416 780
f 787 779 693
f 415 1138 782
f 693 779 780
f 1138 1140 1137
f 1089 1099 1059
f 415 782 780
f 783 784 785
f 1003 1004 1088
f 784 786 782
f 784 781 1149
f 784 783 786
f 923 920 1062
f 923 924 921
f 788 789 790
f 1057 778 787
f 786 1123 693
f 791 1123 789
f 1050 1049 691
f 1057 1123 791
f 790 789 783
f 789 788 791
f 783 785 1099
f 481 1002 1003
f 1055 791 788
f 791 1056 1057
f 899 425 365
f 820 959 1040
f 902 793 901
f 962 903 816
f 152 567 904
f 1002 794 1135
f 907 795 906
f 909 795 907
f 502 727 914
f 1012 706 923
f 914 916 918
f 917 1093 916
f 835 837 832
f 927 928 716
f 799 802 800
f 801 718 720
f 730 803 800
f 523 804 526
f 545 801 720
f 534 799 801
f 552 802 566
f 730 800 802
f 1119 803 730
f 804 501 526
f 800 803 804
f 804 803 501
f 969 715 851
f 850 968 969
f 545 720 806
f 805 806 720
f 553 807 494
f 163 807 726
f 932 934 936
f 1022 1024 1026
f 932 731 573
f 943 809 1029
f 177 810 731
f 811 810 167
f 812 811 155
f 810 811 732
f 611 812 155
f 812 944 813
f 1093 1100 1070
f 813 935 1016
f 949 575 948
f 1079 1077 635
f 178 815 733
f 168 735 815
f 371 825 827
f 845 962 843
f 521 955 954
f 739 883 884
f 598 1127 821
f 820 818 741
f 886 1127 603
f 819 822 821
f 952 824 959
f 820 742 951
f 598 821 818
f 819 885 822
f 739 953 822
f 741 821 822
f 739 817 953
f 817 954 953
f 957 824 956
f 820 741 959
f 429 315 826
f 825 747 827
f 746 826 745
f 747 825 826
f 829 827 747
f 816 827 832
f 829 747 830
f 798 840 841
f 747 746 830
f 832 829 828
f 831 617 619
f 828 829 830
f 619 753 833
f 828 830 831
f 835 836 834
f 832 738 816
f 961 721 836
f 828 831 960
f 838 840 591
f 837 738 832
f 836 835 828
f 835 834 837
f 836 828 960
f 841 840 834
f 834 838 837
f 591 844 838
f 840 838 834
f 847 844 846
f 844 847 839
f 695 900 1125
f 834 836 841
f 840 798 842
f 836 721 841
f 928 927 798
f 587 1124 798
f 584 1124 587
f 844 837 838
f 843 839 845
f 846 844 591
f 843 844 839
f 839 849 967
f 793 902 903
f 590 846 591
f 846 589 847
f 589 848 847
f 847 848 849
f 589 590 963
f 849 848 1038
f 1038 848 742
f 839 967 845
f 463 968 408
f 968 463 929
f 723 753 851
f 753 850 969
f 972 852 750
f 973 852 755
f 854 623 631
f 852 853 755
f 977 856 638
f 755 853 854
f 976 981 930
f 856 857 854
f 638 856 631
f 856 855 857
f 855 975 980
f 974 973 755
f 1035 1082 1083
f 975 858 757
f 860 859 665
f 861 859 760
f 880 860 665
f 913 912 765
f 863 760 160
f 173 864 863
f 760 860 862
f 912 860 765
f 160 173 863
f 864 173 153
f 153 726 985
f 861 864 661
f 670 865 668
f 866 865 659
f 1126 866 659
f 871 758 868
f 868 867 866
f 480 761 867
f 869 868 866
f 758 438 987
f 870 869 866
f 871 647 650
f 1126 870 866
f 653 870 652
f 647 871 869
f 650 758 871
f 341 872 450
f 873 872 764
f 873 764 874
f 675 873 673
f 764 1122 875
f 892 999 1133
f 891 875 394
f 878 877 876
f 891 892 875
f 893 1051 999
f 1133 874 875
f 1001 876 1051
f 878 766 879
f 679 877 878
f 909 911 1008
f 989 879 913
f 881 880 671
f 860 880 765
f 678 881 671
f 881 677 989
f 769 883 882
f 739 885 883
f 884 883 769
f 739 822 885
f 884 769 771
f 739 884 817
f 819 1127 885
f 882 887 610
f 1127 819 821
f 603 1128 886
f 883 887 882
f 886 887 885
f 991 1043 888
f 682 772 888
f 890 688 345
f 891 889 774
f 454 994 345
f 345 994 890
f 891 774 892
f 392 891 394
f 999 774 893
f 876 1133 999
f 890 996 998
f 1053 1131 1000
f 205 776 894
f 392 894 776
f 897 895 346
f 896 895 778
f 895 896 777
f 1057 896 778
f 898 897 398
f 895 897 778
f 692 898 398
f 787 898 456
f 901 899 365
f 900 899 793
f 899 900 792
f 1125 900 793
f 902 901 426
f 899 901 793
f 696 902 426
f 903 902 472
f 816 903 472
f 903 845 1125
f 906 904 161
f 904 906 1129
f 788 1004 1005
f 1004 790 1088
f 907 906 159
f 906 795 1129
f 159 1101 908
f 908 911 907
f 151 862 910
f 911 909 907
f 766 878 1001
f 795 909 1130
f 912 910 862
f 879 1008 913
f 908 910 911
f 910 912 913
f 860 912 862
f 765 989 913
f 1008 879 766
f 911 910 913
f 916 914 548
f 706 796 914
f 1132 916 548
f 915 919 918
f 916 1132 917
f 918 916 915
f 937 941 942
f 915 1093 1070
f 915 1070 919
f 914 918 706
f 921 919 797
f 918 919 924
f 922 1061 921
f 1060 1149 1011
f 922 921 797
f 921 920 923
f 1094 1058 797
f 922 482 1010
f 1011 1062 1060
f 706 1012 925
f 921 924 919
f 706 924 923
f 485 1013 925
f 358 418 926
f 418 417 926
f 796 926 417
f 587 927 445
f 798 841 928
f 841 721 928
f 721 722 1015
f 968 929 805
f 355 929 463
f 936 938 808
f 978 980 975
f 734 931 576
f 156 809 931
f 934 932 573
f 1029 932 808
f 934 573 935
f 536 1018 1091
f 573 1016 935
f 934 933 936
f 1067 935 813
f 933 934 935
f 939 936 933
f 939 938 936
f 937 939 941
f 1021 937 942
f 1022 937 1021
f 943 1076 1075
f 1092 941 939
f 938 939 937
f 1067 1069 935
f 1018 1019 1020
f 1092 939 933
f 942 941 940
f 942 940 1018
f 942 550 1021
f 1076 938 1028
f 943 1075 984
f 337 516 944
f 482 1009 516
f 944 1030 813
f 516 1030 944
f 1031 946 814
f 1103 1032 158
f 983 948 575
f 946 947 814
f 1035 757 858
f 814 947 949
f 575 949 947
f 949 948 1082
f 1080 950 1079
f 1046 1114 1145
f 966 742 848
f 604 951 596
f 823 506 952
f 952 506 956
f 954 817 424
f 822 953 823
f 954 424 521
f 823 953 954
f 506 955 488
f 823 954 955
f 957 956 707
f 952 956 824
f 1036 707 471
f 1036 792 1037
f 1037 958 957
f 849 1039 967
f 952 959 741
f 1040 824 958
f 831 833 960
f 960 833 961
f 721 961 723
f 960 961 836
f 843 962 738
f 903 962 845
f 964 963 581
f 966 963 964
f 581 582 965
f 951 964 596
f 592 965 583
f 596 964 965
f 742 966 951
f 848 963 966
f 1039 849 1038
f 1125 967 695
f 969 968 805
f 408 968 850
f 715 969 805
f 969 851 753
f 723 851 970
f 851 715 971
f 715 717 971
f 971 717 713
f 613 972 750
f 853 972 627
f 974 755 857
f 491 973 509
f 1096 982 1074
f 509 974 1041
f 978 975 757
f 977 975 855
f 976 978 979
f 980 976 982
f 856 977 855
f 858 977 638
f 979 978 757
f 980 978 976
f 979 757 1083
f 983 735 981
f 982 976 930
f 1095 1072 857
f 983 981 979
f 984 735 576
f 1027 1073 1026
f 1095 980 1096
f 948 983 979
f 983 575 815
f 930 981 984
f 735 984 981
f 986 985 553
f 661 864 985
f 554 986 553
f 986 546 663
f 480 868 987
f 758 987 868
f 679 878 988
f 879 988 878
f 881 989 765
f 988 989 677
f 882 990 772
f 991 990 610
f 991 610 992
f 1043 991 608
f 886 992 610
f 609 992 602
f 1044 608 1045
f 993 1044 1046
f 777 1048 454
f 997 995 996
f 454 1048 994
f 1005 1054 788
f 997 996 994
f 998 996 995
f 1049 997 1048
f 788 1054 1007
f 893 998 995
f 890 998 774
f 1133 876 877
f 774 999 892
f 1000 1051 1052
f 1008 1134 909
f 876 1001 878
f 1134 1001 1000
f 1135 794 701
f 1003 1002 905
f 1003 905 1004
f 481 1003 401
f 1005 1004 905
f 788 790 1004
f 1006 1054 1135
f 1135 1054 905
f 1130 701 1129
f 997 1050 1084
f 995 1084 1086
f 1056 1050 691
f 1008 766 1134
f 911 913 1008
f 1058 922 797
f 1030 1009 945
f 1087 482 499
f 1010 1099 1060
f 1064 1140 1139
f 1065 1063 1064
f 923 1062 1063
f 485 925 1012
f 1014 1013 485
f 926 1013 358
f 1014 485 1066
f 419 1014 484
f 716 928 1015
f 721 1015 928
f 810 1016 573
f 813 1016 732
f 1067 813 1068
f 1090 940 1092
f 1091 940 1090
f 1019 1018 536
f 541 1019 536
f 1020 1019 547
f 547 725 1071
f 550 942 1020
f 550 537 1021
f 1022 1021 537
f 1023 1024 1025
f 938 937 1022
f 1072 974 857
f 1026 938 1022
f 1025 1024 537
f 1024 1023 1026
f 542 1025 537
f 1025 549 1041
f 1023 1027 1026
f 1073 1027 1074
f 1072 1096 1097
f 930 1075 1074
f 1028 1074 1075
f 1026 1073 938
f 932 1029 809
f 1076 1029 808
f 1009 1030 516
f 813 1030 945
f 1047 1031 814
f 1033 1034 597
f 171 946 1032
f 1033 946 1031
f 1033 1031 1034
f 158 1032 1033
f 1031 606 1034
f 607 1034 606
f 635 1077 858
f 1082 1035 950
f 792 900 1037
f 707 1036 957
f 1037 695 1039
f 957 1036 1037
f 1040 1038 742
f 1039 1038 958
f 1037 1039 958
f 967 1039 695
f 820 1040 742
f 824 1040 959
f 974 1072 1097
f 1025 1041 1023
f 1145 1042 993
f 685 682 1042
f 1044 1043 608
f 1042 1043 993
f 1044 1045 1081
f 1047 1081 1045
f 609 1045 608
f 1031 1047 606
f 1077 1079 1035
f 639 641 1115
f 814 1136 1047
f 950 1080 1081
f 1049 1048 777
f 994 1048 997
f 896 1049 777
f 1056 691 1057
f 1053 1085 1098
f 997 1049 1050
f 1052 1051 893
f 1001 1051 1000
f 995 1086 893
f 995 997 1084
f 701 1130 1147
f 1000 1052 1053
f 905 1054 1005
f 1098 1054 1006
f 788 1007 1055
f 1050 1055 1007
f 791 1055 1056
f 1050 1056 1055
f 1057 691 896
f 1057 787 1123
f 945 1009 1058
f 922 1058 1009
f 1088 1059 1087
f 1059 1088 1089
f 1060 785 1149
f 1061 1060 920
f 922 1010 1061
f 1060 1061 1010
f 1060 1062 920
f 1063 1062 1011
f 1011 1064 1063
f 923 1063 1012
f 1137 1064 1011
f 1137 1140 1064
f 1064 1139 1066
f 485 1012 1065
f 485 1065 1066
f 1064 1066 1065
f 1068 813 945
f 1069 1067 1017
f 945 1058 1094
f 1017 1067 1068
f 1090 1069 1017
f 1092 1069 1090
f 1094 1068 945
f 919 1070 797
f 550 1020 1071
f 547 1071 1020
f 857 855 1095
f 1027 1023 1097
f 1027 1096 1074
f 938 1073 1028
f 930 1074 982
f 1028 1073 1074
f 984 1075 930
f 943 1029 1076
f 938 1076 808
f 1028 1075 1076
f 1078 1079 635
f 1035 858 1077
f 635 1141 1078
f 1141 632 1142
f 1080 1079 1078
f 950 1035 1079
f 1143 1080 1078
f 1081 1080 1046
f 1044 1081 1046
f 1081 1047 1136
f 1082 950 1136
f 1083 1082 948
f 979 1083 948
f 757 1035 1083
f 1085 1084 1050
f 1052 893 1086
f 1050 1007 1085
f 1098 1007 1054
f 1084 1085 1086
f 1053 1086 1085
f 1088 1087 401
f 482 1087 1059
f 1088 401 1003
f 1089 1088 790
f 783 1089 790
f 1099 785 1060
f 1100 1090 1017
f 917 1132 1091
f 940 1091 1018
f 917 1091 1090
f 941 1092 940
f 933 1069 1092
f 916 1093 915
f 917 1090 1100
f 797 1070 1094
f 1068 1094 1070
f 855 980 1095
f 1096 980 982
f 1097 1096 1027
f 1095 1096 1072
f 1023 1041 1097
f 974 1097 1041
f 1098 1006 1147
f 1085 1007 1098
f 1059 1099 1010
f 783 1099 1089
f 1070 1100 1017
f 917 1100 1093
f 1102 19 18
f 908 1101 151
f 1101 1102 151
f 18 160 1102
f 158 172 1104
f 3 171 1103
f 4 1103 1104
f 158 1104 1103
f 78 1105 77
f 461 1105 216
f 148 1106 147
f 624 1106 319
f 484 1107 187
f 464 1107 465
f 263 1108 332
f 750 1108 196
f 462 1109 355
f 459 1109 403
f 531 1110 522
f 509 1110 440
f 672 1111 497
f 668 761 1113
f 478 1111 1112
f 1111 668 1113
f 390 1113 761
f 1111 1113 1112
f 1114 1144 1145
f 1046 1080 1143
f 642 1115 641
f 1148 1115 1114
f 1117 1118 538
f 1116 1121 1119
f 1118 1117 1116
f 538 565 1117
f 1146 1118 1116
f 561 1118 552
f 803 1119 501
f 1119 730 1146
f 501 1119 1120
f 527 1120 1119
f 556 1121 555
f 527 1119 1121
f 875 1122 394
f 872 1122 764
f 693 1123 787
f 789 1123 786
f 591 1124 584
f 798 1124 842
f 903 1125 793
f 967 1125 845
f 1126 659 660
f 870 1126 652
f 603 1127 598
f 885 1127 886
f 605 1128 603
f 602 886 1128
f 1130 1129 795
f 794 1129 701
f 909 1131 1130
f 1130 1131 1147
f 1131 909 1134
f 1147 1131 1053
f 558 1132 548
f 1091 1132 536
f 874 1133 877
f 892 1133 875
f 1001 1134 766
f 1131 1134 1000
f 1002 1135 905
f 1147 1135 701
f 949 1136 814
f 1081 1136 950
f 1149 1137 1011
f 1138 1137 781
f 782 1138 781
f 1140 415 413
f 464 1139 413
f 1066 1139 465
f 415 1140 1138
f 413 1139 1140
f 637 1141 635
f 1142 632 639
f 1115 1148 639
f 1078 1141 1142
f 1148 1142 639
f 1046 1143 1148
f 773 1144 642
f 1145 1144 685
f 1042 1145 685
f 1046 1145 993
f 802 1146 730
f 1118 1146 552
f 1098 1147 1053
f 1147 1006 1135
f 1046 1148 1114
f 1142 1148 1143
f 784 1149 785
f 1137 1149 781
