# Blender 5.1.2
# www.blender.org
o skirt_annulus_graded
v 0.985541 0.881201 -0.235379
v 0.973350 0.891804 -0.260800
v 0.954421 0.903664 -0.280882
v 0.930065 0.914805 -0.294300
v 0.901903 0.923348 -0.299632
v 0.872748 0.929083 -0.295881
v 0.845308 0.931556 -0.283910
v 0.823907 0.934045 -0.263694
v 0.809220 0.937623 -0.238112
v 0.799152 0.939539 -0.209814
v 0.791671 0.940557 -0.180653
v 0.785279 0.941211 -0.151413
v 0.780055 0.941464 -0.121860
v 0.775724 0.941408 -0.092026
v 0.774733 0.940247 -0.062146
v 0.781243 0.936661 -0.033348
v 0.797610 0.936142 -0.008391
v 0.819768 0.933498 0.011787
v 0.846545 0.927152 0.023661
v 0.874715 0.916896 0.024774
v 0.900694 0.904164 0.016597
v 0.923904 0.892639 0.001495
v 0.943851 0.882202 -0.018474
v 0.963401 0.876833 -0.040328
v 0.980940 0.872222 -0.064072
v 0.994458 0.869080 -0.090648
v 1.002716 0.867789 -0.119488
v 1.005089 0.868499 -0.149457
v 1.001899 0.871031 -0.179130
v 0.995096 0.874714 -0.207932
v 1.302453 0.790396 -0.553474
v 1.281497 0.798414 -0.575457
v 1.259458 0.806731 -0.596238
v 1.236397 0.815322 -0.615761
v 1.212378 0.824164 -0.633971
v 1.187465 0.833233 -0.650819
v 1.161728 0.842505 -0.666259
v 1.135237 0.851954 -0.680248
v 1.108065 0.861553 -0.692747
v 1.080285 0.871277 -0.703724
v 1.051975 0.881099 -0.713147
v 1.023211 0.890992 -0.720990
v 0.994074 0.900929 -0.727233
v 0.964641 0.910882 -0.731858
v 0.934995 0.920825 -0.734852
v 0.905216 0.930731 -0.736208
v 0.875386 0.940571 -0.735921
v 0.845587 0.950319 -0.733993
v 0.815900 0.959948 -0.730428
v 0.786407 0.969433 -0.725236
v 0.757189 0.978746 -0.718432
v 0.728325 0.987863 -0.710034
v 0.699896 0.996758 -0.700066
v 0.671978 1.005407 -0.688554
v 0.644649 1.013786 -0.675530
v 0.617982 1.021873 -0.661030
v 0.592052 1.029645 -0.645094
v 0.566930 1.037081 -0.627765
v 0.542683 1.044160 -0.609091
v 0.519380 1.050864 -0.589122
v 0.497083 1.057173 -0.567914
v 0.475853 1.063070 -0.545525
v 0.455750 1.068540 -0.522017
v 0.436827 1.073567 -0.497452
v 0.419137 1.078138 -0.471900
v 0.402729 1.082239 -0.445430
v 0.387647 1.085861 -0.418114
v 0.373932 1.088992 -0.390028
v 0.361623 1.091624 -0.361248
v 0.350753 1.093750 -0.331853
v 0.341351 1.095365 -0.301924
v 0.333444 1.096463 -0.271543
v 0.327053 1.097042 -0.240793
v 0.322196 1.097100 -0.209759
v 0.318886 1.096637 -0.178525
v 0.317132 1.095654 -0.147177
v 0.316939 1.094154 -0.115801
v 0.318308 1.092142 -0.084483
v 0.321234 1.089622 -0.053309
v 0.325710 1.086601 -0.022364
v 0.331723 1.083088 0.008267
v 0.339257 1.079093 0.038499
v 0.348291 1.074626 0.068251
v 0.358801 1.069699 0.097440
v 0.370758 1.064327 0.125987
v 0.384128 1.058523 0.153813
v 0.398876 1.052304 0.180841
v 0.414961 1.045687 0.206999
v 0.432338 1.038690 0.232214
v 0.450961 1.031332 0.256418
v 0.470777 1.023633 0.279542
v 0.491734 1.015615 0.301526
v 0.513773 1.007299 0.322307
v 0.536833 0.998708 0.341830
v 0.560853 0.989865 0.360040
v 0.585765 0.980796 0.376888
v 0.611502 0.971524 0.392328
v 0.637993 0.962076 0.406316
v 0.665166 0.952476 0.418816
v 0.692945 0.942752 0.429792
v 0.721255 0.932930 0.439215
v 0.750019 0.923037 0.447059
v 0.779157 0.913100 0.453302
v 0.808589 0.903147 0.457927
v 0.838236 0.893204 0.460921
v 0.868015 0.883299 0.462277
v 0.897845 0.873459 0.461990
v 0.927644 0.863710 0.460062
v 0.957330 0.854081 0.456497
v 0.986823 0.844597 0.451305
v 1.016042 0.835283 0.444501
v 1.044905 0.826167 0.436103
v 1.073334 0.817272 0.426135
v 1.101252 0.808622 0.414623
v 1.128582 0.800243 0.401599
v 1.155248 0.792156 0.387099
v 1.181178 0.784384 0.371163
v 1.206301 0.776948 0.353834
v 1.230547 0.769869 0.335159
v 1.253851 0.763166 0.315191
v 1.276148 0.756857 0.293983
v 1.297377 0.750959 0.271594
v 1.317481 0.745489 0.248085
v 1.336403 0.740462 0.223521
v 1.354093 0.735892 0.197969
v 1.370502 0.731790 0.171499
v 1.385584 0.728169 0.144183
v 1.399298 0.725038 0.116097
v 1.411608 0.722405 0.087317
v 1.422478 0.720279 0.057922
v 1.431879 0.718665 0.027993
v 1.439786 0.717566 -0.002388
v 1.446177 0.716987 -0.033138
v 1.451034 0.716929 -0.064173
v 1.454344 0.717392 -0.095407
v 1.456098 0.718375 -0.126755
v 1.456291 0.719875 -0.158130
v 1.454923 0.721887 -0.189448
v 1.451997 0.724407 -0.220622
v 1.447521 0.727428 -0.251567
v 1.441508 0.730941 -0.282198
v 1.433974 0.734936 -0.312430
v 1.424939 0.739403 -0.342182
v 1.414429 0.744330 -0.371371
v 1.402473 0.749702 -0.399918
v 1.389102 0.755506 -0.427744
v 1.374354 0.761725 -0.454773
v 1.358270 0.768342 -0.480931
v 1.340892 0.775339 -0.506146
v 1.322270 0.782697 -0.530349
v 0.808692 0.922659 0.065671
v 0.934601 0.881639 0.054151
v 0.729267 0.953905 -0.034811
v 0.739367 0.957661 -0.177144
v 1.032120 0.854757 -0.052886
v 1.053597 0.853551 -0.171065
v 0.800295 0.944216 -0.311248
v 0.961847 0.892046 -0.335317
v 0.853997 0.907529 0.068954
v 0.777495 0.934561 0.033647
v 0.893928 0.894833 0.059018
v 0.956977 0.875946 0.020053
v 0.736322 0.953720 -0.077875
v 0.750975 0.952091 -0.142331
v 0.764389 0.950711 -0.203564
v 1.000362 0.864075 -0.029346
v 1.033853 0.856254 -0.094425
v 1.036718 0.862630 -0.241368
v 0.840499 0.931854 -0.329722
v 0.783616 0.947744 -0.271485
v 0.988521 0.881555 -0.301641
v 0.919585 0.906191 -0.339021
v 0.758026 0.942711 -0.000822
v 0.751743 0.950262 -0.110722
v 0.777726 0.947822 -0.234003
v 0.974523 0.871585 -0.008756
v 1.036753 0.857175 -0.132131
v 1.008347 0.873260 -0.266606
v 1.031695 0.862363 -0.202716
v 0.879624 0.919285 -0.336852
v 0.698325 0.943845 0.372196
v 0.964143 0.854693 0.399044
v 1.118213 0.806488 0.345021
v 0.375754 1.071298 -0.047040
v 0.424715 1.047089 0.114195
v 0.381902 1.079137 -0.245101
v 1.268360 0.762966 0.223000
v 1.367797 0.738580 0.053161
v 1.403314 0.736569 -0.141934
v 0.679509 1.000073 -0.631437
v 0.543361 1.040370 -0.537524
v 1.193028 0.827845 -0.579569
v 1.049464 0.879050 -0.655379
v 0.518889 1.009169 0.250845
v 0.686172 0.973240 -0.137128
v 1.370194 0.757199 -0.336369
v 0.720119 0.967292 -0.242813
v 1.021432 0.854229 0.028566
v 0.889959 0.932992 -0.680444
v 0.602397 0.978060 0.321540
v 0.648673 0.961338 0.350324
v 0.687924 0.945880 0.400323
v 0.714771 0.936524 0.410084
v 0.667411 0.953863 0.376099
v 0.802483 0.908021 0.400599
v 0.910357 0.872096 0.406391
v 0.968425 0.851803 0.428655
v 0.996526 0.842806 0.422911
v 0.938984 0.862027 0.418655
v 1.068959 0.821541 0.369457
v 1.131007 0.800934 0.371647
v 1.156180 0.793344 0.357077
v 1.099926 0.811196 0.371756
v 0.347533 1.080374 -0.042072
v 0.352556 1.077246 -0.012600
v 0.356329 1.079423 -0.081305
v 0.402250 1.057074 0.062762
v 0.399199 1.054828 0.128070
v 0.412659 1.049073 0.154324
v 0.399581 1.056331 0.095376
v 0.427751 1.070677 -0.379273
v 0.395440 1.077423 -0.300450
v 0.354021 1.088645 -0.251075
v 0.348640 1.088949 -0.221502
v 0.373877 1.083355 -0.276551
v 1.209186 0.779561 0.282270
v 1.264604 0.762386 0.259544
v 1.289449 0.755009 0.242885
v 1.308126 0.749985 0.219874
v 1.332418 0.746415 0.130471
v 1.376721 0.733872 0.088490
v 1.394379 0.729276 0.063664
v 1.404079 0.727486 0.035269
v 1.396430 0.734603 -0.056854
v 1.423733 0.728357 -0.112514
v 1.431858 0.727153 -0.142208
v 1.431293 0.728835 -0.172216
v 0.782458 0.967862 -0.667535
v 0.729871 0.984517 -0.653148
v 0.668068 1.005213 -0.658752
v 0.642225 1.013094 -0.645576
v 0.699086 0.994887 -0.657150
v 0.585122 1.028414 -0.574439
v 0.524398 1.047737 -0.559652
v 0.503567 1.053579 -0.538783
v 0.554519 1.038214 -0.568219
v 1.290270 0.790901 -0.482849
v 1.235406 0.812115 -0.544836
v 1.209955 0.823472 -0.604019
v 1.186533 0.832045 -0.620797
v 1.223725 0.817474 -0.574938
v 1.100177 0.861345 -0.636290
v 1.058460 0.877505 -0.684018
v 1.031142 0.886941 -0.692280
v 1.080167 0.869186 -0.660976
v 0.482303 1.023317 0.209480
v 0.498576 1.014812 0.272268
v 0.519156 1.006994 0.292735
v 0.489334 1.019413 0.241208
v 0.713608 0.962810 -0.109721
v 0.718018 0.963327 -0.149332
v 1.392718 0.745694 -0.254821
v 1.399395 0.746575 -0.316766
v 1.396907 0.748923 -0.347385
v 1.386152 0.753853 -0.375018
v 0.732314 0.961670 -0.210850
v 1.003085 0.861570 0.002863
v 0.944043 0.915046 -0.678867
v 0.890143 0.934427 -0.710467
v 0.861603 0.943803 -0.709404
v 0.917663 0.924601 -0.695721
v 0.586696 0.981984 0.346868
v 0.610940 0.973205 0.362320
v 0.564961 0.990792 0.314196
v 0.635728 0.964293 0.376836
v 0.680008 0.951232 0.345395
v 0.771345 0.917457 0.417666
v 0.797836 0.908076 0.430295
v 0.826113 0.898553 0.433939
v 0.911649 0.870196 0.435952
v 0.876085 0.882568 0.423431
v 0.935395 0.864856 0.385678
v 1.049664 0.826394 0.399981
v 1.078879 0.816891 0.397010
v 1.086807 0.817027 0.341719
v 0.363206 1.079674 -0.131933
v 0.373528 1.067550 0.042942
v 0.375897 1.065238 0.073629
v 0.428345 1.047539 0.081105
v 0.402402 1.079718 -0.392658
v 0.389948 1.082475 -0.365439
v 0.431363 1.071479 -0.419320
v 0.368717 1.086694 -0.309345
v 0.390825 1.080556 -0.332739
v 0.404488 1.072854 -0.268739
v 1.200049 0.780807 0.317835
v 1.227006 0.772520 0.305429
v 1.248830 0.766293 0.285719
v 1.231609 0.773456 0.256140
v 1.335956 0.743431 0.166919
v 1.357045 0.737544 0.145244
v 1.370826 0.734312 0.118726
v 1.344573 0.744029 0.097770
v 1.412172 0.727784 -0.024364
v 1.424593 0.725079 -0.052429
v 1.428500 0.725274 -0.082233
v 1.396703 0.736254 -0.091782
v 0.776704 0.971223 -0.696844
v 0.748904 0.980044 -0.689566
v 0.814279 0.958483 -0.690270
v 0.721344 0.988734 -0.681231
v 0.710682 0.989524 -0.626408
v 0.596325 1.026438 -0.609053
v 0.568719 1.035018 -0.598240
v 0.487169 1.055824 -0.475126
v 0.574636 1.030306 -0.542899
v 1.312569 0.784487 -0.501956
v 1.294168 0.791694 -0.524607
v 1.323535 0.778956 -0.463660
v 1.254382 0.806952 -0.567026
v 1.265396 0.801797 -0.536599
v 1.204052 0.822660 -0.548587
v 1.134129 0.850506 -0.643858
v 1.111796 0.858861 -0.663456
v 1.069104 0.871279 -0.629646
v 0.449025 1.034780 0.200062
v 0.460307 1.029644 0.228329
v 0.512637 1.012854 0.218354
v 1.418573 0.735946 -0.230605
v 1.420677 0.736783 -0.261331
v 1.414190 0.740377 -0.290462
v 1.381073 0.751162 -0.287337
v 0.748648 0.957558 -0.236607
v 0.742856 0.961629 -0.279908
v 0.672004 0.981213 -0.203205
v 0.987739 0.865026 0.035253
v 1.044389 0.848561 -0.009888
v 0.974274 0.905966 -0.697065
v 0.947168 0.915483 -0.708349
v 0.916294 0.923397 -0.662479
v 0.734847 0.934187 0.323895
v 0.656900 0.961648 0.289560
v 0.742512 0.926970 0.417902
v 0.757292 0.924528 0.368916
v 0.888658 0.882078 0.349915
v 1.008396 0.842539 0.349583
v 1.024469 0.833965 0.415084
v 1.022711 0.836267 0.380533
v 1.108945 0.812555 0.284711
v 0.347033 1.086492 -0.161529
v 0.422092 1.053709 -0.001258
v 0.359561 1.073473 0.016673
v 0.392440 1.062730 0.014284
v 0.444240 1.062549 -0.325495
v 0.432412 1.060973 -0.215455
v 1.180588 0.786106 0.340531
v 1.156036 0.796397 0.296767
v 1.273326 0.764654 0.156217
v 1.325412 0.745499 0.195318
v 1.303182 0.754094 0.170207
v 1.349705 0.747738 -0.010684
v 1.411946 0.726347 0.005964
v 1.382512 0.736815 -0.008958
v 0.764817 0.970560 -0.604732
v 0.648756 1.007261 -0.571812
v 0.617047 1.020658 -0.630440
v 0.627255 1.015653 -0.597685
v 0.465102 1.064045 -0.493807
v 0.447580 1.068638 -0.469818
v 0.493787 1.055245 -0.507381
v 0.567192 1.029732 -0.482036
v 1.341594 0.770645 -0.416592
v 1.236616 0.808888 -0.488108
v 1.128970 0.848877 -0.576967
v 1.161821 0.840965 -0.635963
v 1.139815 0.846933 -0.609843
v 0.482460 1.026605 0.142452
v 0.427956 1.042752 0.179746
v 0.458683 1.033247 0.166798
v 1.364568 0.751981 -0.194361
v 1.428696 0.731196 -0.202376
v 1.395967 0.742145 -0.205127
v 0.692024 0.973116 -0.173436
v 0.701267 0.972181 -0.215958
v 0.988996 0.897865 -0.632094
v 1.003064 0.896532 -0.698596
v 0.989703 0.899357 -0.666727
v 0.710190 0.941394 0.342733
v 0.660916 0.958753 0.321029
v 0.570701 0.993488 0.222040
v 0.777162 0.916963 0.389004
v 0.810066 0.908173 0.347260
v 0.784423 0.916002 0.360164
v 0.779138 0.920104 0.312869
v 0.763766 0.923879 0.339035
v 0.907128 0.874736 0.374809
v 0.966155 0.856251 0.354440
v 1.046692 0.830681 0.333664
v 0.990300 0.847086 0.378295
v 1.105471 0.812124 0.316374
v 1.014924 0.853090 0.094557
v 0.344920 1.088686 -0.191554
v 0.393898 1.071983 -0.181054
v 0.372955 1.080012 -0.203355
v 0.436631 1.046911 0.038779
v 0.395074 1.063561 -0.019847
v 0.416370 1.071514 -0.320642
v 0.435203 1.063706 -0.288800
v 0.426591 1.069554 -0.349056
v 0.466394 1.057107 -0.363142
v 0.411244 1.069082 -0.237837
v 1.183757 0.787355 0.294441
v 1.176659 0.792350 0.241270
v 1.168321 0.793683 0.269802
v 1.131305 0.807255 0.242835
v 1.139329 0.803148 0.272058
v 1.283713 0.764404 0.092358
v 1.300084 0.756820 0.136036
v 1.276598 0.761890 0.189988
v 1.337701 0.754852 -0.073861
v 1.367959 0.743144 -0.039500
v 1.364285 0.741422 0.019421
v 0.740775 0.979445 -0.623649
v 0.872117 0.935966 -0.621853
v 0.688534 0.994926 -0.587985
v 0.615529 1.016955 -0.546073
v 0.659244 1.005418 -0.604357
v 0.562769 1.032758 -0.513438
v 0.526865 1.043131 -0.483564
v 1.244133 0.807835 -0.516797
v 1.208546 0.819312 -0.511195
v 1.264511 0.800057 -0.495823
v 1.259990 0.799370 -0.452042
v 1.161639 0.836693 -0.549033
v 1.091611 0.862069 -0.594021
v 1.160871 0.838696 -0.584125
v 0.465642 1.034189 0.101762
v 0.508121 1.016476 0.175610
v 0.451172 1.037380 0.133645
v 1.331766 0.765513 -0.248462
v 1.371893 0.751237 -0.227983
v 1.388519 0.742951 -0.171920
v 0.714937 0.966314 -0.188832
v 0.647142 0.987377 -0.162092
v 0.665950 0.986233 -0.263799
v 1.028431 0.884050 -0.616282
v 0.948275 0.911517 -0.636086
v 1.017387 0.889341 -0.649237
v 0.727704 0.934369 0.367593
v 0.699052 0.947253 0.298980
v 0.631738 0.968963 0.309569
v 0.541047 1.002947 0.228819
v 0.870906 0.886210 0.384686
v 0.928424 0.869579 0.337106
v 1.134959 0.802251 0.319028
v 1.068895 0.825197 0.296514
v 1.009344 0.856619 0.060741
v 0.374960 1.077137 -0.158943
v 0.421175 1.060691 -0.135295
v 0.392152 1.070246 -0.134632
v 0.379720 1.072824 -0.103942
v 0.400620 1.071208 -0.210076
v 0.445879 1.058337 -0.251817
v 1.203073 0.783049 0.252810
v 1.223111 0.778740 0.206435
v 1.313284 0.754050 0.104105
v 1.369475 0.744368 -0.074108
v 1.305848 0.760080 0.032392
v 0.769435 0.970661 -0.637376
v 0.888855 0.931771 -0.648630
v 0.729397 0.981108 -0.581584
v 0.603135 1.018968 -0.504294
v 1.361524 0.756291 -0.260670
v 1.338056 0.757924 -0.137853
v 0.671652 0.979082 -0.158113
v 0.654321 0.983337 -0.128609
v 0.677115 0.981086 -0.234534
v 0.613473 0.977654 0.256259
v 0.557165 0.995563 0.270156
v 0.548246 1.002713 0.185793
v 0.970361 0.868811 0.074518
v 1.069287 0.836539 0.066306
v 0.431784 1.053944 -0.070225
v 1.250531 0.769964 0.200772
v 1.229383 0.778959 0.160455
v 1.309647 0.757039 0.068238
v 1.337696 0.749179 0.040015
v 0.818394 0.953315 -0.613856
v 0.849488 0.945613 -0.665414
v 0.912613 0.922164 -0.613326
v 1.336832 0.766494 -0.301727
v 1.353839 0.751124 -0.106021
v 1.370565 0.747430 -0.142786
v 0.677930 0.974070 -0.099140
v 0.621895 0.998979 -0.227533
v 0.630302 0.970916 0.279886
v 0.659517 0.963345 0.238150
v 0.597871 0.981267 0.287170
v 1.040193 0.846733 0.054619
v 0.406755 1.061223 -0.050371
v 0.594096 1.003354 -0.131036
v 1.275210 0.769092 0.054657
v 1.327646 0.753960 0.010706
v 1.343832 0.745733 0.068493
v 0.790422 0.962752 -0.617783
v 0.797502 0.957882 -0.567001
v 0.808815 0.958130 -0.646978
v 1.339458 0.764277 -0.274636
v 1.291708 0.780077 -0.275168
v 1.316869 0.763318 -0.105641
v 1.351138 0.755014 -0.166195
v 1.386031 0.741119 -0.118671
v 0.650322 0.989355 -0.222857
v 0.630891 0.994297 -0.193215
v 0.584701 0.986959 0.260254
v 1.068506 0.838914 0.023823
v 0.437791 1.050166 -0.034229
v 0.403240 1.064003 -0.082859
v 0.624667 0.993640 -0.138763
v 1.308639 0.762484 -0.034350
v 0.836370 0.948582 -0.638038
v 1.317935 0.767709 -0.200841
v 0.568299 1.014946 -0.192647
v 0.468930 1.038058 0.002312
v 0.428480 1.056676 -0.103153
v 0.602109 1.002590 -0.168819
v 0.621559 0.991644 -0.078104
v 1.296230 0.764937 -0.001308
v 1.338141 0.752990 -0.039403
v 1.317540 0.766079 -0.165500
v 1.343921 0.759913 -0.216652
v 0.446334 1.046102 -0.009311
v 0.471927 1.038854 -0.033522
v 0.479206 1.041443 -0.133736
v 0.631240 0.989941 -0.108106
v 1.247084 0.783103 -0.040055
v 1.258180 0.786557 -0.182929
v 0.530746 1.018301 -0.011008
v 0.449854 1.050749 -0.125903
v 0.651025 0.982237 -0.084673
v 1.276961 0.772636 -0.028058
v 1.290328 0.775944 -0.183059
v 0.498188 1.029180 -0.013489
v 0.462051 1.044968 -0.090750
v 0.454539 1.051587 -0.173778
v 0.646549 0.980823 -0.026620
v 1.285897 0.771922 -0.072990
v 1.244321 0.781368 0.013077
v 1.282844 0.780711 -0.229115
v 1.273691 0.778924 -0.132581
v 0.509383 1.022391 0.048537
v 0.519527 1.025096 -0.073000
v 0.682813 0.970172 -0.053300
v 0.641012 0.984125 -0.056183
v 0.593799 0.998430 -0.030258
v 0.620778 0.989817 -0.036273
v 0.616680 0.988522 0.016880
v 1.268795 0.773954 -0.000373
v 1.292092 0.773927 -0.154290
v 0.512128 1.023119 0.015726
v 0.500920 1.029912 -0.046281
v 0.563911 1.004993 0.036183
v 0.489017 1.035316 -0.075818
v 0.541176 1.013439 0.017417
v 0.572704 1.003892 -0.000020
v 0.507725 1.030817 -0.109577
v 0.912624 0.889652 0.039032
v 0.871014 0.902852 0.050000
v 0.749257 0.948238 -0.053622
v 1.006096 0.863530 -0.056431
v 0.806977 0.940680 -0.284595
v 0.826168 0.935333 -0.304514
v 1.098778 0.835528 -0.108913
v 1.029960 0.860742 -0.158681
v 1.065858 0.856304 -0.307592
v 1.080470 0.846919 -0.216137
v 0.624648 0.969914 0.337483
v 0.755759 0.976410 -0.662080
v 0.760207 0.954936 -0.260629
v 0.768510 0.954252 -0.301934
v 0.769584 0.957070 -0.365607
v 0.777583 0.952840 -0.333752
v 0.810082 0.942717 -0.346065
v 0.721193 0.971497 -0.334328
v 0.851451 0.931269 -0.390583
v 0.740300 0.964017 -0.310874
v 0.699304 0.976725 -0.294127
v 0.749595 0.962529 -0.342650
v 0.722528 0.973817 -0.389734
v 0.729503 0.970128 -0.361953
v 0.680326 0.986399 -0.362456
v 0.837146 0.934559 -0.361771
v 0.866466 0.924998 -0.364267
v 0.898696 0.914362 -0.364492
v 0.882822 0.921013 -0.392737
v 0.805566 0.946746 -0.396987
v 0.945171 0.900010 -0.384598
v 0.864375 0.929965 -0.450103
v 0.914669 0.910542 -0.393735
v 0.925066 0.905739 -0.366272
v 0.865866 0.927901 -0.418557
v 0.946164 0.902757 -0.446303
v 0.898340 0.917409 -0.423286
v 0.828265 0.940983 -0.431800
v 0.937396 0.904117 -0.415462
v 0.993521 0.885572 -0.415384
v 0.965592 0.895215 -0.423750
v 0.994430 0.888087 -0.471882
v 0.973621 0.893970 -0.451988
v 0.951069 0.903822 -0.500191
v 1.025482 0.855668 -0.027165
v 0.471511 1.058930 -0.433654
v 1.343089 0.767891 -0.371250
v 1.043163 0.830445 0.361789
v 0.409944 1.055890 0.035506
v 0.457122 1.061857 -0.396994
v 0.510950 1.044010 -0.395712
v 0.483698 1.052582 -0.387045
v 0.509214 1.042205 -0.347966
v 0.612030 1.019507 -0.574086
v 0.522861 1.045995 -0.514507
v 1.293298 0.788148 -0.447667
v 1.268347 0.793398 -0.387617
v 1.318540 0.779127 -0.433981
v 1.291844 0.786887 -0.412723
v 1.261510 0.797241 -0.419406
v 1.304712 0.780741 -0.374691
v 1.205697 0.816306 -0.431985
v 1.235413 0.806589 -0.434003
v 1.219241 0.813287 -0.461192
v 1.222668 0.808490 -0.387654
v 1.163613 0.832154 -0.471038
v 1.189984 0.822785 -0.457841
v 1.188039 0.824964 -0.488678
v 1.153824 0.832591 -0.414895
v 1.177953 0.829877 -0.520403
v 1.177583 0.825549 -0.431098
v 1.184709 0.821233 -0.391722
v 1.128950 0.845474 -0.508540
v 1.151683 0.838690 -0.523110
v 1.132185 0.846279 -0.546133
v 1.098324 0.858022 -0.557308
v 1.112977 0.855886 -0.611594
v 0.460244 1.037778 0.065516
v 0.491241 1.026890 0.078524
v 0.466754 1.037187 0.034209
v 0.546485 1.007870 0.093980
v 0.484376 1.030429 0.053021
v 0.521241 1.017039 0.077332
v 0.506985 1.019960 0.113224
v 0.547747 1.009011 0.062707
v 0.600089 0.990915 0.078853
v 0.576198 0.999599 0.062979
v 0.603095 0.991540 0.046381
v 0.656243 0.972939 0.067325
v 0.589911 0.997125 0.021705
v 0.634468 0.981302 0.043843
v 0.628187 0.981914 0.073212
v 0.622870 0.980927 0.128276
v 0.647914 0.973924 0.102771
v 0.683783 0.966392 0.016130
v 0.677688 0.961161 0.161522
v 0.650252 0.977668 0.012141
v 0.654857 0.969940 0.136693
v 0.711594 0.953045 0.099600
v 0.664071 0.971802 0.038258
v 0.695089 0.960338 0.062669
v 0.624483 0.977337 0.189619
v 0.680104 0.962791 0.112780
v 0.647610 0.970769 0.168113
v 0.707575 0.952447 0.138254
v 0.655953 0.966292 0.202644
v 0.717681 0.945395 0.212769
v 0.685323 0.955879 0.216887
v 0.694544 0.950811 0.257460
v 0.698640 0.953003 0.186315
v 0.744712 0.938587 0.170182
v 0.724221 0.944537 0.186642
v 0.756483 0.932765 0.209001
v 0.481650 1.024943 0.181188
v 1.056678 0.873661 -0.595067
v 1.006014 0.888273 -0.552411
v 1.025738 0.883189 -0.581161
v 0.985870 0.896767 -0.589322
v 1.052690 0.872192 -0.539137
v 1.049355 0.874703 -0.567435
v 0.963535 0.907650 -0.659660
v 0.849278 0.895062 0.350430
v 0.837866 0.896431 0.398619
v 0.941320 0.864191 0.359747
v 0.977552 0.856448 0.274931
v 1.069661 0.823633 0.322818
v 1.075625 0.825890 0.237989
v 0.711317 0.987991 -0.599852
v 0.697045 0.988149 -0.508404
v 0.595918 1.022602 -0.529386
v 0.532903 1.003512 0.271464
v 0.545404 0.998171 0.295780
v 0.524686 1.010033 0.195078
v 0.961038 0.873210 0.048041
v 0.920654 0.882719 0.124935
v 0.866032 0.941092 -0.684372
v 0.840706 0.949839 -0.691999
v 0.923290 0.919832 -0.637315
v 0.573252 0.989280 0.289596
v 1.215680 0.786977 0.090408
v 0.762036 0.969623 -0.567485
v 0.824865 0.953825 -0.666979
v 1.044245 0.847283 0.016712
v 0.379921 1.071216 -0.073024
v 0.599376 1.005181 -0.202702
v 0.567750 1.018252 -0.255350
v 0.576434 1.013832 -0.224218
v 0.598024 1.007893 -0.248174
v 0.519377 1.032607 -0.222729
v 0.630451 0.997965 -0.263915
v 0.547980 1.022773 -0.215012
v 0.520543 1.029489 -0.167892
v 0.527687 1.028510 -0.195619
v 0.488058 1.041652 -0.196624
v 0.594446 1.011777 -0.302397
v 0.588091 1.012490 -0.274558
v 0.549488 1.026429 -0.298381
v 0.459002 1.044467 -0.060484
v 1.311797 0.763635 -0.078387
v 0.711902 0.960886 -0.059797
v 1.279217 0.769192 0.026095
v 1.310899 0.766686 -0.133657
v 0.482345 1.039085 -0.107229
v 0.553872 1.015406 -0.106237
v 1.073972 0.845182 -0.138192
v 1.071784 0.842631 -0.072501
v 1.027305 0.868786 -0.302503
v 1.053704 0.855932 -0.219553
v 1.071712 0.851671 -0.253433
v 0.716298 0.969984 -0.271514
v 0.692294 0.977251 -0.258215
v 0.621685 1.008976 -0.426753
v 0.876871 0.930408 -0.541834
v 0.830088 0.939045 -0.405007
v 0.819433 0.947356 -0.501150
v 0.760098 0.964652 -0.454881
v 0.468850 1.061054 -0.458626
v 0.447966 1.067182 -0.443161
v 0.492395 1.052801 -0.449118
v 0.496002 1.050167 -0.420155
v 0.543160 1.035336 -0.435163
v 1.365377 0.760036 -0.361367
v 1.363600 0.762000 -0.388995
v 1.344866 0.765928 -0.343623
v 1.366706 0.762285 -0.415309
v 0.478998 1.051249 -0.329143
v 0.511525 1.039404 -0.307077
v 1.325823 0.774682 -0.393048
v 1.268985 0.790251 -0.328683
v 1.205511 0.815074 -0.406028
v 1.129353 0.837195 -0.345071
v 0.512458 1.016606 0.144238
v 0.533277 1.014822 0.042036
v 0.740590 0.945328 0.062245
v 0.586520 0.990102 0.185126
v 0.677496 0.965060 0.084533
v 0.668650 0.959026 0.264272
v 0.742052 0.934390 0.272052
v 0.750574 0.939003 0.122975
v 0.816354 0.915101 0.166566
v 1.003275 0.892031 -0.609686
v 0.966361 0.904345 -0.612068
v 0.937740 0.911413 -0.564161
v 0.958494 0.905541 -0.583919
v 0.939203 0.912956 -0.604824
v 0.970183 0.899906 -0.548315
v 1.075667 0.866212 -0.571456
v 0.834844 0.902844 0.289956
v 0.850040 0.891211 0.422663
v 0.827760 0.901164 0.370626
v 0.961217 0.859939 0.313170
v 1.013393 0.843227 0.302653
v 1.083328 0.821826 0.268480
v 1.102912 0.816460 0.246328
v 1.112007 0.816176 0.191730
v 1.096504 0.820029 0.217185
v 1.061780 0.833540 0.176252
v 1.084707 0.825208 0.191477
v 1.099540 0.822838 0.140686
v 1.057240 0.833351 0.210142
v 1.042955 0.835387 0.263998
v 1.002513 0.852650 0.185668
v 1.033279 0.842284 0.189732
v 1.029994 0.845808 0.140795
v 1.012091 0.847226 0.231035
v 0.703480 0.988078 -0.549632
v 0.655459 1.002730 -0.525310
v 0.938127 0.878605 0.091667
v 0.882299 0.896457 0.103522
v 1.250108 0.776058 0.081285
v 1.140525 0.814195 0.042432
v 0.649138 0.994418 -0.316611
v 0.507750 1.032335 -0.140187
v 0.542160 1.020962 -0.140081
v 0.490921 1.039161 -0.165611
v 0.531496 1.023315 -0.116600
v 0.567314 1.012191 -0.130821
v 0.563824 1.014884 -0.161739
v 0.482778 1.045442 -0.237679
v 0.459687 1.051408 -0.204321
v 0.700706 0.965842 -0.085017
v 1.136412 0.826171 -0.170624
v 1.094337 0.840331 -0.175865
v 1.067146 0.845806 -0.105464
v 1.047366 0.850734 -0.073228
v 1.058521 0.845772 -0.047603
v 1.106751 0.829261 -0.036008
v 1.039872 0.867955 -0.369132
v 1.049425 0.860252 -0.277884
v 0.601972 1.017274 -0.462600
v 0.885234 0.929683 -0.582725
v 0.834195 0.940833 -0.468099
v 0.869598 0.930532 -0.496107
v 0.796040 0.953483 -0.469027
v 0.843954 0.938865 -0.493313
v 0.854493 0.936811 -0.521968
v 0.840063 0.943673 -0.564004
v 0.778556 0.961930 -0.522626
v 0.546089 1.035788 -0.463647
v 0.519459 1.044176 -0.455442
v 0.573505 1.025881 -0.446589
v 0.576752 1.021719 -0.384603
v 0.566810 1.026517 -0.414978
v 0.539099 1.035155 -0.404610
v 0.532880 1.035549 -0.371296
v 0.596370 1.016456 -0.409049
v 0.542726 1.030500 -0.335251
v 0.624088 1.005039 -0.363687
v 0.603572 1.012719 -0.381804
v 0.585842 1.016671 -0.343562
v 0.632308 1.003922 -0.395771
v 0.652558 0.996108 -0.373197
v 0.679512 0.990130 -0.431931
v 0.645029 0.997200 -0.345198
v 0.615574 1.006212 -0.330780
v 0.670756 0.988195 -0.335048
v 0.651165 0.998939 -0.420774
v 0.677053 0.989207 -0.397109
v 0.649788 1.001932 -0.471704
v 0.697969 0.981550 -0.382110
v 0.703002 0.981430 -0.413064
v 0.737698 0.970542 -0.424576
v 0.711410 0.980494 -0.450027
v 0.475661 1.050231 -0.286585
v 0.522323 1.033776 -0.265722
v 1.308078 0.777358 -0.329110
v 1.278935 0.788447 -0.358442
v 1.245095 0.799762 -0.361169
v 1.198247 0.814228 -0.340907
v 1.218351 0.808529 -0.359809
v 1.231581 0.802317 -0.322864
v 1.150898 0.831645 -0.376506
v 0.717767 0.952291 0.073819
v 0.740391 0.943855 0.093124
v 0.717965 0.953764 0.042940
v 0.773832 0.933592 0.077374
v 0.746699 0.944909 0.030148
v 0.721786 0.954506 0.002721
v 0.608876 0.983988 0.159621
v 0.578479 0.995707 0.125961
v 0.580622 0.993509 0.155855
v 0.547565 1.005022 0.143966
v 0.554612 1.003955 0.118667
v 0.573720 0.998695 0.097551
v 0.530160 1.011708 0.125182
v 0.715105 0.943109 0.275725
v 0.725389 0.941267 0.244507
v 0.757119 0.930891 0.242393
v 0.779338 0.921996 0.273592
v 0.809155 0.914630 0.223735
v 0.780569 0.924020 0.224806
v 0.794264 0.921087 0.192873
v 0.780166 0.927559 0.156453
v 0.725974 0.947251 0.120546
v 0.731908 0.943980 0.146846
v 0.942892 0.908098 -0.531803
v 0.910713 0.919252 -0.542295
v 0.910884 0.920657 -0.571629
v 0.893726 0.923538 -0.515692
v 0.907442 0.916753 -0.470469
v 0.922579 0.913655 -0.508644
v 0.991374 0.891166 -0.513412
v 0.831940 0.902155 0.323021
v 0.869069 0.890212 0.316550
v 0.808079 0.910964 0.304442
v 0.809675 0.912026 0.272550
v 0.843847 0.902001 0.247171
v 0.803833 0.908844 0.375120
v 0.985364 0.851094 0.330586
v 0.986281 0.852225 0.301814
v 1.022335 0.839045 0.327280
v 1.040792 0.834037 0.305435
v 0.675772 0.997738 -0.559810
v 0.681963 0.994301 -0.531884
v 0.640724 1.008656 -0.546563
v 0.628198 1.011497 -0.520526
v 0.628181 1.010016 -0.490687
v 0.916019 0.886721 0.075354
v 0.974528 0.864469 0.134009
v 0.876963 0.899481 0.078216
v 0.856822 0.905221 0.096544
v 0.829840 0.914657 0.086060
v 0.857831 0.902477 0.144917
v 0.799187 0.924146 0.098847
v 0.832261 0.912080 0.121720
v 0.772730 0.932530 0.105991
v 0.791948 0.925063 0.128447
v 1.243150 0.780033 0.047629
v 1.192792 0.797584 0.029279
v 1.220909 0.788266 0.029872
v 1.209268 0.794347 -0.014987
v 1.205848 0.791782 0.059153
v 1.171401 0.803216 0.058074
v 1.133706 0.813694 0.097687
v 1.146159 0.810903 0.071148
v 1.107989 0.823818 0.065017
v 1.175234 0.799746 0.102302
v 1.187764 0.796789 0.078568
v 1.240862 0.777124 0.121177
v 1.271635 0.766829 0.123781
v 0.648611 0.993113 -0.286929
v 0.623751 1.002069 -0.301852
v 0.459102 1.052891 -0.230195
v 1.139197 0.829313 -0.252150
v 1.072441 0.848274 -0.190088
v 1.107436 0.834385 -0.143365
v 1.160937 0.815095 -0.110947
v 1.129722 0.825816 -0.119147
v 1.125238 0.825124 -0.075543
v 1.152213 0.819546 -0.142442
v 1.209902 0.800558 -0.143835
v 1.180803 0.811951 -0.179557
v 1.181117 0.809606 -0.134583
v 1.210307 0.797531 -0.085786
v 1.202320 0.801607 -0.114622
v 1.240643 0.788778 -0.111239
v 1.119903 0.833529 -0.208843
v 1.077227 0.838138 -0.018421
v 1.111261 0.825515 0.009268
v 1.007710 0.877168 -0.340808
v 1.043562 0.864980 -0.333894
v 1.085410 0.851940 -0.349639
v 1.060488 0.860390 -0.353991
v 1.076271 0.857489 -0.400426
v 0.788670 0.954025 -0.431037
v 0.825031 0.947155 -0.534221
v 0.865474 0.935356 -0.565560
v 0.859234 0.938874 -0.594800
v 0.832931 0.947362 -0.590758
v 0.779269 0.963001 -0.548836
v 0.749130 0.972324 -0.536137
v 0.748984 0.970302 -0.494578
v 0.792058 0.956223 -0.497612
v 0.559455 1.026214 -0.360142
v 0.567159 1.021740 -0.321419
v 0.627858 1.008324 -0.454604
v 0.754603 0.963517 -0.395678
v 0.780131 0.954841 -0.390798
v 0.795658 0.948617 -0.368844
v 0.763792 0.961780 -0.421723
v 0.682536 0.990865 -0.466718
v 0.469984 1.050806 -0.260497
v 0.496265 1.042181 -0.261634
v 0.547448 1.025762 -0.271474
v 0.539801 1.026875 -0.243099
v 1.320652 0.774409 -0.353298
v 1.288417 0.782692 -0.305822
v 1.254264 0.793395 -0.294191
v 1.163803 0.825713 -0.343024
v 1.143551 0.830252 -0.299848
v 1.182543 0.820544 -0.363546
v 1.145319 0.830954 -0.325669
v 1.114551 0.840563 -0.314534
v 1.174318 0.820642 -0.310982
v 1.115450 0.838456 -0.278194
v 1.168901 0.820572 -0.273667
v 1.091999 0.847058 -0.295358
v 1.105140 0.840096 -0.242765
v 0.697729 0.963672 -0.021737
v 0.672527 0.972311 -0.028024
v 0.531899 1.009128 0.165431
v 0.768763 0.929992 0.183231
v 0.757186 0.935585 0.147736
v 0.967057 0.899603 -0.521515
v 0.975704 0.895224 -0.490966
v 0.955341 0.901040 -0.472679
v 1.032927 0.876599 -0.496558
v 0.901536 0.879400 0.318277
v 0.888373 0.886225 0.268579
v 0.886650 0.885429 0.295987
v 0.924704 0.873442 0.284262
v 0.862189 0.894259 0.280936
v 0.818807 0.910238 0.247877
v 0.848714 0.902765 0.199579
v 0.821662 0.911937 0.194853
v 0.964536 0.869215 0.105006
v 0.991633 0.859977 0.110770
v 1.002206 0.855135 0.137838
v 0.984704 0.859704 0.162168
v 0.941887 0.873773 0.163701
v 0.963927 0.864734 0.198980
v 0.814180 0.917127 0.140313
v 1.088312 0.831348 0.044351
v 1.089182 0.828224 0.101287
v 1.149003 0.806159 0.147488
v 1.203513 0.789107 0.128315
v 1.250428 0.772751 0.145536
v 1.252398 0.770744 0.172744
v 0.611781 1.004917 -0.279648
v 1.098287 0.834256 -0.080124
v 1.159654 0.811671 -0.033737
v 1.242785 0.786291 -0.075521
v 1.263412 0.778731 -0.060564
v 1.265774 0.779685 -0.095369
v 1.243192 0.789680 -0.146240
v 1.224991 0.797169 -0.175851
v 1.232948 0.797128 -0.227789
v 1.237825 0.794155 -0.200461
v 1.262749 0.786423 -0.210520
v 1.203784 0.805746 -0.207386
v 1.199267 0.809272 -0.248198
v 1.164498 0.819290 -0.218752
v 1.116760 0.833336 -0.184139
v 1.086673 0.833819 0.005638
v 1.004748 0.880051 -0.379031
v 0.985740 0.883777 -0.327782
v 0.984425 0.885702 -0.357694
v 0.975609 0.890143 -0.388362
v 1.111667 0.844885 -0.382141
v 0.729428 0.979723 -0.554009
v 0.720027 0.981430 -0.525922
v 0.734564 0.973753 -0.468243
v 0.721043 0.979490 -0.493740
v 0.771299 0.962212 -0.480171
v 1.260190 0.789608 -0.257482
v 1.019563 0.882408 -0.524535
v 1.008033 0.884701 -0.494126
v 1.022428 0.878687 -0.468868
v 1.005434 0.883043 -0.443617
v 1.074060 0.861383 -0.463901
v 1.035557 0.871573 -0.413136
v 0.934886 0.868800 0.309900
v 0.951110 0.864561 0.287428
v 0.947991 0.867863 0.241830
v 0.834676 0.906273 0.222251
v 0.862460 0.896960 0.224943
v 0.897073 0.887420 0.186930
v 0.963488 0.866127 0.173929
v 0.989340 0.855649 0.212827
v 0.984547 0.855674 0.244093
v 1.009819 0.846219 0.266285
v 1.114305 0.823118 0.037190
v 1.051717 0.840595 0.101399
v 1.112376 0.819854 0.115475
v 1.110895 0.821610 0.090070
v 1.152316 0.806499 0.118702
v 1.175639 0.797939 0.135871
v 1.179332 0.794209 0.186234
v 1.195855 0.790095 0.159263
v 1.211604 0.783785 0.181471
v 1.133840 0.820848 -0.046767
v 1.129115 0.820872 -0.015912
v 1.161720 0.812909 -0.072273
v 1.160802 0.809266 0.006917
v 1.289805 0.772454 -0.109564
v 1.216322 0.805477 -0.285113
v 1.187664 0.811992 -0.225870
v 1.174147 0.817556 -0.247917
v 1.140023 0.827711 -0.225469
v 1.144384 0.824886 -0.197698
v 1.133828 0.838303 -0.396961
v 1.115133 0.846698 -0.441505
v 1.109369 0.847133 -0.412017
v 1.084930 0.856214 -0.432238
v 1.054952 0.866425 -0.438399
v 1.086813 0.852805 -0.376316
v 1.108439 0.844703 -0.357087
v 0.916647 0.877746 0.251301
v 0.923667 0.877325 0.213215
v 0.890063 0.887241 0.236993
v 1.036465 0.846663 0.080740
v 1.030261 0.847017 0.114750
v 1.051814 0.839254 0.127662
v 1.192519 0.801706 -0.051638
v 1.221538 0.792251 -0.054273
v 1.182827 0.806941 -0.092444
v 1.187301 0.800773 0.001684
v 1.136245 0.816940 0.015720
v 1.205061 0.810546 -0.312181
v 1.193785 0.812351 -0.273639
v 1.226803 0.800623 -0.257179
v 0.939162 0.873314 0.190968
v 1.077792 0.830752 0.126057
v 1.184366 0.803096 -0.025487
v 0.832686 0.915484 0.050603
v 0.804507 0.925452 0.037367
v 0.962301 0.890491 -0.307125
v 0.938665 0.898927 -0.319733
v 0.344668 1.084638 -0.108645
v 1.346722 0.770432 -0.446329
v 1.240999 0.771731 0.228492
v 1.363286 0.758099 -0.308631
v 0.424972 1.061841 -0.183541
v 1.310681 0.771509 -0.228993
v 0.628739 0.974190 0.224567
v 0.599405 0.983653 0.229115
v 0.603536 0.983563 0.203537
v 1.087262 0.859536 -0.514356
v 1.110562 0.852564 -0.528915
v 0.561646 1.010585 -0.061023
v 0.564016 1.008248 -0.029838
v 0.536194 1.018083 -0.042757
v 0.588030 1.003462 -0.092979
v 0.606931 0.998039 -0.109463
v 0.591657 1.000705 -0.061706
v 0.753114 0.929343 0.299992
v 1.040247 0.837760 0.234329
v 0.695647 0.979365 -0.322861
v 0.668665 0.996951 -0.496890
v 0.601821 0.988860 0.108611
v 0.881230 0.925466 -0.471547
v 0.918439 0.911791 -0.443805
v 0.908101 0.888040 0.101370
v 0.889788 0.892319 0.136916
v 0.878817 0.894568 0.164512
v 1.236226 0.785386 -0.013879
v 0.792470 0.918866 0.249343
v 0.843972 0.905772 0.170680
v 0.946704 0.873622 0.134798
v 1.051808 0.865196 -0.392892
v 1.145333 0.805589 0.183272
v 1.133942 0.807921 0.211981
v 1.193502 0.788128 0.214331
v 1.163719 0.798023 0.213212
v 1.145280 0.836930 -0.445345
v 1.132319 0.842715 -0.475499
v 1.103181 0.852054 -0.469750
v 1.078467 0.863704 -0.539695
v 1.058866 0.868690 -0.509804
v 0.544337 1.017292 -0.080864
v 0.911864 0.883942 0.158657
v 1.105997 0.852455 -0.496459
v 1.121837 0.814429 0.161623
vn 0.3133 0.9485 0.0473
vn 0.3133 0.9485 0.0472
vn 0.0590 0.9961 0.0657
vn 0.5033 0.7215 0.4755
vn 0.2784 0.8209 0.4987
vn 0.5483 0.8044 0.2288
vn 0.3603 0.9151 0.1811
vn 0.4553 0.8903 -0.0105
vn 0.1857 0.9746 0.1255
vn 0.4810 0.8669 0.1309
vn 0.2863 0.9188 -0.2717
vn 0.1489 0.9858 -0.0771
vn 0.2333 0.9412 0.2442
vn 0.4610 0.8859 -0.0511
vn 0.5152 0.8180 -0.2559
vn 0.3496 0.9317 0.0985
vn 0.0885 0.9961 -0.0028
vn 0.1079 0.8909 0.4413
vn 0.3242 0.9119 -0.2516
vn 0.5392 0.8421 -0.0110
vn 0.1637 0.9653 -0.2034
vn 0.5775 0.7658 -0.2828
vn 0.3422 0.9396 0.0110
vn 0.2320 0.9720 -0.0374
vn 0.2708 0.9455 -0.1807
vn 0.5071 0.8212 0.2615
vn 0.2792 0.8210 0.4980
vn 0.2278 0.9660 0.1221
vn 0.2098 0.9776 -0.0156
vn 0.0724 0.9383 0.3383
vn 0.2381 0.8768 0.4178
vn 0.3654 0.8713 -0.3276
vn 0.4735 0.8101 -0.3457
s 0
f 104//1 279//1 278//1
f 185//1 289//1 220//1
f 103//1 104//1 278//1
f 327//1 326//1 89//1
f 277//1 102//1 103//1
f 88//1 378//1 87//1
f 393//1 344//1 391//1
f 403//1 458//1 460//1
f 107//1 108//1 280//1
f 215//1 352//1 353//1
f 220//1 289//1 217//1
f 209//1 207//1 182//1
f 281//1 107//1 280//1
f 350//1 75//1 76//1
f 219//1 86//1 87//1
f 203//1 343//1 449//1
f 95//1 96//1 272//1
f 224//1 73//1 74//1
f 272//1 274//1 95//1
f 75//1 402//1 74//1
f 577//1 389//1 451//1
f 186//1 295//1 225//1
f 181//1 204//1 202//1
f 85//1 220//1 84//1
f 275//1 97//1 98//1
f 225//1 295//1 222//1
f 752//1 619//1 410//1
f 202//1 204//1 99//1
f 273//1 272//1 96//1
f 407//1 222//1 408//1
f 291//2 221//2 290//2
f 202//1 203//1 181//1
f 890//1 774//1 889//1
f 288//1 220//1 217//1
f 399//1 208//1 348//1
f 119//1 297//1 296//1
f 183//1 213//1 211//1
f 115//1 213//1 114//1
f 183//1 211//1 212//1
f 284//1 213//1 210//1
f 267//1 166//1 176//1
f 213//1 285//1 210//1
f 122//1 227//1 121//1
f 183//1 285//1 213//1
f 212//1 116//1 117//1
f 120//1 298//1 297//1
f 120//1 297//1 119//1
f 208//1 347//1 348//1
f 118//1 356//1 117//1
f 296//1 118//1 119//1
f 182//1 207//1 208//1
f 214//1 184//1 216//1
f 452//1 194//1 697//1
f 568//1 1101//1 159//1
f 17//3 160//3 18//3
f 567//1 161//1 904//1
f 284//1 113//1 114//1
f 82//1 352//1 81//1
f 141//1 331//1 330//1
f 568//4 21//4 20//4
f 15//1 569//1 16//1
f 568//5 19//5 1101//5
f 255//1 253//1 193//1
f 21//6 567//6 22//6
f 567//7 162//7 22//7
f 211//1 213//1 115//1
f 22//8 162//8 23//8
f 185//1 439//1 437//1
f 337//1 611//1 267//1
f 215//1 80//1 81//1
f 83//1 288//1 287//1
f 160//9 17//9 173//9
f 170//1 9//1 8//1
f 406//1 215//1 353//1
f 176//1 24//1 23//1
f 194//1 259//1 257//1
f 257//1 259//1 91//1
f 165//1 10//1 175//1
f 442//1 493//1 189//1
f 327//1 89//1 90//1
f 218//1 185//1 220//1
f 218//1 219//1 185//1
f 149//1 150//1 317//1
f 382//1 442//1 237//1
f 220//1 85//1 218//1
f 27//1 177//1 28//1
f 326//1 88//1 89//1
f 345//1 396//1 454//1
f 470//1 340//1 199//1
f 163//1 174//1 260//1
f 214//1 79//1 80//1
f 214//1 216//1 79//1
f 1//10 178//10 2//10
f 266//1 165//1 333//1
f 288//1 83//1 84//1
f 333//1 334//1 197//1
f 254//1 387//1 448//1
f 216//1 1105//1 78//1
f 76//1 77//1 1105//1
f 76//1 1105//1 286//1
f 379//1 439//1 219//1
f 569//1 173//1 16//1
f 215//1 184//1 214//1
f 768//1 770//1 684//1
f 78//1 79//1 216//1
f 247//1 622//1 319//1
f 871//1 868//1 869//1
f 172//11 180//11 5//11
f 14//1 163//1 15//1
f 12//1 11//1 154//1
f 154//1 164//1 12//1
f 164//1 13//1 12//1
f 232//1 231//1 129//1
f 16//12 173//12 17//12
f 163//1 726//1 569//1
f 246//1 244//1 191//1
f 181//1 388//1 276//1
f 568//13 161//13 21//13
f 225//1 223//1 186//1
f 266//1 443//1 154//1
f 13//1 174//1 14//1
f 224//1 186//1 223//1
f 274//1 94//1 95//1
f 175//1 10//1 9//1
f 9//1 170//1 175//1
f 293//1 294//1 70//1
f 293//1 70//1 71//1
f 68//1 291//1 290//1
f 336//1 267//1 176//1
f 23//1 162//1 176//1
f 225//1 72//1 223//1
f 334//1 333//1 579//1
f 156//1 574//1 177//1
f 409//1 291//1 294//1
f 67//1 290//1 292//1
f 292//1 66//1 67//1
f 574//1 179//1 29//1
f 171//14 2//14 178//14
f 290//1 67//1 68//1
f 983//1 815//1 735//1
f 292//1 744//1 66//1
f 1016//1 810//1 732//1
f 8//1 571//1 170//1
f 163//1 14//1 174//1
f 160//1 151//1 1102//1
f 164//1 261//1 260//1
f 285//1 183//1 400//1
f 350//1 76//1 286//1
f 176//1 166//1 24//1
f 280//1 209//1 206//1
f 227//1 122//1 228//1
f 112//1 347//1 111//1
f 113//1 284//1 283//1
f 301//1 126//1 127//1
f 128//1 129//1 231//1
f 208//1 110//1 111//1
f 611//1 155//1 570//1
f 209//1 282//1 206//1
f 282//1 396//1 206//1
f 300//1 125//1 126//1
f 453//1 689//1 775//1
f 127//1 302//1 301//1
f 182//1 282//1 209//1
f 233//1 188//1 232//1
f 261//1 164//1 154//1
f 25//1 24//1 166//1
f 654//1 657//1 557//1
f 26//1 167//1 27//1
f 26//1 570//1 167//1
f 611//1 570//1 166//1
f 167//1 177//1 27//1
f 99//1 204//1 98//1
f 207//1 209//1 109//1
f 179//1 168//1 30//1
f 179//1 30//1 29//1
f 395//1 344//1 393//1
f 136//1 235//1 135//1
f 134//1 306//1 305//1
f 133//1 134//1 305//1
f 3//15 1103//15 4//15
f 205//1 278//1 279//1
f 174//1 13//1 164//1
f 304//1 132//1 133//1
f 103//1 278//1 277//1
f 337//1 709//1 516//1
f 181//1 276//1 204//1
f 102//1 343//1 101//1
f 236//1 237//1 189//1
f 140//1 141//1 330//1
f 272//1 273//1 577//1
f 264//1 263//1 143//1
f 257//1 258//1 697//1
f 276//1 389//1 201//1
f 142//1 143//1 263//1
f 201//1 204//1 276//1
f 812//1 813//1 732//1
f 203//1 100//1 101//1
f 139//1 140//1 329//1
f 264//1 265//1 748//1
f 46//1 47//1 269//1
f 149//1 319//1 148//1
f 198//1 267//1 336//1
f 368//1 370//1 63//1
f 148//1 319//1 1106//1
f 360//1 419//1 229//1
f 319//1 149//1 317//1
f 1103//1 171//1 1032//1
f 144//1 265//1 264//1
f 32//1 320//1 321//1
f 405//1 217//1 289//1
f 266//1 154//1 165//1
f 1//16 30//16 168//16
f 143//1 144//1 264//1
f 150//1 318//1 317//1
f 571//1 580//1 170//1
f 492//1 510//1 420//1
f 47//1 270//1 269//1
f 236//1 235//1 136//1
f 275//1 204//1 201//1
f 33//1 320//1 32//1
f 113//1 283//1 112//1
f 25//1 570//1 26//1
f 169//17 7//17 6//17
f 1101//18 19//18 1102//18
f 5//19 4//19 172//19
f 368//1 369//1 743//1
f 2//20 171//20 3//20
f 10//1 165//1 11//1
f 180//21 6//21 5//21
f 83//1 287//1 82//1
f 4//22 1104//22 172//22
f 52//1 53//1 311//1
f 178//23 1//23 168//23
f 28//1 574//1 29//1
f 572//24 571//24 7//24
f 240//1 242//1 54//1
f 100//1 203//1 202//1
f 57//1 58//1 313//1
f 60//1 244//1 246//1
f 241//1 367//1 427//1
f 310//1 50//1 308//1
f 446//1 193//1 448//1
f 99//1 100//1 202//1
f 244//1 245//1 191//1
f 80//1 215//1 214//1
f 702//1 470//1 199//1
f 58//1 59//1 314//1
f 488//1 505//1 506//1
f 115//1 116//1 211//1
f 110//1 208//1 207//1
f 116//1 212//1 211//1
f 190//1 240//1 241//1
f 240//1 190//1 242//1
f 109//1 110//1 207//1
f 553//1 726//1 807//1
f 11//1 165//1 154//1
f 61//1 245//1 244//1
f 323//1 37//1 38//1
f 55//1 241//1 240//1
f 436//1 250//1 376//1
f 60//1 61//1 244//1
f 40//1 253//1 255//1
f 91//1 92//1 257//1
f 321//1 432//1 318//1
f 324//1 38//1 39//1
f 431//1 373//1 430//1
f 40//1 41//1 253//1
f 35//1 250//1 249//1
f 41//1 254//1 253//1
f 192//1 249//1 250//1
f 253//1 254//1 193//1
f 34//1 35//1 249//1
f 122//1 123//1 228//1
f 157//1 571//1 572//1
f 308//1 51//1 309//1
f 6//25 180//25 169//25
f 72//1 73//1 223//1
f 86//1 219//1 218//1
f 224//1 223//1 73//1
f 50//1 51//1 308//1
f 137//1 237//1 236//1
f 271//1 46//1 269//1
f 50//1 310//1 49//1
f 43//1 44//1 338//1
f 130//1 233//1 232//1
f 129//1 130//1 232//1
f 136//1 137//1 236//1
f 199//1 271//1 269//1
f 339//1 44//1 45//1
f 123//1 229//1 228//1
f 54//1 55//1 240//1
f 249//1 192//1 251//1
f 251//1 34//1 249//1
f 85//1 86//1 218//1
f 92//1 258//1 257//1
f 229//1 187//1 228//1
f 109//1 209//1 108//1
f 931//1 734//1 179//1
f 293//1 225//1 222//1
f 72//1 225//1 71//1
f 298//1 299//1 226//1
f 212//1 356//1 455//1
f 227//1 187//1 1107//1
f 226//1 297//1 298//1
f 229//1 123//1 124//1
f 227//1 228//1 187//1
f 125//1 359//1 124//1
f 126//1 301//1 300//1
f 302//1 303//1 230//1
f 229//1 359//1 360//1
f 231//1 188//1 504//1
f 230//1 301//1 302//1
f 233//1 130//1 131//1
f 231//1 232//1 188//1
f 132//1 362//1 131//1
f 133//1 305//1 304//1
f 307//1 234//1 306//1
f 233//1 362//1 363//1
f 235//1 189//1 512//1
f 234//1 305//1 306//1
f 237//1 137//1 138//1
f 235//1 236//1 189//1
f 139//1 381//1 138//1
f 140//1 330//1 329//1
f 312//1 423//1 239//1
f 269//1 270//1 702//1
f 239//1 242//1 312//1
f 308//1 309//1 578//1
f 241//1 55//1 56//1
f 190//1 312//1 242//1
f 57//1 366//1 56//1
f 314//1 313//1 58//1
f 311//1 242//1 239//1
f 54//1 242//1 53//1
f 243//1 246//1 316//1
f 241//1 366//1 367//1
f 245//1 61//1 62//1
f 191//1 316//1 246//1
f 63//1 370//1 62//1
f 368//1 63//1 64//1
f 314//1 246//1 243//1
f 60//1 246//1 59//1
f 431//1 430//1 248//1
f 145//1 751//1 749//1
f 248//1 251//1 322//1
f 318//1 247//1 317//1
f 250//1 35//1 36//1
f 192//1 322//1 251//1
f 37//1 375//1 36//1
f 324//1 323//1 38//1
f 320//1 251//1 248//1
f 34//1 251//1 33//1
f 252//1 255//1 325//1
f 250//1 375//1 376//1
f 254//1 41//1 42//1
f 193//1 325//1 255//1
f 43//1 386//1 42//1
f 339//1 338//1 44//1
f 324//1 255//1 252//1
f 40//1 255//1 39//1
f 328//1 256//1 259//1
f 219//1 378//1 379//1
f 258//1 92//1 93//1
f 194//1 328//1 259//1
f 698//1 94//1 274//1
f 479//1 697//1 698//1
f 327//1 259//1 256//1
f 91//1 259//1 90//1
f 164//1 260//1 174//1
f 195//1 476//1 494//1
f 383//1 443//1 384//1
f 260//1 261//1 195//1
f 331//1 332//1 262//1
f 237//1 381//1 382//1
f 263//1 196//1 1108//1
f 262//1 330//1 331//1
f 265//1 144//1 145//1
f 263//1 264//1 196//1
f 751//1 145//1 146//1
f 1106//1 372//1 751//1
f 333//1 165//1 175//1
f 197//1 384//1 266//1
f 336//1 176//1 162//1
f 198//1 709//1 267//1
f 268//1 271//1 340//1
f 254//1 386//1 387//1
f 270//1 47//1 48//1
f 199//1 340//1 271//1
f 703//1 49//1 310//1
f 489//1 702//1 703//1
f 339//1 271//1 268//1
f 46//1 271//1 45//1
f 96//1 97//1 273//1
f 272//1 200//1 274//1
f 275//1 273//1 97//1
f 273//1 275//1 577//1
f 451//1 496//1 498//1
f 698//1 93//1 94//1
f 204//1 275//1 98//1
f 275//1 201//1 577//1
f 449//1 343//1 344//1
f 450//1 389//1 276//1
f 449//1 341//1 388//1
f 101//1 343//1 203//1
f 279//1 104//1 105//1
f 277//1 278//1 205//1
f 281//1 775//1 106//1
f 106//1 107//1 281//1
f 209//1 280//1 108//1
f 280//1 206//1 281//1
f 396//1 453//1 206//1
f 775//1 105//1 106//1
f 285//1 398//1 210//1
f 677//1 679//1 988//1
f 348//1 283//1 614//1
f 111//1 347//1 208//1
f 213//1 284//1 114//1
f 283//1 284//1 210//1
f 455//1 356//1 357//1
f 414//1 416//1 357//1
f 525//1 461//1 518//1
f 404//1 224//1 402//1
f 353//1 287//1 615//1
f 81//1 352//1 215//1
f 220//1 288//1 84//1
f 287//1 288//1 217//1
f 256//1 328//1 438//1
f 260//1 195//1 494//1
f 291//1 68//1 69//1
f 290//1 221//1 292//1
f 294//1 69//1 70//1
f 294//1 407//1 409//1
f 621//1 245//1 370//1
f 64//1 369//1 368//1
f 225//1 293//1 71//1
f 294//1 293//1 222//1
f 294//1 222//1 407//1
f 294//1 291//1 69//1
f 350//2 458//2 402//2
f 195//1 261//1 383//1
f 455//1 349//1 400//1
f 117//1 356//1 212//1
f 120//1 121//1 298//1
f 296//1 297//1 226//1
f 121//1 227//1 298//1
f 298//1 227//1 299//1
f 1107//1 464//1 299//1
f 414//1 415//1 416//1
f 360//1 300//1 418//1
f 124//1 359//1 229//1
f 127//1 128//1 302//1
f 300//1 301//1 230//1
f 128//1 231//1 302//1
f 302//1 231//1 303//1
f 233//1 363//1 422//1
f 468//1 502//1 486//1
f 363//1 304//1 421//1
f 131//1 362//1 233//1
f 134//1 135//1 306//1
f 304//1 305//1 234//1
f 135//1 235//1 306//1
f 306//1 235//1 307//1
f 492//1 474//1 510//1
f 727//1 502//1 468//1
f 51//1 52//1 309//1
f 308//1 238//1 310//1
f 311//1 309//1 52//1
f 309//1 311//1 578//1
f 469//1 505//1 507//1
f 703//1 48//1 49//1
f 242//1 311//1 53//1
f 311//1 239//1 578//1
f 316//1 426//1 243//1
f 578//1 423//1 469//1
f 367//1 313//1 620//1
f 56//1 366//1 241//1
f 246//1 314//1 59//1
f 313//1 314//1 243//1
f 410//1 616//1 221//1
f 410//1 221//1 409//1
f 621//1 428//1 191//1
f 423//1 471//1 364//1
f 318//1 150//1 31//1
f 317//1 247//1 319//1
f 321//1 31//1 32//1
f 321//1 430//1 432//1
f 247//1 432//1 433//1
f 147//1 1106//1 751//1
f 251//1 320//1 33//1
f 321//1 320//1 248//1
f 321//1 248//1 430//1
f 321//1 318//1 31//1
f 325//1 435//1 252//1
f 630//1 633//1 628//1
f 376//1 323//1 643//1
f 36//1 375//1 250//1
f 255//1 324//1 39//1
f 323//1 324//1 252//1
f 268//1 340//1 447//1
f 434//1 192//1 436//1
f 379//1 326//1 680//1
f 87//1 378//1 219//1
f 259//1 327//1 90//1
f 326//1 327//1 256//1
f 451//1 498//1 200//1
f 557//1 657//1 663//1
f 382//1 329//1 441//1
f 138//1 381//1 237//1
f 141//1 142//1 331//1
f 329//1 330//1 262//1
f 142//1 263//1 331//1
f 331//1 263//1 332//1
f 380//1 382//1 441//1
f 332//1 1108//1 508//1
f 579//1 175//1 170//1
f 197//1 266//1 333//1
f 738//1 962//1 816//1
f 428//1 316//1 191//1
f 582//1 588//1 586//1
f 411//1 295//1 186//1
f 152//1 700//1 162//1
f 614//1 897//1 346//1
f 1014//1 1066//1 465//1
f 422//1 487//1 188//1
f 387//1 338//1 687//1
f 42//1 386//1 254//1
f 271//1 339//1 45//1
f 338//1 339//1 268//1
f 507//1 238//1 469//1
f 598//1 601//1 603//1
f 281//1 206//1 453//1
f 861//1 863//1 864//1
f 450//1 342//1 389//1
f 194//1 452//1 328//1
f 102//1 277//1 343//1
f 277//1 391//1 343//1
f 277//1 205//1 391//1
f 391//1 894//1 393//1
f 397//1 182//1 399//1
f 859//1 860//1 760//1
f 614//1 346//1 348//1
f 182//1 397//1 690//1
f 112//1 283//1 347//1
f 348//1 347//1 283//1
f 614//1 283//1 210//1
f 348//1 346//1 399//1
f 412//1 414//1 357//1
f 198//1 336//1 457//1
f 403//1 462//1 404//1
f 74//1 402//1 224//1
f 351//1 353//1 615//1
f 383//1 475//1 195//1
f 82//1 287//1 352//1
f 353//1 352//1 287//1
f 615//1 287//1 217//1
f 353//1 351//1 406//1
f 354//1 407//1 408//1
f 477//1 335//1 384//1
f 184//1 406//1 500//1
f 408//1 295//1 463//1
f 118//1 296//1 356//1
f 296//1 412//1 356//1
f 296//1 226//1 412//1
f 414//1 226//1 464//1
f 466//1 230//1 303//1
f 198//1 457//1 499//1
f 125//1 300//1 359//1
f 360//1 359//1 300//1
f 418//1 300//1 230//1
f 360//1 358//1 419//1
f 467//1 234//1 307//1
f 360//1 418//1 358//1
f 132//1 304//1 362//1
f 363//1 362//1 304//1
f 421//1 304//1 234//1
f 363//1 361//1 422//1
f 427//1 425//1 190//1
f 822//1 952//1 741//1
f 367//1 620//1 365//1
f 190//1 425//1 694//1
f 57//1 313//1 366//1
f 367//1 366//1 313//1
f 620//1 313//1 243//1
f 367//1 365//1 427//1
f 369//1 64//1 65//1
f 370//1 368//1 315//1
f 744//1 65//1 66//1
f 743//1 744//1 612//1
f 370//1 315//1 429//1
f 370//1 245//1 62//1
f 743//1 315//1 368//1
f 586//1 587//1 736//1
f 622//1 247//1 433//1
f 749//1 613//1 748//1
f 322//1 192//1 434//1
f 754//1 625//1 627//1
f 643//1 374//1 376//1
f 1115//1 642//1 1144//1
f 37//1 323//1 375//1
f 376//1 375//1 323//1
f 643//1 323//1 252//1
f 376//1 374//1 436//1
f 379//1 680//1 377//1
f 476//1 195//1 475//1
f 88//1 326//1 378//1
f 379//1 378//1 326//1
f 680//1 326//1 256//1
f 379//1 377//1 439//1
f 473//1 262//1 332//1
f 361//1 363//1 421//1
f 139//1 329//1 381//1
f 382//1 381//1 329//1
f 441//1 329//1 262//1
f 382//1 380//1 442//1
f 443//1 261//1 154//1
f 475//1 335//1 444//1
f 736//1 737//1 197//1
f 383//1 384//1 335//1
f 385//1 387//1 687//1
f 602//1 605//1 607//1
f 43//1 338//1 386//1
f 387//1 386//1 338//1
f 687//1 338//1 268//1
f 387//1 385//1 448//1
f 449//1 388//1 181//1
f 388//1 341//1 450//1
f 450//1 276//1 388//1
f 451//1 389//1 342//1
f 478//1 497//1 1111//1
f 655//1 666//1 657//1
f 392//1 776//1 688//1
f 343//1 391//1 344//1
f 1053//1 1052//1 1086//1
f 394//1 395//1 393//1
f 894//1 391//1 205//1
f 393//1 392//1 394//1
f 688//1 889//1 392//1
f 496//1 497//1 478//1
f 1122//1 395//1 394//1
f 449//1 395//1 341//1
f 282//1 182//1 690//1
f 396//1 345//1 453//1
f 691//1 1049//1 896//1
f 396//1 282//1 690//1
f 692//1 400//1 456//1
f 692//1 398//1 285//1
f 397//1 399//1 346//1
f 208//1 399//1 182//1
f 455//1 400//1 183//1
f 400//1 349//1 456//1
f 457//1 336//1 481//1
f 457//1 481//1 401//1
f 75//1 350//1 402//1
f 404//1 402//1 458//1
f 350//1 286//1 458//1
f 460//1 286//1 461//1
f 462//1 355//1 411//1
f 186//1 224//1 404//1
f 437//1 289//1 185//1
f 289//1 437//1 644//1
f 500//1 406//1 517//1
f 215//1 406//1 184//1
f 408//1 222//1 295//1
f 409//1 407//1 354//1
f 463//1 295//1 411//1
f 514//1 335//1 513//1
f 410//1 409//1 354//1
f 291//1 409//1 221//1
f 806//1 929//1 355//1
f 745//1 826//1 315//1
f 462//1 186//1 404//1
f 411//1 355//1 463//1
f 464//1 226//1 299//1
f 356//1 412//1 357//1
f 187//1 419//1 484//1
f 465//1 484//1 1014//1
f 226//1 414//1 412//1
f 414//1 413//1 415//1
f 1012//1 1063//1 1065//1
f 787//1 778//1 898//1
f 780//1 416//1 415//1
f 455//1 416//1 349//1
f 417//1 466//1 486//1
f 499//1 516//1 709//1
f 466//1 418//1 230//1
f 926//1 925//1 1013//1
f 465//1 1139//1 464//1
f 229//1 419//1 187//1
f 420//1 467//1 492//1
f 337//1 944//1 812//1
f 467//1 421//1 234//1
f 361//1 529//1 520//1
f 487//1 422//1 503//1
f 233//1 422//1 188//1
f 312//1 190//1 694//1
f 469//1 423//1 364//1
f 593//1 594//1 595//1
f 601//1 585//1 595//1
f 900//1 695//1 1037//1
f 423//1 312//1 694//1
f 696//1 428//1 472//1
f 316//1 696//1 426//1
f 425//1 427//1 365//1
f 241//1 427//1 190//1
f 428//1 621//1 429//1
f 428//1 371//1 472//1
f 743//1 745//1 315//1
f 428//1 429//1 371//1
f 431//1 248//1 322//1
f 432//1 430//1 373//1
f 322//1 434//1 636//1
f 171//1 178//1 733//1
f 433//1 432//1 373//1
f 318//1 432//1 247//1
f 629//1 626//1 433//1
f 509//1 440//1 508//1
f 683//1 686//1 681//1
f 171//1 733//1 946//1
f 446//1 325//1 193//1
f 325//1 446//1 681//1
f 434//1 436//1 374//1
f 250//1 436//1 192//1
f 556//1 557//1 546//1
f 540//1 494//1 476//1
f 699//1 452//1 480//1
f 328//1 699//1 438//1
f 437//1 439//1 377//1
f 219//1 439//1 185//1
f 440//1 473//1 508//1
f 942//1 1018//1 1020//1
f 473//1 441//1 262//1
f 380//1 531//1 522//1
f 493//1 442//1 511//1
f 237//1 442//1 189//1
f 384//1 443//1 266//1
f 261//1 443//1 383//1
f 477//1 513//1 335//1
f 501//1 519//1 526//1
f 736//1 197//1 334//1
f 722//1 712//1 714//1
f 609//1 991//1 992//1
f 607//1 609//1 602//1
f 704//1 470//1 490//1
f 340//1 704//1 447//1
f 448//1 385//1 767//1
f 254//1 448//1 193//1
f 203//1 449//1 181//1
f 449//1 344//1 395//1
f 341//1 395//1 1122//1
f 671//1 676//1 678//1
f 496//1 451//1 342//1
f 451//1 200//1 577//1
f 257//1 697//1 194//1
f 452//1 390//1 480//1
f 688//1 453//1 345//1
f 279//1 689//1 205//1
f 895//1 777//1 397//1
f 152//1 794//1 481//1
f 212//1 455//1 183//1
f 455//1 357//1 416//1
f 349//1 780//1 779//1
f 777//1 454//1 397//1
f 162//1 700//1 336//1
f 1087//1 499//1 457//1
f 460//1 458//1 286//1
f 404//1 458//1 403//1
f 460//1 461//1 525//1
f 459//1 545//1 1109//1
f 286//1 1105//1 461//1
f 403//1 460//1 459//1
f 184//1 710//1 216//1
f 518//1 710//1 500//1
f 462//1 403//1 1109//1
f 186//1 462//1 411//1
f 459//1 525//1 539//1
f 713//1 717//1 523//1
f 299//1 227//1 1107//1
f 414//1 464//1 413//1
f 1014//1 358//1 1013//1
f 926//1 796//1 925//1
f 486//1 303//1 504//1
f 418//1 466//1 417//1
f 492//1 307//1 512//1
f 421//1 467//1 420//1
f 503//1 468//1 487//1
f 503//1 520//1 528//1
f 505//1 469//1 364//1
f 469//1 238//1 578//1
f 269//1 702//1 199//1
f 470//1 424//1 490//1
f 899//1 792//1 425//1
f 965//1 582//1 583//1
f 842//1 1124//1 591//1
f 334//1 579//1 580//1
f 508//1 1108//1 491//1
f 441//1 473//1 440//1
f 511//1 474//1 493//1
f 522//1 530//1 511//1
f 335//1 475//1 383//1
f 476//1 475//1 444//1
f 525//1 459//1 460//1
f 535//1 540//1 476//1
f 737//1 384//1 197//1
f 445//1 716//1 513//1
f 763//1 450//1 675//1
f 705//1 515//1 479//1
f 200//1 498//1 705//1
f 390//1 452//1 479//1
f 670//1 668//1 672//1
f 540//1 553//1 494//1
f 152//1 904//1 794//1
f 907//1 159//1 908//1
f 781//1 784//1 782//1
f 502//1 417//1 486//1
f 405//1 524//1 532//1
f 517//1 483//1 500//1
f 1014//1 419//1 358//1
f 1107//1 484//1 465//1
f 796//1 417//1 502//1
f 706//1 918//1 924//1
f 466//1 303//1 486//1
f 303//1 231//1 504//1
f 503//1 422//1 361//1
f 486//1 487//1 468//1
f 471//1 707//1 364//1
f 708//1 521//1 489//1
f 238//1 507//1 708//1
f 424//1 470//1 489//1
f 952//1 822//1 823//1
f 595//1 585//1 593//1
f 196//1 264//1 748//1
f 852//1 491//1 750//1
f 467//1 307//1 492//1
f 307//1 235//1 512//1
f 511//1 442//1 380//1
f 492//1 493//1 474//1
f 535//1 476//1 519//1
f 260//1 494//1 807//1
f 831//1 619//1 833//1
f 545//1 459//1 539//1
f 496//1 342//1 763//1
f 496//1 478//1 498//1
f 672//1 676//1 662//1
f 660//1 664//1 669//1
f 515//1 498//1 478//1
f 705//1 479//1 698//1
f 1087//1 457//1 401//1
f 499//1 482//1 516//1
f 517//1 406//1 351//1
f 518//1 500//1 483//1
f 476//1 444//1 519//1
f 335//1 514//1 444//1
f 510//1 725//1 420//1
f 796//1 502//1 914//1
f 361//1 421//1 529//1
f 503//1 361//1 520//1
f 188//1 487//1 504//1
f 486//1 504//1 487//1
f 506//1 505//1 364//1
f 505//1 488//1 507//1
f 582//1 580//1 157//1
f 965//1 592//1 596//1
f 521//1 507//1 488//1
f 708//1 489//1 703//1
f 332//1 508//1 473//1
f 509//1 508//1 491//1
f 972//1 754//1 627//1
f 734//1 735//1 168//1
f 474//1 511//1 530//1
f 156//1 177//1 731//1
f 380//1 441//1 531//1
f 511//1 380//1 522//1
f 189//1 493//1 512//1
f 492//1 512//1 493//1
f 445//1 513//1 477//1
f 513//1 495//1 514//1
f 514//1 711//1 526//1
f 526//1 519//1 444//1
f 1112//1 515//1 478//1
f 390//1 479//1 515//1
f 706//1 925//1 796//1
f 558//1 528//1 541//1
f 532//1 517//1 351//1
f 532//2 533//2 517//2
f 518//1 483//1 525//1
f 461//1 216//1 710//1
f 526//1 444//1 514//1
f 1120//1 535//1 519//1
f 542//1 559//1 530//1
f 468//1 503//1 528//1
f 521//1 488//1 955//1
f 424//1 489//1 521//1
f 549//1 1110//1 509//1
f 857//1 755//1 854//1
f 1015//1 722//1 714//1
f 1109//1 806//1 355//1
f 405//1 289//1 644//1
f 533//1 724//1 517//1
f 544//1 729//1 539//1
f 799//1 718//1 801//1
f 711//1 514//1 495//1
f 719//1 804//1 523//1
f 566//1 729//1 563//1
f 535//1 1120//1 527//1
f 528//1 520//1 541//1
f 528//1 558//1 727//1
f 421//1 420//1 529//1
f 725//1 529//1 420//1
f 522//1 549//1 542//1
f 530//1 559//1 728//1
f 441//1 440//1 531//1
f 1110//1 531//1 440//1
f 405//1 532//1 351//1
f 533//1 532//1 524//1
f 533//1 524//1 543//1
f 533//1 561//1 563//1
f 544//1 539//1 525//1
f 802//1 799//1 566//1
f 1120//1 519//1 501//1
f 535//1 527//1 540//1
f 541//1 520//1 547//1
f 573//1 731//1 810//1
f 932//1 936//1 808//1
f 530//1 522//1 542//1
f 405//1 644//1 646//1
f 560//1 538//1 543//1
f 544//1 525//1 483//1
f 545//1 539//1 534//1
f 554//1 540//1 527//1
f 554//1 553//1 540//1
f 725//1 520//1 529//1
f 558//1 541//1 1132//1
f 522//1 1110//1 549//1
f 537//1 550//1 559//1
f 524//1 646//1 560//1
f 1118//1 561//1 538//1
f 483//1 724//1 544//1
f 533//1 543//1 561//1
f 719//1 717//1 715//1
f 806//1 1109//1 545//1
f 556//1 546//1 554//1
f 564//1 565//1 538//1
f 728//1 510//1 474//1
f 541//1 547//1 1019//1
f 933//1 935//1 1069//1
f 1061//1 920//1 921//1
f 631//1 856//1 854//1
f 542//1 549//1 1025//1
f 809//1 576//1 931//1
f 728//1 1071//1 510//1
f 551//1 648//1 645//1
f 649//1 651//1 759//1
f 555//1 1117//1 565//1
f 729//1 566//1 534//1
f 986//1 661//1 985//1
f 726//1 153//1 569//1
f 527//1 1121//1 556//1
f 554//1 546//1 986//1
f 1121//1 1116//1 1117//1
f 560//1 564//1 538//1
f 527//1 556//1 554//1
f 557//1 556//1 555//1
f 656//1 555//1 565//1
f 654//1 562//1 653//1
f 1132//1 541//1 536//1
f 548//1 914//1 727//1
f 537//1 559//1 542//1
f 550//1 1071//1 728//1
f 524//1 560//1 543//1
f 564//1 560//1 759//1
f 538//1 561//1 543//1
f 563//1 561//1 552//1
f 649//1 551//1 645//1
f 651//1 653//1 562//1
f 563//1 552//1 566//1
f 563//1 544//1 724//1
f 759//1 560//1 551//1
f 565//1 564//1 562//1
f 562//1 654//1 656//1
f 1121//1 1117//1 555//1
f 802//1 552//1 1146//1
f 804//1 718//1 800//1
f 567//1 152//1 162//1
f 21//26 161//26 567//26
f 19//27 568//27 20//27
f 906//1 568//1 159//1
f 569//1 153//1 173//1
f 15//1 163//1 569//1
f 570//1 155//1 167//1
f 25//1 166//1 570//1
f 7//28 571//28 8//28
f 580//1 571//1 157//1
f 7//29 169//29 572//29
f 583//1 572//1 169//1
f 811//1 167//1 155//1
f 1041//1 549//1 509//1
f 574//1 156//1 179//1
f 28//1 177//1 574//1
f 168//1 179//1 734//1
f 626//1 629//1 631//1
f 156//1 731//1 809//1
f 537//1 1024//1 1022//1
f 577//1 201//1 389//1
f 272//1 577//1 200//1
f 578//1 239//1 423//1
f 308//1 578//1 238//1
f 175//1 579//1 333//1
f 580//1 579//1 170//1
f 157//1 583//1 582//1
f 580//1 586//1 334//1
f 506//1 364//1 707//1
f 425//1 792//1 471//1
f 157//1 572//1 583//1
f 582//1 581//1 588//1
f 169//1 593//1 592//1
f 583//1 169//1 592//1
f 590//1 584//1 588//1
f 591//1 840//1 842//1
f 585//1 592//1 593//1
f 848//1 589//1 963//1
f 582//1 586//1 580//1
f 587//1 586//1 584//1
f 590//1 591//1 584//1
f 477//1 737//1 445//1
f 581//1 963//1 590//1
f 586//1 588//1 584//1
f 965//1 964//1 581//1
f 844//1 843//1 837//1
f 581//1 590//1 588//1
f 590//1 589//1 846//1
f 843//1 738//1 837//1
f 429//1 826//1 825//1
f 593//1 169//1 180//1
f 585//1 740//1 592//1
f 172//1 594//1 180//1
f 593//1 180//1 594//1
f 597//1 600//1 158//1
f 594//1 600//1 599//1
f 172//1 600//1 594//1
f 596//1 740//1 604//1
f 601//1 604//1 740//1
f 820//1 951//1 604//1
f 733//1 947//1 946//1
f 610//1 887//1 886//1
f 599//1 595//1 594//1
f 424//1 817//1 490//1
f 605//1 599//1 597//1
f 603//1 601//1 595//1
f 158//1 600//1 172//1
f 599//1 600//1 597//1
f 603//1 595//1 599//1
f 601//1 598//1 604//1
f 1033//1 1032//1 946//1
f 770//1 772//1 684//1
f 605//1 603//1 599//1
f 886//1 602//1 992//1
f 598//1 818//1 604//1
f 958//1 824//1 957//1
f 597//1 1034//1 607//1
f 605//1 602//1 1128//1
f 628//1 633//1 637//1
f 632//1 636//1 640//1
f 597//1 607//1 605//1
f 606//1 1045//1 609//1
f 1033//1 597//1 158//1
f 682//1 683//1 684//1
f 606//1 609//1 607//1
f 609//1 608//1 991//1
f 773//1 642//1 435//1
f 610//1 990//1 882//1
f 267//1 611//1 166//1
f 812//1 611//1 337//1
f 221//1 616//1 292//1
f 616//1 618//1 746//1
f 624//1 625//1 754//1
f 196//1 748//1 750//1
f 210//1 398//1 614//1
f 614//1 398//1 897//1
f 217//1 405//1 615//1
f 351//1 615//1 405//1
f 618//1 616//1 410//1
f 612//1 292//1 616//1
f 618//1 619//1 617//1
f 829//1 832//1 827//1
f 619//1 618//1 410//1
f 618//1 617//1 746//1
f 410//1 354//1 752//1
f 713//1 523//1 711//1
f 243//1 426//1 620//1
f 620//1 426//1 901//1
f 245//1 621//1 191//1
f 370//1 429//1 621//1
f 625//1 622//1 626//1
f 1106//1 624//1 372//1
f 623//1 625//1 626//1
f 491//1 852//1 973//1
f 319//1 622//1 624//1
f 625//1 624//1 622//1
f 626//1 622//1 433//1
f 623//1 627//1 625//1
f 433//1 630//1 629//1
f 630//1 628//1 629//1
f 627//1 623//1 853//1
f 972//1 853//1 852//1
f 632//1 634//1 636//1
f 631//1 623//1 626//1
f 630//1 433//1 373//1
f 628//1 756//1 629//1
f 431//1 634//1 373//1
f 630//1 634//1 633//1
f 637//1 638//1 756//1
f 984//1 576//1 943//1
f 434//1 641//1 640//1
f 993//1 1043//1 1044//1
f 630//1 373//1 634//1
f 632//1 1141//1 637//1
f 636//1 634//1 431//1
f 632//1 633//1 634//1
f 1142//1 1143//1 1078//1
f 638//1 631//1 756//1
f 322//1 636//1 431//1
f 636//1 434//1 640//1
f 632//1 637//1 633//1
f 637//1 635//1 638//1
f 1136//1 949//1 1082//1
f 635//1 858//1 638//1
f 374//1 642//1 641//1
f 1047//1 1045//1 606//1
f 641//1 434//1 374//1
f 632//1 640//1 639//1
f 642//1 374//1 435//1
f 639//1 640//1 641//1
f 681//1 435//1 325//1
f 1144//1 1114//1 1115//1
f 252//1 435//1 643//1
f 374//1 643//1 435//1
f 645//1 644//1 437//1
f 405//1 646//1 524//1
f 377//1 650//1 437//1
f 650//1 377//1 758//1
f 648//1 644//1 645//1
f 646//1 648//1 560//1
f 645//1 650//1 649//1
f 390//1 1112//1 1113//1
f 560//1 648//1 551//1
f 644//1 648//1 646//1
f 645//1 437//1 650//1
f 651//1 649//1 647//1
f 758//1 377//1 438//1
f 647//1 649//1 650//1
f 647//1 870//1 653//1
f 562//1 564//1 759//1
f 865//1 866//1 867//1
f 859//1 861//1 667//1
f 647//1 653//1 651//1
f 654//1 653//1 652//1
f 658//1 657//1 654//1
f 654//1 557//1 656//1
f 658//1 655//1 657//1
f 667//1 655//1 762//1
f 555//1 656//1 557//1
f 562//1 656//1 565//1
f 658//1 654//1 652//1
f 666//1 663//1 657//1
f 1126//1 658//1 652//1
f 1126//1 660//1 658//1
f 869//1 870//1 647//1
f 658//1 660//1 655//1
f 664//1 670//1 662//1
f 660//1 659//1 664//1
f 667//1 666//1 655//1
f 864//1 153//1 985//1
f 674//1 497//1 675//1
f 160//1 760//1 862//1
f 986//1 663//1 661//1
f 546//1 557//1 663//1
f 865//1 670//1 659//1
f 662//1 671//1 669//1
f 665//1 669//1 671//1
f 667//1 861//1 661//1
f 669//1 762//1 660//1
f 661//1 663//1 666//1
f 859//1 667//1 665//1
f 661//1 666//1 667//1
f 390//1 761//1 480//1
f 390//1 515//1 1112//1
f 662//1 669//1 664//1
f 762//1 665//1 667//1
f 659//1 670//1 664//1
f 668//1 1111//1 672//1
f 672//1 674//1 676//1
f 765//1 880//1 881//1
f 674//1 672//1 497//1
f 662//1 670//1 672//1
f 450//1 872//1 675//1
f 678//1 679//1 677//1
f 497//1 763//1 675//1
f 674//1 673//1 676//1
f 1122//1 872//1 341//1
f 673//1 674//1 675//1
f 678//1 676//1 673//1
f 671//1 662//1 676//1
f 873//1 675//1 872//1
f 910//1 908//1 151//1
f 679//1 678//1 673//1
f 678//1 677//1 881//1
f 891//1 392//1 889//1
f 876//1 999//1 1051//1
f 256//1 438//1 680//1
f 377//1 680//1 438//1
f 446//1 767//1 683//1
f 681//1 686//1 773//1
f 772//1 990//1 888//1
f 681//1 446//1 683//1
f 446//1 448//1 767//1
f 682//1 685//1 686//1
f 447//1 768//1 385//1
f 767//1 768//1 684//1
f 888//1 1043//1 1042//1
f 1042//1 682//1 888//1
f 682//1 686//1 683//1
f 685//1 1144//1 773//1
f 268//1 447//1 687//1
f 385//1 687//1 447//1
f 996//1 890//1 994//1
f 776//1 205//1 689//1
f 775//1 689//1 279//1
f 776//1 453//1 688//1
f 397//1 454//1 690//1
f 396//1 690//1 454//1
f 456//1 349//1 779//1
f 481//1 794//1 1002//1
f 400//1 692//1 285//1
f 898//1 692//1 456//1
f 693//1 780//1 782//1
f 782//1 786//1 693//1
f 425//1 471//1 694//1
f 423//1 694//1 471//1
f 620//1 901//1 365//1
f 820//1 604//1 818//1
f 428//1 696//1 316//1
f 902//1 696//1 472//1
f 698//1 697//1 258//1
f 452//1 697//1 479//1
f 93//1 698//1 258//1
f 698//1 274//1 705//1
f 452//1 699//1 328//1
f 987//1 699//1 480//1
f 152//1 481//1 700//1
f 336//1 700//1 481//1
f 161//1 568//1 906//1
f 786//1 783//1 789//1
f 703//1 702//1 270//1
f 470//1 702//1 489//1
f 48//1 703//1 270//1
f 703//1 310//1 708//1
f 470//1 704//1 340//1
f 771//1 704//1 490//1
f 200//1 705//1 274//1
f 515//1 705//1 498//1
f 1009//1 482//1 922//1
f 482//1 1059//1 1010//1
f 1036//1 471//1 792//1
f 964//1 951//1 966//1
f 238//1 708//1 310//1
f 521//1 708//1 507//1
f 267//1 709//1 337//1
f 499//1 709//1 198//1
f 500//1 710//1 184//1
f 461//1 710//1 518//1
f 714//1 713//1 711//1
f 523//1 526//1 711//1
f 712//1 713//1 714//1
f 723//1 833//1 753//1
f 714//1 711//1 495//1
f 971//1 712//1 970//1
f 716//1 495//1 513//1
f 714//1 495//1 716//1
f 722//1 970//1 712//1
f 805//1 929//1 806//1
f 927//1 587//1 798//1
f 970//1 722//1 723//1
f 971//1 713//1 712//1
f 718//1 719//1 720//1
f 566//1 799//1 534//1
f 717//1 719//1 523//1
f 720//1 719//1 715//1
f 719//1 718//1 804//1
f 715//1 805//1 720//1
f 545//1 534//1 801//1
f 445//1 927//1 716//1
f 835//1 832//1 828//1
f 1015//1 714//1 716//1
f 723//1 722//1 721//1
f 961//1 833//1 723//1
f 753//1 619//1 752//1
f 517//1 724//1 483//1
f 563//1 724//1 533//1
f 1071//1 725//1 510//1
f 520//1 725//1 547//1
f 807//1 163//1 260//1
f 985//1 726//1 553//1
f 528//1 727//1 468//1
f 548//1 727//1 558//1
f 530//1 728//1 474//1
f 550//1 728//1 559//1
f 539//1 729//1 534//1
f 563//1 729//1 544//1
f 1146//1 1116//1 1119//1
f 799//1 800//1 718//1
f 810//1 177//1 167//1
f 932//1 809//1 731//1
f 812//1 732//1 811//1
f 1017//1 1068//1 1070//1
f 815//1 178//1 168//1
f 733//1 575//1 947//1
f 931//1 179//1 156//1
f 735//1 734//1 576//1
f 973//1 974//1 509//1
f 815//1 575//1 733//1
f 586//1 736//1 334//1
f 737//1 587//1 445//1
f 737//1 477//1 384//1
f 587//1 737//1 736//1
f 472//1 371//1 816//1
f 825//1 371//1 429//1
f 823//1 955//1 506//1
f 883//1 885//1 887//1
f 592//1 740//1 596//1
f 601//1 740//1 585//1
f 818//1 821//1 741//1
f 956//1 506//1 707//1
f 1040//1 958//1 1038//1
f 849//1 839//1 847//1
f 744//1 743//1 369//1
f 745//1 743//1 612//1
f 65//1 744//1 369//1
f 292//1 612//1 744//1
f 612//1 746//1 745//1
f 747//1 826//1 746//1
f 746//1 612//1 616//1
f 617//1 830//1 746//1
f 831//1 830//1 617//1
f 827//1 816//1 371//1
f 749//1 748//1 265//1
f 750//1 748//1 613//1
f 749//1 265//1 145//1
f 754//1 749//1 372//1
f 613//1 754//1 972//1
f 1108//1 750//1 491//1
f 147//1 751//1 146//1
f 372//1 749//1 751//1
f 408//1 850//1 354//1
f 850//1 753//1 752//1
f 354//1 850//1 752//1
f 971//1 970//1 851//1
f 749//1 754//1 613//1
f 754//1 372//1 624//1
f 854//1 853//1 623//1
f 977//1 858//1 975//1
f 629//1 756//1 631//1
f 637//1 756//1 628//1
f 979//1 981//1 976//1
f 809//1 943//1 576//1
f 987//1 438//1 699//1
f 867//1 868//1 480//1
f 649//1 759//1 551//1
f 562//1 759//1 651//1
f 671//1 880//1 665//1
f 760//1 863//1 861//1
f 668//1 865//1 761//1
f 761//1 865//1 867//1
f 660//1 762//1 655//1
f 665//1 762//1 669//1
f 496//1 763//1 497//1
f 450//1 763//1 342//1
f 764//1 875//1 874//1
f 873//1 679//1 673//1
f 879//1 989//1 988//1
f 862//1 151//1 160//1
f 874//1 679//1 873//1
f 794//1 904//1 1129//1
f 768//1 767//1 385//1
f 683//1 767//1 684//1
f 771//1 447//1 704//1
f 771//1 769//1 770//1
f 490//1 817//1 884//1
f 772//1 682//1 684//1
f 771//1 770//1 768//1
f 770//1 769//1 772//1
f 447//1 771//1 768//1
f 771//1 490//1 884//1
f 882//1 772//1 769//1
f 990//1 991//1 888//1
f 681//1 773//1 435//1
f 685//1 773//1 686//1
f 688//1 890//1 889//1
f 877//1 679//1 874//1
f 105//1 775//1 279//1
f 453//1 775//1 281//1
f 392//1 393//1 894//1
f 453//1 776//1 689//1
f 895//1 397//1 346//1
f 998//1 893//1 774//1
f 898//1 778//1 897//1
f 456//1 779//1 787//1
f 349//1 416//1 780//1
f 787//1 779//1 693//1
f 415//1 1138//1 782//1
f 693//1 779//1 780//1
f 1138//1 1140//1 1137//1
f 1089//1 1099//1 1059//1
f 415//1 782//1 780//1
f 783//1 784//1 785//1
f 1003//1 1004//1 1088//1
f 784//1 786//1 782//1
f 784//1 781//1 1149//1
f 784//1 783//1 786//1
f 923//1 920//1 1062//1
f 923//1 924//1 921//1
f 788//1 789//1 790//1
f 1057//1 778//1 787//1
f 786//1 1123//1 693//1
f 791//1 1123//1 789//1
f 1050//1 1049//1 691//1
f 1057//1 1123//1 791//1
f 790//1 789//1 783//1
f 789//1 788//1 791//1
f 783//1 785//1 1099//1
f 481//1 1002//1 1003//1
f 1055//1 791//1 788//1
f 791//1 1056//1 1057//1
f 899//1 425//1 365//1
f 820//1 959//1 1040//1
f 902//1 793//1 901//1
f 962//1 903//1 816//1
f 152//1 567//1 904//1
f 1002//1 794//1 1135//1
f 907//1 795//1 906//1
f 909//1 795//1 907//1
f 502//1 727//1 914//1
f 1012//1 706//1 923//1
f 914//1 916//1 918//1
f 917//1 1093//1 916//1
f 835//1 837//1 832//1
f 927//1 928//1 716//1
f 799//1 802//1 800//1
f 801//1 718//1 720//1
f 730//1 803//1 800//1
f 523//1 804//1 526//1
f 545//1 801//1 720//1
f 534//1 799//1 801//1
f 552//1 802//1 566//1
f 730//1 800//1 802//1
f 1119//1 803//1 730//1
f 804//1 501//1 526//1
f 800//1 803//1 804//1
f 804//1 803//1 501//1
f 969//1 715//1 851//1
f 850//1 968//1 969//1
f 545//1 720//1 806//1
f 805//1 806//1 720//1
f 553//1 807//1 494//1
f 163//1 807//1 726//1
f 932//1 934//1 936//1
f 1022//1 1024//1 1026//1
f 932//1 731//1 573//1
f 943//1 809//1 1029//1
f 177//1 810//1 731//1
f 811//1 810//1 167//1
f 812//1 811//1 155//1
f 810//1 811//1 732//1
f 611//1 812//1 155//1
f 812//1 944//1 813//1
f 1093//1 1100//1 1070//1
f 813//1 935//1 1016//1
f 949//1 575//1 948//1
f 1079//1 1077//1 635//1
f 178//1 815//1 733//1
f 168//1 735//1 815//1
f 371//1 825//1 827//1
f 845//1 962//1 843//1
f 521//1 955//1 954//1
f 739//1 883//1 884//1
f 598//1 1127//1 821//1
f 820//1 818//1 741//1
f 886//1 1127//1 603//1
f 819//1 822//1 821//1
f 952//1 824//1 959//1
f 820//1 742//1 951//1
f 598//1 821//1 818//1
f 819//1 885//1 822//1
f 739//1 953//1 822//1
f 741//1 821//1 822//1
f 739//1 817//1 953//1
f 817//1 954//1 953//1
f 957//1 824//1 956//1
f 820//1 741//1 959//1
f 429//1 315//1 826//1
f 825//1 747//1 827//1
f 746//1 826//1 745//1
f 747//1 825//1 826//1
f 829//1 827//1 747//1
f 816//1 827//1 832//1
f 829//1 747//1 830//1
f 798//1 840//1 841//1
f 747//1 746//1 830//1
f 832//1 829//1 828//1
f 831//1 617//1 619//1
f 828//1 829//1 830//1
f 619//1 753//1 833//1
f 828//1 830//1 831//1
f 835//1 836//1 834//1
f 832//1 738//1 816//1
f 961//1 721//1 836//1
f 828//1 831//1 960//1
f 838//1 840//1 591//1
f 837//1 738//1 832//1
f 836//1 835//1 828//1
f 835//1 834//1 837//1
f 836//1 828//1 960//1
f 841//1 840//1 834//1
f 834//1 838//1 837//1
f 591//1 844//1 838//1
f 840//1 838//1 834//1
f 847//1 844//1 846//1
f 844//1 847//1 839//1
f 695//1 900//1 1125//1
f 834//1 836//1 841//1
f 840//1 798//1 842//1
f 836//1 721//1 841//1
f 928//1 927//1 798//1
f 587//1 1124//1 798//1
f 584//1 1124//1 587//1
f 844//1 837//1 838//1
f 843//1 839//1 845//1
f 846//1 844//1 591//1
f 843//1 844//1 839//1
f 839//1 849//1 967//1
f 793//1 902//1 903//1
f 590//1 846//1 591//1
f 846//1 589//1 847//1
f 589//1 848//1 847//1
f 847//1 848//1 849//1
f 589//1 590//1 963//1
f 849//1 848//1 1038//1
f 1038//1 848//1 742//1
f 839//1 967//1 845//1
f 463//1 968//1 408//1
f 968//1 463//1 929//1
f 723//1 753//1 851//1
f 753//1 850//1 969//1
f 972//1 852//1 750//1
f 973//1 852//1 755//1
f 854//1 623//1 631//1
f 852//1 853//1 755//1
f 977//1 856//1 638//1
f 755//1 853//1 854//1
f 976//1 981//1 930//1
f 856//1 857//1 854//1
f 638//1 856//1 631//1
f 856//1 855//1 857//1
f 855//1 975//1 980//1
f 974//1 973//1 755//1
f 1035//1 1082//1 1083//1
f 975//1 858//1 757//1
f 860//1 859//1 665//1
f 861//1 859//1 760//1
f 880//1 860//1 665//1
f 913//1 912//1 765//1
f 863//1 760//1 160//1
f 173//1 864//1 863//1
f 760//1 860//1 862//1
f 912//1 860//1 765//1
f 160//1 173//1 863//1
f 864//1 173//1 153//1
f 153//1 726//1 985//1
f 861//1 864//1 661//1
f 670//1 865//1 668//1
f 866//1 865//1 659//1
f 1126//1 866//1 659//1
f 871//1 758//1 868//1
f 868//1 867//1 866//1
f 480//1 761//1 867//1
f 869//1 868//1 866//1
f 758//1 438//1 987//1
f 870//1 869//1 866//1
f 871//1 647//1 650//1
f 1126//1 870//1 866//1
f 653//1 870//1 652//1
f 647//1 871//1 869//1
f 650//1 758//1 871//1
f 341//1 872//1 450//1
f 873//1 872//1 764//1
f 873//1 764//1 874//1
f 675//1 873//1 673//1
f 764//1 1122//1 875//1
f 892//1 999//1 1133//1
f 891//1 875//1 394//1
f 878//1 877//1 876//1
f 891//1 892//1 875//1
f 893//1 1051//1 999//1
f 1133//1 874//1 875//1
f 1001//1 876//1 1051//1
f 878//1 766//1 879//1
f 679//1 877//1 878//1
f 909//1 911//1 1008//1
f 989//1 879//1 913//1
f 881//1 880//1 671//1
f 860//1 880//1 765//1
f 678//1 881//1 671//1
f 881//1 677//1 989//1
f 769//1 883//1 882//1
f 739//1 885//1 883//1
f 884//1 883//1 769//1
f 739//1 822//1 885//1
f 884//1 769//1 771//1
f 739//1 884//1 817//1
f 819//1 1127//1 885//1
f 882//1 887//1 610//1
f 1127//1 819//1 821//1
f 603//1 1128//1 886//1
f 883//1 887//1 882//1
f 886//1 887//1 885//1
f 991//1 1043//1 888//1
f 682//1 772//1 888//1
f 890//1 688//1 345//1
f 891//1 889//1 774//1
f 454//1 994//1 345//1
f 345//1 994//1 890//1
f 891//1 774//1 892//1
f 392//1 891//1 394//1
f 999//1 774//1 893//1
f 876//1 1133//1 999//1
f 890//1 996//1 998//1
f 1053//1 1131//1 1000//1
f 205//1 776//1 894//1
f 392//1 894//1 776//1
f 897//1 895//1 346//1
f 896//1 895//1 778//1
f 895//1 896//1 777//1
f 1057//1 896//1 778//1
f 898//1 897//1 398//1
f 895//1 897//1 778//1
f 692//1 898//1 398//1
f 787//1 898//1 456//1
f 901//1 899//1 365//1
f 900//1 899//1 793//1
f 899//1 900//1 792//1
f 1125//1 900//1 793//1
f 902//1 901//1 426//1
f 899//1 901//1 793//1
f 696//1 902//1 426//1
f 903//1 902//1 472//1
f 816//1 903//1 472//1
f 903//1 845//1 1125//1
f 906//1 904//1 161//1
f 904//1 906//1 1129//1
f 788//1 1004//1 1005//1
f 1004//1 790//1 1088//1
f 907//1 906//1 159//1
f 906//1 795//1 1129//1
f 159//1 1101//1 908//1
f 908//1 911//1 907//1
f 151//1 862//1 910//1
f 911//1 909//1 907//1
f 766//1 878//1 1001//1
f 795//1 909//1 1130//1
f 912//1 910//1 862//1
f 879//1 1008//1 913//1
f 908//1 910//1 911//1
f 910//1 912//1 913//1
f 860//1 912//1 862//1
f 765//1 989//1 913//1
f 1008//1 879//1 766//1
f 911//1 910//1 913//1
f 916//1 914//1 548//1
f 706//1 796//1 914//1
f 1132//1 916//1 548//1
f 915//1 919//1 918//1
f 916//1 1132//1 917//1
f 918//1 916//1 915//1
f 937//1 941//1 942//1
f 915//1 1093//1 1070//1
f 915//1 1070//1 919//1
f 914//1 918//1 706//1
f 921//1 919//1 797//1
f 918//1 919//1 924//1
f 922//1 1061//1 921//1
f 1060//1 1149//1 1011//1
f 922//1 921//1 797//1
f 921//1 920//1 923//1
f 1094//1 1058//1 797//1
f 922//1 482//1 1010//1
f 1011//1 1062//1 1060//1
f 706//1 1012//1 925//1
f 921//1 924//1 919//1
f 706//1 924//1 923//1
f 485//1 1013//1 925//1
f 358//1 418//1 926//1
f 418//1 417//1 926//1
f 796//1 926//1 417//1
f 587//1 927//1 445//1
f 798//1 841//1 928//1
f 841//1 721//1 928//1
f 721//1 722//1 1015//1
f 968//1 929//1 805//1
f 355//1 929//1 463//1
f 936//1 938//1 808//1
f 978//1 980//1 975//1
f 734//1 931//1 576//1
f 156//1 809//1 931//1
f 934//1 932//1 573//1
f 1029//1 932//1 808//1
f 934//1 573//1 935//1
f 536//1 1018//1 1091//1
f 573//1 1016//1 935//1
f 934//1 933//1 936//1
f 1067//1 935//1 813//1
f 933//1 934//1 935//1
f 939//1 936//1 933//1
f 939//1 938//1 936//1
f 937//1 939//1 941//1
f 1021//1 937//1 942//1
f 1022//1 937//1 1021//1
f 943//1 1076//1 1075//1
f 1092//1 941//1 939//1
f 938//1 939//1 937//1
f 1067//1 1069//1 935//1
f 1018//1 1019//1 1020//1
f 1092//1 939//1 933//1
f 942//1 941//1 940//1
f 942//1 940//1 1018//1
f 942//1 550//1 1021//1
f 1076//1 938//1 1028//1
f 943//1 1075//1 984//1
f 337//1 516//1 944//1
f 482//1 1009//1 516//1
f 944//1 1030//1 813//1
f 516//1 1030//1 944//1
f 1031//1 946//1 814//1
f 1103//1 1032//1 158//1
f 983//1 948//1 575//1
f 946//1 947//1 814//1
f 1035//1 757//1 858//1
f 814//1 947//1 949//1
f 575//1 949//1 947//1
f 949//1 948//1 1082//1
f 1080//1 950//1 1079//1
f 1046//1 1114//1 1145//1
f 966//1 742//1 848//1
f 604//1 951//1 596//1
f 823//1 506//1 952//1
f 952//1 506//1 956//1
f 954//1 817//1 424//1
f 822//1 953//1 823//1
f 954//1 424//1 521//1
f 823//1 953//1 954//1
f 506//1 955//1 488//1
f 823//1 954//1 955//1
f 957//1 956//1 707//1
f 952//1 956//1 824//1
f 1036//1 707//1 471//1
f 1036//1 792//1 1037//1
f 1037//1 958//1 957//1
f 849//1 1039//1 967//1
f 952//1 959//1 741//1
f 1040//1 824//1 958//1
f 831//1 833//1 960//1
f 960//1 833//1 961//1
f 721//1 961//1 723//1
f 960//1 961//1 836//1
f 843//1 962//1 738//1
f 903//1 962//1 845//1
f 964//1 963//1 581//1
f 966//1 963//1 964//1
f 581//1 582//1 965//1
f 951//1 964//1 596//1
f 592//1 965//1 583//1
f 596//1 964//1 965//1
f 742//1 966//1 951//1
f 848//1 963//1 966//1
f 1039//1 849//1 1038//1
f 1125//1 967//1 695//1
f 969//1 968//1 805//1
f 408//1 968//1 850//1
f 715//1 969//1 805//1
f 969//1 851//1 753//1
f 723//1 851//1 970//1
f 851//1 715//1 971//1
f 715//1 717//1 971//1
f 971//1 717//1 713//1
f 613//1 972//1 750//1
f 853//1 972//1 627//1
f 974//1 755//1 857//1
f 491//1 973//1 509//1
f 1096//1 982//1 1074//1
f 509//1 974//1 1041//1
f 978//1 975//1 757//1
f 977//1 975//1 855//1
f 976//1 978//1 979//1
f 980//1 976//1 982//1
f 856//1 977//1 855//1
f 858//1 977//1 638//1
f 979//1 978//1 757//1
f 980//1 978//1 976//1
f 979//1 757//1 1083//1
f 983//1 735//1 981//1
f 982//1 976//1 930//1
f 1095//1 1072//1 857//1
f 983//1 981//1 979//1
f 984//1 735//1 576//1
f 1027//1 1073//1 1026//1
f 1095//1 980//1 1096//1
f 948//1 983//1 979//1
f 983//1 575//1 815//1
f 930//1 981//1 984//1
f 735//1 984//1 981//1
f 986//1 985//1 553//1
f 661//1 864//1 985//1
f 554//1 986//1 553//1
f 986//1 546//1 663//1
f 480//1 868//1 987//1
f 758//1 987//1 868//1
f 679//1 878//1 988//1
f 879//1 988//1 878//1
f 881//1 989//1 765//1
f 988//1 989//1 677//1
f 882//1 990//1 772//1
f 991//1 990//1 610//1
f 991//1 610//1 992//1
f 1043//1 991//1 608//1
f 886//1 992//1 610//1
f 609//1 992//1 602//1
f 1044//1 608//1 1045//1
f 993//1 1044//1 1046//1
f 777//1 1048//1 454//1
f 997//1 995//1 996//1
f 454//1 1048//1 994//1
f 1005//1 1054//1 788//1
f 997//1 996//1 994//1
f 998//1 996//1 995//1
f 1049//1 997//1 1048//1
f 788//1 1054//1 1007//1
f 893//1 998//1 995//1
f 890//1 998//1 774//1
f 1133//1 876//1 877//1
f 774//1 999//1 892//1
f 1000//1 1051//1 1052//1
f 1008//1 1134//1 909//1
f 876//1 1001//1 878//1
f 1134//1 1001//1 1000//1
f 1135//1 794//1 701//1
f 1003//1 1002//1 905//1
f 1003//1 905//1 1004//1
f 481//1 1003//1 401//1
f 1005//1 1004//1 905//1
f 788//1 790//1 1004//1
f 1006//1 1054//1 1135//1
f 1135//1 1054//1 905//1
f 1130//1 701//1 1129//1
f 997//1 1050//1 1084//1
f 995//1 1084//1 1086//1
f 1056//1 1050//1 691//1
f 1008//1 766//1 1134//1
f 911//1 913//1 1008//1
f 1058//1 922//1 797//1
f 1030//1 1009//1 945//1
f 1087//1 482//1 499//1
f 1010//1 1099//1 1060//1
f 1064//1 1140//1 1139//1
f 1065//1 1063//1 1064//1
f 923//1 1062//1 1063//1
f 485//1 925//1 1012//1
f 1014//1 1013//1 485//1
f 926//1 1013//1 358//1
f 1014//1 485//1 1066//1
f 419//1 1014//1 484//1
f 716//1 928//1 1015//1
f 721//1 1015//1 928//1
f 810//1 1016//1 573//1
f 813//1 1016//1 732//1
f 1067//1 813//1 1068//1
f 1090//1 940//1 1092//1
f 1091//1 940//1 1090//1
f 1019//1 1018//1 536//1
f 541//1 1019//1 536//1
f 1020//1 1019//1 547//1
f 547//1 725//1 1071//1
f 550//1 942//1 1020//1
f 550//1 537//1 1021//1
f 1022//1 1021//1 537//1
f 1023//1 1024//1 1025//1
f 938//1 937//1 1022//1
f 1072//1 974//1 857//1
f 1026//1 938//1 1022//1
f 1025//1 1024//1 537//1
f 1024//1 1023//1 1026//1
f 542//1 1025//1 537//1
f 1025//1 549//1 1041//1
f 1023//1 1027//1 1026//1
f 1073//1 1027//1 1074//1
f 1072//1 1096//1 1097//1
f 930//1 1075//1 1074//1
f 1028//1 1074//1 1075//1
f 1026//1 1073//1 938//1
f 932//1 1029//1 809//1
f 1076//1 1029//1 808//1
f 1009//1 1030//1 516//1
f 813//1 1030//1 945//1
f 1047//1 1031//1 814//1
f 1033//1 1034//1 597//1
f 171//1 946//1 1032//1
f 1033//1 946//1 1031//1
f 1033//1 1031//1 1034//1
f 158//1 1032//1 1033//1
f 1031//1 606//1 1034//1
f 607//1 1034//1 606//1
f 635//1 1077//1 858//1
f 1082//1 1035//1 950//1
f 792//1 900//1 1037//1
f 707//1 1036//1 957//1
f 1037//1 695//1 1039//1
f 957//1 1036//1 1037//1
f 1040//1 1038//1 742//1
f 1039//1 1038//1 958//1
f 1037//1 1039//1 958//1
f 967//1 1039//1 695//1
f 820//1 1040//1 742//1
f 824//1 1040//1 959//1
f 974//1 1072//1 1097//1
f 1025//1 1041//1 1023//1
f 1145//1 1042//1 993//1
f 685//1 682//1 1042//1
f 1044//1 1043//1 608//1
f 1042//1 1043//1 993//1
f 1044//1 1045//1 1081//1
f 1047//1 1081//1 1045//1
f 609//1 1045//1 608//1
f 1031//1 1047//1 606//1
f 1077//1 1079//1 1035//1
f 639//1 641//1 1115//1
f 814//1 1136//1 1047//1
f 950//1 1080//1 1081//1
f 1049//1 1048//1 777//1
f 994//1 1048//1 997//1
f 896//1 1049//1 777//1
f 1056//1 691//1 1057//1
f 1053//1 1085//1 1098//1
f 997//1 1049//1 1050//1
f 1052//1 1051//1 893//1
f 1001//1 1051//1 1000//1
f 995//1 1086//1 893//1
f 995//1 997//1 1084//1
f 701//1 1130//1 1147//1
f 1000//1 1052//1 1053//1
f 905//1 1054//1 1005//1
f 1098//1 1054//1 1006//1
f 788//1 1007//1 1055//1
f 1050//1 1055//1 1007//1
f 791//1 1055//1 1056//1
f 1050//1 1056//1 1055//1
f 1057//1 691//1 896//1
f 1057//1 787//1 1123//1
f 945//1 1009//1 1058//1
f 922//1 1058//1 1009//1
f 1088//1 1059//1 1087//1
f 1059//1 1088//1 1089//1
f 1060//1 785//1 1149//1
f 1061//1 1060//1 920//1
f 922//1 1010//1 1061//1
f 1060//1 1061//1 1010//1
f 1060//1 1062//1 920//1
f 1063//1 1062//1 1011//1
f 1011//1 1064//1 1063//1
f 923//1 1063//1 1012//1
f 1137//1 1064//1 1011//1
f 1137//1 1140//1 1064//1
f 1064//1 1139//1 1066//1
f 485//1 1012//1 1065//1
f 485//1 1065//1 1066//1
f 1064//1 1066//1 1065//1
f 1068//1 813//1 945//1
f 1069//1 1067//1 1017//1
f 945//1 1058//1 1094//1
f 1017//1 1067//1 1068//1
f 1090//1 1069//1 1017//1
f 1092//1 1069//1 1090//1
f 1094//1 1068//1 945//1
f 919//1 1070//1 797//1
f 550//1 1020//1 1071//1
f 547//1 1071//1 1020//1
f 857//1 855//1 1095//1
f 1027//1 1023//1 1097//1
f 1027//1 1096//1 1074//1
f 938//1 1073//1 1028//1
f 930//1 1074//1 982//1
f 1028//1 1073//1 1074//1
f 984//1 1075//1 930//1
f 943//1 1029//1 1076//1
f 938//1 1076//1 808//1
f 1028//1 1075//1 1076//1
f 1078//1 1079//1 635//1
f 1035//1 858//1 1077//1
f 635//1 1141//1 1078//1
f 1141//1 632//1 1142//1
f 1080//1 1079//1 1078//1
f 950//1 1035//1 1079//1
f 1143//1 1080//1 1078//1
f 1081//1 1080//1 1046//1
f 1044//1 1081//1 1046//1
f 1081//1 1047//1 1136//1
f 1082//1 950//1 1136//1
f 1083//1 1082//1 948//1
f 979//1 1083//1 948//1
f 757//1 1035//1 1083//1
f 1085//1 1084//1 1050//1
f 1052//1 893//1 1086//1
f 1050//1 1007//1 1085//1
f 1098//1 1007//1 1054//1
f 1084//1 1085//1 1086//1
f 1053//1 1086//1 1085//1
f 1088//1 1087//1 401//1
f 482//1 1087//1 1059//1
f 1088//1 401//1 1003//1
f 1089//1 1088//1 790//1
f 783//1 1089//1 790//1
f 1099//1 785//1 1060//1
f 1100//1 1090//1 1017//1
f 917//1 1132//1 1091//1
f 940//1 1091//1 1018//1
f 917//1 1091//1 1090//1
f 941//1 1092//1 940//1
f 933//1 1069//1 1092//1
f 916//1 1093//1 915//1
f 917//1 1090//1 1100//1
f 797//1 1070//1 1094//1
f 1068//1 1094//1 1070//1
f 855//1 980//1 1095//1
f 1096//1 980//1 982//1
f 1097//1 1096//1 1027//1
f 1095//1 1096//1 1072//1
f 1023//1 1041//1 1097//1
f 974//1 1097//1 1041//1
f 1098//1 1006//1 1147//1
f 1085//1 1007//1 1098//1
f 1059//1 1099//1 1010//1
f 783//1 1099//1 1089//1
f 1070//1 1100//1 1017//1
f 917//1 1100//1 1093//1
f 1102//30 19//30 18//30
f 908//1 1101//1 151//1
f 1101//1 1102//1 151//1
f 18//31 160//31 1102//31
f 158//1 172//1 1104//1
f 3//32 171//32 1103//32
f 4//33 1103//33 1104//33
f 158//1 1104//1 1103//1
f 78//1 1105//1 77//1
f 461//1 1105//1 216//1
f 148//1 1106//1 147//1
f 624//1 1106//1 319//1
f 484//1 1107//1 187//1
f 464//1 1107//1 465//1
f 263//1 1108//1 332//1
f 750//1 1108//1 196//1
f 462//1 1109//1 355//1
f 459//1 1109//1 403//1
f 531//1 1110//1 522//1
f 509//1 1110//1 440//1
f 672//1 1111//1 497//1
f 668//1 761//1 1113//1
f 478//1 1111//1 1112//1
f 1111//1 668//1 1113//1
f 390//1 1113//1 761//1
f 1111//1 1113//1 1112//1
f 1114//1 1144//1 1145//1
f 1046//1 1080//1 1143//1
f 642//1 1115//1 641//1
f 1148//1 1115//1 1114//1
f 1117//1 1118//1 538//1
f 1116//1 1121//1 1119//1
f 1118//1 1117//1 1116//1
f 538//1 565//1 1117//1
f 1146//1 1118//1 1116//1
f 561//1 1118//1 552//1
f 803//1 1119//1 501//1
f 1119//1 730//1 1146//1
f 501//1 1119//1 1120//1
f 527//1 1120//1 1119//1
f 556//1 1121//1 555//1
f 527//1 1119//1 1121//1
f 875//1 1122//1 394//1
f 872//1 1122//1 764//1
f 693//1 1123//1 787//1
f 789//1 1123//1 786//1
f 591//1 1124//1 584//1
f 798//1 1124//1 842//1
f 903//1 1125//1 793//1
f 967//1 1125//1 845//1
f 1126//1 659//1 660//1
f 870//1 1126//1 652//1
f 603//1 1127//1 598//1
f 885//1 1127//1 886//1
f 605//1 1128//1 603//1
f 602//1 886//1 1128//1
f 1130//1 1129//1 795//1
f 794//1 1129//1 701//1
f 909//1 1131//1 1130//1
f 1130//1 1131//1 1147//1
f 1131//1 909//1 1134//1
f 1147//1 1131//1 1053//1
f 558//1 1132//1 548//1
f 1091//1 1132//1 536//1
f 874//1 1133//1 877//1
f 892//1 1133//1 875//1
f 1001//1 1134//1 766//1
f 1131//1 1134//1 1000//1
f 1002//1 1135//1 905//1
f 1147//1 1135//1 701//1
f 949//1 1136//1 814//1
f 1081//1 1136//1 950//1
f 1149//1 1137//1 1011//1
f 1138//1 1137//1 781//1
f 782//1 1138//1 781//1
f 1140//1 415//1 413//1
f 464//1 1139//1 413//1
f 1066//1 1139//1 465//1
f 415//1 1140//1 1138//1
f 413//1 1139//1 1140//1
f 637//1 1141//1 635//1
f 1142//1 632//1 639//1
f 1115//1 1148//1 639//1
f 1078//1 1141//1 1142//1
f 1148//1 1142//1 639//1
f 1046//1 1143//1 1148//1
f 773//1 1144//1 642//1
f 1145//1 1144//1 685//1
f 1042//1 1145//1 685//1
f 1046//1 1145//1 993//1
f 802//1 1146//1 730//1
f 1118//1 1146//1 552//1
f 1098//1 1147//1 1053//1
f 1147//1 1006//1 1135//1
f 1046//1 1148//1 1114//1
f 1142//1 1148//1 1143//1
f 784//1 1149//1 785//1
f 1137//1 1149//1 781//1
