v 1.04933 0.311836 -0.139988
v 1.1241 0.332752 -0.0813913
v 1.12104 0.345303 0.000316864
v 1.0397 0.342749 0.0445275
v 0.965836 0.349398 0.0792227
v 0.903836 0.363954 0.0993168
v 0.859025 0.380767 0.116788
v 0.821224 0.394273 0.122679
v 0.787741 0.401644 0.115332
v 0.761251 0.402059 0.0908103
v 0.735166 0.404652 0.0674797
v 0.702991 0.401625 0.0454989
v 0.666486 0.401341 0.026154
v 0.629054 0.400624 0.00318595
v 0.614392 0.38872 -0.0430693
v 0.633824 0.368407 -0.0985016
v 0.660806 0.356357 -0.159111
v 0.684378 0.358087 -0.222985
v 0.69519 0.370501 -0.285681
v 0.706135 0.384975 -0.337945
v 0.738845 0.392661 -0.369472
v 0.780757 0.383143 -0.361739
v 0.823158 0.38336 -0.367668
v 0.86619 0.383159 -0.371274
v 0.90609 0.379563 -0.369892
v 0.946955 0.375367 -0.365049
v 0.989452 0.369103 -0.368698
v 1.03256 0.358702 -0.344701
v 1.0377 0.337834 -0.290124
v 1.01726 0.317111 -0.218594
v 0.995117 0.816716 -0.13754
v 0.990207 0.818561 -0.106613
v 0.979778 0.822557 -0.0820486
v 0.963647 0.828703 -0.0560338
v 0.947496 0.832298 -0.0323418
v 0.933663 0.838501 -0.00693235
v 0.917718 0.846654 0.0186727
v 0.880977 0.862664 0.0420389
v 0.843562 0.869905 0.0449758
v 0.802738 0.879105 0.031605
v 0.774308 0.886044 0.00691931
v 0.756256 0.889436 -0.0179204
v 0.745169 0.892955 -0.0439542
v 0.740588 0.895689 -0.0708304
v 0.738823 0.890166 -0.102891
v 0.742501 0.887406 -0.12887
v 0.748385 0.886264 -0.158463
v 0.75445 0.883188 -0.193055
v 0.762486 0.886325 -0.220786
v 0.773323 0.886096 -0.247578
v 0.788089 0.877041 -0.274803
v 0.809415 0.873061 -0.294556
v 0.836308 0.867552 -0.310585
v 0.871913 0.860343 -0.321506
v 0.91628 0.851684 -0.32
v 0.954487 0.846054 -0.300771
v 0.984326 0.838528 -0.269628
v 0.995789 0.828835 -0.227824
v 0.996164 0.821897 -0.19443
v 0.995932 0.819548 -0.169048
v 0.689117 0.594808 -0.134138
v 0.774271 0.62248 -0.332308
v 0.68653 0.635106 -0.0120883
v 0.769012 0.639479 0.0481072
v 0.884586 0.617712 -0.344744
v 1.01604 0.580956 -0.280865
v 0.999743 0.582043 0.0380149
v 0.857263 0.621359 0.0841668
v 1.03903 0.551922 -0.113953
v 0.704189 0.71633 -0.13918
v 0.779839 0.74353 -0.314875
v 0.700835 0.756109 -0.0298651
v 0.779711 0.759882 0.03572
v 0.887659 0.740705 -0.333678
v 0.999308 0.669771 -0.214799
v 0.952691 0.700857 0.0452341
v 1.02809 0.672023 -0.0677985
v 0.712197 0.777665 -0.142737
v 0.732372 0.725815 -0.221551
v 0.783781 0.80399 -0.303692
v 0.704155 0.818051 -0.0365911
v 0.785347 0.821917 0.0293684
v 0.83827 0.761504 0.0668346
v 0.891935 0.802155 -0.326209
v 0.961349 0.735005 -0.315743
v 0.99448 0.735106 -0.201921
v 0.952636 0.764529 0.0250046
v 1.00351 0.733555 -0.0767786
v 0.713284 0.808685 -0.147643
v 0.742557 0.783199 -0.254624
v 0.790174 0.833166 -0.292808
v 0.711207 0.847031 -0.0483311
v 0.786219 0.853875 0.0242524
v 0.848254 0.817996 0.0577636
v 0.89256 0.833788 -0.323216
v 0.963778 0.793439 -0.304465
v 0.989785 0.767641 -0.192385
v 0.951402 0.794134 0.00791226
v 0.989672 0.764412 -0.083163
v 0.749389 0.816442 -0.246474
v 0.815017 0.832131 0.0466974
v 0.929072 0.808302 -0.315893
v 0.751371 0.818379 -0.286438
v 0.83921 0.844914 0.0504374
v 0.820448 0.791877 0.0591924
v 0.914469 0.76574 -0.326185
v 0.953073 0.821055 -0.305221
v 0.754799 0.775482 -0.306649
v 0.802845 0.72095 0.0618463
v 0.892511 0.770772 -0.329379
v 0.833615 0.76245 -0.323109
v 0.862302 0.778975 -0.326964
v 0.924299 0.678406 -0.334762
v 0.942392 0.772656 -0.319096
v 0.777458 0.774007 -0.308797
v 0.805334 0.760798 -0.317149
v 0.746775 0.782532 -0.282215
v 0.737933 0.673056 -0.307675
v 0.741314 0.726287 -0.293027
v 0.816067 0.752751 0.062794
v 0.796267 0.755626 0.0508337
v 0.792905 0.789602 0.0411979
v 0.835884 0.811628 -0.318065
v 0.865676 0.817394 -0.324268
v 0.81373 0.83155 -0.310091
v 0.810904 0.796003 -0.313579
v 0.856697 0.726856 -0.331663
v 0.913231 0.720191 -0.33169
v 0.806684 0.675135 -0.328555
v 0.754625 0.734987 -0.315523
v 0.745699 0.705268 -0.309039
v 0.759808 0.669454 -0.324843
v 0.772045 0.704382 -0.320883
v 0.756405 0.697156 -0.319714
v 0.783034 0.664351 -0.327256
v 0.795535 0.710889 -0.322239
v 0.80755 0.804378 0.0477003
v 0.842941 0.787596 -0.322884
v 0.851013 0.754689 -0.328049
v 0.887577 0.678687 -0.339213
v 0.939198 0.713225 -0.327676
v 0.931658 0.744055 -0.325412
v 0.770841 0.650151 -0.328336
v 0.822043 0.716116 -0.326095
v 0.894924 0.70948 -0.335869
v 0.874053 0.704964 -0.33611
v 0.905553 0.681016 -0.337296
v 0.897906 0.644422 -0.341773
v 0.843154 0.648202 -0.338269
v 0.927709 0.514675 -0.351956
v 0.865124 0.659033 -0.340104
v 0.910525 0.57635 -0.347664
v 0.900597 0.606317 -0.345271
v 0.92535 0.621213 -0.340892
v 0.914711 0.650038 -0.339465
v 0.914168 0.605324 -0.344129
v 0.9815 0.619453 -0.324307
v 0.819037 0.743814 -0.322308
v 0.828211 0.675868 -0.331928
v 0.850963 0.686939 -0.335178
v 0.839881 0.710897 -0.330407
v 0.859541 0.597059 -0.346039
v 0.880371 0.64909 -0.341664
v 0.868843 0.624391 -0.343745
v 0.854367 0.62748 -0.342232
v 0.966715 0.674804 -0.322527
v 0.957274 0.70366 -0.322191
v 0.945965 0.671734 -0.331415
v 0.933764 0.64877 -0.336395
v 0.953976 0.591277 -0.339493
v 0.952244 0.632084 -0.334571
v 0.940434 0.610705 -0.339638
v 0.937368 0.558791 -0.346529
v 0.927068 0.585431 -0.344557
v 0.966121 0.61077 -0.332995
v 0.992639 0.492285 -0.344094
v 0.969194 0.642215 -0.3268
v 0.983707 0.555244 -0.335321
v 0.978313 0.587771 -0.3315
v 0.921857 0.550597 -0.348957
v 0.892359 0.75673 0.0575323
v 0.917044 0.789481 0.0420057
v 0.927105 0.745925 0.0483462
v 0.882274 0.800058 0.0536085
v 0.892082 0.828798 0.0420957
v 0.951351 0.733765 0.0382233
v 1.00569 0.715224 -0.00726651
v 0.980165 0.735334 0.0150766
v 1.00383 0.760142 -0.0343395
v 0.972259 0.776035 -0.0179562
v 0.988048 0.748196 -0.0110838
v 0.86386 0.766332 0.0627347
v 0.870969 0.692203 0.0714419
v 0.849624 0.78755 0.0614721
v 0.875148 0.730708 0.0658517
v 0.90749 0.694693 0.0614354
v 0.84762 0.714931 0.0736859
v 0.887785 0.704652 0.0656176
v 0.85255 0.743181 0.0680707
v 0.823021 0.7095 0.0728493
v 0.990742 0.682387 0.0268253
v 0.970778 0.761088 0.00636581
v 0.907361 0.728204 0.056976
v 0.928346 0.70804 0.0549437
v 0.848783 0.665794 0.0804776
v 0.834414 0.732273 0.0723193
v 0.796536 0.619337 0.0749742
v 0.993883 0.709093 0.0147459
v 0.855346 0.691371 0.0752053
v 0.865957 0.65535 0.0773063
v 0.834902 0.687367 0.0800655
v 0.822444 0.609351 0.0904897
v 0.813163 0.65684 0.0783272
v 0.832061 0.646031 0.0861662
v 0.845077 0.635009 0.0864725
v 0.819626 0.635849 0.0843577
v 0.824995 0.665756 0.0810313
v 0.806753 0.686818 0.0702825
v 0.800716 0.653385 0.0717951
v 0.784294 0.638441 0.0615024
v 0.790658 0.682161 0.0589349
v 0.78366 0.717562 0.0464468
v 0.792065 0.656678 0.0645945
v 0.778787 0.665085 0.0517515
v 0.746418 0.690646 0.0199749
v 0.76371 0.68413 0.0355735
v 0.768433 0.725667 0.0322905
v 0.757857 0.704507 0.0270861
v 0.742941 0.770814 0.0027743
v 0.754527 0.744425 0.0176403
v 0.765547 0.790215 0.0191389
v 0.766543 0.760513 0.0248491
v 0.74921 0.823317 -0.00323895
v 0.732518 0.8282 -0.0299134
v 0.765529 0.848719 0.0058852
v 0.722485 0.784264 -0.0191558
v 0.753143 0.797224 0.00661836
v 0.767652 0.820449 0.0159796
v 0.704913 0.787137 -0.031563
v 0.699535 0.746641 -0.0789532
v 0.689473 0.766951 -0.0536803
v 0.678476 0.682708 -0.0453631
v 0.715993 0.799527 -0.0757299
v 0.712413 0.796036 -0.111214
v 0.715518 0.819029 -0.094351
v 0.708661 0.771994 -0.0926762
v 0.704645 0.733161 -0.109411
v 0.681126 0.72211 -0.0610605
v 0.703173 0.77407 -0.0693507
v 0.690671 0.658632 -0.108722
v 0.706212 0.748338 -0.131332
v 0.689335 0.736557 -0.0439935
v 0.696079 0.69548 -0.0186221
v 0.695777 0.724719 -0.0280176
v 0.700351 0.694828 -0.116462
v 0.68818 0.693325 -0.0866779
v 0.700528 0.65207 -0.148422
v 0.701369 0.682541 -0.138112
v 0.720722 0.726722 -0.00659686
v 0.696481 0.72042 -0.0919311
v 0.67949 0.685762 -0.0663396
v 0.650567 0.536156 -0.0584327
v 0.664303 0.611843 -0.0573603
v 0.670908 0.651082 -0.0568593
v 0.67389 0.638511 -0.0316017
v 0.676104 0.628406 -0.0839592
v 0.668693 0.627999 -0.0453791
v 0.659073 0.554598 -0.0229126
v 0.660358 0.584161 -0.038945
v 0.680104 0.662244 -0.0804581
v 0.670915 0.630502 -0.0684642
v 0.715544 0.753111 -0.0170488
v 0.73778 0.731074 0.00602247
v 0.74629 0.718029 0.0153129
v 0.669682 0.597739 -0.0220023
v 0.651139 0.542 -0.039387
v 0.657366 0.573774 -0.0560151
v 0.666267 0.557413 -0.0894432
v 0.665537 0.587601 -0.0744108
v 0.658769 0.552189 -0.0727329
v 0.64486 0.458556 -0.0838544
v 0.649816 0.503406 -0.0746361
v 0.667217 0.609082 -0.0339428
v 0.676118 0.624748 -0.0198246
v 0.640562 0.474207 -0.0155116
v 0.632524 0.453462 -0.0540448
v 0.661409 0.501845 -0.102209
v 0.648617 0.514381 -0.0237142
v 0.640584 0.469893 -0.0686789
v 0.641684 0.494855 -0.0540633
v 0.65296 0.489973 -0.0880666
v 0.659994 0.523573 -0.0896907
v 0.642984 0.50427 -0.0380441
v 1.00379 0.731611 -0.273199
v 0.992857 0.76236 -0.240997
v 0.996317 0.717318 -0.237815
v 0.991346 0.774047 -0.278849
v 0.989215 0.802396 -0.263218
v 0.996564 0.703287 -0.21218
v 1.01018 0.672148 -0.141756
v 1.00502 0.703952 -0.172242
v 0.976212 0.760075 -0.301142
v 1.00593 0.656782 -0.178365
v 1.00475 0.724524 -0.126978
v 0.996732 0.757842 -0.116383
v 1.00763 0.67808 -0.1642
v 1.0015 0.683379 -0.191986
v 1.00381 0.565645 -0.216052
v 1.0161 0.603032 -0.144551
v 1.0085 0.702555 -0.1457
v 1.00304 0.617335 -0.206167
v 1.01141 0.638078 -0.153204
v 1.00926 0.608177 -0.175996
v 1.0062 0.585407 -0.195696
v 1.0199 0.495629 -0.168959
v 1.01124 0.53708 -0.187591
v 1.01615 0.567094 -0.164674
v 1.00213 0.646097 -0.199972
v 1.0147 0.443953 -0.246976
v 1.01999 0.530861 -0.162957
v 1.03661 0.499051 -0.130334
v 1.0244 0.550888 -0.139585
v 1.02711 0.507105 -0.150119
v 1.03469 0.528581 -0.127101
v 1.02588 0.580215 -0.125347
v 1.05015 0.604095 -0.0772962
v 1.02284 0.629995 -0.107335
v 1.04118 0.584286 -0.10045
v 1.01342 0.644957 -0.128314
v 1.01315 0.679783 -0.103624
v 1.00826 0.500278 -0.224913
v 1.02403 0.654362 -0.0900543
v 1.01369 0.700452 -0.0793398
v 1.023 0.704757 -0.0396559
v 1.00697 0.53003 -0.211477
v 1.01194 0.493289 -0.197434
v 1.04443 0.622663 -0.00637127
v 1.01493 0.731828 -0.0282571
v 1.01268 0.450578 -0.216125
v 1.02883 0.67109 -0.00823735
v 1.01092 0.478478 -0.213372
v 1.02424 0.698203 -0.0157938
v 1.03744 0.670411 -0.0376422
v 1.04624 0.637471 -0.0576372
v 1.03767 0.631106 -0.0803797
v 1.06693 0.5935 -0.0379569
v 1.04807 0.639172 -0.0297185
v 1.0586 0.610794 -0.0557294
v 1.0794 0.537614 -0.0737765
v 1.06122 0.512763 -0.10138
v 1.06196 0.568523 -0.081422
v 1.07649 0.566744 -0.0562725
v 1.08581 0.466443 -0.00174087
v 1.09609 0.516539 -0.0285692
v 1.08846 0.536994 -0.0487189
v 1.05632 0.543793 -0.0960566
v 1.10197 0.45989 -0.0720726
v 1.1016 0.498848 -0.0591325
v 1.08173 0.501258 -0.0813293
v 1.11337 0.455288 -0.0338855
v 1.10613 0.486937 -0.0362109
v 0.729185 0.658839 -0.258661
v 0.960217 0.483545 -0.353866
v 0.962966 0.629311 0.0527652
v 0.932769 0.657807 0.0597981
v 0.899084 0.586955 0.0750793
v 0.87954 0.615683 0.0776899
v 0.891617 0.656528 0.0698813
v 0.878426 0.642958 0.0748611
v 0.911266 0.661472 0.0640437
v 0.921176 0.614973 0.0664949
v 0.898166 0.622446 0.0716329
v 0.941037 0.625157 0.060323
v 0.950103 0.520893 0.0669856
v 0.94153 0.572264 0.0650794
v 0.919509 0.577446 0.0704935
v 0.89576 0.474009 0.0887603
v 0.902361 0.530031 0.0802306
v 0.906158 0.559393 0.0760551
v 0.926018 0.533886 0.0731204
v 0.862721 0.532693 0.0936655
v 0.940847 0.54422 0.0679925
v 0.928214 0.463921 0.0799021
v 0.865639 0.579317 0.0865019
v 0.914815 0.496635 0.080192
v 0.867018 0.60637 0.0827682
v 0.881487 0.580463 0.0811862
v 0.839077 0.557468 0.0973253
v 0.844223 0.595572 0.0918588
v 0.852041 0.567796 0.09265
v 0.83102 0.583362 0.0937608
v 0.807025 0.493251 0.105043
v 0.821181 0.535657 0.0996857
v 0.83452 0.614244 0.0896606
v 0.933781 0.499179 0.0744901
v 0.910497 0.461816 0.0853653
v 0.932768 0.359227 0.0902792
v 0.879544 0.375428 0.107543
v 0.92033 0.409594 0.0884548
v 0.894419 0.416994 0.0962448
v 0.91975 0.439299 0.0852173
v 0.898868 0.445473 0.091194
v 0.901047 0.501004 0.0836662
v 0.879453 0.504361 0.0910289
v 0.770301 0.520226 0.0734252
v 0.774938 0.691829 0.0436028
v 0.682618 0.673154 -0.0268502
v 0.685985 0.701536 -0.0345038
v 0.682827 0.611841 -0.108709
v 0.673766 0.592813 -0.0925295
v 0.677037 0.562825 -0.114146
v 0.668509 0.53487 -0.104844
v 0.692536 0.632687 -0.126986
v 0.696429 0.661125 -0.126286
v 0.682969 0.636528 -0.0988977
v 0.682903 0.589207 -0.11872
v 0.684722 0.480768 -0.167319
v 0.677579 0.511714 -0.136225
v 0.674848 0.531957 -0.121765
v 0.685684 0.553423 -0.141727
v 0.687686 0.522149 -0.159026
v 0.680213 0.493261 -0.151056
v 0.668211 0.423778 -0.14818
v 0.675703 0.457298 -0.153776
v 0.711257 0.535976 -0.231286
v 0.706751 0.590953 -0.182274
v 0.701259 0.519931 -0.195452
v 0.695849 0.583595 -0.158213
v 0.693105 0.509877 -0.177157
v 0.700019 0.550393 -0.179701
v 0.70403 0.621575 -0.165533
v 0.72215 0.652644 -0.208766
v 0.717624 0.692106 -0.177557
v 0.709967 0.696187 -0.156
v 0.72109 0.741711 -0.170263
v 0.696092 0.619601 -0.14591
v 0.714096 0.627868 -0.18914
v 0.711058 0.656904 -0.171266
v 0.716507 0.590741 -0.217962
v 0.71898 0.666891 -0.19059
v 0.727555 0.690491 -0.210961
v 0.713538 0.601469 -0.200037
v 0.708758 0.558744 -0.202787
v 0.72793 0.667702 -0.233524
v 0.707762 0.530566 -0.212964
v 0.696717 0.44442 -0.219453
v 0.701496 0.486542 -0.211616
v 0.692486 0.473163 -0.189773
v 0.713145 0.56038 -0.220669
v 0.722812 0.627037 -0.229238
v 0.734638 0.708345 -0.25507
v 0.740196 0.746103 -0.266857
v 0.673749 0.359105 -0.191052
v 0.718952 0.62397 -0.211183
v 0.737879 0.751247 -0.240577
v 0.679141 0.417861 -0.178694
v 0.733587 0.771716 -0.203607
v 0.737901 0.80594 -0.213075
v 0.737585 0.793658 -0.17433
v 0.680789 0.447792 -0.170339
v 0.740514 0.781954 -0.228634
v 0.730753 0.766276 -0.179718
v 0.693315 0.552749 -0.16214
v 0.705388 0.480656 -0.242974
v 0.69489 0.458802 -0.204793
v 0.687462 0.439355 -0.191078
v 0.683211 0.398162 -0.198158
v 0.701843 0.472102 -0.227095
v 0.706454 0.504817 -0.226267
v 0.679897 0.359052 -0.206879
v 0.690077 0.424965 -0.206728
v 0.687709 0.392611 -0.216232
v 0.69108 0.367786 -0.255001
v 0.688646 0.363674 -0.238985
v 0.695742 0.413946 -0.241645
v 0.700281 0.447785 -0.239763
v 0.701357 0.428611 -0.270057
v 0.703628 0.45594 -0.256887
v 0.699147 0.425416 -0.25545
v 0.719498 0.523655 -0.311066
v 0.709554 0.485684 -0.286609
v 0.705862 0.462774 -0.27377
v 0.701856 0.381871 -0.312643
v 0.711327 0.512958 -0.263461
v 0.704026 0.426445 -0.294477
v 0.707501 0.483154 -0.262242
v 0.706289 0.455299 -0.287958
v 0.712079 0.455593 -0.317914
v 0.710431 0.468696 -0.302165
v 0.714956 0.489706 -0.31222
v 0.73135 0.476143 -0.348068
v 0.713672 0.509481 -0.297386
v 0.724443 0.496484 -0.330219
v 0.722028 0.587946 -0.283785
v 0.717932 0.551006 -0.295502
v 0.71929 0.582286 -0.252359
v 0.735614 0.591386 -0.32189
v 0.71684 0.551056 -0.273475
v 0.719445 0.5975 -0.236458
v 0.724023 0.620667 -0.254806
v 0.724121 0.585605 -0.305674
v 0.713206 0.519228 -0.281185
v 0.722035 0.596902 -0.267266
v 0.719199 0.393396 -0.358242
v 0.729567 0.54385 -0.325485
v 0.714784 0.545991 -0.25451
v 0.731377 0.628491 -0.308279
v 0.719222 0.443513 -0.339152
v 0.724328 0.520852 -0.32209
v 0.734019 0.51795 -0.340428
v 0.728653 0.569093 -0.317257
v 0.722096 0.553652 -0.308661
v 0.74656 0.632294 -0.323947
v 0.730952 0.654154 -0.286001
v 0.726583 0.628493 -0.273879
v 0.726499 0.612306 -0.294277
v 0.724619 0.470907 -0.339256
v 0.771633 0.48633 -0.349133
v 0.755321 0.583911 -0.336338
v 0.747127 0.661447 -0.318657
v 0.735359 0.690427 -0.289138
v 0.737372 0.712091 -0.275273
v 0.75198 0.497478 -0.350156
v 0.746569 0.601893 -0.329518
v 0.740761 0.564019 -0.33417
v 0.759394 0.620816 -0.331524
v 0.752683 0.540675 -0.342905
v 0.740664 0.497854 -0.347569
v 0.764746 0.518433 -0.345749
v 0.800964 0.552379 -0.342559
v 0.783543 0.527239 -0.34349
v 0.816923 0.6112 -0.337434
v 0.837309 0.593021 -0.343681
v 0.79962 0.457587 -0.353818
v 0.784054 0.577898 -0.338299
v 0.826891 0.640094 -0.335986
v 0.810815 0.642177 -0.332919
v 0.797736 0.608054 -0.335789
v 0.79788 0.504381 -0.347957
v 0.789625 0.553118 -0.341374
v 0.772967 0.550722 -0.341209
v 0.769762 0.584422 -0.337084
v 0.807341 0.583932 -0.339358
v 0.82221 0.544454 -0.346702
v 0.820693 0.578565 -0.342204
v 0.795058 0.641605 -0.3317
v 0.78501 0.607242 -0.33509
v 0.794006 0.528781 -0.344688
v 0.785083 0.491248 -0.348149
v 0.778258 0.436874 -0.35499
v 0.778384 0.466092 -0.351264
v 0.761909 0.560124 -0.340155
v 0.809524 0.52727 -0.346425
v 0.812257 0.556569 -0.343429
v 0.61921 0.3991 -0.0181036
v 1.00663 0.746466 -0.16132
v 1.00433 0.629805 -0.253152
v 1.00448 0.67977 -0.265186
v 1.00156 0.707613 -0.25929
v 1.03668 0.406367 -0.146531
v 1.01682 0.38462 -0.226926
v 1.01335 0.636766 0.0209589
v 1.05526 0.551565 0.00432933
v 1.07795 0.552198 -0.0192676
v 1.05891 0.582611 -0.0105855
v 1.06411 0.442114 -0.109345
v 1.07006 0.476308 -0.0995993
v 1.05267 0.488952 -0.114002
v 1.08473 0.446427 -0.0913356
v 1.08422 0.322375 -0.10896
v 1.11295 0.396213 -0.0755959
v 1.10268 0.427257 -0.079027
v 1.12408 0.424717 -0.0541188
v 1.11782 0.453299 -0.0559759
v 1.14457 0.349131 -0.038631
v 1.12041 0.401468 -0.0133417
v 1.13217 0.384283 -0.0526396
v 1.13546 0.342003 -0.060654
v 1.12219 0.364524 -0.0744315
v 1.0926 0.367544 -0.097501
v 1.08404 0.406925 -0.0977124
v 1.13934 0.349995 -0.0144939
v 1.12811 0.404512 -0.0354251
v 1.06014 0.377644 -0.121187
v 1.076 0.383154 -0.107272
v 0.958987 0.537271 -0.34578
v 0.968246 0.562548 -0.339771
v 0.967954 0.665925 0.0440764
v 0.990586 0.647742 0.0355162
v 0.948038 0.673767 0.0521849
v 0.999146 0.615564 0.0348838
v 0.972577 0.557307 0.0559695
v 0.836597 0.469891 0.109364
v 0.799595 0.552892 0.0901275
v 0.955666 0.416838 0.0759297
v 0.936708 0.425541 0.0814688
v 0.954986 0.466505 0.0709696
v 0.94234 0.390409 0.0835783
v 0.941644 0.452061 0.0768117
v 0.960096 0.382793 0.0777723
v 1.00457 0.414979 0.0520442
v 0.949128 0.355153 0.0856708
v 1.00032 0.348472 0.0610418
v 0.979743 0.407848 0.0656666
v 0.970286 0.440925 0.0668555
v 0.986232 0.496994 0.0537295
v 0.973304 0.473533 0.0624511
v 0.967573 0.505459 0.0625808
v 0.996502 0.456504 0.0521772
v 0.994866 0.383798 0.0604907
v 0.98286 0.349259 0.0706096
v 1.01943 0.346338 0.0527021
v 1.02941 0.389196 0.0424583
v 0.990103 0.42965 0.0581352
v 1.03032 0.497833 0.028647
v 0.9762 0.377898 0.0706689
v 1.01245 0.376966 0.0518623
v 1.07982 0.346121 0.0237657
v 1.0086 0.487516 0.0424342
v 1.00243 0.534601 0.0414826
v 1.03058 0.443534 0.0350359
v 1.01393 0.458002 0.0425097
v 1.05966 0.345015 0.0346046
v 0.98327 0.529424 0.0526233
v 0.990259 0.557674 0.0461922
v 1.02631 0.556927 0.0248985
v 1.02346 0.597432 0.0213764
v 1.02967 0.620828 0.0107559
v 1.04263 0.580972 0.00934304
v 1.02219 0.418163 0.0425293
v 1.04193 0.526533 0.0186136
v 1.06947 0.508422 0.00100256
v 1.07983 0.524586 -0.0132991
v 1.02159 0.527413 0.0307217
v 1.05594 0.471585 0.0162013
v 1.05301 0.500811 0.0138207
v 1.0727 0.409867 0.0166206
v 1.06584 0.37783 0.0258221
v 1.04708 0.371954 0.0364354
v 1.03784 0.4695 0.0276515
v 1.07154 0.443924 0.011273
v 1.09699 0.426349 -0.00151075
v 1.05201 0.430063 0.0250823
v 1.10224 0.450459 -0.0140402
v 1.09874 0.38141 0.00618216
v 1.11735 0.374615 -0.00435
v 1.10136 0.346973 0.0137784
v 0.917464 0.362427 0.0947857
v 0.871893 0.435463 0.103266
v 0.884326 0.448416 0.096191
v 0.874267 0.470758 0.0973409
v 0.854463 0.457618 0.107004
v 0.905804 0.398009 0.094636
v 0.907775 0.426341 0.0905028
v 0.891035 0.370314 0.103417
v 0.878003 0.542569 0.0867428
v 0.890483 0.556367 0.0810169
v 0.888572 0.524421 0.0852204
v 0.780696 0.577837 0.0707454
v 0.726766 0.72144 -0.193474
v 0.731129 0.699109 -0.233822
v 0.693556 0.415301 -0.225922
v 0.709988 0.514034 -0.245935
v 0.699883 0.405111 -0.284136
v 0.698343 0.377653 -0.299308
v 0.706562 0.420927 -0.312563
v 0.704556 0.384375 -0.325327
v 0.710034 0.42048 -0.327711
v 0.718724 0.468273 -0.327815
v 0.725687 0.434246 -0.354145
v 0.727714 0.3945 -0.366
v 0.743678 0.446752 -0.358791
v 0.734296 0.452261 -0.355041
v 0.849618 0.523595 -0.353385
v 0.759958 0.390466 -0.364622
v 0.802633 0.386077 -0.363027
v 0.631353 0.45376 -0.0317726
v 0.637035 0.476735 -0.0419386
v 1.00242 0.599536 -0.23303
v 1.00843 0.591517 -0.258285
v 1.01402 0.526532 -0.260947
v 1.00752 0.534651 -0.237417
v 1.01313 0.559554 -0.265717
v 1.00654 0.568224 -0.242386
v 1.00028 0.638672 -0.228035
v 0.999503 0.668585 -0.241616
v 0.995348 0.688252 -0.300818
v 0.976881 0.709197 -0.310874
v 0.986916 0.656995 -0.313704
v 0.99102 0.722463 -0.294887
v 1.00639 0.700004 -0.283828
v 1.00984 0.609803 -0.309127
v 0.995932 0.590056 -0.321669
v 0.994874 0.627026 -0.314235
v 1.00948 0.649835 -0.300117
v 1.01271 0.617988 -0.287206
v 1.00974 0.614861 -0.269305
v 1.00871 0.649973 -0.277407
v 1.00924 0.526875 -0.323771
v 1.0128 0.565758 -0.312839
v 0.99849 0.55451 -0.326791
v 0.993928 0.525547 -0.336172
v 1.02564 0.512984 -0.296867
v 1.02001 0.534351 -0.280526
v 1.02053 0.548394 -0.298504
v 1.01896 0.523676 -0.310934
v 1.02219 0.442865 -0.331081
v 1.01761 0.486153 -0.324346
v 1.01542 0.585417 -0.298982
v 1.00463 0.494933 -0.33387
v 1.00467 0.443868 -0.345639
v 1.03084 0.457231 -0.306265
v 1.02621 0.462257 -0.320104
v 1.03197 0.456491 -0.148568
v 1.04504 0.458389 -0.125347
v 1.04798 0.421604 -0.125267
v 1.01461 0.421272 -0.229731
v 1.01231 0.669214 0.0136027
v 1.10493 0.327995 -0.0966045
v 1.10894 0.352852 -0.0879375
v 1.03909 0.358404 -0.143725
v 1.06525 0.316942 -0.123147
v 1.06913 0.347211 -0.116521
v 1.04466 0.383207 -0.135511
v 1.02412 0.315139 -0.177256
v 1.03294 0.313449 -0.156667
v 1.02213 0.37905 -0.182573
v 1.02823 0.34866 -0.166988
v 1.01634 0.411038 -0.202638
v 1.02993 0.381175 -0.160706
v 1.01804 0.374919 -0.205222
v 1.02471 0.329949 -0.25635
v 1.01968 0.316316 -0.198142
v 1.01844 0.343857 -0.208519
v 1.02109 0.345078 -0.187639
v 1.02127 0.423453 -0.173458
v 1.02996 0.430466 -0.156321
v 1.0162 0.461165 -0.181642
v 1.01571 0.440563 -0.197131
v 0.949894 0.562622 -0.343676
v 0.944818 0.515098 -0.350793
v 0.935356 0.531888 -0.349535
v 0.939097 0.446956 -0.358124
v 0.956154 0.511237 -0.350064
v 0.937412 0.485034 -0.354123
v 0.94942 0.464665 -0.356782
v 0.967228 0.37596 -0.369781
v 0.953887 0.414507 -0.361977
v 0.974733 0.505053 -0.346864
v 0.981606 0.527004 -0.341419
v 0.961116 0.591444 0.0569882
v 0.98149 0.59924 0.0475343
v 0.821916 0.485263 0.108056
v 0.807402 0.531429 0.0979768
v 0.812367 0.572965 0.0925353
v 0.802645 0.592336 0.0845102
v 0.790887 0.569316 0.0807827
v 0.80791 0.624565 0.0817189
v 0.783438 0.505669 0.0888118
v 0.794941 0.508399 0.0963279
v 0.780816 0.540135 0.078968
v 0.788812 0.595789 0.0735673
v 0.79011 0.536709 0.0869745
v 0.772726 0.405402 0.104356
v 0.785061 0.454005 0.102194
v 0.788088 0.485193 0.0968103
v 0.880813 0.411729 0.102434
v 0.869063 0.379151 0.112566
v 0.858763 0.420465 0.11072
v 0.867521 0.407968 0.108986
v 0.839806 0.391538 0.120556
v 0.846711 0.42543 0.11382
v 0.848888 0.387242 0.119185
v 0.833555 0.427234 0.116286
v 0.844297 0.453894 0.110148
v 0.830934 0.394182 0.122134
v 0.8258 0.452223 0.112687
v 0.849415 0.500402 0.102677
v 0.847428 0.534166 0.0984474
v 0.832945 0.516221 0.102715
v 0.86331 0.494371 0.0984959
v 0.839714 0.498251 0.104637
v 0.773683 0.604475 0.0589651
v 0.781946 0.608527 0.0653956
v 0.768691 0.55971 0.0637063
v 0.748546 0.489277 0.0608013
v 0.759478 0.51813 0.0643968
v 0.761396 0.461271 0.0781393
v 0.746263 0.569723 0.0421856
v 0.763321 0.494887 0.0726345
v 0.755081 0.476046 0.0693282
v 0.749018 0.407365 0.0787524
v 0.745451 0.443844 0.0678083
v 0.753602 0.440607 0.0755518
v 0.754889 0.405465 0.0841514
v 0.760238 0.430497 0.0838424
v 0.772383 0.455256 0.0906603
v 0.76896 0.479173 0.0813511
v 0.77972 0.473715 0.0932563
v 0.776911 0.439328 0.0992687
v 0.779577 0.404634 0.110177
v 0.759796 0.593627 0.0492823
v 0.75069 0.535605 0.0529422
v 0.7424 0.407104 0.0731885
v 0.775618 0.504112 0.0822581
v 0.76674 0.611734 0.0516131
v 0.748821 0.630429 0.0326069
v 0.752794 0.51491 0.0591993
v 0.753886 0.566258 0.0495398
v 0.75943 0.549209 0.0579954
v 0.758177 0.624651 0.0418939
v 0.750031 0.6015 0.0392705
v 0.757496 0.65415 0.0356959
v 0.75788 0.460856 -0.354591
v 0.749337 0.392045 -0.365892
v 0.75659 0.424156 -0.360218
v 0.767718 0.418478 -0.359182
v 0.770171 0.387435 -0.362305
v 0.848562 0.564284 -0.348568
v 0.834992 0.55814 -0.347526
v 0.791032 0.418423 -0.357662
v 0.788745 0.447688 -0.35398
v 0.791732 0.385139 -0.361771
v 0.803789 0.423795 -0.358547
v 0.813048 0.385886 -0.365146
v 0.825731 0.470337 -0.356692
v 0.83305 0.512674 -0.352806
v 0.820762 0.426597 -0.361313
v 0.819273 0.502406 -0.351367
v 0.812627 0.467808 -0.354513
v 0.808108 0.494698 -0.350337
v 0.839761 0.533439 -0.351215
v 0.844576 0.386995 -0.370783
v 0.811988 0.413263 -0.361355
v 0.83791 0.43473 -0.363549
v 0.828819 0.443584 -0.360907
v 0.844718 0.478096 -0.358726
v 0.842562 0.504499 -0.355193
v 0.834667 0.484544 -0.356665
v 0.857095 0.433752 -0.365133
v 0.847712 0.447831 -0.363004
v 0.864031 0.485665 -0.358794
v 0.853916 0.495156 -0.357204
v 0.638879 0.480463 -0.027771
v 0.630136 0.436062 -0.0162292
v 0.638663 0.442074 -0.00345903
v 0.623379 0.400868 -0.0068799
v 0.665222 0.504762 0.00319281
v 0.648076 0.405526 0.0160925
v 0.651218 0.481412 -0.00324048
v 0.672265 0.559238 -0.00532795
v 0.678857 0.59734 -0.00843578
v 0.71452 0.5942 0.0137588
v 0.699264 0.60914 0.00215943
v 0.689905 0.613425 -0.00474923
v 0.638726 0.403896 0.0102105
v 0.64962 0.445956 0.00766496
v 0.656925 0.523327 -0.00929865
v 0.666358 0.570436 -0.0146048
v 0.641088 0.429245 0.00475256
v 0.657638 0.475466 0.00523053
v 0.675774 0.468424 0.0175644
v 0.662459 0.452937 0.014164
v 0.669916 0.485844 0.0110238
v 0.692826 0.5354 0.0131393
v 0.679194 0.525121 0.00776055
v 0.669021 0.434832 0.0209153
v 0.685775 0.404449 0.035107
v 0.657207 0.405088 0.0219267
v 0.675995 0.40316 0.0304066
v 0.686833 0.449444 0.026605
v 0.683963 0.502155 0.0150164
v 0.671816 0.533255 0.000909605
v 0.688481 0.567807 0.00439367
v 0.677384 0.431591 0.0255043
v 0.699985 0.441241 0.0354906
v 0.701302 0.577962 0.00943189
v 0.69122 0.432406 0.0321087
v 0.725732 0.487162 0.0429773
v 0.738039 0.522852 0.0448766
v 0.735111 0.459914 0.055648
v 0.74504 0.543448 0.046246
v 0.743488 0.50736 0.0523164
v 0.722304 0.544159 0.028949
v 0.734824 0.592632 0.0276514
v 0.734322 0.489698 0.0490446
v 0.742421 0.464758 0.0606636
v 0.728244 0.52345 0.0372365
v 0.734175 0.558687 0.0339958
v 0.623765 0.425132 -0.040877
v 0.614854 0.395101 -0.0300764
v 0.623493 0.423279 -0.0279389
v 1.01153 0.463312 -0.336195
v 0.982964 0.435346 -0.357432
v 0.98206 0.471715 -0.350887
v 0.970896 0.456455 -0.356428
v 0.993152 0.450301 -0.351628
v 1.01067 0.368997 -0.358412
v 0.996753 0.404357 -0.359383
v 0.971463 0.413752 -0.364056
v 0.98553 0.402071 -0.363147
v 0.978314 0.37294 -0.370452
v 1.00016 0.371323 -0.364362
v 1.00905 0.406077 -0.351266
v 1.02148 0.364385 -0.352163
v 1.02422 0.401242 -0.340839
v 0.961278 0.438712 -0.360969
v 0.962955 0.403429 -0.365459
v 1.0441 0.353177 -0.320047
v 1.01569 0.428049 -0.34142
v 1.03685 0.405156 -0.320997
v 1.03 0.416406 -0.331213
v 1.0223 0.471654 -0.275795
v 1.01991 0.504268 -0.274828
v 0.926895 0.380306 -0.365873
v 0.816631 0.506957 0.104197
v 0.821749 0.565554 0.0958093
v 0.795764 0.469661 0.104948
v 0.804084 0.403931 0.121061
v 0.811624 0.447882 0.113691
v 0.790962 0.435926 0.109556
v 0.80051 0.442662 0.112789
v 0.819281 0.426424 0.117195
v 0.812367 0.401465 0.121072
v 0.813095 0.477079 0.108753
v 0.795487 0.40363 0.119069
v 0.766846 0.404189 0.0970989
v 0.768043 0.449922 -0.354694
v 0.833861 0.386959 -0.369592
v 0.855463 0.385278 -0.371214
v 0.88582 0.384361 -0.370677
v 0.871785 0.543174 -0.352439
v 0.86226 0.520689 -0.354643
v 0.859853 0.551975 -0.35093
v 0.890518 0.560107 -0.350559
v 0.890075 0.590196 -0.347446
v 0.906125 0.512155 -0.35467
v 0.874649 0.588445 -0.347698
v 0.916792 0.523769 -0.352422
v 0.918787 0.461273 -0.358547
v 0.929563 0.464613 -0.356933
v 0.926531 0.422888 -0.361332
v 0.879542 0.562501 -0.35045
v 0.911428 0.421535 -0.364057
v 0.937092 0.378695 -0.364879
v 0.940507 0.410215 -0.361915
v 0.916186 0.380806 -0.367653
v 0.920317 0.40538 -0.364282
v 0.902327 0.464609 -0.360255
v 0.910634 0.449966 -0.361133
v 0.910656 0.482895 -0.357544
v 0.886164 0.499819 -0.357281
v 0.874217 0.508952 -0.356286
v 0.895834 0.420544 -0.365868
v 0.897327 0.493616 -0.357375
v 0.894418 0.527016 -0.353876
v 0.904813 0.546423 -0.351094
v 0.882732 0.530258 -0.353964
v 0.904176 0.407903 -0.366669
v 0.706355 0.65962 -0.003693
v 0.726482 0.679588 0.00588038
v 0.728411 0.708262 0.00249442
v 0.714939 0.692312 -0.00492007
v 0.694775 0.403616 0.0397095
v 0.702623 0.500213 0.0252717
v 0.694356 0.508643 0.0189471
v 0.693209 0.479163 0.023868
v 0.715184 0.501897 0.0329105
v 0.713068 0.456777 0.0407812
v 0.705642 0.474448 0.0323545
v 0.718073 0.483175 0.0387155
v 0.720231 0.407402 0.0556471
v 0.706377 0.431582 0.0415404
v 0.711767 0.405078 0.0504985
v 0.721975 0.44696 0.0486446
v 0.727782 0.406116 0.0616197
v 0.714523 0.433069 0.0465983
v 0.722948 0.577956 0.0222991
v 0.709513 0.544051 0.0205173
v 0.702437 0.553531 0.0147651
v 1.04335 0.35859 -0.335161
v 1.03702 0.388171 -0.297452
v 1.02713 0.480777 -0.292569
v 0.766525 0.431959 0.0899809
v 0.8745 0.426859 -0.365843
v 0.877626 0.467586 -0.361052
v 0.885811 0.439192 -0.364224
v 0.890556 0.468527 -0.360646
v 0.882582 0.412148 -0.367429
v 0.896058 0.382948 -0.370328
v 0.695297 0.664283 -0.0127748
v 0.71377 0.631926 0.00611905
v 0.716916 0.660629 0.00240801
v 0.729791 0.628809 0.0165418
v 0.738816 0.625105 0.025265
v 0.738701 0.657785 0.019158
v 0.748897 0.66424 0.0265458
v 0.728535 0.435995 0.0558541
v 1.04005 0.382719 -0.312924
v 1.04424 0.346591 -0.304822
v 1.02614 0.380674 -0.27001
v 1.01848 0.397775 -0.249466
v 1.0217 0.364117 -0.254092
v 1.01994 0.323816 -0.237985
v 1.0177 0.351894 -0.228184
v 1.03466 0.421547 -0.303344
v 1.0289 0.446569 -0.289396
v 1.02289 0.43102 -0.269568
v 1.03034 0.414608 -0.285475
v 0.865484 0.414924 -0.367409
v 0.86661 0.452255 -0.362852
v 1.03367 0.369627 -0.285823
v 1.03029 0.334772 -0.274187
v 0.621831 0.381953 -0.0704116
v 0.630938 0.425771 -0.0689793
v 0.616813 0.387179 -0.0568176
v 0.635912 0.407976 -0.0875992
v 0.624249 0.418843 -0.0544915
v 0.627741 0.375519 -0.0842849
v 0.647909 0.363812 -0.128152
v 0.637751 0.431392 -0.0807945
v 0.650817 0.415382 -0.113627
v 0.664806 0.457701 -0.127433
v 0.672823 0.472796 -0.13993
v 0.6414 0.399711 -0.101156
v 0.641372 0.366664 -0.112881
v 0.647749 0.438288 -0.0988851
v 0.656584 0.447713 -0.112853
v 0.659848 0.421354 -0.130534
v 0.651873 0.393951 -0.12448
v 0.667661 0.493082 -0.120305
v 0.669283 0.39511 -0.162718
v 0.673956 0.424071 -0.162748
v 0.654496 0.360576 -0.14369
v 0.667181 0.358032 -0.175163
v 0.674731 0.386111 -0.181774
v 0.661841 0.391632 -0.147167
v 0.693096 0.370044 -0.270647
v 0.712624 0.389209 -0.348263
v 0.713867 0.416034 -0.339444
v 0.71914 0.417528 -0.349017
v 1.01311 0.487236 -0.250766
v 1.01128 0.469118 -0.233751
v 1.01791 0.46171 -0.260356
f 507 516 501
f 184 192 194
f 202 188 87
f 493 509 490
f 46 89 47
f 46 245 244
f 420 428 61
f 131 134 130
f 87 188 186
f 243 44 92
f 91 52 51
f 305 99 32
f 458 100 49
f 660 457 462
f 292 282 291
f 125 52 91
f 111 116 158
f 139 138 111
f 248 240 241
f 459 47 89
f 352 348 351
f 80 103 108
f 435 462 78
f 93 238 235
f 389 391 394
f 65 163 164
f 301 306 310
f 114 106 142
f 261 242 264
f 290 262 293
f 333 304 330
f 318 303 307
f 195 197 199
f 867 875 13
f 76 188 208
f 995 807 885
f 810 785 787
f 327 332 329
f 409 416 413
f 204 76 590
f 92 44 43
f 86 97 295
f 227 228 230
f 510 491 528
f 323 324 322
f 81 92 234
f 41 40 93
f 207 762 784
f 105 137 101
f 420 411 419
f 258 434 70
f 221 218 223
f 942 945 946
f 247 255 70
f 78 89 244
f 46 45 245
f 38 185 104
f 660 462 435
f 116 126 115
f 151 140 146
f 95 102 55
f 808 810 787
f 616 600 604
f 114 102 106
f 14 847 846
f 297 298 96
f 56 107 57
f 112 139 74
f 54 95 55
f 222 406 227
f 85 141 167
f 128 145 147
f 178 701 693
f 54 53 124
f 106 102 84
f 739 736 738
f 93 235 41
f 59 97 60
f 313 317 309
f 182 98 87
f 96 114 302
f 325 309 322
f 121 109 222
f 166 167 168
f 695 689 694
f 333 334 88
f 1007 983 712
f 101 82 93
f 99 189 33
f 189 99 88
f 38 37 185
f 81 241 249
f 36 35 98
f 755 917 754
f 152 153 936
f 121 105 120
f 97 86 556
f 50 49 100
f 352 355 564
f 355 354 564
f 104 101 40
f 299 301 86
f 556 60 97
f 81 239 241
f 130 108 119
f 386 210 369
f 84 112 110
f 387 384 386
f 382 395 380
f 51 50 103
f 234 43 42
f 33 32 99
f 533 819 162
f 258 70 255
f 232 231 73
f 182 36 98
f 294 296 295
f 435 70 434
f 117 119 108
f 91 51 103
f 103 50 100
f 80 115 126
f 234 42 233
f 92 81 243
f 40 39 104
f 238 237 233
f 185 182 184
f 105 101 94
f 124 53 123
f 95 84 102
f 102 107 55
f 297 96 302
f 295 59 58
f 86 301 556
f 190 34 189
f 183 182 87
f 305 304 88
f 338 88 334
f 458 49 48
f 103 80 91
f 101 93 40
f 94 194 105
f 84 110 106
f 107 102 96
f 100 90 103
f 115 108 71
f 38 104 39
f 94 101 104
f 120 105 83
f 121 73 122
f 128 106 74
f 102 114 96
f 107 96 298
f 55 107 56
f 90 117 103
f 108 103 117
f 83 192 199
f 213 218 200
f 112 84 124
f 74 106 110
f 136 71 133
f 110 112 74
f 84 95 124
f 138 139 112
f 153 148 65
f 157 175 179
f 142 128 141
f 302 114 85
f 116 115 71
f 80 108 115
f 130 133 71
f 138 126 111
f 455 451 452
f 130 71 108
f 521 514 118
f 464 478 486
f 452 117 90
f 451 79 661
f 83 199 206
f 121 120 109
f 222 109 221
f 231 122 73
f 137 82 101
f 121 122 137
f 53 52 125
f 126 116 111
f 54 124 95
f 124 123 138
f 80 125 91
f 53 125 123
f 123 125 126
f 80 126 125
f 144 158 136
f 127 160 146
f 145 128 74
f 141 128 113
f 536 149 159
f 146 160 151
f 119 131 130
f 520 134 118
f 521 131 119
f 520 507 513
f 135 133 132
f 134 133 130
f 135 132 143
f 133 135 136
f 118 134 131
f 132 133 134
f 547 62 542
f 136 135 129
f 136 129 144
f 116 71 136
f 121 137 105
f 82 137 122
f 124 138 112
f 126 138 123
f 111 158 161
f 74 139 127
f 145 74 146
f 147 113 128
f 168 169 171
f 142 85 114
f 128 142 106
f 85 142 141
f 526 132 513
f 62 135 143
f 159 144 129
f 161 139 111
f 146 74 127
f 145 140 147
f 161 159 160
f 140 145 146
f 148 140 163
f 148 147 140
f 674 838 843
f 154 169 155
f 535 540 543
f 832 819 820
f 894 899 897
f 156 155 148
f 151 165 164
f 163 151 164
f 843 933 674
f 147 155 113
f 943 936 938
f 153 152 156
f 172 154 174
f 684 679 680
f 147 148 155
f 156 148 153
f 180 174 152
f 155 156 154
f 177 171 175
f 173 742 741
f 136 158 116
f 161 158 144
f 532 536 537
f 159 149 160
f 160 127 161
f 149 151 160
f 139 161 127
f 159 161 144
f 531 541 529
f 162 819 934
f 148 163 65
f 140 151 163
f 165 151 149
f 162 938 164
f 149 536 533
f 162 164 165
f 141 168 167
f 698 558 691
f 168 141 113
f 166 689 688
f 113 169 168
f 169 154 172
f 155 169 113
f 172 171 169
f 173 174 180
f 741 586 740
f 175 171 170
f 168 171 177
f 154 156 174
f 170 171 172
f 587 586 750
f 172 173 740
f 152 174 156
f 172 174 173
f 172 740 170
f 177 175 157
f 906 910 904
f 704 681 683
f 689 177 157
f 177 166 168
f 740 587 170
f 693 701 700
f 587 175 170
f 693 692 694
f 935 956 957
f 180 150 742
f 183 181 182
f 198 193 195
f 184 182 181
f 36 182 37
f 87 186 183
f 588 364 590
f 192 184 181
f 94 104 185
f 182 185 37
f 94 185 184
f 35 190 98
f 204 186 76
f 208 187 718
f 186 188 76
f 202 98 190
f 188 187 208
f 191 187 188
f 33 189 34
f 34 190 35
f 191 190 189
f 191 189 338
f 202 191 188
f 195 192 181
f 194 192 83
f 203 198 195
f 109 120 200
f 105 194 83
f 184 194 94
f 203 181 183
f 193 209 195
f 76 201 588
f 210 68 215
f 210 205 209
f 120 83 206
f 203 195 181
f 198 196 368
f 195 199 192
f 206 199 197
f 205 211 209
f 214 215 394
f 338 342 187
f 589 588 201
f 98 202 87
f 191 202 190
f 183 186 204
f 198 203 196
f 196 203 204
f 183 204 203
f 218 109 200
f 209 211 197
f 211 206 197
f 120 206 200
f 200 206 211
f 405 785 761
f 187 342 718
f 76 208 201
f 195 209 197
f 210 209 193
f 368 193 198
f 365 196 204
f 214 211 205
f 211 217 200
f 389 68 390
f 391 212 394
f 216 217 214
f 212 758 216
f 215 214 205
f 216 214 212
f 210 215 205
f 215 68 389
f 212 755 756
f 217 216 213
f 200 217 213
f 211 214 217
f 219 213 758
f 218 213 219
f 220 223 207
f 219 223 218
f 758 212 756
f 218 221 109
f 64 224 220
f 121 222 73
f 224 221 223
f 64 226 406
f 207 223 219
f 224 223 220
f 64 806 811
f 221 224 406
f 64 783 806
f 407 63 284
f 222 227 73
f 221 406 222
f 226 228 227
f 259 253 254
f 997 226 813
f 259 229 273
f 236 81 234
f 230 232 227
f 274 228 225
f 230 229 231
f 237 231 229
f 122 231 82
f 227 232 73
f 230 231 232
f 239 236 272
f 42 41 235
f 43 234 92
f 233 237 236
f 238 93 82
f 42 235 233
f 233 236 234
f 229 259 272
f 236 237 229
f 238 233 235
f 82 231 238
f 237 238 231
f 239 72 241
f 81 236 239
f 248 241 252
f 251 244 246
f 252 254 408
f 241 240 249
f 267 269 263
f 255 414 258
f 247 251 246
f 44 243 245
f 46 244 89
f 246 244 243
f 44 245 45
f 243 244 245
f 249 246 243
f 247 246 240
f 260 255 247
f 251 247 70
f 252 241 72
f 264 271 270
f 246 249 240
f 81 249 243
f 248 256 260
f 256 248 261
f 435 251 70
f 251 78 244
f 252 72 254
f 248 252 408
f 239 272 72
f 854 960 992
f 254 72 272
f 253 407 408
f 260 247 240
f 415 413 250
f 261 248 242
f 250 255 256
f 430 428 463
f 257 438 434
f 414 255 250
f 257 431 438
f 273 229 230
f 854 992 853
f 248 260 240
f 255 260 256
f 283 265 284
f 256 261 270
f 1014 1017 1015
f 270 250 256
f 264 242 265
f 277 279 263
f 242 407 265
f 264 263 271
f 275 268 269
f 263 264 267
f 280 277 262
f 415 409 413
f 264 265 267
f 269 283 275
f 857 861 863
f 277 276 262
f 276 269 268
f 277 269 276
f 264 270 261
f 270 266 415
f 279 271 263
f 270 271 266
f 229 272 236
f 254 272 259
f 230 274 273
f 961 963 962
f 228 274 230
f 961 274 225
f 284 275 283
f 873 858 851
f 268 288 276
f 1016 1014 1015
f 280 279 277
f 263 269 277
f 282 292 280
f 416 61 413
f 410 279 278
f 271 279 266
f 282 280 262
f 278 279 280
f 289 281 291
f 465 471 446
f 286 289 290
f 289 291 282
f 269 267 283
f 265 283 267
f 407 284 265
f 852 284 63
f 850 846 285
f 1018 15 1016
f 282 290 289
f 678 286 290
f 1027 281 1021
f 419 411 412
f 858 850 285
f 678 290 293
f 290 282 262
f 1015 289 286
f 276 293 262
f 293 276 288
f 1027 291 281
f 292 291 287
f 412 292 287
f 292 278 280
f 285 844 288
f 844 677 678
f 85 167 688
f 86 295 296
f 59 295 97
f 58 57 298
f 296 294 559
f 299 296 686
f 294 295 297
f 295 58 298
f 298 57 107
f 295 298 297
f 303 306 307
f 86 296 299
f 312 306 303
f 309 325 327
f 75 318 307
f 330 300 329
f 302 85 688
f 294 297 302
f 679 308 311
f 306 312 300
f 305 88 99
f 31 60 556
f 32 31 305
f 556 305 31
f 310 306 300
f 307 306 301
f 301 299 307
f 75 307 299
f 703 708 713
f 729 339 717
f 303 313 312
f 313 314 317
f 330 310 300
f 556 310 304
f 318 685 311
f 312 313 309
f 303 318 313
f 329 309 327
f 308 314 311
f 314 313 311
f 314 308 316
f 314 316 317
f 335 336 316
f 567 569 357
f 335 316 308
f 320 317 316
f 320 316 315
f 309 317 322
f 685 318 75
f 313 318 311
f 331 335 682
f 1003 1004 1005
f 323 320 315
f 320 323 322
f 321 323 714
f 346 348 352
f 322 69 325
f 317 320 322
f 714 323 315
f 323 321 324
f 321 568 324
f 69 322 324
f 328 325 69
f 328 327 325
f 69 324 350
f 589 718 562
f 344 77 345
f 312 329 300
f 350 356 69
f 328 326 345
f 309 329 312
f 329 332 330
f 333 330 77
f 310 330 304
f 684 683 681
f 336 315 316
f 327 328 345
f 77 330 332
f 334 333 77
f 304 333 88
f 342 343 340
f 342 338 334
f 682 681 1042
f 335 331 336
f 341 1043 339
f 336 331 341
f 344 343 77
f 347 346 337
f 191 338 187
f 88 338 189
f 717 339 1043
f 722 721 1
f 343 334 77
f 337 628 340
f 331 1042 1043
f 341 339 739
f 343 342 334
f 718 342 340
f 332 345 77
f 340 343 347
f 348 344 326
f 340 347 337
f 327 345 332
f 326 344 345
f 326 328 351
f 346 564 565
f 343 344 347
f 347 344 348
f 351 348 326
f 347 348 346
f 356 349 351
f 354 361 353
f 359 567 357
f 358 354 355
f 356 328 69
f 351 349 352
f 354 358 361
f 352 349 355
f 645 618 638
f 611 616 610
f 359 358 349
f 614 609 601
f 350 359 349
f 633 564 354
f 349 356 350
f 328 356 351
f 568 566 567
f 574 573 360
f 349 358 355
f 361 358 574
f 567 359 350
f 357 358 359
f 572 357 569
f 576 642 644
f 574 358 357
f 361 360 644
f 437 432 440
f 482 486 478
f 745 746 741
f 748 908 907
f 371 375 376
f 372 370 371
f 367 372 366
f 369 372 367
f 373 375 371
f 366 376 379
f 372 369 368
f 384 387 656
f 369 193 368
f 370 368 196
f 369 367 386
f 193 369 210
f 196 365 370
f 370 365 371
f 365 373 371
f 752 625 592
f 370 372 368
f 371 366 372
f 365 364 373
f 751 592 375
f 604 595 605
f 401 396 383
f 751 373 364
f 371 376 366
f 380 376 382
f 385 378 380
f 655 767 400
f 384 68 386
f 379 376 380
f 403 404 658
f 375 382 376
f 658 657 378
f 395 385 380
f 378 379 380
f 656 404 381
f 7 773 769
f 592 382 375
f 395 382 374
f 598 600 602
f 403 396 377
f 387 367 366
f 390 388 389
f 396 385 383
f 403 385 396
f 386 68 210
f 387 386 367
f 657 366 379
f 658 656 657
f 777 923 920
f 922 926 921
f 390 68 384
f 389 388 391
f 384 381 390
f 779 381 778
f 393 917 388
f 755 212 917
f 753 925 916
f 10 796 984
f 916 780 753
f 754 393 916
f 214 394 212
f 215 389 394
f 395 374 597
f 383 385 395
f 399 401 596
f 767 768 770
f 6 653 648
f 596 598 399
f 402 377 396
f 399 648 653
f 653 654 399
f 398 767 655
f 383 599 596
f 402 396 654
f 654 396 401
f 400 767 650
f 403 377 404
f 378 385 403
f 377 402 650
f 652 778 781
f 808 791 786
f 783 220 784
f 64 406 224
f 227 406 226
f 408 407 242
f 407 253 991
f 408 242 248
f 253 408 254
f 410 266 279
f 410 411 416
f 410 278 411
f 410 409 415
f 412 278 292
f 422 417 421
f 1017 1025 1027
f 278 412 411
f 436 413 61
f 414 257 258
f 250 413 414
f 257 414 413
f 270 415 250
f 410 415 266
f 410 416 409
f 420 416 411
f 446 447 465
f 469 425 445
f 419 287 1031
f 61 416 420
f 287 419 412
f 419 418 420
f 421 418 422
f 418 421 420
f 429 421 417
f 431 436 428
f 287 1027 1028
f 417 422 424
f 1029 1023 1028
f 1032 1037 17
f 418 1031 1024
f 1035 1036 1032
f 427 447 445
f 478 464 476
f 421 429 430
f 444 432 450
f 424 1033 460
f 449 443 445
f 463 420 421
f 431 428 426
f 448 447 427
f 430 429 427
f 443 430 427
f 430 426 428
f 431 426 437
f 436 431 257
f 437 426 442
f 444 661 441
f 433 440 441
f 78 251 435
f 257 434 258
f 434 433 435
f 433 660 435
f 79 455 457
f 413 436 257
f 428 436 61
f 426 443 442
f 437 440 438
f 437 438 431
f 434 438 433
f 506 498 496
f 442 454 437
f 441 440 432
f 433 438 440
f 444 441 432
f 441 79 660
f 443 426 430
f 439 450 454
f 445 443 427
f 442 443 439
f 432 454 450
f 444 362 451
f 429 417 448
f 449 445 425
f 662 474 475
f 447 469 445
f 448 427 429
f 447 446 468
f 460 417 424
f 447 448 465
f 496 449 425
f 439 443 449
f 500 503 515
f 362 444 450
f 521 362 514
f 119 117 452
f 455 452 90
f 452 451 522
f 437 454 432
f 417 460 448
f 439 454 442
f 458 461 100
f 451 455 79
f 460 1033 456
f 467 466 456
f 455 90 461
f 459 458 48
f 459 48 47
f 458 457 461
f 78 459 89
f 458 459 457
f 1033 424 423
f 460 456 466
f 455 461 457
f 100 461 90
f 457 459 462
f 78 462 459
f 420 463 428
f 421 430 463
f 662 475 476
f 479 476 475
f 448 466 465
f 465 466 471
f 460 466 448
f 1036 467 456
f 18 472 470
f 467 472 471
f 446 662 476
f 464 663 469
f 447 468 469
f 464 469 468
f 466 467 471
f 467 453 470
f 467 470 472
f 478 476 479
f 471 472 662
f 1038 19 664
f 473 475 474
f 472 18 474
f 468 476 464
f 446 476 468
f 1038 479 473
f 490 492 489
f 477 482 478
f 481 487 489
f 499 450 439
f 473 479 475
f 477 478 479
f 517 669 508
f 516 514 515
f 477 664 485
f 425 469 663
f 665 485 664
f 481 484 486
f 492 481 489
f 485 487 477
f 502 495 498
f 668 666 667
f 481 482 487
f 481 486 482
f 486 484 663
f 477 487 482
f 666 489 485
f 483 666 485
f 670 491 517
f 485 489 487
f 490 489 488
f 1041 504 670
f 490 480 492
f 550 817 818
f 510 505 509
f 495 492 480
f 481 492 502
f 669 490 488
f 524 525 519
f 495 501 494
f 499 500 450
f 505 512 509
f 498 495 494
f 496 499 449
f 498 506 484
f 511 512 505
f 132 526 143
f 498 494 503
f 484 481 502
f 449 499 439
f 500 499 496
f 503 500 496
f 450 500 362
f 512 495 480
f 507 501 497
f 495 502 492
f 484 502 498
f 498 503 496
f 516 494 501
f 493 517 510
f 491 510 517
f 501 511 497
f 496 425 506
f 663 506 425
f 513 507 497
f 507 118 514
f 668 488 666
f 1040 1041 508
f 490 509 480
f 510 509 493
f 523 672 814
f 143 526 62
f 501 495 512
f 525 511 505
f 509 512 480
f 501 512 511
f 513 497 524
f 520 513 132
f 118 131 521
f 500 515 362
f 494 515 503
f 362 515 514
f 514 516 507
f 515 494 516
f 669 517 493
f 670 517 508
f 539 553 548
f 531 540 541
f 497 525 524
f 510 527 525
f 134 520 132
f 507 520 118
f 119 522 521
f 521 522 362
f 452 522 119
f 362 522 451
f 491 670 673
f 523 529 527
f 497 511 525
f 519 542 526
f 505 510 525
f 510 528 527
f 513 524 526
f 519 526 524
f 529 523 518
f 519 525 527
f 528 491 673
f 527 528 523
f 529 518 531
f 529 541 552
f 549 539 548
f 165 149 533
f 549 551 822
f 531 548 540
f 159 537 536
f 165 533 162
f 530 554 543
f 553 530 548
f 824 534 821
f 543 545 532
f 543 538 535
f 542 519 552
f 537 159 129
f 533 536 532
f 135 546 129
f 62 547 546
f 532 537 538
f 538 537 546
f 549 531 518
f 831 830 829
f 540 530 543
f 541 540 535
f 542 541 535
f 527 552 519
f 547 542 535
f 526 542 62
f 545 543 554
f 532 538 543
f 834 830 824
f 836 826 828
f 820 545 544
f 533 532 545
f 129 546 537
f 62 546 135
f 535 538 547
f 546 547 538
f 540 548 530
f 549 548 531
f 551 549 518
f 534 539 549
f 523 814 518
f 550 22 821
f 928 518 814
f 822 550 821
f 529 552 527
f 542 552 541
f 534 830 831
f 554 544 545
f 530 553 554
f 544 554 553
f 310 556 301
f 555 892 845
f 556 304 305
f 296 559 686
f 557 685 686
f 691 559 294
f 695 687 689
f 691 294 690
f 686 559 558
f 336 738 315
f 571 720 579
f 1000 1012 982
f 735 731 734
f 627 626 67
f 752 589 591
f 633 353 632
f 629 565 563
f 565 564 563
f 352 564 346
f 629 626 627
f 337 346 565
f 566 568 715
f 722 570 723
f 568 567 350
f 567 566 569
f 324 568 350
f 321 714 715
f 579 720 2
f 581 572 569
f 3 646 582
f 580 581 585
f 573 574 572
f 581 580 571
f 572 571 573
f 577 578 575
f 583 576 360
f 361 574 360
f 572 574 357
f 4 613 639
f 571 577 573
f 573 583 360
f 577 579 578
f 575 582 583
f 571 580 720
f 579 577 571
f 2 578 579
f 581 571 572
f 581 716 585
f 569 566 581
f 566 715 716
f 573 577 583
f 582 576 583
f 583 577 575
f 584 724 721
f 585 723 580
f 716 581 566
f 585 584 723
f 586 744 749
f 179 587 178
f 587 179 175
f 750 586 749
f 201 718 589
f 590 364 365
f 591 589 562
f 364 588 589
f 204 590 365
f 76 588 590
f 591 562 627
f 591 67 752
f 606 619 609
f 382 592 374
f 779 388 390
f 377 651 404
f 760 392 918
f 761 659 757
f 599 395 597
f 596 599 595
f 383 596 401
f 598 596 595
f 608 592 624
f 619 634 615
f 600 598 595
f 399 598 397
f 395 599 383
f 595 599 597
f 600 595 604
f 598 602 397
f 597 607 605
f 4 612 613
f 605 595 597
f 600 5 602
f 603 610 617
f 604 614 610
f 608 607 597
f 605 609 614
f 751 752 592
f 607 609 605
f 608 597 374
f 607 606 609
f 592 608 374
f 606 607 608
f 619 620 634
f 622 601 609
f 613 612 617
f 616 5 600
f 609 619 622
f 610 603 611
f 601 630 617
f 645 642 576
f 610 614 601
f 605 614 604
f 631 632 636
f 630 613 617
f 610 616 604
f 5 616 611
f 603 617 612
f 601 617 610
f 620 619 606
f 613 630 643
f 622 619 640
f 624 620 606
f 620 67 626
f 615 631 636
f 643 635 641
f 640 619 615
f 622 621 630
f 608 624 606
f 638 637 645
f 625 624 592
f 67 620 625
f 624 625 620
f 591 627 67
f 631 626 563
f 562 628 627
f 337 629 628
f 340 628 562
f 629 337 565
f 626 629 563
f 628 629 627
f 622 630 601
f 643 630 621
f 632 631 563
f 634 631 615
f 563 564 633
f 632 353 635
f 353 633 354
f 563 633 632
f 620 626 634
f 631 634 626
f 641 635 353
f 640 635 643
f 632 635 636
f 636 635 640
f 641 642 637
f 623 638 618
f 623 639 638
f 638 639 643
f 4 639 623
f 639 613 643
f 622 640 621
f 636 640 615
f 642 641 353
f 643 641 637
f 644 642 353
f 576 646 645
f 637 638 643
f 643 621 640
f 361 644 353
f 576 644 360
f 618 645 647
f 637 642 645
f 582 646 576
f 647 646 3
f 772 652 769
f 646 647 645
f 399 397 648
f 651 377 650
f 400 650 402
f 650 649 651
f 652 651 649
f 404 651 781
f 769 652 649
f 652 775 778
f 655 653 6
f 654 400 402
f 399 654 401
f 400 654 653
f 384 656 381
f 653 655 400
f 656 387 657
f 366 657 387
f 378 657 379
f 403 658 378
f 404 656 658
f 756 757 762
f 220 783 64
f 441 660 433
f 457 660 79
f 441 661 79
f 444 451 661
f 471 662 446
f 474 662 472
f 486 663 464
f 506 663 484
f 1038 664 477
f 485 665 483
f 668 667 20
f 664 19 665
f 489 666 488
f 1040 20 1039
f 666 483 667
f 669 668 508
f 490 669 493
f 668 669 488
f 21 672 671
f 672 523 528
f 672 673 671
f 670 504 671
f 675 816 815
f 671 673 670
f 528 673 672
f 544 829 827
f 180 939 150
f 677 844 845
f 817 550 928
f 821 534 822
f 890 891 15
f 844 678 293
f 286 678 677
f 685 679 311
f 680 679 557
f 697 680 557
f 66 683 680
f 692 693 700
f 1043 1042 319
f 335 308 682
f 308 679 684
f 705 66 709
f 684 681 682
f 683 684 680
f 308 684 682
f 686 685 75
f 679 685 557
f 686 75 299
f 557 686 558
f 302 688 690
f 166 177 689
f 166 688 167
f 688 687 690
f 694 689 157
f 689 687 688
f 691 690 687
f 302 690 294
f 695 691 687
f 559 691 558
f 157 179 693
f 695 692 696
f 179 178 693
f 702 699 701
f 693 694 157
f 694 692 695
f 709 696 692
f 695 698 691
f 697 66 680
f 557 698 697
f 698 557 558
f 66 697 696
f 695 696 698
f 697 698 696
f 910 893 711
f 700 699 706
f 706 705 700
f 696 709 66
f 702 701 178
f 700 701 699
f 750 702 178
f 702 176 710
f 708 703 706
f 704 914 681
f 66 704 683
f 703 983 914
f 703 704 705
f 66 705 704
f 708 706 699
f 703 705 706
f 710 893 708
f 911 981 999
f 710 708 699
f 708 707 713
f 692 700 709
f 705 709 700
f 702 710 699
f 710 176 711
f 176 895 897
f 711 899 904
f 906 981 912
f 983 1007 913
f 713 707 912
f 703 713 712
f 739 339 729
f 716 715 714
f 321 715 568
f 714 737 716
f 724 716 560
f 585 716 584
f 319 1008 1002
f 561 731 729
f 208 718 201
f 340 562 718
f 580 719 720
f 580 570 719
f 2 720 719
f 725 726 728
f 726 1 721
f 723 570 580
f 722 723 721
f 721 723 584
f 716 724 584
f 730 724 560
f 736 729 727
f 736 730 560
f 735 727 731
f 727 729 731
f 726 721 728
f 721 724 730
f 561 729 717
f 730 736 727
f 727 728 730
f 721 730 728
f 731 1005 734
f 725 728 735
f 1005 731 561
f 561 717 1002
f 735 733 725
f 30 733 734
f 727 735 728
f 733 735 734
f 560 737 736
f 738 714 315
f 716 737 560
f 738 737 714
f 738 336 341
f 738 736 737
f 736 739 729
f 341 739 738
f 741 740 173
f 587 740 586
f 741 742 745
f 363 744 741
f 180 742 173
f 745 742 150
f 941 743 745
f 746 363 741
f 749 744 363
f 586 741 744
f 939 951 150
f 745 743 746
f 748 743 946
f 899 901 27
f 747 908 26
f 743 748 746
f 901 902 27
f 896 895 749
f 176 702 750
f 587 750 178
f 176 750 749
f 373 751 375
f 589 752 364
f 625 752 67
f 364 752 751
f 780 393 388
f 593 774 777
f 760 759 763
f 755 754 594
f 756 755 594
f 212 391 917
f 757 756 594
f 756 207 758
f 757 594 763
f 762 757 659
f 219 758 207
f 216 758 213
f 594 754 760
f 984 927 10
f 754 392 760
f 918 765 766
f 763 761 757
f 805 761 759
f 659 783 784
f 756 762 207
f 760 763 594
f 761 763 759
f 764 800 801
f 760 766 759
f 800 797 799
f 918 766 760
f 765 800 799
f 7 769 770
f 650 767 649
f 770 769 649
f 767 398 768
f 774 593 775
f 767 770 649
f 7 770 768
f 774 772 771
f 773 771 772
f 778 775 593
f 776 8 774
f 769 773 772
f 593 777 753
f 652 772 775
f 774 775 772
f 8 923 774
f 774 771 776
f 920 923 924
f 780 782 753
f 781 778 381
f 381 779 390
f 782 778 593
f 388 779 780
f 779 778 782
f 404 781 381
f 652 781 651
f 753 782 593
f 779 782 780
f 785 659 761
f 783 659 785
f 207 784 220
f 659 784 762
f 787 790 791
f 405 787 785
f 971 975 969
f 813 64 811
f 790 787 405
f 791 808 787
f 797 805 799
f 786 791 793
f 973 970 969
f 867 869 863
f 797 984 798
f 790 788 791
f 794 795 792
f 794 793 791
f 804 11 793
f 788 794 791
f 886 879 880
f 794 796 795
f 793 794 792
f 798 984 788
f 796 794 788
f 10 795 796
f 788 790 798
f 799 759 766
f 790 405 798
f 805 798 405
f 765 799 766
f 805 797 798
f 765 921 801
f 800 764 927
f 802 806 785
f 765 801 800
f 812 811 802
f 878 967 876
f 803 882 809
f 761 805 405
f 793 792 804
f 799 805 759
f 785 806 783
f 811 806 802
f 852 63 855
f 228 226 997
f 883 808 786
f 810 808 803
f 812 809 789
f 810 802 785
f 803 809 810
f 802 810 809
f 802 809 812
f 813 811 807
f 888 884 889
f 807 811 812
f 995 997 807
f 64 813 226
f 816 672 815
f 817 928 816
f 817 816 675
f 672 21 815
f 672 816 814
f 550 818 22
f 550 551 928
f 820 819 533
f 817 675 818
f 674 933 934
f 545 820 533
f 829 544 553
f 676 824 823
f 821 823 824
f 549 822 534
f 551 550 822
f 23 828 825
f 821 22 823
f 820 544 827
f 830 834 828
f 676 825 834
f 929 836 828
f 835 839 836
f 832 827 838
f 832 838 674
f 826 830 828
f 553 539 831
f 826 827 829
f 830 534 824
f 826 829 830
f 553 831 829
f 534 831 539
f 819 832 674
f 820 827 832
f 676 834 824
f 929 833 835
f 825 828 834
f 930 24 1010
f 839 827 826
f 929 828 23
f 839 835 837
f 841 833 840
f 841 837 835
f 839 838 827
f 843 838 837
f 836 839 826
f 838 839 837
f 915 948 947
f 842 843 841
f 833 841 835
f 842 841 840
f 931 989 24
f 65 938 936
f 841 843 837
f 958 953 952
f 288 844 293
f 845 844 285
f 846 845 285
f 847 555 845
f 858 288 268
f 14 846 860
f 859 268 275
f 846 847 845
f 874 854 877
f 858 285 288
f 857 856 860
f 856 857 849
f 852 275 284
f 789 885 812
f 854 855 960
f 852 851 859
f 878 964 868
f 874 852 855
f 960 63 991
f 864 848 866
f 960 855 63
f 855 854 874
f 850 848 861
f 857 846 850
f 861 848 864
f 858 268 859
f 848 850 858
f 852 859 275
f 858 859 851
f 14 860 856
f 846 857 860
f 864 863 861
f 857 850 861
f 866 874 865
f 870 878 868
f 867 863 862
f 849 857 863
f 866 865 872
f 862 863 864
f 880 888 889
f 866 872 864
f 848 873 866
f 854 853 877
f 870 875 878
f 863 869 849
f 967 862 872
f 871 878 875
f 867 13 869
f 875 862 871
f 979 978 884
f 872 865 966
f 864 872 862
f 858 873 848
f 874 873 851
f 873 874 866
f 874 851 852
f 13 875 870
f 862 875 867
f 966 967 872
f 809 882 789
f 979 853 978
f 865 874 877
f 967 878 871
f 964 878 876
f 882 883 880
f 793 887 786
f 803 808 883
f 888 880 879
f 11 881 887
f 974 12 973
f 883 882 803
f 889 882 880
f 887 883 786
f 886 883 881
f 967 970 876
f 885 807 812
f 978 885 889
f 992 994 853
f 883 886 880
f 975 886 881
f 11 887 793
f 883 887 881
f 968 965 979
f 978 889 884
f 885 789 889
f 889 789 882
f 286 677 890
f 892 890 677
f 845 892 677
f 892 891 890
f 891 892 555
f 708 893 707
f 710 711 893
f 749 895 176
f 895 896 894
f 896 749 363
f 897 895 894
f 907 363 746
f 748 26 908
f 894 901 899
f 176 897 711
f 903 898 899
f 899 711 897
f 899 898 904
f 894 896 900
f 900 896 907
f 894 900 901
f 902 900 747
f 28 906 905
f 900 902 901
f 899 27 903
f 905 906 904
f 909 999 981
f 904 898 905
f 912 910 906
f 363 907 896
f 746 748 907
f 747 900 908
f 907 908 900
f 893 910 707
f 707 910 912
f 904 910 711
f 1000 29 1012
f 713 911 712
f 981 906 28
f 713 912 911
f 913 1044 1042
f 703 712 983
f 703 914 704
f 1042 914 913
f 754 916 392
f 940 941 150
f 780 916 393
f 388 917 391
f 754 917 393
f 777 920 753
f 801 921 9
f 922 921 918
f 392 925 922
f 916 925 392
f 765 918 921
f 392 922 918
f 920 919 922
f 921 926 9
f 774 923 777
f 920 924 919
f 753 920 925
f 923 8 924
f 922 925 920
f 518 928 551
f 922 919 926
f 927 984 800
f 816 928 814
f 986 952 953
f 836 929 835
f 840 833 930
f 985 1011 1010
f 936 153 65
f 842 933 843
f 934 933 932
f 934 932 938
f 674 934 819
f 951 955 949
f 957 939 180
f 164 938 65
f 152 936 935
f 932 958 943
f 915 942 948
f 934 938 162
f 943 938 932
f 957 180 152
f 939 937 951
f 944 942 950
f 941 942 743
f 150 941 745
f 942 941 940
f 940 950 942
f 945 26 946
f 932 953 958
f 936 943 935
f 950 951 949
f 959 950 949
f 748 946 26
f 942 915 945
f 942 946 743
f 942 944 948
f 959 947 944
f 947 948 944
f 955 956 952
f 959 25 947
f 951 950 940
f 959 949 954
f 951 940 150
f 955 951 937
f 953 932 933
f 955 988 949
f 933 842 953
f 842 1011 986
f 988 986 987
f 25 959 990
f 956 955 937
f 988 955 952
f 957 956 937
f 935 943 958
f 939 957 937
f 935 957 152
f 952 956 958
f 958 956 935
f 950 959 944
f 990 959 954
f 259 963 253
f 273 962 259
f 961 962 274
f 997 995 996
f 274 962 273
f 961 993 963
f 963 960 991
f 259 962 963
f 979 980 853
f 973 964 876
f 884 888 968
f 966 865 980
f 967 966 965
f 967 965 970
f 967 871 862
f 879 971 888
f 971 969 970
f 881 998 975
f 964 973 12
f 965 968 970
f 970 968 971
f 888 971 968
f 975 971 879
f 970 973 876
f 972 975 998
f 975 972 977
f 975 879 886
f 977 973 969
f 977 972 974
f 973 977 974
f 11 976 998
f 969 975 977
f 884 968 979
f 994 978 853
f 966 979 965
f 877 980 865
f 853 980 877
f 966 980 979
f 1003 1013 732
f 912 981 911
f 712 911 1006
f 1007 712 1006
f 914 983 913
f 984 796 788
f 800 984 797
f 989 954 987
f 842 840 1011
f 842 986 953
f 987 986 985
f 989 987 985
f 988 954 949
f 986 988 952
f 988 987 954
f 24 989 985
f 954 989 931
f 407 991 63
f 954 931 990
f 963 991 253
f 960 993 992
f 994 885 978
f 963 993 960
f 994 993 961
f 993 994 992
f 961 225 996
f 885 994 995
f 996 995 994
f 961 996 994
f 996 225 997
f 228 997 225
f 807 997 813
f 11 998 881
f 972 998 976
f 1000 999 909
f 1006 999 982
f 1003 561 1002
f 999 1000 982
f 1008 913 1007
f 319 1002 717
f 1003 1002 1001
f 1013 1003 1001
f 734 1005 30
f 1003 1005 561
f 1003 732 1004
f 30 1005 1004
f 999 1006 911
f 1008 1009 1001
f 1009 1006 982
f 1008 319 1044
f 1009 1008 1007
f 1002 1008 1001
f 1006 1009 1007
f 1009 982 1012
f 930 1010 840
f 24 985 1010
f 1010 1011 840
f 986 1011 985
f 1013 1012 29
f 1009 1012 1001
f 286 890 1018
f 1012 1013 1001
f 289 1015 1021
f 16 1025 1019
f 1022 1025 1026
f 1018 1016 1015
f 289 1021 281
f 286 1018 1015
f 15 1018 890
f 1015 1017 1021
f 1017 1014 1019
f 1025 1017 1019
f 1027 1021 1017
f 1037 1030 1020
f 1024 423 424
f 422 1024 424
f 1023 1024 1031
f 418 1024 422
f 423 1024 1023
f 1026 1020 1030
f 1025 1022 1027
f 1028 1027 1022
f 1025 16 1026
f 291 1027 287
f 1029 1028 1022
f 1028 1023 1031
f 1030 1029 1022
f 423 1023 1029
f 1026 1030 1022
f 1020 1034 1037
f 419 1031 418
f 1028 1031 287
f 1037 1029 1030
f 1036 1035 453
f 423 1032 1033
f 456 1033 1032
f 467 1036 453
f 423 1037 1032
f 1032 17 1035
f 1032 1036 456
f 1029 1037 423
f 17 1037 1034
f 20 1040 668
f 479 1038 477
f 668 1040 508
f 1041 1039 504
f 508 1041 670
f 1039 1041 1040
f 682 1042 331
f 1042 681 914
f 1043 319 717
f 331 1043 341
f 1008 1044 913
f 319 1042 1044
