# Blender 5.0.1
# www.blender.org
o annulus1000verts_new.obj_1044.001_Flat_Aligned
v 1.525559 0.000000 -1.048695
v 1.493229 0.000000 -1.178595
v 1.434620 0.000000 -1.298942
v 1.352268 0.000000 -1.404481
v 1.249784 0.000000 -1.490614
v 1.131629 0.000000 -1.553590
v 1.002949 0.000000 -1.590627
v 0.869347 0.000000 -1.600101
v 0.736668 0.000000 -1.581562
v 0.610748 0.000000 -1.535767
v 0.497133 0.000000 -1.464736
v 0.400796 0.000000 -1.371596
v 0.326009 0.000000 -1.260434
v 0.276000 0.000000 -1.136173
v 0.252927 0.000000 -1.004252
v 0.257749 0.000000 -0.870440
v 0.290260 0.000000 -0.740563
v 0.349027 0.000000 -0.620254
v 0.431537 0.000000 -0.514784
v 0.534185 0.000000 -0.428798
v 0.652473 0.000000 -0.366055
v 0.781227 0.000000 -0.329352
v 0.914752 0.000000 -0.320323
v 1.046939 0.000000 -0.339364
v 1.172262 0.000000 -0.384969
v 1.285395 0.000000 -0.455874
v 1.381539 0.000000 -0.548280
v 1.456577 0.000000 -0.659068
v 1.506832 0.000000 -0.783123
v 1.530150 0.000000 -0.914918
v 1.023405 0.000000 -0.978276
v 1.015825 0.000000 -1.006364
v 1.004975 0.000000 -1.029924
v 0.986971 0.000000 -1.055112
v 0.966359 0.000000 -1.075776
v 0.941716 0.000000 -1.093492
v 0.914720 0.000000 -1.107493
v 0.884623 0.000000 -1.115569
v 0.853026 0.000000 -1.115720
v 0.822289 0.000000 -1.104448
v 0.797346 0.000000 -1.083046
v 0.782470 0.000000 -1.058771
v 0.775442 0.000000 -1.034795
v 0.774361 0.000000 -1.011044
v 0.778572 0.000000 -0.984309
v 0.785096 0.000000 -0.955589
v 0.794226 0.000000 -0.925211
v 0.806917 0.000000 -0.894225
v 0.819394 0.000000 -0.868786
v 0.833334 0.000000 -0.846487
v 0.850519 0.000000 -0.828146
v 0.871397 0.000000 -0.814204
v 0.897492 0.000000 -0.805556
v 0.930554 0.000000 -0.805117
v 0.963128 0.000000 -0.815384
v 0.988995 0.000000 -0.834516
v 1.005999 0.000000 -0.860386
v 1.017000 0.000000 -0.889513
v 1.023835 0.000000 -0.920381
v 1.026299 0.000000 -0.947386
v 0.501202 0.000000 -0.862514
v 0.780867 0.000000 -0.573041
v 0.518267 0.000000 -1.110883
v 0.678077 0.000000 -1.301732
v 1.029260 0.000000 -0.582080
v 1.264653 0.000000 -0.809305
v 1.150230 0.000000 -1.268293
v 0.919604 0.000000 -1.361747
v 1.282012 0.000000 -1.057297
v 0.619601 0.000000 -0.892205
v 0.814433 0.000000 -0.690365
v 0.631427 0.000000 -1.065400
v 0.742745 0.000000 -1.198392
v 0.987543 0.000000 -0.696632
v 1.177960 0.000000 -0.909575
v 1.028003 0.000000 -1.216947
v 1.152899 0.000000 -1.087555
v 0.679259 0.000000 -0.907120
v 0.676187 0.000000 -0.791508
v 0.831443 0.000000 -0.749487
v 0.688487 0.000000 -1.042595
v 0.775361 0.000000 -1.146333
v 0.853369 0.000000 -1.231224
v 0.966530 0.000000 -0.754426
v 1.081515 0.000000 -0.763472
v 1.112217 0.000000 -0.921167
v 0.996580 0.000000 -1.158016
v 1.092897 0.000000 -1.058341
v 0.710125 0.000000 -0.914715
v 0.745673 0.000000 -0.785784
v 0.840345 0.000000 -0.780122
v 0.718107 0.000000 -1.030939
v 0.792306 0.000000 -1.119331
v 0.861428 0.000000 -1.173659
v 0.955636 0.000000 -0.784440
v 1.041123 0.000000 -0.805261
v 1.078288 0.000000 -0.927113
v 0.980343 0.000000 -1.127583
v 1.061956 0.000000 -1.043236
v 0.768700 0.000000 -0.813159
v 0.819954 0.000000 -1.155199
v 1.000981 0.000000 -0.784044
v 0.795171 0.000000 -0.776536
v 0.848891 0.000000 -1.146227
v 0.825542 0.000000 -1.198046
v 1.010749 0.000000 -0.737857
v 1.011763 0.000000 -0.812317
v 0.788433 0.000000 -0.729824
v 0.784480 0.000000 -1.260365
v 0.981443 0.000000 -0.727143
v 0.900760 0.000000 -0.700739
v 0.938653 0.000000 -0.721457
v 1.073059 0.000000 -0.675854
v 1.035441 0.000000 -0.767299
v 0.818439 0.000000 -0.721223
v 0.856993 0.000000 -0.700575
v 0.765905 0.000000 -0.756923
v 0.717149 0.000000 -0.654748
v 0.735371 0.000000 -0.708791
v 0.814492 0.000000 -1.235405
v 0.776680 0.000000 -1.220658
v 0.776904 0.000000 -1.183467
v 0.898346 0.000000 -0.750133
v 0.932051 0.000000 -0.758838
v 0.871762 0.000000 -0.769714
v 0.866306 0.000000 -0.734749
v 0.942684 0.000000 -0.669124
v 1.033233 0.000000 -0.698164
v 0.854995 0.000000 -0.615353
v 0.773010 0.000000 -0.691447
v 0.743115 0.000000 -0.676078
v 0.763338 0.000000 -0.625051
v 0.792794 0.000000 -0.654661
v 0.763285 0.000000 -0.654537
v 0.807256 0.000000 -0.610872
v 0.835480 0.000000 -0.653273
v 0.804794 0.000000 -1.178924
v 0.911520 0.000000 -0.726054
v 0.928869 0.000000 -0.694358
v 1.012154 0.000000 -0.640736
v 1.071800 0.000000 -0.720175
v 1.043236 0.000000 -0.735722
v 0.780056 0.000000 -0.601721
v 0.884536 0.000000 -0.654494
v 1.011126 0.000000 -0.673662
v 0.977890 0.000000 -0.656073
v 1.042644 0.000000 -0.658231
v 1.045135 0.000000 -0.618558
v 0.932332 0.000000 -0.587693
v 1.169193 0.000000 -0.542992
v 0.976649 0.000000 -0.607584
v 1.101954 0.000000 -0.572230
v 1.067010 0.000000 -0.587392
v 1.105991 0.000000 -0.629219
v 1.073003 0.000000 -0.640869
v 1.093888 0.000000 -0.601426
v 1.190537 0.000000 -0.716447
v 0.878917 0.000000 -0.682394
v 0.898033 0.000000 -0.613663
v 0.940878 0.000000 -0.627990
v 0.916669 0.000000 -0.649610
v 0.978402 0.000000 -0.544350
v 1.009418 0.000000 -0.608105
v 0.993488 0.000000 -0.576431
v 0.961054 0.000000 -0.572055
v 1.131540 0.000000 -0.729614
v 1.099832 0.000000 -0.736672
v 1.107577 0.000000 -0.696999
v 1.104558 0.000000 -0.663156
v 1.172750 0.000000 -0.649111
v 1.142949 0.000000 -0.676845
v 1.138478 0.000000 -0.642176
v 1.165568 0.000000 -0.596234
v 1.129983 0.000000 -0.602274
v 1.177343 0.000000 -0.683910
v 1.301756 0.000000 -0.649780
v 1.158242 0.000000 -0.710572
v 1.242212 0.000000 -0.676571
v 1.210806 0.000000 -0.689300
v 1.139089 0.000000 -0.565684
v 0.934379 0.000000 -1.213011
v 0.947168 0.000000 -1.164842
v 0.976935 0.000000 -1.198450
v 0.905345 0.000000 -1.179645
v 0.904398 0.000000 -1.147228
v 1.009238 0.000000 -1.189110
v 1.079985 0.000000 -1.142174
v 1.039873 0.000000 -1.158503
v 1.055415 0.000000 -1.095563
v 1.017591 0.000000 -1.110899
v 1.045961 0.000000 -1.126626
v 0.893261 0.000000 -1.219381
v 0.924706 0.000000 -1.287160
v 0.866904 0.000000 -1.203747
v 0.918811 0.000000 -1.248711
v 0.978683 0.000000 -1.259152
v 0.876666 0.000000 -1.274882
v 0.946964 0.000000 -1.264045
v 0.879302 0.000000 -1.245454
v 0.828257 0.000000 -1.282249
v 1.078808 0.000000 -1.196771
v 1.018470 0.000000 -1.139506
v 0.963678 0.000000 -1.229232
v 0.997355 0.000000 -1.231063
v 0.890046 0.000000 -1.322295
v 0.849805 0.000000 -1.261130
v 0.762027 0.000000 -1.359524
v 1.067611 0.000000 -1.169236
v 0.897163 0.000000 -1.294693
v 0.927830 0.000000 -1.324835
v 0.856656 0.000000 -1.306108
v 0.838879 0.000000 -1.384917
v 0.809527 0.000000 -1.333160
v 0.857072 0.000000 -1.347597
v 0.888433 0.000000 -1.354263
v 0.828317 0.000000 -1.356715
v 0.837368 0.000000 -1.327053
v 0.792865 0.000000 -1.298174
v 0.775460 0.000000 -1.327851
v 0.724090 0.000000 -1.324789
v 0.749285 0.000000 -1.287911
v 0.737136 0.000000 -1.243771
v 0.750400 0.000000 -1.315683
v 0.712736 0.000000 -1.290032
v 0.644957 0.000000 -1.209081
v 0.679462 0.000000 -1.249057
v 0.705487 0.000000 -1.216747
v 0.674531 0.000000 -1.218467
v 0.686705 0.000000 -1.132260
v 0.687571 0.000000 -1.176371
v 0.728550 0.000000 -1.153707
v 0.717399 0.000000 -1.181745
v 0.729353 0.000000 -1.100367
v 0.715417 0.000000 -1.066938
v 0.762857 0.000000 -1.103073
v 0.673170 0.000000 -1.086907
v 0.715894 0.000000 -1.126762
v 0.748750 0.000000 -1.130419
v 0.661553 0.000000 -1.057953
v 0.625949 0.000000 -0.978776
v 0.636574 0.000000 -1.021587
v 0.553098 0.000000 -1.033888
v 0.679694 0.000000 -0.988100
v 0.685924 0.000000 -0.947716
v 0.702935 0.000000 -0.971170
v 0.656206 0.000000 -0.963780
v 0.623360 0.000000 -0.935452
v 0.592218 0.000000 -1.009925
v 0.650787 0.000000 -0.995311
v 0.549757 0.000000 -0.920042
v 0.646494 0.000000 -0.911638
v 0.607980 0.000000 -1.040389
v 0.576942 0.000000 -1.093297
v 0.600124 0.000000 -1.071388
v 0.588861 0.000000 -0.916661
v 0.573245 0.000000 -0.963910
v 0.564127 0.000000 -0.858505
v 0.587263 0.000000 -0.882969
v 0.627498 0.000000 -1.124922
v 0.603222 0.000000 -0.958383
v 0.557639 0.000000 -0.997300
v 0.405196 0.000000 -0.996838
v 0.481397 0.000000 -1.006346
v 0.520637 0.000000 -1.011248
v 0.510296 0.000000 -1.060842
v 0.507466 0.000000 -0.956751
v 0.498092 0.000000 -1.032399
v 0.426751 0.000000 -1.079927
v 0.453465 0.000000 -1.042686
v 0.539482 0.000000 -0.968416
v 0.503783 0.000000 -0.986485
v 0.642172 0.000000 -1.096064
v 0.653972 0.000000 -1.154814
v 0.659251 0.000000 -1.183606
v 0.471638 0.000000 -1.084006
v 0.410299 0.000000 -1.039854
v 0.442809 0.000000 -1.005528
v 0.439500 0.000000 -0.933772
v 0.462870 0.000000 -0.968656
v 0.426682 0.000000 -0.967672
v 0.338693 0.000000 -0.925184
v 0.378690 0.000000 -0.954733
v 0.479956 0.000000 -1.055676
v 0.500324 0.000000 -1.088079
v 0.344728 0.000000 -1.090222
v 0.320594 0.000000 -0.991664
v 0.392040 0.000000 -0.894690
v 0.384338 0.000000 -1.073944
v 0.342496 0.000000 -0.961938
v 0.362563 0.000000 -0.999721
v 0.372105 0.000000 -0.921752
v 0.406119 0.000000 -0.925984
v 0.371712 0.000000 -1.037342
v 1.117140 0.000000 -0.838372
v 1.087121 0.000000 -0.878080
v 1.131925 0.000000 -0.880808
v 1.072957 0.000000 -0.836086
v 1.046856 0.000000 -0.855293
v 1.144485 0.000000 -0.911969
v 1.167492 0.000000 -0.998846
v 1.140550 0.000000 -0.959517
v 1.077248 0.000000 -0.799774
v 1.187823 0.000000 -0.955970
v 1.113237 0.000000 -1.007225
v 1.077736 0.000000 -1.011101
v 1.165208 0.000000 -0.971501
v 1.162677 0.000000 -0.937405
v 1.281675 0.000000 -0.911654
v 1.236410 0.000000 -1.005253
v 1.138357 0.000000 -0.989947
v 1.229562 0.000000 -0.922803
v 1.203129 0.000000 -0.989484
v 1.235688 0.000000 -0.963801
v 1.260282 0.000000 -0.939138
v 1.346597 0.000000 -0.984239
v 1.307540 0.000000 -0.953852
v 1.275043 0.000000 -0.983800
v 1.200468 0.000000 -0.929021
v 1.404439 0.000000 -0.865268
v 1.310776 0.000000 -0.989980
v 1.337263 0.000000 -1.041056
v 1.287195 0.000000 -1.019717
v 1.332502 0.000000 -1.011110
v 1.307427 0.000000 -1.041624
v 1.255500 0.000000 -1.034528
v 1.223543 0.000000 -1.098539
v 1.202659 0.000000 -1.048165
v 1.247588 0.000000 -1.070553
v 1.191734 0.000000 -1.018749
v 1.152438 0.000000 -1.041938
v 1.347502 0.000000 -0.900266
v 1.175110 0.000000 -1.064476
v 1.126740 0.000000 -1.065062
v 1.111879 0.000000 -1.108776
v 1.316845 0.000000 -0.919097
v 1.352173 0.000000 -0.942301
v 1.173772 0.000000 -1.178225
v 1.081413 0.000000 -1.111638
v 1.396378 0.000000 -0.916044
v 1.128360 0.000000 -1.156374
v 1.368364 0.000000 -0.919199
v 1.107848 0.000000 -1.136832
v 1.145594 0.000000 -1.123728
v 1.185114 0.000000 -1.112811
v 1.196742 0.000000 -1.085174
v 1.221781 0.000000 -1.152792
v 1.172525 0.000000 -1.144331
v 1.211605 0.000000 -1.125323
v 1.289744 0.000000 -1.128870
v 1.319337 0.000000 -1.089426
v 1.260289 0.000000 -1.105771
v 1.256008 0.000000 -1.141528
v 1.316820 0.000000 -1.252526
v 1.294389 0.000000 -1.192654
v 1.282706 0.000000 -1.161455
v 1.287386 0.000000 -1.088789
v 1.366112 0.000000 -1.155279
v 1.324782 0.000000 -1.163459
v 1.327118 0.000000 -1.126064
v 1.355626 0.000000 -1.211065
v 1.326792 0.000000 -1.195954
v 0.647441 0.000000 -0.708441
v 1.252358 0.000000 -0.575418
v 1.078027 0.000000 -1.268926
v 1.027626 0.000000 -1.271362
v 1.012494 0.000000 -1.362937
v 0.966184 0.000000 -1.352688
v 0.971067 0.000000 -1.305742
v 0.954984 0.000000 -1.327815
v 0.997900 0.000000 -1.286175
v 1.032942 0.000000 -1.319264
v 0.995103 0.000000 -1.331934
v 1.053893 0.000000 -1.292673
v 1.124627 0.000000 -1.369819
v 1.082935 0.000000 -1.337037
v 1.048947 0.000000 -1.353338
v 1.059173 0.000000 -1.466301
v 1.044541 0.000000 -1.410687
v 1.036801 0.000000 -1.381259
v 1.081838 0.000000 -1.384192
v 0.959617 0.000000 -1.443312
v 1.097847 0.000000 -1.360960
v 1.124406 0.000000 -1.440065
v 0.950645 0.000000 -1.397123
v 1.083992 0.000000 -1.426683
v 0.945453 0.000000 -1.370395
v 0.983582 0.000000 -1.383666
v 0.890164 0.000000 -1.432835
v 0.895464 0.000000 -1.393409
v 0.921576 0.000000 -1.416962
v 0.864135 0.000000 -1.409288
v 0.805936 0.000000 -1.499514
v 0.842519 0.000000 -1.459214
v 0.868861 0.000000 -1.377979
v 1.113656 0.000000 -1.404916
v 1.094982 0.000000 -1.461115
v 1.190714 0.000000 -1.522111
v 1.067289 0.000000 -1.572116
v 1.141072 0.000000 -1.494392
v 1.084859 0.000000 -1.517542
v 1.123617 0.000000 -1.470027
v 1.080538 0.000000 -1.487653
v 1.056730 0.000000 -1.437212
v 1.009149 0.000000 -1.455874
v 0.663856 0.000000 -1.428339
v 0.709460 0.000000 -1.258749
v 0.546543 0.000000 -1.071024
v 0.573416 0.000000 -1.056666
v 0.503764 0.000000 -0.909671
v 0.476342 0.000000 -0.934311
v 0.458576 0.000000 -0.887915
v 0.426009 0.000000 -0.898193
v 0.533589 0.000000 -0.884402
v 0.560691 0.000000 -0.893557
v 0.522948 0.000000 -0.931849
v 0.486852 0.000000 -0.886942
v 0.415622 0.000000 -0.767014
v 0.423196 0.000000 -0.832414
v 0.433435 0.000000 -0.864927
v 0.466354 0.000000 -0.836656
v 0.448515 0.000000 -0.796331
v 0.415652 0.000000 -0.800150
v 0.346656 0.000000 -0.783644
v 0.383131 0.000000 -0.783612
v 0.518203 0.000000 -0.684702
v 0.529266 0.000000 -0.784587
v 0.473890 0.000000 -0.734591
v 0.505597 0.000000 -0.820068
v 0.450418 0.000000 -0.761015
v 0.489920 0.000000 -0.772547
v 0.546360 0.000000 -0.821699
v 0.603473 0.000000 -0.772720
v 0.619387 0.000000 -0.831356
v 0.610744 0.000000 -0.861814
v 0.661259 0.000000 -0.859704
v 0.532083 0.000000 -0.851333
v 0.568031 0.000000 -0.789148
v 0.582858 0.000000 -0.826692
v 0.555223 0.000000 -0.731117
v 0.604337 0.000000 -0.803979
v 0.638480 0.000000 -0.787329
v 0.551536 0.000000 -0.762373
v 0.514840 0.000000 -0.739599
v 0.634778 0.000000 -0.746961
v 0.497559 0.000000 -0.710994
v 0.425434 0.000000 -0.662114
v 0.456729 0.000000 -0.693609
v 0.426279 0.000000 -0.724756
v 0.530365 0.000000 -0.712990
v 0.596388 0.000000 -0.732095
v 0.684737 0.000000 -0.741984
v 0.725187 0.000000 -0.750079
v 0.319632 0.000000 -0.680411
v 0.579818 0.000000 -0.755951
v 0.710422 0.000000 -0.782312
v 0.364841 0.000000 -0.724876
v 0.705630 0.000000 -0.833556
v 0.740685 0.000000 -0.841771
v 0.714254 0.000000 -0.873686
v 0.386634 0.000000 -0.750292
v 0.729218 0.000000 -0.812627
v 0.690072 0.000000 -0.858031
v 0.479476 0.000000 -0.802362
v 0.480229 0.000000 -0.638850
v 0.425449 0.000000 -0.693440
v 0.395534 0.000000 -0.709910
v 0.362818 0.000000 -0.681666
v 0.457493 0.000000 -0.661506
v 0.485894 0.000000 -0.678230
v 0.334328 0.000000 -0.650330
v 0.395621 0.000000 -0.676693
v 0.374335 0.000000 -0.646807
v 0.390271 0.000000 -0.567518
v 0.369648 0.000000 -0.593890
v 0.418439 0.000000 -0.610863
v 0.447573 0.000000 -0.628753
v 0.464632 0.000000 -0.568210
v 0.473315 0.000000 -0.603332
v 0.443823 0.000000 -0.592020
v 0.606021 0.000000 -0.551702
v 0.536372 0.000000 -0.569015
v 0.500389 0.000000 -0.577961
v 0.482850 0.000000 -0.471784
v 0.530284 0.000000 -0.621646
v 0.495866 0.000000 -0.524164
v 0.503199 0.000000 -0.608136
v 0.512537 0.000000 -0.549834
v 0.560342 0.000000 -0.500431
v 0.545188 0.000000 -0.533616
v 0.579591 0.000000 -0.529273
v 0.648637 0.000000 -0.462209
v 0.572274 0.000000 -0.564722
v 0.622979 0.000000 -0.504885
v 0.617684 0.000000 -0.632482
v 0.602676 0.000000 -0.593430
v 0.577189 0.000000 -0.675919
v 0.684139 0.000000 -0.578884
v 0.574001 0.000000 -0.626923
v 0.576402 0.000000 -0.707578
v 0.612129 0.000000 -0.692588
v 0.645725 0.000000 -0.599237
v 0.557802 0.000000 -0.596265
v 0.605430 0.000000 -0.661668
v 0.593313 0.000000 -0.397417
v 0.653105 0.000000 -0.542261
v 0.548634 0.000000 -0.653206
v 0.683546 0.000000 -0.624279
v 0.594827 0.000000 -0.458898
v 0.626723 0.000000 -0.532716
v 0.665492 0.000000 -0.501401
v 0.655686 0.000000 -0.571556
v 0.625799 0.000000 -0.574264
v 0.723680 0.000000 -0.602063
v 0.673074 0.000000 -0.669600
v 0.638662 0.000000 -0.670601
v 0.651087 0.000000 -0.632226
v 0.620853 0.000000 -0.474552
v 0.757615 0.000000 -0.438424
v 0.730651 0.000000 -0.544879
v 0.733928 0.000000 -0.630068
v 0.704198 0.000000 -0.689230
v 0.706553 0.000000 -0.720039
v 0.705429 0.000000 -0.460931
v 0.714762 0.000000 -0.571968
v 0.691988 0.000000 -0.540403
v 0.747712 0.000000 -0.578549
v 0.715879 0.000000 -0.503558
v 0.677278 0.000000 -0.473080
v 0.742182 0.000000 -0.474475
v 0.837464 0.000000 -0.493913
v 0.791828 0.000000 -0.474387
v 0.876327 0.000000 -0.549457
v 0.926565 0.000000 -0.531171
v 0.835874 0.000000 -0.398189
v 0.797208 0.000000 -0.524921
v 0.897929 0.000000 -0.577941
v 0.863392 0.000000 -0.581674
v 0.832605 0.000000 -0.550605
v 0.830912 0.000000 -0.446154
v 0.808660 0.000000 -0.498142
v 0.767034 0.000000 -0.502601
v 0.764668 0.000000 -0.537363
v 0.853775 0.000000 -0.523866
v 0.894713 0.000000 -0.482154
v 0.887967 0.000000 -0.516477
v 0.829282 0.000000 -0.584669
v 0.803263 0.000000 -0.553809
v 0.819840 0.000000 -0.472013
v 0.794797 0.000000 -0.437285
v 0.774664 0.000000 -0.385016
v 0.775528 0.000000 -0.414710
v 0.741717 0.000000 -0.517602
v 0.861627 0.000000 -0.466254
v 0.867084 0.000000 -0.495413
v 0.264451 0.000000 -1.070212
v 1.097428 0.000000 -0.966447
v 1.218857 0.000000 -0.857321
v 1.168674 0.000000 -0.844203
v 1.141515 0.000000 -0.853673
v 1.432148 0.000000 -1.027349
v 1.463161 0.000000 -0.900546
v 1.130606 0.000000 -1.209683
v 1.229298 0.000000 -1.225028
v 1.252726 0.000000 -1.190494
v 1.214831 0.000000 -1.190036
v 1.390673 0.000000 -1.088276
v 1.355184 0.000000 -1.100921
v 1.344922 0.000000 -1.071380
v 1.383212 0.000000 -1.123538
v 1.509400 0.000000 -1.113657
v 1.429329 0.000000 -1.168798
v 1.399694 0.000000 -1.152866
v 1.395758 0.000000 -1.195653
v 1.368501 0.000000 -1.184597
v 1.463929 0.000000 -1.238773
v 1.395398 0.000000 -1.254756
v 1.434566 0.000000 -1.209758
v 1.478582 0.000000 -1.208682
v 1.460135 0.000000 -1.181114
v 1.462345 0.000000 -1.131023
v 1.423459 0.000000 -1.120192
v 1.449271 0.000000 -1.268858
v 1.406938 0.000000 -1.225262
v 1.456659 0.000000 -1.076436
v 1.448705 0.000000 -1.104868
v 1.216292 0.000000 -0.616301
v 1.214303 0.000000 -0.652857
v 1.063659 0.000000 -1.232709
v 1.098908 0.000000 -1.226363
v 1.037232 0.000000 -1.244210
v 1.127982 0.000000 -1.243158
v 1.131944 0.000000 -1.317682
v 0.907361 0.000000 -1.519890
v 0.772952 0.000000 -1.432956
v 1.193925 0.000000 -1.448454
v 1.159794 0.000000 -1.462571
v 1.163464 0.000000 -1.408894
v 1.189119 0.000000 -1.485146
v 1.152429 0.000000 -1.435110
v 1.221019 0.000000 -1.470639
v 1.263376 0.000000 -1.391406
v 1.220254 0.000000 -1.506361
v 1.301028 0.000000 -1.447559
v 1.234319 0.000000 -1.426821
v 1.200383 0.000000 -1.411993
v 1.187082 0.000000 -1.349673
v 1.184265 0.000000 -1.382858
v 1.157186 0.000000 -1.363873
v 1.225728 0.000000 -1.369629
v 1.270820 0.000000 -1.427109
v 1.275401 0.000000 -1.469088
v 1.326653 0.000000 -1.426019
v 1.310377 0.000000 -1.380683
v 1.234695 0.000000 -1.397522
v 1.238538 0.000000 -1.297592
v 1.247791 0.000000 -1.454815
v 1.298434 0.000000 -1.410565
v 1.393445 0.000000 -1.351721
v 1.220914 0.000000 -1.331628
v 1.183514 0.000000 -1.302254
v 1.275165 0.000000 -1.338079
v 1.246502 0.000000 -1.347678
v 1.372851 0.000000 -1.378104
v 1.163016 0.000000 -1.327656
v 1.154090 0.000000 -1.297784
v 1.195540 0.000000 -1.257215
v 1.166142 0.000000 -1.229266
v 1.158042 0.000000 -1.201980
v 1.197107 0.000000 -1.217861
v 1.282699 0.000000 -1.367698
v 1.231935 0.000000 -1.261564
v 1.272603 0.000000 -1.240226
v 1.272506 0.000000 -1.211422
v 1.209785 0.000000 -1.285118
v 1.283752 0.000000 -1.285606
v 1.260819 0.000000 -1.267192
v 1.342872 0.000000 -1.311587
v 1.357570 0.000000 -1.344977
v 1.341338 0.000000 -1.372557
v 1.265918 0.000000 -1.309641
v 1.318369 0.000000 -1.287122
v 1.355686 0.000000 -1.268084
v 1.307931 0.000000 -1.322052
v 1.344568 0.000000 -1.239597
v 1.388571 0.000000 -1.300306
v 1.411043 0.000000 -1.280367
v 1.414035 0.000000 -1.325331
v 1.161168 0.000000 -1.537850
v 1.019343 0.000000 -1.526616
v 1.045938 0.000000 -1.500861
v 1.011232 0.000000 -1.491680
v 0.963480 0.000000 -1.521168
v 1.119278 0.000000 -1.521280
v 1.108518 0.000000 -1.494568
v 1.099463 0.000000 -1.562855
v 0.991549 0.000000 -1.421473
v 1.010867 0.000000 -1.397652
v 1.020542 0.000000 -1.428356
v 0.705364 0.000000 -1.383171
v 0.655671 0.000000 -0.822763
v 0.661605 0.000000 -0.763534
v 0.404548 0.000000 -0.638877
v 0.512318 0.000000 -0.650890
v 0.461717 0.000000 -0.533025
v 0.457193 0.000000 -0.493289
v 0.520044 0.000000 -0.490302
v 0.508517 0.000000 -0.450285
v 0.548014 0.000000 -0.464339
v 0.592431 0.000000 -0.492007
v 0.623816 0.000000 -0.427381
v 0.622890 0.000000 -0.381728
v 0.676081 0.000000 -0.416332
v 0.652346 0.000000 -0.433281
v 0.970201 0.000000 -0.467991
v 0.716841 0.000000 -0.347683
v 0.847983 0.000000 -0.324808
v 0.319767 0.000000 -1.044100
v 0.343594 0.000000 -1.024257
v 1.248966 0.000000 -0.885994
v 1.256768 0.000000 -0.847639
v 1.321319 0.000000 -0.840892
v 1.313789 0.000000 -0.879697
v 1.287987 0.000000 -0.834064
v 1.280373 0.000000 -0.872392
v 1.209858 0.000000 -0.892416
v 1.180422 0.000000 -0.875877
v 1.148960 0.000000 -0.787276
v 1.117644 0.000000 -0.768535
v 1.167665 0.000000 -0.750637
v 1.118043 0.000000 -0.803454
v 1.146416 0.000000 -0.820030
v 1.225481 0.000000 -0.764571
v 1.229849 0.000000 -0.724653
v 1.199137 0.000000 -0.746948
v 1.190785 0.000000 -0.787937
v 1.226361 0.000000 -0.803324
v 1.232517 0.000000 -0.831695
v 1.196831 0.000000 -0.822797
v 1.295704 0.000000 -0.715927
v 1.266550 0.000000 -0.748859
v 1.261022 0.000000 -0.707031
v 1.277633 0.000000 -0.675736
v 1.328460 0.000000 -0.774294
v 1.311100 0.000000 -0.806128
v 1.291962 0.000000 -0.775051
v 1.309650 0.000000 -0.746475
v 1.379195 0.000000 -0.696150
v 1.339417 0.000000 -0.714385
v 1.254432 0.000000 -0.778734
v 1.316509 0.000000 -0.684461
v 1.355940 0.000000 -0.647144
v 1.381054 0.000000 -0.752905
v 1.368286 0.000000 -0.724932
v 1.382569 0.000000 -1.019272
v 1.377028 0.000000 -1.054913
v 1.413685 0.000000 -1.059360
v 1.426658 0.000000 -0.894793
v 1.109557 0.000000 -1.183892
v 1.501309 0.000000 -1.146130
v 1.474802 0.000000 -1.156652
v 1.479728 0.000000 -1.034214
v 1.517485 0.000000 -1.081175
v 1.486136 0.000000 -1.090649
v 1.453532 0.000000 -1.047324
v 1.527865 0.000000 -0.981809
v 1.526709 0.000000 -1.015255
v 1.464502 0.000000 -0.971899
v 1.492947 0.000000 -0.997391
v 1.434796 0.000000 -0.938655
v 1.459479 0.000000 -1.006126
v 1.471107 0.000000 -0.936078
v 1.518502 0.000000 -0.849030
v 1.529011 0.000000 -0.948360
v 1.502502 0.000000 -0.930746
v 1.499138 0.000000 -0.964271
v 1.419107 0.000000 -0.982592
v 1.409600 0.000000 -1.009662
v 1.382515 0.000000 -0.967632
v 1.404656 0.000000 -0.945910
v 1.185311 0.000000 -0.620493
v 1.204398 0.000000 -0.572156
v 1.176327 0.000000 -0.570228
v 1.230888 0.000000 -0.504238
v 1.227308 0.000000 -0.589664
v 1.206439 0.000000 -0.533815
v 1.243206 0.000000 -0.539351
v 1.333360 0.000000 -0.502090
v 1.281316 0.000000 -0.506216
v 1.263514 0.000000 -0.621594
v 1.259345 0.000000 -0.651593
v 1.097332 0.000000 -1.301753
v 1.117390 0.000000 -1.274925
v 0.856820 0.000000 -1.508857
v 0.802562 0.000000 -1.459757
v 0.812974 0.000000 -1.418589
v 0.781564 0.000000 -1.394159
v 0.741039 0.000000 -1.405521
v 0.795395 0.000000 -1.363589
v 0.716950 0.000000 -1.465676
v 0.760695 0.000000 -1.476157
v 0.704559 0.000000 -1.424036
v 0.735277 0.000000 -1.375119
v 0.739326 0.000000 -1.439728
v 0.673698 0.000000 -1.558681
v 0.726171 0.000000 -1.523724
v 0.733579 0.000000 -1.492805
v 1.054284 0.000000 -1.537834
v 1.035114 0.000000 -1.581372
v 0.988569 0.000000 -1.552859
v 1.018329 0.000000 -1.556553
v 0.936150 0.000000 -1.595380
v 0.949335 0.000000 -1.558100
v 0.969555 0.000000 -1.593006
v 0.905800 0.000000 -1.563702
v 0.935169 0.000000 -1.531521
v 0.902745 0.000000 -1.597743
v 0.876324 0.000000 -1.540719
v 0.936277 0.000000 -1.483500
v 0.919729 0.000000 -1.452260
v 0.883428 0.000000 -1.475189
v 0.974710 0.000000 -1.478900
v 0.908047 0.000000 -1.490782
v 0.685386 0.000000 -1.344557
v 0.714326 0.000000 -1.353336
v 0.659215 0.000000 -1.382474
v 0.573358 0.000000 -1.414159
v 0.620433 0.000000 -1.409491
v 0.618732 0.000000 -1.472871
v 0.587906 0.000000 -1.322755
v 0.632328 0.000000 -1.441539
v 0.595311 0.000000 -1.444085
v 0.553923 0.000000 -1.500273
v 0.550133 0.000000 -1.454149
v 0.582758 0.000000 -1.478169
v 0.582339 0.000000 -1.518027
v 0.610957 0.000000 -1.503834
v 0.668156 0.000000 -1.501771
v 0.653873 0.000000 -1.469504
v 0.700464 0.000000 -1.494385
v 0.691302 0.000000 -1.528289
v 0.705184 0.000000 -1.570129
v 0.637317 0.000000 -1.330618
v 0.592713 0.000000 -1.370397
v 0.525519 0.000000 -1.482505
v 0.684642 0.000000 -1.455186
v 0.664698 0.000000 -1.326011
v 0.621421 0.000000 -1.270694
v 0.595478 0.000000 -1.397788
v 0.609784 0.000000 -1.344651
v 0.626004 0.000000 -1.376208
v 0.643938 0.000000 -1.296830
v 0.612061 0.000000 -1.301488
v 0.652890 0.000000 -1.266392
v 0.718823 0.000000 -0.420118
v 0.684653 0.000000 -0.356871
v 0.709780 0.000000 -0.384135
v 0.742423 0.000000 -0.371506
v 0.749037 0.000000 -0.338509
v 0.960113 0.000000 -0.507684
v 0.926967 0.000000 -0.496059
v 0.811880 0.000000 -0.361125
v 0.805239 0.000000 -0.391752
v 0.814603 0.000000 -0.327082
v 0.849866 0.000000 -0.362795
v 0.881373 0.000000 -0.322553
v 0.911656 0.000000 -0.407637
v 0.927505 0.000000 -0.450430
v 0.900797 0.000000 -0.363557
v 0.890162 0.000000 -0.439954
v 0.873441 0.000000 -0.405509
v 0.859555 0.000000 -0.433562
v 0.943009 0.000000 -0.473438
v 0.980896 0.000000 -0.329840
v 0.875547 0.000000 -0.350445
v 0.952363 0.000000 -0.374168
v 0.924032 0.000000 -0.381183
v 0.964810 0.000000 -0.420411
v 0.954412 0.000000 -0.445682
v 0.936099 0.000000 -0.422902
v 1.009473 0.000000 -0.383537
v 0.978779 0.000000 -0.391830
v 1.017347 0.000000 -0.438561
v 0.986749 0.000000 -0.442022
v 0.348069 0.000000 -1.058587
v 0.304037 0.000000 -1.082443
v 0.317304 0.000000 -1.123590
v 0.270225 0.000000 -1.103196
v 0.395155 0.000000 -1.159753
v 0.300991 0.000000 -1.198306
v 0.360916 0.000000 -1.131543
v 0.444597 0.000000 -1.133222
v 0.481292 0.000000 -1.121581
v 0.529040 0.000000 -1.217126
v 0.513905 0.000000 -1.164985
v 0.505822 0.000000 -1.137089
v 0.288492 0.000000 -1.167235
v 0.333475 0.000000 -1.167193
v 0.400349 0.000000 -1.114064
v 0.447337 0.000000 -1.102667
v 0.310954 0.000000 -1.150744
v 0.364197 0.000000 -1.162486
v 0.385587 0.000000 -1.227314
v 0.354498 0.000000 -1.201618
v 0.387628 0.000000 -1.193142
v 0.456760 0.000000 -1.214518
v 0.428052 0.000000 -1.184770
v 0.351768 0.000000 -1.236622
v 0.363386 0.000000 -1.316019
v 0.313501 0.000000 -1.229374
v 0.344693 0.000000 -1.288223
v 0.392557 0.000000 -1.276219
v 0.421060 0.000000 -1.220282
v 0.424544 0.000000 -1.155194
v 0.470441 0.000000 -1.172534
v 0.364199 0.000000 -1.264637
v 0.413842 0.000000 -1.322451
v 0.497298 0.000000 -1.198049
v 0.390377 0.000000 -1.305230
v 0.500873 0.000000 -1.355410
v 0.548765 0.000000 -1.350680
v 0.517804 0.000000 -1.408607
v 0.576371 0.000000 -1.347953
v 0.560919 0.000000 -1.382476
v 0.518177 0.000000 -1.286934
v 0.568610 0.000000 -1.271364
v 0.527167 0.000000 -1.376367
v 0.544338 0.000000 -1.424033
v 0.521932 0.000000 -1.324328
v 0.550681 0.000000 -1.302612
v 0.290378 0.000000 -1.017397
v 0.258686 0.000000 -1.037227
v 0.288350 0.000000 -1.049187
v 1.349760 0.000000 -0.680124
v 1.325898 0.000000 -0.586650
v 1.299539 0.000000 -0.612761
v 1.289812 0.000000 -0.576579
v 1.333433 0.000000 -0.620622
v 1.419090 0.000000 -0.603655
v 1.372036 0.000000 -0.594150
v 1.318533 0.000000 -0.543411
v 1.352908 0.000000 -0.566278
v 1.357428 0.000000 -0.525172
v 1.400321 0.000000 -0.575956
v 1.389577 0.000000 -0.628407
v 1.437834 0.000000 -0.631363
v 1.413400 0.000000 -0.668190
v 1.283064 0.000000 -0.541703
v 1.308284 0.000000 -0.516415
v 1.481722 0.000000 -0.721100
v 1.382081 0.000000 -0.664727
v 1.427557 0.000000 -0.720532
v 1.408820 0.000000 -0.697537
v 1.374712 0.000000 -0.812867
v 1.342230 0.000000 -0.815827
v 1.228915 0.000000 -0.420437
v 0.834274 0.000000 -1.488456
v 0.841313 0.000000 -1.429068
v 0.767892 0.000000 -1.517644
v 0.803011 0.000000 -1.590851
v 0.827782 0.000000 -1.548459
v 0.751201 0.000000 -1.549076
v 0.789497 0.000000 -1.549230
v 0.855868 0.000000 -1.568420
v 0.836185 0.000000 -1.595480
v 0.828705 0.000000 -1.518715
v 0.769836 0.000000 -1.586208
v 0.642218 0.000000 -1.547226
v 0.745841 0.000000 -0.403192
v 0.947832 0.000000 -0.325081
v 1.013944 0.000000 -0.334604
v 1.109509 0.000000 -0.362215
v 1.023572 0.000000 -0.500916
v 1.004731 0.000000 -0.471740
v 0.991481 0.000000 -0.500944
v 1.064739 0.000000 -0.534400
v 1.051385 0.000000 -0.561504
v 1.119483 0.000000 -0.508280
v 1.016502 0.000000 -0.546067
v 1.138662 0.000000 -0.533771
v 1.174347 0.000000 -0.482248
v 1.198962 0.000000 -0.502674
v 1.212621 0.000000 -0.461074
v 1.037212 0.000000 -0.526188
v 1.172572 0.000000 -0.433622
v 1.257175 0.000000 -0.438175
v 1.253733 0.000000 -0.475073
v 1.200612 0.000000 -0.402681
v 1.202202 0.000000 -0.433322
v 1.130070 0.000000 -0.459610
v 1.158557 0.000000 -0.458506
v 1.143483 0.000000 -0.487999
v 1.073976 0.000000 -0.472932
v 1.039394 0.000000 -0.470050
v 1.128808 0.000000 -0.409656
v 1.105201 0.000000 -0.479706
v 1.085474 0.000000 -0.507433
v 1.101727 0.000000 -0.537791
v 1.055137 0.000000 -0.498371
v 1.157388 0.000000 -0.409412
v 0.559440 0.000000 -1.141515
v 0.603281 0.000000 -1.173095
v 0.624964 0.000000 -1.153858
v 0.594274 0.000000 -1.136475
v 0.382091 0.000000 -1.343813
v 0.454030 0.000000 -1.275967
v 0.443348 0.000000 -1.244689
v 0.423253 0.000000 -1.268991
v 0.481369 0.000000 -1.309444
v 0.453866 0.000000 -1.348186
v 0.446462 0.000000 -1.310052
v 0.479571 0.000000 -1.337313
v 0.448948 0.000000 -1.418192
v 0.423560 0.000000 -1.351360
v 0.424865 0.000000 -1.394892
v 0.472367 0.000000 -1.384693
v 0.473044 0.000000 -1.441472
v 0.445493 0.000000 -1.375350
v 0.535563 0.000000 -1.253916
v 0.491158 0.000000 -1.251549
v 0.484081 0.000000 -1.223615
v 1.469163 0.000000 -0.690078
v 1.454077 0.000000 -0.768466
v 1.361892 0.000000 -0.781213
v 0.640045 0.000000 -1.515864
v 1.063404 0.000000 -0.391275
v 1.059895 0.000000 -0.433247
v 1.092066 0.000000 -0.414759
v 1.095810 0.000000 -0.447803
v 1.092010 0.000000 -0.385588
v 1.140863 0.000000 -0.373571
v 0.550230 0.000000 -1.110833
v 0.551665 0.000000 -1.182329
v 0.575308 0.000000 -1.165743
v 0.577046 0.000000 -1.223668
v 0.594720 0.000000 -1.251440
v 0.612001 0.000000 -1.220966
v 0.637311 0.000000 -1.239311
v 0.486526 0.000000 -1.412939
v 1.454453 0.000000 -0.736921
v 1.494277 0.000000 -0.752116
v 1.466975 0.000000 -0.824231
v 1.450619 0.000000 -0.861684
v 1.484329 0.000000 -0.854100
v 1.524324 0.000000 -0.881979
v 1.495943 0.000000 -0.898549
v 1.418361 0.000000 -0.756972
v 1.397072 0.000000 -0.785339
v 1.416326 0.000000 -0.823845
v 1.430244 0.000000 -0.792773
v 1.038891 0.000000 -0.370518
v 1.033453 0.000000 -0.408173
v 1.475721 0.000000 -0.792811
v 1.512675 0.000000 -0.816074
v 0.255331 0.000000 -0.937351
v 0.298204 0.000000 -0.952170
v 0.254131 0.000000 -0.970807
v 0.290425 0.000000 -0.905132
v 0.285562 0.000000 -0.983729
v 0.256539 0.000000 -0.903892
v 0.274001 0.000000 -0.805499
v 0.310047 0.000000 -0.926050
v 0.314042 0.000000 -0.850063
v 0.364937 0.000000 -0.833884
v 0.388227 0.000000 -0.813900
v 0.290311 0.000000 -0.872471
v 0.265876 0.000000 -0.837973
v 0.326854 0.000000 -0.887464
v 0.345285 0.000000 -0.860240
v 0.331735 0.000000 -0.817538
v 0.300746 0.000000 -0.821725
v 0.394671 0.000000 -0.857055
v 0.330421 0.000000 -0.746403
v 0.357962 0.000000 -0.756530
v 0.282131 0.000000 -0.773028
v 0.304946 0.000000 -0.710493
v 0.337289 0.000000 -0.707686
v 0.314883 0.000000 -0.775362
v 0.410901 0.000000 -0.541147
v 0.563745 0.000000 -0.413113
v 0.569267 0.000000 -0.442825
v 0.594258 0.000000 -0.426986
v 1.361223 0.000000 -0.858718
v 1.378971 0.000000 -0.887264
v 1.386023 0.000000 -0.841088
vn -0.0000 1.0000 -0.0000
s 0
f 507//1 516//1 501//1
f 184//1 192//1 194//1
f 202//1 188//1 87//1
f 493//1 509//1 490//1
f 46//1 89//1 47//1
f 46//1 245//1 244//1
f 420//1 428//1 61//1
f 131//1 134//1 130//1
f 87//1 188//1 186//1
f 243//1 44//1 92//1
f 91//1 52//1 51//1
f 305//1 99//1 32//1
f 458//1 100//1 49//1
f 660//1 457//1 462//1
f 292//1 282//1 291//1
f 125//1 52//1 91//1
f 111//1 116//1 158//1
f 139//1 138//1 111//1
f 248//1 240//1 241//1
f 459//1 47//1 89//1
f 352//1 348//1 351//1
f 80//1 103//1 108//1
f 435//1 462//1 78//1
f 93//1 238//1 235//1
f 389//1 391//1 394//1
f 65//1 163//1 164//1
f 301//1 306//1 310//1
f 114//1 106//1 142//1
f 261//1 242//1 264//1
f 290//1 262//1 293//1
f 333//1 304//1 330//1
f 318//1 303//1 307//1
f 195//1 197//1 199//1
f 867//1 875//1 13//1
f 76//1 188//1 208//1
f 995//1 807//1 885//1
f 810//1 785//1 787//1
f 327//1 332//1 329//1
f 409//1 416//1 413//1
f 204//1 76//1 590//1
f 92//1 44//1 43//1
f 86//1 97//1 295//1
f 227//1 228//1 230//1
f 510//1 491//1 528//1
f 323//1 324//1 322//1
f 81//1 92//1 234//1
f 41//1 40//1 93//1
f 207//1 762//1 784//1
f 105//1 137//1 101//1
f 420//1 411//1 419//1
f 258//1 434//1 70//1
f 221//1 218//1 223//1
f 942//1 945//1 946//1
f 247//1 255//1 70//1
f 78//1 89//1 244//1
f 46//1 45//1 245//1
f 38//1 185//1 104//1
f 660//1 462//1 435//1
f 116//1 126//1 115//1
f 151//1 140//1 146//1
f 95//1 102//1 55//1
f 808//1 810//1 787//1
f 616//1 600//1 604//1
f 114//1 102//1 106//1
f 14//1 847//1 846//1
f 297//1 298//1 96//1
f 56//1 107//1 57//1
f 112//1 139//1 74//1
f 54//1 95//1 55//1
f 222//1 406//1 227//1
f 85//1 141//1 167//1
f 128//1 145//1 147//1
f 178//1 701//1 693//1
f 54//1 53//1 124//1
f 106//1 102//1 84//1
f 739//1 736//1 738//1
f 93//1 235//1 41//1
f 59//1 97//1 60//1
f 313//1 317//1 309//1
f 182//1 98//1 87//1
f 96//1 114//1 302//1
f 325//1 309//1 322//1
f 121//1 109//1 222//1
f 166//1 167//1 168//1
f 695//1 689//1 694//1
f 333//1 334//1 88//1
f 1007//1 983//1 712//1
f 101//1 82//1 93//1
f 99//1 189//1 33//1
f 189//1 99//1 88//1
f 38//1 37//1 185//1
f 81//1 241//1 249//1
f 36//1 35//1 98//1
f 755//1 917//1 754//1
f 152//1 153//1 936//1
f 121//1 105//1 120//1
f 97//1 86//1 556//1
f 50//1 49//1 100//1
f 352//1 355//1 564//1
f 355//1 354//1 564//1
f 104//1 101//1 40//1
f 299//1 301//1 86//1
f 556//1 60//1 97//1
f 81//1 239//1 241//1
f 130//1 108//1 119//1
f 386//1 210//1 369//1
f 84//1 112//1 110//1
f 387//1 384//1 386//1
f 382//1 395//1 380//1
f 51//1 50//1 103//1
f 234//1 43//1 42//1
f 33//1 32//1 99//1
f 533//1 819//1 162//1
f 258//1 70//1 255//1
f 232//1 231//1 73//1
f 182//1 36//1 98//1
f 294//1 296//1 295//1
f 435//1 70//1 434//1
f 117//1 119//1 108//1
f 91//1 51//1 103//1
f 103//1 50//1 100//1
f 80//1 115//1 126//1
f 234//1 42//1 233//1
f 92//1 81//1 243//1
f 40//1 39//1 104//1
f 238//1 237//1 233//1
f 185//1 182//1 184//1
f 105//1 101//1 94//1
f 124//1 53//1 123//1
f 95//1 84//1 102//1
f 102//1 107//1 55//1
f 297//1 96//1 302//1
f 295//1 59//1 58//1
f 86//1 301//1 556//1
f 190//1 34//1 189//1
f 183//1 182//1 87//1
f 305//1 304//1 88//1
f 338//1 88//1 334//1
f 458//1 49//1 48//1
f 103//1 80//1 91//1
f 101//1 93//1 40//1
f 94//1 194//1 105//1
f 84//1 110//1 106//1
f 107//1 102//1 96//1
f 100//1 90//1 103//1
f 115//1 108//1 71//1
f 38//1 104//1 39//1
f 94//1 101//1 104//1
f 120//1 105//1 83//1
f 121//1 73//1 122//1
f 128//1 106//1 74//1
f 102//1 114//1 96//1
f 107//1 96//1 298//1
f 55//1 107//1 56//1
f 90//1 117//1 103//1
f 108//1 103//1 117//1
f 83//1 192//1 199//1
f 213//1 218//1 200//1
f 112//1 84//1 124//1
f 74//1 106//1 110//1
f 136//1 71//1 133//1
f 110//1 112//1 74//1
f 84//1 95//1 124//1
f 138//1 139//1 112//1
f 153//1 148//1 65//1
f 157//1 175//1 179//1
f 142//1 128//1 141//1
f 302//1 114//1 85//1
f 116//1 115//1 71//1
f 80//1 108//1 115//1
f 130//1 133//1 71//1
f 138//1 126//1 111//1
f 455//1 451//1 452//1
f 130//1 71//1 108//1
f 521//1 514//1 118//1
f 464//1 478//1 486//1
f 452//1 117//1 90//1
f 451//1 79//1 661//1
f 83//1 199//1 206//1
f 121//1 120//1 109//1
f 222//1 109//1 221//1
f 231//1 122//1 73//1
f 137//1 82//1 101//1
f 121//1 122//1 137//1
f 53//1 52//1 125//1
f 126//1 116//1 111//1
f 54//1 124//1 95//1
f 124//1 123//1 138//1
f 80//1 125//1 91//1
f 53//1 125//1 123//1
f 123//1 125//1 126//1
f 80//1 126//1 125//1
f 144//1 158//1 136//1
f 127//1 160//1 146//1
f 145//1 128//1 74//1
f 141//1 128//1 113//1
f 536//1 149//1 159//1
f 146//1 160//1 151//1
f 119//1 131//1 130//1
f 520//1 134//1 118//1
f 521//1 131//1 119//1
f 520//1 507//1 513//1
f 135//1 133//1 132//1
f 134//1 133//1 130//1
f 135//1 132//1 143//1
f 133//1 135//1 136//1
f 118//1 134//1 131//1
f 132//1 133//1 134//1
f 547//1 62//1 542//1
f 136//1 135//1 129//1
f 136//1 129//1 144//1
f 116//1 71//1 136//1
f 121//1 137//1 105//1
f 82//1 137//1 122//1
f 124//1 138//1 112//1
f 126//1 138//1 123//1
f 111//1 158//1 161//1
f 74//1 139//1 127//1
f 145//1 74//1 146//1
f 147//1 113//1 128//1
f 168//1 169//1 171//1
f 142//1 85//1 114//1
f 128//1 142//1 106//1
f 85//1 142//1 141//1
f 526//1 132//1 513//1
f 62//1 135//1 143//1
f 159//1 144//1 129//1
f 161//1 139//1 111//1
f 146//1 74//1 127//1
f 145//1 140//1 147//1
f 161//1 159//1 160//1
f 140//1 145//1 146//1
f 148//1 140//1 163//1
f 148//1 147//1 140//1
f 674//1 838//1 843//1
f 154//1 169//1 155//1
f 535//1 540//1 543//1
f 832//1 819//1 820//1
f 894//1 899//1 897//1
f 156//1 155//1 148//1
f 151//1 165//1 164//1
f 163//1 151//1 164//1
f 843//1 933//1 674//1
f 147//1 155//1 113//1
f 943//1 936//1 938//1
f 153//1 152//1 156//1
f 172//1 154//1 174//1
f 684//1 679//1 680//1
f 147//1 148//1 155//1
f 156//1 148//1 153//1
f 180//1 174//1 152//1
f 155//1 156//1 154//1
f 177//1 171//1 175//1
f 173//1 742//1 741//1
f 136//1 158//1 116//1
f 161//1 158//1 144//1
f 532//1 536//1 537//1
f 159//1 149//1 160//1
f 160//1 127//1 161//1
f 149//1 151//1 160//1
f 139//1 161//1 127//1
f 159//1 161//1 144//1
f 531//1 541//1 529//1
f 162//1 819//1 934//1
f 148//1 163//1 65//1
f 140//1 151//1 163//1
f 165//1 151//1 149//1
f 162//1 938//1 164//1
f 149//1 536//1 533//1
f 162//1 164//1 165//1
f 141//1 168//1 167//1
f 698//1 558//1 691//1
f 168//1 141//1 113//1
f 166//1 689//1 688//1
f 113//1 169//1 168//1
f 169//1 154//1 172//1
f 155//1 169//1 113//1
f 172//1 171//1 169//1
f 173//1 174//1 180//1
f 741//1 586//1 740//1
f 175//1 171//1 170//1
f 168//1 171//1 177//1
f 154//1 156//1 174//1
f 170//1 171//1 172//1
f 587//1 586//1 750//1
f 172//1 173//1 740//1
f 152//1 174//1 156//1
f 172//1 174//1 173//1
f 172//1 740//1 170//1
f 177//1 175//1 157//1
f 906//1 910//1 904//1
f 704//1 681//1 683//1
f 689//1 177//1 157//1
f 177//1 166//1 168//1
f 740//1 587//1 170//1
f 693//1 701//1 700//1
f 587//1 175//1 170//1
f 693//1 692//1 694//1
f 935//1 956//1 957//1
f 180//1 150//1 742//1
f 183//1 181//1 182//1
f 198//1 193//1 195//1
f 184//1 182//1 181//1
f 36//1 182//1 37//1
f 87//1 186//1 183//1
f 588//1 364//1 590//1
f 192//1 184//1 181//1
f 94//1 104//1 185//1
f 182//1 185//1 37//1
f 94//1 185//1 184//1
f 35//1 190//1 98//1
f 204//1 186//1 76//1
f 208//1 187//1 718//1
f 186//1 188//1 76//1
f 202//1 98//1 190//1
f 188//1 187//1 208//1
f 191//1 187//1 188//1
f 33//1 189//1 34//1
f 34//1 190//1 35//1
f 191//1 190//1 189//1
f 191//1 189//1 338//1
f 202//1 191//1 188//1
f 195//1 192//1 181//1
f 194//1 192//1 83//1
f 203//1 198//1 195//1
f 109//1 120//1 200//1
f 105//1 194//1 83//1
f 184//1 194//1 94//1
f 203//1 181//1 183//1
f 193//1 209//1 195//1
f 76//1 201//1 588//1
f 210//1 68//1 215//1
f 210//1 205//1 209//1
f 120//1 83//1 206//1
f 203//1 195//1 181//1
f 198//1 196//1 368//1
f 195//1 199//1 192//1
f 206//1 199//1 197//1
f 205//1 211//1 209//1
f 214//1 215//1 394//1
f 338//1 342//1 187//1
f 589//1 588//1 201//1
f 98//1 202//1 87//1
f 191//1 202//1 190//1
f 183//1 186//1 204//1
f 198//1 203//1 196//1
f 196//1 203//1 204//1
f 183//1 204//1 203//1
f 218//1 109//1 200//1
f 209//1 211//1 197//1
f 211//1 206//1 197//1
f 120//1 206//1 200//1
f 200//1 206//1 211//1
f 405//1 785//1 761//1
f 187//1 342//1 718//1
f 76//1 208//1 201//1
f 195//1 209//1 197//1
f 210//1 209//1 193//1
f 368//1 193//1 198//1
f 365//1 196//1 204//1
f 214//1 211//1 205//1
f 211//1 217//1 200//1
f 389//1 68//1 390//1
f 391//1 212//1 394//1
f 216//1 217//1 214//1
f 212//1 758//1 216//1
f 215//1 214//1 205//1
f 216//1 214//1 212//1
f 210//1 215//1 205//1
f 215//1 68//1 389//1
f 212//1 755//1 756//1
f 217//1 216//1 213//1
f 200//1 217//1 213//1
f 211//1 214//1 217//1
f 219//1 213//1 758//1
f 218//1 213//1 219//1
f 220//1 223//1 207//1
f 219//1 223//1 218//1
f 758//1 212//1 756//1
f 218//1 221//1 109//1
f 64//1 224//1 220//1
f 121//1 222//1 73//1
f 224//1 221//1 223//1
f 64//1 226//1 406//1
f 207//1 223//1 219//1
f 224//1 223//1 220//1
f 64//1 806//1 811//1
f 221//1 224//1 406//1
f 64//1 783//1 806//1
f 407//1 63//1 284//1
f 222//1 227//1 73//1
f 221//1 406//1 222//1
f 226//1 228//1 227//1
f 259//1 253//1 254//1
f 997//1 226//1 813//1
f 259//1 229//1 273//1
f 236//1 81//1 234//1
f 230//1 232//1 227//1
f 274//1 228//1 225//1
f 230//1 229//1 231//1
f 237//1 231//1 229//1
f 122//1 231//1 82//1
f 227//1 232//1 73//1
f 230//1 231//1 232//1
f 239//1 236//1 272//1
f 42//1 41//1 235//1
f 43//1 234//1 92//1
f 233//1 237//1 236//1
f 238//1 93//1 82//1
f 42//1 235//1 233//1
f 233//1 236//1 234//1
f 229//1 259//1 272//1
f 236//1 237//1 229//1
f 238//1 233//1 235//1
f 82//1 231//1 238//1
f 237//1 238//1 231//1
f 239//1 72//1 241//1
f 81//1 236//1 239//1
f 248//1 241//1 252//1
f 251//1 244//1 246//1
f 252//1 254//1 408//1
f 241//1 240//1 249//1
f 267//1 269//1 263//1
f 255//1 414//1 258//1
f 247//1 251//1 246//1
f 44//1 243//1 245//1
f 46//1 244//1 89//1
f 246//1 244//1 243//1
f 44//1 245//1 45//1
f 243//1 244//1 245//1
f 249//1 246//1 243//1
f 247//1 246//1 240//1
f 260//1 255//1 247//1
f 251//1 247//1 70//1
f 252//1 241//1 72//1
f 264//1 271//1 270//1
f 246//1 249//1 240//1
f 81//1 249//1 243//1
f 248//1 256//1 260//1
f 256//1 248//1 261//1
f 435//1 251//1 70//1
f 251//1 78//1 244//1
f 252//1 72//1 254//1
f 248//1 252//1 408//1
f 239//1 272//1 72//1
f 854//1 960//1 992//1
f 254//1 72//1 272//1
f 253//1 407//1 408//1
f 260//1 247//1 240//1
f 415//1 413//1 250//1
f 261//1 248//1 242//1
f 250//1 255//1 256//1
f 430//1 428//1 463//1
f 257//1 438//1 434//1
f 414//1 255//1 250//1
f 257//1 431//1 438//1
f 273//1 229//1 230//1
f 854//1 992//1 853//1
f 248//1 260//1 240//1
f 255//1 260//1 256//1
f 283//1 265//1 284//1
f 256//1 261//1 270//1
f 1014//1 1017//1 1015//1
f 270//1 250//1 256//1
f 264//1 242//1 265//1
f 277//1 279//1 263//1
f 242//1 407//1 265//1
f 264//1 263//1 271//1
f 275//1 268//1 269//1
f 263//1 264//1 267//1
f 280//1 277//1 262//1
f 415//1 409//1 413//1
f 264//1 265//1 267//1
f 269//1 283//1 275//1
f 857//1 861//1 863//1
f 277//1 276//1 262//1
f 276//1 269//1 268//1
f 277//1 269//1 276//1
f 264//1 270//1 261//1
f 270//1 266//1 415//1
f 279//1 271//1 263//1
f 270//1 271//1 266//1
f 229//1 272//1 236//1
f 254//1 272//1 259//1
f 230//1 274//1 273//1
f 961//1 963//1 962//1
f 228//1 274//1 230//1
f 961//1 274//1 225//1
f 284//1 275//1 283//1
f 873//1 858//1 851//1
f 268//1 288//1 276//1
f 1016//1 1014//1 1015//1
f 280//1 279//1 277//1
f 263//1 269//1 277//1
f 282//1 292//1 280//1
f 416//1 61//1 413//1
f 410//1 279//1 278//1
f 271//1 279//1 266//1
f 282//1 280//1 262//1
f 278//1 279//1 280//1
f 289//1 281//1 291//1
f 465//1 471//1 446//1
f 286//1 289//1 290//1
f 289//1 291//1 282//1
f 269//1 267//1 283//1
f 265//1 283//1 267//1
f 407//1 284//1 265//1
f 852//1 284//1 63//1
f 850//1 846//1 285//1
f 1018//1 15//1 1016//1
f 282//1 290//1 289//1
f 678//1 286//1 290//1
f 1027//1 281//1 1021//1
f 419//1 411//1 412//1
f 858//1 850//1 285//1
f 678//1 290//1 293//1
f 290//1 282//1 262//1
f 1015//1 289//1 286//1
f 276//1 293//1 262//1
f 293//1 276//1 288//1
f 1027//1 291//1 281//1
f 292//1 291//1 287//1
f 412//1 292//1 287//1
f 292//1 278//1 280//1
f 285//1 844//1 288//1
f 844//1 677//1 678//1
f 85//1 167//1 688//1
f 86//1 295//1 296//1
f 59//1 295//1 97//1
f 58//1 57//1 298//1
f 296//1 294//1 559//1
f 299//1 296//1 686//1
f 294//1 295//1 297//1
f 295//1 58//1 298//1
f 298//1 57//1 107//1
f 295//1 298//1 297//1
f 303//1 306//1 307//1
f 86//1 296//1 299//1
f 312//1 306//1 303//1
f 309//1 325//1 327//1
f 75//1 318//1 307//1
f 330//1 300//1 329//1
f 302//1 85//1 688//1
f 294//1 297//1 302//1
f 679//1 308//1 311//1
f 306//1 312//1 300//1
f 305//1 88//1 99//1
f 31//1 60//1 556//1
f 32//1 31//1 305//1
f 556//1 305//1 31//1
f 310//1 306//1 300//1
f 307//1 306//1 301//1
f 301//1 299//1 307//1
f 75//1 307//1 299//1
f 703//1 708//1 713//1
f 729//1 339//1 717//1
f 303//1 313//1 312//1
f 313//1 314//1 317//1
f 330//1 310//1 300//1
f 556//1 310//1 304//1
f 318//1 685//1 311//1
f 312//1 313//1 309//1
f 303//1 318//1 313//1
f 329//1 309//1 327//1
f 308//1 314//1 311//1
f 314//1 313//1 311//1
f 314//1 308//1 316//1
f 314//1 316//1 317//1
f 335//1 336//1 316//1
f 567//1 569//1 357//1
f 335//1 316//1 308//1
f 320//1 317//1 316//1
f 320//1 316//1 315//1
f 309//1 317//1 322//1
f 685//1 318//1 75//1
f 313//1 318//1 311//1
f 331//1 335//1 682//1
f 1003//1 1004//1 1005//1
f 323//1 320//1 315//1
f 320//1 323//1 322//1
f 321//1 323//1 714//1
f 346//1 348//1 352//1
f 322//1 69//1 325//1
f 317//1 320//1 322//1
f 714//1 323//1 315//1
f 323//1 321//1 324//1
f 321//1 568//1 324//1
f 69//1 322//1 324//1
f 328//1 325//1 69//1
f 328//1 327//1 325//1
f 69//1 324//1 350//1
f 589//1 718//1 562//1
f 344//1 77//1 345//1
f 312//1 329//1 300//1
f 350//1 356//1 69//1
f 328//1 326//1 345//1
f 309//1 329//1 312//1
f 329//1 332//1 330//1
f 333//1 330//1 77//1
f 310//1 330//1 304//1
f 684//1 683//1 681//1
f 336//1 315//1 316//1
f 327//1 328//1 345//1
f 77//1 330//1 332//1
f 334//1 333//1 77//1
f 304//1 333//1 88//1
f 342//1 343//1 340//1
f 342//1 338//1 334//1
f 682//1 681//1 1042//1
f 335//1 331//1 336//1
f 341//1 1043//1 339//1
f 336//1 331//1 341//1
f 344//1 343//1 77//1
f 347//1 346//1 337//1
f 191//1 338//1 187//1
f 88//1 338//1 189//1
f 717//1 339//1 1043//1
f 722//1 721//1 1//1
f 343//1 334//1 77//1
f 337//1 628//1 340//1
f 331//1 1042//1 1043//1
f 341//1 339//1 739//1
f 343//1 342//1 334//1
f 718//1 342//1 340//1
f 332//1 345//1 77//1
f 340//1 343//1 347//1
f 348//1 344//1 326//1
f 340//1 347//1 337//1
f 327//1 345//1 332//1
f 326//1 344//1 345//1
f 326//1 328//1 351//1
f 346//1 564//1 565//1
f 343//1 344//1 347//1
f 347//1 344//1 348//1
f 351//1 348//1 326//1
f 347//1 348//1 346//1
f 356//1 349//1 351//1
f 354//1 361//1 353//1
f 359//1 567//1 357//1
f 358//1 354//1 355//1
f 356//1 328//1 69//1
f 351//1 349//1 352//1
f 354//1 358//1 361//1
f 352//1 349//1 355//1
f 645//1 618//1 638//1
f 611//1 616//1 610//1
f 359//1 358//1 349//1
f 614//1 609//1 601//1
f 350//1 359//1 349//1
f 633//1 564//1 354//1
f 349//1 356//1 350//1
f 328//1 356//1 351//1
f 568//1 566//1 567//1
f 574//1 573//1 360//1
f 349//1 358//1 355//1
f 361//1 358//1 574//1
f 567//1 359//1 350//1
f 357//1 358//1 359//1
f 572//1 357//1 569//1
f 576//1 642//1 644//1
f 574//1 358//1 357//1
f 361//1 360//1 644//1
f 437//1 432//1 440//1
f 482//1 486//1 478//1
f 745//1 746//1 741//1
f 748//1 908//1 907//1
f 371//1 375//1 376//1
f 372//1 370//1 371//1
f 367//1 372//1 366//1
f 369//1 372//1 367//1
f 373//1 375//1 371//1
f 366//1 376//1 379//1
f 372//1 369//1 368//1
f 384//1 387//1 656//1
f 369//1 193//1 368//1
f 370//1 368//1 196//1
f 369//1 367//1 386//1
f 193//1 369//1 210//1
f 196//1 365//1 370//1
f 370//1 365//1 371//1
f 365//1 373//1 371//1
f 752//1 625//1 592//1
f 370//1 372//1 368//1
f 371//1 366//1 372//1
f 365//1 364//1 373//1
f 751//1 592//1 375//1
f 604//1 595//1 605//1
f 401//1 396//1 383//1
f 751//1 373//1 364//1
f 371//1 376//1 366//1
f 380//1 376//1 382//1
f 385//1 378//1 380//1
f 655//1 767//1 400//1
f 384//1 68//1 386//1
f 379//1 376//1 380//1
f 403//1 404//1 658//1
f 375//1 382//1 376//1
f 658//1 657//1 378//1
f 395//1 385//1 380//1
f 378//1 379//1 380//1
f 656//1 404//1 381//1
f 7//1 773//1 769//1
f 592//1 382//1 375//1
f 395//1 382//1 374//1
f 598//1 600//1 602//1
f 403//1 396//1 377//1
f 387//1 367//1 366//1
f 390//1 388//1 389//1
f 396//1 385//1 383//1
f 403//1 385//1 396//1
f 386//1 68//1 210//1
f 387//1 386//1 367//1
f 657//1 366//1 379//1
f 658//1 656//1 657//1
f 777//1 923//1 920//1
f 922//1 926//1 921//1
f 390//1 68//1 384//1
f 389//1 388//1 391//1
f 384//1 381//1 390//1
f 779//1 381//1 778//1
f 393//1 917//1 388//1
f 755//1 212//1 917//1
f 753//1 925//1 916//1
f 10//1 796//1 984//1
f 916//1 780//1 753//1
f 754//1 393//1 916//1
f 214//1 394//1 212//1
f 215//1 389//1 394//1
f 395//1 374//1 597//1
f 383//1 385//1 395//1
f 399//1 401//1 596//1
f 767//1 768//1 770//1
f 6//1 653//1 648//1
f 596//1 598//1 399//1
f 402//1 377//1 396//1
f 399//1 648//1 653//1
f 653//1 654//1 399//1
f 398//1 767//1 655//1
f 383//1 599//1 596//1
f 402//1 396//1 654//1
f 654//1 396//1 401//1
f 400//1 767//1 650//1
f 403//1 377//1 404//1
f 378//1 385//1 403//1
f 377//1 402//1 650//1
f 652//1 778//1 781//1
f 808//1 791//1 786//1
f 783//1 220//1 784//1
f 64//1 406//1 224//1
f 227//1 406//1 226//1
f 408//1 407//1 242//1
f 407//1 253//1 991//1
f 408//1 242//1 248//1
f 253//1 408//1 254//1
f 410//1 266//1 279//1
f 410//1 411//1 416//1
f 410//1 278//1 411//1
f 410//1 409//1 415//1
f 412//1 278//1 292//1
f 422//1 417//1 421//1
f 1017//1 1025//1 1027//1
f 278//1 412//1 411//1
f 436//1 413//1 61//1
f 414//1 257//1 258//1
f 250//1 413//1 414//1
f 257//1 414//1 413//1
f 270//1 415//1 250//1
f 410//1 415//1 266//1
f 410//1 416//1 409//1
f 420//1 416//1 411//1
f 446//1 447//1 465//1
f 469//1 425//1 445//1
f 419//1 287//1 1031//1
f 61//1 416//1 420//1
f 287//1 419//1 412//1
f 419//1 418//1 420//1
f 421//1 418//1 422//1
f 418//1 421//1 420//1
f 429//1 421//1 417//1
f 431//1 436//1 428//1
f 287//1 1027//1 1028//1
f 417//1 422//1 424//1
f 1029//1 1023//1 1028//1
f 1032//1 1037//1 17//1
f 418//1 1031//1 1024//1
f 1035//1 1036//1 1032//1
f 427//1 447//1 445//1
f 478//1 464//1 476//1
f 421//1 429//1 430//1
f 444//1 432//1 450//1
f 424//1 1033//1 460//1
f 449//1 443//1 445//1
f 463//1 420//1 421//1
f 431//1 428//1 426//1
f 448//1 447//1 427//1
f 430//1 429//1 427//1
f 443//1 430//1 427//1
f 430//1 426//1 428//1
f 431//1 426//1 437//1
f 436//1 431//1 257//1
f 437//1 426//1 442//1
f 444//1 661//1 441//1
f 433//1 440//1 441//1
f 78//1 251//1 435//1
f 257//1 434//1 258//1
f 434//1 433//1 435//1
f 433//1 660//1 435//1
f 79//1 455//1 457//1
f 413//1 436//1 257//1
f 428//1 436//1 61//1
f 426//1 443//1 442//1
f 437//1 440//1 438//1
f 437//1 438//1 431//1
f 434//1 438//1 433//1
f 506//1 498//1 496//1
f 442//1 454//1 437//1
f 441//1 440//1 432//1
f 433//1 438//1 440//1
f 444//1 441//1 432//1
f 441//1 79//1 660//1
f 443//1 426//1 430//1
f 439//1 450//1 454//1
f 445//1 443//1 427//1
f 442//1 443//1 439//1
f 432//1 454//1 450//1
f 444//1 362//1 451//1
f 429//1 417//1 448//1
f 449//1 445//1 425//1
f 662//1 474//1 475//1
f 447//1 469//1 445//1
f 448//1 427//1 429//1
f 447//1 446//1 468//1
f 460//1 417//1 424//1
f 447//1 448//1 465//1
f 496//1 449//1 425//1
f 439//1 443//1 449//1
f 500//1 503//1 515//1
f 362//1 444//1 450//1
f 521//1 362//1 514//1
f 119//1 117//1 452//1
f 455//1 452//1 90//1
f 452//1 451//1 522//1
f 437//1 454//1 432//1
f 417//1 460//1 448//1
f 439//1 454//1 442//1
f 458//1 461//1 100//1
f 451//1 455//1 79//1
f 460//1 1033//1 456//1
f 467//1 466//1 456//1
f 455//1 90//1 461//1
f 459//1 458//1 48//1
f 459//1 48//1 47//1
f 458//1 457//1 461//1
f 78//1 459//1 89//1
f 458//1 459//1 457//1
f 1033//1 424//1 423//1
f 460//1 456//1 466//1
f 455//1 461//1 457//1
f 100//1 461//1 90//1
f 457//1 459//1 462//1
f 78//1 462//1 459//1
f 420//1 463//1 428//1
f 421//1 430//1 463//1
f 662//1 475//1 476//1
f 479//1 476//1 475//1
f 448//1 466//1 465//1
f 465//1 466//1 471//1
f 460//1 466//1 448//1
f 1036//1 467//1 456//1
f 18//1 472//1 470//1
f 467//1 472//1 471//1
f 446//1 662//1 476//1
f 464//1 663//1 469//1
f 447//1 468//1 469//1
f 464//1 469//1 468//1
f 466//1 467//1 471//1
f 467//1 453//1 470//1
f 467//1 470//1 472//1
f 478//1 476//1 479//1
f 471//1 472//1 662//1
f 1038//1 19//1 664//1
f 473//1 475//1 474//1
f 472//1 18//1 474//1
f 468//1 476//1 464//1
f 446//1 476//1 468//1
f 1038//1 479//1 473//1
f 490//1 492//1 489//1
f 477//1 482//1 478//1
f 481//1 487//1 489//1
f 499//1 450//1 439//1
f 473//1 479//1 475//1
f 477//1 478//1 479//1
f 517//1 669//1 508//1
f 516//1 514//1 515//1
f 477//1 664//1 485//1
f 425//1 469//1 663//1
f 665//1 485//1 664//1
f 481//1 484//1 486//1
f 492//1 481//1 489//1
f 485//1 487//1 477//1
f 502//1 495//1 498//1
f 668//1 666//1 667//1
f 481//1 482//1 487//1
f 481//1 486//1 482//1
f 486//1 484//1 663//1
f 477//1 487//1 482//1
f 666//1 489//1 485//1
f 483//1 666//1 485//1
f 670//1 491//1 517//1
f 485//1 489//1 487//1
f 490//1 489//1 488//1
f 1041//1 504//1 670//1
f 490//1 480//1 492//1
f 550//1 817//1 818//1
f 510//1 505//1 509//1
f 495//1 492//1 480//1
f 481//1 492//1 502//1
f 669//1 490//1 488//1
f 524//1 525//1 519//1
f 495//1 501//1 494//1
f 499//1 500//1 450//1
f 505//1 512//1 509//1
f 498//1 495//1 494//1
f 496//1 499//1 449//1
f 498//1 506//1 484//1
f 511//1 512//1 505//1
f 132//1 526//1 143//1
f 498//1 494//1 503//1
f 484//1 481//1 502//1
f 449//1 499//1 439//1
f 500//1 499//1 496//1
f 503//1 500//1 496//1
f 450//1 500//1 362//1
f 512//1 495//1 480//1
f 507//1 501//1 497//1
f 495//1 502//1 492//1
f 484//1 502//1 498//1
f 498//1 503//1 496//1
f 516//1 494//1 501//1
f 493//1 517//1 510//1
f 491//1 510//1 517//1
f 501//1 511//1 497//1
f 496//1 425//1 506//1
f 663//1 506//1 425//1
f 513//1 507//1 497//1
f 507//1 118//1 514//1
f 668//1 488//1 666//1
f 1040//1 1041//1 508//1
f 490//1 509//1 480//1
f 510//1 509//1 493//1
f 523//1 672//1 814//1
f 143//1 526//1 62//1
f 501//1 495//1 512//1
f 525//1 511//1 505//1
f 509//1 512//1 480//1
f 501//1 512//1 511//1
f 513//1 497//1 524//1
f 520//1 513//1 132//1
f 118//1 131//1 521//1
f 500//1 515//1 362//1
f 494//1 515//1 503//1
f 362//1 515//1 514//1
f 514//1 516//1 507//1
f 515//1 494//1 516//1
f 669//1 517//1 493//1
f 670//1 517//1 508//1
f 539//1 553//1 548//1
f 531//1 540//1 541//1
f 497//1 525//1 524//1
f 510//1 527//1 525//1
f 134//1 520//1 132//1
f 507//1 520//1 118//1
f 119//1 522//1 521//1
f 521//1 522//1 362//1
f 452//1 522//1 119//1
f 362//1 522//1 451//1
f 491//1 670//1 673//1
f 523//1 529//1 527//1
f 497//1 511//1 525//1
f 519//1 542//1 526//1
f 505//1 510//1 525//1
f 510//1 528//1 527//1
f 513//1 524//1 526//1
f 519//1 526//1 524//1
f 529//1 523//1 518//1
f 519//1 525//1 527//1
f 528//1 491//1 673//1
f 527//1 528//1 523//1
f 529//1 518//1 531//1
f 529//1 541//1 552//1
f 549//1 539//1 548//1
f 165//1 149//1 533//1
f 549//1 551//1 822//1
f 531//1 548//1 540//1
f 159//1 537//1 536//1
f 165//1 533//1 162//1
f 530//1 554//1 543//1
f 553//1 530//1 548//1
f 824//1 534//1 821//1
f 543//1 545//1 532//1
f 543//1 538//1 535//1
f 542//1 519//1 552//1
f 537//1 159//1 129//1
f 533//1 536//1 532//1
f 135//1 546//1 129//1
f 62//1 547//1 546//1
f 532//1 537//1 538//1
f 538//1 537//1 546//1
f 549//1 531//1 518//1
f 831//1 830//1 829//1
f 540//1 530//1 543//1
f 541//1 540//1 535//1
f 542//1 541//1 535//1
f 527//1 552//1 519//1
f 547//1 542//1 535//1
f 526//1 542//1 62//1
f 545//1 543//1 554//1
f 532//1 538//1 543//1
f 834//1 830//1 824//1
f 836//1 826//1 828//1
f 820//1 545//1 544//1
f 533//1 532//1 545//1
f 129//1 546//1 537//1
f 62//1 546//1 135//1
f 535//1 538//1 547//1
f 546//1 547//1 538//1
f 540//1 548//1 530//1
f 549//1 548//1 531//1
f 551//1 549//1 518//1
f 534//1 539//1 549//1
f 523//1 814//1 518//1
f 550//1 22//1 821//1
f 928//1 518//1 814//1
f 822//1 550//1 821//1
f 529//1 552//1 527//1
f 542//1 552//1 541//1
f 534//1 830//1 831//1
f 554//1 544//1 545//1
f 530//1 553//1 554//1
f 544//1 554//1 553//1
f 310//1 556//1 301//1
f 555//1 892//1 845//1
f 556//1 304//1 305//1
f 296//1 559//1 686//1
f 557//1 685//1 686//1
f 691//1 559//1 294//1
f 695//1 687//1 689//1
f 691//1 294//1 690//1
f 686//1 559//1 558//1
f 336//1 738//1 315//1
f 571//1 720//1 579//1
f 1000//1 1012//1 982//1
f 735//1 731//1 734//1
f 627//1 626//1 67//1
f 752//1 589//1 591//1
f 633//1 353//1 632//1
f 629//1 565//1 563//1
f 565//1 564//1 563//1
f 352//1 564//1 346//1
f 629//1 626//1 627//1
f 337//1 346//1 565//1
f 566//1 568//1 715//1
f 722//1 570//1 723//1
f 568//1 567//1 350//1
f 567//1 566//1 569//1
f 324//1 568//1 350//1
f 321//1 714//1 715//1
f 579//1 720//1 2//1
f 581//1 572//1 569//1
f 3//1 646//1 582//1
f 580//1 581//1 585//1
f 573//1 574//1 572//1
f 581//1 580//1 571//1
f 572//1 571//1 573//1
f 577//1 578//1 575//1
f 583//1 576//1 360//1
f 361//1 574//1 360//1
f 572//1 574//1 357//1
f 4//1 613//1 639//1
f 571//1 577//1 573//1
f 573//1 583//1 360//1
f 577//1 579//1 578//1
f 575//1 582//1 583//1
f 571//1 580//1 720//1
f 579//1 577//1 571//1
f 2//1 578//1 579//1
f 581//1 571//1 572//1
f 581//1 716//1 585//1
f 569//1 566//1 581//1
f 566//1 715//1 716//1
f 573//1 577//1 583//1
f 582//1 576//1 583//1
f 583//1 577//1 575//1
f 584//1 724//1 721//1
f 585//1 723//1 580//1
f 716//1 581//1 566//1
f 585//1 584//1 723//1
f 586//1 744//1 749//1
f 179//1 587//1 178//1
f 587//1 179//1 175//1
f 750//1 586//1 749//1
f 201//1 718//1 589//1
f 590//1 364//1 365//1
f 591//1 589//1 562//1
f 364//1 588//1 589//1
f 204//1 590//1 365//1
f 76//1 588//1 590//1
f 591//1 562//1 627//1
f 591//1 67//1 752//1
f 606//1 619//1 609//1
f 382//1 592//1 374//1
f 779//1 388//1 390//1
f 377//1 651//1 404//1
f 760//1 392//1 918//1
f 761//1 659//1 757//1
f 599//1 395//1 597//1
f 596//1 599//1 595//1
f 383//1 596//1 401//1
f 598//1 596//1 595//1
f 608//1 592//1 624//1
f 619//1 634//1 615//1
f 600//1 598//1 595//1
f 399//1 598//1 397//1
f 395//1 599//1 383//1
f 595//1 599//1 597//1
f 600//1 595//1 604//1
f 598//1 602//1 397//1
f 597//1 607//1 605//1
f 4//1 612//1 613//1
f 605//1 595//1 597//1
f 600//1 5//1 602//1
f 603//1 610//1 617//1
f 604//1 614//1 610//1
f 608//1 607//1 597//1
f 605//1 609//1 614//1
f 751//1 752//1 592//1
f 607//1 609//1 605//1
f 608//1 597//1 374//1
f 607//1 606//1 609//1
f 592//1 608//1 374//1
f 606//1 607//1 608//1
f 619//1 620//1 634//1
f 622//1 601//1 609//1
f 613//1 612//1 617//1
f 616//1 5//1 600//1
f 609//1 619//1 622//1
f 610//1 603//1 611//1
f 601//1 630//1 617//1
f 645//1 642//1 576//1
f 610//1 614//1 601//1
f 605//1 614//1 604//1
f 631//1 632//1 636//1
f 630//1 613//1 617//1
f 610//1 616//1 604//1
f 5//1 616//1 611//1
f 603//1 617//1 612//1
f 601//1 617//1 610//1
f 620//1 619//1 606//1
f 613//1 630//1 643//1
f 622//1 619//1 640//1
f 624//1 620//1 606//1
f 620//1 67//1 626//1
f 615//1 631//1 636//1
f 643//1 635//1 641//1
f 640//1 619//1 615//1
f 622//1 621//1 630//1
f 608//1 624//1 606//1
f 638//1 637//1 645//1
f 625//1 624//1 592//1
f 67//1 620//1 625//1
f 624//1 625//1 620//1
f 591//1 627//1 67//1
f 631//1 626//1 563//1
f 562//1 628//1 627//1
f 337//1 629//1 628//1
f 340//1 628//1 562//1
f 629//1 337//1 565//1
f 626//1 629//1 563//1
f 628//1 629//1 627//1
f 622//1 630//1 601//1
f 643//1 630//1 621//1
f 632//1 631//1 563//1
f 634//1 631//1 615//1
f 563//1 564//1 633//1
f 632//1 353//1 635//1
f 353//1 633//1 354//1
f 563//1 633//1 632//1
f 620//1 626//1 634//1
f 631//1 634//1 626//1
f 641//1 635//1 353//1
f 640//1 635//1 643//1
f 632//1 635//1 636//1
f 636//1 635//1 640//1
f 641//1 642//1 637//1
f 623//1 638//1 618//1
f 623//1 639//1 638//1
f 638//1 639//1 643//1
f 4//1 639//1 623//1
f 639//1 613//1 643//1
f 622//1 640//1 621//1
f 636//1 640//1 615//1
f 642//1 641//1 353//1
f 643//1 641//1 637//1
f 644//1 642//1 353//1
f 576//1 646//1 645//1
f 637//1 638//1 643//1
f 643//1 621//1 640//1
f 361//1 644//1 353//1
f 576//1 644//1 360//1
f 618//1 645//1 647//1
f 637//1 642//1 645//1
f 582//1 646//1 576//1
f 647//1 646//1 3//1
f 772//1 652//1 769//1
f 646//1 647//1 645//1
f 399//1 397//1 648//1
f 651//1 377//1 650//1
f 400//1 650//1 402//1
f 650//1 649//1 651//1
f 652//1 651//1 649//1
f 404//1 651//1 781//1
f 769//1 652//1 649//1
f 652//1 775//1 778//1
f 655//1 653//1 6//1
f 654//1 400//1 402//1
f 399//1 654//1 401//1
f 400//1 654//1 653//1
f 384//1 656//1 381//1
f 653//1 655//1 400//1
f 656//1 387//1 657//1
f 366//1 657//1 387//1
f 378//1 657//1 379//1
f 403//1 658//1 378//1
f 404//1 656//1 658//1
f 756//1 757//1 762//1
f 220//1 783//1 64//1
f 441//1 660//1 433//1
f 457//1 660//1 79//1
f 441//1 661//1 79//1
f 444//1 451//1 661//1
f 471//1 662//1 446//1
f 474//1 662//1 472//1
f 486//1 663//1 464//1
f 506//1 663//1 484//1
f 1038//1 664//1 477//1
f 485//1 665//1 483//1
f 668//1 667//1 20//1
f 664//1 19//1 665//1
f 489//1 666//1 488//1
f 1040//1 20//1 1039//1
f 666//1 483//1 667//1
f 669//1 668//1 508//1
f 490//1 669//1 493//1
f 668//1 669//1 488//1
f 21//1 672//1 671//1
f 672//1 523//1 528//1
f 672//1 673//1 671//1
f 670//1 504//1 671//1
f 675//1 816//1 815//1
f 671//1 673//1 670//1
f 528//1 673//1 672//1
f 544//1 829//1 827//1
f 180//1 939//1 150//1
f 677//1 844//1 845//1
f 817//1 550//1 928//1
f 821//1 534//1 822//1
f 890//1 891//1 15//1
f 844//1 678//1 293//1
f 286//1 678//1 677//1
f 685//1 679//1 311//1
f 680//1 679//1 557//1
f 697//1 680//1 557//1
f 66//1 683//1 680//1
f 692//1 693//1 700//1
f 1043//1 1042//1 319//1
f 335//1 308//1 682//1
f 308//1 679//1 684//1
f 705//1 66//1 709//1
f 684//1 681//1 682//1
f 683//1 684//1 680//1
f 308//1 684//1 682//1
f 686//1 685//1 75//1
f 679//1 685//1 557//1
f 686//1 75//1 299//1
f 557//1 686//1 558//1
f 302//1 688//1 690//1
f 166//1 177//1 689//1
f 166//1 688//1 167//1
f 688//1 687//1 690//1
f 694//1 689//1 157//1
f 689//1 687//1 688//1
f 691//1 690//1 687//1
f 302//1 690//1 294//1
f 695//1 691//1 687//1
f 559//1 691//1 558//1
f 157//1 179//1 693//1
f 695//1 692//1 696//1
f 179//1 178//1 693//1
f 702//1 699//1 701//1
f 693//1 694//1 157//1
f 694//1 692//1 695//1
f 709//1 696//1 692//1
f 695//1 698//1 691//1
f 697//1 66//1 680//1
f 557//1 698//1 697//1
f 698//1 557//1 558//1
f 66//1 697//1 696//1
f 695//1 696//1 698//1
f 697//1 698//1 696//1
f 910//1 893//1 711//1
f 700//1 699//1 706//1
f 706//1 705//1 700//1
f 696//1 709//1 66//1
f 702//1 701//1 178//1
f 700//1 701//1 699//1
f 750//1 702//1 178//1
f 702//1 176//1 710//1
f 708//1 703//1 706//1
f 704//1 914//1 681//1
f 66//1 704//1 683//1
f 703//1 983//1 914//1
f 703//1 704//1 705//1
f 66//1 705//1 704//1
f 708//1 706//1 699//1
f 703//1 705//1 706//1
f 710//1 893//1 708//1
f 911//1 981//1 999//1
f 710//1 708//1 699//1
f 708//1 707//1 713//1
f 692//1 700//1 709//1
f 705//1 709//1 700//1
f 702//1 710//1 699//1
f 710//1 176//1 711//1
f 176//1 895//1 897//1
f 711//1 899//1 904//1
f 906//1 981//1 912//1
f 983//1 1007//1 913//1
f 713//1 707//1 912//1
f 703//1 713//1 712//1
f 739//1 339//1 729//1
f 716//1 715//1 714//1
f 321//1 715//1 568//1
f 714//1 737//1 716//1
f 724//1 716//1 560//1
f 585//1 716//1 584//1
f 319//1 1008//1 1002//1
f 561//1 731//1 729//1
f 208//1 718//1 201//1
f 340//1 562//1 718//1
f 580//1 719//1 720//1
f 580//1 570//1 719//1
f 2//1 720//1 719//1
f 725//1 726//1 728//1
f 726//1 1//1 721//1
f 723//1 570//1 580//1
f 722//1 723//1 721//1
f 721//1 723//1 584//1
f 716//1 724//1 584//1
f 730//1 724//1 560//1
f 736//1 729//1 727//1
f 736//1 730//1 560//1
f 735//1 727//1 731//1
f 727//1 729//1 731//1
f 726//1 721//1 728//1
f 721//1 724//1 730//1
f 561//1 729//1 717//1
f 730//1 736//1 727//1
f 727//1 728//1 730//1
f 721//1 730//1 728//1
f 731//1 1005//1 734//1
f 725//1 728//1 735//1
f 1005//1 731//1 561//1
f 561//1 717//1 1002//1
f 735//1 733//1 725//1
f 30//1 733//1 734//1
f 727//1 735//1 728//1
f 733//1 735//1 734//1
f 560//1 737//1 736//1
f 738//1 714//1 315//1
f 716//1 737//1 560//1
f 738//1 737//1 714//1
f 738//1 336//1 341//1
f 738//1 736//1 737//1
f 736//1 739//1 729//1
f 341//1 739//1 738//1
f 741//1 740//1 173//1
f 587//1 740//1 586//1
f 741//1 742//1 745//1
f 363//1 744//1 741//1
f 180//1 742//1 173//1
f 745//1 742//1 150//1
f 941//1 743//1 745//1
f 746//1 363//1 741//1
f 749//1 744//1 363//1
f 586//1 741//1 744//1
f 939//1 951//1 150//1
f 745//1 743//1 746//1
f 748//1 743//1 946//1
f 899//1 901//1 27//1
f 747//1 908//1 26//1
f 743//1 748//1 746//1
f 901//1 902//1 27//1
f 896//1 895//1 749//1
f 176//1 702//1 750//1
f 587//1 750//1 178//1
f 176//1 750//1 749//1
f 373//1 751//1 375//1
f 589//1 752//1 364//1
f 625//1 752//1 67//1
f 364//1 752//1 751//1
f 780//1 393//1 388//1
f 593//1 774//1 777//1
f 760//1 759//1 763//1
f 755//1 754//1 594//1
f 756//1 755//1 594//1
f 212//1 391//1 917//1
f 757//1 756//1 594//1
f 756//1 207//1 758//1
f 757//1 594//1 763//1
f 762//1 757//1 659//1
f 219//1 758//1 207//1
f 216//1 758//1 213//1
f 594//1 754//1 760//1
f 984//1 927//1 10//1
f 754//1 392//1 760//1
f 918//1 765//1 766//1
f 763//1 761//1 757//1
f 805//1 761//1 759//1
f 659//1 783//1 784//1
f 756//1 762//1 207//1
f 760//1 763//1 594//1
f 761//1 763//1 759//1
f 764//1 800//1 801//1
f 760//1 766//1 759//1
f 800//1 797//1 799//1
f 918//1 766//1 760//1
f 765//1 800//1 799//1
f 7//1 769//1 770//1
f 650//1 767//1 649//1
f 770//1 769//1 649//1
f 767//1 398//1 768//1
f 774//1 593//1 775//1
f 767//1 770//1 649//1
f 7//1 770//1 768//1
f 774//1 772//1 771//1
f 773//1 771//1 772//1
f 778//1 775//1 593//1
f 776//1 8//1 774//1
f 769//1 773//1 772//1
f 593//1 777//1 753//1
f 652//1 772//1 775//1
f 774//1 775//1 772//1
f 8//1 923//1 774//1
f 774//1 771//1 776//1
f 920//1 923//1 924//1
f 780//1 782//1 753//1
f 781//1 778//1 381//1
f 381//1 779//1 390//1
f 782//1 778//1 593//1
f 388//1 779//1 780//1
f 779//1 778//1 782//1
f 404//1 781//1 381//1
f 652//1 781//1 651//1
f 753//1 782//1 593//1
f 779//1 782//1 780//1
f 785//1 659//1 761//1
f 783//1 659//1 785//1
f 207//1 784//1 220//1
f 659//1 784//1 762//1
f 787//1 790//1 791//1
f 405//1 787//1 785//1
f 971//1 975//1 969//1
f 813//1 64//1 811//1
f 790//1 787//1 405//1
f 791//1 808//1 787//1
f 797//1 805//1 799//1
f 786//1 791//1 793//1
f 973//1 970//1 969//1
f 867//1 869//1 863//1
f 797//1 984//1 798//1
f 790//1 788//1 791//1
f 794//1 795//1 792//1
f 794//1 793//1 791//1
f 804//1 11//1 793//1
f 788//1 794//1 791//1
f 886//1 879//1 880//1
f 794//1 796//1 795//1
f 793//1 794//1 792//1
f 798//1 984//1 788//1
f 796//1 794//1 788//1
f 10//1 795//1 796//1
f 788//1 790//1 798//1
f 799//1 759//1 766//1
f 790//1 405//1 798//1
f 805//1 798//1 405//1
f 765//1 799//1 766//1
f 805//1 797//1 798//1
f 765//1 921//1 801//1
f 800//1 764//1 927//1
f 802//1 806//1 785//1
f 765//1 801//1 800//1
f 812//1 811//1 802//1
f 878//1 967//1 876//1
f 803//1 882//1 809//1
f 761//1 805//1 405//1
f 793//1 792//1 804//1
f 799//1 805//1 759//1
f 785//1 806//1 783//1
f 811//1 806//1 802//1
f 852//1 63//1 855//1
f 228//1 226//1 997//1
f 883//1 808//1 786//1
f 810//1 808//1 803//1
f 812//1 809//1 789//1
f 810//1 802//1 785//1
f 803//1 809//1 810//1
f 802//1 810//1 809//1
f 802//1 809//1 812//1
f 813//1 811//1 807//1
f 888//1 884//1 889//1
f 807//1 811//1 812//1
f 995//1 997//1 807//1
f 64//1 813//1 226//1
f 816//1 672//1 815//1
f 817//1 928//1 816//1
f 817//1 816//1 675//1
f 672//1 21//1 815//1
f 672//1 816//1 814//1
f 550//1 818//1 22//1
f 550//1 551//1 928//1
f 820//1 819//1 533//1
f 817//1 675//1 818//1
f 674//1 933//1 934//1
f 545//1 820//1 533//1
f 829//1 544//1 553//1
f 676//1 824//1 823//1
f 821//1 823//1 824//1
f 549//1 822//1 534//1
f 551//1 550//1 822//1
f 23//1 828//1 825//1
f 821//1 22//1 823//1
f 820//1 544//1 827//1
f 830//1 834//1 828//1
f 676//1 825//1 834//1
f 929//1 836//1 828//1
f 835//1 839//1 836//1
f 832//1 827//1 838//1
f 832//1 838//1 674//1
f 826//1 830//1 828//1
f 553//1 539//1 831//1
f 826//1 827//1 829//1
f 830//1 534//1 824//1
f 826//1 829//1 830//1
f 553//1 831//1 829//1
f 534//1 831//1 539//1
f 819//1 832//1 674//1
f 820//1 827//1 832//1
f 676//1 834//1 824//1
f 929//1 833//1 835//1
f 825//1 828//1 834//1
f 930//1 24//1 1010//1
f 839//1 827//1 826//1
f 929//1 828//1 23//1
f 839//1 835//1 837//1
f 841//1 833//1 840//1
f 841//1 837//1 835//1
f 839//1 838//1 827//1
f 843//1 838//1 837//1
f 836//1 839//1 826//1
f 838//1 839//1 837//1
f 915//1 948//1 947//1
f 842//1 843//1 841//1
f 833//1 841//1 835//1
f 842//1 841//1 840//1
f 931//1 989//1 24//1
f 65//1 938//1 936//1
f 841//1 843//1 837//1
f 958//1 953//1 952//1
f 288//1 844//1 293//1
f 845//1 844//1 285//1
f 846//1 845//1 285//1
f 847//1 555//1 845//1
f 858//1 288//1 268//1
f 14//1 846//1 860//1
f 859//1 268//1 275//1
f 846//1 847//1 845//1
f 874//1 854//1 877//1
f 858//1 285//1 288//1
f 857//1 856//1 860//1
f 856//1 857//1 849//1
f 852//1 275//1 284//1
f 789//1 885//1 812//1
f 854//1 855//1 960//1
f 852//1 851//1 859//1
f 878//1 964//1 868//1
f 874//1 852//1 855//1
f 960//1 63//1 991//1
f 864//1 848//1 866//1
f 960//1 855//1 63//1
f 855//1 854//1 874//1
f 850//1 848//1 861//1
f 857//1 846//1 850//1
f 861//1 848//1 864//1
f 858//1 268//1 859//1
f 848//1 850//1 858//1
f 852//1 859//1 275//1
f 858//1 859//1 851//1
f 14//1 860//1 856//1
f 846//1 857//1 860//1
f 864//1 863//1 861//1
f 857//1 850//1 861//1
f 866//1 874//1 865//1
f 870//1 878//1 868//1
f 867//1 863//1 862//1
f 849//1 857//1 863//1
f 866//1 865//1 872//1
f 862//1 863//1 864//1
f 880//1 888//1 889//1
f 866//1 872//1 864//1
f 848//1 873//1 866//1
f 854//1 853//1 877//1
f 870//1 875//1 878//1
f 863//1 869//1 849//1
f 967//1 862//1 872//1
f 871//1 878//1 875//1
f 867//1 13//1 869//1
f 875//1 862//1 871//1
f 979//1 978//1 884//1
f 872//1 865//1 966//1
f 864//1 872//1 862//1
f 858//1 873//1 848//1
f 874//1 873//1 851//1
f 873//1 874//1 866//1
f 874//1 851//1 852//1
f 13//1 875//1 870//1
f 862//1 875//1 867//1
f 966//1 967//1 872//1
f 809//1 882//1 789//1
f 979//1 853//1 978//1
f 865//1 874//1 877//1
f 967//1 878//1 871//1
f 964//1 878//1 876//1
f 882//1 883//1 880//1
f 793//1 887//1 786//1
f 803//1 808//1 883//1
f 888//1 880//1 879//1
f 11//1 881//1 887//1
f 974//1 12//1 973//1
f 883//1 882//1 803//1
f 889//1 882//1 880//1
f 887//1 883//1 786//1
f 886//1 883//1 881//1
f 967//1 970//1 876//1
f 885//1 807//1 812//1
f 978//1 885//1 889//1
f 992//1 994//1 853//1
f 883//1 886//1 880//1
f 975//1 886//1 881//1
f 11//1 887//1 793//1
f 883//1 887//1 881//1
f 968//1 965//1 979//1
f 978//1 889//1 884//1
f 885//1 789//1 889//1
f 889//1 789//1 882//1
f 286//1 677//1 890//1
f 892//1 890//1 677//1
f 845//1 892//1 677//1
f 892//1 891//1 890//1
f 891//1 892//1 555//1
f 708//1 893//1 707//1
f 710//1 711//1 893//1
f 749//1 895//1 176//1
f 895//1 896//1 894//1
f 896//1 749//1 363//1
f 897//1 895//1 894//1
f 907//1 363//1 746//1
f 748//1 26//1 908//1
f 894//1 901//1 899//1
f 176//1 897//1 711//1
f 903//1 898//1 899//1
f 899//1 711//1 897//1
f 899//1 898//1 904//1
f 894//1 896//1 900//1
f 900//1 896//1 907//1
f 894//1 900//1 901//1
f 902//1 900//1 747//1
f 28//1 906//1 905//1
f 900//1 902//1 901//1
f 899//1 27//1 903//1
f 905//1 906//1 904//1
f 909//1 999//1 981//1
f 904//1 898//1 905//1
f 912//1 910//1 906//1
f 363//1 907//1 896//1
f 746//1 748//1 907//1
f 747//1 900//1 908//1
f 907//1 908//1 900//1
f 893//1 910//1 707//1
f 707//1 910//1 912//1
f 904//1 910//1 711//1
f 1000//1 29//1 1012//1
f 713//1 911//1 712//1
f 981//1 906//1 28//1
f 713//1 912//1 911//1
f 913//1 1044//1 1042//1
f 703//1 712//1 983//1
f 703//1 914//1 704//1
f 1042//1 914//1 913//1
f 754//1 916//1 392//1
f 940//1 941//1 150//1
f 780//1 916//1 393//1
f 388//1 917//1 391//1
f 754//1 917//1 393//1
f 777//1 920//1 753//1
f 801//1 921//1 9//1
f 922//1 921//1 918//1
f 392//1 925//1 922//1
f 916//1 925//1 392//1
f 765//1 918//1 921//1
f 392//1 922//1 918//1
f 920//1 919//1 922//1
f 921//1 926//1 9//1
f 774//1 923//1 777//1
f 920//1 924//1 919//1
f 753//1 920//1 925//1
f 923//1 8//1 924//1
f 922//1 925//1 920//1
f 518//1 928//1 551//1
f 922//1 919//1 926//1
f 927//1 984//1 800//1
f 816//1 928//1 814//1
f 986//1 952//1 953//1
f 836//1 929//1 835//1
f 840//1 833//1 930//1
f 985//1 1011//1 1010//1
f 936//1 153//1 65//1
f 842//1 933//1 843//1
f 934//1 933//1 932//1
f 934//1 932//1 938//1
f 674//1 934//1 819//1
f 951//1 955//1 949//1
f 957//1 939//1 180//1
f 164//1 938//1 65//1
f 152//1 936//1 935//1
f 932//1 958//1 943//1
f 915//1 942//1 948//1
f 934//1 938//1 162//1
f 943//1 938//1 932//1
f 957//1 180//1 152//1
f 939//1 937//1 951//1
f 944//1 942//1 950//1
f 941//1 942//1 743//1
f 150//1 941//1 745//1
f 942//1 941//1 940//1
f 940//1 950//1 942//1
f 945//1 26//1 946//1
f 932//1 953//1 958//1
f 936//1 943//1 935//1
f 950//1 951//1 949//1
f 959//1 950//1 949//1
f 748//1 946//1 26//1
f 942//1 915//1 945//1
f 942//1 946//1 743//1
f 942//1 944//1 948//1
f 959//1 947//1 944//1
f 947//1 948//1 944//1
f 955//1 956//1 952//1
f 959//1 25//1 947//1
f 951//1 950//1 940//1
f 959//1 949//1 954//1
f 951//1 940//1 150//1
f 955//1 951//1 937//1
f 953//1 932//1 933//1
f 955//1 988//1 949//1
f 933//1 842//1 953//1
f 842//1 1011//1 986//1
f 988//1 986//1 987//1
f 25//1 959//1 990//1
f 956//1 955//1 937//1
f 988//1 955//1 952//1
f 957//1 956//1 937//1
f 935//1 943//1 958//1
f 939//1 957//1 937//1
f 935//1 957//1 152//1
f 952//1 956//1 958//1
f 958//1 956//1 935//1
f 950//1 959//1 944//1
f 990//1 959//1 954//1
f 259//1 963//1 253//1
f 273//1 962//1 259//1
f 961//1 962//1 274//1
f 997//1 995//1 996//1
f 274//1 962//1 273//1
f 961//1 993//1 963//1
f 963//1 960//1 991//1
f 259//1 962//1 963//1
f 979//1 980//1 853//1
f 973//1 964//1 876//1
f 884//1 888//1 968//1
f 966//1 865//1 980//1
f 967//1 966//1 965//1
f 967//1 965//1 970//1
f 967//1 871//1 862//1
f 879//1 971//1 888//1
f 971//1 969//1 970//1
f 881//1 998//1 975//1
f 964//1 973//1 12//1
f 965//1 968//1 970//1
f 970//1 968//1 971//1
f 888//1 971//1 968//1
f 975//1 971//1 879//1
f 970//1 973//1 876//1
f 972//1 975//1 998//1
f 975//1 972//1 977//1
f 975//1 879//1 886//1
f 977//1 973//1 969//1
f 977//1 972//1 974//1
f 973//1 977//1 974//1
f 11//1 976//1 998//1
f 969//1 975//1 977//1
f 884//1 968//1 979//1
f 994//1 978//1 853//1
f 966//1 979//1 965//1
f 877//1 980//1 865//1
f 853//1 980//1 877//1
f 966//1 980//1 979//1
f 1003//1 1013//1 732//1
f 912//1 981//1 911//1
f 712//1 911//1 1006//1
f 1007//1 712//1 1006//1
f 914//1 983//1 913//1
f 984//1 796//1 788//1
f 800//1 984//1 797//1
f 989//1 954//1 987//1
f 842//1 840//1 1011//1
f 842//1 986//1 953//1
f 987//1 986//1 985//1
f 989//1 987//1 985//1
f 988//1 954//1 949//1
f 986//1 988//1 952//1
f 988//1 987//1 954//1
f 24//1 989//1 985//1
f 954//1 989//1 931//1
f 407//1 991//1 63//1
f 954//1 931//1 990//1
f 963//1 991//1 253//1
f 960//1 993//1 992//1
f 994//1 885//1 978//1
f 963//1 993//1 960//1
f 994//1 993//1 961//1
f 993//1 994//1 992//1
f 961//1 225//1 996//1
f 885//1 994//1 995//1
f 996//1 995//1 994//1
f 961//1 996//1 994//1
f 996//1 225//1 997//1
f 228//1 997//1 225//1
f 807//1 997//1 813//1
f 11//1 998//1 881//1
f 972//1 998//1 976//1
f 1000//1 999//1 909//1
f 1006//1 999//1 982//1
f 1003//1 561//1 1002//1
f 999//1 1000//1 982//1
f 1008//1 913//1 1007//1
f 319//1 1002//1 717//1
f 1003//1 1002//1 1001//1
f 1013//1 1003//1 1001//1
f 734//1 1005//1 30//1
f 1003//1 1005//1 561//1
f 1003//1 732//1 1004//1
f 30//1 1005//1 1004//1
f 999//1 1006//1 911//1
f 1008//1 1009//1 1001//1
f 1009//1 1006//1 982//1
f 1008//1 319//1 1044//1
f 1009//1 1008//1 1007//1
f 1002//1 1008//1 1001//1
f 1006//1 1009//1 1007//1
f 1009//1 982//1 1012//1
f 930//1 1010//1 840//1
f 24//1 985//1 1010//1
f 1010//1 1011//1 840//1
f 986//1 1011//1 985//1
f 1013//1 1012//1 29//1
f 1009//1 1012//1 1001//1
f 286//1 890//1 1018//1
f 1012//1 1013//1 1001//1
f 289//1 1015//1 1021//1
f 16//1 1025//1 1019//1
f 1022//1 1025//1 1026//1
f 1018//1 1016//1 1015//1
f 289//1 1021//1 281//1
f 286//1 1018//1 1015//1
f 15//1 1018//1 890//1
f 1015//1 1017//1 1021//1
f 1017//1 1014//1 1019//1
f 1025//1 1017//1 1019//1
f 1027//1 1021//1 1017//1
f 1037//1 1030//1 1020//1
f 1024//1 423//1 424//1
f 422//1 1024//1 424//1
f 1023//1 1024//1 1031//1
f 418//1 1024//1 422//1
f 423//1 1024//1 1023//1
f 1026//1 1020//1 1030//1
f 1025//1 1022//1 1027//1
f 1028//1 1027//1 1022//1
f 1025//1 16//1 1026//1
f 291//1 1027//1 287//1
f 1029//1 1028//1 1022//1
f 1028//1 1023//1 1031//1
f 1030//1 1029//1 1022//1
f 423//1 1023//1 1029//1
f 1026//1 1030//1 1022//1
f 1020//1 1034//1 1037//1
f 419//1 1031//1 418//1
f 1028//1 1031//1 287//1
f 1037//1 1029//1 1030//1
f 1036//1 1035//1 453//1
f 423//1 1032//1 1033//1
f 456//1 1033//1 1032//1
f 467//1 1036//1 453//1
f 423//1 1037//1 1032//1
f 1032//1 17//1 1035//1
f 1032//1 1036//1 456//1
f 1029//1 1037//1 423//1
f 17//1 1037//1 1034//1
f 20//1 1040//1 668//1
f 479//1 1038//1 477//1
f 668//1 1040//1 508//1
f 1041//1 1039//1 504//1
f 508//1 1041//1 670//1
f 1039//1 1041//1 1040//1
f 682//1 1042//1 331//1
f 1042//1 681//1 914//1
f 1043//1 319//1 717//1
f 331//1 1043//1 341//1
f 1008//1 1044//1 913//1
f 319//1 1042//1 1044//1
