# Blender 5.0.1
# www.blender.org
o annulus1000verts_new.obj_1044
v 1.478794 0.699246 -0.137564
v 1.465276 0.702830 -0.004500
v 1.425311 0.713425 0.122748
v 1.360647 0.730569 0.238619
v 1.274109 0.753513 0.338049
v 1.169480 0.781252 0.416692
v 1.051333 0.812576 0.471112
v 0.924831 0.846115 0.498930
v 0.795503 0.880403 0.498930
v 0.669000 0.913942 0.471112
v 0.550853 0.945266 0.416692
v 0.446224 0.973005 0.338049
v 0.359687 0.995948 0.238619
v 0.295023 1.013092 0.122748
v 0.255058 1.023688 -0.004500
v 0.241539 1.027272 -0.137564
v 0.255058 1.023688 -0.270627
v 0.295023 1.013092 -0.397875
v 0.359687 0.995948 -0.513746
v 0.446224 0.973005 -0.613177
v 0.550853 0.945265 -0.691820
v 0.669000 0.913942 -0.746240
v 0.795502 0.880403 -0.774058
v 0.924831 0.846115 -0.774058
v 1.051333 0.812576 -0.746240
v 1.169480 0.781252 -0.691820
v 1.274109 0.753513 -0.613177
v 1.360647 0.730569 -0.513746
v 1.425311 0.713425 -0.397875
v 1.465276 0.702830 -0.270627
v 0.986683 0.820407 -0.137918
v 0.983308 0.821608 -0.109040
v 0.976218 0.823951 -0.084198
v 0.962770 0.829135 -0.056787
v 0.945775 0.833043 -0.033387
v 0.925421 0.842176 -0.012818
v 0.901892 0.850301 0.004578
v 0.874197 0.857836 0.016606
v 0.844431 0.867380 0.020918
v 0.813582 0.875752 0.013811
v 0.786943 0.883044 -0.004167
v 0.768967 0.885810 -0.026247
v 0.759025 0.888293 -0.049225
v 0.754863 0.889530 -0.072835
v 0.755129 0.881924 -0.100220
v 0.752847 0.882737 -0.126552
v 0.750455 0.885442 -0.157968
v 0.765189 0.878264 -0.190569
v 0.774936 0.879949 -0.217416
v 0.786130 0.879910 -0.241443
v 0.800801 0.870944 -0.262005
v 0.819626 0.868662 -0.278671
v 0.843998 0.864364 -0.290853
v 0.876115 0.858061 -0.295870
v 0.908895 0.850223 -0.290279
v 0.936078 0.842298 -0.275036
v 0.955409 0.835309 -0.251916
v 0.969570 0.830277 -0.224656
v 0.980205 0.827182 -0.195051
v 0.985903 0.824283 -0.168703
v 0.473525 0.965767 -0.179606
v 0.702039 0.905182 -0.504995
v 0.523480 0.952523 0.063538
v 0.702039 0.905182 0.229867
v 0.940997 0.841829 -0.530978
v 1.196853 0.773995 -0.338666
v 1.149080 0.786661 0.131563
v 0.940997 0.841829 0.255850
v 1.246809 0.760751 -0.095522
v 0.590915 0.934644 -0.166841
v 0.750049 0.892454 -0.393437
v 0.625704 0.925421 0.002480
v 0.750049 0.892454 0.118309
v 0.916456 0.848335 -0.411531
v 1.127310 0.792433 -0.227363
v 1.025270 0.819486 0.097533
v 1.127310 0.792433 -0.047765
v 0.650169 0.918934 -0.160398
v 0.631533 0.923875 -0.274126
v 0.774282 0.886029 -0.337128
v 0.677302 0.911741 -0.028339
v 0.774282 0.886029 0.062000
v 0.860167 0.863259 0.135560
v 0.904068 0.851619 -0.351240
v 1.015344 0.822118 -0.358526
v 1.065901 0.808714 -0.206721
v 0.987318 0.829548 0.043491
v 1.065901 0.808714 -0.068407
v 0.680950 0.910773 -0.157051
v 0.697272 0.906446 -0.289302
v 0.786871 0.882691 -0.307875
v 0.704106 0.904634 -0.044349
v 0.786871 0.882691 0.032748
v 0.860167 0.863259 0.077333
v 0.897633 0.853326 -0.319919
v 0.982262 0.830888 -0.311419
v 1.034187 0.817122 -0.196060
v 0.967717 0.834745 0.015581
v 1.034187 0.817122 -0.079068
v 0.723053 0.899611 -0.265287
v 0.818063 0.874422 0.064640
v 0.940988 0.841831 -0.326753
v 0.743278 0.894249 -0.305321
v 0.844521 0.867407 0.051792
v 0.829127 0.871488 0.106447
v 0.944174 0.840986 -0.373928
v 0.955093 0.838091 -0.300270
v 0.730522 0.897631 -0.350707
v 0.798222 0.879682 0.173979
v 0.914699 0.848801 -0.380410
v 0.833989 0.870199 -0.395235
v 0.873004 0.859855 -0.380016
v 0.995520 0.827373 -0.444174
v 0.971742 0.833678 -0.348232
v 0.758046 0.890333 -0.363385
v 0.792121 0.881299 -0.389255
v 0.712659 0.902367 -0.320722
v 0.652151 0.918409 -0.415180
v 0.676924 0.911841 -0.364193
v 0.823567 0.872962 0.145058
v 0.785456 0.883066 0.135659
v 0.780705 0.884326 0.098694
v 0.838283 0.869061 -0.345884
v 0.871675 0.860208 -0.341995
v 0.815485 0.875105 -0.322670
v 0.805608 0.877724 -0.356640
v 0.869848 0.860692 -0.432490
v 0.960385 0.836688 -0.416454
v 0.778713 0.884854 -0.473476
v 0.710577 0.902919 -0.386603
v 0.679892 0.911054 -0.397672
v 0.692325 0.907758 -0.451033
v 0.724523 0.899221 -0.425813
v 0.696271 0.906711 -0.421818
v 0.732427 0.897126 -0.471223
v 0.765169 0.888445 -0.433155
v 0.806749 0.877421 0.090315
v 0.847668 0.866572 -0.371633
v 0.860018 0.863298 -0.405518
v 0.932512 0.844078 -0.470422
v 1.000250 0.826119 -0.400066
v 0.974985 0.832818 -0.380631
v 0.705156 0.904356 -0.476478
v 0.812257 0.875961 -0.438821
v 0.935945 0.843168 -0.437632
v 0.901782 0.852225 -0.450391
v 0.964044 0.835719 -0.457368
v 0.961103 0.836498 -0.497049
v 0.848982 0.866224 -0.511767
v 1.069768 0.807688 -0.589309
v 0.894075 0.854269 -0.498291
v 1.009276 0.823726 -0.550943
v 0.977854 0.832057 -0.531014
v 1.020799 0.820671 -0.495021
v 0.990777 0.828631 -0.478846
v 1.005479 0.824733 -0.520874
v 1.113437 0.796111 -0.420380
v 0.810637 0.876390 -0.410365
v 0.819664 0.873997 -0.481197
v 0.862592 0.862616 -0.473024
v 0.842339 0.867985 -0.448181
v 0.887217 0.856087 -0.561217
v 0.925508 0.845935 -0.502387
v 0.905993 0.851109 -0.531544
v 0.874357 0.859497 -0.531313
v 1.058709 0.810620 -0.399096
v 1.029294 0.818419 -0.387657
v 1.031398 0.817861 -0.428062
v 1.023976 0.819829 -0.461182
v 1.087394 0.803015 -0.484635
v 1.062568 0.809597 -0.452988
v 1.053644 0.811963 -0.486726
v 1.073436 0.806716 -0.536044
v 1.040161 0.815538 -0.525086
v 1.096449 0.800615 -0.450786
v 1.211041 0.770233 -0.501816
v 1.081726 0.804518 -0.421700
v 1.157588 0.784405 -0.467064
v 1.129214 0.791928 -0.450097
v 1.043968 0.814529 -0.562623
v 0.935190 0.843368 0.106447
v 0.940978 0.841834 0.057000
v 0.973946 0.833093 0.086216
v 0.902960 0.851913 0.077323
v 0.897739 0.853298 0.045306
v 1.003590 0.825234 0.072544
v 1.064947 0.808967 0.016358
v 1.028782 0.818555 0.038038
v 1.035173 0.816860 -0.026389
v 1.001077 0.825900 -0.006037
v 1.030317 0.818148 0.005648
v 0.896721 0.853567 0.118362
v 0.935877 0.843186 0.181241
v 0.869426 0.860804 0.106447
v 0.925084 0.846048 0.143946
v 0.983749 0.830494 0.146094
v 0.888291 0.855802 0.175662
v 0.954065 0.838364 0.155288
v 0.886867 0.856180 0.146124
v 0.842998 0.867811 0.189630
v 1.071159 0.807320 0.070573
v 1.005765 0.824657 0.022166
v 0.965387 0.835362 0.118514
v 0.997846 0.826757 0.115715
v 0.907443 0.850725 0.220822
v 0.860766 0.863100 0.165716
v 0.790035 0.881853 0.275426
v 1.056752 0.811139 0.044852
v 0.910547 0.849902 0.192487
v 0.943915 0.841055 0.218143
v 0.873346 0.859765 0.209372
v 0.866910 0.861471 0.289942
v 0.831915 0.870749 0.242701
v 0.879304 0.858185 0.250441
v 0.910185 0.849998 0.252725
v 0.853034 0.865150 0.263451
v 0.857711 0.863910 0.232797
v 0.811298 0.876215 0.210319
v 0.798636 0.879572 0.242162
v 0.749117 0.892701 0.246280
v 0.768267 0.887624 0.206203
v 0.750750 0.892268 0.164121
v 0.773050 0.886356 0.233584
v 0.733610 0.896812 0.213414
v 0.657964 0.916868 0.142730
v 0.696316 0.906700 0.177466
v 0.716884 0.901247 0.141764
v 0.687509 0.909035 0.147845
v 0.687633 0.909002 0.060674
v 0.694357 0.907219 0.104270
v 0.730528 0.897629 0.075946
v 0.723600 0.899466 0.105358
v 0.724187 0.899310 0.022898
v 0.706385 0.904030 -0.008245
v 0.756572 0.890724 0.020719
v 0.668602 0.914047 0.017711
v 0.714831 0.901791 0.051024
v 0.746737 0.893332 0.049942
v 0.653565 0.918034 -0.009234
v 0.608649 0.929942 -0.082255
v 0.624659 0.925698 -0.041499
v 0.546401 0.946446 -0.017506
v 0.661359 0.915968 -0.080673
v 0.661772 0.915858 -0.121438
v 0.681243 0.910696 -0.100842
v 0.635561 0.922807 -0.101337
v 0.600326 0.932149 -0.124670
v 0.580598 0.937379 -0.046718
v 0.634667 0.923044 -0.069451
v 0.527783 0.951382 -0.129553
v 0.619302 0.927118 -0.151412
v 0.599835 0.932279 -0.018865
v 0.577285 0.938258 0.037834
v 0.596527 0.933156 0.012876
v 0.564764 0.941577 -0.138385
v 0.556196 0.943849 -0.089504
v 0.533237 0.949936 -0.192383
v 0.558696 0.943186 -0.171443
v 0.629969 0.924290 0.061896
v 0.584141 0.936440 -0.099190
v 0.545785 0.946609 -0.054308
v 0.399800 0.985313 -0.033286
v 0.474028 0.965634 -0.034616
v 0.512255 0.955499 -0.035301
v 0.509077 0.956341 0.015187
v 0.492265 0.960799 -0.087321
v 0.493539 0.960461 -0.011211
v 0.431686 0.976860 0.045849
v 0.452213 0.971417 0.005254
v 0.524490 0.952255 -0.080296
v 0.492766 0.960666 -0.057406
v 0.640138 0.921594 0.031243
v 0.659324 0.916507 0.087700
v 0.668231 0.914146 0.115468
v 0.475206 0.965321 0.043550
v 0.410512 0.982473 0.008537
v 0.436980 0.975456 -0.029989
v 0.424095 0.978872 -0.100482
v 0.451189 0.971689 -0.069275
v 0.416416 0.980908 -0.065155
v 0.326439 1.004763 -0.094797
v 0.368726 0.993552 -0.071198
v 0.479332 0.964227 0.014363
v 0.503218 0.957895 0.043526
v 0.354574 0.997304 0.067598
v 0.318119 1.006969 -0.026490
v 0.373373 0.992320 -0.132461
v 0.390281 0.987837 0.045911
v 0.335058 1.002478 -0.058977
v 0.359384 0.996029 -0.024432
v 0.357956 0.996407 -0.102892
v 0.391087 0.987623 -0.103490
v 0.373237 0.992356 0.011489
v 1.059498 0.810411 -0.289351
v 1.036087 0.816618 -0.245829
v 1.079358 0.805146 -0.249418
v 1.016876 0.821711 -0.285389
v 0.994461 0.827654 -0.262661
v 1.095573 0.800847 -0.220330
v 1.129306 0.791903 -0.137564
v 1.098214 0.800147 -0.172742
v 1.016118 0.821912 -0.321958
v 1.143000 0.788273 -0.182813
v 1.078465 0.805382 -0.121765
v 1.044953 0.814268 -0.113040
v 1.123437 0.793459 -0.164307
v 1.116422 0.795319 -0.197696
v 1.226897 0.766030 -0.239670
v 1.196151 0.774181 -0.140754
v 1.100208 0.799618 -0.142333
v 1.178499 0.778861 -0.221427
v 1.162166 0.783191 -0.151762
v 1.189881 0.775843 -0.181689
v 1.210110 0.770480 -0.209504
v 1.298810 0.746964 -0.176756
v 1.257333 0.757960 -0.201460
v 1.230248 0.765141 -0.167325
v 1.151479 0.786025 -0.211241
v 1.338225 0.736514 -0.302503
v 1.265288 0.755851 -0.166136
v 1.297510 0.747308 -0.119216
v 1.246713 0.760776 -0.133444
v 1.288928 0.749584 -0.148210
v 1.269027 0.754860 -0.114543
v 1.218367 0.768291 -0.114407
v 1.196399 0.774115 -0.046629
v 1.169623 0.781214 -0.093616
v 1.215644 0.769013 -0.077652
v 1.155200 0.785038 -0.121221
v 1.120701 0.794185 -0.092845
v 1.288396 0.749725 -0.260021
v 1.145450 0.787623 -0.073670
v 1.099222 0.799879 -0.066417
v 1.090939 0.802075 -0.021105
v 1.261571 0.756837 -0.237152
v 1.298514 0.747042 -0.219046
v 1.159506 0.783897 0.039130
v 1.062199 0.809695 -0.014065
v 1.337315 0.736755 -0.251126
v 1.113125 0.796193 0.023751
v 1.310914 0.743755 -0.244148
v 1.090875 0.802092 0.007229
v 1.125211 0.792989 -0.010947
v 1.161548 0.783355 -0.027203
v 1.168949 0.781393 -0.056165
v 1.202017 0.772626 0.007330
v 1.153751 0.785422 0.005740
v 1.188582 0.776188 -0.018466
v 1.263836 0.756236 -0.025721
v 1.286856 0.750133 -0.068854
v 1.232539 0.764534 -0.044534
v 1.233254 0.764344 -0.008539
v 1.306355 0.744963 0.093002
v 1.276854 0.752785 0.036800
v 1.261482 0.756860 0.007515
v 1.256189 0.758264 -0.065082
v 1.340472 0.735918 -0.010088
v 1.302016 0.746114 0.003703
v 1.299227 0.746853 -0.033647
v 1.337927 0.736593 0.046598
v 1.308304 0.744447 0.035605
v 0.592718 0.934166 -0.352338
v 1.153813 0.785406 -0.568735
v 1.080092 0.804951 0.142128
v 1.032204 0.817648 0.151470
v 1.030001 0.818232 0.244249
v 0.984332 0.830340 0.240466
v 0.982709 0.830770 0.193288
v 0.970285 0.834064 0.217364
v 1.005754 0.824660 0.170222
v 1.043710 0.814597 0.198180
v 1.009212 0.823743 0.215931
v 1.060188 0.810228 0.168964
v 1.138194 0.789547 0.235634
v 1.093916 0.801286 0.208905
v 1.063586 0.809327 0.229727
v 1.088493 0.802724 0.340208
v 1.067053 0.808408 0.287136
v 1.055708 0.811416 0.259053
v 1.099183 0.799890 0.255759
v 0.990192 0.828786 0.331147
v 1.111387 0.796654 0.230546
v 1.147387 0.787110 0.305238
v 0.975424 0.832701 0.286625
v 1.106933 0.797835 0.297548
v 0.966878 0.834967 0.260860
v 1.005123 0.824827 0.268760
v 0.922368 0.846768 0.330343
v 0.922155 0.846824 0.290547
v 0.950282 0.839367 0.310284
v 0.894325 0.854203 0.310605
v 0.850757 0.865754 0.408050
v 0.880342 0.857910 0.363060
v 0.894648 0.854117 0.278926
v 1.132397 0.791084 0.271905
v 1.122055 0.793826 0.330140
v 1.221795 0.767382 0.377371
v 1.110407 0.796914 0.443902
v 1.170599 0.780956 0.356753
v 1.119919 0.794392 0.387425
v 1.150641 0.786247 0.335023
v 1.111788 0.796548 0.358415
v 1.082264 0.804376 0.311730
v 1.039248 0.815780 0.336769
v 0.705391 0.904294 0.357298
v 0.726296 0.898751 0.182856
v 0.545161 0.946775 0.020128
v 0.568948 0.940468 0.002128
v 0.482352 0.963427 -0.133345
v 0.459435 0.969503 -0.105129
v 0.436150 0.975676 -0.148509
v 0.406365 0.983573 -0.133770
v 0.507491 0.956762 -0.162511
v 0.534677 0.949554 -0.157261
v 0.503716 0.957763 -0.114115
v 0.463089 0.968534 -0.153442
v 0.378665 0.990917 -0.262042
v 0.394770 0.986647 -0.198427
v 0.408972 0.982882 -0.167711
v 0.436664 0.975540 -0.200287
v 0.414128 0.981515 -0.237661
v 0.383180 0.989720 -0.229276
v 0.314888 1.007826 -0.235921
v 0.349804 0.998568 -0.241070
v 0.465742 0.967830 -0.357806
v 0.489863 0.961435 -0.260578
v 0.430068 0.977288 -0.302270
v 0.471995 0.966173 -0.222187
v 0.411171 0.982299 -0.272851
v 0.450555 0.971857 -0.266980
v 0.511252 0.955765 -0.226278
v 0.559331 0.943018 -0.282654
v 0.582514 0.936871 -0.226905
v 0.578339 0.937978 -0.195619
v 0.626475 0.925216 -0.204685
v 0.501583 0.958328 -0.194987
v 0.527606 0.951429 -0.261481
v 0.546885 0.946318 -0.226436
v 0.507483 0.956764 -0.317073
v 0.564389 0.941677 -0.251872
v 0.594844 0.933602 -0.273064
v 0.508185 0.956578 -0.285651
v 0.469959 0.966712 -0.303046
v 0.585821 0.935995 -0.312472
v 0.449537 0.972127 -0.328917
v 0.373852 0.992193 -0.367166
v 0.408085 0.983117 -0.340397
v 0.383148 0.989728 -0.305329
v 0.481223 0.963726 -0.331528
v 0.547040 0.946276 -0.321843
v 0.632983 0.923491 -0.324310
v 0.672794 0.912936 -0.321875
v 0.275040 1.018390 -0.334251
v 0.534403 0.949627 -0.295944
v 0.663064 0.915515 -0.287919
v 0.324341 1.005319 -0.296600
v 0.665469 0.914878 -0.236563
v 0.700194 0.905672 -0.233115
v 0.679200 0.911237 -0.198055
v 0.348647 0.998875 -0.274516
v 0.685208 0.909645 -0.260456
v 0.653883 0.917950 -0.210267
v 0.444588 0.973439 -0.236035
v 0.423162 0.979119 -0.397844
v 0.378112 0.991063 -0.336185
v 0.351700 0.998066 -0.315704
v 0.316553 1.007384 -0.339058
v 0.404465 0.984076 -0.372255
v 0.433927 0.976265 -0.359688
v 0.285031 1.015741 -0.366063
v 0.347283 0.999237 -0.348572
v 0.322853 1.005714 -0.375153
v 0.327355 1.004520 -0.455811
v 0.311189 1.008806 -0.426843
v 0.360204 0.995811 -0.416878
v 0.390525 0.987772 -0.403261
v 0.398637 0.985622 -0.465533
v 0.411721 0.982153 -0.432007
v 0.381950 0.990046 -0.439068
v 0.531755 0.950329 -0.501642
v 0.467430 0.967383 -0.474773
v 0.434196 0.976194 -0.460891
v 0.402955 0.984477 -0.563462
v 0.468754 0.967032 -0.421861
v 0.422547 0.979282 -0.513471
v 0.440986 0.974394 -0.431436
v 0.442000 0.974125 -0.490412
v 0.481039 0.963775 -0.545974
v 0.471053 0.966422 -0.511024
v 0.503397 0.957847 -0.520134
v 0.560349 0.942748 -0.596148
v 0.501218 0.958425 -0.484041
v 0.541610 0.947716 -0.550333
v 0.553909 0.944455 -0.423350
v 0.534231 0.949672 -0.459891
v 0.521034 0.953171 -0.374729
v 0.610243 0.929520 -0.485670
v 0.511329 0.955744 -0.422750
v 0.524575 0.952233 -0.343306
v 0.556753 0.943701 -0.363111
v 0.576236 0.938536 -0.460160
v 0.491652 0.960961 -0.450814
v 0.546140 0.946515 -0.392766
v 0.498539 0.959135 -0.652498
v 0.575546 0.938719 -0.517569
v 0.490609 0.961238 -0.393208
v 0.615847 0.928034 -0.440658
v 0.508384 0.956525 -0.591888
v 0.548989 0.945760 -0.523322
v 0.581835 0.937051 -0.559733
v 0.582006 0.937006 -0.488943
v 0.553762 0.944494 -0.482085
v 0.651245 0.918649 -0.468254
v 0.611981 0.929059 -0.394340
v 0.579172 0.937757 -0.388558
v 0.585855 0.935986 -0.428264
v 0.535437 0.949353 -0.580045
v 0.661415 0.915953 -0.634981
v 0.650141 0.918942 -0.525837
v 0.664858 0.915040 -0.441957
v 0.644438 0.920454 -0.379234
v 0.650880 0.918746 -0.349056
v 0.614539 0.928381 -0.605378
v 0.638616 0.921997 -0.496798
v 0.612517 0.928917 -0.524851
v 0.671052 0.913398 -0.494896
v 0.630365 0.924185 -0.564662
v 0.589251 0.935085 -0.589408
v 0.651574 0.918562 -0.597135
v 0.745446 0.893674 -0.591301
v 0.699089 0.905964 -0.604203
v 0.790204 0.881808 -0.541767
v 0.835812 0.869716 -0.566966
v 0.730805 0.897556 -0.685824
v 0.711134 0.902771 -0.554935
v 0.814737 0.875303 -0.516586
v 0.782191 0.883932 -0.508030
v 0.748510 0.892862 -0.534479
v 0.732643 0.897068 -0.637654
v 0.718447 0.900832 -0.583058
v 0.679206 0.911236 -0.572791
v 0.681680 0.910580 -0.538047
v 0.765141 0.888453 -0.563939
v 0.798653 0.879568 -0.611022
v 0.796867 0.880041 -0.576077
v 0.749954 0.892479 -0.500270
v 0.720861 0.900192 -0.527183
v 0.725582 0.898941 -0.610498
v 0.696853 0.906557 -0.641341
v 0.670402 0.913570 -0.690231
v 0.675309 0.912269 -0.660969
v 0.657016 0.917119 -0.554388
v 0.764801 0.888543 -0.622091
v 0.774006 0.886102 -0.593992
v 0.275040 1.018390 0.059124
v 1.057861 0.810845 -0.159891
v 1.159447 0.783912 -0.284776
v 1.109631 0.797120 -0.290784
v 1.084897 0.803677 -0.277618
v 1.386501 0.723715 -0.145849
v 1.399192 0.720350 -0.275651
v 1.122441 0.793724 0.076227
v 1.218919 0.768145 0.077826
v 1.236696 0.763432 0.040400
v 1.200376 0.773061 0.045168
v 1.354980 0.732072 -0.079816
v 1.322711 0.740627 -0.062409
v 1.308918 0.744284 -0.090246
v 1.352575 0.732709 -0.043872
v 1.472035 0.701038 -0.071032
v 1.402795 0.719395 -0.005405
v 1.372290 0.727482 -0.017101
v 1.374265 0.726959 0.025809
v 1.346695 0.734268 0.018615
v 1.445293 0.708127 0.059124
v 1.381850 0.724948 0.084388
v 1.413300 0.716610 0.034433
v 1.455284 0.705479 0.027312
v 1.433934 0.711139 0.002549
v 1.429325 0.712361 -0.047353
v 1.390649 0.722615 -0.052726
v 1.435302 0.710776 0.090936
v 1.388938 0.723069 0.053591
v 1.416552 0.715747 -0.100621
v 1.412756 0.716754 -0.071374
v 1.124712 0.793121 -0.523212
v 1.127689 0.792332 -0.486702
v 1.061491 0.809883 0.108240
v 1.094358 0.801169 0.097108
v 1.037753 0.816176 0.123261
v 1.124425 0.793198 0.109736
v 1.138209 0.789543 0.182991
v 0.950463 0.839319 0.414217
v 0.810313 0.876476 0.346679
v 1.215022 0.769178 0.303975
v 1.184254 0.777335 0.322656
v 1.180583 0.778309 0.268987
v 1.215330 0.769096 0.340977
v 1.173534 0.780177 0.296472
v 1.243914 0.761518 0.322221
v 1.273833 0.753586 0.237907
v 1.247952 0.760448 0.357710
v 1.317378 0.742041 0.288334
v 1.250775 0.759699 0.276988
v 1.216319 0.768834 0.266974
v 1.195246 0.774421 0.207082
v 1.196997 0.773957 0.240337
v 1.168546 0.781500 0.225262
v 1.234895 0.763909 0.221525
v 1.285734 0.750430 0.272244
v 1.295743 0.747777 0.313191
v 1.339012 0.736305 0.263476
v 1.317374 0.742042 0.220814
v 1.247210 0.760644 0.247916
v 1.237497 0.763219 0.148416
v 1.267413 0.755288 0.302862
v 1.309943 0.744012 0.252053
v 1.392979 0.721997 0.180683
v 1.225197 0.766480 0.184552
v 1.185478 0.777011 0.160611
v 1.277970 0.752489 0.183468
v 1.251832 0.759419 0.196923
v 1.376813 0.726283 0.209651
v 1.169271 0.781308 0.188591
v 1.156728 0.784633 0.160237
v 1.190943 0.775562 0.114352
v 1.159066 0.784013 0.090724
v 1.147652 0.787039 0.064820
v 1.187158 0.776565 0.075164
v 1.289149 0.749525 0.211765
v 1.226346 0.766176 0.113645
v 1.262394 0.756618 0.086912
v 1.258434 0.757668 0.058400
v 1.208313 0.770957 0.140023
v 1.279151 0.752176 0.130318
v 1.254737 0.758649 0.115240
v 1.339205 0.736254 0.147905
v 1.357745 0.731339 0.178950
v 1.345912 0.734476 0.208504
v 1.265311 0.755845 0.156578
v 1.312478 0.743340 0.127051
v 1.345634 0.734550 0.103056
v 1.307175 0.744746 0.163083
v 1.331173 0.738384 0.076376
v 1.381423 0.725061 0.130436
v 1.400258 0.720067 0.107597
v 1.409145 0.717711 0.151715
v 1.195637 0.774317 0.397031
v 1.058463 0.810686 0.405442
v 1.080458 0.804854 0.376264
v 1.046032 0.813981 0.371951
v 1.004305 0.825044 0.407742
v 1.153345 0.785530 0.386389
v 1.139480 0.789206 0.361411
v 1.139943 0.789083 0.430297
v 1.017809 0.821464 0.305115
v 1.033096 0.817411 0.278859
v 1.046462 0.813867 0.307942
v 0.739029 0.895375 0.306753
v 0.616119 0.927962 -0.240410
v 0.613764 0.928586 -0.299790
v 0.350703 0.998330 -0.387226
v 0.455520 0.970540 -0.390424
v 0.391061 0.987630 -0.499929
v 0.381321 0.990213 -0.538604
v 0.441084 0.974368 -0.550350
v 0.424590 0.978741 -0.588319
v 0.464315 0.968209 -0.579954
v 0.510609 0.955935 -0.558798
v 0.531830 0.950309 -0.627125
v 0.524696 0.952200 -0.672159
v 0.580343 0.937447 -0.645388
v 0.559944 0.942855 -0.625289
v 0.869000 0.860917 -0.635727
v 0.609927 0.929604 -0.719030
v 0.732251 0.897172 -0.760149
v 0.324437 1.005294 0.025493
v 0.344553 0.999961 0.002509
v 1.192130 0.775247 -0.260555
v 1.194447 0.774633 -0.299613
v 1.255354 0.758485 -0.315203
v 1.253353 0.759016 -0.275742
v 1.222519 0.767190 -0.317368
v 1.220374 0.767759 -0.278364
v 1.155547 0.784946 -0.248779
v 1.125136 0.793009 -0.261062
v 1.083114 0.804150 -0.344408
v 1.050615 0.812766 -0.358588
v 1.096114 0.800703 -0.383317
v 1.055677 0.811424 -0.324055
v 1.085071 0.803631 -0.311615
v 1.153342 0.785531 -0.377553
v 1.152180 0.785839 -0.417706
v 1.125756 0.792845 -0.391353
v 1.123252 0.793508 -0.349587
v 1.159382 0.783929 -0.339289
v 1.169085 0.781357 -0.312045
v 1.133718 0.790734 -0.315902
v 1.214078 0.769428 -0.435443
v 1.190565 0.775662 -0.398800
v 1.179674 0.778549 -0.439478
v 1.191398 0.775441 -0.472779
v 1.253262 0.759040 -0.382137
v 1.240904 0.762316 -0.348221
v 1.218410 0.768280 -0.376361
v 1.231523 0.764803 -0.407101
v 1.291415 0.748924 -0.466474
v 1.255741 0.758382 -0.442972
v 1.182965 0.777677 -0.367531
v 1.229799 0.765260 -0.469474
v 1.262602 0.756563 -0.511829
v 1.300776 0.746442 -0.410536
v 1.284805 0.750677 -0.436483
v 1.337953 0.736586 -0.147024
v 1.337436 0.736723 -0.110971
v 1.373123 0.727261 -0.111615
v 1.363462 0.729823 -0.276328
v 1.098841 0.799980 0.053588
v 1.468655 0.701934 -0.037766
v 1.444693 0.708287 -0.023693
v 1.432974 0.711394 -0.145599
v 1.475414 0.700142 -0.104298
v 1.446675 0.707761 -0.090606
v 1.409653 0.717577 -0.129015
v 1.472035 0.701038 -0.204096
v 1.475414 0.700142 -0.170830
v 1.410037 0.717475 -0.205198
v 1.440691 0.709348 -0.183871
v 1.377136 0.726197 -0.234026
v 1.409819 0.717532 -0.170621
v 1.411563 0.717070 -0.241569
v 1.445293 0.708127 -0.334251
v 1.468655 0.701934 -0.237361
v 1.440914 0.709288 -0.251162
v 1.442178 0.708953 -0.217511
v 1.368008 0.728618 -0.188368
v 1.362540 0.730067 -0.160259
v 1.330966 0.738438 -0.198144
v 1.349250 0.733591 -0.222697
v 1.095595 0.800841 -0.514751
v 1.107418 0.797706 -0.565316
v 1.080259 0.804907 -0.563315
v 1.123717 0.793385 -0.636304
v 1.131709 0.791266 -0.551142
v 1.104241 0.798549 -0.603593
v 1.140232 0.789007 -0.603219
v 1.221795 0.767382 -0.652498
v 1.172357 0.780490 -0.641336
v 1.170651 0.780942 -0.524498
v 1.170660 0.780939 -0.494188
v 1.102961 0.798888 0.171981
v 1.118553 0.794754 0.142652
v 0.900660 0.852523 0.410267
v 0.842211 0.868019 0.369129
v 0.846653 0.866842 0.326896
v 0.813352 0.875671 0.307038
v 0.776129 0.885539 0.323930
v 0.822480 0.873251 0.274823
v 0.761152 0.889510 0.386880
v 0.804378 0.878050 0.391183
v 0.743731 0.894129 0.347354
v 0.766549 0.888079 0.294605
v 0.779071 0.884759 0.358061
v 0.732251 0.897172 0.485021
v 0.777737 0.885113 0.443099
v 0.780681 0.884333 0.411442
v 1.093383 0.801427 0.411737
v 1.080870 0.804745 0.457507
v 1.032538 0.817559 0.435679
v 1.061495 0.809882 0.435238
v 0.988082 0.829345 0.485021
v 0.995713 0.827322 0.446274
v 1.019707 0.820961 0.478067
v 0.954826 0.838162 0.457834
v 0.978611 0.831856 0.421901
v 0.956456 0.837730 0.491976
v 0.923569 0.846449 0.439138
v 0.973249 0.833278 0.374177
v 0.953243 0.838582 0.345510
v 0.921599 0.846972 0.373236
v 1.009391 0.823696 0.364323
v 0.947227 0.840177 0.385286
v 0.714760 0.901810 0.271283
v 0.743603 0.894163 0.275937
v 0.694814 0.907098 0.312511
v 0.616963 0.927738 0.355920
v 0.661351 0.915970 0.344700
v 0.668214 0.914150 0.407709
v 0.618623 0.927298 0.263365
v 0.677016 0.911817 0.374778
v 0.641964 0.921110 0.382476
v 0.609927 0.929604 0.443902
v 0.600115 0.932205 0.398770
v 0.634532 0.923080 0.417982
v 0.639464 0.921773 0.457507
v 0.664926 0.915022 0.439460
v 0.719333 0.900597 0.429433
v 0.701359 0.905363 0.399466
v 0.749233 0.892670 0.417613
v 0.745012 0.893789 0.452468
v 0.763877 0.888788 0.491976
v 0.666931 0.914490 0.264208
v 0.629606 0.924386 0.309869
v 0.580390 0.937435 0.430297
v 0.728860 0.898072 0.380990
v 0.692496 0.907712 0.255803
v 0.643701 0.920649 0.207087
v 0.635921 0.922712 0.336607
v 0.642481 0.920973 0.281974
v 0.662219 0.915740 0.310955
v 0.668737 0.914012 0.229806
v 0.638874 0.921929 0.238904
v 0.673224 0.912822 0.198390
v 0.621773 0.926463 -0.647642
v 0.580390 0.937434 -0.705425
v 0.608178 0.930067 -0.681973
v 0.637684 0.922244 -0.699056
v 0.639463 0.921773 -0.732635
v 0.864742 0.862046 -0.594974
v 0.831427 0.870878 -0.601808
v 0.702724 0.905001 -0.719120
v 0.700593 0.905566 -0.687875
v 0.700626 0.905557 -0.753195
v 0.739311 0.895301 -0.722824
v 0.763877 0.888788 -0.767103
v 0.804669 0.877972 -0.687197
v 0.825720 0.872391 -0.647076
v 0.788175 0.882346 -0.729282
v 0.788526 0.882253 -0.652160
v 0.767783 0.887752 -0.683888
v 0.758340 0.890255 -0.654160
v 0.843705 0.867623 -0.626484
v 0.860167 0.863259 -0.774058
v 0.762185 0.889236 -0.738675
v 0.839024 0.868864 -0.726110
v 0.812868 0.875799 -0.715138
v 0.857331 0.864011 -0.682096
v 0.850837 0.865732 -0.655591
v 0.830177 0.871210 -0.675549
v 0.895042 0.854013 -0.724965
v 0.866782 0.861505 -0.712385
v 0.910139 0.850010 -0.671564
v 0.881306 0.857654 -0.663798
v 0.353487 0.997592 0.035835
v 0.314580 1.007907 0.065640
v 0.332846 1.003065 0.104473
v 0.285031 1.015741 0.090936
v 0.412245 0.982014 0.129259
v 0.327355 1.004520 0.180683
v 0.375660 0.991713 0.106186
v 0.455980 0.970419 0.096039
v 0.489530 0.961524 0.079345
v 0.548121 0.945990 0.167106
v 0.526612 0.951692 0.117662
v 0.515108 0.954742 0.091215
v 0.311189 1.008806 0.151715
v 0.354226 0.997396 0.145321
v 0.411036 0.982334 0.083335
v 0.454469 0.970819 0.065434
v 0.330446 1.003701 0.132230
v 0.382987 0.989771 0.136331
v 0.412217 0.982021 0.197442
v 0.378999 0.990828 0.176410
v 0.409555 0.982727 0.163349
v 0.478597 0.964422 0.174737
v 0.447109 0.972771 0.149362
v 0.381114 0.990267 0.211425
v 0.402955 0.984477 0.288334
v 0.343521 1.000234 0.209651
v 0.381321 0.990213 0.263476
v 0.425487 0.978503 0.244840
v 0.445212 0.973274 0.185479
v 0.439756 0.974720 0.120602
v 0.486027 0.962453 0.131273
v 0.396791 0.986111 0.237385
v 0.452084 0.971452 0.287580
v 0.515172 0.954726 0.152718
v 0.427318 0.978018 0.273848
v 0.539764 0.948205 0.307938
v 0.584934 0.936230 0.296521
v 0.563096 0.942020 0.358221
v 0.610970 0.929327 0.289939
v 0.600821 0.932018 0.326294
v 0.547114 0.946257 0.237724
v 0.593272 0.934019 0.215199
v 0.567724 0.940793 0.324988
v 0.590536 0.934744 0.369769
v 0.555731 0.943972 0.274208
v 0.580316 0.937454 0.248662
v 0.292686 1.013712 0.003221
v 0.265049 1.021039 0.027312
v 0.295062 1.013082 0.034955
v 1.261078 0.756967 -0.478319
v 1.225780 0.766326 -0.567677
v 1.203987 0.772104 -0.538201
v 1.189859 0.775849 -0.572741
v 1.237507 0.763217 -0.535036
v 1.317378 0.742041 -0.563462
v 1.270999 0.754337 -0.566490
v 1.213001 0.769714 -0.609545
v 1.248988 0.760173 -0.591514
v 1.247952 0.760447 -0.632837
v 1.295743 0.747777 -0.588319
v 1.292357 0.748675 -0.534957
v 1.339012 0.736305 -0.538604
v 1.320470 0.741221 -0.498827
v 1.178762 0.778791 -0.606398
v 1.199607 0.773265 -0.634920
v 1.392979 0.721997 -0.455811
v 1.289994 0.749301 -0.497981
v 1.341001 0.735778 -0.448953
v 1.319985 0.741350 -0.469153
v 1.302729 0.745925 -0.350297
v 1.272016 0.754067 -0.342901
v 1.110407 0.796914 -0.719030
v 0.876372 0.858962 0.393172
v 0.875152 0.859286 0.333358
v 0.816807 0.874754 0.431284
v 0.860167 0.863259 0.498930
v 0.878191 0.858480 0.453512
v 0.805054 0.877871 0.464736
v 0.841687 0.868158 0.459575
v 0.907711 0.850654 0.469407
v 0.892499 0.854687 0.498930
v 0.875096 0.859301 0.423920
v 0.827835 0.871831 0.498930
v 0.700626 0.905557 0.478067
v 0.645312 0.920222 -0.668187
v 0.827835 0.871831 -0.774058
v 0.892499 0.854687 -0.774058
v 0.988082 0.829345 -0.760149
v 0.924579 0.846181 -0.610632
v 0.902576 0.852015 -0.636895
v 0.893859 0.854326 -0.606082
v 0.968532 0.834529 -0.583223
v 0.959404 0.836949 -0.554483
v 1.017437 0.821563 -0.616768
v 0.923923 0.846355 -0.564882
v 1.039262 0.815776 -0.594184
v 1.066513 0.808551 -0.650196
v 1.092879 0.801561 -0.633395
v 1.100356 0.799579 -0.676494
v 0.941062 0.841811 -0.587499
v 1.058203 0.810754 -0.698096
v 1.139943 0.789083 -0.705425
v 1.141699 0.788618 -0.668385
v 1.080870 0.804745 -0.732635
v 1.086569 0.803234 -0.702520
v 1.020984 0.820622 -0.666464
v 1.048148 0.813420 -0.671508
v 1.037697 0.816191 -0.640204
v 0.969048 0.834392 -0.645449
v 0.935537 0.843276 -0.643454
v 1.012987 0.822742 -0.715787
v 0.999879 0.826218 -0.643093
v 0.984741 0.830231 -0.612858
v 1.004415 0.825015 -0.585042
v 0.954458 0.838260 -0.617590
v 1.040357 0.815486 -0.719967
v 0.567037 0.940975 0.087999
v 0.613257 0.928721 0.113017
v 0.631429 0.923903 0.090891
v 0.599711 0.932312 0.078063
v 0.424590 0.978741 0.313191
v 0.484267 0.962919 0.235918
v 0.469832 0.966746 0.206478
v 0.453881 0.970975 0.233357
v 0.514929 0.954790 0.265190
v 0.493832 0.960383 0.307404
v 0.481618 0.963621 0.270712
v 0.516957 0.954252 0.293024
v 0.498539 0.959135 0.377371
v 0.465271 0.967955 0.314817
v 0.472381 0.966070 0.357710
v 0.516436 0.954390 0.340929
v 0.524696 0.952200 0.397031
v 0.489478 0.961538 0.335464
v 0.559311 0.943023 0.202593
v 0.516504 0.954372 0.206518
v 0.505970 0.957165 0.179879
v 1.376813 0.726283 -0.484779
v 1.372814 0.727343 -0.405143
v 1.286210 0.750304 -0.379877
v 0.694345 0.907222 0.447313
v 0.947791 0.840027 -0.724927
v 0.950159 0.839400 -0.682823
v 0.978463 0.831896 -0.705650
v 0.986544 0.829753 -0.673409
v 0.974447 0.832960 -0.734567
v 1.019707 0.820961 -0.753195
v 0.554077 0.944411 0.058963
v 0.565092 0.941490 0.129475
v 0.585492 0.936082 0.109713
v 0.594940 0.933577 0.166793
v 0.615578 0.928105 0.191788
v 0.628025 0.924805 0.159171
v 0.654697 0.917734 0.173758
v 0.533767 0.949795 0.366900
v 1.368959 0.728366 -0.436414
v 1.409145 0.717711 -0.426843
v 1.392622 0.722092 -0.351717
v 1.381971 0.724916 -0.312396
v 1.413242 0.716625 -0.324534
v 1.455284 0.705479 -0.302439
v 1.430322 0.712097 -0.282133
v 1.337059 0.736823 -0.411622
v 1.320459 0.741224 -0.380621
v 1.344058 0.734967 -0.345144
v 1.353231 0.732535 -0.377813
v 0.921428 0.847017 -0.742048
v 0.921402 0.847024 -0.703957
v 1.396800 0.720984 -0.384018
v 1.435302 0.710776 -0.366063
v 0.248299 1.025480 -0.071032
v 0.291341 1.014068 -0.062404
v 0.251678 1.024584 -0.037766
v 0.277522 1.017732 -0.107843
v 0.283512 1.016144 -0.029405
v 0.244919 1.026376 -0.104298
v 0.248299 1.025480 -0.204096
v 0.299137 1.012002 -0.089910
v 0.292665 1.013718 -0.165638
v 0.339194 1.001382 -0.188794
v 0.358784 0.996188 -0.211829
v 0.272984 1.018935 -0.140136
v 0.244919 1.026376 -0.170830
v 0.309996 1.009123 -0.130444
v 0.323951 1.005423 -0.159964
v 0.305196 1.010395 -0.200299
v 0.276099 1.018109 -0.191803
v 0.370797 0.993003 -0.170052
v 0.294299 1.013284 -0.270482
v 0.322040 1.005929 -0.264326
v 0.251678 1.024584 -0.237361
v 0.265049 1.021039 -0.302439
v 0.295636 1.012930 -0.309743
v 0.283347 1.016188 -0.239655
v 0.343521 1.000234 -0.484779
v 0.472381 0.966070 -0.632837
v 0.481721 0.963594 -0.604213
v 0.503482 0.957825 -0.623378
v 1.295958 0.747720 -0.303046
v 1.316784 0.742198 -0.277225
v 1.317345 0.742050 -0.323911
vn -0.2563 -0.9666 -0.0000
vn -0.3425 -0.9379 -0.0547
vn -0.3365 -0.9380 0.0830
vn -0.2737 -0.9616 0.0221
vn -0.2609 -0.9513 -0.1644
vn -0.1151 -0.9922 0.0469
vn -0.3164 -0.9475 -0.0463
vn -0.3072 -0.9453 -0.1095
vn -0.3424 -0.9396 0.0040
vn -0.2852 -0.9585 -0.0000
vn -0.2579 -0.9661 -0.0097
vn -0.3629 -0.9318 0.0027
vn -0.2500 -0.9668 0.0522
vn -0.2568 -0.9665 -0.0036
vn -0.2826 -0.9578 -0.0533
vn -0.2302 -0.9730 -0.0144
vn -0.1965 -0.9801 -0.0267
vn -0.2526 -0.9675 -0.0097
vn -0.1840 -0.9806 -0.0681
vn -0.1168 -0.9932 -0.0027
vn -0.2434 -0.9688 0.0465
vn -0.2705 -0.9503 0.1542
vn -0.2554 -0.9597 -0.1174
vn -0.2574 -0.9663 -0.0026
vn -0.1768 -0.9827 -0.0548
vn -0.4290 -0.8992 0.0860
vn -0.2754 -0.9612 0.0153
vn -0.1219 -0.9908 0.0587
vn -0.1985 -0.9793 0.0394
vn -0.2618 -0.9511 -0.1641
vn -0.2915 -0.9564 -0.0191
vn -0.2763 -0.9610 0.0123
vn -0.2622 -0.9650 0.0016
vn -0.2497 -0.9667 -0.0566
vn -0.2542 -0.9671 -0.0012
vn -0.2093 -0.9775 -0.0270
vn -0.2037 -0.9747 0.0916
vn -0.2899 -0.9428 -0.1645
vn -0.2534 -0.9673 -0.0030
vn -0.3051 -0.9523 0.0017
vn -0.2611 -0.9646 -0.0359
vn -0.2301 -0.9658 -0.1198
vn -0.2385 -0.9709 -0.0222
vn -0.3030 -0.9517 -0.0498
vn -0.2865 -0.9563 0.0592
vn -0.2670 -0.9627 0.0436
vn -0.1835 -0.9761 0.1162
vn -0.2014 -0.9758 0.0857
vn -0.1537 -0.9867 0.0532
vn -0.2083 -0.9769 0.0472
vn -0.2850 -0.9585 0.0020
vn -0.2540 -0.9666 0.0341
vn -0.2708 -0.9625 -0.0154
vn -0.3439 -0.9376 -0.0513
vn -0.3534 -0.9022 0.2472
vn -0.1832 -0.9831 0.0030
vn -0.2106 -0.9750 -0.0706
vn -0.2250 -0.9710 -0.0803
vn -0.2066 -0.9769 -0.0549
vn -0.1682 -0.9786 -0.1189
vn -0.1164 -0.9928 0.0277
vn -0.1212 -0.9919 0.0391
vn -0.3526 -0.9337 -0.0629
vn -0.3609 -0.9317 0.0420
s 0
f 507//1 516//1 501//1
f 184//1 192//1 194//1
f 202//1 188//1 87//1
f 493//1 509//1 490//1
f 46//2 89//2 47//2
f 46//3 245//3 244//3
f 420//1 428//1 61//1
f 131//1 134//1 130//1
f 87//1 188//1 186//1
f 243//4 44//4 92//4
f 91//5 52//5 51//5
f 305//6 99//6 32//6
f 458//7 100//7 49//7
f 660//1 457//1 462//1
f 292//1 282//1 291//1
f 125//8 52//8 91//8
f 111//1 116//1 158//1
f 139//1 138//1 111//1
f 248//1 240//1 241//1
f 459//9 47//9 89//9
f 352//1 348//1 351//1
f 80//1 103//1 108//1
f 435//1 462//1 78//1
f 93//1 238//1 235//1
f 389//1 391//1 394//1
f 65//1 163//1 164//1
f 301//1 306//1 310//1
f 114//1 106//1 142//1
f 261//1 242//1 264//1
f 290//1 262//1 293//1
f 333//1 304//1 330//1
f 318//1 303//1 307//1
f 195//1 197//1 199//1
f 867//1 875//1 13//1
f 76//1 188//1 208//1
f 995//1 807//1 885//1
f 810//1 785//1 787//1
f 327//1 332//1 329//1
f 409//1 416//1 413//1
f 204//1 76//1 590//1
f 92//10 44//10 43//10
f 86//1 97//1 295//1
f 227//1 228//1 230//1
f 510//1 491//1 528//1
f 323//1 324//1 322//1
f 81//1 92//1 234//1
f 41//11 40//11 93//11
f 207//1 762//1 784//1
f 105//1 137//1 101//1
f 420//1 411//1 419//1
f 258//1 434//1 70//1
f 221//1 218//1 223//1
f 942//1 945//1 946//1
f 247//1 255//1 70//1
f 78//1 89//1 244//1
f 46//12 45//12 245//12
f 38//13 185//13 104//13
f 660//1 462//1 435//1
f 116//1 126//1 115//1
f 151//1 140//1 146//1
f 95//14 102//14 55//14
f 808//1 810//1 787//1
f 616//1 600//1 604//1
f 114//1 102//1 106//1
f 14//1 847//1 846//1
f 297//1 298//1 96//1
f 56//15 107//15 57//15
f 112//1 139//1 74//1
f 54//16 95//16 55//16
f 222//1 406//1 227//1
f 85//1 141//1 167//1
f 128//1 145//1 147//1
f 178//1 701//1 693//1
f 54//17 53//17 124//17
f 106//1 102//1 84//1
f 739//1 736//1 738//1
f 93//18 235//18 41//18
f 59//19 97//19 60//19
f 313//1 317//1 309//1
f 182//1 98//1 87//1
f 96//1 114//1 302//1
f 325//1 309//1 322//1
f 121//1 109//1 222//1
f 166//1 167//1 168//1
f 695//1 689//1 694//1
f 333//1 334//1 88//1
f 1007//1 983//1 712//1
f 101//1 82//1 93//1
f 99//20 189//20 33//20
f 189//1 99//1 88//1
f 38//21 37//21 185//21
f 81//1 241//1 249//1
f 36//22 35//22 98//22
f 755//1 917//1 754//1
f 152//1 153//1 936//1
f 121//1 105//1 120//1
f 97//1 86//1 556//1
f 50//23 49//23 100//23
f 352//1 355//1 564//1
f 355//1 354//1 564//1
f 104//24 101//24 40//24
f 299//1 301//1 86//1
f 556//25 60//25 97//25
f 81//1 239//1 241//1
f 130//1 108//1 119//1
f 386//1 210//1 369//1
f 84//1 112//1 110//1
f 387//1 384//1 386//1
f 382//1 395//1 380//1
f 51//26 50//26 103//26
f 234//27 43//27 42//27
f 33//28 32//28 99//28
f 533//1 819//1 162//1
f 258//1 70//1 255//1
f 232//1 231//1 73//1
f 182//29 36//29 98//29
f 294//1 296//1 295//1
f 435//1 70//1 434//1
f 117//1 119//1 108//1
f 91//30 51//30 103//30
f 103//31 50//31 100//31
f 80//1 115//1 126//1
f 234//32 42//32 233//32
f 92//1 81//1 243//1
f 40//33 39//33 104//33
f 238//1 237//1 233//1
f 185//1 182//1 184//1
f 105//1 101//1 94//1
f 124//34 53//34 123//34
f 95//1 84//1 102//1
f 102//35 107//35 55//35
f 297//1 96//1 302//1
f 295//36 59//36 58//36
f 86//1 301//1 556//1
f 190//37 34//37 189//37
f 183//1 182//1 87//1
f 305//1 304//1 88//1
f 338//1 88//1 334//1
f 458//38 49//38 48//38
f 103//1 80//1 91//1
f 101//39 93//39 40//39
f 94//1 194//1 105//1
f 84//1 110//1 106//1
f 107//1 102//1 96//1
f 100//1 90//1 103//1
f 115//1 108//1 71//1
f 38//40 104//40 39//40
f 94//1 101//1 104//1
f 120//1 105//1 83//1
f 121//1 73//1 122//1
f 128//1 106//1 74//1
f 102//1 114//1 96//1
f 107//1 96//1 298//1
f 55//41 107//41 56//41
f 90//1 117//1 103//1
f 108//1 103//1 117//1
f 83//1 192//1 199//1
f 213//1 218//1 200//1
f 112//1 84//1 124//1
f 74//1 106//1 110//1
f 136//1 71//1 133//1
f 110//1 112//1 74//1
f 84//1 95//1 124//1
f 138//1 139//1 112//1
f 153//1 148//1 65//1
f 157//1 175//1 179//1
f 142//1 128//1 141//1
f 302//1 114//1 85//1
f 116//1 115//1 71//1
f 80//1 108//1 115//1
f 130//1 133//1 71//1
f 138//1 126//1 111//1
f 455//1 451//1 452//1
f 130//1 71//1 108//1
f 521//1 514//1 118//1
f 464//1 478//1 486//1
f 452//1 117//1 90//1
f 451//1 79//1 661//1
f 83//1 199//1 206//1
f 121//1 120//1 109//1
f 222//1 109//1 221//1
f 231//1 122//1 73//1
f 137//1 82//1 101//1
f 121//1 122//1 137//1
f 53//42 52//42 125//42
f 126//1 116//1 111//1
f 54//43 124//43 95//43
f 124//1 123//1 138//1
f 80//1 125//1 91//1
f 53//44 125//44 123//44
f 123//1 125//1 126//1
f 80//1 126//1 125//1
f 144//1 158//1 136//1
f 127//1 160//1 146//1
f 145//1 128//1 74//1
f 141//1 128//1 113//1
f 536//1 149//1 159//1
f 146//1 160//1 151//1
f 119//1 131//1 130//1
f 520//1 134//1 118//1
f 521//1 131//1 119//1
f 520//1 507//1 513//1
f 135//1 133//1 132//1
f 134//1 133//1 130//1
f 135//1 132//1 143//1
f 133//1 135//1 136//1
f 118//1 134//1 131//1
f 132//1 133//1 134//1
f 547//1 62//1 542//1
f 136//1 135//1 129//1
f 136//1 129//1 144//1
f 116//1 71//1 136//1
f 121//1 137//1 105//1
f 82//1 137//1 122//1
f 124//1 138//1 112//1
f 126//1 138//1 123//1
f 111//1 158//1 161//1
f 74//1 139//1 127//1
f 145//1 74//1 146//1
f 147//1 113//1 128//1
f 168//1 169//1 171//1
f 142//1 85//1 114//1
f 128//1 142//1 106//1
f 85//1 142//1 141//1
f 526//1 132//1 513//1
f 62//1 135//1 143//1
f 159//1 144//1 129//1
f 161//1 139//1 111//1
f 146//1 74//1 127//1
f 145//1 140//1 147//1
f 161//1 159//1 160//1
f 140//1 145//1 146//1
f 148//1 140//1 163//1
f 148//1 147//1 140//1
f 674//1 838//1 843//1
f 154//1 169//1 155//1
f 535//1 540//1 543//1
f 832//1 819//1 820//1
f 894//1 899//1 897//1
f 156//1 155//1 148//1
f 151//1 165//1 164//1
f 163//1 151//1 164//1
f 843//1 933//1 674//1
f 147//1 155//1 113//1
f 943//1 936//1 938//1
f 153//1 152//1 156//1
f 172//1 154//1 174//1
f 684//1 679//1 680//1
f 147//1 148//1 155//1
f 156//1 148//1 153//1
f 180//1 174//1 152//1
f 155//1 156//1 154//1
f 177//1 171//1 175//1
f 173//1 742//1 741//1
f 136//1 158//1 116//1
f 161//1 158//1 144//1
f 532//1 536//1 537//1
f 159//1 149//1 160//1
f 160//1 127//1 161//1
f 149//1 151//1 160//1
f 139//1 161//1 127//1
f 159//1 161//1 144//1
f 531//1 541//1 529//1
f 162//1 819//1 934//1
f 148//1 163//1 65//1
f 140//1 151//1 163//1
f 165//1 151//1 149//1
f 162//1 938//1 164//1
f 149//1 536//1 533//1
f 162//1 164//1 165//1
f 141//1 168//1 167//1
f 698//1 558//1 691//1
f 168//1 141//1 113//1
f 166//1 689//1 688//1
f 113//1 169//1 168//1
f 169//1 154//1 172//1
f 155//1 169//1 113//1
f 172//1 171//1 169//1
f 173//1 174//1 180//1
f 741//1 586//1 740//1
f 175//1 171//1 170//1
f 168//1 171//1 177//1
f 154//1 156//1 174//1
f 170//1 171//1 172//1
f 587//1 586//1 750//1
f 172//1 173//1 740//1
f 152//1 174//1 156//1
f 172//1 174//1 173//1
f 172//1 740//1 170//1
f 177//1 175//1 157//1
f 906//1 910//1 904//1
f 704//1 681//1 683//1
f 689//1 177//1 157//1
f 177//1 166//1 168//1
f 740//1 587//1 170//1
f 693//1 701//1 700//1
f 587//1 175//1 170//1
f 693//1 692//1 694//1
f 935//1 956//1 957//1
f 180//1 150//1 742//1
f 183//1 181//1 182//1
f 198//1 193//1 195//1
f 184//1 182//1 181//1
f 36//45 182//45 37//45
f 87//1 186//1 183//1
f 588//1 364//1 590//1
f 192//1 184//1 181//1
f 94//1 104//1 185//1
f 182//46 185//46 37//46
f 94//1 185//1 184//1
f 35//47 190//47 98//47
f 204//1 186//1 76//1
f 208//1 187//1 718//1
f 186//1 188//1 76//1
f 202//1 98//1 190//1
f 188//1 187//1 208//1
f 191//1 187//1 188//1
f 33//48 189//48 34//48
f 34//49 190//49 35//49
f 191//1 190//1 189//1
f 191//1 189//1 338//1
f 202//1 191//1 188//1
f 195//1 192//1 181//1
f 194//1 192//1 83//1
f 203//1 198//1 195//1
f 109//1 120//1 200//1
f 105//1 194//1 83//1
f 184//1 194//1 94//1
f 203//1 181//1 183//1
f 193//1 209//1 195//1
f 76//1 201//1 588//1
f 210//1 68//1 215//1
f 210//1 205//1 209//1
f 120//1 83//1 206//1
f 203//1 195//1 181//1
f 198//1 196//1 368//1
f 195//1 199//1 192//1
f 206//1 199//1 197//1
f 205//1 211//1 209//1
f 214//1 215//1 394//1
f 338//1 342//1 187//1
f 589//1 588//1 201//1
f 98//1 202//1 87//1
f 191//1 202//1 190//1
f 183//1 186//1 204//1
f 198//1 203//1 196//1
f 196//1 203//1 204//1
f 183//1 204//1 203//1
f 218//1 109//1 200//1
f 209//1 211//1 197//1
f 211//1 206//1 197//1
f 120//1 206//1 200//1
f 200//1 206//1 211//1
f 405//1 785//1 761//1
f 187//1 342//1 718//1
f 76//1 208//1 201//1
f 195//1 209//1 197//1
f 210//1 209//1 193//1
f 368//1 193//1 198//1
f 365//1 196//1 204//1
f 214//1 211//1 205//1
f 211//1 217//1 200//1
f 389//1 68//1 390//1
f 391//1 212//1 394//1
f 216//1 217//1 214//1
f 212//1 758//1 216//1
f 215//1 214//1 205//1
f 216//1 214//1 212//1
f 210//1 215//1 205//1
f 215//1 68//1 389//1
f 212//1 755//1 756//1
f 217//1 216//1 213//1
f 200//1 217//1 213//1
f 211//1 214//1 217//1
f 219//1 213//1 758//1
f 218//1 213//1 219//1
f 220//1 223//1 207//1
f 219//1 223//1 218//1
f 758//1 212//1 756//1
f 218//1 221//1 109//1
f 64//1 224//1 220//1
f 121//1 222//1 73//1
f 224//1 221//1 223//1
f 64//1 226//1 406//1
f 207//1 223//1 219//1
f 224//1 223//1 220//1
f 64//1 806//1 811//1
f 221//1 224//1 406//1
f 64//1 783//1 806//1
f 407//1 63//1 284//1
f 222//1 227//1 73//1
f 221//1 406//1 222//1
f 226//1 228//1 227//1
f 259//1 253//1 254//1
f 997//1 226//1 813//1
f 259//1 229//1 273//1
f 236//1 81//1 234//1
f 230//1 232//1 227//1
f 274//1 228//1 225//1
f 230//1 229//1 231//1
f 237//1 231//1 229//1
f 122//1 231//1 82//1
f 227//1 232//1 73//1
f 230//1 231//1 232//1
f 239//1 236//1 272//1
f 42//50 41//50 235//50
f 43//51 234//51 92//51
f 233//1 237//1 236//1
f 238//1 93//1 82//1
f 42//52 235//52 233//52
f 233//1 236//1 234//1
f 229//1 259//1 272//1
f 236//1 237//1 229//1
f 238//1 233//1 235//1
f 82//1 231//1 238//1
f 237//1 238//1 231//1
f 239//1 72//1 241//1
f 81//1 236//1 239//1
f 248//1 241//1 252//1
f 251//1 244//1 246//1
f 252//1 254//1 408//1
f 241//1 240//1 249//1
f 267//1 269//1 263//1
f 255//1 414//1 258//1
f 247//1 251//1 246//1
f 44//53 243//53 245//53
f 46//54 244//54 89//54
f 246//1 244//1 243//1
f 44//55 245//55 45//55
f 243//1 244//1 245//1
f 249//1 246//1 243//1
f 247//1 246//1 240//1
f 260//1 255//1 247//1
f 251//1 247//1 70//1
f 252//1 241//1 72//1
f 264//1 271//1 270//1
f 246//1 249//1 240//1
f 81//1 249//1 243//1
f 248//1 256//1 260//1
f 256//1 248//1 261//1
f 435//1 251//1 70//1
f 251//1 78//1 244//1
f 252//1 72//1 254//1
f 248//1 252//1 408//1
f 239//1 272//1 72//1
f 854//1 960//1 992//1
f 254//1 72//1 272//1
f 253//1 407//1 408//1
f 260//1 247//1 240//1
f 415//1 413//1 250//1
f 261//1 248//1 242//1
f 250//1 255//1 256//1
f 430//1 428//1 463//1
f 257//1 438//1 434//1
f 414//1 255//1 250//1
f 257//1 431//1 438//1
f 273//1 229//1 230//1
f 854//1 992//1 853//1
f 248//1 260//1 240//1
f 255//1 260//1 256//1
f 283//1 265//1 284//1
f 256//1 261//1 270//1
f 1014//1 1017//1 1015//1
f 270//1 250//1 256//1
f 264//1 242//1 265//1
f 277//1 279//1 263//1
f 242//1 407//1 265//1
f 264//1 263//1 271//1
f 275//1 268//1 269//1
f 263//1 264//1 267//1
f 280//1 277//1 262//1
f 415//1 409//1 413//1
f 264//1 265//1 267//1
f 269//1 283//1 275//1
f 857//1 861//1 863//1
f 277//1 276//1 262//1
f 276//1 269//1 268//1
f 277//1 269//1 276//1
f 264//1 270//1 261//1
f 270//1 266//1 415//1
f 279//1 271//1 263//1
f 270//1 271//1 266//1
f 229//1 272//1 236//1
f 254//1 272//1 259//1
f 230//1 274//1 273//1
f 961//1 963//1 962//1
f 228//1 274//1 230//1
f 961//1 274//1 225//1
f 284//1 275//1 283//1
f 873//1 858//1 851//1
f 268//1 288//1 276//1
f 1016//1 1014//1 1015//1
f 280//1 279//1 277//1
f 263//1 269//1 277//1
f 282//1 292//1 280//1
f 416//1 61//1 413//1
f 410//1 279//1 278//1
f 271//1 279//1 266//1
f 282//1 280//1 262//1
f 278//1 279//1 280//1
f 289//1 281//1 291//1
f 465//1 471//1 446//1
f 286//1 289//1 290//1
f 289//1 291//1 282//1
f 269//1 267//1 283//1
f 265//1 283//1 267//1
f 407//1 284//1 265//1
f 852//1 284//1 63//1
f 850//1 846//1 285//1
f 1018//1 15//1 1016//1
f 282//1 290//1 289//1
f 678//1 286//1 290//1
f 1027//1 281//1 1021//1
f 419//1 411//1 412//1
f 858//1 850//1 285//1
f 678//1 290//1 293//1
f 290//1 282//1 262//1
f 1015//1 289//1 286//1
f 276//1 293//1 262//1
f 293//1 276//1 288//1
f 1027//1 291//1 281//1
f 292//1 291//1 287//1
f 412//1 292//1 287//1
f 292//1 278//1 280//1
f 285//1 844//1 288//1
f 844//1 677//1 678//1
f 85//1 167//1 688//1
f 86//1 295//1 296//1
f 59//56 295//56 97//56
f 58//57 57//57 298//57
f 296//1 294//1 559//1
f 299//1 296//1 686//1
f 294//1 295//1 297//1
f 295//58 58//58 298//58
f 298//59 57//59 107//59
f 295//1 298//1 297//1
f 303//1 306//1 307//1
f 86//1 296//1 299//1
f 312//1 306//1 303//1
f 309//1 325//1 327//1
f 75//1 318//1 307//1
f 330//1 300//1 329//1
f 302//1 85//1 688//1
f 294//1 297//1 302//1
f 679//1 308//1 311//1
f 306//1 312//1 300//1
f 305//1 88//1 99//1
f 31//60 60//60 556//60
f 32//61 31//61 305//61
f 556//62 305//62 31//62
f 310//1 306//1 300//1
f 307//1 306//1 301//1
f 301//1 299//1 307//1
f 75//1 307//1 299//1
f 703//1 708//1 713//1
f 729//1 339//1 717//1
f 303//1 313//1 312//1
f 313//1 314//1 317//1
f 330//1 310//1 300//1
f 556//1 310//1 304//1
f 318//1 685//1 311//1
f 312//1 313//1 309//1
f 303//1 318//1 313//1
f 329//1 309//1 327//1
f 308//1 314//1 311//1
f 314//1 313//1 311//1
f 314//1 308//1 316//1
f 314//1 316//1 317//1
f 335//1 336//1 316//1
f 567//1 569//1 357//1
f 335//1 316//1 308//1
f 320//1 317//1 316//1
f 320//1 316//1 315//1
f 309//1 317//1 322//1
f 685//1 318//1 75//1
f 313//1 318//1 311//1
f 331//1 335//1 682//1
f 1003//1 1004//1 1005//1
f 323//1 320//1 315//1
f 320//1 323//1 322//1
f 321//1 323//1 714//1
f 346//1 348//1 352//1
f 322//1 69//1 325//1
f 317//1 320//1 322//1
f 714//1 323//1 315//1
f 323//1 321//1 324//1
f 321//1 568//1 324//1
f 69//1 322//1 324//1
f 328//1 325//1 69//1
f 328//1 327//1 325//1
f 69//1 324//1 350//1
f 589//1 718//1 562//1
f 344//1 77//1 345//1
f 312//1 329//1 300//1
f 350//1 356//1 69//1
f 328//1 326//1 345//1
f 309//1 329//1 312//1
f 329//1 332//1 330//1
f 333//1 330//1 77//1
f 310//1 330//1 304//1
f 684//1 683//1 681//1
f 336//1 315//1 316//1
f 327//1 328//1 345//1
f 77//1 330//1 332//1
f 334//1 333//1 77//1
f 304//1 333//1 88//1
f 342//1 343//1 340//1
f 342//1 338//1 334//1
f 682//1 681//1 1042//1
f 335//1 331//1 336//1
f 341//1 1043//1 339//1
f 336//1 331//1 341//1
f 344//1 343//1 77//1
f 347//1 346//1 337//1
f 191//1 338//1 187//1
f 88//1 338//1 189//1
f 717//1 339//1 1043//1
f 722//1 721//1 1//1
f 343//1 334//1 77//1
f 337//1 628//1 340//1
f 331//1 1042//1 1043//1
f 341//1 339//1 739//1
f 343//1 342//1 334//1
f 718//1 342//1 340//1
f 332//1 345//1 77//1
f 340//1 343//1 347//1
f 348//1 344//1 326//1
f 340//1 347//1 337//1
f 327//1 345//1 332//1
f 326//1 344//1 345//1
f 326//1 328//1 351//1
f 346//1 564//1 565//1
f 343//1 344//1 347//1
f 347//1 344//1 348//1
f 351//1 348//1 326//1
f 347//1 348//1 346//1
f 356//1 349//1 351//1
f 354//1 361//1 353//1
f 359//1 567//1 357//1
f 358//1 354//1 355//1
f 356//1 328//1 69//1
f 351//1 349//1 352//1
f 354//1 358//1 361//1
f 352//1 349//1 355//1
f 645//1 618//1 638//1
f 611//1 616//1 610//1
f 359//1 358//1 349//1
f 614//1 609//1 601//1
f 350//1 359//1 349//1
f 633//1 564//1 354//1
f 349//1 356//1 350//1
f 328//1 356//1 351//1
f 568//1 566//1 567//1
f 574//1 573//1 360//1
f 349//1 358//1 355//1
f 361//1 358//1 574//1
f 567//1 359//1 350//1
f 357//1 358//1 359//1
f 572//1 357//1 569//1
f 576//1 642//1 644//1
f 574//1 358//1 357//1
f 361//1 360//1 644//1
f 437//1 432//1 440//1
f 482//1 486//1 478//1
f 745//1 746//1 741//1
f 748//1 908//1 907//1
f 371//1 375//1 376//1
f 372//1 370//1 371//1
f 367//1 372//1 366//1
f 369//1 372//1 367//1
f 373//1 375//1 371//1
f 366//1 376//1 379//1
f 372//1 369//1 368//1
f 384//1 387//1 656//1
f 369//1 193//1 368//1
f 370//1 368//1 196//1
f 369//1 367//1 386//1
f 193//1 369//1 210//1
f 196//1 365//1 370//1
f 370//1 365//1 371//1
f 365//1 373//1 371//1
f 752//1 625//1 592//1
f 370//1 372//1 368//1
f 371//1 366//1 372//1
f 365//1 364//1 373//1
f 751//1 592//1 375//1
f 604//1 595//1 605//1
f 401//1 396//1 383//1
f 751//1 373//1 364//1
f 371//1 376//1 366//1
f 380//1 376//1 382//1
f 385//1 378//1 380//1
f 655//1 767//1 400//1
f 384//1 68//1 386//1
f 379//1 376//1 380//1
f 403//1 404//1 658//1
f 375//1 382//1 376//1
f 658//1 657//1 378//1
f 395//1 385//1 380//1
f 378//1 379//1 380//1
f 656//1 404//1 381//1
f 7//1 773//1 769//1
f 592//1 382//1 375//1
f 395//1 382//1 374//1
f 598//1 600//1 602//1
f 403//1 396//1 377//1
f 387//1 367//1 366//1
f 390//1 388//1 389//1
f 396//1 385//1 383//1
f 403//1 385//1 396//1
f 386//1 68//1 210//1
f 387//1 386//1 367//1
f 657//1 366//1 379//1
f 658//1 656//1 657//1
f 777//1 923//1 920//1
f 922//1 926//1 921//1
f 390//1 68//1 384//1
f 389//1 388//1 391//1
f 384//1 381//1 390//1
f 779//1 381//1 778//1
f 393//1 917//1 388//1
f 755//1 212//1 917//1
f 753//1 925//1 916//1
f 10//1 796//1 984//1
f 916//1 780//1 753//1
f 754//1 393//1 916//1
f 214//1 394//1 212//1
f 215//1 389//1 394//1
f 395//1 374//1 597//1
f 383//1 385//1 395//1
f 399//1 401//1 596//1
f 767//1 768//1 770//1
f 6//1 653//1 648//1
f 596//1 598//1 399//1
f 402//1 377//1 396//1
f 399//1 648//1 653//1
f 653//1 654//1 399//1
f 398//1 767//1 655//1
f 383//1 599//1 596//1
f 402//1 396//1 654//1
f 654//1 396//1 401//1
f 400//1 767//1 650//1
f 403//1 377//1 404//1
f 378//1 385//1 403//1
f 377//1 402//1 650//1
f 652//1 778//1 781//1
f 808//1 791//1 786//1
f 783//1 220//1 784//1
f 64//1 406//1 224//1
f 227//1 406//1 226//1
f 408//1 407//1 242//1
f 407//1 253//1 991//1
f 408//1 242//1 248//1
f 253//1 408//1 254//1
f 410//1 266//1 279//1
f 410//1 411//1 416//1
f 410//1 278//1 411//1
f 410//1 409//1 415//1
f 412//1 278//1 292//1
f 422//1 417//1 421//1
f 1017//1 1025//1 1027//1
f 278//1 412//1 411//1
f 436//1 413//1 61//1
f 414//1 257//1 258//1
f 250//1 413//1 414//1
f 257//1 414//1 413//1
f 270//1 415//1 250//1
f 410//1 415//1 266//1
f 410//1 416//1 409//1
f 420//1 416//1 411//1
f 446//1 447//1 465//1
f 469//1 425//1 445//1
f 419//1 287//1 1031//1
f 61//1 416//1 420//1
f 287//1 419//1 412//1
f 419//1 418//1 420//1
f 421//1 418//1 422//1
f 418//1 421//1 420//1
f 429//1 421//1 417//1
f 431//1 436//1 428//1
f 287//1 1027//1 1028//1
f 417//1 422//1 424//1
f 1029//1 1023//1 1028//1
f 1032//1 1037//1 17//1
f 418//1 1031//1 1024//1
f 1035//1 1036//1 1032//1
f 427//1 447//1 445//1
f 478//1 464//1 476//1
f 421//1 429//1 430//1
f 444//1 432//1 450//1
f 424//1 1033//1 460//1
f 449//1 443//1 445//1
f 463//1 420//1 421//1
f 431//1 428//1 426//1
f 448//1 447//1 427//1
f 430//1 429//1 427//1
f 443//1 430//1 427//1
f 430//1 426//1 428//1
f 431//1 426//1 437//1
f 436//1 431//1 257//1
f 437//1 426//1 442//1
f 444//1 661//1 441//1
f 433//1 440//1 441//1
f 78//1 251//1 435//1
f 257//1 434//1 258//1
f 434//1 433//1 435//1
f 433//1 660//1 435//1
f 79//1 455//1 457//1
f 413//1 436//1 257//1
f 428//1 436//1 61//1
f 426//1 443//1 442//1
f 437//1 440//1 438//1
f 437//1 438//1 431//1
f 434//1 438//1 433//1
f 506//1 498//1 496//1
f 442//1 454//1 437//1
f 441//1 440//1 432//1
f 433//1 438//1 440//1
f 444//1 441//1 432//1
f 441//1 79//1 660//1
f 443//1 426//1 430//1
f 439//1 450//1 454//1
f 445//1 443//1 427//1
f 442//1 443//1 439//1
f 432//1 454//1 450//1
f 444//1 362//1 451//1
f 429//1 417//1 448//1
f 449//1 445//1 425//1
f 662//1 474//1 475//1
f 447//1 469//1 445//1
f 448//1 427//1 429//1
f 447//1 446//1 468//1
f 460//1 417//1 424//1
f 447//1 448//1 465//1
f 496//1 449//1 425//1
f 439//1 443//1 449//1
f 500//1 503//1 515//1
f 362//1 444//1 450//1
f 521//1 362//1 514//1
f 119//1 117//1 452//1
f 455//1 452//1 90//1
f 452//1 451//1 522//1
f 437//1 454//1 432//1
f 417//1 460//1 448//1
f 439//1 454//1 442//1
f 458//1 461//1 100//1
f 451//1 455//1 79//1
f 460//1 1033//1 456//1
f 467//1 466//1 456//1
f 455//1 90//1 461//1
f 459//63 458//63 48//63
f 459//64 48//64 47//64
f 458//1 457//1 461//1
f 78//1 459//1 89//1
f 458//1 459//1 457//1
f 1033//1 424//1 423//1
f 460//1 456//1 466//1
f 455//1 461//1 457//1
f 100//1 461//1 90//1
f 457//1 459//1 462//1
f 78//1 462//1 459//1
f 420//1 463//1 428//1
f 421//1 430//1 463//1
f 662//1 475//1 476//1
f 479//1 476//1 475//1
f 448//1 466//1 465//1
f 465//1 466//1 471//1
f 460//1 466//1 448//1
f 1036//1 467//1 456//1
f 18//1 472//1 470//1
f 467//1 472//1 471//1
f 446//1 662//1 476//1
f 464//1 663//1 469//1
f 447//1 468//1 469//1
f 464//1 469//1 468//1
f 466//1 467//1 471//1
f 467//1 453//1 470//1
f 467//1 470//1 472//1
f 478//1 476//1 479//1
f 471//1 472//1 662//1
f 1038//1 19//1 664//1
f 473//1 475//1 474//1
f 472//1 18//1 474//1
f 468//1 476//1 464//1
f 446//1 476//1 468//1
f 1038//1 479//1 473//1
f 490//1 492//1 489//1
f 477//1 482//1 478//1
f 481//1 487//1 489//1
f 499//1 450//1 439//1
f 473//1 479//1 475//1
f 477//1 478//1 479//1
f 517//1 669//1 508//1
f 516//1 514//1 515//1
f 477//1 664//1 485//1
f 425//1 469//1 663//1
f 665//1 485//1 664//1
f 481//1 484//1 486//1
f 492//1 481//1 489//1
f 485//1 487//1 477//1
f 502//1 495//1 498//1
f 668//1 666//1 667//1
f 481//1 482//1 487//1
f 481//1 486//1 482//1
f 486//1 484//1 663//1
f 477//1 487//1 482//1
f 666//1 489//1 485//1
f 483//1 666//1 485//1
f 670//1 491//1 517//1
f 485//1 489//1 487//1
f 490//1 489//1 488//1
f 1041//1 504//1 670//1
f 490//1 480//1 492//1
f 550//1 817//1 818//1
f 510//1 505//1 509//1
f 495//1 492//1 480//1
f 481//1 492//1 502//1
f 669//1 490//1 488//1
f 524//1 525//1 519//1
f 495//1 501//1 494//1
f 499//1 500//1 450//1
f 505//1 512//1 509//1
f 498//1 495//1 494//1
f 496//1 499//1 449//1
f 498//1 506//1 484//1
f 511//1 512//1 505//1
f 132//1 526//1 143//1
f 498//1 494//1 503//1
f 484//1 481//1 502//1
f 449//1 499//1 439//1
f 500//1 499//1 496//1
f 503//1 500//1 496//1
f 450//1 500//1 362//1
f 512//1 495//1 480//1
f 507//1 501//1 497//1
f 495//1 502//1 492//1
f 484//1 502//1 498//1
f 498//1 503//1 496//1
f 516//1 494//1 501//1
f 493//1 517//1 510//1
f 491//1 510//1 517//1
f 501//1 511//1 497//1
f 496//1 425//1 506//1
f 663//1 506//1 425//1
f 513//1 507//1 497//1
f 507//1 118//1 514//1
f 668//1 488//1 666//1
f 1040//1 1041//1 508//1
f 490//1 509//1 480//1
f 510//1 509//1 493//1
f 523//1 672//1 814//1
f 143//1 526//1 62//1
f 501//1 495//1 512//1
f 525//1 511//1 505//1
f 509//1 512//1 480//1
f 501//1 512//1 511//1
f 513//1 497//1 524//1
f 520//1 513//1 132//1
f 118//1 131//1 521//1
f 500//1 515//1 362//1
f 494//1 515//1 503//1
f 362//1 515//1 514//1
f 514//1 516//1 507//1
f 515//1 494//1 516//1
f 669//1 517//1 493//1
f 670//1 517//1 508//1
f 539//1 553//1 548//1
f 531//1 540//1 541//1
f 497//1 525//1 524//1
f 510//1 527//1 525//1
f 134//1 520//1 132//1
f 507//1 520//1 118//1
f 119//1 522//1 521//1
f 521//1 522//1 362//1
f 452//1 522//1 119//1
f 362//1 522//1 451//1
f 491//1 670//1 673//1
f 523//1 529//1 527//1
f 497//1 511//1 525//1
f 519//1 542//1 526//1
f 505//1 510//1 525//1
f 510//1 528//1 527//1
f 513//1 524//1 526//1
f 519//1 526//1 524//1
f 529//1 523//1 518//1
f 519//1 525//1 527//1
f 528//1 491//1 673//1
f 527//1 528//1 523//1
f 529//1 518//1 531//1
f 529//1 541//1 552//1
f 549//1 539//1 548//1
f 165//1 149//1 533//1
f 549//1 551//1 822//1
f 531//1 548//1 540//1
f 159//1 537//1 536//1
f 165//1 533//1 162//1
f 530//1 554//1 543//1
f 553//1 530//1 548//1
f 824//1 534//1 821//1
f 543//1 545//1 532//1
f 543//1 538//1 535//1
f 542//1 519//1 552//1
f 537//1 159//1 129//1
f 533//1 536//1 532//1
f 135//1 546//1 129//1
f 62//1 547//1 546//1
f 532//1 537//1 538//1
f 538//1 537//1 546//1
f 549//1 531//1 518//1
f 831//1 830//1 829//1
f 540//1 530//1 543//1
f 541//1 540//1 535//1
f 542//1 541//1 535//1
f 527//1 552//1 519//1
f 547//1 542//1 535//1
f 526//1 542//1 62//1
f 545//1 543//1 554//1
f 532//1 538//1 543//1
f 834//1 830//1 824//1
f 836//1 826//1 828//1
f 820//1 545//1 544//1
f 533//1 532//1 545//1
f 129//1 546//1 537//1
f 62//1 546//1 135//1
f 535//1 538//1 547//1
f 546//1 547//1 538//1
f 540//1 548//1 530//1
f 549//1 548//1 531//1
f 551//1 549//1 518//1
f 534//1 539//1 549//1
f 523//1 814//1 518//1
f 550//1 22//1 821//1
f 928//1 518//1 814//1
f 822//1 550//1 821//1
f 529//1 552//1 527//1
f 542//1 552//1 541//1
f 534//1 830//1 831//1
f 554//1 544//1 545//1
f 530//1 553//1 554//1
f 544//1 554//1 553//1
f 310//1 556//1 301//1
f 555//1 892//1 845//1
f 556//1 304//1 305//1
f 296//1 559//1 686//1
f 557//1 685//1 686//1
f 691//1 559//1 294//1
f 695//1 687//1 689//1
f 691//1 294//1 690//1
f 686//1 559//1 558//1
f 336//1 738//1 315//1
f 571//1 720//1 579//1
f 1000//1 1012//1 982//1
f 735//1 731//1 734//1
f 627//1 626//1 67//1
f 752//1 589//1 591//1
f 633//1 353//1 632//1
f 629//1 565//1 563//1
f 565//1 564//1 563//1
f 352//1 564//1 346//1
f 629//1 626//1 627//1
f 337//1 346//1 565//1
f 566//1 568//1 715//1
f 722//1 570//1 723//1
f 568//1 567//1 350//1
f 567//1 566//1 569//1
f 324//1 568//1 350//1
f 321//1 714//1 715//1
f 579//1 720//1 2//1
f 581//1 572//1 569//1
f 3//1 646//1 582//1
f 580//1 581//1 585//1
f 573//1 574//1 572//1
f 581//1 580//1 571//1
f 572//1 571//1 573//1
f 577//1 578//1 575//1
f 583//1 576//1 360//1
f 361//1 574//1 360//1
f 572//1 574//1 357//1
f 4//1 613//1 639//1
f 571//1 577//1 573//1
f 573//1 583//1 360//1
f 577//1 579//1 578//1
f 575//1 582//1 583//1
f 571//1 580//1 720//1
f 579//1 577//1 571//1
f 2//1 578//1 579//1
f 581//1 571//1 572//1
f 581//1 716//1 585//1
f 569//1 566//1 581//1
f 566//1 715//1 716//1
f 573//1 577//1 583//1
f 582//1 576//1 583//1
f 583//1 577//1 575//1
f 584//1 724//1 721//1
f 585//1 723//1 580//1
f 716//1 581//1 566//1
f 585//1 584//1 723//1
f 586//1 744//1 749//1
f 179//1 587//1 178//1
f 587//1 179//1 175//1
f 750//1 586//1 749//1
f 201//1 718//1 589//1
f 590//1 364//1 365//1
f 591//1 589//1 562//1
f 364//1 588//1 589//1
f 204//1 590//1 365//1
f 76//1 588//1 590//1
f 591//1 562//1 627//1
f 591//1 67//1 752//1
f 606//1 619//1 609//1
f 382//1 592//1 374//1
f 779//1 388//1 390//1
f 377//1 651//1 404//1
f 760//1 392//1 918//1
f 761//1 659//1 757//1
f 599//1 395//1 597//1
f 596//1 599//1 595//1
f 383//1 596//1 401//1
f 598//1 596//1 595//1
f 608//1 592//1 624//1
f 619//1 634//1 615//1
f 600//1 598//1 595//1
f 399//1 598//1 397//1
f 395//1 599//1 383//1
f 595//1 599//1 597//1
f 600//1 595//1 604//1
f 598//1 602//1 397//1
f 597//1 607//1 605//1
f 4//1 612//1 613//1
f 605//1 595//1 597//1
f 600//1 5//1 602//1
f 603//1 610//1 617//1
f 604//1 614//1 610//1
f 608//1 607//1 597//1
f 605//1 609//1 614//1
f 751//1 752//1 592//1
f 607//1 609//1 605//1
f 608//1 597//1 374//1
f 607//1 606//1 609//1
f 592//1 608//1 374//1
f 606//1 607//1 608//1
f 619//1 620//1 634//1
f 622//1 601//1 609//1
f 613//1 612//1 617//1
f 616//1 5//1 600//1
f 609//1 619//1 622//1
f 610//1 603//1 611//1
f 601//1 630//1 617//1
f 645//1 642//1 576//1
f 610//1 614//1 601//1
f 605//1 614//1 604//1
f 631//1 632//1 636//1
f 630//1 613//1 617//1
f 610//1 616//1 604//1
f 5//1 616//1 611//1
f 603//1 617//1 612//1
f 601//1 617//1 610//1
f 620//1 619//1 606//1
f 613//1 630//1 643//1
f 622//1 619//1 640//1
f 624//1 620//1 606//1
f 620//1 67//1 626//1
f 615//1 631//1 636//1
f 643//1 635//1 641//1
f 640//1 619//1 615//1
f 622//1 621//1 630//1
f 608//1 624//1 606//1
f 638//1 637//1 645//1
f 625//1 624//1 592//1
f 67//1 620//1 625//1
f 624//1 625//1 620//1
f 591//1 627//1 67//1
f 631//1 626//1 563//1
f 562//1 628//1 627//1
f 337//1 629//1 628//1
f 340//1 628//1 562//1
f 629//1 337//1 565//1
f 626//1 629//1 563//1
f 628//1 629//1 627//1
f 622//1 630//1 601//1
f 643//1 630//1 621//1
f 632//1 631//1 563//1
f 634//1 631//1 615//1
f 563//1 564//1 633//1
f 632//1 353//1 635//1
f 353//1 633//1 354//1
f 563//1 633//1 632//1
f 620//1 626//1 634//1
f 631//1 634//1 626//1
f 641//1 635//1 353//1
f 640//1 635//1 643//1
f 632//1 635//1 636//1
f 636//1 635//1 640//1
f 641//1 642//1 637//1
f 623//1 638//1 618//1
f 623//1 639//1 638//1
f 638//1 639//1 643//1
f 4//1 639//1 623//1
f 639//1 613//1 643//1
f 622//1 640//1 621//1
f 636//1 640//1 615//1
f 642//1 641//1 353//1
f 643//1 641//1 637//1
f 644//1 642//1 353//1
f 576//1 646//1 645//1
f 637//1 638//1 643//1
f 643//1 621//1 640//1
f 361//1 644//1 353//1
f 576//1 644//1 360//1
f 618//1 645//1 647//1
f 637//1 642//1 645//1
f 582//1 646//1 576//1
f 647//1 646//1 3//1
f 772//1 652//1 769//1
f 646//1 647//1 645//1
f 399//1 397//1 648//1
f 651//1 377//1 650//1
f 400//1 650//1 402//1
f 650//1 649//1 651//1
f 652//1 651//1 649//1
f 404//1 651//1 781//1
f 769//1 652//1 649//1
f 652//1 775//1 778//1
f 655//1 653//1 6//1
f 654//1 400//1 402//1
f 399//1 654//1 401//1
f 400//1 654//1 653//1
f 384//1 656//1 381//1
f 653//1 655//1 400//1
f 656//1 387//1 657//1
f 366//1 657//1 387//1
f 378//1 657//1 379//1
f 403//1 658//1 378//1
f 404//1 656//1 658//1
f 756//1 757//1 762//1
f 220//1 783//1 64//1
f 441//1 660//1 433//1
f 457//1 660//1 79//1
f 441//1 661//1 79//1
f 444//1 451//1 661//1
f 471//1 662//1 446//1
f 474//1 662//1 472//1
f 486//1 663//1 464//1
f 506//1 663//1 484//1
f 1038//1 664//1 477//1
f 485//1 665//1 483//1
f 668//1 667//1 20//1
f 664//1 19//1 665//1
f 489//1 666//1 488//1
f 1040//1 20//1 1039//1
f 666//1 483//1 667//1
f 669//1 668//1 508//1
f 490//1 669//1 493//1
f 668//1 669//1 488//1
f 21//1 672//1 671//1
f 672//1 523//1 528//1
f 672//1 673//1 671//1
f 670//1 504//1 671//1
f 675//1 816//1 815//1
f 671//1 673//1 670//1
f 528//1 673//1 672//1
f 544//1 829//1 827//1
f 180//1 939//1 150//1
f 677//1 844//1 845//1
f 817//1 550//1 928//1
f 821//1 534//1 822//1
f 890//1 891//1 15//1
f 844//1 678//1 293//1
f 286//1 678//1 677//1
f 685//1 679//1 311//1
f 680//1 679//1 557//1
f 697//1 680//1 557//1
f 66//1 683//1 680//1
f 692//1 693//1 700//1
f 1043//1 1042//1 319//1
f 335//1 308//1 682//1
f 308//1 679//1 684//1
f 705//1 66//1 709//1
f 684//1 681//1 682//1
f 683//1 684//1 680//1
f 308//1 684//1 682//1
f 686//1 685//1 75//1
f 679//1 685//1 557//1
f 686//1 75//1 299//1
f 557//1 686//1 558//1
f 302//1 688//1 690//1
f 166//1 177//1 689//1
f 166//1 688//1 167//1
f 688//1 687//1 690//1
f 694//1 689//1 157//1
f 689//1 687//1 688//1
f 691//1 690//1 687//1
f 302//1 690//1 294//1
f 695//1 691//1 687//1
f 559//1 691//1 558//1
f 157//1 179//1 693//1
f 695//1 692//1 696//1
f 179//1 178//1 693//1
f 702//1 699//1 701//1
f 693//1 694//1 157//1
f 694//1 692//1 695//1
f 709//1 696//1 692//1
f 695//1 698//1 691//1
f 697//1 66//1 680//1
f 557//1 698//1 697//1
f 698//1 557//1 558//1
f 66//1 697//1 696//1
f 695//1 696//1 698//1
f 697//1 698//1 696//1
f 910//1 893//1 711//1
f 700//1 699//1 706//1
f 706//1 705//1 700//1
f 696//1 709//1 66//1
f 702//1 701//1 178//1
f 700//1 701//1 699//1
f 750//1 702//1 178//1
f 702//1 176//1 710//1
f 708//1 703//1 706//1
f 704//1 914//1 681//1
f 66//1 704//1 683//1
f 703//1 983//1 914//1
f 703//1 704//1 705//1
f 66//1 705//1 704//1
f 708//1 706//1 699//1
f 703//1 705//1 706//1
f 710//1 893//1 708//1
f 911//1 981//1 999//1
f 710//1 708//1 699//1
f 708//1 707//1 713//1
f 692//1 700//1 709//1
f 705//1 709//1 700//1
f 702//1 710//1 699//1
f 710//1 176//1 711//1
f 176//1 895//1 897//1
f 711//1 899//1 904//1
f 906//1 981//1 912//1
f 983//1 1007//1 913//1
f 713//1 707//1 912//1
f 703//1 713//1 712//1
f 739//1 339//1 729//1
f 716//1 715//1 714//1
f 321//1 715//1 568//1
f 714//1 737//1 716//1
f 724//1 716//1 560//1
f 585//1 716//1 584//1
f 319//1 1008//1 1002//1
f 561//1 731//1 729//1
f 208//1 718//1 201//1
f 340//1 562//1 718//1
f 580//1 719//1 720//1
f 580//1 570//1 719//1
f 2//1 720//1 719//1
f 725//1 726//1 728//1
f 726//1 1//1 721//1
f 723//1 570//1 580//1
f 722//1 723//1 721//1
f 721//1 723//1 584//1
f 716//1 724//1 584//1
f 730//1 724//1 560//1
f 736//1 729//1 727//1
f 736//1 730//1 560//1
f 735//1 727//1 731//1
f 727//1 729//1 731//1
f 726//1 721//1 728//1
f 721//1 724//1 730//1
f 561//1 729//1 717//1
f 730//1 736//1 727//1
f 727//1 728//1 730//1
f 721//1 730//1 728//1
f 731//1 1005//1 734//1
f 725//1 728//1 735//1
f 1005//1 731//1 561//1
f 561//1 717//1 1002//1
f 735//1 733//1 725//1
f 30//1 733//1 734//1
f 727//1 735//1 728//1
f 733//1 735//1 734//1
f 560//1 737//1 736//1
f 738//1 714//1 315//1
f 716//1 737//1 560//1
f 738//1 737//1 714//1
f 738//1 336//1 341//1
f 738//1 736//1 737//1
f 736//1 739//1 729//1
f 341//1 739//1 738//1
f 741//1 740//1 173//1
f 587//1 740//1 586//1
f 741//1 742//1 745//1
f 363//1 744//1 741//1
f 180//1 742//1 173//1
f 745//1 742//1 150//1
f 941//1 743//1 745//1
f 746//1 363//1 741//1
f 749//1 744//1 363//1
f 586//1 741//1 744//1
f 939//1 951//1 150//1
f 745//1 743//1 746//1
f 748//1 743//1 946//1
f 899//1 901//1 27//1
f 747//1 908//1 26//1
f 743//1 748//1 746//1
f 901//1 902//1 27//1
f 896//1 895//1 749//1
f 176//1 702//1 750//1
f 587//1 750//1 178//1
f 176//1 750//1 749//1
f 373//1 751//1 375//1
f 589//1 752//1 364//1
f 625//1 752//1 67//1
f 364//1 752//1 751//1
f 780//1 393//1 388//1
f 593//1 774//1 777//1
f 760//1 759//1 763//1
f 755//1 754//1 594//1
f 756//1 755//1 594//1
f 212//1 391//1 917//1
f 757//1 756//1 594//1
f 756//1 207//1 758//1
f 757//1 594//1 763//1
f 762//1 757//1 659//1
f 219//1 758//1 207//1
f 216//1 758//1 213//1
f 594//1 754//1 760//1
f 984//1 927//1 10//1
f 754//1 392//1 760//1
f 918//1 765//1 766//1
f 763//1 761//1 757//1
f 805//1 761//1 759//1
f 659//1 783//1 784//1
f 756//1 762//1 207//1
f 760//1 763//1 594//1
f 761//1 763//1 759//1
f 764//1 800//1 801//1
f 760//1 766//1 759//1
f 800//1 797//1 799//1
f 918//1 766//1 760//1
f 765//1 800//1 799//1
f 7//1 769//1 770//1
f 650//1 767//1 649//1
f 770//1 769//1 649//1
f 767//1 398//1 768//1
f 774//1 593//1 775//1
f 767//1 770//1 649//1
f 7//1 770//1 768//1
f 774//1 772//1 771//1
f 773//1 771//1 772//1
f 778//1 775//1 593//1
f 776//1 8//1 774//1
f 769//1 773//1 772//1
f 593//1 777//1 753//1
f 652//1 772//1 775//1
f 774//1 775//1 772//1
f 8//1 923//1 774//1
f 774//1 771//1 776//1
f 920//1 923//1 924//1
f 780//1 782//1 753//1
f 781//1 778//1 381//1
f 381//1 779//1 390//1
f 782//1 778//1 593//1
f 388//1 779//1 780//1
f 779//1 778//1 782//1
f 404//1 781//1 381//1
f 652//1 781//1 651//1
f 753//1 782//1 593//1
f 779//1 782//1 780//1
f 785//1 659//1 761//1
f 783//1 659//1 785//1
f 207//1 784//1 220//1
f 659//1 784//1 762//1
f 787//1 790//1 791//1
f 405//1 787//1 785//1
f 971//1 975//1 969//1
f 813//1 64//1 811//1
f 790//1 787//1 405//1
f 791//1 808//1 787//1
f 797//1 805//1 799//1
f 786//1 791//1 793//1
f 973//1 970//1 969//1
f 867//1 869//1 863//1
f 797//1 984//1 798//1
f 790//1 788//1 791//1
f 794//1 795//1 792//1
f 794//1 793//1 791//1
f 804//1 11//1 793//1
f 788//1 794//1 791//1
f 886//1 879//1 880//1
f 794//1 796//1 795//1
f 793//1 794//1 792//1
f 798//1 984//1 788//1
f 796//1 794//1 788//1
f 10//1 795//1 796//1
f 788//1 790//1 798//1
f 799//1 759//1 766//1
f 790//1 405//1 798//1
f 805//1 798//1 405//1
f 765//1 799//1 766//1
f 805//1 797//1 798//1
f 765//1 921//1 801//1
f 800//1 764//1 927//1
f 802//1 806//1 785//1
f 765//1 801//1 800//1
f 812//1 811//1 802//1
f 878//1 967//1 876//1
f 803//1 882//1 809//1
f 761//1 805//1 405//1
f 793//1 792//1 804//1
f 799//1 805//1 759//1
f 785//1 806//1 783//1
f 811//1 806//1 802//1
f 852//1 63//1 855//1
f 228//1 226//1 997//1
f 883//1 808//1 786//1
f 810//1 808//1 803//1
f 812//1 809//1 789//1
f 810//1 802//1 785//1
f 803//1 809//1 810//1
f 802//1 810//1 809//1
f 802//1 809//1 812//1
f 813//1 811//1 807//1
f 888//1 884//1 889//1
f 807//1 811//1 812//1
f 995//1 997//1 807//1
f 64//1 813//1 226//1
f 816//1 672//1 815//1
f 817//1 928//1 816//1
f 817//1 816//1 675//1
f 672//1 21//1 815//1
f 672//1 816//1 814//1
f 550//1 818//1 22//1
f 550//1 551//1 928//1
f 820//1 819//1 533//1
f 817//1 675//1 818//1
f 674//1 933//1 934//1
f 545//1 820//1 533//1
f 829//1 544//1 553//1
f 676//1 824//1 823//1
f 821//1 823//1 824//1
f 549//1 822//1 534//1
f 551//1 550//1 822//1
f 23//1 828//1 825//1
f 821//1 22//1 823//1
f 820//1 544//1 827//1
f 830//1 834//1 828//1
f 676//1 825//1 834//1
f 929//1 836//1 828//1
f 835//1 839//1 836//1
f 832//1 827//1 838//1
f 832//1 838//1 674//1
f 826//1 830//1 828//1
f 553//1 539//1 831//1
f 826//1 827//1 829//1
f 830//1 534//1 824//1
f 826//1 829//1 830//1
f 553//1 831//1 829//1
f 534//1 831//1 539//1
f 819//1 832//1 674//1
f 820//1 827//1 832//1
f 676//1 834//1 824//1
f 929//1 833//1 835//1
f 825//1 828//1 834//1
f 930//1 24//1 1010//1
f 839//1 827//1 826//1
f 929//1 828//1 23//1
f 839//1 835//1 837//1
f 841//1 833//1 840//1
f 841//1 837//1 835//1
f 839//1 838//1 827//1
f 843//1 838//1 837//1
f 836//1 839//1 826//1
f 838//1 839//1 837//1
f 915//1 948//1 947//1
f 842//1 843//1 841//1
f 833//1 841//1 835//1
f 842//1 841//1 840//1
f 931//1 989//1 24//1
f 65//1 938//1 936//1
f 841//1 843//1 837//1
f 958//1 953//1 952//1
f 288//1 844//1 293//1
f 845//1 844//1 285//1
f 846//1 845//1 285//1
f 847//1 555//1 845//1
f 858//1 288//1 268//1
f 14//1 846//1 860//1
f 859//1 268//1 275//1
f 846//1 847//1 845//1
f 874//1 854//1 877//1
f 858//1 285//1 288//1
f 857//1 856//1 860//1
f 856//1 857//1 849//1
f 852//1 275//1 284//1
f 789//1 885//1 812//1
f 854//1 855//1 960//1
f 852//1 851//1 859//1
f 878//1 964//1 868//1
f 874//1 852//1 855//1
f 960//1 63//1 991//1
f 864//1 848//1 866//1
f 960//1 855//1 63//1
f 855//1 854//1 874//1
f 850//1 848//1 861//1
f 857//1 846//1 850//1
f 861//1 848//1 864//1
f 858//1 268//1 859//1
f 848//1 850//1 858//1
f 852//1 859//1 275//1
f 858//1 859//1 851//1
f 14//1 860//1 856//1
f 846//1 857//1 860//1
f 864//1 863//1 861//1
f 857//1 850//1 861//1
f 866//1 874//1 865//1
f 870//1 878//1 868//1
f 867//1 863//1 862//1
f 849//1 857//1 863//1
f 866//1 865//1 872//1
f 862//1 863//1 864//1
f 880//1 888//1 889//1
f 866//1 872//1 864//1
f 848//1 873//1 866//1
f 854//1 853//1 877//1
f 870//1 875//1 878//1
f 863//1 869//1 849//1
f 967//1 862//1 872//1
f 871//1 878//1 875//1
f 867//1 13//1 869//1
f 875//1 862//1 871//1
f 979//1 978//1 884//1
f 872//1 865//1 966//1
f 864//1 872//1 862//1
f 858//1 873//1 848//1
f 874//1 873//1 851//1
f 873//1 874//1 866//1
f 874//1 851//1 852//1
f 13//1 875//1 870//1
f 862//1 875//1 867//1
f 966//1 967//1 872//1
f 809//1 882//1 789//1
f 979//1 853//1 978//1
f 865//1 874//1 877//1
f 967//1 878//1 871//1
f 964//1 878//1 876//1
f 882//1 883//1 880//1
f 793//1 887//1 786//1
f 803//1 808//1 883//1
f 888//1 880//1 879//1
f 11//1 881//1 887//1
f 974//1 12//1 973//1
f 883//1 882//1 803//1
f 889//1 882//1 880//1
f 887//1 883//1 786//1
f 886//1 883//1 881//1
f 967//1 970//1 876//1
f 885//1 807//1 812//1
f 978//1 885//1 889//1
f 992//1 994//1 853//1
f 883//1 886//1 880//1
f 975//1 886//1 881//1
f 11//1 887//1 793//1
f 883//1 887//1 881//1
f 968//1 965//1 979//1
f 978//1 889//1 884//1
f 885//1 789//1 889//1
f 889//1 789//1 882//1
f 286//1 677//1 890//1
f 892//1 890//1 677//1
f 845//1 892//1 677//1
f 892//1 891//1 890//1
f 891//1 892//1 555//1
f 708//1 893//1 707//1
f 710//1 711//1 893//1
f 749//1 895//1 176//1
f 895//1 896//1 894//1
f 896//1 749//1 363//1
f 897//1 895//1 894//1
f 907//1 363//1 746//1
f 748//1 26//1 908//1
f 894//1 901//1 899//1
f 176//1 897//1 711//1
f 903//1 898//1 899//1
f 899//1 711//1 897//1
f 899//1 898//1 904//1
f 894//1 896//1 900//1
f 900//1 896//1 907//1
f 894//1 900//1 901//1
f 902//1 900//1 747//1
f 28//1 906//1 905//1
f 900//1 902//1 901//1
f 899//1 27//1 903//1
f 905//1 906//1 904//1
f 909//1 999//1 981//1
f 904//1 898//1 905//1
f 912//1 910//1 906//1
f 363//1 907//1 896//1
f 746//1 748//1 907//1
f 747//1 900//1 908//1
f 907//1 908//1 900//1
f 893//1 910//1 707//1
f 707//1 910//1 912//1
f 904//1 910//1 711//1
f 1000//1 29//1 1012//1
f 713//1 911//1 712//1
f 981//1 906//1 28//1
f 713//1 912//1 911//1
f 913//1 1044//1 1042//1
f 703//1 712//1 983//1
f 703//1 914//1 704//1
f 1042//1 914//1 913//1
f 754//1 916//1 392//1
f 940//1 941//1 150//1
f 780//1 916//1 393//1
f 388//1 917//1 391//1
f 754//1 917//1 393//1
f 777//1 920//1 753//1
f 801//1 921//1 9//1
f 922//1 921//1 918//1
f 392//1 925//1 922//1
f 916//1 925//1 392//1
f 765//1 918//1 921//1
f 392//1 922//1 918//1
f 920//1 919//1 922//1
f 921//1 926//1 9//1
f 774//1 923//1 777//1
f 920//1 924//1 919//1
f 753//1 920//1 925//1
f 923//1 8//1 924//1
f 922//1 925//1 920//1
f 518//1 928//1 551//1
f 922//1 919//1 926//1
f 927//1 984//1 800//1
f 816//1 928//1 814//1
f 986//1 952//1 953//1
f 836//1 929//1 835//1
f 840//1 833//1 930//1
f 985//1 1011//1 1010//1
f 936//1 153//1 65//1
f 842//1 933//1 843//1
f 934//1 933//1 932//1
f 934//1 932//1 938//1
f 674//1 934//1 819//1
f 951//1 955//1 949//1
f 957//1 939//1 180//1
f 164//1 938//1 65//1
f 152//1 936//1 935//1
f 932//1 958//1 943//1
f 915//1 942//1 948//1
f 934//1 938//1 162//1
f 943//1 938//1 932//1
f 957//1 180//1 152//1
f 939//1 937//1 951//1
f 944//1 942//1 950//1
f 941//1 942//1 743//1
f 150//1 941//1 745//1
f 942//1 941//1 940//1
f 940//1 950//1 942//1
f 945//1 26//1 946//1
f 932//1 953//1 958//1
f 936//1 943//1 935//1
f 950//1 951//1 949//1
f 959//1 950//1 949//1
f 748//1 946//1 26//1
f 942//1 915//1 945//1
f 942//1 946//1 743//1
f 942//1 944//1 948//1
f 959//1 947//1 944//1
f 947//1 948//1 944//1
f 955//1 956//1 952//1
f 959//1 25//1 947//1
f 951//1 950//1 940//1
f 959//1 949//1 954//1
f 951//1 940//1 150//1
f 955//1 951//1 937//1
f 953//1 932//1 933//1
f 955//1 988//1 949//1
f 933//1 842//1 953//1
f 842//1 1011//1 986//1
f 988//1 986//1 987//1
f 25//1 959//1 990//1
f 956//1 955//1 937//1
f 988//1 955//1 952//1
f 957//1 956//1 937//1
f 935//1 943//1 958//1
f 939//1 957//1 937//1
f 935//1 957//1 152//1
f 952//1 956//1 958//1
f 958//1 956//1 935//1
f 950//1 959//1 944//1
f 990//1 959//1 954//1
f 259//1 963//1 253//1
f 273//1 962//1 259//1
f 961//1 962//1 274//1
f 997//1 995//1 996//1
f 274//1 962//1 273//1
f 961//1 993//1 963//1
f 963//1 960//1 991//1
f 259//1 962//1 963//1
f 979//1 980//1 853//1
f 973//1 964//1 876//1
f 884//1 888//1 968//1
f 966//1 865//1 980//1
f 967//1 966//1 965//1
f 967//1 965//1 970//1
f 967//1 871//1 862//1
f 879//1 971//1 888//1
f 971//1 969//1 970//1
f 881//1 998//1 975//1
f 964//1 973//1 12//1
f 965//1 968//1 970//1
f 970//1 968//1 971//1
f 888//1 971//1 968//1
f 975//1 971//1 879//1
f 970//1 973//1 876//1
f 972//1 975//1 998//1
f 975//1 972//1 977//1
f 975//1 879//1 886//1
f 977//1 973//1 969//1
f 977//1 972//1 974//1
f 973//1 977//1 974//1
f 11//1 976//1 998//1
f 969//1 975//1 977//1
f 884//1 968//1 979//1
f 994//1 978//1 853//1
f 966//1 979//1 965//1
f 877//1 980//1 865//1
f 853//1 980//1 877//1
f 966//1 980//1 979//1
f 1003//1 1013//1 732//1
f 912//1 981//1 911//1
f 712//1 911//1 1006//1
f 1007//1 712//1 1006//1
f 914//1 983//1 913//1
f 984//1 796//1 788//1
f 800//1 984//1 797//1
f 989//1 954//1 987//1
f 842//1 840//1 1011//1
f 842//1 986//1 953//1
f 987//1 986//1 985//1
f 989//1 987//1 985//1
f 988//1 954//1 949//1
f 986//1 988//1 952//1
f 988//1 987//1 954//1
f 24//1 989//1 985//1
f 954//1 989//1 931//1
f 407//1 991//1 63//1
f 954//1 931//1 990//1
f 963//1 991//1 253//1
f 960//1 993//1 992//1
f 994//1 885//1 978//1
f 963//1 993//1 960//1
f 994//1 993//1 961//1
f 993//1 994//1 992//1
f 961//1 225//1 996//1
f 885//1 994//1 995//1
f 996//1 995//1 994//1
f 961//1 996//1 994//1
f 996//1 225//1 997//1
f 228//1 997//1 225//1
f 807//1 997//1 813//1
f 11//1 998//1 881//1
f 972//1 998//1 976//1
f 1000//1 999//1 909//1
f 1006//1 999//1 982//1
f 1003//1 561//1 1002//1
f 999//1 1000//1 982//1
f 1008//1 913//1 1007//1
f 319//1 1002//1 717//1
f 1003//1 1002//1 1001//1
f 1013//1 1003//1 1001//1
f 734//1 1005//1 30//1
f 1003//1 1005//1 561//1
f 1003//1 732//1 1004//1
f 30//1 1005//1 1004//1
f 999//1 1006//1 911//1
f 1008//1 1009//1 1001//1
f 1009//1 1006//1 982//1
f 1008//1 319//1 1044//1
f 1009//1 1008//1 1007//1
f 1002//1 1008//1 1001//1
f 1006//1 1009//1 1007//1
f 1009//1 982//1 1012//1
f 930//1 1010//1 840//1
f 24//1 985//1 1010//1
f 1010//1 1011//1 840//1
f 986//1 1011//1 985//1
f 1013//1 1012//1 29//1
f 1009//1 1012//1 1001//1
f 286//1 890//1 1018//1
f 1012//1 1013//1 1001//1
f 289//1 1015//1 1021//1
f 16//1 1025//1 1019//1
f 1022//1 1025//1 1026//1
f 1018//1 1016//1 1015//1
f 289//1 1021//1 281//1
f 286//1 1018//1 1015//1
f 15//1 1018//1 890//1
f 1015//1 1017//1 1021//1
f 1017//1 1014//1 1019//1
f 1025//1 1017//1 1019//1
f 1027//1 1021//1 1017//1
f 1037//1 1030//1 1020//1
f 1024//1 423//1 424//1
f 422//1 1024//1 424//1
f 1023//1 1024//1 1031//1
f 418//1 1024//1 422//1
f 423//1 1024//1 1023//1
f 1026//1 1020//1 1030//1
f 1025//1 1022//1 1027//1
f 1028//1 1027//1 1022//1
f 1025//1 16//1 1026//1
f 291//1 1027//1 287//1
f 1029//1 1028//1 1022//1
f 1028//1 1023//1 1031//1
f 1030//1 1029//1 1022//1
f 423//1 1023//1 1029//1
f 1026//1 1030//1 1022//1
f 1020//1 1034//1 1037//1
f 419//1 1031//1 418//1
f 1028//1 1031//1 287//1
f 1037//1 1029//1 1030//1
f 1036//1 1035//1 453//1
f 423//1 1032//1 1033//1
f 456//1 1033//1 1032//1
f 467//1 1036//1 453//1
f 423//1 1037//1 1032//1
f 1032//1 17//1 1035//1
f 1032//1 1036//1 456//1
f 1029//1 1037//1 423//1
f 17//1 1037//1 1034//1
f 20//1 1040//1 668//1
f 479//1 1038//1 477//1
f 668//1 1040//1 508//1
f 1041//1 1039//1 504//1
f 508//1 1041//1 670//1
f 1039//1 1041//1 1040//1
f 682//1 1042//1 331//1
f 1042//1 681//1 914//1
f 1043//1 319//1 717//1
f 331//1 1043//1 341//1
f 1008//1 1044//1 913//1
f 319//1 1042//1 1044//1
