v 1.41109 0.547952 -0.140358
v 1.39934 0.557851 -0.0101022
v 1.36108 0.567849 0.108843
v 1.29828 0.577828 0.223484
v 1.21547 0.601768 0.319741
v 1.12102 0.639611 0.389597
v 1.01007 0.65106 0.441995
v 0.88914 0.68647 0.472398
v 0.765627 0.718047 0.472004
v 0.648863 0.753948 0.446994
v 0.533351 0.774047 0.399413
v 0.43271 0.808635 0.325311
v 0.346174 0.831472 0.23082
v 0.280884 0.846244 0.11849
v 0.243099 0.857422 -0.0065592
v 0.233332 0.863539 -0.136707
v 0.246483 0.855311 -0.265876
v 0.288382 0.853938 -0.386878
v 0.347353 0.833183 -0.497692
v 0.431025 0.808165 -0.596476
v 0.531967 0.776408 -0.672672
v 0.648529 0.746434 -0.722929
v 0.773246 0.713314 -0.746315
v 0.893732 0.684535 -0.742594
v 1.01778 0.655261 -0.713743
v 1.11517 0.609176 -0.657722
v 1.21594 0.603757 -0.589859
v 1.30044 0.581785 -0.491823
v 1.35516 0.565109 -0.392399
v 1.39701 0.553741 -0.271422
v 0.986683 0.820407 -0.137918
v 0.983308 0.821608 -0.10904
v 0.976218 0.823951 -0.084198
v 0.96277 0.829135 -0.056787
v 0.945775 0.833043 -0.033387
v 0.925421 0.842176 -0.012818
v 0.901892 0.850301 0.004578
v 0.874197 0.857836 0.016606
v 0.844431 0.86738 0.020918
v 0.813582 0.875752 0.013811
v 0.786943 0.883044 -0.004167
v 0.768967 0.88581 -0.026247
v 0.759025 0.888293 -0.049225
v 0.754863 0.88953 -0.072835
v 0.755129 0.881924 -0.10022
v 0.752847 0.882737 -0.126552
v 0.750455 0.885442 -0.157968
v 0.765189 0.878264 -0.190569
v 0.774936 0.879949 -0.217416
v 0.78613 0.87991 -0.241443
v 0.800801 0.870944 -0.262005
v 0.819626 0.868662 -0.278671
v 0.843998 0.864364 -0.290853
v 0.876115 0.858061 -0.29587
v 0.908895 0.850223 -0.290279
v 0.936078 0.842298 -0.275036
v 0.955409 0.835309 -0.251916
v 0.96957 0.830277 -0.224656
v 0.980205 0.827182 -0.195051
v 0.985903 0.824283 -0.168703
v 0.466495 0.80253 -0.172895
v 0.682615 0.784885 -0.488511
v 0.513094 0.823238 0.0595841
v 0.686606 0.789009 0.213372
v 0.917797 0.734115 -0.509246
v 1.14059 0.653984 -0.326333
v 1.10212 0.674147 0.120253
v 0.911979 0.732388 0.23525
v 1.18925 0.637865 -0.100101
v 0.589523 0.81465 -0.160704
v 0.744104 0.809497 -0.382693
v 0.617667 0.856461 0.00150659
v 0.742108 0.834023 0.111621
v 0.905398 0.799885 -0.404921
v 1.10065 0.728798 -0.224507
v 0.996326 0.74921 0.089691
v 1.09398 0.716698 -0.0519387
v 0.649527 0.83256 -0.155464
v 0.627452 0.820478 -0.267339
v 0.770216 0.835146 -0.330658
v 0.672117 0.868982 -0.0291751
v 0.770181 0.855562 0.0585201
v 0.850092 0.817142 0.130387
v 0.89825 0.826985 -0.34799
v 0.998968 0.770402 -0.348351
v 1.05028 0.770218 -0.20539
v 0.970317 0.787467 0.0391427
v 1.04556 0.760747 -0.0705183
v 0.680321 0.84132 -0.152519
v 0.692434 0.839627 -0.285066
v 0.783882 0.849582 -0.304231
v 0.700614 0.874999 -0.044963
v 0.784957 0.867517 0.0308849
v 0.855205 0.840151 0.0748694
v 0.894819 0.841402 -0.318191
v 0.975403 0.808587 -0.30901
v 1.02409 0.7916 -0.19525
v 0.957095 0.807937 0.0132481
v 1.02066 0.783813 -0.0802248
v 0.71908 0.852031 -0.262802
v 0.814142 0.850184 0.0606435
v 0.934421 0.820118 -0.322945
v 0.738714 0.848868 -0.302362
v 0.84179 0.854286 0.0502488
v 0.82164 0.826899 0.0985404
v 0.933475 0.801104 -0.367307
v 0.951029 0.825175 -0.298797
v 0.724872 0.828318 -0.344133
v 0.786662 0.802747 0.161646
v 0.906314 0.812472 -0.375546
v 0.823802 0.812724 -0.384747
v 0.86466 0.819927 -0.373998
v 0.971533 0.7474 -0.428358
v 0.959967 0.795949 -0.341127
v 0.752899 0.821997 -0.354483
v 0.783584 0.827934 -0.383886
v 0.706778 0.838998 -0.316583
v 0.643395 0.7964 -0.403107
v 0.669129 0.820954 -0.357562
v 0.813115 0.808211 0.133172
v 0.776778 0.823322 0.127419
v 0.774408 0.839898 0.0930239
v 0.832837 0.838144 -0.341363
v 0.866917 0.836696 -0.338289
v 0.811656 0.851704 -0.320657
v 0.799306 0.839772 -0.35308
v 0.856882 0.798705 -0.422974
v 0.944923 0.778171 -0.406397
v 0.762142 0.784641 -0.456418
v 0.703727 0.812207 -0.37725
v 0.672043 0.805948 -0.387526
v 0.682855 0.7797 -0.433873
v 0.717146 0.793475 -0.412107
v 0.688466 0.796528 -0.409605
v 0.716468 0.797697 -0.458428
v 0.753038 0.811899 -0.424445
v 0.801154 0.84018 0.084894
v 0.839844 0.823281 -0.363927
v 0.849205 0.810265 -0.397038
v 0.915686 0.766098 -0.456468
v 0.982024 0.764582 -0.388377
v 0.960751 0.783603 -0.371562
v 0.691284 0.783957 -0.460771
v 0.798288 0.794577 -0.423885
v 0.922556 0.783741 -0.429056
v 0.887035 0.783411 -0.439054
v 0.948886 0.766821 -0.446244
v 0.942035 0.749214 -0.481703
v 0.829211 0.768185 -0.495496
v 1.02933 0.663717 -0.558426
v 0.875646 0.765432 -0.483216
v 0.984442 0.712512 -0.530334
v 0.955253 0.728876 -0.511797
v 0.989238 0.71686 -0.473384
v 0.971955 0.745992 -0.463517
v 0.983303 0.724564 -0.502026
v 1.08413 0.711989 -0.410247
v 0.79911 0.809868 -0.399191
v 0.802668 0.773371 -0.462009
v 0.846206 0.783103 -0.460387
v 0.828142 0.788782 -0.433825
v 0.862867 0.734855 -0.537663
v 0.905351 0.752179 -0.484519
v 0.88488 0.748209 -0.513201
v 0.852596 0.751965 -0.511525
v 1.03374 0.733974 -0.383597
v 1.00749 0.75125 -0.373854
v 1.00822 0.741554 -0.413404
v 0.995313 0.726037 -0.440824
v 1.05549 0.699922 -0.465078
v 1.03554 0.721201 -0.436142
v 1.0215 0.707682 -0.465006
v 1.03636 0.691798 -0.514012
v 1.00344 0.694809 -0.49914
v 1.06035 0.69697 -0.430491
v 1.16054 0.633386 -0.479821
v 1.05186 0.71455 -0.403799
v 1.11725 0.672057 -0.452035
v 1.09348 0.693034 -0.437712
v 1.00407 0.680398 -0.534532
v 0.917882 0.789492 0.0960587
v 0.931938 0.814253 0.0545011
v 0.959295 0.788945 0.0821544
v 0.892283 0.817672 0.0710607
v 0.891914 0.834675 0.0420602
v 0.980813 0.769389 0.0665184
v 1.03626 0.743901 0.0105964
v 1.00655 0.764781 0.0332202
v 1.0163 0.773377 -0.0294243
v 0.986655 0.791426 -0.00889883
v 1.00888 0.768963 0.00142519
v 0.884586 0.807344 0.111302
v 0.914959 0.767581 0.168667
v 0.862022 0.826277 0.102789
v 0.907982 0.784408 0.13342
v 0.957438 0.750104 0.130373
v 0.870655 0.786128 0.164743
v 0.931854 0.764596 0.141871
v 0.872501 0.799531 0.137591
v 0.829959 0.785961 0.174723
v 1.03943 0.731246 0.0631879
v 0.98864 0.782799 0.0184918
v 0.94433 0.770542 0.105816
v 0.977394 0.767373 0.109911
v 0.883024 0.757262 0.203991
v 0.847898 0.804727 0.158949
v 0.771286 0.762284 0.255689
v 1.02954 0.746104 0.0389209
v 0.888253 0.767168 0.177314
v 0.917924 0.744915 0.199638
v 0.857333 0.783426 0.199665
v 0.844714 0.738917 0.267998
v 0.814473 0.764594 0.223505
v 0.860002 0.763861 0.237466
v 0.881746 0.741403 0.232511
v 0.833415 0.752091 0.243022
v 0.841191 0.766382 0.215926
v 0.79698 0.784033 0.194627
v 0.782087 0.773175 0.224344
v 0.732348 0.777191 0.227837
v 0.754511 0.793649 0.191832
v 0.739863 0.814339 0.153684
v 0.757264 0.780984 0.216747
v 0.719199 0.793082 0.198014
v 0.648274 0.818338 0.132617
v 0.684204 0.816285 0.167968
v 0.707211 0.828924 0.134656
v 0.678467 0.81743 0.137615
v 0.681972 0.843547 0.0543867
v 0.686869 0.833899 0.0967735
v 0.72458 0.850332 0.0714362
v 0.715878 0.840713 0.0997292
v 0.720897 0.861816 0.0196064
v 0.703086 0.866843 -0.0105486
v 0.754388 0.869518 0.0186363
v 0.663338 0.851631 0.0129533
v 0.710168 0.852095 0.046215
v 0.74269 0.859489 0.0466775
v 0.647016 0.862829 -0.0101517
v 0.604961 0.837711 -0.0799033
v 0.620322 0.846542 -0.0404575
v 0.53956 0.826112 -0.0174215
v 0.658308 0.85513 -0.079329
v 0.66104 0.842785 -0.11722
v 0.680433 0.853325 -0.0972895
v 0.632838 0.842518 -0.0986328
v 0.597512 0.828541 -0.120925
v 0.576752 0.829286 -0.0447648
v 0.630959 0.847596 -0.0678897
v 0.523357 0.808505 -0.1241
v 0.618399 0.824503 -0.146042
v 0.593248 0.843723 -0.0189868
v 0.567915 0.838744 0.0353017
v 0.587155 0.849257 0.0114702
v 0.561425 0.816567 -0.133457
v 0.551642 0.823235 -0.0864032
v 0.529201 0.803039 -0.185207
v 0.556082 0.807354 -0.164879
v 0.623658 0.827583 0.0525049
v 0.580441 0.828688 -0.0961058
v 0.541482 0.818362 -0.0522347
v 0.388873 0.81717 -0.0335461
v 0.466107 0.806454 -0.0343084
v 0.506865 0.809566 -0.0340063
v 0.498919 0.824061 0.0125762
v 0.485482 0.81298 -0.0845668
v 0.485415 0.812737 -0.0119689
v 0.419059 0.81365 0.0423946
v 0.441624 0.807869 0.00353282
v 0.51872 0.818818 -0.0772768
v 0.486155 0.811412 -0.0554789
v 0.633556 0.842019 0.0249164
v 0.65166 0.832499 0.0795373
v 0.659677 0.827732 0.106878
v 0.464168 0.815632 0.0400066
v 0.397788 0.810611 0.00656498
v 0.426814 0.808142 -0.0303108
v 0.414911 0.810491 -0.0976997
v 0.442776 0.812564 -0.0674206
v 0.406389 0.81462 -0.0640374
v 0.316421 0.836803 -0.0937508
v 0.357222 0.821614 -0.0707089
v 0.469206 0.814736 0.0120121
v 0.492969 0.820436 0.0401094
v 0.340258 0.827342 0.0642062
v 0.306216 0.838196 -0.0275197
v 0.36187 0.815462 -0.129111
v 0.376531 0.818294 0.0428137
v 0.323331 0.831349 -0.0589988
v 0.347809 0.827461 -0.0254007
v 0.348519 0.828778 -0.101568
v 0.38122 0.818066 -0.101533
v 0.360277 0.821524 0.00945595
v 1.03438 0.756033 -0.284108
v 1.02027 0.781211 -0.242923
v 1.05613 0.752721 -0.245807
v 1.00295 0.78829 -0.282003
v 0.986048 0.807423 -0.260776
v 1.07465 0.750092 -0.218398
v 1.09798 0.722526 -0.138603
v 1.07345 0.745044 -0.172257
v 1.00632 0.789166 -0.318036
v 1.10901 0.714133 -0.1822
v 1.05376 0.752886 -0.123164
v 1.02823 0.777026 -0.11382
v 1.09542 0.729878 -0.164301
v 1.08663 0.731138 -0.196634
v 1.18108 0.663419 -0.235371
v 1.15542 0.682235 -0.14151
v 1.07491 0.742999 -0.142647
v 1.13584 0.688018 -0.220013
v 1.12803 0.705186 -0.152227
v 1.14589 0.681445 -0.181114
v 1.15959 0.664757 -0.2084
v 1.23771 0.613406 -0.17761
v 1.19827 0.633495 -0.20054
v 1.18184 0.658565 -0.168186
v 1.11382 0.706111 -0.210022
v 1.26933 0.588394 -0.298281
v 1.21116 0.6365 -0.167392
v 1.23744 0.615582 -0.122061
v 1.19541 0.64761 -0.135316
v 1.23069 0.621647 -0.150116
v 1.21128 0.629517 -0.117758
v 1.16848 0.660441 -0.117502
v 1.14968 0.670952 -0.0528839
v 1.12368 0.68554 -0.0980343
v 1.16043 0.653254 -0.0829908
v 1.11603 0.700961 -0.124024
v 1.08503 0.719559 -0.0958038
v 1.23139 0.625427 -0.257265
v 1.10499 0.701846 -0.0776337
v 1.07163 0.737014 -0.0695495
v 1.0614 0.735264 -0.0255881
v 1.20983 0.641511 -0.233146
v 1.23507 0.610987 -0.218413
v 1.11029 0.676294 0.0294971
v 1.03654 0.752082 -0.018516
v 1.27302 0.596753 -0.249103
v 1.07293 0.708729 0.0158164
v 1.24953 0.610511 -0.241986
v 1.05639 0.726754 0.000518377
v 1.08868 0.711132 -0.0165797
v 1.11985 0.690488 -0.0330756
v 1.1264 0.688181 -0.0614803
v 1.15038 0.658507 -0.00121727
v 1.11019 0.688918 -0.00149214
v 1.14032 0.670332 -0.0258312
v 1.20746 0.631167 -0.0331087
v 1.22226 0.610561 -0.0744444
v 1.1803 0.649131 -0.0516579
v 1.1773 0.641586 -0.0172772
v 1.24064 0.593384 0.0807934
v 1.21263 0.609997 0.026008
v 1.20147 0.624126 -0.00188338
v 1.19592 0.629074 -0.0706666
v 1.27567 0.591065 -0.0175608
v 1.23916 0.606179 -0.00509267
v 1.23858 0.612079 -0.0412361
v 1.26973 0.582458 0.035953
v 1.24237 0.596651 0.0249109
v 0.587225 0.792932 -0.34093
v 1.10573 0.646556 -0.541763
v 1.03706 0.702007 0.129276
v 1.00536 0.738865 0.14252
v 0.988214 0.693263 0.220893
v 0.955605 0.72718 0.222635
v 0.953291 0.736811 0.176065
v 0.944599 0.741223 0.201433
v 0.975066 0.731191 0.152361
v 1.00801 0.707342 0.17957
v 0.97251 0.71318 0.195188
v 1.02945 0.71877 0.156831
v 1.09055 0.655863 0.217004
v 1.05684 0.691116 0.193924
v 1.02269 0.686797 0.207963
v 1.04123 0.648716 0.31197
v 1.021 0.668322 0.261519
v 1.01186 0.679842 0.234932
v 1.05407 0.664831 0.232685
v 0.950004 0.684817 0.304017
v 1.07072 0.675973 0.213758
v 1.0947 0.631687 0.280076
v 0.94042 0.705638 0.261973
v 1.05711 0.648524 0.271571
v 0.935221 0.718975 0.238371
v 0.972672 0.708841 0.2484
v 0.888582 0.707157 0.304512
v 0.890354 0.720713 0.266408
v 0.917839 0.713207 0.287227
v 0.869787 0.733 0.29125
v 0.818901 0.703495 0.380614
v 0.851353 0.720785 0.34055
v 0.873509 0.745852 0.261886
v 1.08523 0.654354 0.252244
v 1.07465 0.64899 0.302897
v 1.16268 0.608589 0.356862
v 1.06798 0.63763 0.413696
v 1.11209 0.619627 0.333543
v 1.07267 0.630584 0.356981
v 1.09464 0.628194 0.310195
v 1.0643 0.638332 0.328662
v 1.03539 0.658818 0.28514
v 0.997022 0.672032 0.311321
v 0.681426 0.739746 0.331899
v 0.71377 0.807765 0.170536
v 0.534649 0.836261 0.0177992
v 0.55968 0.840656 0.000249977
v 0.475823 0.80281 -0.127818
v 0.45156 0.803274 -0.100788
v 0.427285 0.803717 -0.143355
v 0.396091 0.809035 -0.129816
v 0.502347 0.801531 -0.155956
v 0.530743 0.806175 -0.151025
v 0.498349 0.80547 -0.108877
v 0.455544 0.800946 -0.147611
v 0.369581 0.820415 -0.254021
v 0.384315 0.810335 -0.192582
v 0.399415 0.809719 -0.162502
v 0.427759 0.803799 -0.193503
v 0.405712 0.813326 -0.229987
v 0.374494 0.820991 -0.221934
v 0.305404 0.836937 -0.230557
v 0.341296 0.830921 -0.234194
v 0.455231 0.798306 -0.34557
v 0.482123 0.793391 -0.251106
v 0.419191 0.801976 -0.291822
v 0.464696 0.801795 -0.214361
v 0.400196 0.805328 -0.263239
v 0.440607 0.796086 -0.257347
v 0.505522 0.799464 -0.218119
v 0.554248 0.800454 -0.273103
v 0.579083 0.81202 -0.219493
v 0.575747 0.811806 -0.188765
v 0.624648 0.823864 -0.198752
v 0.495888 0.802203 -0.187664
v 0.521737 0.797591 -0.25219
v 0.542703 0.803562 -0.218477
v 0.499186 0.794774 -0.305981
v 0.559774 0.806503 -0.243545
v 0.590902 0.808856 -0.264771
v 0.50073 0.797444 -0.275433
v 0.460543 0.797678 -0.292238
v 0.580177 0.803715 -0.30326
v 0.439535 0.802337 -0.317453
v 0.362789 0.822625 -0.354417
v 0.39796 0.814056 -0.328544
v 0.371234 0.811325 -0.295543
v 0.47141 0.793965 -0.319885
v 0.540295 0.793781 -0.310793
v 0.6287 0.809426 -0.315793
v 0.666634 0.82715 -0.315854
v 0.266826 0.851032 -0.32687
v 0.527845 0.797725 -0.285754
v 0.659247 0.826276 -0.281865
v 0.316477 0.838578 -0.289451
v 0.662376 0.835186 -0.231704
v 0.696966 0.847234 -0.230238
v 0.678265 0.838963 -0.194133
v 0.340376 0.831023 -0.267032
v 0.681663 0.838296 -0.256165
v 0.652278 0.831137 -0.205166
v 0.436088 0.804038 -0.228016
v 0.411696 0.810016 -0.384772
v 0.368517 0.822932 -0.324184
v 0.340364 0.822093 -0.30649
v 0.306206 0.833354 -0.330587
v 0.393513 0.814948 -0.359642
v 0.423247 0.806656 -0.347489
v 0.275708 0.845188 -0.357713
v 0.3387 0.835774 -0.33636
v 0.315202 0.844616 -0.363531
v 0.316271 0.840106 -0.441716
v 0.29913 0.837762 -0.413611
v 0.348931 0.828972 -0.403198
v 0.379247 0.819978 -0.389888
v 0.386176 0.819007 -0.450989
v 0.399465 0.813297 -0.418166
v 0.369672 0.821624 -0.424971
v 0.517968 0.788526 -0.485456
v 0.454246 0.799001 -0.460318
v 0.421294 0.807578 -0.44665
v 0.386864 0.814002 -0.547384
v 0.45636 0.796659 -0.408318
v 0.408793 0.812437 -0.498262
v 0.428409 0.804285 -0.41773
v 0.42883 0.807149 -0.475665
v 0.465918 0.798592 -0.529489
v 0.455227 0.793135 -0.495652
v 0.488768 0.794268 -0.50364
v 0.543629 0.775363 -0.578179
v 0.486433 0.785632 -0.469137
v 0.526263 0.783173 -0.533273
v 0.542845 0.783338 -0.409333
v 0.520951 0.779704 -0.445267
v 0.51144 0.788656 -0.361931
v 0.598795 0.775022 -0.470007
v 0.499483 0.788207 -0.408987
v 0.516096 0.789416 -0.331205
v 0.549137 0.788034 -0.350691
v 0.564545 0.78014 -0.445327
v 0.47869 0.7914 -0.436645
v 0.536626 0.786624 -0.379509
v 0.482955 0.797191 -0.634501
v 0.561724 0.777829 -0.50111
v 0.479638 0.793487 -0.380118
v 0.606054 0.782815 -0.426004
v 0.493975 0.795618 -0.574553
v 0.534597 0.783284 -0.506694
v 0.566017 0.771953 -0.542238
v 0.569584 0.77856 -0.473263
v 0.540937 0.784459 -0.46641
v 0.641533 0.782215 -0.454318
v 0.602503 0.800159 -0.383397
v 0.570944 0.788894 -0.376064
v 0.575405 0.787386 -0.41503
v 0.519776 0.784825 -0.562698
v 0.6409 0.757073 -0.612509
v 0.634736 0.755836 -0.505647
v 0.655937 0.790801 -0.429272
v 0.635563 0.811447 -0.370709
v 0.643438 0.816672 -0.341352
v 0.592301 0.748744 -0.585106
v 0.627679 0.774502 -0.481658
v 0.599218 0.771005 -0.508323
v 0.659179 0.764429 -0.476107
v 0.610862 0.749633 -0.543857
v 0.571112 0.763777 -0.570641
v 0.629075 0.759282 -0.575966
v 0.723323 0.742946 -0.565821
v 0.676028 0.744448 -0.579554
v 0.768515 0.746529 -0.5153
v 0.811965 0.746069 -0.545879
v 0.708899 0.734851 -0.660444
v 0.689355 0.759852 -0.532529
v 0.795324 0.758207 -0.494356
v 0.762957 0.766083 -0.486439
v 0.727729 0.761219 -0.51176
v 0.710353 0.736611 -0.612078
v 0.696032 0.748709 -0.558705
v 0.656419 0.757356 -0.550337
v 0.660374 0.773544 -0.519588
v 0.743682 0.74751 -0.538677
v 0.773671 0.721881 -0.582112
v 0.773493 0.732329 -0.547702
v 0.731335 0.777448 -0.481496
v 0.700571 0.771394 -0.507482
v 0.703181 0.742559 -0.585486
v 0.674246 0.742793 -0.616942
v 0.648601 0.747263 -0.666798
v 0.65331 0.748146 -0.637445
v 0.634078 0.765625 -0.533464
v 0.743247 0.736354 -0.595993
v 0.752311 0.738153 -0.56759
v 0.262312 0.853366 0.0559897
v 1.04125 0.773035 -0.159817
v 1.11865 0.694224 -0.277442
v 1.07461 0.722013 -0.283624
v 1.05636 0.741676 -0.272116
v 1.31889 0.572342 -0.148177
v 1.33076 0.570024 -0.274303
v 1.08205 0.698824 0.0671405
v 1.16152 0.63856 0.0663632
v 1.17699 0.631274 0.0297485
v 1.14574 0.652165 0.0349102
v 1.28811 0.582412 -0.0845758
v 1.25604 0.593506 -0.0681496
v 1.24476 0.603816 -0.0946884
v 1.28517 0.581803 -0.04997
v 1.4042 0.546675 -0.0747015
v 1.33691 0.572476 -0.0120898
v 1.30609 0.579059 -0.0240475
v 1.30707 0.574638 0.0175767
v 1.28076 0.585663 0.0102227
v 1.37562 0.550357 0.0511928
v 1.31666 0.576299 0.0715845
v 1.34573 0.56531 0.0274499
v 1.38865 0.558051 0.0214346
v 1.3679 0.565277 -0.00339666
v 1.36071 0.556214 -0.0518507
v 1.3216 0.565477 -0.057836
v 1.36361 0.547909 0.0819977
v 1.31868 0.562168 0.0436067
v 1.34929 0.563822 -0.103785
v 1.34498 0.563447 -0.0752936
v 1.07882 0.663576 -0.498122
v 1.08276 0.668389 -0.462366
v 1.02575 0.724397 0.0984836
v 1.05678 0.711471 0.0881123
v 1.00523 0.735628 0.114176
v 1.0818 0.691745 0.0995957
v 1.08603 0.65941 0.165133
v 0.913264 0.684995 0.387707
v 0.784321 0.729932 0.321003
v 1.15503 0.604646 0.283749
v 1.12933 0.623788 0.301229
v 1.12054 0.619917 0.248922
v 1.15724 0.610683 0.320438
v 1.12192 0.631036 0.274751
v 1.18479 0.601677 0.30269
v 1.21137 0.597479 0.221929
v 1.18874 0.601295 0.338365
v 1.25525 0.585786 0.272112
v 1.19248 0.612887 0.259567
v 1.15726 0.620287 0.250404
v 1.14023 0.638408 0.192408
v 1.13876 0.628152 0.223451
v 1.11086 0.63359 0.205589
v 1.17579 0.61706 0.205851
v 1.2235 0.593997 0.256107
v 1.2379 0.601305 0.295017
v 1.27763 0.584981 0.248037
v 1.25537 0.590562 0.205761
v 1.1866 0.608874 0.231625
v 1.1777 0.62201 0.134851
v 1.20919 0.608038 0.285211
v 1.24815 0.591064 0.236556
v 1.32878 0.566351 0.166117
v 1.16474 0.621224 0.169702
v 1.1307 0.646929 0.147413
v 1.21555 0.601418 0.168788
v 1.18987 0.608717 0.18159
v 1.31395 0.572928 0.194722
v 1.11676 0.653664 0.175439
v 1.10869 0.666976 0.148312
v 1.13671 0.650023 0.102156
v 1.11128 0.673149 0.0799555
v 1.10123 0.68231 0.0549553
v 1.13301 0.655314 0.0639956
v 1.22747 0.599468 0.196745
v 1.16841 0.63203 0.101259
v 1.20027 0.614879 0.0748719
v 1.19653 0.618713 0.0471395
v 1.15144 0.637525 0.126965
v 1.21712 0.606302 0.11724
v 1.19404 0.617732 0.10263
v 1.27526 0.583524 0.134058
v 1.29419 0.577558 0.16452
v 1.28309 0.581143 0.193585
v 1.20395 0.609623 0.142728
v 1.24845 0.592118 0.113747
v 1.27936 0.578732 0.0899117
v 1.24308 0.59037 0.14894
v 1.26553 0.588476 0.0647619
v 1.31571 0.568249 0.116558
v 1.33511 0.572696 0.0947566
v 1.34454 0.56372 0.137353
v 1.13606 0.614071 0.374947
v 1.01561 0.653541 0.377185
v 1.03551 0.648043 0.347677
v 1.00239 0.660094 0.344639
v 0.960851 0.660945 0.379156
v 1.1051 0.641757 0.359002
v 1.09134 0.643595 0.33394
v 1.09391 0.623185 0.399211
v 0.980533 0.692342 0.282724
v 0.989608 0.684147 0.254727
v 1.0018 0.672243 0.282481
v 0.717765 0.756672 0.28438
v 0.613103 0.818623 -0.233544
v 0.609052 0.811529 -0.291729
v 0.339405 0.82894 -0.374083
v 0.44407 0.80067 -0.377507
v 0.378349 0.822872 -0.484779
v 0.367796 0.825517 -0.523004
v 0.425075 0.803589 -0.534537
v 0.409126 0.812511 -0.571851
v 0.448873 0.802005 -0.563451
v 0.495573 0.79227 -0.54182
v 0.514882 0.783349 -0.609098
v 0.507508 0.787215 -0.653752
v 0.558633 0.761554 -0.625764
v 0.543147 0.776381 -0.606935
v 0.840367 0.711754 -0.607427
v 0.591845 0.769509 -0.697668
v 0.712322 0.733889 -0.734347
v 0.312785 0.840642 0.023277
v 0.33243 0.831972 0.000802803
v 1.1539 0.686477 -0.25713
v 1.14834 0.674196 -0.293853
v 1.20076 0.638022 -0.308445
v 1.19666 0.638238 -0.269802
v 1.17085 0.65459 -0.310968
v 1.17269 0.662681 -0.273202
v 1.12394 0.710408 -0.245697
v 1.09423 0.722828 -0.25657
v 1.05666 0.737843 -0.337325
v 1.03474 0.762375 -0.35301
v 1.07417 0.731679 -0.374369
v 1.03439 0.758358 -0.318607
v 1.05353 0.735211 -0.304979
v 1.11175 0.686383 -0.365385
v 1.11291 0.684286 -0.404696
v 1.09409 0.707513 -0.380833
v 1.08436 0.706009 -0.340369
v 1.11137 0.680256 -0.328045
v 1.12056 0.677787 -0.301264
v 1.09114 0.700234 -0.306605
v 1.16062 0.63814 -0.414774
v 1.14674 0.665899 -0.383245
v 1.13322 0.660418 -0.422364
v 1.1473 0.652495 -0.453559
v 1.18623 0.61375 -0.368363
v 1.18043 0.631247 -0.337131
v 1.15775 0.637255 -0.364004
v 1.18089 0.639607 -0.388393
v 1.23317 0.608224 -0.448712
v 1.20218 0.627734 -0.42514
v 1.13171 0.663639 -0.355085
v 1.17229 0.62138 -0.446732
v 1.20182 0.599231 -0.488181
v 1.23122 0.591071 -0.396086
v 1.21945 0.602425 -0.421753
v 1.27332 0.593508 -0.149156
v 1.27408 0.596284 -0.114005
v 1.30729 0.579968 -0.11489
v 1.29642 0.5833 -0.274171
v 1.06354 0.717326 0.045891
v 1.40065 0.548275 -0.0420404
v 1.37762 0.55783 -0.0288513
v 1.36458 0.557459 -0.147977
v 1.40803 0.548096 -0.107418
v 1.37921 0.554883 -0.0939316
v 1.34215 0.565831 -0.13166
v 1.40316 0.54717 -0.205737
v 1.40681 0.546064 -0.173119
v 1.34131 0.564809 -0.205882
v 1.3717 0.554676 -0.18557
v 1.31099 0.581353 -0.23278
v 1.34062 0.56228 -0.172312
v 1.34473 0.570581 -0.241157
v 1.37412 0.557459 -0.334077
v 1.40046 0.551461 -0.238259
v 1.37329 0.560966 -0.251405
v 1.37384 0.557471 -0.21836
v 1.29823 0.574018 -0.189226
v 1.29544 0.580956 -0.162275
v 1.26265 0.590295 -0.198378
v 1.28334 0.58974 -0.221267
v 1.05953 0.687729 -0.493724
v 1.06002 0.661132 -0.539204
v 1.04093 0.681814 -0.540211
v 1.08119 0.647829 -0.60752
v 1.08528 0.658699 -0.525587
v 1.06276 0.662069 -0.577355
v 1.08957 0.636313 -0.573412
v 1.17111 0.617316 -0.622891
v 1.12197 0.617982 -0.608494
v 1.11698 0.635837 -0.497215
v 1.12209 0.647085 -0.469234
v 1.05573 0.68252 0.157464
v 1.07428 0.687857 0.131392
v 0.864338 0.693879 0.383282
v 0.812842 0.713528 0.342089
v 0.821238 0.726287 0.301597
v 0.79047 0.741277 0.282896
v 0.754084 0.748942 0.301321
v 0.802199 0.752267 0.252872
v 0.735669 0.737339 0.362415
v 0.775204 0.719917 0.364431
v 0.7202 0.747067 0.32401
v 0.746183 0.75778 0.273067
v 0.754461 0.738255 0.333757
v 0.708479 0.740464 0.460652
v 0.747751 0.719348 0.416744
v 0.752546 0.72505 0.385616
v 1.05043 0.643776 0.382172
v 1.04009 0.647948 0.428027
v 0.990071 0.654137 0.406847
v 1.01953 0.650689 0.406349
v 0.950053 0.668585 0.457152
v 0.955095 0.664134 0.418145
v 0.978835 0.656021 0.449611
v 0.91737 0.678899 0.430992
v 0.939198 0.673058 0.394463
v 0.920175 0.679173 0.464996
v 0.886685 0.687171 0.412387
v 0.936232 0.686631 0.348287
v 0.918885 0.702268 0.321261
v 0.88589 0.696077 0.346502
v 0.966733 0.669884 0.336589
v 0.910975 0.691592 0.359245
v 0.695839 0.766953 0.249551
v 0.7245 0.766014 0.255059
v 0.672977 0.752477 0.288184
v 0.598376 0.770921 0.336233
v 0.640242 0.757556 0.322403
v 0.646465 0.750994 0.38419
v 0.603082 0.776948 0.245645
v 0.655145 0.74936 0.351216
v 0.619781 0.753498 0.360018
v 0.588595 0.760506 0.422366
v 0.582839 0.773761 0.379176
v 0.612474 0.753732 0.395647
v 0.618114 0.755481 0.434949
v 0.643355 0.752167 0.415877
v 0.694201 0.736648 0.405199
v 0.676159 0.735531 0.374813
v 0.724101 0.737461 0.393227
v 0.720884 0.737729 0.427994
v 0.733652 0.720232 0.465871
v 0.651139 0.784676 0.248209
v 0.612125 0.769553 0.291387
v 0.56378 0.779089 0.411047
v 0.703587 0.741915 0.35679
v 0.6756 0.779499 0.237447
v 0.631103 0.793728 0.191974
v 0.618239 0.772252 0.317625
v 0.625776 0.777623 0.264649
v 0.645471 0.77088 0.29227
v 0.653927 0.797608 0.216365
v 0.624219 0.786889 0.222807
v 0.659331 0.807276 0.186436
v 0.600895 0.758728 -0.626274
v 0.561219 0.768857 -0.685567
v 0.588556 0.766113 -0.660717
v 0.618582 0.761305 -0.677022
v 0.62061 0.759291 -0.710479
v 0.841137 0.732718 -0.571983
v 0.807269 0.725976 -0.574846
v 0.682118 0.741701 -0.694689
v 0.679195 0.742649 -0.663482
v 0.680707 0.740939 -0.72879
v 0.717618 0.728669 -0.697045
v 0.744129 0.728149 -0.740342
v 0.77867 0.70911 -0.658769
v 0.800531 0.711817 -0.618236
v 0.762891 0.712777 -0.701827
v 0.763091 0.717796 -0.623796
v 0.745348 0.726007 -0.656894
v 0.736796 0.733912 -0.628121
v 0.81727 0.7257 -0.600916
v 0.830376 0.692331 -0.744127
v 0.741712 0.728514 -0.711935
v 0.811829 0.706428 -0.697029
v 0.786895 0.7163 -0.686167
v 0.83215 0.711174 -0.654396
v 0.825015 0.718171 -0.628881
v 0.804499 0.708942 -0.646855
v 0.865496 0.686895 -0.694179
v 0.838288 0.697801 -0.682669
v 0.879884 0.691299 -0.640337
v 0.850963 0.698989 -0.633569
v 0.339789 0.82732 0.0331225
v 0.300425 0.838618 0.0622114
v 0.318431 0.834672 0.100394
v 0.270428 0.846356 0.0871212
v 0.398882 0.817573 0.123595
v 0.312607 0.836337 0.174644
v 0.361028 0.822184 0.101831
v 0.443607 0.811581 0.0904231
v 0.478574 0.812448 0.073669
v 0.536364 0.801631 0.154768
v 0.516093 0.802484 0.107441
v 0.504517 0.809 0.0832314
v 0.298188 0.846297 0.146736
v 0.340996 0.83392 0.140082
v 0.397044 0.814494 0.0790788
v 0.442362 0.812816 0.0611251
v 0.316774 0.838212 0.127596
v 0.369479 0.824959 0.130917
v 0.397861 0.816511 0.188497
v 0.363237 0.818745 0.169353
v 0.39398 0.81029 0.155835
v 0.465277 0.80246 0.164711
v 0.432725 0.803121 0.141174
v 0.367126 0.825269 0.203193
v 0.389785 0.819927 0.278532
v 0.329023 0.832633 0.202734
v 0.367578 0.824516 0.254756
v 0.411224 0.812544 0.234743
v 0.43127 0.809294 0.175903
v 0.426659 0.811201 0.114417
v 0.473459 0.799135 0.122178
v 0.382627 0.820238 0.228394
v 0.436959 0.802531 0.275538
v 0.503172 0.801381 0.141861
v 0.413403 0.812254 0.263281
v 0.523718 0.781891 0.291692
v 0.568747 0.773596 0.278778
v 0.54583 0.773287 0.340618
v 0.594512 0.768715 0.27111
v 0.58291 0.763727 0.307336
v 0.532464 0.787271 0.222159
v 0.579631 0.788174 0.199193
v 0.550966 0.774354 0.307499
v 0.572609 0.765996 0.351389
v 0.540224 0.780925 0.257687
v 0.5652 0.779256 0.231428
v 0.280866 0.847742 0.00136178
v 0.253653 0.858473 0.024655
v 0.283381 0.84962 0.0324346
v 1.20318 0.617383 -0.459582
v 1.1691 0.619449 -0.543948
v 1.14942 0.62951 -0.514464
v 1.13164 0.619755 -0.545853
v 1.17974 0.612479 -0.511708
v 1.25605 0.584327 -0.541047
v 1.2103 0.597369 -0.543554
v 1.15341 0.608942 -0.583222
v 1.19161 0.611688 -0.567854
v 1.18769 0.594702 -0.60526
v 1.23538 0.59212 -0.565579
v 1.2306 0.5888 -0.512242
v 1.27867 0.583558 -0.517098
v 1.26152 0.598558 -0.479404
v 1.12937 0.63451 -0.578085
v 1.14947 0.626328 -0.605992
v 1.32172 0.575055 -0.448908
v 1.23104 0.606917 -0.479979
v 1.26962 0.571276 -0.433522
v 1.25764 0.591713 -0.450934
v 1.23485 0.602904 -0.343646
v 1.21246 0.625169 -0.335851
v 1.0658 0.62979 -0.686918
v 0.845127 0.712667 0.369506
v 0.848096 0.732081 0.312322
v 0.785706 0.710038 0.404157
v 0.826144 0.699559 0.471605
v 0.844193 0.702368 0.427221
v 0.774824 0.714204 0.437773
v 0.807249 0.696312 0.432144
v 0.872263 0.692084 0.442894
v 0.858888 0.69885 0.472512
v 0.84136 0.703001 0.39836
v 0.794282 0.70241 0.471791
v 0.676568 0.737368 0.454031
v 0.625662 0.760783 -0.645966
v 0.806288 0.715898 -0.744694
v 0.863225 0.697777 -0.742236
v 0.956991 0.668746 -0.728373
v 0.896271 0.704212 -0.581711
v 0.8726 0.699186 -0.606366
v 0.865594 0.712605 -0.577754
v 0.93892 0.702578 -0.5556
v 0.93386 0.71888 -0.530304
v 0.984795 0.687925 -0.591603
v 0.899175 0.72658 -0.541601
v 1.00225 0.678557 -0.56638
v 1.02574 0.652814 -0.618866
v 1.05023 0.644186 -0.600991
v 1.05591 0.633406 -0.644034
v 0.914931 0.716123 -0.563279
v 1.02398 0.662293 -0.666794
v 1.09625 0.630927 -0.674258
v 1.09881 0.635886 -0.637798
v 1.04821 0.654821 -0.699685
v 1.0489 0.646912 -0.66982
v 0.986141 0.659234 -0.633398
v 1.01316 0.665743 -0.64092
v 1.00357 0.673803 -0.611782
v 0.939547 0.68876 -0.616479
v 0.90532 0.688759 -0.611976
v 0.978123 0.655421 -0.683252
v 0.965375 0.671077 -0.611058
v 0.952521 0.686075 -0.582538
v 0.975025 0.703367 -0.56247
v 0.926316 0.70156 -0.590772
v 1.00615 0.654524 -0.687656
v 0.558433 0.810137 0.0770297
v 0.60436 0.816432 0.102029
v 0.623364 0.825223 0.0812749
v 0.592355 0.817308 0.0672231
v 0.409794 0.809012 0.302001
v 0.468496 0.793925 0.222901
v 0.45615 0.805656 0.195814
v 0.439321 0.805119 0.222299
v 0.499757 0.790516 0.250495
v 0.479619 0.797407 0.293033
v 0.466211 0.795303 0.257464
v 0.501972 0.789806 0.277987
v 0.483626 0.793465 0.361921
v 0.451044 0.803322 0.30149
v 0.459865 0.805984 0.343568
v 0.500128 0.786003 0.325166
v 0.508728 0.784384 0.380452
v 0.475721 0.79882 0.320964
v 0.545749 0.789796 0.187307
v 0.501596 0.790615 0.192291
v 0.493166 0.80223 0.168669
v 1.3035 0.55663 -0.469903
v 1.30379 0.582879 -0.397868
v 1.22046 0.613371 -0.37258
v 0.669314 0.737347 0.423353
v 0.915863 0.676109 -0.693438
v 0.91841 0.676634 -0.650916
v 0.947227 0.674052 -0.674291
v 0.956149 0.676425 -0.642503
v 0.9432 0.673206 -0.70303
v 0.985151 0.652799 -0.720825
v 0.544722 0.82589 0.0539822
v 0.5549 0.807328 0.117772
v 0.57635 0.812489 0.0982707
v 0.584064 0.798753 0.152723
v 0.603034 0.798888 0.178009
v 0.616927 0.810291 0.1474
v 0.643698 0.804196 0.160226
v 0.517591 0.78243 0.350198
v 1.29871 0.582474 -0.428783
v 1.33957 0.57371 -0.420695
v 1.31892 0.562884 -0.348399
v 1.31165 0.573102 -0.310042
v 1.34215 0.563921 -0.323059
v 1.38549 0.554309 -0.302902
v 1.36153 0.561433 -0.281816
v 1.26818 0.593193 -0.403213
v 1.2549 0.604351 -0.372448
v 1.27175 0.581007 -0.34032
v 1.2854 0.589564 -0.370052
v 0.892737 0.689991 -0.710819
v 0.892115 0.689467 -0.672586
v 1.32745 0.573662 -0.377686
v 1.36086 0.549574 -0.363601
v 0.236726 0.856103 -0.0718945
v 0.279641 0.843967 -0.0627816
v 0.24024 0.857884 -0.0394335
v 0.267606 0.85073 -0.107115
v 0.271861 0.848765 -0.0306858
v 0.235507 0.861766 -0.10406
v 0.239516 0.858658 -0.200526
v 0.28875 0.844176 -0.0893007
v 0.283152 0.844012 -0.162813
v 0.330075 0.83123 -0.184354
v 0.34841 0.821325 -0.206328
v 0.264026 0.852416 -0.138642
v 0.234856 0.855647 -0.168349
v 0.299969 0.839245 -0.128452
v 0.314749 0.836142 -0.156654
v 0.296945 0.843936 -0.196067
v 0.267174 0.850374 -0.188182
v 0.361668 0.822246 -0.165415
v 0.28629 0.846897 -0.264625
v 0.313723 0.838339 -0.257901
v 0.243264 0.857585 -0.23308
v 0.258827 0.859665 -0.296192
v 0.288245 0.847574 -0.303065
v 0.274559 0.847997 -0.234761
v 0.329666 0.829202 -0.469751
v 0.458649 0.808411 -0.615168
v 0.467266 0.802836 -0.586853
v 0.488459 0.796064 -0.605723
v 1.22913 0.606612 -0.296608
v 1.25387 0.606322 -0.274524
v 1.24838 0.595752 -0.318183
f 507 516 501
f 184 192 194
f 202 188 87
f 493 509 490
f 46 89 47
f 46 245 244
f 420 428 61
f 131 134 130
f 87 188 186
f 243 44 92
f 91 52 51
f 305 99 32
f 458 100 49
f 660 457 462
f 292 282 291
f 125 52 91
f 111 116 158
f 139 138 111
f 248 240 241
f 459 47 89
f 352 348 351
f 80 103 108
f 435 462 78
f 93 238 235
f 389 391 394
f 65 163 164
f 301 306 310
f 114 106 142
f 261 242 264
f 290 262 293
f 333 304 330
f 318 303 307
f 195 197 199
f 867 875 13
f 76 188 208
f 995 807 885
f 810 785 787
f 327 332 329
f 409 416 413
f 204 76 590
f 92 44 43
f 86 97 295
f 227 228 230
f 510 491 528
f 323 324 322
f 81 92 234
f 41 40 93
f 207 762 784
f 105 137 101
f 420 411 419
f 258 434 70
f 221 218 223
f 942 945 946
f 247 255 70
f 78 89 244
f 46 45 245
f 38 185 104
f 660 462 435
f 116 126 115
f 151 140 146
f 95 102 55
f 808 810 787
f 616 600 604
f 114 102 106
f 14 847 846
f 297 298 96
f 56 107 57
f 112 139 74
f 54 95 55
f 222 406 227
f 85 141 167
f 128 145 147
f 178 701 693
f 54 53 124
f 106 102 84
f 739 736 738
f 93 235 41
f 59 97 60
f 313 317 309
f 182 98 87
f 96 114 302
f 325 309 322
f 121 109 222
f 166 167 168
f 695 689 694
f 333 334 88
f 1007 983 712
f 101 82 93
f 99 189 33
f 189 99 88
f 38 37 185
f 81 241 249
f 36 35 98
f 755 917 754
f 152 153 936
f 121 105 120
f 97 86 556
f 50 49 100
f 352 355 564
f 355 354 564
f 104 101 40
f 299 301 86
f 556 60 97
f 81 239 241
f 130 108 119
f 386 210 369
f 84 112 110
f 387 384 386
f 382 395 380
f 51 50 103
f 234 43 42
f 33 32 99
f 533 819 162
f 258 70 255
f 232 231 73
f 182 36 98
f 294 296 295
f 435 70 434
f 117 119 108
f 91 51 103
f 103 50 100
f 80 115 126
f 234 42 233
f 92 81 243
f 40 39 104
f 238 237 233
f 185 182 184
f 105 101 94
f 124 53 123
f 95 84 102
f 102 107 55
f 297 96 302
f 295 59 58
f 86 301 556
f 190 34 189
f 183 182 87
f 305 304 88
f 338 88 334
f 458 49 48
f 103 80 91
f 101 93 40
f 94 194 105
f 84 110 106
f 107 102 96
f 100 90 103
f 115 108 71
f 38 104 39
f 94 101 104
f 120 105 83
f 121 73 122
f 128 106 74
f 102 114 96
f 107 96 298
f 55 107 56
f 90 117 103
f 108 103 117
f 83 192 199
f 213 218 200
f 112 84 124
f 74 106 110
f 136 71 133
f 110 112 74
f 84 95 124
f 138 139 112
f 153 148 65
f 157 175 179
f 142 128 141
f 302 114 85
f 116 115 71
f 80 108 115
f 130 133 71
f 138 126 111
f 455 451 452
f 130 71 108
f 521 514 118
f 464 478 486
f 452 117 90
f 451 79 661
f 83 199 206
f 121 120 109
f 222 109 221
f 231 122 73
f 137 82 101
f 121 122 137
f 53 52 125
f 126 116 111
f 54 124 95
f 124 123 138
f 80 125 91
f 53 125 123
f 123 125 126
f 80 126 125
f 144 158 136
f 127 160 146
f 145 128 74
f 141 128 113
f 536 149 159
f 146 160 151
f 119 131 130
f 520 134 118
f 521 131 119
f 520 507 513
f 135 133 132
f 134 133 130
f 135 132 143
f 133 135 136
f 118 134 131
f 132 133 134
f 547 62 542
f 136 135 129
f 136 129 144
f 116 71 136
f 121 137 105
f 82 137 122
f 124 138 112
f 126 138 123
f 111 158 161
f 74 139 127
f 145 74 146
f 147 113 128
f 168 169 171
f 142 85 114
f 128 142 106
f 85 142 141
f 526 132 513
f 62 135 143
f 159 144 129
f 161 139 111
f 146 74 127
f 145 140 147
f 161 159 160
f 140 145 146
f 148 140 163
f 148 147 140
f 674 838 843
f 154 169 155
f 535 540 543
f 832 819 820
f 894 899 897
f 156 155 148
f 151 165 164
f 163 151 164
f 843 933 674
f 147 155 113
f 943 936 938
f 153 152 156
f 172 154 174
f 684 679 680
f 147 148 155
f 156 148 153
f 180 174 152
f 155 156 154
f 177 171 175
f 173 742 741
f 136 158 116
f 161 158 144
f 532 536 537
f 159 149 160
f 160 127 161
f 149 151 160
f 139 161 127
f 159 161 144
f 531 541 529
f 162 819 934
f 148 163 65
f 140 151 163
f 165 151 149
f 162 938 164
f 149 536 533
f 162 164 165
f 141 168 167
f 698 558 691
f 168 141 113
f 166 689 688
f 113 169 168
f 169 154 172
f 155 169 113
f 172 171 169
f 173 174 180
f 741 586 740
f 175 171 170
f 168 171 177
f 154 156 174
f 170 171 172
f 587 586 750
f 172 173 740
f 152 174 156
f 172 174 173
f 172 740 170
f 177 175 157
f 906 910 904
f 704 681 683
f 689 177 157
f 177 166 168
f 740 587 170
f 693 701 700
f 587 175 170
f 693 692 694
f 935 956 957
f 180 150 742
f 183 181 182
f 198 193 195
f 184 182 181
f 36 182 37
f 87 186 183
f 588 364 590
f 192 184 181
f 94 104 185
f 182 185 37
f 94 185 184
f 35 190 98
f 204 186 76
f 208 187 718
f 186 188 76
f 202 98 190
f 188 187 208
f 191 187 188
f 33 189 34
f 34 190 35
f 191 190 189
f 191 189 338
f 202 191 188
f 195 192 181
f 194 192 83
f 203 198 195
f 109 120 200
f 105 194 83
f 184 194 94
f 203 181 183
f 193 209 195
f 76 201 588
f 210 68 215
f 210 205 209
f 120 83 206
f 203 195 181
f 198 196 368
f 195 199 192
f 206 199 197
f 205 211 209
f 214 215 394
f 338 342 187
f 589 588 201
f 98 202 87
f 191 202 190
f 183 186 204
f 198 203 196
f 196 203 204
f 183 204 203
f 218 109 200
f 209 211 197
f 211 206 197
f 120 206 200
f 200 206 211
f 405 785 761
f 187 342 718
f 76 208 201
f 195 209 197
f 210 209 193
f 368 193 198
f 365 196 204
f 214 211 205
f 211 217 200
f 389 68 390
f 391 212 394
f 216 217 214
f 212 758 216
f 215 214 205
f 216 214 212
f 210 215 205
f 215 68 389
f 212 755 756
f 217 216 213
f 200 217 213
f 211 214 217
f 219 213 758
f 218 213 219
f 220 223 207
f 219 223 218
f 758 212 756
f 218 221 109
f 64 224 220
f 121 222 73
f 224 221 223
f 64 226 406
f 207 223 219
f 224 223 220
f 64 806 811
f 221 224 406
f 64 783 806
f 407 63 284
f 222 227 73
f 221 406 222
f 226 228 227
f 259 253 254
f 997 226 813
f 259 229 273
f 236 81 234
f 230 232 227
f 274 228 225
f 230 229 231
f 237 231 229
f 122 231 82
f 227 232 73
f 230 231 232
f 239 236 272
f 42 41 235
f 43 234 92
f 233 237 236
f 238 93 82
f 42 235 233
f 233 236 234
f 229 259 272
f 236 237 229
f 238 233 235
f 82 231 238
f 237 238 231
f 239 72 241
f 81 236 239
f 248 241 252
f 251 244 246
f 252 254 408
f 241 240 249
f 267 269 263
f 255 414 258
f 247 251 246
f 44 243 245
f 46 244 89
f 246 244 243
f 44 245 45
f 243 244 245
f 249 246 243
f 247 246 240
f 260 255 247
f 251 247 70
f 252 241 72
f 264 271 270
f 246 249 240
f 81 249 243
f 248 256 260
f 256 248 261
f 435 251 70
f 251 78 244
f 252 72 254
f 248 252 408
f 239 272 72
f 854 960 992
f 254 72 272
f 253 407 408
f 260 247 240
f 415 413 250
f 261 248 242
f 250 255 256
f 430 428 463
f 257 438 434
f 414 255 250
f 257 431 438
f 273 229 230
f 854 992 853
f 248 260 240
f 255 260 256
f 283 265 284
f 256 261 270
f 1014 1017 1015
f 270 250 256
f 264 242 265
f 277 279 263
f 242 407 265
f 264 263 271
f 275 268 269
f 263 264 267
f 280 277 262
f 415 409 413
f 264 265 267
f 269 283 275
f 857 861 863
f 277 276 262
f 276 269 268
f 277 269 276
f 264 270 261
f 270 266 415
f 279 271 263
f 270 271 266
f 229 272 236
f 254 272 259
f 230 274 273
f 961 963 962
f 228 274 230
f 961 274 225
f 284 275 283
f 873 858 851
f 268 288 276
f 1016 1014 1015
f 280 279 277
f 263 269 277
f 282 292 280
f 416 61 413
f 410 279 278
f 271 279 266
f 282 280 262
f 278 279 280
f 289 281 291
f 465 471 446
f 286 289 290
f 289 291 282
f 269 267 283
f 265 283 267
f 407 284 265
f 852 284 63
f 850 846 285
f 1018 15 1016
f 282 290 289
f 678 286 290
f 1027 281 1021
f 419 411 412
f 858 850 285
f 678 290 293
f 290 282 262
f 1015 289 286
f 276 293 262
f 293 276 288
f 1027 291 281
f 292 291 287
f 412 292 287
f 292 278 280
f 285 844 288
f 844 677 678
f 85 167 688
f 86 295 296
f 59 295 97
f 58 57 298
f 296 294 559
f 299 296 686
f 294 295 297
f 295 58 298
f 298 57 107
f 295 298 297
f 303 306 307
f 86 296 299
f 312 306 303
f 309 325 327
f 75 318 307
f 330 300 329
f 302 85 688
f 294 297 302
f 679 308 311
f 306 312 300
f 305 88 99
f 31 60 556
f 32 31 305
f 556 305 31
f 310 306 300
f 307 306 301
f 301 299 307
f 75 307 299
f 703 708 713
f 729 339 717
f 303 313 312
f 313 314 317
f 330 310 300
f 556 310 304
f 318 685 311
f 312 313 309
f 303 318 313
f 329 309 327
f 308 314 311
f 314 313 311
f 314 308 316
f 314 316 317
f 335 336 316
f 567 569 357
f 335 316 308
f 320 317 316
f 320 316 315
f 309 317 322
f 685 318 75
f 313 318 311
f 331 335 682
f 1003 1004 1005
f 323 320 315
f 320 323 322
f 321 323 714
f 346 348 352
f 322 69 325
f 317 320 322
f 714 323 315
f 323 321 324
f 321 568 324
f 69 322 324
f 328 325 69
f 328 327 325
f 69 324 350
f 589 718 562
f 344 77 345
f 312 329 300
f 350 356 69
f 328 326 345
f 309 329 312
f 329 332 330
f 333 330 77
f 310 330 304
f 684 683 681
f 336 315 316
f 327 328 345
f 77 330 332
f 334 333 77
f 304 333 88
f 342 343 340
f 342 338 334
f 682 681 1042
f 335 331 336
f 341 1043 339
f 336 331 341
f 344 343 77
f 347 346 337
f 191 338 187
f 88 338 189
f 717 339 1043
f 722 721 1
f 343 334 77
f 337 628 340
f 331 1042 1043
f 341 339 739
f 343 342 334
f 718 342 340
f 332 345 77
f 340 343 347
f 348 344 326
f 340 347 337
f 327 345 332
f 326 344 345
f 326 328 351
f 346 564 565
f 343 344 347
f 347 344 348
f 351 348 326
f 347 348 346
f 356 349 351
f 354 361 353
f 359 567 357
f 358 354 355
f 356 328 69
f 351 349 352
f 354 358 361
f 352 349 355
f 645 618 638
f 611 616 610
f 359 358 349
f 614 609 601
f 350 359 349
f 633 564 354
f 349 356 350
f 328 356 351
f 568 566 567
f 574 573 360
f 349 358 355
f 361 358 574
f 567 359 350
f 357 358 359
f 572 357 569
f 576 642 644
f 574 358 357
f 361 360 644
f 437 432 440
f 482 486 478
f 745 746 741
f 748 908 907
f 371 375 376
f 372 370 371
f 367 372 366
f 369 372 367
f 373 375 371
f 366 376 379
f 372 369 368
f 384 387 656
f 369 193 368
f 370 368 196
f 369 367 386
f 193 369 210
f 196 365 370
f 370 365 371
f 365 373 371
f 752 625 592
f 370 372 368
f 371 366 372
f 365 364 373
f 751 592 375
f 604 595 605
f 401 396 383
f 751 373 364
f 371 376 366
f 380 376 382
f 385 378 380
f 655 767 400
f 384 68 386
f 379 376 380
f 403 404 658
f 375 382 376
f 658 657 378
f 395 385 380
f 378 379 380
f 656 404 381
f 7 773 769
f 592 382 375
f 395 382 374
f 598 600 602
f 403 396 377
f 387 367 366
f 390 388 389
f 396 385 383
f 403 385 396
f 386 68 210
f 387 386 367
f 657 366 379
f 658 656 657
f 777 923 920
f 922 926 921
f 390 68 384
f 389 388 391
f 384 381 390
f 779 381 778
f 393 917 388
f 755 212 917
f 753 925 916
f 10 796 984
f 916 780 753
f 754 393 916
f 214 394 212
f 215 389 394
f 395 374 597
f 383 385 395
f 399 401 596
f 767 768 770
f 6 653 648
f 596 598 399
f 402 377 396
f 399 648 653
f 653 654 399
f 398 767 655
f 383 599 596
f 402 396 654
f 654 396 401
f 400 767 650
f 403 377 404
f 378 385 403
f 377 402 650
f 652 778 781
f 808 791 786
f 783 220 784
f 64 406 224
f 227 406 226
f 408 407 242
f 407 253 991
f 408 242 248
f 253 408 254
f 410 266 279
f 410 411 416
f 410 278 411
f 410 409 415
f 412 278 292
f 422 417 421
f 1017 1025 1027
f 278 412 411
f 436 413 61
f 414 257 258
f 250 413 414
f 257 414 413
f 270 415 250
f 410 415 266
f 410 416 409
f 420 416 411
f 446 447 465
f 469 425 445
f 419 287 1031
f 61 416 420
f 287 419 412
f 419 418 420
f 421 418 422
f 418 421 420
f 429 421 417
f 431 436 428
f 287 1027 1028
f 417 422 424
f 1029 1023 1028
f 1032 1037 17
f 418 1031 1024
f 1035 1036 1032
f 427 447 445
f 478 464 476
f 421 429 430
f 444 432 450
f 424 1033 460
f 449 443 445
f 463 420 421
f 431 428 426
f 448 447 427
f 430 429 427
f 443 430 427
f 430 426 428
f 431 426 437
f 436 431 257
f 437 426 442
f 444 661 441
f 433 440 441
f 78 251 435
f 257 434 258
f 434 433 435
f 433 660 435
f 79 455 457
f 413 436 257
f 428 436 61
f 426 443 442
f 437 440 438
f 437 438 431
f 434 438 433
f 506 498 496
f 442 454 437
f 441 440 432
f 433 438 440
f 444 441 432
f 441 79 660
f 443 426 430
f 439 450 454
f 445 443 427
f 442 443 439
f 432 454 450
f 444 362 451
f 429 417 448
f 449 445 425
f 662 474 475
f 447 469 445
f 448 427 429
f 447 446 468
f 460 417 424
f 447 448 465
f 496 449 425
f 439 443 449
f 500 503 515
f 362 444 450
f 521 362 514
f 119 117 452
f 455 452 90
f 452 451 522
f 437 454 432
f 417 460 448
f 439 454 442
f 458 461 100
f 451 455 79
f 460 1033 456
f 467 466 456
f 455 90 461
f 459 458 48
f 459 48 47
f 458 457 461
f 78 459 89
f 458 459 457
f 1033 424 423
f 460 456 466
f 455 461 457
f 100 461 90
f 457 459 462
f 78 462 459
f 420 463 428
f 421 430 463
f 662 475 476
f 479 476 475
f 448 466 465
f 465 466 471
f 460 466 448
f 1036 467 456
f 18 472 470
f 467 472 471
f 446 662 476
f 464 663 469
f 447 468 469
f 464 469 468
f 466 467 471
f 467 453 470
f 467 470 472
f 478 476 479
f 471 472 662
f 1038 19 664
f 473 475 474
f 472 18 474
f 468 476 464
f 446 476 468
f 1038 479 473
f 490 492 489
f 477 482 478
f 481 487 489
f 499 450 439
f 473 479 475
f 477 478 479
f 517 669 508
f 516 514 515
f 477 664 485
f 425 469 663
f 665 485 664
f 481 484 486
f 492 481 489
f 485 487 477
f 502 495 498
f 668 666 667
f 481 482 487
f 481 486 482
f 486 484 663
f 477 487 482
f 666 489 485
f 483 666 485
f 670 491 517
f 485 489 487
f 490 489 488
f 1041 504 670
f 490 480 492
f 550 817 818
f 510 505 509
f 495 492 480
f 481 492 502
f 669 490 488
f 524 525 519
f 495 501 494
f 499 500 450
f 505 512 509
f 498 495 494
f 496 499 449
f 498 506 484
f 511 512 505
f 132 526 143
f 498 494 503
f 484 481 502
f 449 499 439
f 500 499 496
f 503 500 496
f 450 500 362
f 512 495 480
f 507 501 497
f 495 502 492
f 484 502 498
f 498 503 496
f 516 494 501
f 493 517 510
f 491 510 517
f 501 511 497
f 496 425 506
f 663 506 425
f 513 507 497
f 507 118 514
f 668 488 666
f 1040 1041 508
f 490 509 480
f 510 509 493
f 523 672 814
f 143 526 62
f 501 495 512
f 525 511 505
f 509 512 480
f 501 512 511
f 513 497 524
f 520 513 132
f 118 131 521
f 500 515 362
f 494 515 503
f 362 515 514
f 514 516 507
f 515 494 516
f 669 517 493
f 670 517 508
f 539 553 548
f 531 540 541
f 497 525 524
f 510 527 525
f 134 520 132
f 507 520 118
f 119 522 521
f 521 522 362
f 452 522 119
f 362 522 451
f 491 670 673
f 523 529 527
f 497 511 525
f 519 542 526
f 505 510 525
f 510 528 527
f 513 524 526
f 519 526 524
f 529 523 518
f 519 525 527
f 528 491 673
f 527 528 523
f 529 518 531
f 529 541 552
f 549 539 548
f 165 149 533
f 549 551 822
f 531 548 540
f 159 537 536
f 165 533 162
f 530 554 543
f 553 530 548
f 824 534 821
f 543 545 532
f 543 538 535
f 542 519 552
f 537 159 129
f 533 536 532
f 135 546 129
f 62 547 546
f 532 537 538
f 538 537 546
f 549 531 518
f 831 830 829
f 540 530 543
f 541 540 535
f 542 541 535
f 527 552 519
f 547 542 535
f 526 542 62
f 545 543 554
f 532 538 543
f 834 830 824
f 836 826 828
f 820 545 544
f 533 532 545
f 129 546 537
f 62 546 135
f 535 538 547
f 546 547 538
f 540 548 530
f 549 548 531
f 551 549 518
f 534 539 549
f 523 814 518
f 550 22 821
f 928 518 814
f 822 550 821
f 529 552 527
f 542 552 541
f 534 830 831
f 554 544 545
f 530 553 554
f 544 554 553
f 310 556 301
f 555 892 845
f 556 304 305
f 296 559 686
f 557 685 686
f 691 559 294
f 695 687 689
f 691 294 690
f 686 559 558
f 336 738 315
f 571 720 579
f 1000 1012 982
f 735 731 734
f 627 626 67
f 752 589 591
f 633 353 632
f 629 565 563
f 565 564 563
f 352 564 346
f 629 626 627
f 337 346 565
f 566 568 715
f 722 570 723
f 568 567 350
f 567 566 569
f 324 568 350
f 321 714 715
f 579 720 2
f 581 572 569
f 3 646 582
f 580 581 585
f 573 574 572
f 581 580 571
f 572 571 573
f 577 578 575
f 583 576 360
f 361 574 360
f 572 574 357
f 4 613 639
f 571 577 573
f 573 583 360
f 577 579 578
f 575 582 583
f 571 580 720
f 579 577 571
f 2 578 579
f 581 571 572
f 581 716 585
f 569 566 581
f 566 715 716
f 573 577 583
f 582 576 583
f 583 577 575
f 584 724 721
f 585 723 580
f 716 581 566
f 585 584 723
f 586 744 749
f 179 587 178
f 587 179 175
f 750 586 749
f 201 718 589
f 590 364 365
f 591 589 562
f 364 588 589
f 204 590 365
f 76 588 590
f 591 562 627
f 591 67 752
f 606 619 609
f 382 592 374
f 779 388 390
f 377 651 404
f 760 392 918
f 761 659 757
f 599 395 597
f 596 599 595
f 383 596 401
f 598 596 595
f 608 592 624
f 619 634 615
f 600 598 595
f 399 598 397
f 395 599 383
f 595 599 597
f 600 595 604
f 598 602 397
f 597 607 605
f 4 612 613
f 605 595 597
f 600 5 602
f 603 610 617
f 604 614 610
f 608 607 597
f 605 609 614
f 751 752 592
f 607 609 605
f 608 597 374
f 607 606 609
f 592 608 374
f 606 607 608
f 619 620 634
f 622 601 609
f 613 612 617
f 616 5 600
f 609 619 622
f 610 603 611
f 601 630 617
f 645 642 576
f 610 614 601
f 605 614 604
f 631 632 636
f 630 613 617
f 610 616 604
f 5 616 611
f 603 617 612
f 601 617 610
f 620 619 606
f 613 630 643
f 622 619 640
f 624 620 606
f 620 67 626
f 615 631 636
f 643 635 641
f 640 619 615
f 622 621 630
f 608 624 606
f 638 637 645
f 625 624 592
f 67 620 625
f 624 625 620
f 591 627 67
f 631 626 563
f 562 628 627
f 337 629 628
f 340 628 562
f 629 337 565
f 626 629 563
f 628 629 627
f 622 630 601
f 643 630 621
f 632 631 563
f 634 631 615
f 563 564 633
f 632 353 635
f 353 633 354
f 563 633 632
f 620 626 634
f 631 634 626
f 641 635 353
f 640 635 643
f 632 635 636
f 636 635 640
f 641 642 637
f 623 638 618
f 623 639 638
f 638 639 643
f 4 639 623
f 639 613 643
f 622 640 621
f 636 640 615
f 642 641 353
f 643 641 637
f 644 642 353
f 576 646 645
f 637 638 643
f 643 621 640
f 361 644 353
f 576 644 360
f 618 645 647
f 637 642 645
f 582 646 576
f 647 646 3
f 772 652 769
f 646 647 645
f 399 397 648
f 651 377 650
f 400 650 402
f 650 649 651
f 652 651 649
f 404 651 781
f 769 652 649
f 652 775 778
f 655 653 6
f 654 400 402
f 399 654 401
f 400 654 653
f 384 656 381
f 653 655 400
f 656 387 657
f 366 657 387
f 378 657 379
f 403 658 378
f 404 656 658
f 756 757 762
f 220 783 64
f 441 660 433
f 457 660 79
f 441 661 79
f 444 451 661
f 471 662 446
f 474 662 472
f 486 663 464
f 506 663 484
f 1038 664 477
f 485 665 483
f 668 667 20
f 664 19 665
f 489 666 488
f 1040 20 1039
f 666 483 667
f 669 668 508
f 490 669 493
f 668 669 488
f 21 672 671
f 672 523 528
f 672 673 671
f 670 504 671
f 675 816 815
f 671 673 670
f 528 673 672
f 544 829 827
f 180 939 150
f 677 844 845
f 817 550 928
f 821 534 822
f 890 891 15
f 844 678 293
f 286 678 677
f 685 679 311
f 680 679 557
f 697 680 557
f 66 683 680
f 692 693 700
f 1043 1042 319
f 335 308 682
f 308 679 684
f 705 66 709
f 684 681 682
f 683 684 680
f 308 684 682
f 686 685 75
f 679 685 557
f 686 75 299
f 557 686 558
f 302 688 690
f 166 177 689
f 166 688 167
f 688 687 690
f 694 689 157
f 689 687 688
f 691 690 687
f 302 690 294
f 695 691 687
f 559 691 558
f 157 179 693
f 695 692 696
f 179 178 693
f 702 699 701
f 693 694 157
f 694 692 695
f 709 696 692
f 695 698 691
f 697 66 680
f 557 698 697
f 698 557 558
f 66 697 696
f 695 696 698
f 697 698 696
f 910 893 711
f 700 699 706
f 706 705 700
f 696 709 66
f 702 701 178
f 700 701 699
f 750 702 178
f 702 176 710
f 708 703 706
f 704 914 681
f 66 704 683
f 703 983 914
f 703 704 705
f 66 705 704
f 708 706 699
f 703 705 706
f 710 893 708
f 911 981 999
f 710 708 699
f 708 707 713
f 692 700 709
f 705 709 700
f 702 710 699
f 710 176 711
f 176 895 897
f 711 899 904
f 906 981 912
f 983 1007 913
f 713 707 912
f 703 713 712
f 739 339 729
f 716 715 714
f 321 715 568
f 714 737 716
f 724 716 560
f 585 716 584
f 319 1008 1002
f 561 731 729
f 208 718 201
f 340 562 718
f 580 719 720
f 580 570 719
f 2 720 719
f 725 726 728
f 726 1 721
f 723 570 580
f 722 723 721
f 721 723 584
f 716 724 584
f 730 724 560
f 736 729 727
f 736 730 560
f 735 727 731
f 727 729 731
f 726 721 728
f 721 724 730
f 561 729 717
f 730 736 727
f 727 728 730
f 721 730 728
f 731 1005 734
f 725 728 735
f 1005 731 561
f 561 717 1002
f 735 733 725
f 30 733 734
f 727 735 728
f 733 735 734
f 560 737 736
f 738 714 315
f 716 737 560
f 738 737 714
f 738 336 341
f 738 736 737
f 736 739 729
f 341 739 738
f 741 740 173
f 587 740 586
f 741 742 745
f 363 744 741
f 180 742 173
f 745 742 150
f 941 743 745
f 746 363 741
f 749 744 363
f 586 741 744
f 939 951 150
f 745 743 746
f 748 743 946
f 899 901 27
f 747 908 26
f 743 748 746
f 901 902 27
f 896 895 749
f 176 702 750
f 587 750 178
f 176 750 749
f 373 751 375
f 589 752 364
f 625 752 67
f 364 752 751
f 780 393 388
f 593 774 777
f 760 759 763
f 755 754 594
f 756 755 594
f 212 391 917
f 757 756 594
f 756 207 758
f 757 594 763
f 762 757 659
f 219 758 207
f 216 758 213
f 594 754 760
f 984 927 10
f 754 392 760
f 918 765 766
f 763 761 757
f 805 761 759
f 659 783 784
f 756 762 207
f 760 763 594
f 761 763 759
f 764 800 801
f 760 766 759
f 800 797 799
f 918 766 760
f 765 800 799
f 7 769 770
f 650 767 649
f 770 769 649
f 767 398 768
f 774 593 775
f 767 770 649
f 7 770 768
f 774 772 771
f 773 771 772
f 778 775 593
f 776 8 774
f 769 773 772
f 593 777 753
f 652 772 775
f 774 775 772
f 8 923 774
f 774 771 776
f 920 923 924
f 780 782 753
f 781 778 381
f 381 779 390
f 782 778 593
f 388 779 780
f 779 778 782
f 404 781 381
f 652 781 651
f 753 782 593
f 779 782 780
f 785 659 761
f 783 659 785
f 207 784 220
f 659 784 762
f 787 790 791
f 405 787 785
f 971 975 969
f 813 64 811
f 790 787 405
f 791 808 787
f 797 805 799
f 786 791 793
f 973 970 969
f 867 869 863
f 797 984 798
f 790 788 791
f 794 795 792
f 794 793 791
f 804 11 793
f 788 794 791
f 886 879 880
f 794 796 795
f 793 794 792
f 798 984 788
f 796 794 788
f 10 795 796
f 788 790 798
f 799 759 766
f 790 405 798
f 805 798 405
f 765 799 766
f 805 797 798
f 765 921 801
f 800 764 927
f 802 806 785
f 765 801 800
f 812 811 802
f 878 967 876
f 803 882 809
f 761 805 405
f 793 792 804
f 799 805 759
f 785 806 783
f 811 806 802
f 852 63 855
f 228 226 997
f 883 808 786
f 810 808 803
f 812 809 789
f 810 802 785
f 803 809 810
f 802 810 809
f 802 809 812
f 813 811 807
f 888 884 889
f 807 811 812
f 995 997 807
f 64 813 226
f 816 672 815
f 817 928 816
f 817 816 675
f 672 21 815
f 672 816 814
f 550 818 22
f 550 551 928
f 820 819 533
f 817 675 818
f 674 933 934
f 545 820 533
f 829 544 553
f 676 824 823
f 821 823 824
f 549 822 534
f 551 550 822
f 23 828 825
f 821 22 823
f 820 544 827
f 830 834 828
f 676 825 834
f 929 836 828
f 835 839 836
f 832 827 838
f 832 838 674
f 826 830 828
f 553 539 831
f 826 827 829
f 830 534 824
f 826 829 830
f 553 831 829
f 534 831 539
f 819 832 674
f 820 827 832
f 676 834 824
f 929 833 835
f 825 828 834
f 930 24 1010
f 839 827 826
f 929 828 23
f 839 835 837
f 841 833 840
f 841 837 835
f 839 838 827
f 843 838 837
f 836 839 826
f 838 839 837
f 915 948 947
f 842 843 841
f 833 841 835
f 842 841 840
f 931 989 24
f 65 938 936
f 841 843 837
f 958 953 952
f 288 844 293
f 845 844 285
f 846 845 285
f 847 555 845
f 858 288 268
f 14 846 860
f 859 268 275
f 846 847 845
f 874 854 877
f 858 285 288
f 857 856 860
f 856 857 849
f 852 275 284
f 789 885 812
f 854 855 960
f 852 851 859
f 878 964 868
f 874 852 855
f 960 63 991
f 864 848 866
f 960 855 63
f 855 854 874
f 850 848 861
f 857 846 850
f 861 848 864
f 858 268 859
f 848 850 858
f 852 859 275
f 858 859 851
f 14 860 856
f 846 857 860
f 864 863 861
f 857 850 861
f 866 874 865
f 870 878 868
f 867 863 862
f 849 857 863
f 866 865 872
f 862 863 864
f 880 888 889
f 866 872 864
f 848 873 866
f 854 853 877
f 870 875 878
f 863 869 849
f 967 862 872
f 871 878 875
f 867 13 869
f 875 862 871
f 979 978 884
f 872 865 966
f 864 872 862
f 858 873 848
f 874 873 851
f 873 874 866
f 874 851 852
f 13 875 870
f 862 875 867
f 966 967 872
f 809 882 789
f 979 853 978
f 865 874 877
f 967 878 871
f 964 878 876
f 882 883 880
f 793 887 786
f 803 808 883
f 888 880 879
f 11 881 887
f 974 12 973
f 883 882 803
f 889 882 880
f 887 883 786
f 886 883 881
f 967 970 876
f 885 807 812
f 978 885 889
f 992 994 853
f 883 886 880
f 975 886 881
f 11 887 793
f 883 887 881
f 968 965 979
f 978 889 884
f 885 789 889
f 889 789 882
f 286 677 890
f 892 890 677
f 845 892 677
f 892 891 890
f 891 892 555
f 708 893 707
f 710 711 893
f 749 895 176
f 895 896 894
f 896 749 363
f 897 895 894
f 907 363 746
f 748 26 908
f 894 901 899
f 176 897 711
f 903 898 899
f 899 711 897
f 899 898 904
f 894 896 900
f 900 896 907
f 894 900 901
f 902 900 747
f 28 906 905
f 900 902 901
f 899 27 903
f 905 906 904
f 909 999 981
f 904 898 905
f 912 910 906
f 363 907 896
f 746 748 907
f 747 900 908
f 907 908 900
f 893 910 707
f 707 910 912
f 904 910 711
f 1000 29 1012
f 713 911 712
f 981 906 28
f 713 912 911
f 913 1044 1042
f 703 712 983
f 703 914 704
f 1042 914 913
f 754 916 392
f 940 941 150
f 780 916 393
f 388 917 391
f 754 917 393
f 777 920 753
f 801 921 9
f 922 921 918
f 392 925 922
f 916 925 392
f 765 918 921
f 392 922 918
f 920 919 922
f 921 926 9
f 774 923 777
f 920 924 919
f 753 920 925
f 923 8 924
f 922 925 920
f 518 928 551
f 922 919 926
f 927 984 800
f 816 928 814
f 986 952 953
f 836 929 835
f 840 833 930
f 985 1011 1010
f 936 153 65
f 842 933 843
f 934 933 932
f 934 932 938
f 674 934 819
f 951 955 949
f 957 939 180
f 164 938 65
f 152 936 935
f 932 958 943
f 915 942 948
f 934 938 162
f 943 938 932
f 957 180 152
f 939 937 951
f 944 942 950
f 941 942 743
f 150 941 745
f 942 941 940
f 940 950 942
f 945 26 946
f 932 953 958
f 936 943 935
f 950 951 949
f 959 950 949
f 748 946 26
f 942 915 945
f 942 946 743
f 942 944 948
f 959 947 944
f 947 948 944
f 955 956 952
f 959 25 947
f 951 950 940
f 959 949 954
f 951 940 150
f 955 951 937
f 953 932 933
f 955 988 949
f 933 842 953
f 842 1011 986
f 988 986 987
f 25 959 990
f 956 955 937
f 988 955 952
f 957 956 937
f 935 943 958
f 939 957 937
f 935 957 152
f 952 956 958
f 958 956 935
f 950 959 944
f 990 959 954
f 259 963 253
f 273 962 259
f 961 962 274
f 997 995 996
f 274 962 273
f 961 993 963
f 963 960 991
f 259 962 963
f 979 980 853
f 973 964 876
f 884 888 968
f 966 865 980
f 967 966 965
f 967 965 970
f 967 871 862
f 879 971 888
f 971 969 970
f 881 998 975
f 964 973 12
f 965 968 970
f 970 968 971
f 888 971 968
f 975 971 879
f 970 973 876
f 972 975 998
f 975 972 977
f 975 879 886
f 977 973 969
f 977 972 974
f 973 977 974
f 11 976 998
f 969 975 977
f 884 968 979
f 994 978 853
f 966 979 965
f 877 980 865
f 853 980 877
f 966 980 979
f 1003 1013 732
f 912 981 911
f 712 911 1006
f 1007 712 1006
f 914 983 913
f 984 796 788
f 800 984 797
f 989 954 987
f 842 840 1011
f 842 986 953
f 987 986 985
f 989 987 985
f 988 954 949
f 986 988 952
f 988 987 954
f 24 989 985
f 954 989 931
f 407 991 63
f 954 931 990
f 963 991 253
f 960 993 992
f 994 885 978
f 963 993 960
f 994 993 961
f 993 994 992
f 961 225 996
f 885 994 995
f 996 995 994
f 961 996 994
f 996 225 997
f 228 997 225
f 807 997 813
f 11 998 881
f 972 998 976
f 1000 999 909
f 1006 999 982
f 1003 561 1002
f 999 1000 982
f 1008 913 1007
f 319 1002 717
f 1003 1002 1001
f 1013 1003 1001
f 734 1005 30
f 1003 1005 561
f 1003 732 1004
f 30 1005 1004
f 999 1006 911
f 1008 1009 1001
f 1009 1006 982
f 1008 319 1044
f 1009 1008 1007
f 1002 1008 1001
f 1006 1009 1007
f 1009 982 1012
f 930 1010 840
f 24 985 1010
f 1010 1011 840
f 986 1011 985
f 1013 1012 29
f 1009 1012 1001
f 286 890 1018
f 1012 1013 1001
f 289 1015 1021
f 16 1025 1019
f 1022 1025 1026
f 1018 1016 1015
f 289 1021 281
f 286 1018 1015
f 15 1018 890
f 1015 1017 1021
f 1017 1014 1019
f 1025 1017 1019
f 1027 1021 1017
f 1037 1030 1020
f 1024 423 424
f 422 1024 424
f 1023 1024 1031
f 418 1024 422
f 423 1024 1023
f 1026 1020 1030
f 1025 1022 1027
f 1028 1027 1022
f 1025 16 1026
f 291 1027 287
f 1029 1028 1022
f 1028 1023 1031
f 1030 1029 1022
f 423 1023 1029
f 1026 1030 1022
f 1020 1034 1037
f 419 1031 418
f 1028 1031 287
f 1037 1029 1030
f 1036 1035 453
f 423 1032 1033
f 456 1033 1032
f 467 1036 453
f 423 1037 1032
f 1032 17 1035
f 1032 1036 456
f 1029 1037 423
f 17 1037 1034
f 20 1040 668
f 479 1038 477
f 668 1040 508
f 1041 1039 504
f 508 1041 670
f 1039 1041 1040
f 682 1042 331
f 1042 681 914
f 1043 319 717
f 331 1043 341
f 1008 1044 913
f 319 1042 1044
