v 0.951746 0.316318 -0.127127
v 1.08091 0.32781 -0.106691
v 1.12608 0.34711 -0.0137241
v 1.08046 0.352186 0.0423031
v 0.94765 0.349122 0.0313021
v 0.866484 0.382966 0.0219473
v 0.85214 0.396259 0.144629
v 0.817814 0.407408 0.158969
v 0.831546 0.411257 0.0277206
v 0.744785 0.421618 0.110595
v 0.648383 0.436925 0.0830734
v 0.741838 0.407683 -0.00816781
v 0.69832 0.407045 -0.0174176
v 0.620335 0.427307 0.088981
v 0.602748 0.396898 -0.0262143
v 0.67405 0.39958 -0.0745642
v 0.708663 0.354139 -0.160054
v 0.670297 0.369052 -0.228812
v 0.599042 0.406863 -0.331844
v 0.656402 0.416569 -0.402004
v 0.738352 0.394007 -0.302155
v 0.788714 0.422031 -0.259183
v 0.825184 0.410719 -0.291616
v 0.821946 0.428685 -0.348427
v 0.915903 0.410149 -0.42053
v 1.00609 0.415452 -0.413181
v 1.08802 0.409428 -0.358251
v 1.0395 0.382632 -0.237966
v 0.959847 0.34534 -0.297562
v 0.996206 0.318642 -0.234633
v 0.995117 0.816716 -0.13754
v 0.990207 0.818561 -0.106613
v 0.979778 0.822557 -0.0820488
v 0.963647 0.828703 -0.0560338
v 0.947496 0.832298 -0.0323419
v 0.933663 0.838502 -0.00693249
v 0.917717 0.846654 0.0186726
v 0.880977 0.862664 0.0420387
v 0.843562 0.869905 0.0449756
v 0.802738 0.879105 0.0316048
v 0.774308 0.886044 0.00691909
v 0.756257 0.889436 -0.0179205
v 0.745169 0.892955 -0.0439543
v 0.740589 0.895689 -0.0708304
v 0.738823 0.890166 -0.102891
v 0.742501 0.887406 -0.12887
v 0.748386 0.886264 -0.158463
v 0.754451 0.883188 -0.193055
v 0.762486 0.886325 -0.220786
v 0.773323 0.886096 -0.247577
v 0.788089 0.877041 -0.274803
v 0.809415 0.873061 -0.294556
v 0.836308 0.867552 -0.310585
v 0.871914 0.860343 -0.321506
v 0.91628 0.851684 -0.32
v 0.954486 0.846054 -0.300771
v 0.984326 0.838528 -0.269628
v 0.995789 0.828835 -0.227824
v 0.996164 0.821897 -0.19443
v 0.995932 0.819548 -0.169048
v 0.686588 0.595474 -0.135215
v 0.73135 0.628223 -0.312213
v 0.693787 0.64574 0.0224696
v 0.729728 0.654752 0.105775
v 0.888662 0.623472 -0.372061
v 0.950395 0.586671 -0.297396
v 1.00368 0.581856 0.0286792
v 0.854005 0.636852 0.125867
v 0.994681 0.554869 -0.120271
v 0.699677 0.716912 -0.14748
v 0.779831 0.741336 -0.302256
v 0.695452 0.763856 -0.00493165
v 0.754198 0.769372 0.0664613
v 0.890326 0.743428 -0.360383
v 1.00214 0.667673 -0.217739
v 0.950388 0.698777 0.0469954
v 1.03132 0.676351 -0.0838493
v 0.722814 0.773083 -0.136993
v 0.714973 0.731503 -0.228927
v 0.786993 0.80218 -0.295108
v 0.697578 0.822847 -0.0284303
v 0.771434 0.824776 0.0408426
v 0.829313 0.769145 0.0880508
v 0.892601 0.802519 -0.337983
v 0.987143 0.743393 -0.32911
v 0.994905 0.732868 -0.20194
v 0.954894 0.762031 0.0239178
v 1.0034 0.737237 -0.084675
v 0.725698 0.804509 -0.14198
v 0.714923 0.793128 -0.264442
v 0.790016 0.833331 -0.290579
v 0.708103 0.84925 -0.0462678
v 0.780294 0.854658 0.0289385
v 0.849351 0.823798 0.0734319
v 0.892527 0.832351 -0.323818
v 0.975648 0.799536 -0.313233
v 0.993167 0.766763 -0.193014
v 0.951704 0.792023 0.00610433
v 0.983043 0.764973 -0.0836402
v 0.729454 0.824911 -0.251373
v 0.815417 0.831198 0.045435
v 0.930914 0.805629 -0.31528
v 0.746584 0.821456 -0.291184
v 0.839109 0.846367 0.0550937
v 0.830897 0.791634 0.0518613
v 0.914783 0.761761 -0.324893
v 0.955511 0.822144 -0.307804
v 0.751125 0.77409 -0.284096
v 0.80108 0.724858 0.0506566
v 0.897612 0.772136 -0.348088
v 0.824514 0.764256 -0.33349
v 0.861267 0.776451 -0.327026
v 0.935958 0.675423 -0.330187
v 0.95073 0.773476 -0.325712
v 0.780432 0.771596 -0.294032
v 0.781704 0.768863 -0.336765
v 0.725364 0.792783 -0.297657
v 0.726516 0.682822 -0.324969
v 0.721632 0.738471 -0.318937
v 0.828504 0.752846 0.0523124
v 0.792774 0.759576 0.0700329
v 0.782217 0.794363 0.0605536
v 0.828834 0.812634 -0.323558
v 0.863333 0.81553 -0.324616
v 0.806085 0.835667 -0.319243
v 0.795339 0.802329 -0.331104
v 0.856459 0.724371 -0.32482
v 0.916736 0.716553 -0.336099
v 0.789265 0.689189 -0.320925
v 0.743519 0.73331 -0.284128
v 0.736372 0.710331 -0.307778
v 0.749566 0.667332 -0.278174
v 0.76741 0.701256 -0.295717
v 0.74145 0.695371 -0.282902
v 0.7453 0.671441 -0.323646
v 0.761465 0.719529 -0.333529
v 0.807474 0.806156 0.0565283
v 0.836826 0.786484 -0.321913
v 0.84722 0.751589 -0.321921
v 0.894744 0.68394 -0.366978
v 0.956974 0.713241 -0.319113
v 0.941102 0.742426 -0.321017
v 0.741689 0.6532 -0.301858
v 0.806061 0.723673 -0.352362
v 0.907396 0.715121 -0.36738
v 0.886326 0.707134 -0.338596
v 0.928933 0.687069 -0.362446
v 0.916625 0.651615 -0.376912
v 0.845198 0.655858 -0.359849
v 0.982913 0.535092 -0.379702
v 0.88079 0.659802 -0.327332
v 0.938006 0.588123 -0.358829
v 0.923571 0.614087 -0.382345
v 0.96435 0.628139 -0.347082
v 0.946181 0.656493 -0.357876
v 0.950944 0.613286 -0.369541
v 1.03701 0.637057 -0.317227
v 0.80202 0.751052 -0.344975
v 0.811235 0.681285 -0.356716
v 0.84737 0.684017 -0.32967
v 0.828556 0.710174 -0.33359
v 0.877322 0.608043 -0.364974
v 0.884553 0.653409 -0.358902
v 0.889662 0.626136 -0.336299
v 0.873472 0.640156 -0.360304
v 1.00887 0.687458 -0.337705
v 0.986035 0.710902 -0.333411
v 0.974982 0.674029 -0.320971
v 0.953433 0.647563 -0.321211
v 1.00018 0.598015 -0.332485
v 0.991786 0.637672 -0.329505
v 0.971816 0.612044 -0.317195
v 0.965401 0.563527 -0.338065
v 0.977361 0.594407 -0.353315
v 1.02021 0.624181 -0.344874
v 1.07618 0.513716 -0.307853
v 1.02164 0.656792 -0.338889
v 1.0548 0.574227 -0.320339
v 1.04327 0.605429 -0.328247
v 0.964361 0.56835 -0.377736
v 0.88766 0.758206 0.0655874
v 0.917457 0.788457 0.0420933
v 0.9319 0.749151 0.0602488
v 0.886143 0.802999 0.067797
v 0.892475 0.828038 0.0454687
v 0.951049 0.731849 0.0390186
v 1.01231 0.713703 -0.0148971
v 0.983909 0.732817 0.0113814
v 1.0088 0.761425 -0.0379408
v 0.973916 0.774016 -0.0215381
v 0.990844 0.745284 -0.0174689
v 0.86859 0.77553 0.0963967
v 0.875469 0.699765 0.106463
v 0.846963 0.795507 0.0884747
v 0.882394 0.738009 0.0984647
v 0.898198 0.699807 0.0559834
v 0.837685 0.726972 0.113728
v 0.87845 0.71302 0.0778907
v 0.848322 0.754485 0.104853
v 0.836435 0.715619 0.0827843
v 0.997117 0.681243 0.0255703
v 0.973486 0.758593 0.00291998
v 0.904513 0.731225 0.0571117
v 0.927801 0.710342 0.06883
v 0.838844 0.681517 0.132449
v 0.821067 0.74002 0.0928216
v 0.809062 0.62456 0.0500283
v 0.999819 0.707467 0.0112792
v 0.853399 0.704755 0.12342
v 0.856274 0.666853 0.102649
v 0.816341 0.696502 0.107112
v 0.81556 0.615331 0.0991228
v 0.839979 0.662123 0.0718677
v 0.81394 0.654824 0.112862
v 0.82967 0.651445 0.140515
v 0.824458 0.641839 0.0877458
v 0.824066 0.672626 0.0930878
v 0.821372 0.692119 0.0557187
v 0.812616 0.658925 0.0513603
v 0.772156 0.646975 0.0778602
v 0.777449 0.688781 0.0629113
v 0.763178 0.727184 0.083335
v 0.78641 0.662612 0.0597213
v 0.752092 0.676333 0.0861431
v 0.748039 0.695573 0.0343579
v 0.716563 0.697026 0.0763699
v 0.725458 0.7386 0.0716221
v 0.733939 0.712693 0.0563169
v 0.754487 0.773874 0.00133007
v 0.735358 0.748729 0.0304033
v 0.732722 0.796984 0.0356118
v 0.728993 0.770085 0.0508133
v 0.75358 0.82416 -0.00203093
v 0.733113 0.829467 -0.0314466
v 0.751421 0.853323 0.0142378
v 0.724308 0.784469 -0.0331985
v 0.753647 0.800236 0.0151473
v 0.743002 0.827239 0.0310612
v 0.701364 0.793984 -0.0147316
v 0.716029 0.744641 -0.0677465
v 0.685897 0.769383 -0.0469622
v 0.660522 0.690161 -0.0269337
v 0.716668 0.798608 -0.0716944
v 0.703151 0.796954 -0.109181
v 0.713309 0.818777 -0.091776
v 0.709383 0.770649 -0.0885214
v 0.711488 0.73214 -0.108754
v 0.678182 0.723664 -0.0532284
v 0.713612 0.772377 -0.0569575
v 0.711806 0.657119 -0.103895
v 0.700693 0.748422 -0.135494
v 0.677694 0.743277 -0.0254403
v 0.699215 0.704496 0.00789006
v 0.685934 0.733623 0.00376294
v 0.710959 0.693745 -0.118064
v 0.71403 0.692452 -0.0686646
v 0.703946 0.651974 -0.157905
v 0.695846 0.682813 -0.145844
v 0.732111 0.730949 -0.0340629
v 0.720932 0.718565 -0.0831043
v 0.6795 0.686815 -0.0580706
v 0.643245 0.539631 -0.0494112
v 0.653249 0.615914 -0.047956
v 0.658378 0.65543 -0.0464826
v 0.652788 0.649992 0.00327076
v 0.706052 0.6282 -0.0567986
v 0.651718 0.635418 -0.0239432
v 0.642829 0.567665 0.0256892
v 0.636809 0.593797 -0.011382
v 0.703551 0.662507 -0.0556934
v 0.677981 0.632698 -0.0477323
v 0.710913 0.755317 -0.0313937
v 0.755501 0.734423 -0.00183406
v 0.746338 0.722234 0.0225616
v 0.652407 0.61193 0.0268989
v 0.626952 0.551387 -0.0111441
v 0.644346 0.578233 -0.0459136
v 0.711721 0.557145 -0.0552169
v 0.684983 0.588382 -0.0458377
v 0.676805 0.55299 -0.0469829
v 0.693937 0.458043 -0.0454503
v 0.677218 0.503248 -0.0494628
v 0.643798 0.620335 2.56632e-05
v 0.666228 0.637607 0.0256322
v 0.623418 0.491128 0.0398405
v 0.631144 0.456269 -0.0446558
v 0.687938 0.503933 -0.07087
v 0.640294 0.525225 0.0200126
v 0.662226 0.473182 -0.0342287
v 0.629928 0.499098 -0.0451393
v 0.707548 0.488759 -0.0483929
v 0.711426 0.522628 -0.0540877
v 0.619908 0.513152 -0.0105391
v 0.975541 0.731713 -0.273858
v 0.999781 0.761643 -0.242073
v 1.00325 0.7161 -0.24266
v 0.979451 0.775269 -0.277935
v 0.989177 0.802459 -0.263341
v 0.998551 0.701112 -0.213198
v 0.968861 0.675437 -0.142507
v 1.00086 0.701843 -0.16595
v 0.998705 0.770191 -0.307926
v 0.997946 0.655229 -0.173746
v 0.972463 0.725834 -0.128509
v 0.974645 0.760108 -0.118079
v 0.990656 0.677152 -0.158809
v 1.00453 0.681624 -0.189472
v 1.00835 0.563615 -0.222099
v 0.95834 0.607111 -0.143284
v 0.97506 0.70458 -0.150264
v 1.00777 0.615297 -0.207684
v 0.969849 0.640482 -0.155079
v 0.987861 0.607407 -0.172317
v 0.999539 0.583738 -0.195072
v 0.957822 0.498696 -0.171467
v 0.985689 0.536606 -0.187358
v 0.965986 0.569509 -0.165441
v 1.0066 0.644164 -0.199868
v 0.973813 0.446887 -0.261471
v 0.959111 0.533879 -0.162809
v 0.970534 0.502663 -0.122064
v 0.958465 0.554903 -0.131317
v 0.951771 0.510762 -0.144382
v 0.975364 0.532213 -0.121288
v 0.976114 0.584229 -0.123473
v 1.0375 0.605722 -0.0964853
v 0.995212 0.634355 -0.114248
v 1.01209 0.587105 -0.1157
v 0.969839 0.64905 -0.125167
v 0.990837 0.683395 -0.103583
v 1.0075 0.49973 -0.238678
v 1.01119 0.658775 -0.101362
v 1.01494 0.705524 -0.0925408
v 1.0285 0.70649 -0.0486421
v 1.00526 0.528069 -0.216291
v 0.980685 0.495012 -0.206666
v 1.0644 0.627375 -0.0122959
v 1.02332 0.733828 -0.034709
v 0.998536 0.451496 -0.225854
v 1.04697 0.675725 -0.0131787
v 0.99923 0.479352 -0.220885
v 1.03698 0.701144 -0.0224865
v 1.03962 0.670729 -0.0486193
v 1.04648 0.639313 -0.0744721
v 1.02879 0.63452 -0.098057
v 1.06456 0.592286 -0.0538399
v 1.05125 0.639304 -0.0410659
v 1.0556 0.611277 -0.0742133
v 1.05831 0.535688 -0.0957552
v 1.02083 0.513166 -0.118426
v 1.0411 0.568543 -0.101312
v 1.06819 0.565616 -0.078006
v 1.09428 0.468954 -0.00866625
v 1.09916 0.516412 -0.05116
v 1.08152 0.535586 -0.0719152
v 1.02449 0.544883 -0.11515
v 1.07274 0.456085 -0.0946943
v 1.08404 0.49531 -0.0842897
v 1.05259 0.499475 -0.104192
v 1.11514 0.454937 -0.0593786
v 1.10585 0.486199 -0.0619607
v 0.70522 0.670128 -0.281128
v 1.01843 0.500311 -0.357453
v 0.962298 0.628082 0.0598479
v 0.923866 0.659042 0.0691347
v 0.86356 0.598102 0.0487992
v 0.868578 0.623122 0.089293
v 0.869581 0.665561 0.0697122
v 0.874641 0.65006 0.0914012
v 0.89716 0.667608 0.0511865
v 0.905474 0.621044 0.0450918
v 0.86845 0.632786 0.0552812
v 0.929828 0.625367 0.0679887
v 0.933802 0.521263 0.0537679
v 0.923534 0.573071 0.058534
v 0.896579 0.585673 0.0354728
v 0.862304 0.485975 0.0458321
v 0.858705 0.542473 0.0362321
v 0.870102 0.570847 0.0362841
v 0.903672 0.541208 0.0300485
v 0.840606 0.546533 0.124599
v 0.919604 0.54566 0.0529043
v 0.899569 0.473711 0.0174222
v 0.843895 0.592401 0.113603
v 0.877845 0.510567 0.0147828
v 0.848235 0.618501 0.106602
v 0.861182 0.588598 0.082825
v 0.823445 0.574035 0.154715
v 0.833907 0.61255 0.15026
v 0.855515 0.584951 0.145921
v 0.815218 0.594111 0.127069
v 0.831117 0.497723 0.0863226
v 0.81278 0.541784 0.112145
v 0.817731 0.625917 0.127841
v 0.905961 0.503962 0.037303
v 0.864382 0.476878 0.0108788
v 0.903322 0.372763 -0.00683588
v 0.84452 0.387017 0.0790784
v 0.880559 0.4249 -0.0047742
v 0.853165 0.429832 0.0418584
v 0.882052 0.453962 0.00297909
v 0.860994 0.458072 0.0344401
v 0.858628 0.513292 0.0364013
v 0.857372 0.515732 0.0872083
v 0.762359 0.531729 0.107784
v 0.741966 0.705525 0.0925491
v 0.666956 0.684839 0.00949755
v 0.666499 0.711668 -0.00593678
v 0.701219 0.611906 -0.0954731
v 0.714458 0.591993 -0.0674135
v 0.686061 0.563949 -0.0970982
v 0.696405 0.535049 -0.082097
v 0.689131 0.633672 -0.125629
v 0.694251 0.662119 -0.12587
v 0.713766 0.635805 -0.0838919
v 0.687317 0.590306 -0.107523
v 0.728034 0.480122 -0.172575
v 0.682605 0.512152 -0.1374
v 0.678771 0.533618 -0.11117
v 0.690969 0.553692 -0.147563
v 0.718006 0.52162 -0.161604
v 0.704941 0.492693 -0.152373
v 0.692648 0.422796 -0.151575
v 0.7067 0.456296 -0.155036
v 0.683178 0.546481 -0.243962
v 0.741792 0.592262 -0.194624
v 0.732897 0.523218 -0.220499
v 0.719078 0.583228 -0.159709
v 0.738348 0.510151 -0.188119
v 0.740889 0.551168 -0.191318
v 0.729168 0.621489 -0.168926
v 0.724221 0.656842 -0.227484
v 0.742885 0.692027 -0.18269
v 0.71856 0.696287 -0.162703
v 0.738686 0.741297 -0.173069
v 0.700559 0.619378 -0.153077
v 0.741676 0.629948 -0.204983
v 0.736056 0.656884 -0.175373
v 0.701796 0.598419 -0.22405
v 0.740472 0.669123 -0.203789
v 0.725239 0.69479 -0.227336
v 0.732362 0.605082 -0.221782
v 0.723342 0.563035 -0.22675
v 0.692788 0.677076 -0.243605
v 0.702934 0.537885 -0.218445
v 0.682151 0.45318 -0.223765
v 0.700228 0.493369 -0.216913
v 0.739801 0.475318 -0.214243
v 0.693193 0.568769 -0.225319
v 0.690945 0.635734 -0.238814
v 0.695204 0.719104 -0.272386
v 0.705059 0.758132 -0.285349
v 0.730295 0.361687 -0.22262
v 0.717978 0.628691 -0.23093
v 0.709816 0.759632 -0.250954
v 0.733882 0.417821 -0.193562
v 0.740601 0.771676 -0.212926
v 0.738507 0.806518 -0.217866
v 0.737434 0.792935 -0.178507
v 0.729438 0.447079 -0.177853
v 0.731085 0.785833 -0.239457
v 0.731228 0.765917 -0.186065
v 0.723272 0.55247 -0.165091
v 0.676272 0.492091 -0.26646
v 0.710926 0.463879 -0.2177
v 0.736731 0.441441 -0.218097
v 0.723024 0.403068 -0.232714
v 0.676663 0.482513 -0.235751
v 0.682434 0.514897 -0.234537
v 0.701927 0.366974 -0.239582
v 0.707048 0.431995 -0.229528
v 0.68707 0.401501 -0.225434
v 0.640699 0.384836 -0.284869
v 0.649032 0.377131 -0.25336
v 0.659601 0.426992 -0.261761
v 0.664996 0.4606 -0.259085
v 0.63534 0.453957 -0.311577
v 0.658878 0.473377 -0.292222
v 0.654003 0.442148 -0.288999
v 0.663249 0.551755 -0.370265
v 0.618571 0.522307 -0.325941
v 0.634615 0.490947 -0.314194
v 0.598666 0.423622 -0.370158
v 0.656483 0.532853 -0.290724
v 0.595468 0.470681 -0.343732
v 0.656419 0.503203 -0.297181
v 0.607115 0.493829 -0.327313
v 0.641521 0.4887 -0.382481
v 0.636323 0.499615 -0.348231
v 0.64444 0.522348 -0.37323
v 0.715287 0.482841 -0.322798
v 0.64743 0.538348 -0.34086
v 0.684331 0.514497 -0.344891
v 0.660176 0.614179 -0.317839
v 0.653087 0.579849 -0.340805
v 0.693888 0.593045 -0.279982
v 0.71122 0.601901 -0.327117
v 0.651214 0.576138 -0.297062
v 0.689567 0.606868 -0.251939
v 0.700372 0.63151 -0.279944
v 0.680173 0.610409 -0.356126
v 0.632454 0.551302 -0.312552
v 0.674646 0.616207 -0.289901
v 0.700947 0.404641 -0.353595
v 0.702229 0.559012 -0.343473
v 0.681447 0.55903 -0.285754
v 0.706552 0.644811 -0.341343
v 0.680887 0.462482 -0.358909
v 0.682929 0.541254 -0.353475
v 0.719647 0.525396 -0.323815
v 0.696705 0.587488 -0.348266
v 0.672087 0.580065 -0.36382
v 0.72189 0.63661 -0.298858
v 0.681026 0.677163 -0.319903
v 0.678051 0.6494 -0.299255
v 0.67421 0.637578 -0.337352
v 0.691679 0.485123 -0.341711
v 0.784148 0.510879 -0.310169
v 0.730244 0.584448 -0.277337
v 0.732913 0.664076 -0.302752
v 0.700173 0.708477 -0.326597
v 0.699035 0.726848 -0.301735
v 0.739109 0.498972 -0.277651
v 0.717386 0.605511 -0.296616
v 0.709896 0.568438 -0.306497
v 0.745245 0.618576 -0.283032
v 0.725785 0.540853 -0.276346
v 0.732365 0.502954 -0.307212
v 0.748522 0.52609 -0.304503
v 0.801534 0.581599 -0.279248
v 0.784894 0.555599 -0.288235
v 0.795296 0.62211 -0.329455
v 0.847021 0.613127 -0.32193
v 0.825019 0.496173 -0.243957
v 0.753559 0.59514 -0.287277
v 0.812597 0.646018 -0.349699
v 0.799137 0.65543 -0.319347
v 0.781371 0.629046 -0.289102
v 0.810671 0.540472 -0.257036
v 0.773286 0.578343 -0.274003
v 0.753909 0.563363 -0.307767
v 0.730127 0.588665 -0.311985
v 0.806531 0.608648 -0.299897
v 0.824576 0.558973 -0.325073
v 0.812654 0.59167 -0.329698
v 0.769597 0.658507 -0.303322
v 0.757945 0.61942 -0.303849
v 0.792374 0.561327 -0.261777
v 0.784144 0.521038 -0.274339
v 0.807773 0.470548 -0.279638
v 0.795187 0.496408 -0.286808
v 0.727005 0.562506 -0.296449
v 0.823498 0.553725 -0.288861
v 0.818497 0.579505 -0.303241
v 0.595788 0.416964 0.0303653
v 0.999918 0.744891 -0.156768
v 0.983908 0.629922 -0.263754
v 0.977803 0.680757 -0.27136
v 0.984524 0.707149 -0.262613
v 0.951842 0.4107 -0.137386
v 1.00034 0.386055 -0.244464
v 1.02247 0.636682 0.0132176
v 1.08128 0.558252 0.00545484
v 1.0888 0.554024 -0.0352433
v 1.07856 0.587103 -0.019232
v 1.0087 0.44269 -0.118708
v 1.02679 0.475848 -0.118409
v 0.99921 0.490583 -0.1191
v 1.0442 0.444614 -0.113362
v 1.01549 0.321509 -0.114569
v 1.07735 0.391617 -0.0969748
v 1.06651 0.42338 -0.0997389
v 1.10625 0.42059 -0.0837551
v 1.09884 0.449064 -0.0831199
v 1.1389 0.347151 -0.0791296
v 1.11491 0.399414 -0.038817
v 1.11549 0.380453 -0.0857791
v 1.10982 0.337333 -0.0926271
v 1.08603 0.359619 -0.0987878
v 1.03995 0.365207 -0.117403
v 1.03527 0.405369 -0.117865
v 1.12975 0.34631 -0.046998
v 1.12743 0.403541 -0.0675636
v 0.987229 0.379433 -0.112201
v 1.01637 0.382819 -0.115258
v 1.00733 0.551312 -0.353652
v 1.03247 0.577462 -0.34911
v 0.96798 0.663667 0.0441858
v 0.999259 0.647445 0.0381352
v 0.947413 0.67367 0.0613781
v 1.0019 0.615223 0.028212
v 0.973238 0.555682 0.0595295
v 0.827441 0.491895 0.181142
v 0.841582 0.558679 0.0458518
v 0.933504 0.417159 0.0400201
v 0.905375 0.432277 0.0214612
v 0.937025 0.466415 0.0483621
v 0.909645 0.395558 0.0215839
v 0.91512 0.456059 0.0334439
v 0.938961 0.382796 0.0358611
v 1.02092 0.416566 0.0259113
v 0.917699 0.358803 0.0200211
v 1.01458 0.349405 0.0309168
v 0.978005 0.406715 0.0387293
v 0.962327 0.43939 0.0470613
v 0.99278 0.495667 0.0483053
v 0.969598 0.471839 0.0515695
v 0.961814 0.503919 0.0560602
v 1.00726 0.456382 0.0366272
v 1.00428 0.384163 0.0269596
v 0.981108 0.34896 0.0296334
v 1.04762 0.350307 0.0362129
v 1.06079 0.396184 0.0429657
v 0.996101 0.429404 0.0349392
v 1.05323 0.505477 0.0443002
v 0.969295 0.377655 0.0317578
v 1.03591 0.379781 0.0308004
v 1.12899 0.362497 0.0446848
v 1.02359 0.489323 0.0262661
v 1.00976 0.534825 0.027503
v 1.05941 0.451194 0.0416556
v 1.03526 0.461366 0.0266099
v 1.10236 0.363531 0.0648993
v 0.989139 0.528071 0.051713
v 0.998397 0.556954 0.0439329
v 1.04594 0.563262 0.0351534
v 1.04037 0.60231 0.0249436
v 1.04868 0.626077 0.0111086
v 1.06602 0.587171 0.011027
v 1.04957 0.423233 0.0341196
v 1.07016 0.535794 0.032296
v 1.0939 0.51417 -0.000294288
v 1.08995 0.526728 -0.0258561
v 1.03878 0.532896 0.0391194
v 1.09378 0.483915 0.0354982
v 1.08653 0.511604 0.0279904
v 1.11194 0.422173 0.0320182
v 1.11787 0.395366 0.0560666
v 1.0905 0.384387 0.0437143
v 1.06727 0.479284 0.0484057
v 1.1041 0.454087 0.0209632
v 1.10075 0.427782 -0.0115179
v 1.09293 0.444111 0.0541263
v 1.107 0.451306 -0.0301548
v 1.10625 0.384749 0.00401004
v 1.11839 0.375 -0.0216763
v 1.11347 0.352221 0.0168714
v 0.870606 0.378417 -0.0109396
v 0.848588 0.447274 0.104879
v 0.85873 0.459593 0.0714526
v 0.855562 0.482019 0.099341
v 0.842811 0.474957 0.153399
v 0.852568 0.412939 0.011678
v 0.857525 0.441347 0.0112685
v 0.842998 0.38345 0.0457814
v 0.846628 0.552919 0.0871309
v 0.853155 0.567759 0.0614674
v 0.858446 0.536235 0.065483
v 0.774069 0.586168 0.082572
v 0.742272 0.721911 -0.2048
v 0.699437 0.708263 -0.243071
v 0.668793 0.426033 -0.231863
v 0.68346 0.525491 -0.271042
v 0.608867 0.440721 -0.330769
v 0.575293 0.42552 -0.34628
v 0.626826 0.453695 -0.365187
v 0.625295 0.420679 -0.3904
v 0.65115 0.453583 -0.394405
v 0.669305 0.492946 -0.36509
v 0.710867 0.442337 -0.336002
v 0.726999 0.399745 -0.333098
v 0.730586 0.448133 -0.292096
v 0.729584 0.457597 -0.319633
v 0.846452 0.544031 -0.354158
v 0.795243 0.419595 -0.32165
v 0.848165 0.42953 -0.236822
v 0.608455 0.466021 0.00150845
v 0.614417 0.484883 -0.022406
v 1.00317 0.598039 -0.245139
v 0.969213 0.593547 -0.263908
v 0.956953 0.530164 -0.265458
v 0.994424 0.534087 -0.253623
v 0.955831 0.563488 -0.272957
v 0.991081 0.568119 -0.25695
v 1.0067 0.636941 -0.236748
v 1.0013 0.667214 -0.251289
v 0.992117 0.696235 -0.314433
v 1.01648 0.723168 -0.318452
v 1.02322 0.672624 -0.301262
v 0.984964 0.730271 -0.306907
v 0.969098 0.704114 -0.293037
v 0.998616 0.618752 -0.29488
v 1.03671 0.608056 -0.288952
v 1.01956 0.642315 -0.291627
v 0.984534 0.654681 -0.310913
v 0.961352 0.623881 -0.304353
v 0.960329 0.61845 -0.276097
v 0.95961 0.654275 -0.286094
v 1.02804 0.54426 -0.27792
v 1.0089 0.576246 -0.301319
v 1.04752 0.573669 -0.285459
v 1.06577 0.546944 -0.300164
v 0.975759 0.519366 -0.311472
v 0.948199 0.539622 -0.299185
v 0.979536 0.555564 -0.308496
v 1.00222 0.53385 -0.296672
v 1.02772 0.459506 -0.263285
v 1.01888 0.501567 -0.272308
v 0.981423 0.592688 -0.302736
v 1.05311 0.516009 -0.278252
v 1.06696 0.464169 -0.287242
v 0.997841 0.467206 -0.306354
v 1.00493 0.474593 -0.277365
v 0.951335 0.459797 -0.140323
v 0.978038 0.461488 -0.116214
v 0.976863 0.424549 -0.114037
v 0.998928 0.422751 -0.249195
v 1.02365 0.669792 0.00945338
v 1.0488 0.324357 -0.115669
v 1.06146 0.348817 -0.108359
v 0.947594 0.363674 -0.134397
v 0.982158 0.318971 -0.113452
v 0.996833 0.34814 -0.110787
v 0.961034 0.387009 -0.122806
v 0.951075 0.319 -0.185423
v 0.935152 0.319528 -0.155984
v 0.957454 0.382503 -0.191496
v 0.942111 0.353598 -0.171794
v 0.986126 0.412575 -0.207739
v 0.943057 0.386232 -0.160275
v 0.98685 0.376389 -0.21207
v 0.954737 0.335963 -0.277198
v 0.975451 0.318448 -0.208388
v 0.989118 0.345301 -0.218701
v 0.962983 0.348012 -0.197643
v 0.951071 0.427464 -0.180819
v 0.947708 0.434305 -0.153165
v 0.961646 0.464255 -0.190666
v 0.980505 0.442607 -0.202291
v 0.995107 0.567265 -0.329573
v 0.97763 0.519264 -0.34063
v 0.979326 0.544304 -0.353373
v 1.0194 0.473769 -0.379697
v 1.00093 0.52333 -0.357
v 1.00347 0.505754 -0.365705
v 0.994382 0.472426 -0.352106
v 1.02527 0.396987 -0.352191
v 1.01155 0.426413 -0.364219
v 1.03304 0.52766 -0.321512
v 1.05666 0.54514 -0.328876
v 0.957077 0.5903 0.0629325
v 0.988131 0.598297 0.0535515
v 0.809174 0.495163 0.132886
v 0.829946 0.536294 0.0766024
v 0.825581 0.5784 0.0802016
v 0.8391 0.598517 0.048856
v 0.804376 0.575481 0.055347
v 0.840373 0.630235 0.0605111
v 0.804397 0.511319 0.0651613
v 0.840435 0.513924 0.0389616
v 0.788898 0.548157 0.0815543
v 0.791071 0.602485 0.0623325
v 0.812126 0.542205 0.052082
v 0.790594 0.415984 0.0634813
v 0.813462 0.465246 0.0314695
v 0.813984 0.496177 0.0389635
v 0.852456 0.422758 0.0778599
v 0.84478 0.390964 0.112379
v 0.843568 0.435751 0.143275
v 0.843887 0.420493 0.117424
v 0.84585 0.413668 0.182182
v 0.862711 0.448811 0.175365
v 0.874217 0.411656 0.164545
v 0.821026 0.449187 0.188974
v 0.853682 0.477002 0.181334
v 0.813653 0.415874 0.191101
v 0.813703 0.466937 0.156925
v 0.857157 0.519139 0.158218
v 0.85149 0.55397 0.163032
v 0.815874 0.531617 0.154674
v 0.841625 0.507823 0.124639
v 0.833316 0.51979 0.174777
v 0.752387 0.61763 0.103204
v 0.774783 0.617318 0.0829301
v 0.746951 0.574122 0.117995
v 0.680263 0.519744 0.105482
v 0.718966 0.536752 0.125793
v 0.729049 0.482084 0.0993678
v 0.705569 0.579796 0.0651598
v 0.738192 0.509662 0.117287
v 0.703826 0.496695 0.122318
v 0.685591 0.442974 0.133787
v 0.661832 0.478288 0.115377
v 0.698702 0.463941 0.107205
v 0.715276 0.431417 0.123143
v 0.734815 0.451914 0.108308
v 0.779772 0.464639 0.0834908
v 0.763344 0.489614 0.102412
v 0.790155 0.482446 0.0576041
v 0.801464 0.449256 0.0603915
v 0.798631 0.416515 0.0309688
v 0.706658 0.610844 0.104436
v 0.713561 0.552338 0.0992978
v 0.658029 0.440884 0.114906
v 0.774906 0.513856 0.0817145
v 0.727859 0.627428 0.111523
v 0.719493 0.639155 0.0521298
v 0.693933 0.541569 0.11556
v 0.703035 0.581213 0.0958071
v 0.714808 0.570427 0.127487
v 0.707921 0.638947 0.0843051
v 0.708449 0.612147 0.066084
v 0.712314 0.666134 0.0680671
v 0.762601 0.474269 -0.303741
v 0.769847 0.404691 -0.305679
v 0.776171 0.440301 -0.297448
v 0.809363 0.44734 -0.305666
v 0.803179 0.418591 -0.289211
v 0.845683 0.585262 -0.351927
v 0.852919 0.578571 -0.318192
v 0.807605 0.455916 -0.237974
v 0.798245 0.482268 -0.252215
v 0.815528 0.422687 -0.239246
v 0.841596 0.463187 -0.253338
v 0.827177 0.414996 -0.258483
v 0.851435 0.493679 -0.29499
v 0.861072 0.533729 -0.314543
v 0.842193 0.451457 -0.280889
v 0.825606 0.519881 -0.307907
v 0.815939 0.494204 -0.281039
v 0.827263 0.523191 -0.276973
v 0.858543 0.555136 -0.331959
v 0.788881 0.42744 -0.338863
v 0.823176 0.443058 -0.261498
v 0.820452 0.465538 -0.320419
v 0.845405 0.466984 -0.305354
v 0.829636 0.508344 -0.340226
v 0.838848 0.532407 -0.330543
v 0.850114 0.507598 -0.320099
v 0.839552 0.45972 -0.329966
v 0.822671 0.478531 -0.349293
v 0.871451 0.504989 -0.325118
v 0.857699 0.515435 -0.350621
v 0.628903 0.489342 0.00857578
v 0.619825 0.449857 0.0379425
v 0.624733 0.468467 0.0766226
v 0.600012 0.425751 0.0624285
v 0.684739 0.514155 0.0387841
v 0.661612 0.414997 0.0379406
v 0.655923 0.499058 0.0688362
v 0.685796 0.570352 0.0384464
v 0.690545 0.608119 0.0314112
v 0.758408 0.601379 -0.0302511
v 0.706857 0.614414 -0.0198925
v 0.699135 0.621571 0.00717031
v 0.639253 0.420545 0.0622097
v 0.662949 0.457579 0.0525488
v 0.652863 0.540946 0.0581724
v 0.660122 0.586499 0.0425188
v 0.639107 0.44838 0.063712
v 0.673272 0.486275 0.0463862
v 0.702494 0.475015 -0.0141242
v 0.683752 0.459541 0.0180653
v 0.694072 0.491933 0.0144059
v 0.727476 0.541773 -0.0256339
v 0.706429 0.53075 0.00798133
v 0.694844 0.441056 -0.00963104
v 0.750575 0.413693 -0.0586267
v 0.678273 0.411177 0.00910577
v 0.723753 0.40966 -0.0390078
v 0.735279 0.456704 -0.0461121
v 0.71243 0.509253 -0.0205204
v 0.692352 0.542082 0.0315791
v 0.704517 0.573073 -0.00451431
v 0.714732 0.438253 -0.0327784
v 0.768643 0.447299 -0.0255427
v 0.725363 0.584947 -0.0326996
v 0.758844 0.440814 -0.0521658
v 0.721226 0.492335 0.0392061
v 0.702165 0.532448 0.0582604
v 0.69643 0.472334 0.0840999
v 0.699883 0.554467 0.0752918
v 0.709942 0.520401 0.0889101
v 0.753934 0.548468 0.0140976
v 0.73957 0.597485 0.0262045
v 0.699814 0.499221 0.0641079
v 0.674858 0.492792 0.0917285
v 0.726476 0.528301 0.0298422
v 0.726961 0.564266 0.0321747
v 0.603103 0.436572 -0.0246391
v 0.58638 0.412395 -0.00149042
v 0.607856 0.434598 0.00676137
v 1.04983 0.484495 -0.266853
v 1.05598 0.468199 -0.352602
v 1.05493 0.501168 -0.335533
v 1.02734 0.476497 -0.329876
v 1.06914 0.473076 -0.320749
v 1.06772 0.394294 -0.296205
v 1.05739 0.428337 -0.328435
v 1.0378 0.433952 -0.332072
v 1.06916 0.437565 -0.358664
v 1.05817 0.399328 -0.347311
v 1.07696 0.401067 -0.327738
v 1.05175 0.428893 -0.290478
v 1.05916 0.388996 -0.264258
v 1.04429 0.425982 -0.244996
v 1.03023 0.456148 -0.358801
v 1.0393 0.421564 -0.35807
v 1.0146 0.363819 -0.29547
v 1.05763 0.449991 -0.260624
v 1.01695 0.417306 -0.287502
v 1.01996 0.430883 -0.261291
v 0.940563 0.477766 -0.29085
v 0.941366 0.510277 -0.286212
v 0.980202 0.424356 -0.42512
v 0.814745 0.511634 0.107941
v 0.813306 0.571627 0.106929
v 0.847199 0.475212 0.0546314
v 0.825148 0.406976 0.0927591
v 0.817121 0.452191 0.110172
v 0.84049 0.44355 0.0397441
v 0.836656 0.446426 0.0777059
v 0.815128 0.436529 0.140802
v 0.817974 0.406922 0.125472
v 0.821609 0.48162 0.109423
v 0.835247 0.408115 0.0608404
v 0.772137 0.418351 0.0913522
v 0.79375 0.474855 -0.310303
v 0.816362 0.41647 -0.323345
v 0.800234 0.451953 -0.358401
v 0.87594 0.41044 -0.382896
v 0.900411 0.557988 -0.336798
v 0.871282 0.540079 -0.330209
v 0.871187 0.570774 -0.339378
v 0.896398 0.568855 -0.38456
v 0.897635 0.59928 -0.387906
v 0.928109 0.524155 -0.357734
v 0.911849 0.599553 -0.35251
v 0.952387 0.539212 -0.371881
v 0.96388 0.477423 -0.372119
v 0.990701 0.485704 -0.387166
v 0.98556 0.441987 -0.385443
v 0.894365 0.577025 -0.357269
v 0.939132 0.445233 -0.398964
v 1.00688 0.443703 -0.430676
v 1.0266 0.443024 -0.399239
v 0.949365 0.411747 -0.421713
v 0.963826 0.429001 -0.400836
v 0.914823 0.478199 -0.371011
v 0.938897 0.468972 -0.383052
v 0.939957 0.495521 -0.363228
v 0.873791 0.516583 -0.367353
v 0.898672 0.524275 -0.344381
v 0.898755 0.44881 -0.407937
v 0.902552 0.505764 -0.361162
v 0.903007 0.53569 -0.37796
v 0.922316 0.557812 -0.360343
v 0.880542 0.546703 -0.358917
v 0.916206 0.428206 -0.398401
v 0.710945 0.665576 -0.0214959
v 0.754016 0.684188 -0.019139
v 0.751083 0.713076 -0.0213955
v 0.721385 0.69744 -0.0322984
v 0.767297 0.409287 -0.0299455
v 0.761144 0.505921 -0.0346633
v 0.732041 0.516301 -0.0461861
v 0.742451 0.486981 -0.0517244
v 0.756333 0.505642 0.00822369
v 0.744719 0.460754 0.0125801
v 0.76749 0.479717 -0.0124956
v 0.737108 0.487315 0.0167669
v 0.696712 0.418237 0.0403708
v 0.746 0.437824 -0.00743762
v 0.717842 0.412902 0.0147228
v 0.719885 0.451693 0.0436683
v 0.673238 0.426668 0.06295
v 0.729274 0.438224 0.0204751
v 0.763204 0.582382 0.00143025
v 0.762316 0.550199 -0.0295032
v 0.739442 0.561739 -0.0425431
v 1.03366 0.372122 -0.269196
v 0.974715 0.396537 -0.306875
v 0.97224 0.488169 -0.297887
v 0.755723 0.444607 0.0860389
v 0.872386 0.449007 -0.345612
v 0.895857 0.483264 -0.352613
v 0.880041 0.462804 -0.379161
v 0.887138 0.494065 -0.38841
v 0.882625 0.435432 -0.369316
v 0.883177 0.414855 -0.415169
v 0.704852 0.672781 0.00903156
v 0.738043 0.637253 -0.0352074
v 0.73695 0.666185 -0.0341062
v 0.763782 0.633825 0.00564498
v 0.742452 0.630034 0.0303429
v 0.754395 0.662396 0.0241492
v 0.734797 0.670534 0.0471793
v 0.696925 0.447355 0.0648265
v 1.00589 0.392883 -0.304008
v 0.987534 0.355551 -0.313363
v 0.929987 0.387439 -0.273652
v 0.9667 0.401089 -0.262044
v 0.957014 0.367985 -0.264411
v 0.984658 0.327803 -0.264651
v 0.997925 0.353619 -0.249234
v 0.990164 0.430642 -0.310224
v 0.964833 0.453619 -0.300517
v 0.933878 0.438063 -0.275068
v 0.960114 0.42182 -0.289367
v 0.843781 0.449237 -0.360133
v 0.860008 0.481143 -0.347233
v 0.956918 0.376455 -0.288393
v 0.926681 0.345261 -0.292867
v 0.668258 0.383616 -0.0272665
v 0.661982 0.428583 -0.0259506
v 0.63522 0.388917 -0.0270891
v 0.684461 0.409875 -0.0635088
v 0.630731 0.421121 -0.0370325
v 0.688145 0.377666 -0.0535665
v 0.667818 0.363855 -0.111015
v 0.683873 0.431157 -0.0442974
v 0.674023 0.41651 -0.0832375
v 0.674349 0.458526 -0.116221
v 0.684478 0.472666 -0.141474
v 0.702936 0.402724 -0.0894228
v 0.681303 0.367456 -0.080593
v 0.704844 0.441 -0.0794035
v 0.673494 0.449354 -0.0846969
v 0.673576 0.421646 -0.119887
v 0.668981 0.394537 -0.104965
v 0.674976 0.494593 -0.104976
v 0.716929 0.393473 -0.165829
v 0.718494 0.422802 -0.165506
v 0.681455 0.359219 -0.141231
v 0.722336 0.357352 -0.190417
v 0.731779 0.386373 -0.201526
v 0.688959 0.390254 -0.148896
v 0.622412 0.395195 -0.310887
v 0.677033 0.41019 -0.376423
v 0.670134 0.439598 -0.37539
v 0.691199 0.432475 -0.355791
v 0.967824 0.489476 -0.253606
v 0.995865 0.470985 -0.253146
v 0.950959 0.466662 -0.264581
f 507 516 501
f 184 192 194
f 202 188 87
f 493 509 490
f 46 89 47
f 46 245 244
f 420 428 61
f 131 134 130
f 87 188 186
f 243 44 92
f 91 52 51
f 305 99 32
f 458 100 49
f 660 457 462
f 292 282 291
f 125 52 91
f 111 116 158
f 139 138 111
f 248 240 241
f 459 47 89
f 352 348 351
f 80 103 108
f 435 462 78
f 93 238 235
f 389 391 394
f 65 163 164
f 301 306 310
f 114 106 142
f 261 242 264
f 290 262 293
f 333 304 330
f 318 303 307
f 195 197 199
f 867 875 13
f 76 188 208
f 995 807 885
f 810 785 787
f 327 332 329
f 409 416 413
f 204 76 590
f 92 44 43
f 86 97 295
f 227 228 230
f 510 491 528
f 323 324 322
f 81 92 234
f 41 40 93
f 207 762 784
f 105 137 101
f 420 411 419
f 258 434 70
f 221 218 223
f 942 945 946
f 247 255 70
f 78 89 244
f 46 45 245
f 38 185 104
f 660 462 435
f 116 126 115
f 151 140 146
f 95 102 55
f 808 810 787
f 616 600 604
f 114 102 106
f 14 847 846
f 297 298 96
f 56 107 57
f 112 139 74
f 54 95 55
f 222 406 227
f 85 141 167
f 128 145 147
f 178 701 693
f 54 53 124
f 106 102 84
f 739 736 738
f 93 235 41
f 59 97 60
f 313 317 309
f 182 98 87
f 96 114 302
f 325 309 322
f 121 109 222
f 166 167 168
f 695 689 694
f 333 334 88
f 1007 983 712
f 101 82 93
f 99 189 33
f 189 99 88
f 38 37 185
f 81 241 249
f 36 35 98
f 755 917 754
f 152 153 936
f 121 105 120
f 97 86 556
f 50 49 100
f 352 355 564
f 355 354 564
f 104 101 40
f 299 301 86
f 556 60 97
f 81 239 241
f 130 108 119
f 386 210 369
f 84 112 110
f 387 384 386
f 382 395 380
f 51 50 103
f 234 43 42
f 33 32 99
f 533 819 162
f 258 70 255
f 232 231 73
f 182 36 98
f 294 296 295
f 435 70 434
f 117 119 108
f 91 51 103
f 103 50 100
f 80 115 126
f 234 42 233
f 92 81 243
f 40 39 104
f 238 237 233
f 185 182 184
f 105 101 94
f 124 53 123
f 95 84 102
f 102 107 55
f 297 96 302
f 295 59 58
f 86 301 556
f 190 34 189
f 183 182 87
f 305 304 88
f 338 88 334
f 458 49 48
f 103 80 91
f 101 93 40
f 94 194 105
f 84 110 106
f 107 102 96
f 100 90 103
f 115 108 71
f 38 104 39
f 94 101 104
f 120 105 83
f 121 73 122
f 128 106 74
f 102 114 96
f 107 96 298
f 55 107 56
f 90 117 103
f 108 103 117
f 83 192 199
f 213 218 200
f 112 84 124
f 74 106 110
f 136 71 133
f 110 112 74
f 84 95 124
f 138 139 112
f 153 148 65
f 157 175 179
f 142 128 141
f 302 114 85
f 116 115 71
f 80 108 115
f 130 133 71
f 138 126 111
f 455 451 452
f 130 71 108
f 521 514 118
f 464 478 486
f 452 117 90
f 451 79 661
f 83 199 206
f 121 120 109
f 222 109 221
f 231 122 73
f 137 82 101
f 121 122 137
f 53 52 125
f 126 116 111
f 54 124 95
f 124 123 138
f 80 125 91
f 53 125 123
f 123 125 126
f 80 126 125
f 144 158 136
f 127 160 146
f 145 128 74
f 141 128 113
f 536 149 159
f 146 160 151
f 119 131 130
f 520 134 118
f 521 131 119
f 520 507 513
f 135 133 132
f 134 133 130
f 135 132 143
f 133 135 136
f 118 134 131
f 132 133 134
f 547 62 542
f 136 135 129
f 136 129 144
f 116 71 136
f 121 137 105
f 82 137 122
f 124 138 112
f 126 138 123
f 111 158 161
f 74 139 127
f 145 74 146
f 147 113 128
f 168 169 171
f 142 85 114
f 128 142 106
f 85 142 141
f 526 132 513
f 62 135 143
f 159 144 129
f 161 139 111
f 146 74 127
f 145 140 147
f 161 159 160
f 140 145 146
f 148 140 163
f 148 147 140
f 674 838 843
f 154 169 155
f 535 540 543
f 832 819 820
f 894 899 897
f 156 155 148
f 151 165 164
f 163 151 164
f 843 933 674
f 147 155 113
f 943 936 938
f 153 152 156
f 172 154 174
f 684 679 680
f 147 148 155
f 156 148 153
f 180 174 152
f 155 156 154
f 177 171 175
f 173 742 741
f 136 158 116
f 161 158 144
f 532 536 537
f 159 149 160
f 160 127 161
f 149 151 160
f 139 161 127
f 159 161 144
f 531 541 529
f 162 819 934
f 148 163 65
f 140 151 163
f 165 151 149
f 162 938 164
f 149 536 533
f 162 164 165
f 141 168 167
f 698 558 691
f 168 141 113
f 166 689 688
f 113 169 168
f 169 154 172
f 155 169 113
f 172 171 169
f 173 174 180
f 741 586 740
f 175 171 170
f 168 171 177
f 154 156 174
f 170 171 172
f 587 586 750
f 172 173 740
f 152 174 156
f 172 174 173
f 172 740 170
f 177 175 157
f 906 910 904
f 704 681 683
f 689 177 157
f 177 166 168
f 740 587 170
f 693 701 700
f 587 175 170
f 693 692 694
f 935 956 957
f 180 150 742
f 183 181 182
f 198 193 195
f 184 182 181
f 36 182 37
f 87 186 183
f 588 364 590
f 192 184 181
f 94 104 185
f 182 185 37
f 94 185 184
f 35 190 98
f 204 186 76
f 208 187 718
f 186 188 76
f 202 98 190
f 188 187 208
f 191 187 188
f 33 189 34
f 34 190 35
f 191 190 189
f 191 189 338
f 202 191 188
f 195 192 181
f 194 192 83
f 203 198 195
f 109 120 200
f 105 194 83
f 184 194 94
f 203 181 183
f 193 209 195
f 76 201 588
f 210 68 215
f 210 205 209
f 120 83 206
f 203 195 181
f 198 196 368
f 195 199 192
f 206 199 197
f 205 211 209
f 214 215 394
f 338 342 187
f 589 588 201
f 98 202 87
f 191 202 190
f 183 186 204
f 198 203 196
f 196 203 204
f 183 204 203
f 218 109 200
f 209 211 197
f 211 206 197
f 120 206 200
f 200 206 211
f 405 785 761
f 187 342 718
f 76 208 201
f 195 209 197
f 210 209 193
f 368 193 198
f 365 196 204
f 214 211 205
f 211 217 200
f 389 68 390
f 391 212 394
f 216 217 214
f 212 758 216
f 215 214 205
f 216 214 212
f 210 215 205
f 215 68 389
f 212 755 756
f 217 216 213
f 200 217 213
f 211 214 217
f 219 213 758
f 218 213 219
f 220 223 207
f 219 223 218
f 758 212 756
f 218 221 109
f 64 224 220
f 121 222 73
f 224 221 223
f 64 226 406
f 207 223 219
f 224 223 220
f 64 806 811
f 221 224 406
f 64 783 806
f 407 63 284
f 222 227 73
f 221 406 222
f 226 228 227
f 259 253 254
f 997 226 813
f 259 229 273
f 236 81 234
f 230 232 227
f 274 228 225
f 230 229 231
f 237 231 229
f 122 231 82
f 227 232 73
f 230 231 232
f 239 236 272
f 42 41 235
f 43 234 92
f 233 237 236
f 238 93 82
f 42 235 233
f 233 236 234
f 229 259 272
f 236 237 229
f 238 233 235
f 82 231 238
f 237 238 231
f 239 72 241
f 81 236 239
f 248 241 252
f 251 244 246
f 252 254 408
f 241 240 249
f 267 269 263
f 255 414 258
f 247 251 246
f 44 243 245
f 46 244 89
f 246 244 243
f 44 245 45
f 243 244 245
f 249 246 243
f 247 246 240
f 260 255 247
f 251 247 70
f 252 241 72
f 264 271 270
f 246 249 240
f 81 249 243
f 248 256 260
f 256 248 261
f 435 251 70
f 251 78 244
f 252 72 254
f 248 252 408
f 239 272 72
f 854 960 992
f 254 72 272
f 253 407 408
f 260 247 240
f 415 413 250
f 261 248 242
f 250 255 256
f 430 428 463
f 257 438 434
f 414 255 250
f 257 431 438
f 273 229 230
f 854 992 853
f 248 260 240
f 255 260 256
f 283 265 284
f 256 261 270
f 1014 1017 1015
f 270 250 256
f 264 242 265
f 277 279 263
f 242 407 265
f 264 263 271
f 275 268 269
f 263 264 267
f 280 277 262
f 415 409 413
f 264 265 267
f 269 283 275
f 857 861 863
f 277 276 262
f 276 269 268
f 277 269 276
f 264 270 261
f 270 266 415
f 279 271 263
f 270 271 266
f 229 272 236
f 254 272 259
f 230 274 273
f 961 963 962
f 228 274 230
f 961 274 225
f 284 275 283
f 873 858 851
f 268 288 276
f 1016 1014 1015
f 280 279 277
f 263 269 277
f 282 292 280
f 416 61 413
f 410 279 278
f 271 279 266
f 282 280 262
f 278 279 280
f 289 281 291
f 465 471 446
f 286 289 290
f 289 291 282
f 269 267 283
f 265 283 267
f 407 284 265
f 852 284 63
f 850 846 285
f 1018 15 1016
f 282 290 289
f 678 286 290
f 1027 281 1021
f 419 411 412
f 858 850 285
f 678 290 293
f 290 282 262
f 1015 289 286
f 276 293 262
f 293 276 288
f 1027 291 281
f 292 291 287
f 412 292 287
f 292 278 280
f 285 844 288
f 844 677 678
f 85 167 688
f 86 295 296
f 59 295 97
f 58 57 298
f 296 294 559
f 299 296 686
f 294 295 297
f 295 58 298
f 298 57 107
f 295 298 297
f 303 306 307
f 86 296 299
f 312 306 303
f 309 325 327
f 75 318 307
f 330 300 329
f 302 85 688
f 294 297 302
f 679 308 311
f 306 312 300
f 305 88 99
f 31 60 556
f 32 31 305
f 556 305 31
f 310 306 300
f 307 306 301
f 301 299 307
f 75 307 299
f 703 708 713
f 729 339 717
f 303 313 312
f 313 314 317
f 330 310 300
f 556 310 304
f 318 685 311
f 312 313 309
f 303 318 313
f 329 309 327
f 308 314 311
f 314 313 311
f 314 308 316
f 314 316 317
f 335 336 316
f 567 569 357
f 335 316 308
f 320 317 316
f 320 316 315
f 309 317 322
f 685 318 75
f 313 318 311
f 331 335 682
f 1003 1004 1005
f 323 320 315
f 320 323 322
f 321 323 714
f 346 348 352
f 322 69 325
f 317 320 322
f 714 323 315
f 323 321 324
f 321 568 324
f 69 322 324
f 328 325 69
f 328 327 325
f 69 324 350
f 589 718 562
f 344 77 345
f 312 329 300
f 350 356 69
f 328 326 345
f 309 329 312
f 329 332 330
f 333 330 77
f 310 330 304
f 684 683 681
f 336 315 316
f 327 328 345
f 77 330 332
f 334 333 77
f 304 333 88
f 342 343 340
f 342 338 334
f 682 681 1042
f 335 331 336
f 341 1043 339
f 336 331 341
f 344 343 77
f 347 346 337
f 191 338 187
f 88 338 189
f 717 339 1043
f 722 721 1
f 343 334 77
f 337 628 340
f 331 1042 1043
f 341 339 739
f 343 342 334
f 718 342 340
f 332 345 77
f 340 343 347
f 348 344 326
f 340 347 337
f 327 345 332
f 326 344 345
f 326 328 351
f 346 564 565
f 343 344 347
f 347 344 348
f 351 348 326
f 347 348 346
f 356 349 351
f 354 361 353
f 359 567 357
f 358 354 355
f 356 328 69
f 351 349 352
f 354 358 361
f 352 349 355
f 645 618 638
f 611 616 610
f 359 358 349
f 614 609 601
f 350 359 349
f 633 564 354
f 349 356 350
f 328 356 351
f 568 566 567
f 574 573 360
f 349 358 355
f 361 358 574
f 567 359 350
f 357 358 359
f 572 357 569
f 576 642 644
f 574 358 357
f 361 360 644
f 437 432 440
f 482 486 478
f 745 746 741
f 748 908 907
f 371 375 376
f 372 370 371
f 367 372 366
f 369 372 367
f 373 375 371
f 366 376 379
f 372 369 368
f 384 387 656
f 369 193 368
f 370 368 196
f 369 367 386
f 193 369 210
f 196 365 370
f 370 365 371
f 365 373 371
f 752 625 592
f 370 372 368
f 371 366 372
f 365 364 373
f 751 592 375
f 604 595 605
f 401 396 383
f 751 373 364
f 371 376 366
f 380 376 382
f 385 378 380
f 655 767 400
f 384 68 386
f 379 376 380
f 403 404 658
f 375 382 376
f 658 657 378
f 395 385 380
f 378 379 380
f 656 404 381
f 7 773 769
f 592 382 375
f 395 382 374
f 598 600 602
f 403 396 377
f 387 367 366
f 390 388 389
f 396 385 383
f 403 385 396
f 386 68 210
f 387 386 367
f 657 366 379
f 658 656 657
f 777 923 920
f 922 926 921
f 390 68 384
f 389 388 391
f 384 381 390
f 779 381 778
f 393 917 388
f 755 212 917
f 753 925 916
f 10 796 984
f 916 780 753
f 754 393 916
f 214 394 212
f 215 389 394
f 395 374 597
f 383 385 395
f 399 401 596
f 767 768 770
f 6 653 648
f 596 598 399
f 402 377 396
f 399 648 653
f 653 654 399
f 398 767 655
f 383 599 596
f 402 396 654
f 654 396 401
f 400 767 650
f 403 377 404
f 378 385 403
f 377 402 650
f 652 778 781
f 808 791 786
f 783 220 784
f 64 406 224
f 227 406 226
f 408 407 242
f 407 253 991
f 408 242 248
f 253 408 254
f 410 266 279
f 410 411 416
f 410 278 411
f 410 409 415
f 412 278 292
f 422 417 421
f 1017 1025 1027
f 278 412 411
f 436 413 61
f 414 257 258
f 250 413 414
f 257 414 413
f 270 415 250
f 410 415 266
f 410 416 409
f 420 416 411
f 446 447 465
f 469 425 445
f 419 287 1031
f 61 416 420
f 287 419 412
f 419 418 420
f 421 418 422
f 418 421 420
f 429 421 417
f 431 436 428
f 287 1027 1028
f 417 422 424
f 1029 1023 1028
f 1032 1037 17
f 418 1031 1024
f 1035 1036 1032
f 427 447 445
f 478 464 476
f 421 429 430
f 444 432 450
f 424 1033 460
f 449 443 445
f 463 420 421
f 431 428 426
f 448 447 427
f 430 429 427
f 443 430 427
f 430 426 428
f 431 426 437
f 436 431 257
f 437 426 442
f 444 661 441
f 433 440 441
f 78 251 435
f 257 434 258
f 434 433 435
f 433 660 435
f 79 455 457
f 413 436 257
f 428 436 61
f 426 443 442
f 437 440 438
f 437 438 431
f 434 438 433
f 506 498 496
f 442 454 437
f 441 440 432
f 433 438 440
f 444 441 432
f 441 79 660
f 443 426 430
f 439 450 454
f 445 443 427
f 442 443 439
f 432 454 450
f 444 362 451
f 429 417 448
f 449 445 425
f 662 474 475
f 447 469 445
f 448 427 429
f 447 446 468
f 460 417 424
f 447 448 465
f 496 449 425
f 439 443 449
f 500 503 515
f 362 444 450
f 521 362 514
f 119 117 452
f 455 452 90
f 452 451 522
f 437 454 432
f 417 460 448
f 439 454 442
f 458 461 100
f 451 455 79
f 460 1033 456
f 467 466 456
f 455 90 461
f 459 458 48
f 459 48 47
f 458 457 461
f 78 459 89
f 458 459 457
f 1033 424 423
f 460 456 466
f 455 461 457
f 100 461 90
f 457 459 462
f 78 462 459
f 420 463 428
f 421 430 463
f 662 475 476
f 479 476 475
f 448 466 465
f 465 466 471
f 460 466 448
f 1036 467 456
f 18 472 470
f 467 472 471
f 446 662 476
f 464 663 469
f 447 468 469
f 464 469 468
f 466 467 471
f 467 453 470
f 467 470 472
f 478 476 479
f 471 472 662
f 1038 19 664
f 473 475 474
f 472 18 474
f 468 476 464
f 446 476 468
f 1038 479 473
f 490 492 489
f 477 482 478
f 481 487 489
f 499 450 439
f 473 479 475
f 477 478 479
f 517 669 508
f 516 514 515
f 477 664 485
f 425 469 663
f 665 485 664
f 481 484 486
f 492 481 489
f 485 487 477
f 502 495 498
f 668 666 667
f 481 482 487
f 481 486 482
f 486 484 663
f 477 487 482
f 666 489 485
f 483 666 485
f 670 491 517
f 485 489 487
f 490 489 488
f 1041 504 670
f 490 480 492
f 550 817 818
f 510 505 509
f 495 492 480
f 481 492 502
f 669 490 488
f 524 525 519
f 495 501 494
f 499 500 450
f 505 512 509
f 498 495 494
f 496 499 449
f 498 506 484
f 511 512 505
f 132 526 143
f 498 494 503
f 484 481 502
f 449 499 439
f 500 499 496
f 503 500 496
f 450 500 362
f 512 495 480
f 507 501 497
f 495 502 492
f 484 502 498
f 498 503 496
f 516 494 501
f 493 517 510
f 491 510 517
f 501 511 497
f 496 425 506
f 663 506 425
f 513 507 497
f 507 118 514
f 668 488 666
f 1040 1041 508
f 490 509 480
f 510 509 493
f 523 672 814
f 143 526 62
f 501 495 512
f 525 511 505
f 509 512 480
f 501 512 511
f 513 497 524
f 520 513 132
f 118 131 521
f 500 515 362
f 494 515 503
f 362 515 514
f 514 516 507
f 515 494 516
f 669 517 493
f 670 517 508
f 539 553 548
f 531 540 541
f 497 525 524
f 510 527 525
f 134 520 132
f 507 520 118
f 119 522 521
f 521 522 362
f 452 522 119
f 362 522 451
f 491 670 673
f 523 529 527
f 497 511 525
f 519 542 526
f 505 510 525
f 510 528 527
f 513 524 526
f 519 526 524
f 529 523 518
f 519 525 527
f 528 491 673
f 527 528 523
f 529 518 531
f 529 541 552
f 549 539 548
f 165 149 533
f 549 551 822
f 531 548 540
f 159 537 536
f 165 533 162
f 530 554 543
f 553 530 548
f 824 534 821
f 543 545 532
f 543 538 535
f 542 519 552
f 537 159 129
f 533 536 532
f 135 546 129
f 62 547 546
f 532 537 538
f 538 537 546
f 549 531 518
f 831 830 829
f 540 530 543
f 541 540 535
f 542 541 535
f 527 552 519
f 547 542 535
f 526 542 62
f 545 543 554
f 532 538 543
f 834 830 824
f 836 826 828
f 820 545 544
f 533 532 545
f 129 546 537
f 62 546 135
f 535 538 547
f 546 547 538
f 540 548 530
f 549 548 531
f 551 549 518
f 534 539 549
f 523 814 518
f 550 22 821
f 928 518 814
f 822 550 821
f 529 552 527
f 542 552 541
f 534 830 831
f 554 544 545
f 530 553 554
f 544 554 553
f 310 556 301
f 555 892 845
f 556 304 305
f 296 559 686
f 557 685 686
f 691 559 294
f 695 687 689
f 691 294 690
f 686 559 558
f 336 738 315
f 571 720 579
f 1000 1012 982
f 735 731 734
f 627 626 67
f 752 589 591
f 633 353 632
f 629 565 563
f 565 564 563
f 352 564 346
f 629 626 627
f 337 346 565
f 566 568 715
f 722 570 723
f 568 567 350
f 567 566 569
f 324 568 350
f 321 714 715
f 579 720 2
f 581 572 569
f 3 646 582
f 580 581 585
f 573 574 572
f 581 580 571
f 572 571 573
f 577 578 575
f 583 576 360
f 361 574 360
f 572 574 357
f 4 613 639
f 571 577 573
f 573 583 360
f 577 579 578
f 575 582 583
f 571 580 720
f 579 577 571
f 2 578 579
f 581 571 572
f 581 716 585
f 569 566 581
f 566 715 716
f 573 577 583
f 582 576 583
f 583 577 575
f 584 724 721
f 585 723 580
f 716 581 566
f 585 584 723
f 586 744 749
f 179 587 178
f 587 179 175
f 750 586 749
f 201 718 589
f 590 364 365
f 591 589 562
f 364 588 589
f 204 590 365
f 76 588 590
f 591 562 627
f 591 67 752
f 606 619 609
f 382 592 374
f 779 388 390
f 377 651 404
f 760 392 918
f 761 659 757
f 599 395 597
f 596 599 595
f 383 596 401
f 598 596 595
f 608 592 624
f 619 634 615
f 600 598 595
f 399 598 397
f 395 599 383
f 595 599 597
f 600 595 604
f 598 602 397
f 597 607 605
f 4 612 613
f 605 595 597
f 600 5 602
f 603 610 617
f 604 614 610
f 608 607 597
f 605 609 614
f 751 752 592
f 607 609 605
f 608 597 374
f 607 606 609
f 592 608 374
f 606 607 608
f 619 620 634
f 622 601 609
f 613 612 617
f 616 5 600
f 609 619 622
f 610 603 611
f 601 630 617
f 645 642 576
f 610 614 601
f 605 614 604
f 631 632 636
f 630 613 617
f 610 616 604
f 5 616 611
f 603 617 612
f 601 617 610
f 620 619 606
f 613 630 643
f 622 619 640
f 624 620 606
f 620 67 626
f 615 631 636
f 643 635 641
f 640 619 615
f 622 621 630
f 608 624 606
f 638 637 645
f 625 624 592
f 67 620 625
f 624 625 620
f 591 627 67
f 631 626 563
f 562 628 627
f 337 629 628
f 340 628 562
f 629 337 565
f 626 629 563
f 628 629 627
f 622 630 601
f 643 630 621
f 632 631 563
f 634 631 615
f 563 564 633
f 632 353 635
f 353 633 354
f 563 633 632
f 620 626 634
f 631 634 626
f 641 635 353
f 640 635 643
f 632 635 636
f 636 635 640
f 641 642 637
f 623 638 618
f 623 639 638
f 638 639 643
f 4 639 623
f 639 613 643
f 622 640 621
f 636 640 615
f 642 641 353
f 643 641 637
f 644 642 353
f 576 646 645
f 637 638 643
f 643 621 640
f 361 644 353
f 576 644 360
f 618 645 647
f 637 642 645
f 582 646 576
f 647 646 3
f 772 652 769
f 646 647 645
f 399 397 648
f 651 377 650
f 400 650 402
f 650 649 651
f 652 651 649
f 404 651 781
f 769 652 649
f 652 775 778
f 655 653 6
f 654 400 402
f 399 654 401
f 400 654 653
f 384 656 381
f 653 655 400
f 656 387 657
f 366 657 387
f 378 657 379
f 403 658 378
f 404 656 658
f 756 757 762
f 220 783 64
f 441 660 433
f 457 660 79
f 441 661 79
f 444 451 661
f 471 662 446
f 474 662 472
f 486 663 464
f 506 663 484
f 1038 664 477
f 485 665 483
f 668 667 20
f 664 19 665
f 489 666 488
f 1040 20 1039
f 666 483 667
f 669 668 508
f 490 669 493
f 668 669 488
f 21 672 671
f 672 523 528
f 672 673 671
f 670 504 671
f 675 816 815
f 671 673 670
f 528 673 672
f 544 829 827
f 180 939 150
f 677 844 845
f 817 550 928
f 821 534 822
f 890 891 15
f 844 678 293
f 286 678 677
f 685 679 311
f 680 679 557
f 697 680 557
f 66 683 680
f 692 693 700
f 1043 1042 319
f 335 308 682
f 308 679 684
f 705 66 709
f 684 681 682
f 683 684 680
f 308 684 682
f 686 685 75
f 679 685 557
f 686 75 299
f 557 686 558
f 302 688 690
f 166 177 689
f 166 688 167
f 688 687 690
f 694 689 157
f 689 687 688
f 691 690 687
f 302 690 294
f 695 691 687
f 559 691 558
f 157 179 693
f 695 692 696
f 179 178 693
f 702 699 701
f 693 694 157
f 694 692 695
f 709 696 692
f 695 698 691
f 697 66 680
f 557 698 697
f 698 557 558
f 66 697 696
f 695 696 698
f 697 698 696
f 910 893 711
f 700 699 706
f 706 705 700
f 696 709 66
f 702 701 178
f 700 701 699
f 750 702 178
f 702 176 710
f 708 703 706
f 704 914 681
f 66 704 683
f 703 983 914
f 703 704 705
f 66 705 704
f 708 706 699
f 703 705 706
f 710 893 708
f 911 981 999
f 710 708 699
f 708 707 713
f 692 700 709
f 705 709 700
f 702 710 699
f 710 176 711
f 176 895 897
f 711 899 904
f 906 981 912
f 983 1007 913
f 713 707 912
f 703 713 712
f 739 339 729
f 716 715 714
f 321 715 568
f 714 737 716
f 724 716 560
f 585 716 584
f 319 1008 1002
f 561 731 729
f 208 718 201
f 340 562 718
f 580 719 720
f 580 570 719
f 2 720 719
f 725 726 728
f 726 1 721
f 723 570 580
f 722 723 721
f 721 723 584
f 716 724 584
f 730 724 560
f 736 729 727
f 736 730 560
f 735 727 731
f 727 729 731
f 726 721 728
f 721 724 730
f 561 729 717
f 730 736 727
f 727 728 730
f 721 730 728
f 731 1005 734
f 725 728 735
f 1005 731 561
f 561 717 1002
f 735 733 725
f 30 733 734
f 727 735 728
f 733 735 734
f 560 737 736
f 738 714 315
f 716 737 560
f 738 737 714
f 738 336 341
f 738 736 737
f 736 739 729
f 341 739 738
f 741 740 173
f 587 740 586
f 741 742 745
f 363 744 741
f 180 742 173
f 745 742 150
f 941 743 745
f 746 363 741
f 749 744 363
f 586 741 744
f 939 951 150
f 745 743 746
f 748 743 946
f 899 901 27
f 747 908 26
f 743 748 746
f 901 902 27
f 896 895 749
f 176 702 750
f 587 750 178
f 176 750 749
f 373 751 375
f 589 752 364
f 625 752 67
f 364 752 751
f 780 393 388
f 593 774 777
f 760 759 763
f 755 754 594
f 756 755 594
f 212 391 917
f 757 756 594
f 756 207 758
f 757 594 763
f 762 757 659
f 219 758 207
f 216 758 213
f 594 754 760
f 984 927 10
f 754 392 760
f 918 765 766
f 763 761 757
f 805 761 759
f 659 783 784
f 756 762 207
f 760 763 594
f 761 763 759
f 764 800 801
f 760 766 759
f 800 797 799
f 918 766 760
f 765 800 799
f 7 769 770
f 650 767 649
f 770 769 649
f 767 398 768
f 774 593 775
f 767 770 649
f 7 770 768
f 774 772 771
f 773 771 772
f 778 775 593
f 776 8 774
f 769 773 772
f 593 777 753
f 652 772 775
f 774 775 772
f 8 923 774
f 774 771 776
f 920 923 924
f 780 782 753
f 781 778 381
f 381 779 390
f 782 778 593
f 388 779 780
f 779 778 782
f 404 781 381
f 652 781 651
f 753 782 593
f 779 782 780
f 785 659 761
f 783 659 785
f 207 784 220
f 659 784 762
f 787 790 791
f 405 787 785
f 971 975 969
f 813 64 811
f 790 787 405
f 791 808 787
f 797 805 799
f 786 791 793
f 973 970 969
f 867 869 863
f 797 984 798
f 790 788 791
f 794 795 792
f 794 793 791
f 804 11 793
f 788 794 791
f 886 879 880
f 794 796 795
f 793 794 792
f 798 984 788
f 796 794 788
f 10 795 796
f 788 790 798
f 799 759 766
f 790 405 798
f 805 798 405
f 765 799 766
f 805 797 798
f 765 921 801
f 800 764 927
f 802 806 785
f 765 801 800
f 812 811 802
f 878 967 876
f 803 882 809
f 761 805 405
f 793 792 804
f 799 805 759
f 785 806 783
f 811 806 802
f 852 63 855
f 228 226 997
f 883 808 786
f 810 808 803
f 812 809 789
f 810 802 785
f 803 809 810
f 802 810 809
f 802 809 812
f 813 811 807
f 888 884 889
f 807 811 812
f 995 997 807
f 64 813 226
f 816 672 815
f 817 928 816
f 817 816 675
f 672 21 815
f 672 816 814
f 550 818 22
f 550 551 928
f 820 819 533
f 817 675 818
f 674 933 934
f 545 820 533
f 829 544 553
f 676 824 823
f 821 823 824
f 549 822 534
f 551 550 822
f 23 828 825
f 821 22 823
f 820 544 827
f 830 834 828
f 676 825 834
f 929 836 828
f 835 839 836
f 832 827 838
f 832 838 674
f 826 830 828
f 553 539 831
f 826 827 829
f 830 534 824
f 826 829 830
f 553 831 829
f 534 831 539
f 819 832 674
f 820 827 832
f 676 834 824
f 929 833 835
f 825 828 834
f 930 24 1010
f 839 827 826
f 929 828 23
f 839 835 837
f 841 833 840
f 841 837 835
f 839 838 827
f 843 838 837
f 836 839 826
f 838 839 837
f 915 948 947
f 842 843 841
f 833 841 835
f 842 841 840
f 931 989 24
f 65 938 936
f 841 843 837
f 958 953 952
f 288 844 293
f 845 844 285
f 846 845 285
f 847 555 845
f 858 288 268
f 14 846 860
f 859 268 275
f 846 847 845
f 874 854 877
f 858 285 288
f 857 856 860
f 856 857 849
f 852 275 284
f 789 885 812
f 854 855 960
f 852 851 859
f 878 964 868
f 874 852 855
f 960 63 991
f 864 848 866
f 960 855 63
f 855 854 874
f 850 848 861
f 857 846 850
f 861 848 864
f 858 268 859
f 848 850 858
f 852 859 275
f 858 859 851
f 14 860 856
f 846 857 860
f 864 863 861
f 857 850 861
f 866 874 865
f 870 878 868
f 867 863 862
f 849 857 863
f 866 865 872
f 862 863 864
f 880 888 889
f 866 872 864
f 848 873 866
f 854 853 877
f 870 875 878
f 863 869 849
f 967 862 872
f 871 878 875
f 867 13 869
f 875 862 871
f 979 978 884
f 872 865 966
f 864 872 862
f 858 873 848
f 874 873 851
f 873 874 866
f 874 851 852
f 13 875 870
f 862 875 867
f 966 967 872
f 809 882 789
f 979 853 978
f 865 874 877
f 967 878 871
f 964 878 876
f 882 883 880
f 793 887 786
f 803 808 883
f 888 880 879
f 11 881 887
f 974 12 973
f 883 882 803
f 889 882 880
f 887 883 786
f 886 883 881
f 967 970 876
f 885 807 812
f 978 885 889
f 992 994 853
f 883 886 880
f 975 886 881
f 11 887 793
f 883 887 881
f 968 965 979
f 978 889 884
f 885 789 889
f 889 789 882
f 286 677 890
f 892 890 677
f 845 892 677
f 892 891 890
f 891 892 555
f 708 893 707
f 710 711 893
f 749 895 176
f 895 896 894
f 896 749 363
f 897 895 894
f 907 363 746
f 748 26 908
f 894 901 899
f 176 897 711
f 903 898 899
f 899 711 897
f 899 898 904
f 894 896 900
f 900 896 907
f 894 900 901
f 902 900 747
f 28 906 905
f 900 902 901
f 899 27 903
f 905 906 904
f 909 999 981
f 904 898 905
f 912 910 906
f 363 907 896
f 746 748 907
f 747 900 908
f 907 908 900
f 893 910 707
f 707 910 912
f 904 910 711
f 1000 29 1012
f 713 911 712
f 981 906 28
f 713 912 911
f 913 1044 1042
f 703 712 983
f 703 914 704
f 1042 914 913
f 754 916 392
f 940 941 150
f 780 916 393
f 388 917 391
f 754 917 393
f 777 920 753
f 801 921 9
f 922 921 918
f 392 925 922
f 916 925 392
f 765 918 921
f 392 922 918
f 920 919 922
f 921 926 9
f 774 923 777
f 920 924 919
f 753 920 925
f 923 8 924
f 922 925 920
f 518 928 551
f 922 919 926
f 927 984 800
f 816 928 814
f 986 952 953
f 836 929 835
f 840 833 930
f 985 1011 1010
f 936 153 65
f 842 933 843
f 934 933 932
f 934 932 938
f 674 934 819
f 951 955 949
f 957 939 180
f 164 938 65
f 152 936 935
f 932 958 943
f 915 942 948
f 934 938 162
f 943 938 932
f 957 180 152
f 939 937 951
f 944 942 950
f 941 942 743
f 150 941 745
f 942 941 940
f 940 950 942
f 945 26 946
f 932 953 958
f 936 943 935
f 950 951 949
f 959 950 949
f 748 946 26
f 942 915 945
f 942 946 743
f 942 944 948
f 959 947 944
f 947 948 944
f 955 956 952
f 959 25 947
f 951 950 940
f 959 949 954
f 951 940 150
f 955 951 937
f 953 932 933
f 955 988 949
f 933 842 953
f 842 1011 986
f 988 986 987
f 25 959 990
f 956 955 937
f 988 955 952
f 957 956 937
f 935 943 958
f 939 957 937
f 935 957 152
f 952 956 958
f 958 956 935
f 950 959 944
f 990 959 954
f 259 963 253
f 273 962 259
f 961 962 274
f 997 995 996
f 274 962 273
f 961 993 963
f 963 960 991
f 259 962 963
f 979 980 853
f 973 964 876
f 884 888 968
f 966 865 980
f 967 966 965
f 967 965 970
f 967 871 862
f 879 971 888
f 971 969 970
f 881 998 975
f 964 973 12
f 965 968 970
f 970 968 971
f 888 971 968
f 975 971 879
f 970 973 876
f 972 975 998
f 975 972 977
f 975 879 886
f 977 973 969
f 977 972 974
f 973 977 974
f 11 976 998
f 969 975 977
f 884 968 979
f 994 978 853
f 966 979 965
f 877 980 865
f 853 980 877
f 966 980 979
f 1003 1013 732
f 912 981 911
f 712 911 1006
f 1007 712 1006
f 914 983 913
f 984 796 788
f 800 984 797
f 989 954 987
f 842 840 1011
f 842 986 953
f 987 986 985
f 989 987 985
f 988 954 949
f 986 988 952
f 988 987 954
f 24 989 985
f 954 989 931
f 407 991 63
f 954 931 990
f 963 991 253
f 960 993 992
f 994 885 978
f 963 993 960
f 994 993 961
f 993 994 992
f 961 225 996
f 885 994 995
f 996 995 994
f 961 996 994
f 996 225 997
f 228 997 225
f 807 997 813
f 11 998 881
f 972 998 976
f 1000 999 909
f 1006 999 982
f 1003 561 1002
f 999 1000 982
f 1008 913 1007
f 319 1002 717
f 1003 1002 1001
f 1013 1003 1001
f 734 1005 30
f 1003 1005 561
f 1003 732 1004
f 30 1005 1004
f 999 1006 911
f 1008 1009 1001
f 1009 1006 982
f 1008 319 1044
f 1009 1008 1007
f 1002 1008 1001
f 1006 1009 1007
f 1009 982 1012
f 930 1010 840
f 24 985 1010
f 1010 1011 840
f 986 1011 985
f 1013 1012 29
f 1009 1012 1001
f 286 890 1018
f 1012 1013 1001
f 289 1015 1021
f 16 1025 1019
f 1022 1025 1026
f 1018 1016 1015
f 289 1021 281
f 286 1018 1015
f 15 1018 890
f 1015 1017 1021
f 1017 1014 1019
f 1025 1017 1019
f 1027 1021 1017
f 1037 1030 1020
f 1024 423 424
f 422 1024 424
f 1023 1024 1031
f 418 1024 422
f 423 1024 1023
f 1026 1020 1030
f 1025 1022 1027
f 1028 1027 1022
f 1025 16 1026
f 291 1027 287
f 1029 1028 1022
f 1028 1023 1031
f 1030 1029 1022
f 423 1023 1029
f 1026 1030 1022
f 1020 1034 1037
f 419 1031 418
f 1028 1031 287
f 1037 1029 1030
f 1036 1035 453
f 423 1032 1033
f 456 1033 1032
f 467 1036 453
f 423 1037 1032
f 1032 17 1035
f 1032 1036 456
f 1029 1037 423
f 17 1037 1034
f 20 1040 668
f 479 1038 477
f 668 1040 508
f 1041 1039 504
f 508 1041 670
f 1039 1041 1040
f 682 1042 331
f 1042 681 914
f 1043 319 717
f 331 1043 341
f 1008 1044 913
f 319 1042 1044
